<svg xmlns="http://www.w3.org/2000/svg" width="2000" height="2000" viewBox="0 0 2000 2000">
  <defs>
    <style>
      .cls-1 {
        fill: #fff;
        fill-rule: evenodd;
      }
    </style>
  </defs>
  <path id="Shape_316_1" data-name="Shape 316 1" class="cls-1" d="M1979.49,999c0,0.335-.01.665-0.01,1,0.08,7.99.13,16.03,0.13,24.17,0,308.12-65.7,505.43-147.91,631.82-32.63,55.1-86.3,118.04-174.55,173.76-126.05,83.87-324.43,151.46-636.6,151.46q-20.715,0-40.785-.34h-0.316c-294.575,0-487.786-60.19-614.55-137.45-103.344-59.93-163.5-130.07-198.513-190.35-81.31-126.51-145.994-323.17-145.994-628.9,0-8.14.051-16.18,0.13-24.17,0-.335-0.01-0.664-0.013-1q-0.02-2.13-.035-4.269c-0.048-6.261-.081-12.549-0.081-18.9,0-5.939.033-11.821,0.081-17.677,0.014-1.654.032-3.3,0.05-4.947q0.073-6.907.191-13.739c0.023-1.358.042-2.725,0.068-4.078q0.165-8.556.4-16.993c0.033-1.208.074-2.4,0.11-3.606q0.2-6.831.449-13.583,0.088-2.4.18-4.8,0.3-7.644.65-15.2c0.023-.477.041-0.961,0.064-1.437q0.392-8.2.857-16.27c0.085-1.493.175-2.977,0.263-4.465q0.373-6.294.786-12.518c0.09-1.354.176-2.714,0.269-4.063q0.541-7.89,1.144-15.671c0.075-.962.156-1.912,0.232-2.871q0.515-6.476,1.073-12.872,0.2-2.248.4-4.49,0.594-6.6,1.232-13.115c0.074-.755.143-1.518,0.218-2.272q0.748-7.514,1.56-14.908c0.147-1.345.3-2.681,0.449-4.021q0.641-5.73,1.317-11.392c0.159-1.334.316-2.673,0.478-4q0.884-7.238,1.821-14.375c0.1-.723.2-1.435,0.292-2.156q0.821-6.148,1.684-12.214,0.3-2.114.607-4.217,0.831-5.726,1.7-11.379c0.143-.932.282-1.873,0.426-2.8q1.065-6.841,2.185-13.573c0.2-1.222.411-2.432,0.616-3.648q0.875-5.183,1.781-10.3c0.233-1.315.464-2.632,0.7-3.941q1.187-6.591,2.42-13.09c0.095-.5.193-0.983,0.288-1.477q1.121-5.838,2.284-11.588,0.405-2.008.817-4,1.016-4.951,2.063-9.841c0.226-1.055.447-2.118,0.675-3.169q1.339-6.177,2.724-12.256c0.257-1.129.52-2.245,0.779-3.368q1.071-4.637,2.167-9.216,0.468-1.953.939-3.9,1.345-5.527,2.726-10.979,0.213-.838.426-1.676,1.416-5.537,2.874-10.982c0.345-1.292.693-2.576,1.041-3.861q1.148-4.239,2.319-8.424c0.321-1.147.639-2.3,0.962-3.443q1.564-5.522,3.168-10.956c0.317-1.073.64-2.132,0.959-3.2q1.218-4.077,2.457-8.1,0.6-1.953,1.206-3.894,1.361-4.357,2.748-8.653c0.248-.769.492-1.548,0.741-2.314q1.679-5.157,3.4-10.221c0.429-1.27.863-2.531,1.3-3.793q1.222-3.565,2.46-7.087c0.429-1.22.857-2.445,1.289-3.658q1.739-4.878,3.508-9.679c0.391-1.059.788-2.1,1.182-3.157q1.305-3.5,2.627-6.95,0.752-1.964,1.51-3.915,1.329-3.42,2.675-6.794c0.409-1.028.815-2.066,1.226-3.087q1.815-4.509,3.662-8.934c0.529-1.273,1.063-2.533,1.595-3.8q1.233-2.922,2.478-5.812c0.551-1.278,1.1-2.558,1.655-3.827q1.767-4.044,3.556-8.027c0.553-1.228,1.111-2.44,1.666-3.658q1.317-2.886,2.643-5.742,0.924-1.986,1.855-3.955,1.248-2.639,2.5-5.243c0.576-1.195,1.149-2.4,1.728-3.585q1.9-3.888,3.817-7.705c0.65-1.294,1.305-2.573,1.959-3.856q1.176-2.31,2.361-4.6,1.026-1.98,2.057-3.948,1.365-2.592,2.74-5.147,1.511-2.817,3.033-5.593c0.817-1.492,1.635-2.982,2.457-4.457q1.121-2.01,2.247-4,1.116-1.972,2.238-3.922c0.745-1.3,1.49-2.6,2.239-3.887q1.926-3.3,3.867-6.548c0.8-1.331,1.6-2.644,2.4-3.96q1.05-1.731,2.1-3.447,1.24-2.016,2.486-4.012c0.7-1.119,1.4-2.225,2.105-3.333,0.738-1.166,1.473-2.347,2.215-3.5,33.7-58.057,90.729-125.269,187.2-183.7C480.019,82.684,675.934,18.786,979.449,18.786q10.124,0,20.079.09,10.428-.089,21.022-0.09c303.13,0,498.94,63.737,625.45,144.219,96.85,58.549,154.02,125.961,187.76,184.149,0.09,0.138.18,0.28,0.26,0.419q2.235,3.474,4.44,7.024,0.7,1.13,1.41,2.269,1.8,2.918,3.59,5.884c0.39,0.644.78,1.283,1.17,1.93q2.28,3.8,4.53,7.682c0.37,0.625.73,1.259,1.09,1.887q1.785,3.1,3.56,6.242c0.46,0.81.92,1.62,1.37,2.435,1.37,2.453,2.74,4.925,4.09,7.424,0.15,0.263.29,0.521,0.43,0.784q2.22,4.092,4.41,8.273c0.43,0.82.86,1.647,1.28,2.473q1.695,3.248,3.37,6.547c0.39,0.764.77,1.523,1.16,2.291q2.16,4.275,4.28,8.63c0.29,0.607.59,1.224,0.88,1.833q1.74,3.58,3.45,7.218c0.42,0.9.85,1.811,1.28,2.721q1.8,3.882,3.6,7.826c0.21,0.465.42,0.923,0.63,1.389q2.07,4.571,4.09,9.233c0.38,0.878.76,1.764,1.15,2.646q1.56,3.624,3.11,7.3c0.37,0.883.74,1.763,1.11,2.652q1.995,4.779,3.96,9.642c0.21,0.538.42,1.085,0.64,1.624q1.665,4.167,3.31,8.4c0.39,1,.77,2,1.16,3q1.59,4.148,3.15,8.355c0.24,0.648.49,1.288,0.73,1.939q1.875,5.077,3.71,10.253c0.33,0.92.66,1.849,0.98,2.773,0.95,2.7,1.9,5.418,2.83,8.155,0.35,1,.69,2.006,1.03,3.015q1.8,5.319,3.57,10.723c0.12,0.384.24,0.775,0.37,1.16q1.59,4.9,3.14,9.891c0.34,1.086.67,2.177,1.01,3.269q1.38,4.464,2.73,8.989c0.24,0.821.49,1.634,0.73,2.458q1.665,5.617,3.28,11.333c0.27,0.941.53,1.892,0.79,2.836q1.275,4.534,2.51,9.128c0.31,1.126.61,2.25,0.92,3.381q1.56,5.892,3.1,11.873c0.02,0.085.05,0.172,0.07,0.257q1.5,5.881,2.94,11.87c0.29,1.169.57,2.345,0.85,3.52,0.77,3.218,1.54,6.458,2.29,9.718,0.23,0.99.46,1.972,0.68,2.966q1.41,6.186,2.78,12.473c0.2,0.928.39,1.868,0.59,2.8q1.1,5.092,2.15,10.252c0.26,1.247.51,2.494,0.76,3.747q1.215,5.971,2.38,12.025c0.06,0.365.14,0.723,0.21,1.088q1.245,6.56,2.44,13.235c0.23,1.244.45,2.5,0.67,3.744q0.93,5.241,1.82,10.545c0.2,1.156.39,2.306,0.59,3.466q1.125,6.786,2.2,13.675c0.13,0.868.26,1.748,0.4,2.619q0.885,5.749,1.73,11.576c0.19,1.366.39,2.735,0.59,4.107q0.87,6.147,1.7,12.374c0.09,0.676.19,1.343,0.28,2.021q0.945,7.157,1.82,14.43c0.16,1.3.32,2.618,0.47,3.927q0.69,5.7,1.33,11.477c0.15,1.321.3,2.637,0.44,3.963q0.81,7.419,1.57,14.941c0.07,0.732.14,1.474,0.21,2.208q0.645,6.546,1.24,13.18,0.2,2.226.39,4.462c0.38,4.276.73,8.577,1.08,12.906,0.07,0.95.15,1.891,0.23,2.844q0.6,7.782,1.14,15.683c0.1,1.344.18,2.7,0.27,4.048q0.42,6.231.79,12.533c0.09,1.485.18,2.966,0.26,4.457q0.465,8.084.86,16.274c0.02,0.473.04,0.953,0.06,1.427q0.36,7.55.65,15.207,0.09,2.393.18,4.8,0.255,6.753.45,13.584c0.04,1.2.08,2.4,0.11,3.606q0.24,8.436.4,16.993c0.02,1.353.04,2.719,0.07,4.077q0.105,6.832.19,13.74c0.01,1.647.03,3.293,0.05,4.947,0.05,5.856.08,11.738,0.08,17.677,0,6.35-.03,12.638-0.08,18.9C1979.52,996.156,1979.51,997.58,1979.49,999Zm-183.06.184c0.01-1.154.02-2.312,0.02-3.469,0.04-5.091.07-10.205,0.07-15.368q0-7.242-.07-14.373c-0.01-1.344-.02-2.683-0.04-4.022q-0.06-5.618-.15-11.172c-0.02-1.1-.04-2.215-0.06-3.315q-0.135-6.957-.32-13.817c-0.03-.982-0.06-1.953-0.09-2.932q-0.165-5.554-.37-11.045c-0.04-1.3-.09-2.605-0.14-3.9q-0.24-6.221-.53-12.365c-0.02-.385-0.03-0.775-0.05-1.16q-0.315-6.669-.7-13.232c-0.07-1.212-.14-2.417-0.21-3.624-0.2-3.416-.42-6.813-0.64-10.191-0.07-1.1-.14-2.2-0.22-3.291q-0.435-6.42-.93-12.752c-0.06-.775-0.13-1.54-0.19-2.313q-0.42-5.279-.87-10.493c-0.11-1.212-.22-2.422-0.32-3.628-0.33-3.6-.66-7.168-1.01-10.717-0.06-.6-0.11-1.2-0.17-1.8q-0.615-6.123-1.27-12.149c-0.12-1.078-.24-2.148-0.36-3.222q-0.525-4.694-1.08-9.332c-0.13-1.065-.26-2.133-0.38-3.193q-0.735-5.908-1.49-11.733c-0.07-.551-0.15-1.094-0.22-1.644-0.45-3.377-.92-6.729-1.39-10.06q-0.24-1.675-.48-3.34-0.69-4.737-1.41-9.413c-0.11-.708-0.21-1.423-0.32-2.129q-0.87-5.606-1.79-11.119c-0.16-.944-0.32-1.879-0.48-2.818-0.48-2.876-.98-5.734-1.48-8.574-0.18-1.016-.36-2.034-0.54-3.045q-0.975-5.42-1.99-10.761c-0.06-.3-0.12-0.588-0.17-0.885-0.63-3.285-1.28-6.541-1.93-9.778-0.2-1.018-.41-2.032-0.62-3.046-0.57-2.8-1.16-5.575-1.75-8.336-0.16-.758-0.32-1.522-0.48-2.277q-1.11-5.113-2.26-10.142c-0.18-.808-0.37-1.606-0.55-2.411q-0.93-3.977-1.86-7.9c-0.23-.955-0.46-1.911-0.69-2.862q-1.185-4.861-2.4-9.651c-0.02-.07-0.03-0.141-0.05-0.21q-1.245-4.872-2.53-9.653c-0.24-.92-0.49-1.834-0.74-2.749q-1.005-3.736-2.04-7.422c-0.22-.768-0.43-1.542-0.64-2.306q-1.32-4.647-2.67-9.215c-0.2-.67-0.4-1.331-0.6-2q-1.1-3.679-2.21-7.309c-0.28-.888-0.55-1.775-0.83-2.658q-1.26-4.052-2.55-8.042c-0.1-.313-0.2-0.631-0.3-0.943q-1.44-4.4-2.9-8.719c-0.28-.821-0.56-1.635-0.84-2.452q-1.14-3.339-2.3-6.631c-0.27-.751-0.53-1.507-0.79-2.255q-1.5-4.2-3.03-8.336c-0.19-.529-0.39-1.05-0.59-1.577q-1.275-3.421-2.56-6.793c-0.32-.815-0.63-1.629-0.94-2.44q-1.335-3.443-2.69-6.831c-0.18-.439-0.35-0.883-0.53-1.321q-1.59-3.959-3.21-7.84c-0.3-.722-0.61-1.438-0.91-2.156q-1.26-2.99-2.53-5.936c-0.31-.718-0.62-1.438-0.93-2.152q-1.65-3.786-3.33-7.507c-0.17-.379-0.34-0.752-0.51-1.13q-1.455-3.209-2.93-6.363c-0.35-.74-0.69-1.477-1.04-2.213q-1.395-2.957-2.8-5.868c-0.24-.5-0.48-1-0.72-1.491q-1.725-3.543-3.48-7.016c-0.31-.625-0.63-1.242-0.94-1.863q-1.365-2.682-2.74-5.324c-0.35-.671-0.69-1.344-1.04-2.011-1.19-2.262-2.38-4.509-3.59-6.726-0.11-.215-0.23-0.424-0.34-0.638q-1.665-3.048-3.33-6.036c-0.37-.663-0.74-1.322-1.12-1.981q-1.44-2.558-2.89-5.075c-0.3-.511-0.59-1.026-0.89-1.534q-1.83-3.156-3.68-6.246c-0.32-.527-0.64-1.046-0.95-1.57-0.97-1.607-1.95-3.2-2.92-4.784-0.39-.616-0.77-1.232-1.15-1.845q-1.8-2.882-3.6-5.711c-0.08-.113-0.15-0.228-0.22-0.341-27.44-47.312-73.92-102.125-152.67-149.731C1422.4,254,1263.19,202.172,1016.71,202.172q-8.61,0-17.093.073-8.109-.066-16.327-0.073c-246.788,0-406.087,51.955-508.934,117.513-78.438,47.51-124.81,102.161-152.21,149.367-0.6.938-1.2,1.9-1.8,2.847-0.571.9-1.142,1.8-1.711,2.71q-1.013,1.62-2.021,3.262-0.858,1.394-1.712,2.8c-0.65,1.07-1.3,2.137-1.948,3.219q-1.578,2.64-3.144,5.325c-0.609,1.045-1.214,2.1-1.82,3.16s-1.215,2.12-1.82,3.189-1.22,2.161-1.827,3.251c-0.668,1.2-1.333,2.411-2,3.624q-1.238,2.259-2.466,4.547c-0.744,1.389-1.488,2.78-2.228,4.186q-0.838,1.6-1.672,3.21-0.963,1.859-1.92,3.738c-0.532,1.043-1.064,2.083-1.593,3.135q-1.56,3.106-3.1,6.265c-0.47.964-.936,1.943-1.4,2.915q-1.022,2.121-2.036,4.263-0.756,1.6-1.509,3.216-1.08,2.317-2.148,4.668c-0.452.991-.906,1.977-1.355,2.975q-1.455,3.236-2.892,6.527c-0.45,1.031-.9,2.072-1.345,3.112q-1.012,2.349-2.015,4.725c-0.433,1.027-.867,2.052-1.3,3.086q-1.5,3.6-2.978,7.265c-0.334.83-.664,1.674-1,2.51q-1.1,2.745-2.176,5.524-0.615,1.586-1.227,3.183-1.076,2.808-2.136,5.652c-0.32.856-.643,1.705-0.961,2.567q-1.44,3.9-2.852,7.869c-0.352.986-.7,1.982-1.048,2.975q-1.006,2.864-2,5.762c-0.351,1.027-.7,2.051-1.053,3.084q-1.393,4.125-2.761,8.311c-0.2.623-.4,1.256-0.6,1.881q-1.127,3.5-2.234,7.036-0.494,1.578-.981,3.166-1.008,3.273-2,6.589c-0.26.868-.522,1.729-0.78,2.6q-1.3,4.418-2.575,8.908c-0.263.929-.522,1.867-0.783,2.8q-0.951,3.4-1.885,6.849c-0.283,1.045-.566,2.089-0.846,3.14q-1.184,4.433-2.337,8.929-0.174.681-.346,1.363-1.125,4.428-2.217,8.927-0.384,1.581-.763,3.172-0.892,3.723-1.762,7.493c-0.211.914-.425,1.821-0.634,2.739q-1.126,4.942-2.215,9.966c-0.185.854-.365,1.718-0.549,2.576q-0.851,3.975-1.677,8-0.333,1.625-.664,3.255-0.944,4.68-1.857,9.422c-0.077.4-.157,0.8-0.234,1.2q-1.006,5.277-1.968,10.644c-0.192,1.064-.38,2.135-0.569,3.2q-0.737,4.164-1.448,8.378c-0.167.989-.336,1.973-0.5,2.966q-0.909,5.477-1.777,11.036c-0.118.756-.23,1.521-0.347,2.279q-0.7,4.6-1.381,9.252-0.249,1.71-.494,3.429-0.7,4.933-1.369,9.931c-0.078.586-.16,1.165-0.238,1.753q-0.765,5.8-1.48,11.689c-0.132,1.08-.26,2.168-0.389,3.253q-0.551,4.6-1.071,9.263c-0.122,1.09-.245,2.176-0.365,3.27q-0.657,6.018-1.269,12.122c-0.061.612-.117,1.233-0.177,1.847q-0.521,5.3-1,10.663-0.163,1.821-.323,3.652-0.455,5.2-.873,10.465c-0.062.78-.128,1.553-0.189,2.335q-0.492,6.323-.93,12.742c-0.075,1.1-.145,2.2-0.218,3.3q-0.336,5.059-.639,10.178c-0.072,1.21-.145,2.417-0.214,3.631q-0.374,6.57-.7,13.228c-0.019.388-.034,0.781-0.052,1.169q-0.29,6.136-.529,12.357-0.075,1.947-.146,3.9-0.2,5.491-.365,11.045c-0.028.978-.062,1.95-0.089,2.932q-0.191,6.859-.323,13.817c-0.021,1.1-.037,2.211-0.056,3.316q-0.1,5.555-.155,11.171c-0.015,1.339-.03,2.677-0.041,4.022q-0.058,7.143-.066,14.373c0,5.163.027,10.277,0.066,15.368q0.014,1.737.029,3.47c0,0.273.008,0.54,0.01,0.813q-0.1,9.738-.105,19.652c0,248.59,52.6,408.5,118.708,511.36,28.469,49.01,77.382,106.04,161.411,154.77,103.072,62.82,260.172,111.76,499.691,111.76h0.257q16.33,0.285,33.163.28c253.83,0,415.12-54.95,517.62-123.15,71.75-45.31,115.39-96.49,141.93-141.28,66.84-102.77,120.26-263.21,120.26-513.74q0-9.93-.11-19.652C1796.42,999.725,1796.42,999.457,1796.43,999.184ZM1606.14,723.173a268.84,268.84,0,0,1-43.19,43.574q-6.945,6.386-13.9,12.772-20.085,15.588-40.18,31.178c-53.27,37.874-113.87,70.333-182.54,92.408-21.73,6.987-44.56,11.2-68.36,16.528l-29.29,2.629-10.89-.751-11.27-1.127c-10.98-2.55-20.08-6.135-28.17-11.269-39.63-25.142-50.39-80.4-63.85-131.85-25.94-99.178-16.15-241.072,12.02-328.685,8.41-26.147,17.23-48.686,31.92-67.991,2.6-3.41,5.29-7.516,8.64-10.142,9.27-7.268,18.42-13.657,31.18-17.655l19.53-3.381,6.76-.376a195.63,195.63,0,0,1,54.08,6.762c20.26,5.3,39.26,9.227,57.47,15.777,43.43,15.627,83.69,32.589,120.56,54.843,26.41,15.943,51.01,33.8,75.12,51.838,9.37,7.019,17.88,14.63,27.04,21.788q5.625,5.445,11.27,10.893a124.168,124.168,0,0,1,20.65,20.285q7.14,7.325,14.27,14.65c14.33,18.293,28.97,34.161,38.69,57.473,6.43,15.429,9.28,37.919,3.38,56.346C1638.54,686.366,1621.45,703.579,1606.14,723.173Zm-86.6-104.956c-4.99-8.08-10.97-14.521-16.65-21.781-1.96-1.965-3.93-3.93-5.89-5.894a79.406,79.406,0,0,0-13.07-13.069q-4.1-3.97-8.2-7.944c-9.29-7.271-18-15.413-27.67-22.293-30.74-21.874-63.3-39.664-101.2-54.838-20.64-8.259-48.18-17.366-75.59-17.938l-4.35.257c-4.64.863-8.7,1.748-11.79,4.1-11.56,8.808-16.83,31.341-21.78,47.15-16.78,53.607-20.14,141.778-4.86,200.132,5.56,21.257,9.81,42.626,20.49,58.681,4.37,6.571,11.13,13.678,23.32,12.044,8.04-1.079,15.55-1.112,22.8-2.819,60.4-14.21,108.02-38.117,151.42-68.931,11.36-8.061,21.23-17.928,32.03-26.394,11.61-9.1,22.24-20.836,31.26-32.544,6.22-8.087,13.51-15.747,16.14-27.419C1527.8,630.513,1522.49,622.982,1519.54,618.217Zm-339.2,669.773q30.75-1.26,61.52-2.5l52.52-1.5c0.16-.34.33-0.67,0.5-1l-18.51-46.5c-16.68-40.39-32.24-79.91-47.02-121.49-5.51-15.51-17.54-50.67-1.5-63,3.81-2.93,8.51-2.96,13.51-5,55.22-.28,74.65,37.22,92.53,74.5,17,35.42,32.19,73.26,47.52,110.49,5.18,12.6,15.56,41.64,20,50.5,15.74,0.07,47.81.5,65.53,0.5q39.255,1.245,78.52,2.5,10.515,0.24,21.01.5c22.72,3.72,43.05,2.79,60.02,11.5,12.25,6.28,26.42,21.96,21.51,43.49-11.1,48.71-59.24,46.92-109.04,36q-25.5-1.74-51.02-3.5c-7.44-1.22-50.2-1.63-54.52-1.5q11.01,32.505,22.01,65c13.89,39.75,26.66,81.56,37.02,124.49,9.32,38.65,9.92,69.63-27.51,79-33.3,8.33-51.13-19.06-61.03-38.5-19.17-37.69-27.16-83.86-41.51-126.99q-17.25-52.5-34.51-105-30.255.255-60.52,0.5c-46.37,0-96.53.1-138.05,4.5-38.47,4.08-56.38.53-62.52-21-5.58-19.57,2.61-42.62,13.5-50.99,16.53-12.7,43.84-11.13,69.53-15h30.51ZM695.5,1662C527.329,1662,391,1525.67,391,1357.5S527.329,1053,695.5,1053,1000,1189.33,1000,1357.5,863.671,1662,695.5,1662Zm0-466.99A162.49,162.49,0,1,0,857.986,1357.5,162.489,162.489,0,0,0,695.5,1195.01Zm258.526-337.1C943.88,875.034,927.2,894.6,899.768,911.92,860.585,937.99,798.924,959,701.888,959q-6.438,0-12.678-.108h-0.1c-91.565,0-151.623-18.71-191.026-42.724-32.123-18.629-50.822-40.432-61.705-59.17C411.106,817.677,391,756.547,391,661.512c0-2.529.016-5.028,0.04-7.512,0-.1,0-0.206,0-0.311,0-.441-0.007-0.884-0.011-1.326-0.015-1.947-.025-3.9-0.025-5.875,0-1.846.01-3.674,0.025-5.5q0.007-.771.016-1.538,0.022-2.147.059-4.27c0.008-.422.013-0.847,0.022-1.268q0.051-2.66.123-5.282c0.011-.375.023-0.747,0.034-1.121q0.063-2.122.14-4.222,0.027-.747.056-1.492,0.091-2.376.2-4.724c0.007-.148.013-0.3,0.02-0.447q0.122-2.549.266-5.057c0.026-.464.054-0.925,0.082-1.388q0.115-1.956.244-3.891c0.028-.421.055-0.844,0.084-1.263q0.168-2.452.355-4.871c0.023-.3.049-0.594,0.072-0.893q0.16-2.011.334-4,0.062-.7.124-1.4,0.185-2.052.382-4.077c0.024-.235.045-0.472,0.068-0.706q0.232-2.336.485-4.634c0.046-.418.093-0.833,0.14-1.25q0.2-1.781.409-3.541c0.05-.415.1-0.831,0.149-1.244q0.274-2.25.566-4.468c0.029-.225.061-0.446,0.091-0.671q0.255-1.911.523-3.8,0.094-.657.189-1.311,0.258-1.779.528-3.537c0.045-.29.088-0.582,0.133-0.871q0.33-2.127.679-4.219c0.063-.38.128-0.756,0.191-1.134q0.273-1.611.554-3.2c0.072-.408.144-0.818,0.217-1.224q0.369-2.049.753-4.07c0.029-.154.06-0.3,0.089-0.459q0.35-1.814.71-3.6,0.126-.624.254-1.244,0.317-1.539.641-3.059c0.07-.328.139-0.659,0.21-0.985q0.416-1.92.847-3.81c0.08-.351.161-0.7,0.242-1.047q0.333-1.442.674-2.864,0.145-.608.292-1.213,0.417-1.719.847-3.413l0.132-.521q0.441-1.721.894-3.413c0.107-.4.215-0.8,0.323-1.2q0.357-1.317.721-2.618c0.1-.357.2-0.715,0.3-1.07q0.486-1.717.985-3.406c0.1-.333.2-0.663,0.3-1q0.378-1.266.763-2.518,0.188-.607.375-1.211,0.423-1.353.855-2.689c0.077-.239.152-0.481,0.23-0.719q0.522-1.6,1.056-3.178c0.133-.395.268-0.786,0.4-1.179q0.379-1.107.765-2.2c0.133-.379.266-0.76,0.4-1.137q0.54-1.517,1.09-3.008c0.121-.329.245-0.654,0.367-0.981q0.407-1.087.817-2.161,0.234-.611.469-1.217,0.412-1.063.832-2.112c0.127-.319.253-0.642,0.381-0.959q0.564-1.4,1.138-2.777c0.164-.4.33-0.788,0.5-1.18q0.382-.909.77-1.807c0.171-.4.342-0.8,0.514-1.189q0.55-1.259,1.106-2.5c0.172-.382.345-0.759,0.518-1.138q0.408-.9.821-1.784,0.288-.618.577-1.23,0.387-.819.778-1.629c0.179-.372.358-0.746,0.538-1.115q0.59-1.208,1.186-2.395c0.2-.4.406-0.8,0.609-1.2q0.366-.719.734-1.429,0.32-.616.639-1.227c0.283-.538.567-1.07,0.852-1.6q0.47-.875.943-1.738c0.254-.464.508-0.927,0.763-1.385q0.35-.625.7-1.243t0.695-1.219c0.232-.4.464-0.809,0.7-1.208q0.6-1.028,1.2-2.036c0.248-.414.5-0.822,0.745-1.231,0.218-.358.436-0.716,0.654-1.071q0.385-.627.773-1.247c0.218-.348.436-0.692,0.654-1.036,0.23-.363.458-0.73,0.689-1.089,10.474-18.046,28.2-38.938,58.188-57.1C533.87,368.862,594.768,349,689.112,349q3.147,0,6.241.028Q698.6,349,701.888,349c94.225,0,155.09,19.812,194.413,44.829,30.1,18.2,47.875,39.154,58.363,57.241l0.083,0.13q0.692,1.08,1.379,2.183l0.437,0.706q0.56,0.906,1.117,1.829c0.12,0.2.242,0.4,0.363,0.6q0.708,1.182,1.409,2.387c0.113,0.2.226,0.392,0.338,0.587q0.556,0.963,1.108,1.94l0.425,0.757q0.639,1.144,1.272,2.308l0.134,0.244q0.688,1.271,1.368,2.571c0.134,0.255.267,0.512,0.4,0.769q0.525,1.01,1.045,2.035c0.121,0.237.242,0.473,0.362,0.712q0.669,1.329,1.329,2.682c0.092,0.189.183,0.381,0.275,0.57q0.539,1.113,1.071,2.244,0.2,0.421.4,0.846,0.564,1.206,1.12,2.432c0.065,0.145.132,0.287,0.2,0.432q0.641,1.421,1.272,2.87c0.119,0.273.237,0.548,0.355,0.823q0.487,1.127.968,2.269c0.115,0.275.231,0.548,0.346,0.824q0.62,1.486,1.229,3c0.067,0.167.133,0.337,0.2,0.5q0.518,1.3,1.028,2.612c0.121,0.31.24,0.621,0.36,0.933q0.495,1.288.982,2.6c0.074,0.2.15,0.4,0.225,0.6q0.583,1.58,1.155,3.187c0.1,0.286.2,0.575,0.3,0.862q0.443,1.259.88,2.535,0.161,0.468.32,0.937,0.56,1.654,1.107,3.333c0.039,0.12.077,0.241,0.116,0.361q0.494,1.524.976,3.074c0.106,0.338.21,0.677,0.315,1.017q0.428,1.388.847,2.794c0.077,0.255.154,0.508,0.229,0.764q0.516,1.746,1.019,3.523c0.083,0.292.164,0.588,0.246,0.881q0.394,1.41.781,2.838,0.143,0.523.283,1.05,0.489,1.832.966,3.691c0.007,0.026.013,0.053,0.02,0.08q0.467,1.828.916,3.689c0.089,0.364.176,0.729,0.264,1.1q0.358,1.5.71,3.021c0.071,0.307.143,0.612,0.213,0.921q0.438,1.923.862,3.877c0.062,0.289.123,0.581,0.185,0.871q0.339,1.583.668,3.187,0.12,0.581.238,1.164,0.375,1.857.737,3.738c0.021,0.114.044,0.225,0.066,0.338q0.389,2.04.76,4.114c0.07,0.387.138,0.776,0.207,1.164q0.288,1.629.566,3.278c0.061,0.359.122,0.717,0.182,1.077q0.351,2.109.685,4.251c0.042,0.27.082,0.543,0.123,0.814q0.276,1.788.538,3.6,0.093,0.637.184,1.277,0.271,1.911.53,3.846c0.028,0.21.057,0.418,0.085,0.628q0.294,2.224.568,4.486c0.05,0.4.1,0.814,0.146,1.22q0.212,1.774.412,3.568c0.046,0.411.093,0.82,0.138,1.232q0.252,2.306.486,4.644c0.023,0.228.044,0.458,0.066,0.686q0.2,2.035.385,4.1l0.123,1.387q0.174,1.994.334,4.012c0.024,0.295.049,0.588,0.072,0.884q0.188,2.419.356,4.875c0.028,0.418.055,0.839,0.083,1.258q0.128,1.937.244,3.9,0.042,0.692.082,1.385,0.142,2.512.266,5.059c0.007,0.147.013,0.3,0.02,0.443q0.111,2.348.2,4.727,0.03,0.744.056,1.492,0.076,2.1.14,4.222c0.011,0.375.023,0.746,0.034,1.121q0.072,2.622.123,5.282c0.009,0.421.014,0.846,0.022,1.268q0.036,2.123.059,4.271c0.006,0.512.011,1.023,0.016,1.537,0.015,1.821.025,3.649,0.025,5.5,0,1.974-.01,3.928-0.025,5.875,0,0.442-.007.885-0.011,1.326,0,0.1,0,.207,0,0.311,0.024,2.484.04,4.983,0.04,7.512C1000,757.288,979.577,818.622,954.026,857.909Zm-81.349-204.09c0-.257,0-0.515.007-0.772,0.008-1.133.014-2.27,0.014-3.419,0-1.074-.006-2.138-0.014-3.2,0-.3-0.006-0.6-0.009-0.894q-0.013-1.25-.035-2.486l-0.012-.737q-0.03-1.548-.072-3.074c-0.006-.219-0.014-0.435-0.02-0.652q-0.036-1.236-.081-2.458c-0.011-.289-0.021-0.579-0.033-0.867q-0.054-1.384-.117-2.751c0-.086-0.008-0.173-0.012-0.258q-0.071-1.484-.155-2.944c-0.015-.27-0.032-0.538-0.047-0.806q-0.069-1.14-.143-2.267c-0.016-.244-0.032-0.49-0.048-0.733q-0.1-1.428-.207-2.836c-0.014-.173-0.028-0.343-0.042-0.515q-0.093-1.175-.195-2.334-0.035-.4-0.071-0.808-0.108-1.2-.224-2.384c-0.013-.132-0.025-0.267-0.038-0.4q-0.137-1.362-.283-2.7c-0.026-.24-0.054-0.478-0.08-0.717q-0.117-1.044-.24-2.076c-0.029-.236-0.056-0.474-0.085-0.71q-0.16-1.314-.331-2.61c-0.016-.123-0.033-0.244-0.049-0.366q-0.152-1.126-.309-2.238-0.052-.372-0.107-0.743-0.153-1.053-.313-2.094c-0.024-.157-0.047-0.317-0.072-0.474q-0.193-1.247-.4-2.473c-0.035-.21-0.071-0.418-0.106-0.627q-0.162-.96-0.329-1.908-0.06-.339-0.121-0.677-0.216-1.206-.442-2.394l-0.039-.2q-0.21-1.1-.429-2.175c-0.045-.227-0.091-0.452-0.138-0.678q-0.19-.933-0.388-1.854c-0.036-.169-0.072-0.339-0.108-0.507q-0.247-1.137-.5-2.256c-0.041-.18-0.083-0.357-0.124-0.536q-0.2-.885-0.413-1.758c-0.051-.213-0.1-0.426-0.154-0.637q-0.262-1.082-.533-2.147c0-.016-0.007-0.031-0.011-0.047q-0.278-1.083-.562-2.147c-0.055-.2-0.11-0.408-0.165-0.612q-0.225-.831-0.455-1.651c-0.047-.171-0.1-0.343-0.143-0.513q-0.292-1.034-.593-2.05c-0.044-.149-0.089-0.3-0.133-0.445q-0.245-.817-0.493-1.626l-0.183-.591q-0.282-.9-0.568-1.789c-0.023-.07-0.045-0.14-0.068-0.21-0.212-.653-0.427-1.3-0.644-1.94l-0.186-.545q-0.255-.742-0.512-1.475l-0.177-.5q-0.333-.935-0.672-1.854c-0.044-.118-0.088-0.234-0.132-0.351q-0.282-.762-0.571-1.511-0.1-.273-0.209-0.543-0.3-.766-0.6-1.52l-0.117-.294q-0.354-.88-0.715-1.744c-0.067-.161-0.134-0.32-0.2-0.48q-0.279-.664-0.563-1.32-0.1-.24-0.206-0.479-0.368-.841-0.74-1.67c-0.039-.084-0.077-0.167-0.115-0.251q-0.324-.714-0.652-1.416l-0.231-.492q-0.309-.659-0.623-1.306c-0.054-.11-0.107-0.221-0.16-0.331q-0.384-.789-0.774-1.561c-0.069-.139-0.14-0.276-0.21-0.415q-0.3-.6-0.608-1.184l-0.233-.447q-0.4-.756-0.8-1.5l-0.078-.142q-0.368-.678-0.74-1.342c-0.082-.148-0.165-0.294-0.248-0.441q-0.321-.568-0.644-1.129c-0.066-.114-0.131-0.228-0.2-0.341q-0.408-.7-0.82-1.39c-0.07-.117-0.141-0.233-0.211-0.349q-0.324-.537-0.65-1.064l-0.255-.411q-0.4-.641-0.8-1.27l-0.048-.076c-6.1-10.526-16.445-22.72-33.963-33.31-22.884-14.559-58.3-26.088-113.136-26.088q-1.915,0-3.8.016-1.8-.014-3.632-0.016c-54.9,0-90.341,11.558-113.221,26.143C561.113,513.222,550.8,525.38,544.7,535.882c-0.134.209-.267,0.422-0.4,0.633l-0.381.6c-0.15.24-.3,0.483-0.449,0.726l-0.381.623c-0.145.238-.289,0.476-0.433,0.717q-0.351.587-.7,1.184c-0.135.233-.27,0.468-0.4,0.7s-0.27.472-.405,0.71-0.271.48-.406,0.723q-0.224.4-.444,0.806-0.276.5-.549,1.012c-0.166.309-.331,0.618-0.5,0.931q-0.186.356-.372,0.714-0.215.414-.427,0.832c-0.118.232-.237,0.463-0.354,0.7q-0.348.692-.691,1.394c-0.1.214-.208,0.432-0.312,0.648q-0.228.472-.453,0.949c-0.113.237-.224,0.476-0.336,0.715q-0.24.516-.478,1.039c-0.1.22-.2,0.439-0.3,0.661q-0.324.72-.644,1.452c-0.1.23-.2,0.461-0.3,0.693q-0.225.522-.448,1.051c-0.1.228-.193,0.456-0.289,0.687q-0.333.8-.662,1.616c-0.075.184-.148,0.372-0.222,0.558q-0.243.611-.484,1.229l-0.273.708c-0.159.416-.318,0.836-0.475,1.257-0.071.191-.143,0.38-0.214,0.571q-0.32.868-.634,1.751-0.117.33-.233,0.662-0.225.638-.445,1.282c-0.079.228-.157,0.456-0.235,0.686q-0.309.918-.614,1.849c-0.045.138-.089,0.279-0.134,0.418q-0.251.779-.5,1.566-0.109.351-.218,0.7-0.225.727-.445,1.466c-0.058.193-.116,0.384-0.173,0.579q-0.291.982-.573,1.981c-0.059.207-.116,0.416-0.174,0.623q-0.213.758-.42,1.524-0.094.348-.188,0.7-0.264.987-.52,1.987c-0.026.1-.051,0.2-0.077,0.3q-0.25.986-.493,1.986c-0.057.234-.113,0.47-0.17,0.706q-0.2.828-.392,1.667l-0.141.609q-0.251,1.1-.493,2.217c-0.041.19-.081,0.382-0.122,0.573q-0.189.885-.373,1.78c-0.049.241-.1,0.482-0.148,0.724q-0.21,1.041-.413,2.1c-0.017.089-.035,0.177-0.052,0.267-0.149.782-.294,1.573-0.438,2.368-0.042.236-.084,0.475-0.126,0.712q-0.164.927-.322,1.864c-0.037.22-.075,0.439-0.112,0.66q-0.2,1.218-.4,2.455c-0.026.168-.051,0.338-0.077,0.507q-0.157,1.023-.308,2.058c-0.036.254-.073,0.508-0.109,0.763q-0.156,1.1-.305,2.21c-0.017.13-.036,0.259-0.053,0.39q-0.169,1.288-.329,2.6c-0.03.24-.058,0.482-0.087,0.724q-0.121,1.024-.238,2.06c-0.027.243-.055,0.484-0.081,0.728q-0.147,1.338-.282,2.7c-0.014.137-.026,0.275-0.04,0.411q-0.115,1.179-.223,2.373l-0.072.812q-0.1,1.156-.194,2.328l-0.042.52q-0.11,1.405-.207,2.834c-0.016.244-.032,0.49-0.048,0.735q-0.075,1.127-.142,2.265c-0.016.269-.033,0.537-0.048,0.807-0.055.975-.108,1.954-0.155,2.943l-0.012.26q-0.063,1.365-.117,2.749c-0.012.289-.022,0.579-0.033,0.869q-0.043,1.221-.081,2.457c-0.006.217-.014,0.433-0.02,0.652q-0.042,1.525-.072,3.074l-0.012.737q-0.021,1.236-.035,2.486c0,0.3-.006.6-0.009,0.894-0.008,1.06-.014,2.124-0.014,3.2,0,1.149.006,2.286,0.014,3.419,0,0.257,0,.515.007,0.772,0,0.06,0,.12,0,0.18-0.014,1.446-.023,2.9-0.023,4.372,0,55.3,11.7,90.877,26.408,113.76,6.333,10.9,17.215,23.592,35.908,34.433,22.93,13.975,57.88,24.862,111.165,24.862h0.057q3.633,0.061,7.377.063c56.469,0,92.351-12.227,115.153-27.4,15.963-10.08,25.67-21.465,31.574-31.431,14.87-22.863,26.754-58.555,26.754-114.29,0-1.472-.009-2.926-0.023-4.372C872.676,653.939,872.677,653.879,872.677,653.819Z"/>
</svg>
