<svg xmlns="http://www.w3.org/2000/svg" width="2000" height="2000" viewBox="0 0 2000 2000">
  <defs>
    <style>
      .cls-1 {
        fill: #fff;
        fill-rule: evenodd;
      }
    </style>
  </defs>
  <path id="Shape_316_1" data-name="Shape 316 1" class="cls-1" d="M306.752,7.691h1386.5c165.68,0,300,134.314,300,300v1386.5c0,165.68-134.32,300-300,300H306.752c-165.685,0-300-134.32-300-300V307.691C6.752,142.005,141.067,7.691,306.752,7.691Zm79.63,179.629H1613.62c110.45,0,200,89.544,200,200V1614.56c0,110.45-89.55,200-200,200H386.382c-110.457,0-200-89.55-200-200V387.32C186.382,276.864,275.925,187.32,386.382,187.32ZM1613.4,705.152a281.972,281.972,0,0,1-45.25,45.651q-7.29,6.69-14.56,13.381-21.06,16.331-42.11,32.664c-55.8,39.68-119.29,73.686-191.23,96.813-22.77,7.32-46.68,11.732-71.62,17.316l-30.69,2.755-11.41-.787-11.81-1.181c-11.5-2.672-21.03-6.427-29.51-11.806-41.52-26.341-52.79-84.233-66.89-138.135-27.18-103.907-16.92-252.565,12.59-344.355,8.81-27.393,18.05-51.007,33.45-71.232,2.72-3.573,5.54-7.875,9.05-10.626,9.71-7.614,19.29-14.308,32.66-18.5l20.46-3.542,7.08-.393a204.973,204.973,0,0,1,56.66,7.084c21.23,5.551,41.14,9.667,60.21,16.529,45.5,16.372,87.69,34.143,126.31,57.457,27.67,16.7,53.45,35.406,78.7,54.31,9.82,7.353,18.74,15.327,28.33,22.826q5.9,5.706,11.8,11.413a129.588,129.588,0,0,1,21.64,21.251q7.485,7.674,14.96,15.349c15.01,19.166,30.35,35.79,40.53,60.213,6.73,16.165,9.72,39.727,3.54,59.032C1647.34,666.59,1629.44,684.623,1613.4,705.152Zm-90.73-109.96c-5.23-8.465-11.49-15.213-17.45-22.82q-3.075-3.087-6.17-6.174a83.446,83.446,0,0,0-13.69-13.692q-4.29-4.161-8.59-8.322c-9.73-7.619-18.86-16.149-28.99-23.357-32.21-22.916-66.32-41.554-106.03-57.452-21.61-8.653-50.47-18.194-79.18-18.793l-4.57.269c-4.86.9-9.11,1.831-12.35,4.3-12.11,9.229-17.63,32.836-22.81,49.4-17.59,56.163-21.11,148.538-5.1,209.673,5.83,22.271,10.28,44.658,21.47,61.479,4.58,6.884,11.66,14.33,24.43,12.618,8.43-1.13,16.29-1.165,23.89-2.954,63.27-14.887,113.16-39.934,158.64-72.217,11.9-8.445,22.24-18.782,33.55-27.652,12.17-9.537,23.31-21.83,32.75-34.1,6.52-8.473,14.15-16.5,16.91-28.726C1531.32,608.075,1525.75,600.184,1522.67,595.192Zm-355.38,701.7q32.235-1.305,64.46-2.62,27.51-.78,55.02-1.57c0.17-.35.35-0.7,0.52-1.05q-9.69-24.345-19.38-48.71c-17.48-42.31-33.78-83.72-49.26-127.29-5.77-16.24-18.38-53.08-1.57-66,3.99-3.06,8.91-3.09,14.14-5.23,57.85-.3,78.21,39,96.95,78.04,17.81,37.12,33.73,76.76,49.78,115.77,5.43,13.2,16.3,43.62,20.96,52.9,16.49,0.08,50.08.52,68.65,0.52q41.13,1.32,82.27,2.62,11,0.27,22.01.53c23.8,3.9,45.1,2.92,62.88,12.04,12.83,6.59,27.68,23.01,22.53,45.58-11.63,51.02-62.06,49.14-114.23,37.71q-26.73-1.83-53.45-3.67c-7.8-1.27-52.61-1.71-57.12-1.57q11.52,34.05,23.05,68.1c14.55,41.64,27.93,85.45,38.78,130.43,9.77,40.48,10.39,72.95-28.82,82.76-34.88,8.72-53.57-19.97-63.93-40.34-20.09-39.49-28.46-87.85-43.49-133.04q-18.075-55-36.16-110-31.7.255-63.41,0.52c-48.58,0-101.12.11-144.63,4.72-40.3,4.27-59.07.55-65.5-22-5.85-20.51,2.74-44.66,14.15-53.43,17.32-13.31,45.93-11.66,72.84-15.72h31.96ZM659.343,1688.74c-176.188,0-319.016-142.83-319.016-319.02S483.155,1050.7,659.343,1050.7s319.016,142.83,319.016,319.02S835.531,1688.74,659.343,1688.74Zm0-489.25a170.23,170.23,0,1,0,170.232,170.23A170.228,170.228,0,0,0,659.343,1199.49Zm270.85-353.179c-10.629,17.942-28.106,38.44-56.844,56.586C832.3,930.21,767.7,952.221,666.036,952.221q-6.745,0-13.282-.112h-0.1c-95.93,0-158.85-19.6-200.132-44.761-33.655-19.517-53.245-42.359-64.647-61.99-26.479-41.2-47.544-105.241-47.544-204.807q0-3.973.042-7.87c0-.109,0-0.216,0-0.325,0-.463-0.008-0.927-0.012-1.39-0.015-2.039-.026-4.087-0.026-6.155q0-2.9.026-5.757c0-.538.011-1.074,0.016-1.611q0.024-2.25.063-4.474c0.007-.442.014-0.887,0.022-1.328q0.054-2.787.13-5.534c0.01-.393.024-0.782,0.035-1.174q0.066-2.224.146-4.424,0.029-.783.059-1.563,0.1-2.49.212-4.949c0.007-.156.013-0.313,0.02-0.468q0.129-2.67.28-5.3c0.027-.486.057-0.969,0.085-1.454q0.122-2.049.256-4.076c0.029-.441.058-0.884,0.088-1.323q0.176-2.569.372-5.1c0.025-.313.051-0.622,0.076-0.935q0.168-2.109.349-4.191,0.065-.734.13-1.463,0.194-2.148.4-4.271c0.024-.246.047-0.494,0.071-0.74q0.245-2.447.508-4.855c0.048-.438.1-0.873,0.146-1.309q0.21-1.866.429-3.71c0.052-.435.1-0.871,0.156-1.3q0.288-2.358.593-4.682c0.031-.235.064-0.467,0.1-0.7q0.267-2,.549-3.977,0.1-.688.2-1.374,0.271-1.864.554-3.7c0.046-.3.091-0.61,0.139-0.913q0.347-2.227.711-4.42c0.066-.4.134-0.792,0.2-1.188q0.285-1.687.58-3.355c0.076-.428.151-0.857,0.228-1.284q0.385-2.146.788-4.263c0.031-.161.063-0.319,0.094-0.481q0.364-1.9.744-3.773,0.131-.654.265-1.3,0.332-1.613.672-3.205c0.074-.344.146-0.69,0.22-1.032q0.437-2.012.887-3.991c0.084-.368.169-0.731,0.254-1.1q0.348-1.51.706-3c0.1-.424.2-0.849,0.305-1.271q0.438-1.8.888-3.575,0.069-.273.139-0.546,0.461-1.8.936-3.576c0.112-.421.225-0.839,0.339-1.258q0.373-1.38.755-2.743c0.1-.374.208-0.749,0.313-1.121q0.51-1.8,1.032-3.568c0.1-.35.208-0.695,0.312-1.042q0.4-1.327.8-2.639c0.131-.424.261-0.847,0.393-1.268q0.442-1.419.9-2.818c0.081-.25.16-0.5,0.241-0.754q0.548-1.678,1.106-3.328c0.14-.414.281-0.824,0.422-1.235q0.4-1.161.8-2.308c0.14-.4.279-0.8,0.42-1.192q0.566-1.589,1.142-3.152c0.128-.345.257-0.685,0.385-1.028q0.426-1.139.855-2.263,0.246-.641.492-1.275,0.433-1.115.871-2.213c0.134-.334.266-0.672,0.4-1q0.591-1.469,1.192-2.909c0.172-.415.346-0.825,0.52-1.236q0.4-.952.807-1.893c0.179-.416.358-0.833,0.539-1.247q0.575-1.317,1.158-2.614c0.18-.4.361-0.794,0.542-1.191,0.286-.626.572-1.251,0.861-1.87q0.3-.646.6-1.288,0.406-.858.816-1.707c0.187-.389.374-0.781,0.562-1.168q0.618-1.266,1.244-2.509c0.211-.421.424-0.838,0.637-1.256q0.384-.751.769-1.5,0.334-.645.67-1.285,0.444-.844.892-1.677,0.492-.916.988-1.821c0.266-.486.533-0.971,0.8-1.451q0.364-.656.732-1.3t0.729-1.278c0.243-.422.485-0.847,0.729-1.265q0.627-1.076,1.259-2.133c0.259-.433.52-0.861,0.78-1.289q0.342-.564.686-1.123,0.4-.657.809-1.307c0.228-.364.457-0.724,0.686-1.085,0.24-.38.48-0.764,0.721-1.14,10.974-18.907,29.547-40.795,60.962-59.824,41.192-26.256,104.993-47.065,203.834-47.065,2.2,0,4.374.011,6.54,0.029q3.4-.029,6.846-0.029c98.717,0,162.483,20.756,203.681,46.966,31.539,19.067,50.157,41.02,61.145,59.969l0.087,0.137q0.726,1.131,1.444,2.288c0.153,0.245.306,0.492,0.458,0.738q0.588,0.951,1.171,1.916c0.126,0.21.253,0.418,0.38,0.629q0.741,1.237,1.477,2.5c0.118,0.2.236,0.41,0.354,0.614q0.582,1.008,1.16,2.033l0.446,0.793q0.669,1.2,1.332,2.417c0.047,0.086.094,0.17,0.14,0.256q0.721,1.332,1.434,2.694c0.141,0.267.28,0.537,0.42,0.805q0.551,1.059,1.1,2.133c0.127,0.248.253,0.5,0.379,0.746q0.7,1.392,1.393,2.81c0.1,0.2.191,0.4,0.287,0.6q0.566,1.166,1.123,2.35,0.208,0.442.416,0.887,0.59,1.263,1.173,2.548c0.068,0.152.138,0.3,0.206,0.453q0.672,1.488,1.333,3.006c0.124,0.286.248,0.575,0.372,0.862q0.51,1.18,1.014,2.378,0.182,0.43.363,0.863,0.648,1.557,1.287,3.14c0.07,0.176.14,0.354,0.21,0.529q0.543,1.358,1.077,2.736,0.189,0.488.377,0.978,0.518,1.35,1.028,2.72c0.079,0.211.158,0.42,0.236,0.632q0.612,1.653,1.211,3.339c0.106,0.3.212,0.6,0.318,0.9q0.465,1.319.922,2.656c0.112,0.327.224,0.653,0.335,0.982q0.587,1.731,1.16,3.491c0.041,0.126.081,0.253,0.121,0.378q0.518,1.6,1.023,3.221c0.111,0.354.22,0.709,0.33,1.065q0.449,1.454.888,2.927c0.079,0.267.16,0.532,0.24,0.8q0.54,1.828,1.067,3.69l0.258,0.924q0.413,1.476.818,2.972c0.1,0.367.2,0.733,0.3,1.1q0.511,1.918,1.011,3.866l0.021,0.084q0.489,1.916.96,3.865c0.093,0.381.184,0.764,0.276,1.147q0.377,1.572.744,3.164c0.075,0.323.15,0.643,0.224,0.966q0.459,2.014.9,4.062c0.065,0.3.129,0.609,0.194,0.912q0.355,1.659.7,3.339,0.125,0.609.248,1.22,0.393,1.944.772,3.916c0.023,0.119.047,0.235,0.069,0.354q0.408,2.138.8,4.31c0.073,0.4.145,0.813,0.217,1.22q0.3,1.705.593,3.434c0.064,0.376.128,0.75,0.191,1.128q0.368,2.211.717,4.454c0.044,0.283.086,0.569,0.13,0.853q0.288,1.872.563,3.769c0.064,0.445.129,0.891,0.192,1.338q0.285,2,.556,4.03c0.029,0.22.06,0.437,0.089,0.658q0.308,2.331.6,4.7c0.052,0.425.1,0.852,0.153,1.279q0.222,1.857.432,3.738c0.048,0.43.1,0.858,0.144,1.29q0.264,2.416.51,4.866c0.023,0.238.045,0.48,0.069,0.719q0.209,2.131.4,4.292,0.065,0.725.128,1.453,0.183,2.088.351,4.2c0.024,0.309.051,0.616,0.075,0.926q0.2,2.535.373,5.108c0.03,0.437.058,0.878,0.087,1.318q0.135,2.028.256,4.081c0.029,0.484.058,0.966,0.085,1.452q0.15,2.632.28,5.3c0.007,0.154.013,0.311,0.02,0.465q0.117,2.459.212,4.952,0.032,0.78.059,1.563,0.08,2.2.146,4.424c0.011,0.392.025,0.781,0.036,1.174q0.075,2.746.129,5.534c0.009,0.441.015,0.885,0.022,1.328q0.039,2.224.063,4.474c0,0.537.011,1.073,0.016,1.611q0.024,2.861.026,5.757c0,2.068-.01,4.116-0.026,6.155,0,0.463-.007.927-0.012,1.389,0,0.11,0,.217,0,0.326q0.039,3.9.042,7.87C978.359,740.893,956.963,805.151,930.193,846.311Zm-85.226-213.82q0-.4.007-0.809c0.009-1.186.015-2.378,0.015-3.582q0-1.687-.015-3.349c0-.314-0.006-0.626-0.01-0.938q-0.014-1.309-.036-2.6c0-.257-0.008-0.516-0.013-0.772q-0.031-1.622-.075-3.221c-0.007-.229-0.014-0.455-0.021-0.683q-0.039-1.295-.085-2.575-0.017-.454-0.034-0.909-0.057-1.449-.124-2.882c0-.09-0.007-0.181-0.012-0.27q-0.073-1.554-.162-3.084c-0.016-.283-0.033-0.563-0.05-0.845q-0.071-1.194-.149-2.375c-0.017-.256-0.033-0.512-0.051-0.767q-0.1-1.5-.217-2.972c-0.014-.181-0.029-0.359-0.043-0.539q-0.1-1.232-.2-2.446l-0.075-.846q-0.113-1.255-.235-2.5c-0.013-.139-0.026-0.28-0.04-0.419q-0.142-1.427-.3-2.831c-0.028-.252-0.056-0.5-0.084-0.751q-0.123-1.1-.252-2.175c-0.029-.248-0.058-0.5-0.088-0.745q-0.168-1.377-.347-2.734c-0.017-.129-0.035-0.255-0.052-0.383q-0.158-1.181-.323-2.345-0.055-.39-0.112-0.779-0.16-1.1-.328-2.193l-0.075-.5q-0.2-1.305-.417-2.591l-0.111-.657q-0.169-1.005-.346-2c-0.042-.237-0.083-0.474-0.126-0.71q-0.226-1.263-.463-2.508c-0.014-.069-0.027-0.137-0.041-0.206q-0.219-1.149-.449-2.279c-0.048-.238-0.1-0.474-0.145-0.71q-0.2-.978-0.407-1.943c-0.038-.177-0.075-0.355-0.113-0.531q-0.258-1.191-.525-2.364c-0.043-.188-0.087-0.374-0.13-0.562q-0.214-.925-0.433-1.841c-0.054-.223-0.107-0.446-0.161-0.667q-0.276-1.134-.559-2.25l-0.012-.049c-0.193-.757-0.39-1.5-0.588-2.25-0.058-.214-0.115-0.427-0.173-0.64q-0.236-.872-0.476-1.73l-0.15-.538q-0.308-1.083-.621-2.147c-0.047-.157-0.094-0.311-0.14-0.466q-0.256-.858-0.517-1.7-0.094-.31-0.192-0.619-0.294-.945-0.6-1.875c-0.024-.073-0.047-0.147-0.07-0.22q-0.335-1.024-.675-2.032-0.1-.287-0.2-0.571-0.265-.779-0.536-1.546c-0.062-.175-0.123-0.351-0.185-0.525q-0.349-.98-0.7-1.943c-0.045-.123-0.091-0.245-0.137-0.367q-0.3-.8-0.6-1.584-0.109-.285-0.22-0.569-0.31-.8-0.627-1.592c-0.04-.1-0.081-0.206-0.122-0.307q-0.37-.924-0.749-1.828c-0.07-.168-0.141-0.335-0.211-0.5q-0.293-.7-0.59-1.384c-0.072-.167-0.144-0.335-0.217-0.5q-0.384-.884-0.775-1.75c-0.04-.089-0.08-0.175-0.12-0.263q-0.339-.749-0.683-1.483-0.12-.26-0.242-0.516-0.324-.69-0.653-1.368c-0.056-.115-0.111-0.232-0.168-0.348q-0.4-.825-0.81-1.635l-0.22-.434q-0.318-.625-0.638-1.241c-0.081-.156-0.162-0.313-0.244-0.468q-0.416-.792-0.834-1.568l-0.082-.149q-0.385-.711-0.775-1.407c-0.087-.154-0.173-0.308-0.26-0.461q-0.336-.6-0.675-1.183l-0.206-.358q-0.428-.735-0.859-1.455l-0.222-.366q-0.339-.562-0.681-1.115c-0.088-.144-0.177-0.288-0.266-0.43q-0.418-.672-0.841-1.332l-0.05-.079c-6.4-11.027-17.229-23.8-35.582-34.9-23.975-15.253-61.083-27.331-118.529-27.331q-2.009,0-3.984.017-1.89-.017-3.806-0.017c-57.519,0-94.647,12.109-118.617,27.389-18.282,11.073-29.09,23.81-35.476,34.813-0.141.219-.28,0.443-0.42,0.663s-0.266.42-.4,0.632q-0.235.378-.471,0.76-0.2.325-.4,0.654c-0.151.249-.3,0.5-0.454,0.75q-0.368.615-.733,1.241c-0.142.244-.283,0.491-0.424,0.737s-0.283.494-.424,0.743-0.284.5-.426,0.758q-0.234.418-.465,0.844-0.289.527-.575,1.06c-0.174.324-.347,0.648-0.519,0.976-0.131.247-.261,0.5-0.39,0.748q-0.225.433-.448,0.871c-0.124.243-.248,0.485-0.371,0.731q-0.363.723-.723,1.46c-0.11.225-.219,0.453-0.328,0.679q-0.239.495-.475,0.994c-0.117.249-.234,0.5-0.351,0.749q-0.252.542-.5,1.088c-0.105.231-.211,0.461-0.316,0.694q-0.339.753-.674,1.521c-0.105.24-.209,0.483-0.313,0.725q-0.237.548-.47,1.1c-0.1.239-.2,0.478-0.3,0.719q-0.349.84-.694,1.693c-0.078.194-.155,0.39-0.232,0.585-0.17.427-.34,0.856-0.507,1.288-0.1.246-.191,0.494-0.287,0.742q-0.251.654-.5,1.317c-0.075.2-.15,0.4-0.224,0.6q-0.336.909-.665,1.834c-0.082.23-.163,0.462-0.244,0.694q-0.236.668-.467,1.343-0.123.359-.245,0.718-0.326.961-.644,1.937c-0.047.146-.093,0.293-0.14,0.439q-0.262.814-.521,1.64-0.114.367-.228,0.738-0.236.762-.466,1.535c-0.061.2-.122,0.4-0.182,0.607q-0.3,1.029-.6,2.076c-0.061.216-.122,0.435-0.182,0.653q-0.222.792-.44,1.6-0.1.364-.2,0.732-0.276,1.032-.545,2.081c-0.027.106-.053,0.212-0.08,0.317q-0.263,1.032-.517,2.081-0.09.369-.178,0.74-0.209.867-.411,1.746c-0.049.213-.1,0.424-0.147,0.638q-0.262,1.152-.517,2.323c-0.043.2-.085,0.4-0.127,0.6q-0.2.927-.391,1.865c-0.052.253-.1,0.5-0.155,0.759q-0.221,1.09-.433,2.2c-0.018.094-.037,0.186-0.055,0.28q-0.234,1.23-.458,2.481-0.067.372-.133,0.747-0.171.97-.337,1.952c-0.039.231-.079,0.46-0.117,0.692q-0.212,1.276-.414,2.572c-0.028.176-.054,0.354-0.081,0.531q-0.165,1.071-.322,2.156-0.058.4-.115,0.8-0.163,1.15-.319,2.315c-0.019.137-.038,0.272-0.056,0.409q-0.178,1.35-.345,2.724l-0.09.758q-0.129,1.074-.25,2.159c-0.028.254-.057,0.507-0.085,0.762q-0.153,1.4-.3,2.826c-0.014.142-.027,0.287-0.041,0.43q-0.122,1.234-.234,2.485l-0.075.851q-0.1,1.213-.2,2.44c-0.015.182-.03,0.362-0.044,0.544q-0.115,1.473-.217,2.97c-0.018.255-.034,0.513-0.051,0.77q-0.078,1.179-.149,2.372c-0.017.282-.034,0.563-0.05,0.846q-0.087,1.531-.162,3.083c0,0.091-.008.182-0.012,0.273q-0.067,1.429-.124,2.88c-0.011.3-.023,0.606-0.034,0.91q-0.047,1.28-.085,2.574c-0.006.228-.014,0.454-0.02,0.683q-0.045,1.6-.076,3.221c0,0.256-.008.515-0.013,0.772q-0.022,1.3-.036,2.6c0,0.312-.007.624-0.009,0.938q-0.015,1.664-.016,3.349,0,1.806.016,3.582l0.006,0.809,0,0.189c-0.015,1.515-.025,3.039-0.025,4.58,0,57.941,12.258,95.21,27.668,119.184,6.635,11.424,18.035,24.717,37.62,36.074,24.023,14.641,60.639,26.048,116.463,26.048h0.06q3.807,0.064,7.73.065c59.16,0,96.753-12.809,120.642-28.7,16.724-10.56,26.894-22.488,33.08-32.93,15.578-23.952,28.029-61.346,28.029-119.738,0-1.541-.01-3.065-0.025-4.58Z"/>
</svg>
