<svg xmlns="http://www.w3.org/2000/svg" width="2000" height="2000" viewBox="0 0 2000 2000">
  <defs>
    <style>
      .cls-1 {
        fill: #fff;
        fill-rule: evenodd;
      }
    </style>
  </defs>
  <path id="full-smile-ariaplus_1" data-name="full-smile-ariaplus 1" class="cls-1" d="M1883.56,1515.43c-50.21,94.95-108.23,181.11-195.63,252.01s-189.61,126.73-306.62,167.47q-175.56,61.1-375.94,61.1-200.44,0-375.95-61.1-175.564-61.11-306.649-167.47-131.1-106.35-206.441-248.77Q41.011,1376.3,41.011,1213.7a545.545,545.545,0,0,1,12.045-114.91q12.082-56.2,43.719-100.216,31.619-44.016,88.127-70.9,56.49-26.886,145.415-26.9,111.456,0,194.359,24.458Q607.562,949.687,682.137,979q74.558,29.36,150.676,53.8c101.345,32.58,243.777,32.57,345.067,0q76.095-24.45,150.68-53.8,74.565-29.314,157.46-53.773t194.4-24.458q60.24,0,112.98,18.336c35.15,12.244,55.01,25.69,81.13,46.882C1916.48,1000.02,2054.61,1192.1,1883.56,1515.43Zm-135.33-399.31q-28.635-23.22-67.81-23.22-64.815,0-119.04,11.62a934.777,934.777,0,0,0-104.75,28.73q-50.505,17.13-99.44,37.88-48.99,20.79-102.46,37.91a970.534,970.534,0,0,1-114.51,28.72q-61.05,11.61-134.85,11.6-73.855,0-134.861-11.6a969.479,969.479,0,0,1-114.54-28.72q-53.5-17.13-102.458-37.91-48.98-20.76-99.447-37.88a935.99,935.99,0,0,0-104.708-28.73q-54.258-11.61-119.039-11.62-39.183,0-67.809,23.22c-46.168,37.45-40.968,204.24,32.4,340.84q61.007,113.67,165.733,198.63,104.708,84.945,244.862,134.45,140.136,49.545,299.868,49.51,159.675,0,299.83-49.51,140.13-49.485,244.86-134.45,104.7-84.93,165.77-198.63C1789.15,1320.32,1794.44,1153.61,1748.23,1116.12ZM1590.24,468.764l-71.74-4.927c-10.46-1.717-70.6-2.3-76.66-2.111q15.48,45.741,30.95,91.491c19.52,55.95,37.48,114.807,52.04,175.242,13.11,54.4,13.95,98.015-38.68,111.2-46.81,11.725-71.89-26.823-85.8-54.191-26.97-53.058-38.2-118.046-58.38-178.76q-24.255-73.89-48.53-147.794l-85.1.7c-65.2,0-135.72.14-194.11,6.334-54.1,5.738-79.284.742-87.915-29.559-7.85-27.555,3.671-60,18.989-71.786,23.241-17.875,61.646-15.66,97.756-21.113h42.91l86.5-3.519,73.85-2.112c0.24-.469.47-0.938,0.71-1.407Q1234.01,303.731,1221,271c-23.45-56.849-45.33-112.48-66.11-171.018-7.75-21.829-24.67-71.318-2.11-88.676,5.36-4.123,13.97-7.038,18.99-7.038,77.64-.4,104.97,52.4,130.11,104.864,23.91,49.865,45.27,103.134,66.82,155.535,7.29,17.741,21.88,58.61,28.13,71.082,22.13,0.1,67.22.7,92.13,0.7l110.43,3.519,29.53,0.7c31.96,5.243,60.54,3.931,84.4,16.187,17.22,8.845,37.15,30.911,30.24,61.229C1727.95,486.652,1660.26,484.127,1590.24,468.764ZM520.657,575.866a153.7,153.7,0,1,1,153.656-153.7A153.678,153.678,0,0,1,520.657,575.866Z"/>
</svg>
