<svg xmlns="http://www.w3.org/2000/svg" width="2000" height="2000" viewBox="0 0 2000 2000">
  <defs>
    <style>
      .cls-1 {
        fill: #fff;
        fill-rule: evenodd;
      }
    </style>
  </defs>
  <path id="Shape_316_1" data-name="Shape 316 1" class="cls-1" d="M1000,16.427c420.18,0,760.8,340.621,760.8,760.8S1420.18,1983.57,1000,1983.57,239.2,1197.4,239.2,777.225,579.823,16.427,1000,16.427Zm0,173.386c336.61,0,609.48,275.481,609.48,615.3S1290.16,1807.03,1000,1807.03,390.521,1144.94,390.521,805.117,663.394,189.813,1000,189.813ZM827.267,398.822c82.479-.424,111.5,55.655,138.217,111.38,25.39,52.964,48.086,109.543,70.976,165.2,7.75,18.844,23.24,62.252,29.88,75.5,23.51,0.108,71.41.749,97.88,0.748l117.29,3.737,31.38,0.748c33.94,5.569,64.31,4.176,89.66,17.193,18.29,9.395,39.45,32.832,32.12,65.033-16.58,72.821-88.49,70.139-162.87,53.821l-76.21-5.232c-11.11-1.824-74.99-2.444-81.43-2.243q16.44,48.584,32.87,97.177c20.74,59.427,39.82,121.937,55.29,186.127,13.92,57.78,14.82,104.11-41.09,118.11-49.73,12.45-76.38-28.49-91.15-57.56-28.65-56.35-40.57-125.38-62.01-189.87Q982.3,960.215,956.518,881.716l-90.4.748c-69.265,0-144.178.148-206.2,6.727-57.462,6.095-84.22.788-93.389-31.395-8.338-29.267,3.9-63.733,20.172-76.247,24.688-18.986,65.483-16.633,103.849-22.425H736.12l91.895-3.738,78.446-2.242q0.375-.747.748-1.5L879.565,682.13c-24.912-60.382-48.159-119.47-70.228-181.646-8.23-23.185-26.207-75.749-2.242-94.187C812.787,401.919,819.8,401.879,827.267,398.822Z"/>
</svg>
