<svg xmlns="http://www.w3.org/2000/svg" width="2000" height="2000" viewBox="0 0 2000 2000">
  <defs>
    <style>
      .cls-1 {
        fill: #fff;
        fill-rule: evenodd;
      }
    </style>
  </defs>
  <path id="Rounded_Rectangle_1_copy_2" data-name="Rounded Rectangle 1 copy 2" class="cls-1" d="M1478.57,1968.88H528.444c-276.142,0-500-223.85-500-500V518.762c0-276.142,223.858-500,500-500H1478.57c276.14,0,500,223.858,500,500V1468.88C1978.57,1745.03,1754.71,1968.88,1478.57,1968.88ZM564.653,1805.35h869.7a368.854,368.854,0,0,0,265.17-112.01l-408.95-408.95c-144.49-144.49-378.763-144.49-523.257,0L330.157,1721.55A368.481,368.481,0,0,0,564.653,1805.35Zm1239.7-1239.7c0-204.345-165.66-370-370-370h-869.7c-204.345,0-370,165.655-370,370v869.7a368.658,368.658,0,0,0,33.32,153.63l454.97-455.27c195.262-195.264,511.847-195.264,707.107,0l400.83,400.83a370.476,370.476,0,0,0,13.47-99.19v-869.7ZM1417.94,770.029c-113.28,0-205.12-91.834-205.12-205.117S1304.66,359.8,1417.94,359.8s205.12,91.834,205.12,205.117S1531.22,770.029,1417.94,770.029Z"/>
</svg>
