<svg xmlns="http://www.w3.org/2000/svg" width="2000" height="2000" viewBox="0 0 2000 2000">
  <defs>
    <style>
      .cls-1 {
        fill: #fff;
        fill-rule: evenodd;
      }
    </style>
  </defs>
  <path id="check_1" data-name="check 1" class="cls-1" d="M1000,1997C449.887,1997,3.933,1551.05,3.933,1000.93S449.887,4.866,1000,4.866s996.07,445.955,996.07,996.064S1550.11,1997,1000,1997Zm-0.506-149.51c-467.82,0-847.064-379.24-847.064-847.06S531.674,153.363,999.494,153.363,1846.56,532.607,1846.56,1000.43c0,243.68-102.9,463.33-267.62,617.87C1427.44,1760.44,1223.63,1847.49,999.494,1847.49ZM1353.02,863.935L984.173,1241.74H983.72c-15.628,17.8-42.719,29.59-73.545,29.59s-57.918-11.79-73.546-29.59h-0.453L641.434,1056.29c-0.539-.57-22.979-27.05-21.763-50.67,0-39.283,31.874-72.171,71.163-71.131,36.194,1.019,60.824,29.256,60.824,29.256L895.375,1107.46,1244.27,759.6c0.74-1.12,13.11-13.354,28.57-21.775,10.28-5.6,21.92-9.011,32.37-8.166a75.122,75.122,0,0,1,75.14,75.105C1380.35,838.349,1353.02,863.935,1353.02,863.935Z"/>
</svg>
