<svg xmlns="http://www.w3.org/2000/svg" width="2000" height="2000" viewBox="0 0 2000 2000">
  <defs>
    <style>
      .cls-1 {
        fill: #3d3d3d;
      }

      .cls-1, .cls-2, .cls-3, .cls-4, .cls-5, .cls-6, .cls-7, .cls-8 {
        fill-rule: evenodd;
      }

      .cls-2 {
        fill: #3f3f3f;
      }

      .cls-3 {
        fill: #4b4b4b;
      }

      .cls-4 {
        fill: #656565;
      }

      .cls-5 {
        fill: #7f7f7f;
      }

      .cls-6 {
        fill: #999;
      }

      .cls-7 {
        fill: #bebebe;
      }

      .cls-8 {
        fill: #c8c8c8;
      }
    </style>
  </defs>
  <path id="Rounded_Rectangle_1_copy" data-name="Rounded Rectangle 1 copy" class="cls-1" d="M772.048,1394.92l9.6,5.54a80.366,80.366,0,0,1,29.414,109.78L615.7,1848.61a80.361,80.361,0,0,1-109.776,29.42l-9.6-5.55a80.353,80.353,0,0,1-29.415-109.77l195.362-338.38A80.367,80.367,0,0,1,772.048,1394.92Z"/>
  <path id="Rounded_Rectangle_1_copy_12" data-name="Rounded Rectangle 1 copy 12" class="cls-1" d="M994.445,1444.75h11.085a80.362,80.362,0,0,1,80.36,80.36v390.72a80.356,80.356,0,0,1-80.36,80.36H994.445a80.355,80.355,0,0,1-80.361-80.36V1525.11A80.362,80.362,0,0,1,994.445,1444.75Z"/>
  <path id="Rounded_Rectangle_1_copy_2" data-name="Rounded Rectangle 1 copy 2" class="cls-2" d="M614.366,1220.43l5.542,9.6a80.356,80.356,0,0,1-29.415,109.77L252.116,1535.17a80.362,80.362,0,0,1-109.776-29.42l-5.542-9.6a80.356,80.356,0,0,1,29.415-109.77L504.59,1191.01A80.362,80.362,0,0,1,614.366,1220.43Z"/>
  <path id="Rounded_Rectangle_1_copy_3" data-name="Rounded Rectangle 1 copy 3" class="cls-2" d="M565.98,988.5v11.084a80.362,80.362,0,0,1-80.362,80.359H94.894a80.362,80.362,0,0,1-80.362-80.359V988.5a80.362,80.362,0,0,1,80.362-80.362H485.618A80.362,80.362,0,0,1,565.98,988.5Z"/>
  <path id="Rounded_Rectangle_1_copy_4" data-name="Rounded Rectangle 1 copy 4" class="cls-2" d="M625.438,770.337l-5.542,9.6A80.362,80.362,0,0,1,510.12,809.351L171.743,613.989a80.362,80.362,0,0,1-29.415-109.776l5.542-9.6A80.362,80.362,0,0,1,257.646,465.2L596.023,660.561A80.361,80.361,0,0,1,625.438,770.337Z"/>
  <path id="Rounded_Rectangle_1_copy_5" data-name="Rounded Rectangle 1 copy 5" class="cls-3" d="M792.835,616.839l-9.6,5.543A80.361,80.361,0,0,1,673.46,592.967L478.1,254.59a80.361,80.361,0,0,1,29.414-109.776l9.6-5.542a80.363,80.363,0,0,1,109.777,29.414L822.25,507.063A80.361,80.361,0,0,1,792.835,616.839Z"/>
  <path id="Rounded_Rectangle_1_copy_6" data-name="Rounded Rectangle 1 copy 6" class="cls-4" d="M1009.21,560.58H998.121a80.362,80.362,0,0,1-80.362-80.362V89.494A80.362,80.362,0,0,1,998.121,9.133h11.089a80.362,80.362,0,0,1,80.36,80.362V480.218A80.362,80.362,0,0,1,1009.21,560.58Z"/>
  <path id="Rounded_Rectangle_1_copy_7" data-name="Rounded Rectangle 1 copy 7" class="cls-5" d="M1228.59,622.4l-9.6-5.542a80.367,80.367,0,0,1-29.41-109.776L1384.94,168.7a80.366,80.366,0,0,1,109.78-29.414l9.6,5.542A80.367,80.367,0,0,1,1533.73,254.6L1338.37,592.981A80.365,80.365,0,0,1,1228.59,622.4Z"/>
  <path id="Rounded_Rectangle_1_copy_8" data-name="Rounded Rectangle 1 copy 8" class="cls-6" d="M1380.65,785.494l-5.54-9.6a80.367,80.367,0,0,1,29.41-109.776L1742.9,470.757a80.366,80.366,0,0,1,109.78,29.414l5.54,9.6a80.361,80.361,0,0,1-29.42,109.776L1490.43,814.909A80.365,80.365,0,0,1,1380.65,785.494Z"/>
  <path id="Rounded_Rectangle_1_copy_9" data-name="Rounded Rectangle 1 copy 9" class="cls-7" d="M1437.42,999.618V988.534a80.362,80.362,0,0,1,80.36-80.362H1908.5a80.355,80.355,0,0,1,80.36,80.362v11.084a80.356,80.356,0,0,1-80.36,80.362H1517.78A80.362,80.362,0,0,1,1437.42,999.618Z"/>
  <path id="Rounded_Rectangle_1_copy_10" data-name="Rounded Rectangle 1 copy 10" class="cls-8" d="M1386.15,1221.72l5.55-9.6a80.352,80.352,0,0,1,109.77-29.41l338.38,195.36a80.352,80.352,0,0,1,29.41,109.77l-5.54,9.6a80.355,80.355,0,0,1-109.77,29.42L1415.57,1331.5A80.365,80.365,0,0,1,1386.15,1221.72Z"/>
  <path id="Rounded_Rectangle_1_copy_11" data-name="Rounded Rectangle 1 copy 11" class="cls-2" d="M1221.67,1397.72l9.59-5.55a80.365,80.365,0,0,1,109.78,29.42l195.36,338.38a80.361,80.361,0,0,1-29.41,109.77l-9.6,5.54a80.353,80.353,0,0,1-109.78-29.41l-195.36-338.38A80.355,80.355,0,0,1,1221.67,1397.72Z"/>
</svg>
