<svg xmlns="http://www.w3.org/2000/svg" width="1366" height="768" viewBox="0 0 1366 768">
  <defs>
    <style>
      .cls-1 {
        fill: #fff;
        fill-rule: evenodd;
      }
    </style>
  </defs>
  <path id="plus" class="cls-1" d="M381.015,353.562q0-95.2-45.584-147.376T204.849,154.014A561.989,561.989,0,0,0,55.074,174.2q-13.367,3.427-17.479,8.187t-4.113,14.662v546.47a15.238,15.238,0,0,0,4.456,11.044,13.945,13.945,0,0,0,10.282,4.57h85a12.9,12.9,0,0,0,9.939-4.57,15.931,15.931,0,0,0,4.113-11.044V608.709q35.3,5.328,57.579,5.331,87.053,0,131.61-52.743t44.556-146.8v-60.93ZM253.346,485.134q-13.881,25.331-48.5,25.324-23.994,0-57.579-4.57V262.547q22.275-3.8,57.579-3.808,34.959,0,48.669,24.562t13.709,70.261v60.93Q267.227,459.816,253.346,485.134Zm305.1-460.6a16.8,16.8,0,0,0-3.77-11.044,11.908,11.908,0,0,0-9.6-4.57H459.4a13.947,13.947,0,0,0-10.282,4.57,15.239,15.239,0,0,0-4.455,11.044V590.81a16.549,16.549,0,0,0,4.455,11.425q4.45,4.953,10.282,4.95h85.684a11.72,11.72,0,0,0,9.6-4.76,18.129,18.129,0,0,0,3.77-11.615V24.537ZM977.362,176.863a18.933,18.933,0,0,0-3.77-11.805,11.6,11.6,0,0,0-9.6-4.951H877.627a12.515,12.515,0,0,0-9.94,4.951,17.891,17.891,0,0,0-4.112,11.805V416.016q0,52.552-13.367,71.974t-40.443,19.422h-9.939q-27.078,0-40.614-19.612t-13.538-71.784V176.863a17.887,17.887,0,0,0-4.113-11.805,12.522,12.522,0,0,0-9.939-4.951H645.6a11.583,11.583,0,0,0-9.6,4.951,18.9,18.9,0,0,0-3.77,11.805V416.016q0,37.7,7.2,68.547t18.165,51.029a141.724,141.724,0,0,0,26.734,35.225q15.76,15.05,30.674,23.04a153.6,153.6,0,0,0,32.389,12.757,178.327,178.327,0,0,0,52.438,7.426h9.939a178.338,178.338,0,0,0,52.439-7.426,153.568,153.568,0,0,0,32.388-12.757q14.908-8,30.675-23.04A141.986,141.986,0,0,0,952,535.592q10.965-20.181,18.165-51.029t7.2-68.547V176.863ZM1317.28,418.11q-15.255-29.131-55.7-55.028l-87.05-55.218q-12-8-16.8-13.519t-4.79-13.9q0-13.324,8.05-18.088t28.96-4.761q48.33,0,116.53,10.282h3.09q10.965,0,10.96-14.851V189.811q0-14.468-13.36-17.9a448.147,448.147,0,0,0-124.76-17.9q-143.94,0-143.95,121.1,0,37.326,16.11,66.833t46.27,48.554l91.51,58.265q14.4,9.139,20.05,16.375a25.9,25.9,0,0,1,5.66,16.375q0,15.994-8.74,23.23t-32.74,7.235q-40.44,0-119.27-11.043h-2.74a11.994,11.994,0,0,0-9.77,4.379,15.979,15.979,0,0,0-3.6,10.473v63.215q0,14.476,13.37,17.9,55.185,17.137,127.84,17.137,73.68,0,111.9-36.368t38.22-94.633Q1332.53,447.249,1317.28,418.11Z"/>
</svg>
