<svg xmlns="http://www.w3.org/2000/svg" width="3298" height="2160" viewBox="0 0 3298 2160">
  <defs>
    <style>
      .cls-1 {
        fill: #fff;
        fill-rule: evenodd;
      }
    </style>
  </defs>
  <path id="plus" class="cls-1" d="M277.39,2132.76V1698.5q69.179,31.65,130.278,31.66,128.242,0,242.235-58.8,113.977-58.785,183.2-201.3,69.18-140.2,69.211-312.12,0-104.01-34.605-244.274Q833.075,777.96,735.4,682.965q-97.71-94.995-238.165-94.994c-52.926,0-115.152,17.493-153.828,40.853-38.676,23.4-66.221,43.818-89.28,69.44L255,615.112H24.977V2132.76H277.39ZM273.966,990.905c14.917-25.621,39.365-63.439,70.6-85.314-15.382,10.767,193.809-158,281.563,65.474,24.427,58.8,31.219,125.065,29.883,191.4q2,45.27-10.178,101.78a338.17,338.17,0,0,1-42.747,106.3q-30.534,49.785-82.442,83.69-51.908,33.93-127.224,31.66-50.907,0-118.065-31.66ZM1294.18,1705.28V27.052H1041.76V1705.28h252.42Zm657.61,0c48.15-15.05,92.76-42.22,137.54-84.45v84.32l240.06,0.13V615.112H2079.01s-0.52,608.428.4,663.478c0.92,54.66-167.85,236.19-317.44,153.76-51.9-45.8-53.44-122.1-53.44-197.51V615.112H1458.16V1264.24q0,232.98,89.56,348.31,89.55,115.35,262.59,115.35Q1879.49,1727.9,1951.79,1705.28Zm1082.9,4.53q93.6-20.355,170.99-101.78,77.34-83.655,75.32-219.39,0-45.225-12.22-98.39-12.21-53.115-48.85-101.78-36.645-48.615-103.82-89.34t-177.09-61.07q-124.185-27.135-162.85-49.756-36.645-22.582-36.64-76.9,0-45.217,31.55-76.9,31.53-31.647,121.12-31.665,97.71,0,173.02,36.188,75.285,36.207,114,70.115l85.49-203.559q-40.74-38.433-144.53-76.9-101.8-40.713-230.02-40.712-197.46,0-294.14,90.471-96.7,90.488-96.69,235.224-2.055,58.84,11.19,110.824,13.23,52.065,49.88,95,36.63,42.99,98.72,76.9,62.07,33.915,157.76,56.54,67.17,18.135,111.96,35.06,44.745,16.965,70.23,35.06,25.425,18.12,35.62,37.31a88.351,88.351,0,0,1,10.18,41.85q0,49.77-35.63,79.16-35.625,29.415-127.22,29.4-38.685,4.56-96.69-9.04-58.02-13.575-129.26-47.5-71.28-38.43-109.92-83.69l-91.6,214.87q10.155,18.135,54.96,49.76,44.745,31.695,154.7,63.33a914.689,914.689,0,0,0,110.94,23.75,737.3,737.3,0,0,0,106.87,7.91q56.97,4.515,152.67-20.35h0Z"/>
</svg>
