<svg xmlns="http://www.w3.org/2000/svg" width="2000" height="2000" viewBox="0 0 2000 2000">
  <defs>
    <style>
      .cls-1 {
        fill: #fff;
        fill-rule: evenodd;
      }
    </style>
  </defs>
  <path id="Shape_2_copy" data-name="Shape 2 copy" class="cls-1" d="M998.858,1998.29c-550.334,0-996.469-446.14-996.469-996.47S448.524,5.349,998.858,5.349,1995.33,451.484,1995.33,1001.82,1549.19,1998.29,998.858,1998.29Zm0.13-172.35c-455.148,0-824.118-368.97-824.118-824.11S543.84,177.708,998.988,177.708s824.122,368.97,824.122,824.122S1454.14,1825.94,998.988,1825.94Z"/>
  <path class="cls-1" d="M1429.53,728.974q-24.6,84.481-49.22,168.979-27.69,92.594-55.38,185.207c-25.19,82.48-40.7,161.76-99.56,209.82-43.28,35.34-92.38,43.78-153.82,61.55q-100.395,27.135-200.814,54.28-73.548,19.86-147.111,39.72c-21.946,6.29-47.674,18.64-77.191,14.55-26.49-3.67-45.118-10.78-61.529-24.06-20.91-16.92-31.687-41.5-36.358-74.98-5-35.82,11.026-67.29,19.018-94l49.223-173.45q28.8-101.55,57.614-203.113c20.881-69.851,31.929-125.843,72.716-175.134,47.5-57.4,117.986-66.75,201.928-87.287q138.981-33.569,278-67.144,43.335-10.35,86.7-20.7l24.61-3.358c65.42-1.2,100.95,39.03,109.07,95.68C1452.77,672.767,1437.64,702.469,1429.53,728.974Z"/>
</svg>
