<svg xmlns="http://www.w3.org/2000/svg" width="2000" height="2000" viewBox="0 0 2000 2000">
  <defs>
    <style>
      .cls-1 {
        fill: #fff;
        fill-rule: evenodd;
      }
    </style>
  </defs>
  <path class="cls-1" d="M998.858,1998.29c-550.334,0-996.469-446.14-996.469-996.47S448.524,5.349,998.858,5.349,1995.33,451.484,1995.33,1001.82,1549.19,1998.29,998.858,1998.29ZM1447.43,635.532c-8.12-56.65-43.65-96.882-109.07-95.68l-24.61,3.358q-43.35,10.35-86.7,20.7-138.99,33.569-278,67.144c-83.942,20.537-154.428,29.883-201.928,87.287-40.787,49.291-51.835,105.283-72.716,175.134q-28.8,101.546-57.614,203.113l-49.223,173.45c-7.992,26.71-24.017,58.18-19.018,94,4.671,33.48,15.448,58.06,36.358,74.98,16.411,13.28,35.039,20.39,61.529,24.06,29.517,4.09,55.245-8.26,77.191-14.55q73.548-19.86,147.111-39.72,100.4-27.135,200.814-54.28c61.44-17.77,110.54-26.21,153.82-61.55,58.86-48.06,74.37-127.34,99.56-209.82q27.69-92.6,55.38-185.207,24.615-84.482,49.22-168.979C1437.64,702.469,1452.77,672.767,1447.43,635.532Z"/>
</svg>
