<svg xmlns="http://www.w3.org/2000/svg" width="2000" height="2000" viewBox="0 0 2000 2000">
  <defs>
    <style>
      .cls-1 {
        fill: #fff;
        fill-rule: evenodd;
      }
    </style>
  </defs>
  <path id="_2025-ariaplus-icons-square_1_copy_2" data-name="2025-ariaplus-icons-square 1 copy 2" class="cls-1" d="M1959.63,1077.99c0,0.31-.01.62-0.01,0.94,0.07,7.49.12,15.02,0.12,22.65,0,288.81-64.37,473.76-144.9,592.23-31.98,51.64-84.56,110.64-171.01,162.87-122.8,78.16-315.64,141.23-618.46,141.95-5.22.1-10.5,0.17-15.87,0.17q-9.57,0-18.853-.19H990.5c-7.559,0-14.951-.12-22.224-0.32-282.087-1.49-467.977-57.36-590.5-128.8-101.248-56.17-160.185-121.92-194.487-178.42-79.662-118.58-143.034-302.91-143.034-589.49,0-7.63.05-15.16,0.127-22.65,0-.32-0.01-0.62-0.013-0.94-0.013-1.33-.024-2.66-0.035-4-0.047-5.87-.079-11.76-0.079-17.72,0-5.56.032-11.07,0.08-16.56,0.014-1.55.031-3.1,0.049-4.64q0.072-6.48.188-12.88c0.023-1.27.041-2.55,0.067-3.82q0.162-8.025.39-15.93c0.033-1.13.073-2.25,0.108-3.38q0.2-6.4.44-12.731,0.086-2.253.176-4.5,0.292-7.165.637-14.244c0.022-.448.04-0.9,0.063-1.348q0.384-7.684.84-15.25c0.083-1.4.171-2.791,0.257-4.185q0.365-5.9.77-11.734c0.088-1.269.173-2.544,0.263-3.808q0.531-7.4,1.121-14.689c0.073-.9.153-1.792,0.228-2.691q0.5-6.071,1.052-12.065,0.192-2.109.389-4.209,0.582-6.185,1.207-12.293c0.073-.707.141-1.423,0.214-2.129q0.733-7.042,1.529-13.974c0.144-1.261.293-2.513,0.44-3.769q0.628-5.371,1.29-10.679c0.156-1.25.31-2.5,0.469-3.75q0.866-6.784,1.784-13.475c0.093-.677.192-1.345,0.286-2.02q0.8-5.763,1.65-11.449,0.294-1.982.594-3.953,0.814-5.367,1.665-10.666c0.14-.873.276-1.755,0.418-2.626q1.043-6.413,2.141-12.723c0.2-1.144.4-2.279,0.6-3.419q0.857-4.857,1.745-9.657c0.228-1.233.455-2.467,0.686-3.694q1.163-6.179,2.371-12.27c0.093-.464.189-0.921,0.282-1.384q1.1-5.472,2.238-10.862,0.4-1.883.8-3.753,1-4.641,2.021-9.225c0.221-.988.438-1.985,0.661-2.969q1.311-5.792,2.669-11.489c0.252-1.057.509-2.1,0.764-3.157q1.049-4.346,2.123-8.638,0.459-1.832.92-3.656,1.318-5.183,2.671-10.291c0.139-.524.278-1.049,0.417-1.571q1.387-5.19,2.815-10.294,0.507-1.817,1.02-3.619,1.124-3.974,2.272-7.9c0.314-1.075.626-2.157,0.943-3.227q1.533-5.177,3.1-10.27c0.31-1.006.627-2,.939-3q1.193-3.822,2.407-7.6,0.589-1.828,1.182-3.649,1.334-4.084,2.693-8.111c0.243-.721.482-1.451,0.726-2.169q1.644-4.835,3.327-9.58c0.421-1.191.845-2.373,1.269-3.556q1.2-3.342,2.411-6.642c0.42-1.144.839-2.293,1.262-3.43q1.7-4.572,3.437-9.071c0.383-.994.772-1.972,1.158-2.96q1.28-3.276,2.573-6.514,0.738-1.842,1.479-3.67,1.3-3.206,2.621-6.369c0.4-.963.8-1.936,1.2-2.893q1.779-4.226,3.588-8.374c0.518-1.193,1.041-2.374,1.563-3.558q1.209-2.739,2.428-5.447c0.539-1.2,1.078-2.4,1.621-3.588q1.731-3.79,3.484-7.524c0.542-1.151,1.088-2.287,1.632-3.429q1.29-2.7,2.589-5.382,0.906-1.862,1.818-3.707,1.222-2.472,2.454-4.914c0.564-1.121,1.126-2.249,1.693-3.361q1.859-3.644,3.74-7.222c0.637-1.213,1.278-2.412,1.919-3.614q1.154-2.164,2.313-4.309c0.671-1.237,1.341-2.474,2.016-3.7,0.891-1.621,1.787-3.225,2.684-4.825q1.481-2.64,2.971-5.243c0.8-1.4,1.6-2.8,2.407-4.177q1.1-1.886,2.2-3.747t2.193-3.677c0.731-1.217,1.46-2.438,2.194-3.643q1.887-3.1,3.788-6.138c0.78-1.247,1.564-2.478,2.347-3.712q1.029-1.622,2.062-3.23,1.216-1.89,2.436-3.761c0.686-1.049,1.374-2.085,2.062-3.124,0.724-1.093,1.444-2.2,2.17-3.282a425.455,425.455,0,0,1,37.1-51.768s23.908-27.988,17.7-21.953q7.284-7.082,14.711-14.2,6.963-6.664,13.882-13.166,1.954-1.84,3.906-3.665,5.457-5.114,10.889-10.137c1.08-1,2.163-2.007,3.242-3q6.816-6.279,13.6-12.418c0.97-.878,1.936-1.741,2.9-2.616q5.5-4.959,10.968-9.827,1.948-1.734,3.894-3.458,6.21-5.5,12.388-10.885c0.391-.34.784-0.688,1.174-1.028q6.716-5.841,13.389-11.532c1.233-1.054,2.464-2.1,3.695-3.144q5.213-4.431,10.4-8.779c1.128-.946,2.259-1.9,3.386-2.839q6.592-5.5,13.146-10.87c0.81-.663,1.616-1.313,2.425-1.974q5.466-4.46,10.9-8.828,1.912-1.536,3.821-3.062,5.622-4.494,11.216-8.891c0.648-.51,1.3-1.029,1.946-1.537q6.459-5.061,12.875-9.987c1.167-.9,2.33-1.782,3.5-2.673q4.98-3.807,9.935-7.539c1.167-.879,2.336-1.763,3.5-2.635q6.349-4.755,12.662-9.394c0.639-.47,1.275-0.927,1.913-1.394q5.45-3.987,10.866-7.879,1.887-1.356,3.771-2.7,5.126-3.663,10.224-7.243c0.841-.59,1.685-1.19,2.524-1.777q6.181-4.322,12.32-8.52c1.113-.763,2.222-1.512,3.333-2.269q4.737-3.222,9.447-6.376c1.21-.81,2.421-1.622,3.628-2.425q6.081-4.042,12.126-7.983c0.461-.3.919-0.591,1.38-0.89q5.44-3.528,10.845-6.961,1.887-1.2,3.769-2.384,4.665-2.945,9.306-5.82c1-.62,2-1.25,3-1.866q5.877-3.62,11.712-7.131c1.083-.652,2.161-1.291,3.243-1.937q4.461-2.667,8.9-5.273c1.263-.741,2.525-1.483,3.785-2.216q5.373-3.13,10.714-6.175,0.822-.468,1.643-0.935,5.438-3.084,10.833-6.066c1.279-.709,2.556-1.409,3.833-2.11q4.21-2.313,8.4-4.568c1.148-.618,2.3-1.244,3.444-1.856q5.541-2.961,11.042-5.826c1.087-.566,2.167-1.117,3.252-1.677q4.139-2.139,8.256-4.224,2-1.01,3.987-2.01,4.472-2.241,8.914-4.417c0.795-.389,1.594-0.79,2.388-1.177q5.344-2.6,10.646-5.106c1.329-.629,2.653-1.248,3.979-1.869q3.741-1.753,7.464-3.461c1.29-.592,2.581-1.189,3.868-1.773q5.172-2.348,10.309-4.616c1.134-.5,2.261-0.984,3.392-1.478q3.753-1.638,7.488-3.234,2.124-.906,4.241-1.8,3.712-1.564,7.4-3.082c1.123-.463,2.251-0.936,3.372-1.392q4.944-2.014,9.847-3.944c1.409-.556,2.811-1.1,4.215-1.645q3.249-1.264,6.481-2.494c1.43-.544,2.862-1.09,4.287-1.625q4.543-1.7,9.056-3.344c1.392-.505,2.776-0.995,4.163-1.491q3.285-1.174,6.555-2.318,2.275-.794,4.543-1.57,3.038-1.041,6.057-2.048c1.385-.464,2.774-0.935,4.155-1.389q4.522-1.488,9.008-2.907c1.52-.482,3.032-0.949,4.546-1.419q2.727-.847,5.44-1.672c1.568-.476,3.135-0.951,4.695-1.414q3.094-.919,6.168-1.8,3.383-.976,6.744-1.915c1.8-.5,3.609-1.007,5.4-1.5q2.448-.666,4.882-1.309,2.415-.641,4.817-1.259c1.6-.413,3.2-0.831,4.79-1.232q4.088-1.03,8.143-2.005c1.663-.4,3.315-0.783,4.969-1.17q2.173-.508,4.341-1,2.545-.579,5.081-1.141c1.421-.313,2.835-0.615,4.251-0.918,1.489-.319,2.987-0.653,4.47-0.961C930.2-.546,1027.34-8.143,1148.47,20.354,1310.42,54.718,1513.6,153.575,1750.98,380.8c4.79,4.579,25.74,30.785,25.74,30.785A428.268,428.268,0,0,1,1816.85,467c0.09,0.13.17,0.263,0.26,0.393,1.46,2.171,2.9,4.369,4.35,6.584,0.46,0.706.92,1.416,1.37,2.127,1.18,1.823,2.36,3.661,3.52,5.515,0.39,0.6.77,1.2,1.15,1.809q2.235,3.564,4.44,7.2c0.36,0.586.71,1.18,1.07,1.769q1.755,2.9,3.49,5.851c0.45,0.759.89,1.519,1.34,2.283q2.01,3.449,4.01,6.958c0.14,0.246.28,0.488,0.42,0.735q2.175,3.835,4.31,7.754c0.43,0.769.85,1.545,1.27,2.318q1.65,3.045,3.29,6.137c0.38,0.717.76,1.428,1.14,2.148q2.115,4.007,4.19,8.088c0.29,0.569.58,1.148,0.87,1.719q1.7,3.355,3.37,6.765c0.42,0.848.84,1.7,1.25,2.551,1.19,2.425,2.36,4.87,3.53,7.335,0.21,0.436.42,0.865,0.62,1.3q2.025,4.284,4.01,8.655c0.38,0.823.75,1.653,1.12,2.48,1.03,2.264,2.04,4.546,3.05,6.843,0.37,0.828.73,1.653,1.09,2.486q1.965,4.481,3.88,9.038c0.21,0.5.42,1.017,0.63,1.522q1.635,3.906,3.24,7.875c0.38,0.935.76,1.873,1.13,2.813q1.56,3.887,3.1,7.831c0.23,0.608.47,1.208,0.71,1.817q1.83,4.761,3.64,9.611c0.32,0.862.64,1.733,0.95,2.6,0.94,2.53,1.86,5.078,2.78,7.644,0.34,0.941.67,1.88,1.01,2.826q1.755,4.986,3.49,10.051c0.12,0.36.24,0.727,0.36,1.087q1.56,4.6,3.08,9.271,0.495,1.527.99,3.065,1.35,4.183,2.67,8.425c0.24,0.77.49,1.532,0.72,2.305q1.635,5.265,3.21,10.622c0.26,0.882.52,1.773,0.78,2.658q1.245,4.25,2.46,8.556c0.3,1.055.6,2.109,0.89,3.169q1.545,5.523,3.05,11.129l0.06,0.241q1.47,5.512,2.89,11.126c0.28,1.1.55,2.2,0.83,3.3,0.76,3.016,1.5,6.053,2.24,9.109,0.22,0.927.45,1.848,0.67,2.779q1.38,5.8,2.72,11.692c0.19,0.87.39,1.751,0.58,2.625q1.065,4.773,2.11,9.609c0.25,1.169.5,2.338,0.74,3.512q1.185,5.6,2.33,11.272c0.07,0.341.14,0.677,0.2,1.019q1.23,6.148,2.4,12.406c0.22,1.166.44,2.339,0.65,3.51,0.61,3.274,1.2,6.569,1.79,9.884,0.19,1.083.38,2.16,0.57,3.248q1.11,6.361,2.16,12.818c0.13,0.814.26,1.638,0.39,2.455q0.87,5.389,1.69,10.85c0.2,1.281.39,2.564,0.58,3.851q0.855,5.76,1.67,11.6c0.09,0.634.19,1.26,0.27,1.895q0.93,6.708,1.79,13.526c0.16,1.222.31,2.453,0.46,3.68q0.675,5.347,1.3,10.758c0.15,1.238.29,2.472,0.44,3.715q0.795,6.954,1.53,14c0.07,0.686.14,1.381,0.21,2.069q0.63,6.136,1.21,12.354,0.195,2.087.39,4.183,0.54,6.01,1.05,12.1c0.07,0.891.15,1.773,0.23,2.667q0.585,7.294,1.12,14.7c0.09,1.259.17,2.529,0.26,3.793q0.4,5.841.77,11.749c0.09,1.391.17,2.78,0.26,4.177q0.45,7.576.84,15.254c0.02,0.443.04,0.893,0.06,1.338q0.345,7.077.64,14.254c0.06,1.5.12,3,.17,4.5q0.24,6.33.44,12.733c0.04,1.129.08,2.249,0.11,3.379q0.225,7.9.39,15.93c0.03,1.27.04,2.55,0.07,3.82,0.07,4.27.14,8.56,0.18,12.88,0.02,1.54.04,3.09,0.05,4.64,0.05,5.49.08,11,.08,16.56,0,5.96-.03,11.85-0.08,17.72C1959.65,1075.33,1959.64,1076.66,1959.63,1077.99ZM720.161,1454.55c0,111.37,18.544,183.02,41.856,229.1,10.038,21.96,27.285,47.51,56.913,69.34,36.343,28.15,91.737,50.07,176.191,50.07h0.091q5.757,0.135,11.688.13c89.5,0,146.38-24.62,182.52-55.18a176.276,176.276,0,0,0,50.04-63.29c23.57-46.05,42.41-117.93,42.41-230.17,0-2.97-.02-5.9-0.04-8.81v-0.36c0.01-.52.01-1.04,0.01-1.56q0.03-3.42.03-6.88c0-2.17-.01-4.31-0.03-6.44,0-.6-0.01-1.2-0.01-1.8-0.02-1.68-.03-3.35-0.06-5.01,0-.49-0.01-0.99-0.02-1.48q-0.045-3.12-.11-6.2c-0.01-.43-0.02-0.87-0.03-1.31-0.04-1.66-.08-3.31-0.13-4.95-0.02-.58-0.03-1.16-0.05-1.75-0.06-1.85-.12-3.7-0.19-5.53-0.01-.18-0.01-0.35-0.02-0.52-0.07-2-.16-3.97-0.24-5.93-0.03-.55-0.05-1.09-0.08-1.63-0.07-1.53-.14-3.05-0.22-4.56-0.03-.49-0.05-0.99-0.08-1.48-0.1-1.91-.21-3.82-0.33-5.71-0.02-.35-0.04-0.69-0.06-1.04-0.1-1.57-.21-3.14-0.31-4.7l-0.12-1.62c-0.11-1.61-.23-3.21-0.35-4.8l-0.06-.81c-0.15-1.83-.3-3.64-0.45-5.44-0.04-.49-0.09-0.96-0.13-1.45-0.12-1.4-.25-2.79-0.38-4.18-0.04-.47-0.09-0.95-0.13-1.43-0.17-1.76-.35-3.52-0.53-5.25-0.02-.25-0.05-0.49-0.07-0.74-0.16-1.51-.33-3.02-0.49-4.51-0.06-.5-0.12-1-0.17-1.49-0.17-1.42-.33-2.82-0.5-4.22-0.04-.32-0.07-0.64-0.11-0.96q-0.315-2.505-.63-4.98c-0.06-.42-0.12-0.84-0.17-1.26-0.17-1.29-.35-2.57-0.52-3.84-0.07-.46-0.13-0.91-0.2-1.36-0.22-1.62-.46-3.23-0.7-4.83l-0.06-.39c-0.22-1.47-.45-2.93-0.68-4.38-0.07-.46-0.14-0.91-0.22-1.37-0.2-1.25-.4-2.5-0.61-3.73-0.06-.34-0.12-0.68-0.17-1.02-0.26-1.53-.53-3.04-0.8-4.55-0.06-.36-0.13-0.72-0.2-1.08-0.21-1.19-.43-2.37-0.65-3.54-0.08-.43-0.16-0.85-0.24-1.28-0.28-1.45-.56-2.9-0.85-4.32a0.355,0.355,0,0,0-.02-0.1c-0.29-1.45-.59-2.89-0.89-4.32-0.08-.41-0.17-0.82-0.26-1.23q-0.36-1.68-.72-3.33c-0.07-.34-0.15-0.69-0.23-1.03-0.31-1.39-.62-2.77-0.94-4.13l-0.21-.9c-0.25-1.1-.52-2.19-0.78-3.27-0.09-.4-0.19-0.8-0.29-1.19-0.3-1.21-.6-2.41-0.9-3.61-0.03-.14-0.07-0.28-0.11-0.42q-0.495-1.965-1.02-3.9c-0.1-.37-0.19-0.74-0.29-1.1q-0.4-1.5-.81-2.97c-0.1-.34-0.19-0.68-0.28-1.01-0.36-1.26-.71-2.51-1.07-3.74-0.07-.24-0.14-0.47-0.21-0.71-0.3-1.02-.6-2.03-0.9-3.04-0.11-.36-0.22-0.73-0.33-1.09-0.32-1.03-.63-2.05-0.95-3.06-0.06-.2-0.13-0.4-0.19-0.59-0.37-1.19-.75-2.36-1.13-3.52-0.11-.32-0.21-0.64-0.32-0.96-0.3-.9-0.59-1.78-0.89-2.66-0.11-.32-0.22-0.65-0.33-0.97q-0.585-1.7-1.17-3.36c-0.06-.17-0.13-0.34-0.19-0.51-0.34-.95-0.68-1.9-1.03-2.85l-0.36-.99c-0.33-.88-0.66-1.76-0.99-2.63-0.09-.22-0.17-0.44-0.26-0.67-0.4-1.05-.81-2.1-1.22-3.14-0.11-.28-0.22-0.56-0.34-0.83-0.32-.8-0.64-1.6-0.96-2.39-0.12-.3-0.25-0.6-0.37-0.9-0.42-1.01-.84-2.02-1.26-3.01-0.04-.1-0.08-0.19-0.12-0.29-0.39-.91-0.79-1.81-1.18-2.7-0.13-.3-0.26-0.6-0.39-0.89-0.34-.76-0.68-1.52-1.02-2.27-0.11-.23-0.21-0.46-0.31-0.69-0.43-.94-0.87-1.88-1.3-2.8-0.11-.24-0.23-0.47-0.34-0.7-0.34-.72-0.68-1.44-1.03-2.15-0.13-.27-0.27-0.55-0.4-0.82-0.42-.86-0.85-1.72-1.27-2.56-0.03-.05-0.05-0.1-0.08-0.15a176.646,176.646,0,0,0-53.83-67.09c-36.27-29.32-92.41-52.54-179.32-52.54q-3.03,0-6.02.04c-1.908-.02-3.824-0.04-5.759-0.04-87.017,0-143.186,23.28-179.45,52.65A176.748,176.748,0,0,0,762,1207.86c-0.212.42-.423,0.85-0.635,1.28-0.2.4-.4,0.8-0.6,1.21-0.238.49-.476,0.97-0.713,1.46q-0.3.63-.6,1.26-0.344.72-.686,1.44c-0.371.79-.741,1.59-1.109,2.39q-0.322.7-.642,1.41c-0.214.48-.428,0.95-0.641,1.43s-0.431.97-.645,1.46q-0.353.81-.7,1.62-0.436,1.02-.869,2.04c-0.263.62-.525,1.25-0.786,1.88-0.2.47-.394,0.95-0.59,1.43q-0.339.84-.677,1.68c-0.187.47-.375,0.93-0.561,1.4-0.367.93-.732,1.87-1.1,2.81-0.166.43-.33,0.87-0.5,1.31-0.24.63-.48,1.26-0.718,1.91q-0.267.705-.532,1.44c-0.254.69-.506,1.39-0.758,2.09-0.159.44-.319,0.88-0.477,1.33-0.343.97-.682,1.94-1.02,2.92-0.159.47-.317,0.93-0.474,1.4-0.238.7-.475,1.41-0.711,2.12q-0.229.69-.457,1.38c-0.353,1.08-.7,2.16-1.05,3.25-0.118.38-.234,0.75-0.352,1.13-0.257.82-.513,1.64-0.767,2.47-0.144.48-.289,0.95-0.432,1.43-0.253.84-.5,1.68-0.753,2.53-0.113.39-.227,0.77-0.339,1.15-0.339,1.17-.674,2.34-1.006,3.53-0.124.44-.246,0.89-0.369,1.33q-0.355,1.29-.706,2.58-0.186.69-.371,1.38c-0.328,1.24-.653,2.47-0.974,3.73-0.071.28-.141,0.56-0.212,0.84q-0.4,1.56-.788,3.15c-0.116.47-.231,0.95-0.346,1.42-0.237.98-.472,1.96-0.705,2.95-0.091.39-.184,0.78-0.274,1.17q-0.461,1.98-.909,3.99c-0.092.42-.183,0.84-0.275,1.25-0.224,1.02-.446,2.04-0.665,3.07q-0.15.7-.3,1.41c-0.278,1.32-.553,2.65-0.823,4-0.041.2-.082,0.41-0.123,0.61-0.264,1.32-.524,2.66-0.781,4-0.091.47-.18,0.95-0.269,1.42q-0.315,1.665-.622,3.36c-0.074.41-.149,0.81-0.223,1.23-0.265,1.47-.525,2.96-0.781,4.46-0.065.38-.129,0.77-0.194,1.15-0.2,1.19-.4,2.39-0.591,3.59-0.078.48-.157,0.97-0.234,1.46-0.222,1.4-.441,2.8-0.655,4.22q-0.041.27-.083,0.54c-0.236,1.57-.466,3.17-0.693,4.77-0.068.47-.134,0.95-0.2,1.43q-0.26,1.875-.51,3.75c-0.059.45-.119,0.89-0.177,1.33q-0.321,2.46-.627,4.95c-0.041.34-.081,0.68-0.122,1.02q-0.249,2.055-.487,4.14c-0.059.52-.117,1.03-0.174,1.54-0.165,1.47-.326,2.96-0.483,4.45-0.028.26-.056,0.52-0.084,0.79-0.18,1.73-.353,3.47-0.522,5.23l-0.137,1.46c-0.129,1.38-.255,2.76-0.377,4.15-0.043.49-.087,0.97-0.129,1.47q-0.232,2.685-.447,5.43c-0.022.27-.042,0.55-0.063,0.82-0.122,1.59-.24,3.18-0.353,4.78-0.039.55-.077,1.09-0.114,1.64-0.107,1.55-.21,3.11-0.308,4.69-0.022.35-.045,0.69-0.067,1.04q-0.173,2.835-.328,5.71c-0.026.49-.051,0.99-0.077,1.48q-0.117,2.265-.225,4.56c-0.025.54-.051,1.08-0.075,1.63q-0.132,2.94-.246,5.92c-0.007.18-.012,0.35-0.018,0.53-0.068,1.83-.13,3.68-0.187,5.53-0.018.59-.035,1.17-0.051,1.75q-0.071,2.46-.129,4.95c-0.01.44-.022,0.87-0.031,1.31q-0.067,3.075-.114,6.2c-0.008.49-.013,0.99-0.02,1.48q-0.035,2.49-.055,5.01-0.008.9-.014,1.8c-0.014,2.13-.023,4.27-0.023,6.44q0,3.465.023,6.88,0,0.78.01,1.56c0,0.12,0,.24,0,0.36C720.175,1448.65,720.161,1451.58,720.161,1454.55ZM1774.8,1068.59c0.01-1.07.01-2.14,0.02-3.21q0.06-7.05.07-14.2c0-4.46-.03-8.87-0.07-13.27-0.01-1.25-.02-2.48-0.04-3.72-0.03-3.46-.09-6.9-0.15-10.32-0.02-1.02-.03-2.05-0.05-3.06q-0.135-6.435-.32-12.77c-0.02-.9-0.05-1.8-0.08-2.7q-0.165-5.13-.36-10.208c-0.04-1.2-.09-2.406-0.14-3.6q-0.24-5.746-.51-11.422c-0.02-.356-0.04-0.717-0.05-1.072q-0.315-6.16-.68-12.224c-0.07-1.119-.14-2.232-0.21-3.347q-0.3-4.734-.62-9.415c-0.07-1.013-.14-2.03-0.21-3.04q-0.435-5.931-.91-11.779c-0.06-.716-0.12-1.423-0.18-2.137-0.27-3.251-.56-6.482-0.85-9.694-0.11-1.119-.21-2.237-0.32-3.351q-0.465-4.982-.98-9.9c-0.05-.551-0.11-1.109-0.16-1.659q-0.6-5.655-1.24-11.222c-0.11-1-.23-1.985-0.35-2.977q-0.51-4.336-1.05-8.621c-0.12-.983-0.25-1.97-0.37-2.949q-0.705-5.458-1.45-10.839c-0.07-.509-0.14-1.011-0.21-1.518q-0.66-4.68-1.35-9.294c-0.16-1.031-.31-2.059-0.47-3.086-0.45-2.916-.9-5.815-1.37-8.695-0.1-.654-0.21-1.314-0.31-1.967q-0.855-5.177-1.74-10.271c-0.16-.872-0.31-1.735-0.47-2.6q-0.7-3.986-1.44-7.921c-0.17-.938-0.35-1.878-0.53-2.812q-0.945-5.007-1.93-9.941c-0.06-.274-0.11-0.544-0.17-0.817-0.61-3.035-1.24-6.043-1.87-9.033-0.2-.941-0.41-1.878-0.61-2.814-0.56-2.584-1.12-5.151-1.7-7.7-0.16-.7-0.31-1.406-0.47-2.1q-1.08-4.723-2.19-9.369c-0.18-.746-0.36-1.484-0.55-2.228q-0.885-3.673-1.8-7.3c-0.23-.883-0.45-1.766-0.67-2.644-0.77-2.994-1.54-5.971-2.33-8.916l-0.06-.193q-1.2-4.5-2.45-8.918-0.36-1.273-.72-2.539-0.99-3.451-1.99-6.857c-0.21-.709-0.42-1.423-0.63-2.13q-1.275-4.292-2.59-8.512c-0.19-.619-0.39-1.23-0.58-1.847q-1.065-3.4-2.16-6.752c-0.27-.82-0.53-1.639-0.8-2.455q-1.23-3.743-2.48-7.43c-0.1-.288-0.2-0.582-0.3-0.871q-1.395-4.065-2.82-8.054c-0.27-.758-0.54-1.51-0.81-2.265q-1.11-3.084-2.24-6.125c-0.26-.694-0.51-1.392-0.77-2.083q-1.455-3.884-2.94-7.7c-0.19-.489-0.39-0.97-0.58-1.457-0.82-2.107-1.66-4.2-2.49-6.275-0.31-.753-0.61-1.5-0.92-2.254q-1.3-3.18-2.62-6.31c-0.17-.406-0.34-0.816-0.51-1.22q-1.545-3.657-3.12-7.243c-0.3-.667-0.59-1.328-0.88-1.992q-1.23-2.762-2.47-5.484c-0.3-.663-0.6-1.328-0.9-1.987q-1.6-3.5-3.24-6.935c-0.16-.351-0.33-0.694-0.5-1.044q-1.41-2.964-2.85-5.878c-0.33-.684-0.67-1.364-1.01-2.044q-1.35-2.731-2.73-5.421c-0.23-.458-0.46-0.921-0.69-1.378q-1.68-3.273-3.39-6.481c-0.3-.577-0.61-1.147-0.92-1.721q-1.32-2.478-2.66-4.918c-0.34-.62-0.68-1.241-1.02-1.857q-1.725-3.135-3.48-6.214c-0.11-.2-0.23-0.392-0.34-0.59q-1.6-2.814-3.24-5.575c-0.36-.613-0.72-1.221-1.08-1.83-0.94-1.575-1.87-3.138-2.82-4.688-0.28-.472-0.57-0.948-0.86-1.418-1.19-1.943-2.38-3.866-3.59-5.769-0.3-.487-0.61-0.966-0.92-1.45q-1.41-2.227-2.84-4.42-0.555-.854-1.11-1.7-1.755-2.662-3.51-5.276l-0.21-.315a342.447,342.447,0,0,0-32.41-44.4s-16.91-21-20.77-24.669c-191.66-182.085-355.71-261.3-486.47-288.84-97.79-22.836-176.23-16.749-234.152-2.152-1.2.247-2.406,0.515-3.608,0.77-1.143.244-2.285,0.485-3.433,0.736q-2.045.447-4.1,0.915-1.748.395-3.5,0.8c-1.336.31-2.669,0.617-4.012,0.938q-3.273.782-6.574,1.607c-1.285.321-2.577,0.656-3.868,0.987s-2.589.667-3.889,1.009-2.624.694-3.941,1.049c-1.451.392-2.907,0.795-4.365,1.2q-2.714.753-5.445,1.534-2.484.711-4.979,1.443-1.89.558-3.791,1.133-2.19.66-4.392,1.34c-1.223.377-2.444,0.751-3.671,1.137q-3.623,1.14-7.273,2.33c-1.114.364-2.236,0.742-3.355,1.113q-2.439.81-4.89,1.642-1.832.623-3.668,1.257-2.639.913-5.292,1.858c-1.12.4-2.238,0.79-3.362,1.195q-3.641,1.311-7.311,2.679c-1.151.428-2.307,0.866-3.461,1.3q-2.61.986-5.233,2c-1.134.437-2.266,0.873-3.4,1.318q-3.961,1.551-7.951,3.16c-0.9.366-1.816,0.745-2.722,1.116q-2.982,1.218-5.978,2.469-1.71.715-3.424,1.442-3.015,1.276-6.046,2.592c-0.914.4-1.823,0.783-2.739,1.184q-4.144,1.813-8.323,3.7c-1.039.468-2.082,0.946-3.123,1.42q-3.006,1.37-6.027,2.774c-1.07.5-2.139,0.993-3.212,1.5q-4.284,2.013-8.6,4.091c-0.641.31-1.287,0.631-1.929,0.943q-3.587,1.746-7.2,3.54-1.606.8-3.219,1.611-3.322,1.67-6.666,3.385c-0.875.449-1.748,0.89-2.625,1.344q-4.442,2.3-8.916,4.669c-0.924.49-1.853,0.992-2.78,1.487q-3.381,1.807-6.781,3.66c-1.031.562-2.061,1.123-3.1,1.691q-4.359,2.4-8.745,4.861l-1.327.75q-4.31,2.435-8.651,4.947-1.525.882-3.055,1.776-3.583,2.088-7.185,4.226c-0.873.518-1.743,1.03-2.618,1.552q-4.712,2.816-9.456,5.715c-0.807.493-1.618,1-2.426,1.5q-3.747,2.305-7.513,4.664-1.521.951-3.043,1.91-4.365,2.754-8.757,5.579c-0.372.239-.741,0.472-1.114,0.712q-4.877,3.148-9.79,6.4c-0.975.643-1.952,1.294-2.929,1.943q-3.8,2.526-7.627,5.11c-0.9.606-1.793,1.206-2.692,1.817q-4.958,3.369-9.947,6.828c-0.677.47-1.359,0.952-2.037,1.424q-4.118,2.87-8.255,5.8-1.521,1.078-3.045,2.165-4.374,3.12-8.773,6.313c-0.516.375-1.029,0.741-1.545,1.117q-5.094,3.711-10.223,7.528c-0.941.7-1.885,1.408-2.827,2.112q-4,2.991-8.022,6.041c-0.941.714-1.88,1.424-2.822,2.143q-5.183,3.952-10.394,8c-0.523.407-1.049,0.824-1.572,1.232q-4.515,3.522-9.055,7.124-1.542,1.223-3.086,2.455-4.389,3.5-8.8,7.074c-0.653.529-1.3,1.05-1.958,1.582q-5.29,4.3-10.614,8.71c-0.91.754-1.822,1.517-2.734,2.275q-4.188,3.484-8.4,7.035c-0.994.839-1.988,1.675-2.984,2.52q-5.389,4.57-10.81,9.241c-0.315.272-.632,0.551-0.948,0.824q-4.986,4.311-10,8.722-1.57,1.38-3.143,2.771-4.418,3.9-8.856,7.875c-0.783.7-1.562,1.393-2.346,2.1q-5.472,4.917-10.976,9.95c-0.871.8-1.745,1.605-2.617,2.405q-4.386,4.026-8.792,8.123-1.576,1.465-3.154,2.937-5.59,5.223-11.208,10.55-6.012,5.712-11.878,11.382c5.013-4.837-14.29,17.591-14.29,17.591a340.931,340.931,0,0,0-29.951,41.485c-0.587.867-1.168,1.754-1.752,2.63-0.556.832-1.112,1.663-1.665,2.5q-0.986,1.5-1.967,3.014-0.834,1.287-1.665,2.589c-0.632.988-1.265,1.974-1.894,2.974q-1.536,2.438-3.059,4.919c-0.593.965-1.182,1.944-1.771,2.919s-1.182,1.958-1.771,2.946-1.186,2-1.777,3c-0.65,1.108-1.3,2.227-1.944,3.347q-1.2,2.087-2.4,4.2c-0.725,1.283-1.448,2.568-2.168,3.867-0.544.983-1.086,1.974-1.627,2.965q-0.937,1.717-1.868,3.453c-0.517.964-1.035,1.925-1.549,2.9q-1.518,2.87-3.02,5.787c-0.458.891-.911,1.795-1.367,2.693q-0.993,1.959-1.981,3.938-0.735,1.479-1.468,2.97-1.05,2.142-2.09,4.313c-0.439.915-.88,1.826-1.317,2.748q-1.418,2.989-2.814,6.029c-0.438.953-.873,1.915-1.309,2.875q-0.984,2.17-1.96,4.366c-0.421.948-.843,1.895-1.262,2.85q-1.458,3.328-2.9,6.711c-0.326.767-.646,1.547-0.97,2.319q-1.063,2.537-2.116,5.1-0.6,1.466-1.194,2.941-1.047,2.592-2.078,5.22c-0.312.792-.626,1.576-0.935,2.372q-1.4,3.6-2.775,7.269c-0.342.911-.68,1.831-1.019,2.748q-0.98,2.646-1.946,5.323c-0.343.948-.685,1.895-1.025,2.849q-1.356,3.81-2.686,7.678c-0.2.575-.39,1.16-0.586,1.738q-1.1,3.226-2.174,6.5-0.48,1.457-.955,2.925-0.98,3.022-1.943,6.086c-0.253.8-.508,1.6-0.759,2.4q-1.268,4.08-2.5,8.229c-0.256.858-.508,1.725-0.761,2.587q-0.927,3.144-1.835,6.327-0.412,1.448-.823,2.9-1.151,4.1-2.273,8.249-0.17.629-.337,1.259-1.094,4.089-2.156,8.246-0.375,1.461-.743,2.931-0.869,3.438-1.714,6.921c-0.206.844-.413,1.683-0.617,2.531q-1.095,4.566-2.155,9.206c-0.18.789-.355,1.587-0.533,2.379q-0.828,3.674-1.632,7.392-0.324,1.5-.646,3.008-0.918,4.322-1.807,8.7c-0.075.371-.153,0.737-0.228,1.109q-0.98,4.873-1.914,9.833c-0.186.983-.37,1.972-0.554,2.96q-0.716,3.846-1.408,7.739c-0.163.913-.327,1.822-0.488,2.74q-0.883,5.06-1.728,10.2c-0.115.7-.224,1.4-0.337,2.1q-0.687,4.247-1.345,8.547-0.242,1.581-.479,3.168-0.683,4.557-1.333,9.174c-0.076.542-.156,1.077-0.231,1.619q-0.744,5.356-1.44,10.8c-0.129,1-.253,2-0.379,3.006q-0.534,4.253-1.041,8.557c-0.119,1.006-.239,2.01-0.355,3.02q-0.641,5.561-1.235,11.2c-0.059.566-.114,1.14-0.172,1.707q-0.507,4.892-.975,9.85-0.159,1.683-.314,3.373-0.443,4.8-.849,9.668c-0.061.721-.125,1.434-0.184,2.157q-0.478,5.841-.905,11.771c-0.073,1.013-.142,2.035-0.213,3.051q-0.325,4.676-.621,9.4c-0.07,1.117-.141,2.232-0.208,3.354q-0.363,6.071-.678,12.22c-0.018.358-.033,0.722-0.051,1.08q-0.281,5.668-.514,11.415-0.074,1.8-.142,3.606c-0.13,3.381-.249,6.777-0.355,10.207-0.028.9-.061,1.8-0.087,2.7q-0.184,6.345-.315,12.77c-0.02,1.01-.035,2.04-0.054,3.06q-0.093,5.13-.151,10.32c-0.014,1.24-.028,2.47-0.039,3.72-0.038,4.4-.065,8.81-0.065,13.27q0,7.155.065,14.2,0.012,1.605.028,3.21c0,0.25.007,0.49,0.01,0.75q-0.095,9-.1,18.15c0,229.64,51.167,377.36,115.485,472.38,27.695,45.28,75.28,97.97,157.026,142.98a609.625,609.625,0,0,0,86.456,40.98c-21.97-67.09-36.859-156.74-36.859-276.56q0-6.78.06-13.42c0-.19,0-0.37-0.006-0.56q-0.009-1.185-.016-2.37c-0.022-3.48-.038-6.97-0.038-10.5q0-4.935.038-9.81c0.006-.92.015-1.84,0.023-2.75q0.033-3.84.088-7.63c0.011-.76.02-1.51,0.032-2.27,0.051-3.16.112-6.31,0.184-9.43,0.015-.68.034-1.34,0.05-2.01q0.094-3.8.208-7.54,0.041-1.335.083-2.67,0.138-4.245.3-8.44c0.011-.26.019-0.53,0.03-0.8q0.182-4.545.4-9.03c0.039-.83.081-1.66,0.122-2.48q0.173-3.495.363-6.95c0.041-.76.081-1.51,0.124-2.26,0.167-2.92.342-5.83,0.529-8.7,0.034-.54.072-1.07,0.107-1.6q0.239-3.6.5-7.15,0.091-1.245.184-2.49,0.274-3.66.569-7.29c0.035-.41.067-0.84,0.1-1.26q0.346-4.17.722-8.28c0.067-.74.138-1.49,0.207-2.23q0.3-3.18.609-6.33,0.109-1.11.221-2.22,0.408-4.02.841-7.98c0.044-.4.091-0.8,0.135-1.2q0.38-3.42.779-6.78c0.093-.79.186-1.57,0.28-2.35,0.256-2.12.518-4.22,0.786-6.32,0.066-.51.13-1.04,0.2-1.55q0.492-3.81,1.01-7.54c0.094-.68.19-1.35,0.285-2.03,0.269-1.92.544-3.82,0.823-5.72q0.16-1.1.323-2.19c0.366-2.44.737-4.87,1.119-7.27,0.044-.27.089-0.54,0.133-0.82q0.518-3.24,1.056-6.43c0.125-.75.251-1.49,0.377-2.23q0.47-2.745.954-5.46c0.1-.59.206-1.18,0.311-1.76q0.62-3.435,1.26-6.81c0.118-.63.24-1.25,0.36-1.87,0.33-1.72.663-3.42,1-5.12,0.145-.72.289-1.45,0.434-2.17,0.415-2.04.834-4.08,1.26-6.09,0.066-.31.131-0.62,0.2-0.93,0.437-2.05.88-4.09,1.328-6.1,0.16-.72.321-1.43,0.482-2.15q0.53-2.355,1.071-4.68c0.149-.63.3-1.27,0.445-1.91q0.723-3.06,1.464-6.08c0.147-.6.3-1.19,0.443-1.78q0.564-2.265,1.136-4.5c0.185-.72.371-1.45,0.558-2.16q0.629-2.43,1.27-4.81c0.115-.43.227-0.86,0.342-1.28q0.777-2.865,1.57-5.68c0.2-.71.4-1.41,0.6-2.11q0.564-1.98,1.137-3.93,0.3-1.02.6-2.04c0.535-1.8,1.075-3.6,1.621-5.37,0.181-.59.364-1.17,0.546-1.75,0.4-1.3.807-2.59,1.214-3.86,0.232-.73.465-1.46,0.7-2.18,0.409-1.27.822-2.52,1.237-3.77,0.189-.57.376-1.15,0.566-1.72q0.84-2.5,1.693-4.96c0.244-.71.491-1.41,0.737-2.11,0.38-1.08.762-2.15,1.145-3.22,0.255-.71.509-1.43,0.765-2.13q0.817-2.25,1.644-4.46c0.255-.68.513-1.35,0.77-2.03,0.4-1.07.812-2.13,1.221-3.19,0.285-.73.571-1.47,0.858-2.2q0.576-1.455,1.158-2.91c0.266-.66.531-1.33,0.8-1.99,0.585-1.44,1.173-2.86,1.765-4.28,0.3-.72.6-1.43,0.9-2.14,0.363-.85.726-1.71,1.091-2.55,0.317-.74.633-1.47,0.951-2.2q0.632-1.44,1.267-2.85c0.465-1.05.932-2.08,1.4-3.11,0.378-.83.756-1.66,1.136-2.48q0.518-1.11,1.038-2.22c0.344-.73.689-1.45,1.035-2.17s0.689-1.45,1.035-2.16c0.593-1.23,1.189-2.44,1.787-3.64,0.368-.74.738-1.47,1.107-2.2,0.324-.64.648-1.28,0.973-1.91,0.383-.75.765-1.49,1.149-2.23,0.324-.62.648-1.24,0.973-1.85,0.341-.65.681-1.31,1.024-1.95,15.575-32.24,41.935-69.57,86.523-102.023,58.463-44.779,149.016-80.267,289.3-80.267q4.678,0,9.281.05c3.218-.033,6.448-0.05,9.718-0.05,140.11,0,230.61,35.4,289.08,80.1,44.77,32.522,71.19,69.962,86.79,102.272,0.04,0.08.08,0.16,0.12,0.23,0.69,1.29,1.37,2.59,2.05,3.91,0.22,0.41.43,0.84,0.65,1.26,0.56,1.08,1.11,2.17,1.66,3.26l0.54,1.08c0.7,1.4,1.4,2.83,2.1,4.26,0.17,0.35.33,0.7,0.5,1.05,0.55,1.15,1.1,2.3,1.65,3.47l0.63,1.35q0.945,2.04,1.89,4.12c0.07,0.15.13,0.29,0.2,0.44,0.68,1.51,1.36,3.05,2.03,4.59l0.6,1.38c0.52,1.2,1.04,2.41,1.55,3.63,0.18,0.43.36,0.85,0.54,1.28,0.66,1.58,1.32,3.17,1.98,4.79,0.13,0.33.27,0.68,0.41,1.02,0.53,1.32,1.06,2.66,1.59,4,0.2,0.51.39,1.01,0.59,1.52,0.56,1.43,1.11,2.88,1.66,4.34,0.1,0.26.2,0.51,0.3,0.77q0.945,2.55,1.89,5.13c0.18,0.49.35,0.98,0.53,1.47,0.48,1.34.96,2.69,1.44,4.06l0.51,1.47c0.62,1.77,1.22,3.55,1.83,5.35,0.1,0.3.2,0.61,0.3,0.91q0.765,2.31,1.53,4.66c0.17,0.56.35,1.11,0.53,1.67q0.735,2.3,1.46,4.64c0.11,0.36.22,0.71,0.33,1.08,0.58,1.88,1.16,3.78,1.72,5.69,0.15,0.51.3,1.03,0.45,1.54,0.44,1.5.88,3.01,1.31,4.53,0.16,0.56.32,1.11,0.48,1.67q0.825,2.955,1.65,5.96c0.05,0.21.11,0.43,0.17,0.64q0.735,2.73,1.45,5.5c0.16,0.6.31,1.21,0.47,1.81,0.42,1.66.84,3.32,1.26,5,0.11,0.45.22,0.9,0.34,1.36q0.765,3.12,1.51,6.29c0.12,0.53.25,1.06,0.37,1.58q0.585,2.52,1.16,5.07c0.14,0.62.28,1.25,0.42,1.88,0.49,2.18.97,4.37,1.44,6.59,0.01,0.05.02,0.1,0.03,0.14q0.69,3.27,1.36,6.6l0.39,1.95q0.54,2.685,1.06,5.4c0.1,0.55.21,1.09,0.31,1.65,0.44,2.29.87,4.59,1.28,6.92,0.1,0.52.19,1.04,0.28,1.56q0.51,2.82.99,5.69c0.12,0.69.24,1.39,0.36,2.08q0.555,3.315,1.09,6.68c0.03,0.2.07,0.4,0.1,0.61,0.39,2.42.76,4.88,1.13,7.35,0.11,0.69.21,1.38,0.31,2.08,0.28,1.94.57,3.89,0.84,5.85,0.09,0.64.18,1.28,0.27,1.93q0.525,3.765,1.02,7.59c0.06,0.48.12,0.97,0.18,1.46,0.28,2.13.54,4.27,0.8,6.43,0.09,0.76.19,1.52,0.28,2.28q0.4,3.4.78,6.87c0.05,0.37.09,0.75,0.13,1.12,0.29,2.65.57,5.33,0.85,8.02,0.07,0.72.14,1.45,0.21,2.18q0.315,3.165.62,6.37c0.06,0.74.13,1.47,0.2,2.2,0.25,2.75.49,5.51,0.72,8.3,0.04,0.41.07,0.82,0.1,1.23q0.3,3.63.57,7.32c0.07,0.82.13,1.65,0.19,2.48q0.255,3.555.49,7.16c0.04,0.53.08,1.05,0.11,1.58,0.19,2.88.36,5.79,0.53,8.71l0.12,2.25q0.2,3.465.37,6.96c0.04,0.83.08,1.65,0.12,2.48q0.21,4.485.39,9.04c0.01,0.26.02,0.52,0.03,0.79,0.11,2.79.21,5.61,0.3,8.44l0.09,2.67q0.1,3.75.2,7.54l0.06,2.01c0.07,3.12.13,6.27,0.18,9.43,0.01,0.76.02,1.51,0.03,2.27q0.06,3.8.09,7.63c0.01,0.91.02,1.83,0.02,2.75,0.02,3.25.04,6.52,0.04,9.81,0,3.53-.02,7.02-0.04,10.5,0,0.79-.01,1.58-0.01,2.37-0.01.19-.01,0.37-0.01,0.56q0.06,6.645.06,13.42c0,120.01-14.94,209.76-36.97,276.87,40.21-15.46,74.6-32.97,104.01-51.56,69.8-41.85,112.25-89.13,138.07-130.51,65.03-94.93,117-243.15,117-474.58q0-9.165-.1-18.15C1774.79,1069.08,1774.79,1068.84,1774.8,1068.59Z"/>
</svg>
