<svg xmlns="http://www.w3.org/2000/svg" width="2000" height="2000" viewBox="0 0 2000 2000">
  <defs>
    <style>
      .cls-1 {
        fill: #fff;
        fill-rule: evenodd;
      }
    </style>
  </defs>
  <path id="Shape_316_1" data-name="Shape 316 1" class="cls-1" d="M1000,1996C449.924,1996,4,1550.08,4,1000S449.924,4,1000,4s996,445.924,996,996S1550.08,1996,1000,1996Zm0-159.99c-461.707,0-835.994-374.3-835.994-836.01S538.293,163.991,1000,163.991,1835.99,538.285,1835.99,1000,1461.71,1836.01,1000,1836.01Zm542.33-1179q-30.93,106.19-61.87,212.4-34.8,116.388-69.61,232.8c-31.67,103.67-51.16,203.33-125.15,263.74-54.4,44.41-116.12,55.02-193.36,77.36q-126.195,34.11-252.412,68.23-92.45,24.96-184.917,49.93c-27.587,7.9-59.927,23.43-97.029,18.29-33.3-4.62-56.713-13.55-77.342-30.25-26.284-21.27-39.83-52.16-45.7-94.24-6.283-45.02,13.86-84.59,23.906-118.16q30.933-109,61.873-218.03,36.207-127.635,72.42-255.3c26.247-87.8,40.135-158.181,91.4-220.138,59.708-72.156,148.307-83.9,253.822-109.718q174.7-42.195,349.447-84.4l108.98-26.022q15.465-2.111,30.94-4.22c82.23-1.511,126.89,49.058,137.1,120.267C1571.55,586.355,1552.53,623.689,1542.33,657.006ZM906.358,759.118c44.952-.231,60.769,30.324,75.329,60.687,13.838,28.858,26.213,59.686,38.683,90.012,4.22,10.267,12.67,33.918,16.29,41.136,12.81,0.059,38.91.408,53.34,0.408l63.93,2.036,17.1,0.407c18.5,3.035,35.04,2.276,48.86,9.368,9.97,5.119,21.5,17.889,17.51,35.435-9.04,39.673-48.23,38.213-88.77,29.323l-41.53-2.85c-6.06-.99-40.87-1.33-44.38-1.22l17.91,52.95c11.31,32.38,21.7,66.44,30.13,101.41,7.59,31.48,8.08,56.73-22.39,64.36-27.1,6.78-41.62-15.53-49.68-31.37-15.61-30.7-22.11-68.31-33.79-103.45q-14.052-42.765-28.1-85.53-24.633.21-49.269,0.41c-37.751,0-78.579.08-112.383,3.66-31.317,3.32-45.9.43-50.9-17.1-4.544-15.95,2.126-34.73,10.994-41.548,13.456-10.344,35.689-9.063,56.6-12.218h24.838l50.083-2.037,42.754-1.222,0.408-.814q-7.533-18.937-15.066-37.879c-13.578-32.9-26.247-65.1-38.275-98.972-4.486-12.633-14.283-41.273-1.222-51.319C898.466,760.805,902.29,760.783,906.358,759.118Z"/>
</svg>
