<svg xmlns="http://www.w3.org/2000/svg" width="2000" height="2000" viewBox="0 0 2000 2000">
  <defs>
    <style>
      .cls-1 {
        fill: #fff;
        fill-rule: evenodd;
      }
    </style>
  </defs>
  <path id="_2025-ariaplus-icons-square_1_copy_2" data-name="2025-ariaplus-icons-square 1 copy 2" class="cls-1" d="M1998.41,1363.9c0.37,8.68.58,17.41,0.58,26.18q0,7.56-.19,15.07c-0.04,1.65-.13,3.29-0.18,4.94-0.11,3.36-.22,6.71-0.38,10.05-0.1,1.94-.23,3.86-0.35,5.79-0.17,3.05-.35,6.09-0.57,9.13-0.15,2-.34,3.99-0.5,5.99-0.25,2.96-.5,5.92-0.79,8.87-0.2,1.98-.42,3.95-0.63,5.92-0.33,2.97-.66,5.94-1.02,8.89q-0.36,2.85-.75,5.67c-0.4,3.06-.82,6.1-1.27,9.14-0.27,1.75-.54,3.49-0.82,5.24q-0.75,4.8-1.59,9.59c-0.27,1.54-.54,3.07-0.82,4.6q-0.96,5.19-1.99,10.33c-0.24,1.24-.49,2.47-0.75,3.71q-1.185,5.745-2.5,11.44c-0.18.81-.36,1.62-0.55,2.43q-1.53,6.6-3.22,13.16c-0.04.18-.09,0.36-0.14,0.55-61.84,240.3-268.28,422.54-521.05,448.39l-18.14,1.56c-14.47,1.04-29.09,1.6-43.83,1.6q-22.17,0-43.96-1.6H1067.4q-27.27,1.56-57.22,1.59-10.485,0-20.644-.18h-0.16q-28.237,0-54.051-1.41H646.55q-21.777,1.575-43.96,1.6c-14.743,0-29.356-.56-43.834-1.6l-18.139-1.56c-252.768-25.85-459.2-208.09-521.051-448.39-0.047-.19-0.093-0.37-0.14-0.55q-1.679-6.555-3.216-13.16c-0.188-.81-0.369-1.62-0.553-2.43q-1.3-5.7-2.5-11.44c-0.256-1.24-.505-2.47-0.754-3.71q-1.035-5.145-1.982-10.33c-0.28-1.53-.557-3.06-0.825-4.6q-0.836-4.785-1.592-9.59c-0.276-1.75-.552-3.49-0.813-5.24-0.452-3.04-.872-6.08-1.279-9.14-0.252-1.88-.508-3.77-0.743-5.67-0.366-2.95-.695-5.92-1.017-8.89-0.215-1.97-.439-3.94-0.634-5.92-0.291-2.95-.54-5.91-0.788-8.87-0.168-2-.35-3.99-0.5-5.99-0.224-3.04-.4-6.08-0.579-9.13-0.113-1.93-.248-3.85-0.344-5.79-0.164-3.34-.272-6.69-0.382-10.05-0.054-1.65-.135-3.29-0.176-4.94q-0.185-7.515-.191-15.07,0-13.155.574-26.18V848.829q-0.558-13.023-.574-26.18,0-5,.082-9.986c0.018-1.114.056-2.222,0.08-3.334,0.048-2.206.092-4.413,0.164-6.613,0.043-1.332.108-2.659,0.16-3.99,0.077-1.973.148-3.947,0.244-5.915,0.07-1.424.16-2.843,0.239-4.265,0.1-1.866.2-3.735,0.324-5.6,0.1-1.474.212-2.943,0.318-4.414,0.131-1.8.256-3.606,0.4-5.4,0.123-1.5.264-3,.4-4.506,0.156-1.757.308-3.515,0.479-5.268,0.149-1.524.316-3.044,0.476-4.566,0.182-1.721.36-3.443,0.556-5.16,0.176-1.539.368-3.073,0.555-4.608,0.206-1.692.41-3.383,0.63-5.07,0.2-1.55.42-3.094,0.634-4.64,0.231-1.664.46-3.329,0.7-4.989,0.229-1.557.472-3.11,0.713-4.664,0.254-1.639.508-3.279,0.776-4.914,0.256-1.563.524-3.123,0.792-4.683,0.277-1.615.556-3.231,0.846-4.842,0.283-1.569.577-3.134,0.871-4.7q0.45-2.39.915-4.774,0.465-2.36.951-4.712t0.981-4.7q0.505-2.365,1.032-4.725,0.515-2.319,1.046-4.633,0.547-2.373,1.114-4.738,0.546-2.284,1.108-4.563,0.588-2.379,1.2-4.751,0.575-2.247,1.168-4.488,0.631-2.388,1.28-4.767,0.6-2.208,1.224-4.41,0.674-2.4,1.366-4.785,0.63-2.167,1.277-4.327,0.719-2.407,1.454-4.806,0.654-2.124,1.326-4.239,0.765-2.419,1.545-4.833,0.675-2.075,1.369-4.141,0.813-2.437,1.64-4.867c0.462-1.348.935-2.691,1.406-4.034,0.575-1.639,1.151-3.278,1.74-4.91,0.472-1.307.955-2.61,1.435-3.913,0.611-1.657,1.222-3.315,1.848-4.965,0.478-1.261.967-2.516,1.453-3.773,0.65-1.682,1.3-3.364,1.964-5.038,0.479-1.206.97-2.4,1.456-3.607,0.694-1.714,1.386-3.429,2.095-5.136,0.473-1.138.958-2.269,1.437-3.4,0.744-1.759,1.486-3.519,2.246-5.27,0.456-1.05.924-2.093,1.385-3.14,0.8-1.824,1.607-3.649,2.428-5.463,0.42-.928.853-1.85,1.278-2.775,0.882-1.923,1.764-3.845,2.665-5.756,0.351-.743.712-1.48,1.066-2.221,0.994-2.084,1.989-4.167,3.006-6.237,0.2-.414.413-0.823,0.617-1.236q11.877-24.039,25.789-46.83c0.077-.127.152-0.255,0.23-0.382q2.088-3.416,4.226-6.8c0.227-.36.448-0.723,0.676-1.083q2.016-3.187,4.078-6.342c0.315-.484.624-0.972,0.94-1.454q1.987-3.036,4.015-6.042c0.374-.556.742-1.115,1.117-1.67q1.98-2.927,4-5.824c0.416-.6.827-1.2,1.245-1.8q1.989-2.844,4.015-5.66c0.448-.625.892-1.253,1.342-1.876q2.007-2.78,4.05-5.531c0.473-.638.942-1.28,1.417-1.916q2.032-2.727,4.1-5.425c0.491-.644.98-1.29,1.475-1.932q2.064-2.682,4.161-5.336c0.507-.643,1.011-1.287,1.52-1.928q2.1-2.644,4.233-5.261,0.775-.956,1.553-1.909,2.142-2.613,4.313-5.2,0.788-.939,1.576-1.876,2.185-2.586,4.4-5.145,0.792-.918,1.588-1.832,2.234-2.564,4.5-5.1,0.793-.891,1.59-1.777,2.288-2.546,4.6-5.064,0.789-.858,1.58-1.712,2.346-2.532,4.719-5.036,0.777-.821,1.558-1.636,2.408-2.523,4.844-5.017,0.759-.777,1.522-1.549,2.476-2.517,4.982-5.007,0.732-.726,1.469-1.449,2.554-2.518,5.136-5.008c0.464-.447.93-0.89,1.4-1.334q2.641-2.528,5.309-5.024c0.431-.4.864-0.8,1.295-1.2q2.739-2.544,5.507-5.056c0.386-.349.775-0.695,1.161-1.043q2.855-2.571,5.738-5.11c0.326-.286.655-0.569,0.981-0.855q2.991-2.615,6.012-5.194c0.245-.209.493-0.414,0.738-0.623q3.158-2.679,6.349-5.32l0.4-.326a603.951,603.951,0,0,1,67.142-48.041L361.315,271,683.4,95.708a598.975,598.975,0,0,1,309.9-85.875c2.166,0,4.324.033,6.484,0.056,2.165-.023,4.315-0.056,6.485-0.056a598.939,598.939,0,0,1,309.89,85.875L1638.24,271l74.2,38.857a604.672,604.672,0,0,1,67.14,48.041c0.13,0.109.26,0.217,0.4,0.326,2.13,1.758,4.24,3.534,6.35,5.32,0.24,0.209.49,0.414,0.73,0.623,2.02,1.717,4.02,3.451,6.02,5.194,0.32,0.286.65,0.569,0.98,0.855q2.88,2.535,5.73,5.11c0.39,0.348.78,0.694,1.17,1.043,1.84,1.673,3.68,3.36,5.5,5.056,0.43,0.4.87,0.8,1.3,1.2q2.67,2.495,5.31,5.024c0.46,0.444.93,0.887,1.39,1.334,1.72,1.658,3.44,3.329,5.14,5.008l1.47,1.449q2.505,2.488,4.98,5.007c0.51,0.516,1.02,1.031,1.52,1.549,1.63,1.663,3.24,3.335,4.85,5.017,0.52,0.544,1.04,1.089,1.55,1.636q2.385,2.5,4.72,5.036c0.53,0.569,1.06,1.14,1.58,1.712,1.55,1.679,3.08,3.367,4.61,5.064,0.53,0.591,1.06,1.183,1.58,1.777q2.265,2.538,4.5,5.1,0.8,0.913,1.59,1.832,2.22,2.56,4.4,5.145c0.53,0.624,1.05,1.25,1.58,1.876q2.16,2.588,4.31,5.2c0.52,0.634,1.04,1.272,1.55,1.909,1.42,1.746,2.84,3.5,4.24,5.261,0.51,0.641,1.01,1.285,1.52,1.928q2.085,2.658,4.16,5.336c0.49,0.642.98,1.288,1.47,1.932q2.07,2.7,4.1,5.425c0.48,0.636.95,1.278,1.42,1.916q2.04,2.755,4.05,5.531c0.45,0.623.9,1.251,1.34,1.876q2.025,2.82,4.02,5.66c0.42,0.6.83,1.2,1.24,1.8q2.025,2.9,4,5.824c0.38,0.555.75,1.114,1.12,1.67q2.025,3.01,4.02,6.042c0.31,0.482.62,0.97,0.94,1.454q2.055,3.159,4.07,6.342c0.23,0.36.45,0.723,0.68,1.083q2.13,3.385,4.23,6.8c0.07,0.127.15,0.255,0.23,0.382q13.89,22.77,25.79,46.83c0.2,0.413.41,0.822,0.61,1.236,1.02,2.07,2.01,4.153,3.01,6.237,0.35,0.741.71,1.478,1.06,2.221,0.91,1.911,1.79,3.833,2.67,5.756,0.42,0.925.86,1.847,1.28,2.775,0.82,1.814,1.62,3.639,2.43,5.463,0.46,1.047.93,2.09,1.38,3.14,0.76,1.751,1.5,3.511,2.25,5.27,0.48,1.134.96,2.265,1.43,3.4q1.065,2.561,2.1,5.136c0.49,1.2.98,2.4,1.46,3.607q0.99,2.511,1.96,5.038c0.49,1.257.97,2.512,1.45,3.773,0.63,1.65,1.24,3.308,1.85,4.965q0.72,1.955,1.44,3.913,0.87,2.448,1.74,4.91c0.47,1.343.94,2.686,1.4,4.034,0.56,1.618,1.1,3.242,1.64,4.867,0.46,1.379.92,2.758,1.37,4.141q0.78,2.41,1.55,4.833c0.44,1.411.89,2.823,1.32,4.239q0.735,2.4,1.46,4.806c0.43,1.44.85,2.882,1.27,4.327,0.47,1.592.92,3.188,1.37,4.785,0.41,1.468.82,2.938,1.22,4.41,0.44,1.586.86,3.175,1.28,4.767q0.6,2.241,1.17,4.488,0.615,2.371,1.2,4.751,0.555,2.279,1.11,4.563c0.37,1.577.75,3.156,1.11,4.738q0.525,2.313,1.05,4.633c0.34,1.573.69,3.148,1.03,4.725s0.66,3.134.98,4.7,0.64,3.139.95,4.712c0.31,1.589.61,3.181,0.91,4.774,0.3,1.564.59,3.129,0.88,4.7,0.29,1.611.56,3.227,0.84,4.842,0.27,1.56.54,3.12,0.79,4.683q0.4,2.452.78,4.914c0.24,1.554.48,3.107,0.71,4.664,0.25,1.66.48,3.325,0.71,4.989,0.21,1.546.43,3.09,0.63,4.64,0.22,1.687.42,3.378,0.63,5.07,0.19,1.535.38,3.069,0.55,4.608,0.2,1.717.38,3.439,0.56,5.16,0.16,1.522.33,3.042,0.48,4.566,0.17,1.753.32,3.511,0.48,5.268,0.13,1.5.27,3,.39,4.506,0.15,1.8.27,3.6,0.41,5.4,0.1,1.471.22,2.94,0.31,4.414,0.12,1.862.22,3.731,0.33,5.6,0.08,1.422.17,2.841,0.24,4.265,0.09,1.968.16,3.942,0.24,5.915,0.05,1.331.12,2.658,0.16,3.99q0.1,3.3.16,6.613c0.03,1.112.07,2.22,0.08,3.334q0.09,4.983.09,9.986c0,8.773-.21,17.5-0.58,26.18V1363.9Zm-704.28,131.86c0.01-.42.01-0.85,0.01-1.28q0.03-2.82.03-5.67c0-1.79-.01-3.55-0.03-5.31,0-.5-0.01-0.99-0.01-1.49-0.02-1.38-.04-2.75-0.06-4.12-0.01-.41-0.01-0.82-0.02-1.22-0.03-1.72-.07-3.42-0.12-5.11l-0.03-1.08c-0.04-1.37-.09-2.73-0.14-4.08-0.02-.48-0.03-0.96-0.05-1.44-0.06-1.53-.13-3.05-0.2-4.56,0-.15-0.01-0.29-0.02-0.43-0.08-1.64-.16-3.27-0.25-4.89-0.03-.45-0.06-0.89-0.08-1.34-0.08-1.26-.16-2.51-0.24-3.76-0.03-.4-0.05-0.81-0.08-1.22-0.11-1.58-.22-3.15-0.34-4.7-0.03-.29-0.05-0.57-0.07-0.86-0.11-1.3-.21-2.59-0.33-3.87-0.04-.45-0.08-0.9-0.12-1.34-0.11-1.33-.24-2.65-0.37-3.96l-0.06-.66c-0.15-1.51-.31-3-0.47-4.49-0.04-.4-0.09-0.79-0.13-1.19-0.13-1.15-.27-2.3-0.4-3.44-0.05-.4-0.1-0.79-0.14-1.18-0.18-1.46-.36-2.9-0.55-4.34l-0.09-.6q-0.24-1.875-.51-3.72l-0.18-1.23c-0.17-1.17-.34-2.33-0.52-3.48-0.04-.26-0.07-0.52-0.12-0.78q-0.315-2.07-.66-4.11c-0.05-.35-0.11-0.69-0.17-1.04-0.18-1.06-.36-2.12-0.55-3.16-0.07-.38-0.13-0.76-0.2-1.13-0.24-1.33-.48-2.66-0.74-3.97l-0.06-.33c-0.23-1.21-.47-2.41-0.71-3.61-0.08-.38-0.15-0.75-0.23-1.12-0.21-1.04-.43-2.06-0.65-3.08l-0.18-.84c-0.27-1.26-.55-2.51-0.83-3.75-0.07-.3-0.14-0.59-0.21-0.89-0.22-.98-0.45-1.95-0.68-2.92-0.09-.35-0.17-0.7-0.26-1.05-0.29-1.2-.58-2.39-0.88-3.57a0.185,0.185,0,0,1-.02-0.07c-0.31-1.2-.62-2.39-0.94-3.57-0.09-.34-0.18-0.68-0.27-1.01-0.25-.92-0.5-1.84-0.75-2.74-0.08-.29-0.16-0.57-0.24-0.86-0.33-1.14-.65-2.27-0.99-3.4-0.07-.25-0.15-0.49-0.22-0.74-0.27-.9-0.54-1.8-0.82-2.7-0.1-.32-0.2-0.65-0.3-0.98-0.31-.99-0.63-1.98-0.95-2.97-0.03-.11-0.07-0.23-0.11-0.34-0.35-1.09-.71-2.16-1.07-3.22-0.1-.31-0.2-0.61-0.31-0.91-0.28-.82-0.56-1.64-0.85-2.45-0.1-.28-0.19-0.55-0.29-0.83-0.37-1.04-.74-2.06-1.12-3.08-0.07-.19-0.14-0.39-0.22-0.58-0.31-.84-0.63-1.68-0.95-2.51-0.11-.3-0.23-0.6-0.34-0.9-0.33-.85-0.66-1.69-1-2.52-0.06-.16-0.13-0.33-0.19-0.49-0.39-.97-0.79-1.94-1.19-2.9-0.11-.26-0.22-0.53-0.33-0.79-0.31-.74-0.63-1.47-0.94-2.19-0.11-.27-0.23-0.53-0.34-0.8-0.41-.93-0.82-1.86-1.23-2.77-0.07-.14-0.13-0.28-0.19-0.42-0.36-.79-0.72-1.57-1.09-2.35-0.12-.27-0.25-0.54-0.38-0.81-0.34-.73-0.69-1.45-1.04-2.17-0.08-.18-0.17-0.37-0.26-0.55-0.43-.87-0.86-1.74-1.29-2.59-0.11-.23-0.23-0.46-0.35-0.69-0.33-.66-0.67-1.32-1.01-1.97-0.13-.24-0.25-0.49-0.38-0.74-0.44-.83-0.88-1.66-1.33-2.48-0.04-.08-0.08-0.16-0.13-0.24-0.4-.75-0.81-1.49-1.23-2.23-0.13-.24-0.27-0.48-0.41-0.73-0.35-.63-0.71-1.25-1.07-1.87-0.11-.19-0.22-0.38-0.32-0.57-0.46-.77-0.91-1.54-1.37-2.3-0.11-.2-0.23-0.39-0.35-0.58q-0.54-.9-1.08-1.77c-0.14-.23-0.28-0.46-0.42-0.68-0.44-.71-0.89-1.42-1.33-2.11a0.913,0.913,0,0,1-.08-0.13c-10.14-17.47-27.33-37.71-56.43-55.29-38.02-24.16-96.86-43.3-187.96-43.3-2.12,0-4.23.01-6.316,0.03-2-.01-4.006-0.03-6.035-0.03-91.212,0-150.088,19.19-188.1,43.4-28.99,17.54-46.129,37.72-56.256,55.15-0.223.35-.444,0.7-0.666,1.05-0.211.33-.422,0.67-0.632,1-0.25.4-.5,0.8-0.747,1.21-0.212.34-.422,0.69-0.633,1.03-0.24.4-.481,0.79-0.72,1.19-0.389.65-.776,1.31-1.162,1.97-0.225.38-.449,0.77-0.673,1.16s-0.449.79-.672,1.18-0.451.8-.676,1.2c-0.247.44-.492,0.89-0.738,1.34q-0.457.84-.911,1.68c-0.276.51-.55,1.03-0.824,1.54-0.207.4-.412,0.79-0.618,1.19q-0.356.69-.71,1.38c-0.2.39-.393,0.77-0.588,1.16q-0.577,1.14-1.147,2.31-0.261.54-.52,1.08c-0.251.52-.5,1.04-0.752,1.57-0.187.4-.373,0.79-0.558,1.19-0.266.57-.53,1.15-0.794,1.72-0.167.37-.335,0.73-0.5,1.1-0.358.8-.714,1.6-1.068,2.41-0.167.38-.332,0.77-0.5,1.15-0.249.58-.5,1.16-0.744,1.75-0.16.37-.321,0.75-0.48,1.13-0.369.89-.737,1.78-1.1,2.69-0.124.3-.246,0.62-0.369,0.92q-0.4,1.02-.8,2.04c-0.151.39-.3,0.79-0.453,1.18-0.265.69-.528,1.39-0.79,2.09-0.118.31-.237,0.63-0.355,0.94q-0.533,1.44-1.054,2.91c-0.13.36-.258,0.73-0.387,1.1q-0.372,1.05-.74,2.13c-0.13.37-.26,0.75-0.389,1.13-0.343,1.02-.684,2.04-1.021,3.07-0.074.23-.148,0.47-0.222,0.7-0.278.86-.553,1.72-0.826,2.6-0.122.38-.242,0.77-0.363,1.17q-0.372,1.2-.738,2.43c-0.1.32-.193,0.64-0.288,0.96-0.322,1.09-.639,2.18-0.952,3.29-0.1.34-.193,0.69-0.289,1.03-0.235.84-.467,1.68-0.7,2.53-0.105.39-.209,0.77-0.313,1.16q-0.437,1.635-.864,3.3c-0.042.16-.085,0.33-0.128,0.5q-0.415,1.635-.819,3.3c-0.1.39-.188,0.78-0.282,1.17-0.22.91-.437,1.84-0.651,2.77-0.078.33-.157,0.67-0.234,1.01-0.278,1.21-.551,2.44-0.819,3.68-0.069.31-.135,0.63-0.2,0.95-0.209.98-.416,1.96-0.62,2.95q-0.123.6-.245,1.2-0.35,1.74-.687,3.48c-0.028.15-.058,0.3-0.086,0.45q-0.372,1.95-.727,3.93c-0.071.39-.141,0.79-0.211,1.18q-0.272,1.545-.535,3.09c-0.062.37-.124,0.73-0.185,1.1-0.224,1.35-.444,2.7-0.657,4.07-0.043.28-.085,0.57-0.128,0.85-0.174,1.13-.344,2.27-0.511,3.41-0.061.42-.122,0.84-0.182,1.27-0.173,1.21-.342,2.43-0.506,3.67l-0.088.64q-0.284,2.145-.547,4.32c-0.049.4-.1,0.8-0.144,1.2q-0.2,1.7-.4,3.42c-0.045.4-.09,0.8-0.135,1.21q-0.242,2.22-.468,4.47c-0.023.23-.044,0.46-0.066,0.69q-0.192,1.95-.37,3.93c-0.041.45-.08,0.9-0.12,1.35q-0.168,1.92-.322,3.87c-0.023.28-.048,0.57-0.07,0.86-0.121,1.55-.235,3.12-0.344,4.7-0.028.41-.054,0.82-0.081,1.22-0.082,1.25-.161,2.5-0.236,3.76-0.026.45-.053,0.89-0.079,1.34q-0.138,2.43-.257,4.89c-0.007.14-.013,0.28-0.02,0.43q-0.107,2.265-.2,4.56c-0.019.48-.036,0.96-0.054,1.44q-0.075,2.025-.135,4.08c-0.011.36-.023,0.72-0.033,1.08q-0.071,2.535-.119,5.1c-0.008.41-.014,0.82-0.021,1.23-0.024,1.37-.043,2.74-0.057,4.12-0.006.5-.011,0.99-0.015,1.49-0.015,1.76-.025,3.52-0.025,5.31q0,2.85.025,5.67c0,0.43.006,0.86,0.01,1.28,0,0.1,0,.2,0,0.3q-0.036,3.6-.039,7.26c0,91.79,19.439,150.84,43.874,188.82,10.522,18.1,28.6,39.16,59.657,57.15,29.55,17.99,71.126,32.9,129.6,38.68H1062.1c62.41-6.31,105.47-23.04,135.16-42.78,26.52-16.73,42.65-35.63,52.46-52.17,24.7-37.95,44.45-97.19,44.45-189.7,0-2.44-.02-4.86-0.04-7.26v-0.3Zm501.31-637.771q0-3.984-.07-7.952c-0.01-.887-0.04-1.769-0.06-2.655-0.04-1.756-.08-3.513-0.13-5.265-0.04-1.061-.09-2.118-0.13-3.177-0.06-1.571-.12-3.143-0.19-4.71-0.06-1.135-.13-2.264-0.19-3.4-0.09-1.486-.17-2.974-0.26-4.457-0.08-1.174-.17-2.343-0.26-3.515-0.1-1.435-.2-2.871-0.32-4.3-0.09-1.2-.21-2.392-0.31-3.588-0.13-1.4-.25-2.8-0.38-4.194-0.12-1.214-.26-2.424-0.38-3.636-0.15-1.371-.29-2.742-0.45-4.109-0.14-1.226-.29-2.447-0.44-3.67-0.16-1.347-.32-2.694-0.5-4.037-0.16-1.234-.33-2.464-0.5-3.695-0.19-1.325-.37-2.65-0.56-3.972q-0.285-1.86-.57-3.714c-0.2-1.3-.41-2.611-0.62-3.913-0.2-1.245-.42-2.487-0.63-3.729-0.22-1.286-.44-2.573-0.67-3.856-0.23-1.249-.46-2.5-0.7-3.741-0.24-1.268-.48-2.536-0.73-3.8s-0.5-2.5-.75-3.752-0.52-2.5-.78-3.746-0.55-2.51-.83-3.762c-0.27-1.232-.55-2.462-0.83-3.69-0.29-1.26-.59-2.517-0.89-3.773-0.29-1.213-.58-2.424-0.88-3.633-0.31-1.263-.63-2.524-0.95-3.783q-0.465-1.789-.93-3.574c-0.34-1.267-.67-2.533-1.02-3.8-0.32-1.172-.65-2.343-0.97-3.512-0.36-1.272-.72-2.542-1.09-3.81q-0.51-1.725-1.02-3.445c-0.38-1.278-.77-2.555-1.16-3.828-0.34-1.127-.7-2.251-1.05-3.375q-0.615-1.928-1.23-3.849c-0.36-1.1-.73-2.2-1.09-3.3-0.43-1.294-.87-2.587-1.31-3.876-0.37-1.073-.74-2.142-1.12-3.212-0.46-1.305-.92-2.609-1.39-3.909-0.37-1.041-.76-2.078-1.14-3.116q-0.72-1.98-1.47-3.954c-0.38-1-.77-2-1.16-3q-0.765-2.008-1.56-4.012c-0.38-.96-0.77-1.915-1.16-2.872-0.55-1.365-1.1-2.731-1.67-4.09-0.37-.906-0.76-1.806-1.14-2.71-0.59-1.4-1.19-2.8-1.79-4.2-0.36-.836-0.74-1.667-1.1-2.5-0.64-1.453-1.28-2.906-1.94-4.351-0.33-.739-0.68-1.473-1.02-2.21-0.7-1.53-1.4-3.061-2.12-4.583-0.28-.592-0.56-1.178-0.85-1.769-0.79-1.659-1.58-3.317-2.39-4.966-0.16-.329-0.33-0.655-0.49-0.984q-9.465-19.142-20.54-37.291l-0.18-.3q-1.665-2.72-3.37-5.413c-0.18-.287-0.35-0.576-0.53-0.862-1.07-1.692-2.16-3.373-3.25-5.051-0.25-.385-0.5-0.773-0.75-1.157q-1.575-2.418-3.2-4.811c-0.29-.443-0.59-0.888-0.89-1.33q-1.575-2.331-3.18-4.638c-0.33-.477-0.66-0.957-0.99-1.433q-1.59-2.265-3.2-4.508c-0.36-.5-0.71-1-1.07-1.494-1.06-1.475-2.14-2.941-3.22-4.4-0.38-.508-0.75-1.019-1.13-1.526q-1.62-2.171-3.27-4.319c-0.39-.513-0.78-1.028-1.17-1.539-1.1-1.423-2.2-2.838-3.32-4.249-0.4-.512-0.8-1.025-1.21-1.535-1.11-1.4-2.24-2.8-3.37-4.19l-1.23-1.52q-1.71-2.079-3.44-4.139c-0.42-.5-0.83-1-1.25-1.494q-1.74-2.058-3.51-4.1-0.63-.729-1.26-1.458-1.785-2.042-3.58-4.062c-0.42-.472-0.85-0.944-1.27-1.415-1.21-1.351-2.44-2.7-3.67-4.032-0.41-.455-0.83-0.91-1.25-1.363q-1.875-2.016-3.76-4.01c-0.41-.436-0.83-0.869-1.24-1.3q-1.92-2.009-3.86-4c-0.4-.412-0.81-0.822-1.21-1.233q-1.98-2-3.97-3.987-0.585-.579-1.17-1.154c-1.35-1.337-2.72-2.668-4.09-3.988-0.37-.356-0.74-0.708-1.11-1.063q-2.1-2.012-4.23-4c-0.34-.32-0.68-0.637-1.03-0.956q-2.175-2.025-4.38-4.025c-0.31-.278-0.62-0.554-0.93-0.831q-2.265-2.048-4.57-4.069c-0.26-.228-0.52-0.453-0.78-0.681-1.58-1.388-3.18-2.768-4.78-4.136-0.2-.166-0.4-0.33-0.59-0.5-1.68-1.423-3.36-2.837-5.06-4.237-0.1-.087-0.21-0.173-0.31-0.259a481.049,481.049,0,0,0-53.47-38.255l-59.08-30.942L1251.71,279.133a476.976,476.976,0,0,0-246.77-68.381c-1.73,0-3.44.026-5.165,0.044-1.72-.018-3.438-0.044-5.163-0.044a476.956,476.956,0,0,0-246.766,68.381L491.376,418.712,432.29,449.654a480.791,480.791,0,0,0-53.464,38.255c-0.105.086-.212,0.172-0.317,0.259q-2.544,2.1-5.056,4.237c-0.2.165-.393,0.329-0.588,0.5q-2.408,2.052-4.787,4.136c-0.26.228-.522,0.453-0.781,0.681q-2.3,2.019-4.569,4.069c-0.308.277-.617,0.553-0.925,0.831q-2.207,2-4.385,4.025c-0.343.319-.688,0.636-1.031,0.956q-2.127,1.986-4.228,4c-0.37.355-.741,0.707-1.11,1.063q-2.058,1.98-4.09,3.988-0.585.576-1.17,1.154-2,1.981-3.967,3.987-0.608.617-1.212,1.233-1.941,1.986-3.858,4-0.621.651-1.24,1.3-1.89,1.993-3.757,4.01-0.631.679-1.259,1.363-1.843,2.005-3.665,4.032-0.635.707-1.266,1.415-1.8,2.022-3.582,4.062-0.635.727-1.265,1.458-1.762,2.04-3.5,4.1-0.63.745-1.255,1.494-1.728,2.061-3.435,4.139-0.621.759-1.237,1.52-1.695,2.087-3.37,4.19c-0.406.51-.807,1.023-1.211,1.535q-1.666,2.117-3.313,4.249c-0.394.511-.783,1.026-1.175,1.539q-1.643,2.151-3.265,4.319c-0.378.507-.751,1.018-1.128,1.526q-1.623,2.194-3.225,4.4c-0.358.5-.712,1-1.068,1.494q-1.609,2.247-3.2,4.508c-0.332.476-.66,0.956-0.991,1.433q-1.6,2.312-3.186,4.638c-0.3.442-.592,0.887-0.889,1.33q-1.609,2.4-3.2,4.811c-0.251.384-.5,0.772-0.748,1.157q-1.637,2.517-3.248,5.051c-0.181.286-.357,0.575-0.538,0.862q-1.7,2.7-3.365,5.413c-0.062.1-.121,0.2-0.183,0.3q-11.065,18.133-20.536,37.291c-0.162.329-.329,0.655-0.491,0.984-0.81,1.649-1.6,3.307-2.394,4.966-0.281.591-.569,1.177-0.848,1.769-0.719,1.522-1.42,3.053-2.123,4.583-0.338.737-.683,1.471-1.018,2.21-0.654,1.445-1.293,2.9-1.933,4.351-0.368.833-.741,1.664-1.1,2.5-0.606,1.394-1.2,2.795-1.789,4.2-0.381.9-.768,1.8-1.144,2.71-0.565,1.359-1.116,2.725-1.668,4.09-0.388.957-.778,1.912-1.16,2.872-0.529,1.333-1.046,2.673-1.564,4.012-0.387,1-.776,2-1.157,3-0.5,1.314-.984,2.634-1.471,3.954-0.383,1.038-.767,2.075-1.143,3.116-0.469,1.3-.928,2.6-1.386,3.909-0.375,1.07-.751,2.139-1.119,3.212-0.443,1.289-.875,2.582-1.307,3.876q-0.549,1.647-1.09,3.3-0.624,1.921-1.23,3.849-0.532,1.686-1.056,3.375-0.588,1.909-1.158,3.828-0.513,1.721-1.017,3.445-0.552,1.9-1.088,3.81-0.494,1.754-.974,3.512-0.518,1.895-1.02,3.8-0.471,1.784-.93,3.574-0.483,1.889-.952,3.783-0.448,1.813-.882,3.633-0.45,1.884-.887,3.773-0.424,1.842-.833,3.69-0.417,1.878-.822,3.762t-0.781,3.746q-0.384,1.874-.758,3.752c-0.249,1.265-.489,2.533-0.728,3.8-0.235,1.246-.469,2.492-0.694,3.741q-0.347,1.924-.673,3.856c-0.214,1.242-.427,2.484-0.631,3.729-0.213,1.3-.415,2.608-0.618,3.913-0.192,1.237-.385,2.474-0.567,3.714-0.195,1.322-.377,2.647-0.561,3.972-0.17,1.231-.343,2.461-0.5,3.695-0.176,1.343-.338,2.69-0.5,4.037-0.149,1.223-.3,2.444-0.442,3.67-0.156,1.367-.3,2.738-0.442,4.109-0.128,1.212-.261,2.422-0.379,3.636-0.137,1.4-.258,2.8-0.382,4.194-0.107,1.2-.219,2.39-0.316,3.588-0.117,1.432-.217,2.868-0.321,4.3-0.085,1.172-.177,2.341-0.253,3.515-0.1,1.483-.175,2.971-0.258,4.457-0.063,1.133-.135,2.262-0.19,3.4-0.077,1.567-.133,3.139-0.195,4.71-0.041,1.059-.092,2.116-0.127,3.177-0.057,1.752-.092,3.509-0.13,5.265-0.02.886-.05,1.768-0.064,2.655q-0.065,3.969-.066,7.952,0,10.479.457,20.847V1288.98q-0.444,10.38-.457,20.85,0,6.015.152,12c0.032,1.32.1,2.62,0.14,3.93,0.087,2.68.173,5.35,0.3,8.01,0.076,1.54.184,3.07,0.274,4.6,0.142,2.43.282,4.86,0.461,7.28,0.118,1.59.263,3.18,0.4,4.77,0.2,2.35.395,4.71,0.627,7.06,0.156,1.57.334,3.14,0.505,4.71,0.257,2.37.519,4.73,0.81,7.09,0.187,1.5.391,3.01,0.592,4.51,0.324,2.43.658,4.86,1.019,7.27,0.207,1.4.427,2.79,0.647,4.17q0.6,3.84,1.267,7.65,0.321,1.83.657,3.66,0.754,4.125,1.578,8.23,0.3,1.47.6,2.94,0.949,4.575,1.987,9.12c0.147,0.64.291,1.29,0.441,1.93q1.222,5.265,2.561,10.48c0.037,0.14.073,0.29,0.111,0.44,42.046,163.36,168.016,293,329.21,340.25-26.251-62.07-44.4-146.57-44.4-261.65q0-6.165.066-12.22c0-.17,0-0.33-0.007-0.5q-0.01-1.08-.018-2.16c-0.024-3.17-.041-6.35-0.041-9.56,0-3,.017-5.97.041-8.93,0.007-.84.017-1.67,0.025-2.5q0.038-3.5.1-6.95c0.012-.69.022-1.38,0.035-2.06,0.056-2.88.122-5.75,0.2-8.59,0.017-.61.038-1.22,0.056-1.83q0.1-3.45.227-6.86,0.043-1.215.091-2.43,0.15-3.87.329-7.68c0.011-.24.021-0.49,0.032-0.73q0.2-4.14.434-8.22c0.043-.76.088-1.51,0.133-2.26q0.189-3.18.4-6.33c0.045-.68.089-1.37,0.136-2.05,0.182-2.66.374-5.31,0.578-7.93,0.038-.48.079-0.96,0.118-1.45q0.261-3.27.543-6.51c0.066-.75.133-1.51,0.2-2.27q0.3-3.33.624-6.63c0.037-.38.072-0.76,0.11-1.15q0.38-3.8.79-7.53c0.074-.68.151-1.36,0.227-2.04q0.324-2.9.666-5.75c0.081-.68.16-1.36,0.242-2.03q0.448-3.66.922-7.27c0.048-.36.1-0.72,0.148-1.09q0.415-3.105.852-6.17,0.152-1.065.307-2.13,0.42-2.9.86-5.76c0.072-.47.142-0.94,0.216-1.41,0.359-2.31.728-4.59,1.105-6.86,0.1-.62.208-1.23,0.312-1.85q0.444-2.61.9-5.21c0.118-.66.235-1.33,0.355-1.99q0.6-3.33,1.224-6.62c0.048-.25.1-0.49,0.146-0.74q0.567-2.955,1.156-5.86c0.137-.68.275-1.35,0.413-2.03,0.343-1.67.691-3.32,1.044-4.97,0.114-.54.226-1.07,0.341-1.6,0.452-2.09.912-4.15,1.379-6.2,0.13-.57.263-1.14,0.394-1.7,0.361-1.57.727-3.12,1.1-4.66,0.158-.66.316-1.32,0.475-1.97q0.681-2.8,1.38-5.55c0.071-.29.143-0.57,0.215-0.85q0.717-2.805,1.454-5.55c0.175-.66.351-1.31,0.527-1.96q0.58-2.13,1.173-4.26c0.163-.58.324-1.16,0.487-1.74q0.792-2.79,1.6-5.53c0.161-.55.324-1.08,0.485-1.62,0.411-1.38.826-2.74,1.244-4.1,0.2-.66.406-1.31,0.61-1.97,0.46-1.47.923-2.92,1.391-4.37,0.126-.39.249-0.79,0.375-1.17q0.849-2.61,1.719-5.17,0.325-.96.655-1.92c0.412-1.2.827-2.39,1.245-3.58,0.217-.62.433-1.24,0.652-1.85,0.587-1.64,1.178-3.28,1.775-4.89,0.2-.54.4-1.07,0.6-1.6q0.662-1.77,1.329-3.51,0.381-.99.764-1.98c0.449-1.15.9-2.3,1.354-3.44,0.207-.52.412-1.04,0.621-1.56q0.918-2.28,1.852-4.51c0.268-.65.538-1.28,0.808-1.92q0.624-1.485,1.254-2.94c0.279-.65.557-1.3,0.837-1.94q0.9-2.04,1.8-4.05c0.28-.63.562-1.24,0.843-1.85q0.666-1.47,1.337-2.91c0.312-.67.625-1.33,0.939-2,0.421-.89.844-1.77,1.267-2.65,0.292-.6.582-1.21,0.875-1.81,0.64-1.31,1.284-2.61,1.932-3.89q0.494-.99.991-1.95c0.4-.78.8-1.56,1.2-2.33,0.346-.67.692-1.33,1.041-1.99,0.46-.88.923-1.74,1.386-2.61q0.765-1.425,1.535-2.82c0.413-.76.827-1.51,1.243-2.26,0.378-.68.757-1.35,1.137-2.02s0.754-1.32,1.133-1.98,0.754-1.32,1.133-1.97c0.649-1.11,1.3-2.21,1.957-3.31,0.4-.67.807-1.33,1.212-2q0.531-.87,1.065-1.74c0.418-.68.837-1.36,1.258-2.03,0.354-.57.71-1.12,1.065-1.69,0.374-.58.746-1.18,1.121-1.77,17.052-29.35,45.912-63.33,94.728-92.87C736.646,1032.3,835.786,1000,989.376,1000q5.123,0,10.161.044c3.523-.03,7.063-0.044,10.643-0.044,153.39,0,252.48,32.224,316.49,72.914,49.01,29.6,77.94,63.68,95.02,93.1,0.04,0.07.09,0.14,0.13,0.21,0.75,1.17,1.5,2.36,2.25,3.55,0.23,0.38.47,0.76,0.71,1.15,0.61,0.98,1.21,1.97,1.82,2.97,0.19,0.33.39,0.65,0.59,0.98q1.155,1.92,2.29,3.88c0.19,0.32.37,0.64,0.55,0.96,0.61,1.04,1.21,2.09,1.81,3.15l0.69,1.23c0.69,1.24,1.38,2.49,2.07,3.76,0.07,0.13.14,0.26,0.22,0.39,0.74,1.38,1.49,2.78,2.23,4.18,0.21,0.42.43,0.84,0.65,1.25,0.57,1.1,1.13,2.2,1.7,3.31,0.2,0.39.39,0.77,0.59,1.16,0.72,1.44,1.45,2.9,2.16,4.37,0.15,0.3.3,0.61,0.45,0.92,0.58,1.21,1.17,2.43,1.74,3.65,0.22,0.46.43,0.92,0.65,1.38,0.61,1.31,1.22,2.62,1.82,3.95,0.11,0.24.22,0.47,0.32,0.71q1.05,2.31,2.07,4.66c0.2,0.45.39,0.9,0.58,1.34,0.53,1.22,1.06,2.45,1.58,3.69,0.19,0.45.37,0.89,0.56,1.34q1,2.415,2,4.88c0.11,0.27.22,0.55,0.33,0.82,0.56,1.4,1.12,2.82,1.67,4.25,0.2,0.5.39,1.01,0.59,1.51,0.53,1.4,1.07,2.81,1.59,4.23,0.13,0.33.25,0.65,0.37,0.98,0.64,1.71,1.26,3.44,1.88,5.18,0.17,0.47.33,0.94,0.5,1.4,0.48,1.37.96,2.74,1.43,4.13,0.17,0.5.35,1.01,0.52,1.52q0.915,2.685,1.8,5.42c0.07,0.2.13,0.39,0.19,0.59q0.81,2.475,1.59,5l0.51,1.65c0.47,1.51.93,3.02,1.38,4.55,0.13,0.41.25,0.82,0.38,1.24q0.84,2.835,1.65,5.73c0.14,0.47.27,0.95,0.4,1.43,0.43,1.53.86,3.07,1.28,4.62,0.15,0.57.3,1.13,0.46,1.71q0.8,2.97,1.57,6c0.01,0.04.02,0.09,0.03,0.13,0.51,1.98,1,3.98,1.49,6,0.15,0.59.29,1.19,0.43,1.78,0.39,1.63.78,3.26,1.16,4.91,0.11,0.5.23,1,.35,1.5q0.705,3.135,1.4,6.31l0.3,1.41q0.555,2.58,1.09,5.19c0.13,0.63.26,1.26,0.38,1.89q0.615,3.015,1.2,6.08c0.04,0.18.08,0.37,0.11,0.55q0.63,3.315,1.24,6.69c0.11,0.63.22,1.26,0.34,1.89q0.465,2.655.92,5.34c0.1,0.58.2,1.16,0.29,1.75,0.38,2.28.76,4.59,1.12,6.91,0.07,0.44.13,0.88,0.2,1.33q0.45,2.895.88,5.85c0.1,0.69.2,1.38,0.29,2.07,0.3,2.08.59,4.16,0.87,6.26,0.04,0.34.09,0.68,0.14,1.02,0.32,2.41.62,4.85,0.92,7.3l0.24,1.98c0.23,1.92.45,3.86,0.67,5.8,0.07,0.67.15,1.34,0.22,2.01,0.28,2.5.54,5.01,0.8,7.55,0.03,0.37.07,0.75,0.1,1.12,0.22,2.2.43,4.43,0.63,6.66,0.07,0.75.13,1.5,0.2,2.26q0.285,3.24.54,6.52l0.12,1.44c0.2,2.62.4,5.27,0.58,7.93,0.05,0.68.09,1.36,0.14,2.04,0.13,2.1.27,4.22,0.39,6.34,0.05,0.75.09,1.5,0.14,2.25,0.15,2.73.3,5.47,0.43,8.23l0.03,0.72q0.18,3.825.33,7.69l0.09,2.43c0.09,2.27.16,4.56,0.23,6.87,0.02,0.6.04,1.21,0.05,1.82,0.08,2.84.15,5.71,0.21,8.59,0.01,0.68.02,1.37,0.03,2.06q0.06,3.45.1,6.95c0.01,0.83.02,1.66,0.02,2.5,0.03,2.96.04,5.93,0.04,8.93,0,3.21-.01,6.39-0.04,9.56,0,0.72-.01,1.44-0.02,2.16v0.5q0.06,6.06.06,12.22c0,115.08-18.15,199.59-44.4,261.65,161.2-47.24,287.17-176.89,329.22-340.25,0.03-.15.07-0.3,0.11-0.44q1.335-5.22,2.56-10.48c0.15-.64.29-1.29,0.44-1.93q1.035-4.545,1.99-9.12l0.6-2.94c0.55-2.74,1.07-5.48,1.58-8.23,0.22-1.22.44-2.44,0.65-3.66q0.675-3.81,1.27-7.65c0.22-1.38.44-2.77,0.65-4.17,0.36-2.41.69-4.84,1.02-7.27,0.2-1.5.4-3.01,0.59-4.51,0.29-2.36.55-4.72,0.81-7.09,0.17-1.57.35-3.14,0.5-4.71,0.23-2.35.43-4.71,0.63-7.06,0.13-1.59.28-3.18,0.4-4.77,0.18-2.42.32-4.85,0.46-7.28,0.09-1.53.2-3.06,0.27-4.6,0.13-2.66.22-5.33,0.31-8.01,0.04-1.31.1-2.61,0.14-3.93,0.09-3.99.15-7.99,0.15-12q0-10.47-.46-20.85V878.836Q1795.43,868.467,1795.44,857.989Z"/>
</svg>
