<svg xmlns="http://www.w3.org/2000/svg" width="2000" height="2000" viewBox="0 0 2000 2000">
  <defs>
    <style>
      .cls-1 {
        fill: #fff;
        fill-rule: evenodd;
      }
    </style>
  </defs>
  <path id="Rounded_Rectangle_1" data-name="Rounded Rectangle 1" class="cls-1" d="M1968.12,1968.1c-37.54,37.54-103.53,40.58-142.35,1.76L1541.6,1685.69c-38.82-38.82-35.78-104.81,1.76-142.35s103.53-40.59,142.35-1.76l284.17,284.17C2008.71,1864.57,2005.66,1930.56,1968.12,1968.1ZM886.443,1768.89C399.636,1768.89,5,1374.25,5,887.443S399.636,6,886.443,6,1767.89,400.636,1767.89,887.443,1373.25,1768.89,886.443,1768.89Zm0-1533.688C526.221,235.2,234.2,527.221,234.2,887.443S526.221,1539.68,886.443,1539.68s652.237-292.01,652.237-652.237S1246.67,235.2,886.443,235.2Z"/>
</svg>
