<svg xmlns="http://www.w3.org/2000/svg" width="2000" height="2000" viewBox="0 0 2000 2000">
  <defs>
    <style>
      .cls-1 {
        fill: #fff;
        fill-rule: evenodd;
      }
    </style>
  </defs>
  <path id="Shape_316_2" data-name="Shape 316 2" class="cls-1" d="M1000,1996C449.924,1996,4,1550.08,4,1000S449.924,4,1000,4s996,445.924,996,996S1550.08,1996,1000,1996Zm0-1832.009c-461.707,0-835.994,374.294-835.994,836.009S538.293,1836.01,1000,1836.01s835.99-374.3,835.99-836.01S1461.71,163.991,1000,163.991ZM1000.5,1811C552.321,1811,189,1447.68,189,999.5S552.321,188,1000.5,188,1812,551.321,1812,999.5,1448.68,1811,1000.5,1811ZM1572.37,533.358c-10.35-72.067-55.56-123.247-138.83-121.717l-31.32,4.27-110.35,26.337q-176.88,42.7-353.815,85.416c-106.836,26.125-196.544,38.015-257,111.04-51.911,62.705-65.973,133.933-92.548,222.793L515.181,1119.88q-31.322,110.31-62.648,220.66c-10.172,33.97-30.567,74.01-24.205,119.58,5.945,42.59,19.661,73.85,46.274,95.38,20.887,16.9,44.6,25.93,78.31,30.61,37.567,5.2,70.312-10.51,98.244-18.51q93.606-25.26,187.232-50.54,127.774-34.515,255.572-69.04c78.21-22.61,140.7-33.35,195.78-78.3,74.92-61.14,94.65-162,126.72-266.92q35.235-117.795,70.48-235.609,31.32-107.471,62.65-214.963C1559.91,618.51,1579.17,580.725,1572.37,533.358ZM1150.56,1028.2l-41.93-2.88c-6.12-1-41.27-1.34-44.81-1.23q9.03,26.7,18.08,53.41c11.42,32.67,21.91,67.03,30.43,102.32,7.66,31.76,8.15,57.23-22.62,64.92-27.36,6.85-42.02-15.66-50.15-31.64-15.76-30.98-22.33-68.92-34.12-104.37q-14.184-43.14-28.367-86.29-24.87.21-49.744,0.41c-38.113.01-79.335,0.09-113.464,3.7-31.619,3.35-46.342.44-51.388-17.26-4.588-16.084,2.147-35.029,11.1-41.908,13.585-10.436,36.033-9.143,57.143-12.327H855.8L906.363,953l43.166-1.233,0.411-.822-15.211-38.214c-13.708-33.191-26.5-65.672-38.643-99.849-4.529-12.745-14.421-41.639-1.234-51.774,3.132-2.407,6.993-2.429,11.1-4.109,45.384-.233,61.354,30.593,76.054,61.225,13.971,29.113,26.464,60.215,39.054,90.809,4.26,10.358,12.79,34.219,16.44,41.5,12.94,0.06,39.3.412,53.86,0.411L1155.9,953l17.27,0.411c18.67,3.061,35.38,2.295,49.33,9.45,10.07,5.165,21.71,18.048,17.68,35.749C1231.05,1038.64,1191.49,1037.17,1150.56,1028.2Z"/>
</svg>
