<svg xmlns="http://www.w3.org/2000/svg" width="2000" height="2000" viewBox="0 0 2000 2000">
  <defs>
    <style>
      .cls-1 {
        fill: #fff;
        fill-rule: evenodd;
      }
    </style>
  </defs>
  <path class="cls-1" d="M1989,1957H16V1763.36H123.022a169.3,169.3,0,0,1-1.154-19.69V553.414c0-90.628,71.817-190.4,160.407-222.858L941.011,89.249C1029.6,56.8,1101.42,103.958,1101.42,194.587V488.176l644.83,236.216c88.59,32.452,160.41,132.229,160.41,222.858v796.42a168.2,168.2,0,0,1-1.16,19.69H1989V1957ZM829.444,321.1L408.327,466.8c-59.838,20.7-108.939,105.225-108.939,188.529V1763.36H926.037V428.045C926.037,350.523,883.064,302.547,829.444,321.1Zm899.7,728.071c0-83.306-49.1-167.826-108.94-188.53L1199.08,714.934c-53.62-18.552-96.59,29.424-96.59,106.947V1763.36h626.65V1049.17Z"/>
</svg>
