<svg xmlns="http://www.w3.org/2000/svg" width="2000" height="2000" viewBox="0 0 2000 2000">
  <defs>
    <style>
      .cls-1 {
        fill: #fff;
        fill-rule: evenodd;
      }
    </style>
  </defs>
  <path id="Shape_368_1" data-name="Shape 368 1" class="cls-1" d="M222.329,1911.33q4.992-79.395,9.987-158.8,1.5-92.385,3-184.78c0.014-135.32-2.945-269.61-34.955-376.53-26.616-88.91-59.884-170.86-102.868-244.7-22.119-38-56.992-99.083-40.947-161.8,11.666-45.6,41.663-82.467,65.915-116.857,46.141-65.427,98.483-122.314,147.81-183.774,29.871-37.218,69.243-67.639,93.88-109.865C364.147,163.044,338.856-23.337,483,17c43.974,12.079,70.16,19.152,111.914,31.638C813,113.851,970.875,157.776,1145.14,264.354c63.99,39.134,123.35,80.253,166.79,139.828q9.99,14.481,19.97,28.965-2.49,128.33-4.99,256.684V922.546q1,60.418,2,120.854v38.95q3.495,69.4,6.99,138.83,2.49,39.45,4.99,78.9c14.27,85,20.81,158.33,57.93,217.73,52.55,84.11,154.05,108.43,252.67,146.82,65.16,25.37,132.79,49.31,192.75,79.91,28.23,14.39,132.78,64.91,96.88,112.86-12.64,16.87,11.22,58.13-751.12,129.6-69.86,6.79-170.87,10.37-231.617-7.75-64.577-19.27-111.076-55.9-145.813-104.87-48.5-68.38-70.934-160.26-105.864-242.71C654.5,1508.44,595.59,1389.96,527.936,1282.1c-32.176-51.29-92.885-156.02-159.8-166.79-61.538-9.91-59.541,110.14-67.912,162.8q-1,102.36-2,204.75-0.5,91.38-1,182.77,1,122.835,2,245.7h-76.9Z"/>
</svg>
