<svg xmlns="http://www.w3.org/2000/svg" width="2000" height="2000" viewBox="0 0 2000 2000">
  <defs>
    <style>
      .cls-1 {
        fill: #fff;
        fill-rule: evenodd;
      }
    </style>
  </defs>
  <path id="Shape_316_1" data-name="Shape 316 1" class="cls-1" d="M1476.36,1974.25H525.134c-276.461,0-500.578-224.11-500.578-500.58V522.453c0-276.462,224.117-500.579,500.578-500.579H1476.36c276.46,0,500.57,224.117,500.57,500.579V1473.67C1976.93,1750.14,1752.82,1974.25,1476.36,1974.25ZM1204.33,456.9h392.11a94.834,94.834,0,0,1,94.83,94.834v31.3a94.833,94.833,0,0,1-94.83,94.833H1204.33a94.833,94.833,0,0,1-94.83-94.833v-31.3A94.834,94.834,0,0,1,1204.33,456.9Zm-0.32,431.436h392.14a94.828,94.828,0,0,1,94.83,94.834v31.263a94.821,94.821,0,0,1-94.83,94.83H1204.01a94.828,94.828,0,0,1-94.83-94.83V983.167A94.834,94.834,0,0,1,1204.01,888.333ZM416.994,1327.58H1588.28a94.834,94.834,0,0,1,94.83,94.83v31.3a94.828,94.828,0,0,1-94.83,94.83H416.994a94.827,94.827,0,0,1-94.833-94.83v-31.3A94.833,94.833,0,0,1,416.994,1327.58ZM554.577,456.889c63.537-.326,85.894,42.828,106.473,85.71,19.559,40.758,37.045,84.3,54.675,127.128,5.969,14.5,17.9,47.9,23.022,58.1,18.107,0.084,55.006.576,75.394,0.576l90.358,2.876,24.172,0.575c26.146,4.286,49.538,3.214,69.064,13.231,14.1,7.23,30.4,25.265,24.745,50.045-12.77,56.038-68.163,53.974-125.463,41.417l-58.7-4.026c-8.564-1.4-57.773-1.881-62.733-1.726q12.661,37.386,25.324,74.781c15.977,45.731,30.673,93.837,42.589,143.236,10.725,44.46,11.414,80.11-31.654,90.89-38.309,9.58-58.833-21.93-70.215-44.3-22.066-43.37-31.254-96.483-47.769-146.108l-39.711-120.8-69.639.575c-53.358,0-111.066.115-158.846,5.177-44.266,4.691-64.878.607-71.941-24.16-6.423-22.522,3-49.044,15.539-58.674,19.018-14.61,50.444-12.8,80-17.257h35.108l70.79-2.876,60.43-1.726,0.576-1.15q-10.647-26.746-21.295-53.5c-19.191-46.466-37.1-91.937-54.1-139.783-6.34-17.842-20.188-58.292-1.727-72.48C543.422,459.272,548.828,459.241,554.577,456.889Z"/>
</svg>
