<svg xmlns="http://www.w3.org/2000/svg" width="2000" height="2000" viewBox="0 0 2000 2000">
  <defs>
    <style>
      .cls-1 {
        fill: #ff7000;
      }

      .cls-2 {
        fill: #fff;
        fill-rule: evenodd;
      }
    </style>
  </defs>
  <circle class="cls-1" cx="662.844" cy="676.125" r="606.376"/>
  <path id="_" data-name="ðŸ€" class="cls-2" d="M1895.6,918.863c4.46-5.466,8.89-10.91,12.99-16.4,74.79-100.419,132.01-296.1-222.85-296.1-99.36,0-227.68,22.072-361.04,58.817-2.16-211.642-104.64-398.794-261.94-517.375-4.61-3.91-9.04-7.925-14.13-11.267l2,2.165c-107.8-77.442-239.6-123.563-382.525-123.563a659.926,659.926,0,0,0-467.513,195.75C87.2,325.853,16.362,482.4,12.053,655.571l-0.063.841c-0.063,5.192-.757,10.322-0.757,15.64,0,224.528,112.863,422.568,284.712,541.068a653.54,653.54,0,0,0,497.993,103.49c86.461,106.72,136.26,204.57,162.767,289.31-52.49,59.97-115.953,122.03-193.08,183.41-16.018,12.85-17.952,35.34-4.162,50.28,13.79,15.01,37.965,16.82,54.067,3.91a1604.367,1604.367,0,0,0,163.818-149.71c22.682,144.33-19.7,234.6-22.955,241.22-7.378,14.65-3.279,32.12,10.091,42.5a40.079,40.079,0,0,0,24.636,8.35,40.62,40.62,0,0,0,22.14-6.5c109.12-71.57,200.85-141.74,278.4-209.62,21.02,104.83,5.68,170.44,5.28,171.91-3.77,14.25,2.16,29.14,15.01,37.65a40.319,40.319,0,0,0,22.22,6.56,40.96,40.96,0,0,0,21.04-5.78q140.82-85.32,250.38-172.8c6.2,78.54-7.69,127.48-9.35,132.99-5.93,18.89,5.78,38.63,26.11,44.18a41.3,41.3,0,0,0,10.74,1.41c16.54,0,31.89-10.09,36.74-25.65,2.27-7.19,25.99-87.76,5.2-211.7,28.21-25.12,54.92-50.3,79.33-75.64a33.846,33.846,0,0,0,9.71,21.95c14.55,14.34,38.79,15.03,54.24,1.6,1.74-1.54,98.27-89.24,98.88-244.79q46.065-89.94,60.48-180.98C2003.92,1092.01,1929.78,965.929,1895.6,918.863ZM1685.74,707.157c156.57,0,133.09,51.376,87.18,105.38-99.24,116.731-370.84,245.133-616.62,298.043a653.672,653.672,0,0,0,159.76-334.83C1450.89,734.17,1585.03,707.157,1685.74,707.157Zm-67.5,417.483c-8.76,63.19-34.49,157.62-104.03,272.48-40.53-54.36-90.54-110.72-151.96-168.19C1450.73,1200.78,1538.3,1165.42,1618.24,1124.64Zm-456.79,155.41c-6.33,15.87-13.85,33.19-22.53,51.54-12.17-13.7-24.83-27.45-38.3-41.35C1120.57,1287.34,1140.94,1283.94,1161.45,1280.05Zm-161.8-118.77c-36.051-14.19-69.854-32.96-101.617-54.78,5.718-3.81,11.814-7.06,17.6-10.91,24.258-16.38,46.877-35.17,68.256-55.25a156.481,156.481,0,0,0,20.764,12.13c34.16,15.64,70.32,17.45,104.75,11.67C1076.88,1100.72,1040.29,1133.64,999.652,1161.28ZM1259.33,672.052c0,145.278-52.87,278.3-140.17,381.348-37.23,2.63-73.91-1.85-103.64-21.17a147.729,147.729,0,0,1-13.24-9.42,570.206,570.206,0,0,0,64.03-78.112c79.67-119.611,111.71-264.427,106.87-404.092-2.27-70.106-13.62-139.77-34.91-206.3-4.38-13.118-9.42-25.962-14.61-38.722A588.791,588.791,0,0,1,1259.33,672.052ZM668.105,80.83c166.572,0,316.979,69.5,424.545,180.678,9.82,25.793,17.28,52.553,23.59,78.977,15.26,65.712,21.21,133.38,20.28,200.416-2.69,133.675-35.4,268.253-109.39,377.563a502.706,502.706,0,0,1-56.466,70.652c-17.637-24.51-30.481-53.52-40.845-82.739-17.069-50.493-29.093-103.593-39.414-157.3L858.557,586.853C834.972,478.846,806.7,368.4,749.268,269.621c-28.463-49.126-65.019-94.364-109.626-129.68a399.04,399.04,0,0,0-82.193-48.37A592.723,592.723,0,0,1,668.105,80.83ZM541.452,94.851C619.041,139.584,678.531,208.639,716.958,287.2c47.55,96.109,73.07,202.456,95.521,309.433,23.943,106.788,40.024,217.149,83.16,322.991,13.1,31.217,30.249,63.506,53.94,90.121a573.215,573.215,0,0,1-89.739,68.78c-30.019-22.41-59.3-45.85-87.239-70.78C693.54,936.163,620.513,857.67,552.467,775.182a2787.921,2787.921,0,0,1-191.1-257.867c-29.093-44.923-57.136-90.581-82.151-137.984-18.31-33.676-34.769-68.361-47.656-104.581C312.552,185.831,419.865,121.527,541.452,94.851ZM76.924,672.052c0-149.65,56.337-286.057,148.3-390.3C232.9,318.264,245.326,354,258.3,388.98a1244.122,1244.122,0,0,0,71.64,147.359c53.6,95.247,116.9,184.587,186.227,268.925,70.106,83.643,146.392,162.725,232.727,230.626a958.646,958.646,0,0,0,82.97,58.79A647.237,647.237,0,0,1,712,1145.72l-2.06.55c-26.381-17.3-54.592-31.3-82.887-43.47-81.121-34.73-163.755-59.39-240.357-95.42-77.063-34.661-148.01-80.487-207-140.4-38.363-38.847-70.673-83.707-99.262-131.635A594.748,594.748,0,0,1,76.924,672.052Zm13.895,126.3c17.406,32.814,37.439,64.43,61.719,93.25,57.283,69.433,133.884,121.422,214.416,158.562,81.037,37.1,165.879,60.19,246.811,86.92,18.583,6.44,37,13.14,54.97,20.73-91.61,23.29-187.446,32.18-283.807,33C237.148,1109.82,127.8,967.464,90.819,798.348ZM668.105,1263.27c-92.7,0-180.173-22.07-258.393-60.31,102.1,9.04,206.176,5.01,307.54-20.81,3.721,2.23,7.61,4.23,11.289,6.63a200.535,200.535,0,0,1,61.655,61.65A588.488,588.488,0,0,1,668.105,1263.27Zm78.22-89.44a628.856,628.856,0,0,0,128.692-53.77c3.8,2.08,7.5,4.31,11.288,6.28,33.466,16.55,68.53,31.24,104.644,40.36a587.9,587.9,0,0,1-192.639,81.67A198.965,198.965,0,0,0,746.325,1173.83Zm130.058,126.06c22.43,1.48,46.541,2.23,72.46,2.23,18.163,0,37-.65,56.3-1.87a1288.538,1288.538,0,0,1,96.53,103.05,1192.341,1192.341,0,0,1-88.59,133.82C984.79,1464.28,941.423,1384.63,876.383,1299.89Zm177.677,561.78c9.41-58.91,11.49-140.53-13.35-238.64a1288.138,1288.138,0,0,0,111.26-154.92c57.87,80.78,94.07,155.81,116.1,221.18C1207.47,1745.06,1136.92,1802.66,1054.06,1861.67Zm275.25-231.51c-28.07-70.97-71.18-150.18-136.68-234.35,27.14-52.72,45.68-98.94,57.87-135.27q14.34-3.525,28.73-7.36c82.2,72.97,144.44,143.83,191,210.68C1432.98,1516.18,1386.67,1571.89,1329.31,1630.16Zm49.02,248.22c0.67-42.61-3.91-100.42-22.6-169.12,63.7-61.19,115.89-120.11,158.42-175.99,39.85,69.98,63.17,134.2,76.14,189.95Q1497.71,1801.205,1378.33,1878.38Zm275.48-212.09c-18.12-60.56-47.23-127.97-92.22-200.03,93.74-142.21,125.44-260.14,134.69-338.22,102.1,122.2,138.42,224.15,143.44,304.39Q1776.855,1549.82,1653.81,1666.29Zm245.66-404.17c-2.44,15.18-5.91,30.35-9.88,45.49-25.92-74.16-74.25-157.68-155.73-249.65,40.4-26.49,77.02-54.49,108.81-83.686C1873.15,1021.64,1922,1122.83,1899.47,1262.12Z"/>
</svg>
