<svg xmlns="http://www.w3.org/2000/svg" width="1000" height="1000" viewBox="0 0 2000 2000">
  <defs>
    <style>
      .cls-1 {
        fill: #fff;
      }

      .cls-1, .cls-2, .cls-3 {
        fill-rule: evenodd;
      }

      .cls-2 {
        fill: #fbe400;
      }
    </style>
  </defs>
  <path id="O" class="cls-1" d="M1677.21,349.107Q1404.075,63.393,999.987,63.393q-402.758,0-675.832,285.714Q59.308,624.608,59.321,1003.83q0,383.1,262.061,655.99,271.7,283.17,678.605,283.15,405.484,0,678.6-284.44,262.035-274.17,262.06-654.7,0-380.546-263.44-654.723h0ZM1441.41,1440.57q-176.535,199.8-444.006,199.8-263.38,0-438.463-199.8-165.485-186.99-165.47-436.74,0-251.022,165.47-438.04,175.069-199.8,438.463-199.8,266.109,0,442.626,197.23,168.21,185.735,168.21,436.744,0,253.609-166.83,440.6h0Z"/>
  <path id="Rounded_Rectangle_1" data-name="Rounded Rectangle 1" class="cls-2" d="M586.124,1328.66h826.8a150,150,0,0,1,150,150v326.7a150,150,0,0,1-150,150h-826.8a150,150,0,0,1-150-150v-326.7A150,150,0,0,1,586.124,1328.66Z"/>
  <path id="Shape_358_1" data-name="Shape 358 1" class="cls-3" d="M599.337,1488.97c88.536-.9,187.472-10.34,225.541,39.73a124.452,124.452,0,0,1,19.866,40.91c5.9,21.46,3.445,50.26-2.337,68.95-20.962,67.76-74.569,77.89-164.773,77.13v79.47l-78.3,1.17V1488.97Zm286.308,0c83.31-1.03,168.125-8.29,215.025,28.05,58.03,44.96,36.73,153.06-19.87,182.31q19.29,32.13,38.57,64.28c6.26,10.03,16.7,20.2,19.86,32.72h-82.97l-50.25-81.81H963.942v81.81h-78.3V1488.97Zm292.155,0h216.19v67.78H1254.92v50.26h121.54q0.585,32.715,1.17,65.44H1254.92v54.93h143.74v68.95H1177.8V1488.97Zm-500.166,68.95v88.82c49.4,1.12,107.713-.27,89.982-59.6C757.911,1554.66,720.553,1556.96,677.634,1557.92Zm286.308,0v88.82c48.608,1.09,104.518,2.59,91.148-56.1C1046.84,1554.42,1009.06,1556.92,963.942,1557.92Z"/>
</svg>
