<svg xmlns="http://www.w3.org/2000/svg" width="1000" height="1000" viewBox="0 0 2000 2000">
  <defs>
    <style>
      .cls-1 {
        fill: #fff;
        fill-rule: evenodd;
      }
    </style>
  </defs>
  <path id="O" class="cls-1" d="M1677.21,349.107Q1404.075,63.393,999.987,63.393q-402.758,0-675.832,285.714Q59.308,624.608,59.321,1003.83q0,383.1,262.061,655.99,271.7,283.17,678.605,283.15,405.484,0,678.6-284.44,262.035-274.17,262.06-654.7,0-380.546-263.44-654.723h0ZM1441.41,1440.57q-176.535,199.8-444.006,199.8-263.38,0-438.463-199.8-165.485-186.99-165.47-436.74,0-251.022,165.47-438.04,175.069-199.8,438.463-199.8,266.109,0,442.626,197.23,168.21,185.735,168.21,436.744,0,253.609-166.83,440.6h0Z"/>
</svg>
