<svg xmlns="http://www.w3.org/2000/svg" width="2000" height="2000" viewBox="0 0 2000 2000">
  <defs>
    <style>
      .cls-1 {
        fill: #fff;
        fill-rule: evenodd;
      }
    </style>
  </defs>
  <path id="Shape_316_1" data-name="Shape 316 1" class="cls-1" d="M828.744,181.413q-88.392,7.182-176.251,22.643a1586.721,1586.721,0,0,0-172.367,40.333,1111,1111,0,0,0-159.669,60.223,959.555,959.555,0,0,0-109.412,60.777,578.01,578.01,0,0,0-100,80.667A399.418,399.418,0,0,0,38.1,547.167q-28.17,55.815-28.17,122.11V1376.5q0,66.315,28.17,122.11a398.99,398.99,0,0,0,72.941,101.11,577.371,577.371,0,0,0,100,80.67,954.267,954.267,0,0,0,109.412,60.77,1105.826,1105.826,0,0,0,159.669,60.23,1583.673,1583.673,0,0,0,172.367,40.33q87.838,15.465,176.251,22.66,88.392,7.185,171.3,7.17,82.875,0,171.28-7.17,88.4-7.185,176.25-22.66a1585.118,1585.118,0,0,0,172.39-40.33,1106.594,1106.594,0,0,0,159.67-60.23,957.8,957.8,0,0,0,109.41-60.77,578,578,0,0,0,100-80.67,398.755,398.755,0,0,0,72.92-101.11q28.17-55.785,28.19-122.11V669.277q0-66.294-28.19-122.11a399.184,399.184,0,0,0-72.92-101.111,578.639,578.639,0,0,0-100-80.667,963.124,963.124,0,0,0-109.41-60.777,1111.772,1111.772,0,0,0-159.67-60.223,1588.17,1588.17,0,0,0-172.39-40.333q-87.84-15.472-176.25-22.643-88.395-7.18-171.28-7.191Q917.138,174.222,828.744,181.413ZM1155.29,321.748q81.225,6.1,161.89,19.889a1406.1,1406.1,0,0,1,158.03,36.471A1020.61,1020.61,0,0,1,1621.07,432.8q33.165,15.472,72.39,38.69a523.987,523.987,0,0,1,74.03,53.031,298.261,298.261,0,0,1,58,66.3q23.205,36.461,23.22,78.448,0,42.007-23.22,78.468a298.141,298.141,0,0,1-58,66.284,524.131,524.131,0,0,1-74.03,53.052q-39.24,23.208-72.39,38.669a1020.533,1020.533,0,0,1-145.86,54.716,1406.044,1406.044,0,0,1-158.03,36.45q-80.685,13.806-161.89,19.894-81.24,6.09-155.25,6.08-75.137,0-155.8-6.08-80.686-6.075-161.334-19.894a1433.586,1433.586,0,0,1-158.58-36.45q-77.913-22.653-145.307-54.716-33.162-15.471-72.386-38.669A521.393,521.393,0,0,1,232.6,814.029a297.624,297.624,0,0,1-58.024-66.284q-23.208-36.461-23.2-78.468,0-41.977,23.2-78.448a297.743,297.743,0,0,1,58.024-66.3,521.25,521.25,0,0,1,74.031-53.031q39.234-23.208,72.386-38.69,67.4-32.052,145.307-54.695A1433.655,1433.655,0,0,1,682.9,341.637q80.658-13.807,161.334-19.889,80.656-6.072,155.8-6.082Q1074.08,315.666,1155.29,321.748ZM844.236,1724.03q-80.686-6.075-161.334-19.89a1435.173,1435.173,0,0,1-158.58-36.45q-77.913-22.65-145.307-54.72-33.162-15.465-72.386-38.67a521.141,521.141,0,0,1-74.031-53.05,297.782,297.782,0,0,1-58.024-66.28q-23.208-36.465-23.2-78.47V930.057q82.875,66.325,186.75,111.613a1298.853,1298.853,0,0,0,216.584,72.38,1703.988,1703.988,0,0,0,227.638,38.69q114.9,11.6,217.691,11.59,102.765,0,217.7-11.59a1705.21,1705.21,0,0,0,227.63-38.69,1299.44,1299.44,0,0,0,216.59-72.38q103.86-45.315,186.75-111.613V1376.5q0,42-23.22,78.47a298.3,298.3,0,0,1-58,66.28,523.876,523.876,0,0,1-74.03,53.05q-39.24,23.205-72.39,38.67a1020.181,1020.181,0,0,1-145.86,54.72,1407.58,1407.58,0,0,1-158.03,36.45q-80.685,13.8-161.89,19.89-81.24,6.1-155.25,6.08Q924.9,1730.11,844.236,1724.03ZM887.679,377.188c53.639-.275,72.514,36.167,89.887,72.379,16.513,34.418,31.274,71.186,46.154,107.354,5.04,12.245,15.12,40.454,19.44,49.062,15.29,0.071,46.44.487,63.65,0.486l76.28,2.429,20.41,0.486c22.07,3.619,41.82,2.713,58.3,11.172,11.9,6.106,25.67,21.336,20.9,42.262-10.79,47.322-57.55,45.579-105.92,34.975l-49.56-3.4c-7.23-1.186-48.78-1.588-52.96-1.458q10.68,31.572,21.37,63.15c13.49,38.618,25.9,79.242,35.96,120.955,9.05,37.545,9.64,67.653-26.72,76.751-32.35,8.093-49.67-18.514-59.28-37.4-18.63-36.622-26.39-81.478-40.33-123.384q-16.76-51-33.524-102.011l-58.791.486c-45.046,0-93.765.1-134.1,4.372-37.37,3.961-54.771.512-60.734-20.4-5.423-19.019,2.536-41.417,13.118-49.548,16.056-12.338,42.587-10.809,67.537-14.573H828.4l59.763-2.429,51.017-1.457,0.486-.972q-8.988-22.586-17.977-45.176c-16.2-39.239-31.32-77.636-45.673-118.041-5.352-15.067-17.043-49.225-1.457-61.206C878.262,379.2,882.825,379.175,887.679,377.188Z"/>
</svg>
