<svg xmlns="http://www.w3.org/2000/svg" width="2000" height="2000" viewBox="0 0 2000 2000">
  <defs>
    <style>
      .cls-1 {
        fill: #fff;
        fill-rule: evenodd;
      }
    </style>
  </defs>
  <path id="circleAI_1_copy" data-name="circleAI 1 copy" class="cls-1" d="M1913.49,1002.76q0.015,132.66,2.3,265.33c0.06,2.95.08,5.88,0.09,8.8q0.96,259.575-227.88,386.47-232.395,128.85-460.19,265.69t-455.589,0Q544.426,1792.22,312.03,1663.36,83.184,1536.46,84.152,1276.89q0.011-4.38.084-8.8,2.3-132.66,2.3-265.33t-2.3-265.339q-0.077-4.416-.084-8.794Q83.185,469.054,312.03,342.161,544.427,213.3,772.221,76.47t455.589,0Q1455.6,213.3,1688,342.161q228.84,126.891,227.88,386.466c-0.01,2.919-.03,5.85-0.09,8.794Q1913.5,870.09,1913.49,1002.76ZM1775.45,769.822q-5.175-209.433-192.83-313.493-196.8-109.122-389.7-224.993t-385.806,0q-192.9,115.871-389.7,224.993-187.671,104.06-192.83,313.493,1.975,116.467,1.849,232.938,0.114,116.46-1.849,232.93,5.162,209.445,192.83,313.5,196.8,109.125,389.7,224.99t385.806,0q192.9-115.875,389.7-224.99,187.665-104.07,192.83-313.5-1.98-116.46-1.85-232.93Q1773.48,886.29,1775.45,769.822ZM1000.02,1490.89c-269.78,0-488.477-218.7-488.477-488.48s218.7-488.468,488.477-488.468,488.47,218.7,488.47,488.468S1269.79,1490.89,1000.02,1490.89Zm343.09-488.65c0-189.495-153.61-343.112-343.11-343.112S656.886,812.745,656.886,1002.24,810.5,1345.35,1000,1345.35,1343.11,1191.74,1343.11,1002.24Z"/>
</svg>
