<svg xmlns="http://www.w3.org/2000/svg" width="2000" height="2000" viewBox="0 0 2000 2000">
  <defs>
    <style>
      .cls-1 {
        fill-rule: evenodd;
      }
    </style>
  </defs>
  <path id="Shape_372_1" data-name="Shape 372 1" class="cls-1" d="M831.707,49.011c19.671-.149,32.113,2.74,42.522,11.493,10.7,9,52.134,91.14,57.464,108.03,43.989-.77,90.577-1.066,134.467,0,14.71-31.707,47.79-112.141,82.74-119.522,59.57-12.577,56.36,50.175,64.36,91.94q4.035,27,8.05,54.015c24.14,6.211,124.37,46.48,131.02,39.075,35.57-17.591,55.93-69.048,98.83-77,11.53-2.138,22.12,3.5,28.73,6.9,49.11,25.156,11.24,108.374,3.45,156.3,37,25.24,67.28,57.321,102.29,83.895,43.33-19.829,152.08-80.545,165.49,3.448,4.51,28.246-50.64,94.494-63.21,117.224q10.35,16.087,20.69,32.179,21.825,41.943,43.67,83.895c58.01-.677,173.03-24.723,156.3,54.015-8.06,37.933-77.58,66.583-101.13,95.388,6.28,41.954,18.13,83.243,22.98,131.015q22.98,7.47,45.97,14.94c35.95,11.436,107.19,21.127,86.2,79.3-11.91,32.99-94.32,51.72-132.17,60.91-5.46,48.33-17.47,90.34-22.98,133.32q20.1,16.08,40.22,32.18c23.44,18.03,98.53,67.13,44.82,109.17-27.83,21.79-98.51,6.74-140.21,5.75-8.52,29.84-44.75,96.08-65.51,114.93,20.73,33.69,114.2,145.78,22.99,165.49-32.39,7-95.06-36.86-125.27-43.67-26.94,35.09-71.36,52.99-101.14,85.04,11.28,51.42,48.91,148.09-17.24,162.05-39.18,8.26-95.38-64.96-119.52-82.75-39.92,15.79-79.07,33.97-124.12,44.82-10.41,38.98-4.12,102.38-26.44,131.02-11.64,14.94-44.56,22.3-64.35,9.19-19.72-13.06-55.94-88.53-65.51-113.78-24.27,4.5-59.03,9.25-87.347,4.6l-47.12-3.45q-11.491,21.84-22.985,43.68c-15.874,30.78-42.883,108.18-98.838,66.65-25.229-18.72-22.9-78.74-29.881-114.92q-1.149-11.49-2.3-22.99-17.238-4.59-34.478-9.19-46.54-17.82-93.091-35.63c-10.715,14.5-75.1,74.17-90.792,80.45-28.69,11.48-55.91-9.17-63.21-27.58-12.7-32.05,15.623-100.18,19.537-133.32-38.467-23.94-67.394-57.17-102.285-83.89-26.5,8.15-94.96,50.1-124.121,43.67-90.481-19.96.569-130.17,21.837-164.34-20.079-37.97-49.764-73.01-64.36-116.08-60.706,1.14-145.025,23.71-156.3-35.63-9.167-48.24,77.67-87.49,101.136-112.62-4.409-42.79-21.289-80.82-21.837-131.02-42.719-10.33-175.3-38.41-126.419-108.027,16.61-23.66,94.878-37.424,126.419-49.418-0.562-50.3,17.677-87.957,21.837-131.015l-94.241-77c-11.111-16.388-6.922-44.955,3.448-58.612,21.732-28.62,100.9-13.385,145.957-12.642a732.873,732.873,0,0,1,65.509-114.925c-14.305-23.208-71.56-93.322-63.21-125.269,19.65-75.176,121.771-14.4,164.345,3.448,9.234-6.827,101.573-84.929,102.285-87.343q-5.745-28.154-11.492-56.313c-11.092-45.533-19.067-94.359,33.329-103.433,32.132-5.565,93.467,66.315,114.927,82.746,39.606-17.227,83.226-29,125.27-45.97,1.583-31.959,9.333-107.839,24.135-127.567C809.238,56.37,819.619,54.615,831.707,49.011Zm860.8,895.268c1.81-99.185-36.81-186.136-67.81-256.283-81.77-185.033-239.6-312.295-449.36-370.06-72.61-20-186.68-32.986-275.827-16.089-48.169,9.13-95.041,17.081-136.763,33.328l-70.105,29.881L938.589,785.682c-0.069.052,46.668-12.33,102.281-4.6,86.17,11.981,151.99,81.542,173.54,163.194h478.1Zm-1101-518.313c-47.243,35.559-73.675,55.96-105.733,94.239-74.219,88.623-129.314,182.89-163.2,313.746-7.731,29.86-8.242,58.932-13.791,91.94-6.5,38.686-9.316,93.119-2.3,134.459,6.993,41.2,9.328,81.22,19.538,118.38,18.273,66.49,42.045,126.49,73.553,179.28,38.947,65.26,81.63,117.16,134.465,167.79,9.244,8.86,47.237,45.29,56.314,42.52Q715.618,1361.485,840.9,1154.59c-49.133-36.91-84.652-132.19-57.464-216.057,12.268-37.844,36-62.78,57.464-90.791L655.868,531.7C644.9,513.6,604.536,443.591,591.509,425.966ZM991.455,898.309c-37.481,0-71.7,19.822-90.792,67.806-27.986,70.325,38.16,152.775,111.477,140.2C1140.61,1084.3,1134.71,896.492,991.455,898.309ZM1692.51,1055.76H1215.56q-12.63,28.155-25.28,56.31c-19.4,32.67-46.15,63.83-78.15,83.9-26.15,16.4-56.15,26.58-93.09,31.03-27.969,3.36-64.136-1.82-82.75-5.75Q811.607,1426.375,686.9,1631.53q36.2,15.51,72.4,31.03c44.85,17.35,94.8,26.17,147.106,35.63,105.4,19.06,225.061-2.33,305.7-27.58,201.39-63.07,344.81-199.66,424.09-385C1663.73,1221.22,1691.23,1143.97,1692.51,1055.76Z"/>
</svg>
