<svg xmlns="http://www.w3.org/2000/svg" width="2000" height="2000" viewBox="0 0 2000 2000">
  <defs>
    <style>
      .cls-1 {
        fill: #f5c518;
        fill-rule: evenodd;
      }
    </style>
  </defs>
  <path id="Shape_370_1" data-name="Shape 370 1" class="cls-1" d="M-2,1H1998V2001H-2V1ZM680.649,280.658l593.211,4.3s206.15-17.537,328.9,105.2,109.71,342.506,109.71,342.506L1716.62,1318c0,31.67,7.36,86.74-45.36,139.45a161.662,161.662,0,0,1-228.62.01c-50.71-50.71-46.39-132.86-45.25-139.98l2.09-486.572S528.466,1702.76,556.9,1674.33A160.435,160.435,0,1,1,330,1447.45c2.535-2.53,5.155-4.93,7.812-7.26L1173.32,604.77l-492.274.024c-73.692,0-110.056-19.749-136.768-46.459a163.44,163.44,0,0,1,.011-231.155C581.505,289.968,626.02,280.661,680.649,280.658Z"/>
</svg>
