<svg xmlns="http://www.w3.org/2000/svg" width="3840" height="2160" viewBox="0 0 3840 2160">
  <defs>
    <style>
      .cls-1 {
        fill: #fff;
        fill-rule: evenodd;
      }
    </style>
  </defs>
  <rect width="3840" height="2160"/>
  <path id="_originals_1" data-name="+ originals 1" class="cls-1" d="M2514.95,1106.88c0.19-.44.59-0.44,1.19,0a3.177,3.177,0,0,1-1.79,2.66A23.124,23.124,0,0,0,2514.95,1106.88Zm-0.3-66.78v-0.67h0.59c0.2,0.23.8,0.78,1.8,1.66A4.218,4.218,0,0,1,2514.65,1040.1Zm1.49,53.16v8.64l-0.9-.66c-0.59-4.43-.4-7.42.6-8.98Zm-1.49-4.32v-3.99a6.621,6.621,0,0,1,1.19-3.65,5.97,5.97,0,0,1,.3,1.66v6.31a10.108,10.108,0,0,0-.3,2,0.837,0.837,0,0,1-.6-0.33l-0.59-.34v-1.66Zm298.71-118.954c0,0.446-.4.778-1.19,1a17.32,17.32,0,0,0-5.39,4.319,25.163,25.163,0,0,1-3.58,2.658q0.885-.662-11.37,8.307a1.634,1.634,0,0,0-.89.665,0.885,0.885,0,0,0,0,1c0.19,0.664.49,0.779,0.89,0.332q-0.3.335,1.5-.665l8.67-5.648a0.849,0.849,0,0,1,.6-0.333,0.287,0.287,0,0,1,.3.333c0.19,0.223.19,0.332,0,.332q-1.8,1.667-2.1,1.994-12.255,9.306-14.65,10.965a7.84,7.84,0,0,0-1.79,1.994,10.715,10.715,0,0,1-3.29,2.658,0.279,0.279,0,0,1-.3.329c-1,2-1.4,2.99-1.2,2.99a0.566,0.566,0,0,1-.89.34,0.855,0.855,0,0,1-.6.33,1.055,1.055,0,0,1-.6.99l-0.3.67a0.683,0.683,0,0,1,.9,0,0.926,0.926,0,0,1,0,1,2.9,2.9,0,0,1-1.5,1.66,97.319,97.319,0,0,1-10.76,11.3,28.464,28.464,0,0,1-7.18,5.31q-0.3.33-8.37,4.99c-4.48,2.78-7.16,4.44-8.07,5,0.19,7.3.3,12.28,0.3,14.93v15.62q0.585,7.98.89,9.97c0.2,0.89.5,1.33,0.9,1.33,0.2,0,.4-0.44.6-1.33l0.3-1.33v-10.3a31.409,31.409,0,0,1,.59-5.32,37.409,37.409,0,0,0,.6-5.65,6.172,6.172,0,0,1,.9,2.99c0.6,8.87.79,12.41,0.6,10.64a31.873,31.873,0,0,1-.6,8.64q-0.3,17.61-.3,18.94,0-.675.6,15.61a26.925,26.925,0,0,0,.9,4.65,20.961,20.961,0,0,1,.59,3.66c-1.39.22-2.09,0.66-2.09,1.33a48.6,48.6,0,0,0,.6,9.3q1.185,5.325,3.29,25.92,0,0.99.3,3.99a33.89,33.89,0,0,1,.3,3.98,12.931,12.931,0,0,1-.3,6.32q-0.6,1.335-.3,6.64c0,1.78-.7,2.78-2.1,2.99l-0.59.67a0.926,0.926,0,0,1,0,1v1.66a45.945,45.945,0,0,1,.59,6.31q0,1.335.3,12.96a1.764,1.764,0,0,1,0,1.99,0.449,0.449,0,0,1,0,.67l0.3,0.66-0.3.33a0.888,0.888,0,0,1,0,1l-0.3,1.99q1.5,16.62,1.5,19.61,0.3,0.675,0,4.98,0,1.665-.3,8.31c1.2,0.89,1.79,1.66,1.79,2.33a2.383,2.383,0,0,1,0,2.32q4.185,5.325,4.49,5.65a19.343,19.343,0,0,1,3.29,4.99,13.592,13.592,0,0,1,.9,5.98,9.045,9.045,0,0,0,.59,3.65q1.2,1,2.7,4.99,1.785,0.66,2.69,3.98,0.285,2,1.49,8.31a5.9,5.9,0,0,1,.3,1.33c-1.6,4.21-2.79,6.64-3.59,7.31a5.143,5.143,0,0,1-1.79-.33,8.11,8.11,0,0,0-1.8-.67c-1.39,1.33-2.09,2.33-2.09,2.99l-0.9,5.32a2.9,2.9,0,0,1-.89,1.99q-1.8.66-1.8,3.33,0,1.32-.3,5.64c-0.2,2.22-.29,3.99-0.29,5.32a1.554,1.554,0,0,1-1.2,1.66,2.612,2.612,0,0,0-1.5,2.66,39.763,39.763,0,0,0,1.5,11.96,75.289,75.289,0,0,1,3.59,10.3,0.953,0.953,0,0,1-.6,1.33c-1.4.44-2.09,1.77-2.09,3.99,0,0.66-.2,1-0.6,1a5.728,5.728,0,0,1-.6-5.65,1.334,1.334,0,0,0-1.2-2l-3.88-.99a5.935,5.935,0,0,0-1.8-1.33c0-.67-0.2-1-0.6-1s-0.59.33-.59,1a4.506,4.506,0,0,1-.3-2.99,33.094,33.094,0,0,0,.3-4.65c0-1.12-.3-1.67-0.9-1.67a14.5,14.5,0,0,1-3.57-.8,36.733,36.733,0,0,1-.02,6.45,18.284,18.284,0,0,0,.6,6.98l-0.6,2.66a13.6,13.6,0,0,1,.36,3.6,5.283,5.283,0,0,0,1.44-2.6,5,5,0,0,1,1.49-2.66l0.6,2.66a21.933,21.933,0,0,0-.9,8.3q0,3.315,1.5,3.99a2.08,2.08,0,0,1,.89,1q1.8,6.975.9,10.63a0.558,0.558,0,0,1-.6.66,1.119,1.119,0,0,1-.89-0.33l-1.2-1.66a11.369,11.369,0,0,1-.6-1.99,4.384,4.384,0,0,0-.9-2,6.667,6.667,0,0,0-1.49,1.33,1.618,1.618,0,0,1-1.2,1q-0.6.99,0.6,5.65l0.9,0.33c0.6,0.66.49,1.11-.3,1.33l-2.39.33c-2-1.11-3.29-1.55-3.89-1.33q1.8-.66-7.18.33c-0.2.45-.5,0.45-0.89,0q-2.1,5,1.19,6.65a1.119,1.119,0,0,1,.3,1.66c-0.6,1.33-1.1,2-1.49,2-2.4-2.66-3.79-4.21-4.19-4.66q-0.9-.99-1.2-0.66l-0.29,1.33v1.99c0,0.67-.3.88-0.9,0.67a7.044,7.044,0,0,0-5.68.33,0.99,0.99,0,0,0-.3.66c0.19,1.11-.3,1.44-1.5,1a8.3,8.3,0,0,1-5.38-4.98c0.2,0-.4-0.45-1.79-1.33a11.408,11.408,0,0,1-7.18-5.65c-2.2.22-3.39,0.66-3.59,1.33-0.4,1.1-1.19,1.1-2.39,0a4.368,4.368,0,0,1-1.2-2.99,14.275,14.275,0,0,1,1.2-3.99,7.323,7.323,0,0,0,1.2-1.99,8.938,8.938,0,0,1,0-4.66,17.539,17.539,0,0,0,.89-4.32,13.63,13.63,0,0,1,.3-2.99,13.439,13.439,0,0,0,0-5.65,44.51,44.51,0,0,1,0-7.31v-1.66a1.413,1.413,0,0,0-.3-0.99v-1l0.3-2.99q-0.6-19.605-.89-18.28a1.536,1.536,0,0,0,0-1.33q-2.7-5.64-.6-14.95,1.485-4.98,1.19-7.31a2.834,2.834,0,0,1,1.8-2.99c0.39-.44.99-1.1,1.79-1.99v-3.66q-0.6-1.65-1.49-10.96a74.435,74.435,0,0,1-.6-7.64c0-2.44-.7-3.66-2.09-3.66-0.41,0-.6-0.33-0.6-1a21.994,21.994,0,0,1-.3-2.99c0.4-.88.69-3.87,0.9-8.97q0.585-13.62.59-14.29v-3.65h-1.19q-4.785-.66-14.06.33l-0.89-.33a1.114,1.114,0,0,1,.89-1q8.67-.66,11.07-1a3.694,3.694,0,0,0,3.59-2.99c-0.41-1.1-.71-1.66-0.9-1.66a9.809,9.809,0,0,1-2.1-3.98,3.334,3.334,0,0,0-2.09-3,2.591,2.591,0,0,1-1.49-2.65v-28.58q-0.9-10.965-1.2-16.61c-0.2-1.11-.3-1.55-0.3-1.33q-2.1-15.615-2.39-47.19v-3.32a2.107,2.107,0,0,0-.3-1.33,21.893,21.893,0,0,1-1.79-4.65v-5.65c-0.2-2.87-.3-4.65-0.3-5.31,0-.45.19-3.1,0.6-7.98v-19.6l-1.2.33-12.56,6.98q-0.6.33-7.77,3.65l-4.79,2.99c-0.4.45-.5,0.78-0.3,1q0,0.33.6,0.33a2.158,2.158,0,0,0,.9-0.33,44.012,44.012,0,0,0,5.08-2.66,17.779,17.779,0,0,1,2.69-.66c1.39-.45,2.39-0.78,2.99-1a3.588,3.588,0,0,1-1.19,1.33q-6.285,3.66-5.09,2.99a11.035,11.035,0,0,1-4.48,1.66c-5.79,2.88-8.87,4.43-9.27,4.65,0.19-.22-2.39,1.11-7.78,3.99-0.2.22-.79,0.78-1.79,1.66a3.337,3.337,0,0,1-1.79,1.33,1.657,1.657,0,0,0-1.2-1,26.7,26.7,0,0,0-4.49,2.66q-2.085,2-11.66,8.64c-0.4.22-1.09,0.56-2.09,1a14.675,14.675,0,0,1-1.79,1.33,5.766,5.766,0,0,1-3.29,1.33,8.8,8.8,0,0,0-3.29,1.32,1.537,1.537,0,0,1-2.1-.33l-0.59-.33h-0.3l-0.3.33h-0.6c-0.2.45-1.2,1.22-2.99,2.33q-0.6.33-5.98,2.99a0.825,0.825,0,0,1-1.2.66,0.281,0.281,0,0,1-.29.34,0.275,0.275,0,0,0-.3.33l-0.3-.33-0.3.33-1.2.33-9.27,5.98a11.961,11.961,0,0,0-2.39,1h-0.3q0.6,6.645,2.69,21.93l0.6,3.99v1.99l0.6,2.33a28.11,28.11,0,0,1,1.19,6.31q2.1,20.925,2.1,19.94v2.99a2.592,2.592,0,0,1-.3,2.65c0.79,1.12,1.09,2,.9,2.66a3.957,3.957,0,0,1,0,2.99v2a10.613,10.613,0,0,0,.29,2.32,5.721,5.721,0,0,1,0,3.66v8.64a10.384,10.384,0,0,1,0,4.98,9.2,9.2,0,0,1-.89,6.98,6.694,6.694,0,0,0-1.2,3.65,37.121,37.121,0,0,1-1.19,3.99v1.99q-1.8,9.645-2.7,12.96a45.806,45.806,0,0,1-4.48,11.97,9.025,9.025,0,0,0-.6,3.65,13.34,13.34,0,0,1-.9,3.66,1.933,1.933,0,0,1-1.19,1.66q-4.785,14.28-5.38,15.61c-0.21.45-1.1,3.11-2.7,7.98v1.33q-0.885,1.335-5.38,6.98c0.59,0-.76,1.29-4.03,3.86a20.551,20.551,0,0,0-2.84-3.53,3.922,3.922,0,0,0-1.2,2.66q-3.3,10.62-3.59,11.63a7.321,7.321,0,0,1-2.09,3.98q0-1.32,1.79-10.63,1.8-7.65,2.39-9.97v-6.98h-1.49a8.28,8.28,0,0,1-.6,2.66,24.686,24.686,0,0,1-.6,2.66q-1.2-1.32-.6-4.65,0-.66,1.5-7.98c0.4-1.54.4-2.65,0-3.32a1.184,1.184,0,0,0-1.2-.66,0.552,0.552,0,0,0-.59.66c-0.74,3.4-1.17,5.41-1.3,6.06-1.32,5.08-1.89,8.5-1.69,10.22a6.409,6.409,0,0,1-.3,1.33,0.283,0.283,0,0,1-.3.33,0.827,0.827,0,0,1-1.2-.33,5.91,5.91,0,0,1-.3-1.66,25.1,25.1,0,0,1,.9-7.97q1.185-5.31-.9-7.65,0.6-7.3.6-6.97a4914.255,4914.255,0,0,1,3.59-13.3,1.413,1.413,0,0,1-.3-0.99v-0.67q1.8-13.95-.6-31.56l-0.9-8.64-1.19-2.66q0.285-3.66-1.8-15.95a71.443,71.443,0,0,0-1.49-8.64c-0.8-4.2-1.4-6.98-1.79-8.31a3.116,3.116,0,0,0-2.1-2.65q0.3,2.655.9,7.31a20.172,20.172,0,0,1,.9,4.65,47.235,47.235,0,0,0,.89,4.98,46.127,46.127,0,0,1,.9,7.98q0.6,7.3,2.09,10.63,1.2,18.27,1.2,19.94,0.3,13.29-1.2,20.27a14.672,14.672,0,0,0-2.09-1,12.866,12.866,0,0,0,.3-3.32,23.587,23.587,0,0,1,.6-3.33c0.39-2.43.1-4.2-.9-5.31,0.79-.45,1.2-1.44,1.2-2.99q-0.9-11.97-1.8-21.27c0-.22-0.3-1.55-0.89-3.99a4.58,4.58,0,0,0-.9,4.32,55.844,55.844,0,0,1,.9,11.96,1.833,1.833,0,0,1,.29,1.67,9.421,9.421,0,0,0,.3,2.65q-0.3-.66.9,7.65a4.741,4.741,0,0,0-1.49,5.31,22.124,22.124,0,0,0-.6,3.66,20.4,20.4,0,0,1-.3,3.99c-0.4,1.55-1.8,2.44-4.19,2.65q0-1.65.3-7.31a32.2,32.2,0,0,0,.3-7.31q0-.66.6-7.64a3.861,3.861,0,0,1,.6-1v-2.65l-0.3-2.99a75.762,75.762,0,0,0-.9-8.31q-0.6-4.98-.9-8.31c-0.4-2.21-.59-3.43-0.59-3.65,0.19-.45,0-2.55-0.6-6.32q-1.8-10.29-1.8-10.63a2.384,2.384,0,0,1,.3-1.99,0.283,0.283,0,0,1-.3-0.34c-0.8-1.1-1.3-3.1-1.49-5.98a4.542,4.542,0,0,1-1.2-.33h-0.9l0.6-4.98q-2.685-2.655-1.79-4.32c0.79-2,.4-4.76-1.2-8.31a5.91,5.91,0,0,1-.3-1.66,20.725,20.725,0,0,0-.59-3.99,12.372,12.372,0,0,1,0-3.99,20.858,20.858,0,0,0-2.1,1.33,0.556,0.556,0,0,1-.89-0.33,1.689,1.689,0,0,0-2.1-1q0.3,1.995,2.69,15.95-0.3-1.65,4.49,25.59c0,0.45.4,2.88,1.19,7.31q1.2,10.965,1.2,11.96,2.385,10.965,2.09,9.97a8.051,8.051,0,0,0-.89,4.32v6.98c-1.2,0-1.8-.44-1.8-1.33a10.771,10.771,0,0,1,.3-2.33v-2.32q0.3-5.985-1.49-17.62-3-20.595-5.68-33.89-2.4-11.3-4.49-27.24c-0.38-2.55-.6-4.09-0.66-4.65a7.807,7.807,0,0,0-3.23.66,2.291,2.291,0,0,0-2.09,1.66,0.9,0.9,0,0,1-.6.66c-2.79,1.56-4.98,2.22-6.58,2a0.279,0.279,0,0,1-.3-0.33,0.449,0.449,0,0,1,0-.67l1.2-1c0.84-.93,1.44-1.55,1.82-1.9a4.156,4.156,0,0,0-.62-0.42,1.105,1.105,0,0,1-.9-1c-0.4-.22-1.5.12-3.29,1l-0.3.66q-0.3.675-.6,0c-0.2,0-.4-0.55-0.59-1.66,0.59-1.55.79-2.54,0.59-2.99q0.3,1.005-.89-5.32a0.971,0.971,0,0,1-.3-0.66c-2-.66-3.19-0.22-3.59,1.33-0.2.66-.5,0.78-0.9,0.33a6.078,6.078,0,0,1-1.49-1,31.962,31.962,0,0,0,2.69-3.32,0.93,0.93,0,0,0,0-1h-1.8a0.269,0.269,0,0,1-.29-0.33,7.364,7.364,0,0,0-.6-4.32l-0.3-.33c-0.6.45-.9,0.11-0.9-1a8.259,8.259,0,0,1,2.39-4.32l0.6-1.32a8.459,8.459,0,0,1,2.39-5.65c-0.4-1.55-.8-2.44-1.19-2.66s-0.4-.78,0-1.66a1.591,1.591,0,0,1,1.19-1,2.765,2.765,0,0,1,2.1.66,4.187,4.187,0,0,0,1.19.34,6.082,6.082,0,0,1,2.1-.34,15.639,15.639,0,0,0,2.39.34,4.547,4.547,0,0,1,1.49-.34,3.752,3.752,0,0,0,2.99-.66,15.423,15.423,0,0,1,3.29-1l0.9-.33h0.6a0.279,0.279,0,0,1,.3-0.33l1.49-.33a17.254,17.254,0,0,1,3.59-1.33,18.234,18.234,0,0,1,3.59-1.66v-4.32a32.159,32.159,0,0,1,.6-6.98,8.07,8.07,0,0,0-.9-5.65q0.6-.33,0-0.33c0.99-2.21.3-4.21-2.09-5.98v-0.67a13.856,13.856,0,0,0,1.19-3.32,13.9,13.9,0,0,1,1.2-3.66q-0.9-8.625-.9-8.97,0-1.32-1.79-15.61l-0.9-2a46.33,46.33,0,0,0-2.39-9.97h0.6c0.59,0.23.59,0.34,0,.34h0.29l1.2,0.33h1.2l0.59,0.33h0.6q-2.685-16.6-2.39-21.93a12,12,0,0,0-.6-3.32,5.24,5.24,0,0,1,0-6.65,5.791,5.791,0,0,0,.9-3.65c0.2,1.11.49-1,.9-6.32q0.585-8.967.3-9.633-0.9-4.314-.6-16.282-0.6-1-.9-4.984a2.271,2.271,0,0,0-2.09,1.662c-1.6,3.769-2.39,5.763-2.39,5.981a112.33,112.33,0,0,0-5.39,25.256q0,1.665-.3,5.31c-0.2,2.22-.4,3.99-0.59,5.32a35.939,35.939,0,0,0,.59,6.98c0.2,1.11.4,2.11,0.6,2.99q-0.3-1.005,2.99,22.59,2.085,16.29,2.1,16.95v2.66q1.185,4.32.89,14.29l-0.89-2q-0.315-1.65-1.5-10.63v-2.66a4.93,4.93,0,0,0-.9-3.99q0-.66-1.79-15.61-1.2-8.31-2.39-15.62,0.585,3.33-1.5-19.61a60.417,60.417,0,0,1,.9-11.957,120.229,120.229,0,0,1,7.18-27.247c0.92-2.225,1.42-3.447,1.51-3.688a2.648,2.648,0,0,1,2.67-1.3,31.927,31.927,0,0,1,.3-3.988,20.084,20.084,0,0,0,.6-3.655,3.052,3.052,0,0,1,0-2.658v-2.658q-0.9,1.666,1.19-12.295-0.3,1.993-1.79-6.313c0-.218-0.2-0.332-0.6-0.332a1.116,1.116,0,0,0-.89.664l-1.2,2.326a3.757,3.757,0,0,1-.3-1.993q0-1.659.3-5.981,0.3-3.653.3-5.981a11.074,11.074,0,0,0-.3-1.662c0-.441-0.4-0.664-1.2-0.664a1.937,1.937,0,0,0-1.49.664c-0.4.665-.6,2.108-0.6,4.32a9.646,9.646,0,0,0-1.2-1,3.02,3.02,0,0,1-1.19-.665c-2.6-1.993-2.69-3.873-.3-5.648a5.678,5.678,0,0,0,1.79-3.655q0.3-2.657.9-7.31,0.9-4.985,1.2-6.978,0.285-3.989,1.79-14.953a1.781,1.781,0,0,1,.6-1.661q-1.2.669,4.78-5.317-0.3,1,2.1-5.316c0.59-1.106,1.99-1.662,4.18-1.662q1.5-1,9.87-1.329a1.747,1.747,0,0,1-.9,2.326,6.627,6.627,0,0,0,.6,4.652,42.485,42.485,0,0,0,1.79,4.652,3.979,3.979,0,0,1,.6,1,4.291,4.291,0,0,0,.45.79,4.536,4.536,0,0,1,1.35.871l0.59,1.662q1.5,4.656-.59,6.978a50.062,50.062,0,0,0,1.19,6.313c0.2,0.888,1,1.329,2.39,1.329a11.382,11.382,0,0,0,1.2-8.639V888.91a6.139,6.139,0,0,1-1.2-3.323,29.605,29.605,0,0,0-.59-4.32q-3-10.965-2.99-11.629,0-1-2.4-1.329,0.9-2.991,6.58-3.323,4.185-.327,3.89-3.323-0.3-2.656,0-2.991l0.21-.238c-0.04.244,0.99,0.654,3.08,1.235,2.39,0.447,3.39.665,2.99,0.665a3.451,3.451,0,0,0,2.99-.665q3.285-2.655,2.09-4.984,4.185,2.328,4.79,7.975c0.19,3.1,1.39,5.316,3.58,6.645q0-.327,2.1,3.323a3.456,3.456,0,0,1-.3,3.655q1.185,9.969.9,9.3,1.185,2.328,0,7.642v2.326q2.085,1,.3,1.994,0-1-.3,22.927a2.414,2.414,0,0,0,2.69-2.326q0.585-4.314,1.49-10.633a2.869,2.869,0,0,1,.3-1.661,53.451,53.451,0,0,1,.6,6.313q0.3,3.66.3,5.981-0.9,16.62,0,21.931-0.3,9.641-.3,10.3a3.911,3.911,0,0,0,1.49,2.991,3.32,3.32,0,0,0,2.99,1,24.5,24.5,0,0,1,10.17,1,15.8,15.8,0,0,0-.3,2.659q-5.085.334-5.98,2.658a14.493,14.493,0,0,0-2.99,4.32,19.191,19.191,0,0,1-2.39,4.319,11.964,11.964,0,0,1-.6,3.323,3.315,3.315,0,0,0,3.59,1.661q2.385-5.981,2.69-6.645a6.759,6.759,0,0,1,2.39-3.323c1.6,1.776,1.99,3.437,1.2,4.984q-0.9,1.666-.6,7.31,0,1-1.2,9.636a102.587,102.587,0,0,1-1.19,10.633q-0.6,6.315-.9,10.3a17.293,17.293,0,0,0,1.8,8.31q2.685,5.985,1.79,15.28a7.765,7.765,0,0,1-1.5,3.99,20.407,20.407,0,0,0-2.09,8.97q0,2.67-2.39,22.6a78.28,78.28,0,0,1-2.09,9.96l5.68-2.99,7.77-4.98,0.9-.33q6.87-4.98,22.43-13.29l1.49-.67,0.6-.33c0.99-1.55,1.59-2.44,1.79-2.66l2.99-1.33a6.023,6.023,0,0,1,2.39-1.33,22.734,22.734,0,0,1,4.19-1.66l0.9-.33,0.9-.66,7.47-3.66a4.022,4.022,0,0,0,2.09-1.99,0.566,0.566,0,0,1,.6-0.67,7.326,7.326,0,0,0,2.99-2.32,11.031,11.031,0,0,0,2.39-1.33,8.83,8.83,0,0,1,2.1-1,1.384,1.384,0,0,0,.89-1.66c-0.2-.88.3-1.66,1.5-2.33a27.385,27.385,0,0,1,3.59-1.66,2.122,2.122,0,0,0,1.79-1.33,1.047,1.047,0,0,1,1.5-.66,2.243,2.243,0,0,0,2.99-1,0.942,0.942,0,0,1,.89-0.66,8.941,8.941,0,0,0,3.29-1.33c0.4-.22,1.3-0.78,2.69-1.66a12.055,12.055,0,0,0,.3-2.66c-1.39.66-2.49,1.22-3.29,1.66-3.58,1.99-5.38,2.88-5.38,2.66q-1.5,1.32-6.88,2.99a9.641,9.641,0,0,0-2.69,1.33,1.6,1.6,0,0,1-1.79-.67,3.554,3.554,0,0,1,1.19-1.66,2.158,2.158,0,0,0,.9-0.33,0.837,0.837,0,0,1,.6-0.33,3.792,3.792,0,0,0,.6-1.33,1.071,1.071,0,0,1,.9-1c2.58,0,3.48.22,2.69,0.66q0.585-.315.3,0c0.19-.44,1.49-0.88,3.88-1.32,1-.45,2.39-1.11,4.19-2l4.78-2.66a18.717,18.717,0,0,0-.3-3.32q-0.6-18.27-1.19-31.565l0.3-4.985v-1.993a2.735,2.735,0,0,1-.3-1q-0.3-11.628-.3-14.288a70.02,70.02,0,0,0,0-12.959q-0.3-3.652,0-23.592a12.986,12.986,0,0,1,1.19-5.316,15.3,15.3,0,0,0,.9-6.646c-1.4-.882-1.79-1.77-1.19-2.658a4.808,4.808,0,0,0,1.19-3.323,19.191,19.191,0,0,1,.9-6.645v-0.665a6.214,6.214,0,0,1-.6-2.326q-2.985,1-3.89,5.317a15.354,15.354,0,0,1-.3,2.326,5.282,5.282,0,0,1-.29,1.993,18.445,18.445,0,0,1,.59-9.3l0.3-.332V896.22a0.989,0.989,0,0,1-.3.664,1.885,1.885,0,0,0-.89-1,1.369,1.369,0,0,1,.59-1.994,19.05,19.05,0,0,1,4.79-1.994,0.989,0.989,0,0,0,.3-0.664v-5.649a2.394,2.394,0,0,0,0-2.326V881.6a1.807,1.807,0,0,0,0-1.994v-0.665a2.4,2.4,0,0,0,0-2.326v-0.664a4.614,4.614,0,0,0,0-3.987V871.3a1.722,1.722,0,0,0,0-2.326v-1.329a1.04,1.04,0,0,1,1.49.665V872.3q0,3.66.3,19.6v1.994a2.151,2.151,0,0,1,1.5,1,3.012,3.012,0,0,1,.3,1l0.3,0.332c0.19,0.223.39,0.446,0.59,0.664a1.531,1.531,0,0,0,1.8-1.661V872.3c0-5.758-.11-10.3-0.3-13.624,0-.218.19-1.77,0.6-4.651l-0.3-1.33q0.285-2.99.89-13.623-2.985-3.987-.59-7.975a6.146,6.146,0,0,0,.59-4.652h1.2c1.2,0.224,1.59-.218,1.2-1.329l-0.6-1.661q-1.8.334-1.8,2.99-2.085,1.332-2.39,4.652,0-.327-1.49,8.64-1.2,12.3-1.5,14.62l-0.3,2.326c-0.4-.218-0.7-1.329-0.89-3.323v-3.323q0.885-6.642,1.19-8.307a2.9,2.9,0,0,1,.6-1.993,56.714,56.714,0,0,1-.3-7.975c0.2-.883,0-1.329-0.6-1.329-0.2,0-.5.555-0.89,1.661q0.285,2.664-.9,11.3-0.3.669-1.5,3.987h-0.59a0.276,0.276,0,0,1-.3-0.332q0.585-5.312.59-6.978a84.589,84.589,0,0,0,.9-8.639l0.9-1.662a1.293,1.293,0,0,0-.9-1.329c-1.19-.883-1.1-1.661.3-2.326a2.7,2.7,0,0,0,.9-2.326q0-.662-0.3-4.984c1.48-2.837,2.36-4.511,2.66-5.033a2.578,2.578,0,0,1-.27-2.609h0.6c2.39,0.887,4.19.887,5.38,0q1.5-1.325,2.39,1l0.3,1.662a2.426,2.426,0,0,0,1.2-2.326V797.865a2.2,2.2,0,0,0-.9-0.332,52.577,52.577,0,0,0-.9-7.31q-0.3-3.652.3-4.984a0.6,0.6,0,1,1,1.2,0v0.332a51.425,51.425,0,0,0,.6,6.313,22.17,22.17,0,0,1,.3,5.981c0.19,1.33.3,2.108,0.3,2.326a0.866,0.866,0,0,0,.59.665c0.6-.441,1.6.114,2.99,1.661-0.2,1.329-.59,3.546-1.19,6.646,0.6,3.769.99,6.2,1.19,7.31a1.289,1.289,0,0,0,.9,1.329,18.688,18.688,0,0,0,1.5-1.994q-2.1-.662-0.9-1.993c0.6-.665.99-2.212,1.19-4.652a22.308,22.308,0,0,1-.59-4.652l-1.2-11.63a284.334,284.334,0,0,0-1.2-34.224c0.77-3.053,1.17-4.859,1.24-5.446a41.813,41.813,0,0,0,1.16,5.446,1.032,1.032,0,0,0,1.49.664,0.841,0.841,0,0,0,.9-1,35.266,35.266,0,0,1,.9-6.645,41.124,41.124,0,0,0,.89-6.646l0.3-1.993q0.3-2.991,1.5-2.991c0.19,0,.3-0.55.3-1.661v-6.646c0.19-.665.39-1.329,0.59-1.994,0-.218.2-0.332,0.6-0.332a0.847,0.847,0,0,1,.6.332,6.8,6.8,0,0,1,.6,3.323,44.359,44.359,0,0,0,1.79,11.63q0.6,1.332,1.2,7.975-0.3-2,3.29,24.92a9.924,9.924,0,0,0,.3,1.994c0.19,0.888.59,1.22,1.19,1,0.77,0,1.17-.521,1.19-1.562-0.02.075-.12-0.955-0.29-3.09q-0.3-4.648-1.5-18.275v-1a0.9,0.9,0,0,1,.6-0.665c0.4-.218.6-0.109,0.6,0.333a38.7,38.7,0,0,1,.9,4.652q4.185,27.249,4.78,32.563a11.871,11.871,0,0,0,1.2,4.319c0.6,1.112,1.09,3.546,1.49,7.311a1.433,1.433,0,0,0,.3,1,39,39,0,0,1,2.39,3.988,1.551,1.551,0,0,1,.3,1.993v0.665a2.9,2.9,0,0,1,.6,1.994q0.6,0.669.9,1a1.758,1.758,0,0,1,.6-1.661,1.675,1.675,0,0,1,1.19.665,15.152,15.152,0,0,1,1.2,3.987,208.884,208.884,0,0,1,7.17,25.253,92.553,92.553,0,0,1,2.1,15.95q0,0.669,1.19,17.61,1.5,21.6,1.5,21.931,0.3,3.326,0,17.943a140.644,140.644,0,0,0,1.49,16.946q2.4,19.275,2.7,26.582,0.285,1.332,1.79,22.6,0.3,2.664.3,2.991v2.326l2.99-1.33,2.39-1,0.6-.333,6.88-2.99c0.79-1.771,1.99-2.544,3.58-2.326a2.169,2.169,0,0,0,2.7-.665l0.29,1q0.3,1.332.9,0.332l0.6-.664a1.442,1.442,0,0,0-1.79-.665,2.953,2.953,0,0,0-2.99-.332l-4.79,1-7.47,2.658-1.2.332a3.224,3.224,0,0,1,1.2-1.329,6.47,6.47,0,0,0,1.79-1l4.19-1.329a3.091,3.091,0,0,1,1.49.333c0.2-.442,1.39-1.215,3.59-2.326,0.6-.218.79-0.442,0.6-0.665a1.164,1.164,0,0,0-.9-0.332,20.14,20.14,0,0,1-5.98,1.994c-0.2.223-1,.223-2.39,0l-0.3-.333,0.3-.332a13.406,13.406,0,0,1,3.59-1,16.922,16.922,0,0,0,4.48-1.661h0.9a0.559,0.559,0,0,0,.6-0.665c0-1.106.39-1.215,1.19-.332a1.16,1.16,0,0,0,1.2,0l2.69-1.329a12.13,12.13,0,0,1,3.07.464,1.155,1.155,0,0,1,1.12-.8l0.29,0.333a6.714,6.714,0,0,0,1.2,3.655,0.939,0.939,0,0,1,.3,1.661,1.883,1.883,0,0,1-.6,1,1.75,1.75,0,0,0,1.5,0l1.49-.664,5.09-2.659v-0.664l3.28-2.326q1.8-1.324,2.7-1h0.29v0.664l-0.29.333a19.309,19.309,0,0,0-2.99,1.661,7.175,7.175,0,0,1-2.7,1.662,9.349,9.349,0,0,0-1.19,1c-0.2.224-.2,0.333,0,0.333q0.6,0.669,0,2.326l-3.89,1-2.99,2.659a1.076,1.076,0,0,0-.6,1l1.5,0.332q-0.3-1.324.6-1a4.124,4.124,0,0,0,2.69-.332,20.2,20.2,0,0,1,2.09-1.662l5.68-3.655a135.8,135.8,0,0,0,16.45-8.971,23.847,23.847,0,0,0,2.99-.665,10.808,10.808,0,0,1-2.39,1.994,0.872,0.872,0,0,0,0,1.329c0.19,0.446.39,0.555,0.59,0.332a10.793,10.793,0,0,1,3.59-1c1.8-.441,2.99-0.773,3.59-1l0.9-.333c1.19-.218,1.89-0.109,2.09.333l0.9-.333,3.29-1.329a1.126,1.126,0,0,1,.89-0.332,0.847,0.847,0,0,1,.6.332A0.991,0.991,0,0,1,2813.36,969.986Zm-66.38,283.1h0.3l3.29,4.65q-2.1-2.985-3.29-4.65a3.467,3.467,0,0,1-.65-1.02A6.516,6.516,0,0,0,2746.98,1253.09ZM2497.6,1137.45c-0.2.23-.2,0.34,0,0.34h0.3Zm24.82,10.97h-0.3l0.3-.33a18.828,18.828,0,0,0-.3-3.33c-1,.45-1.9.89-2.69,1.33h-1.79v1.66a3.81,3.81,0,0,1,1.79.34l-1.49.99a45.592,45.592,0,0,1,.59,5.98v0.34a4.957,4.957,0,0,1,2.4-.67c0.59,0.23.89-.11,0.89-0.99v-2.99l0.6-1.67v-0.66Zm8.07,6.31-0.89,1c-0.2.89,0.19,1.11,1.19,0.66A4.072,4.072,0,0,0,2530.49,1154.73Zm1.81,20.29c-0.1.58-.3,1.79-0.61,3.64l1.5,0.99C2532.99,1177.02,2532.69,1175.48,2532.3,1175.02Zm14.3-272.728q-1.98,3.573,3.33,4.229A41.262,41.262,0,0,1,2546.6,902.292Zm3.93,284.338a117.689,117.689,0,0,1-2.69-18.27q-0.9-3.33-1.2-4.99a0.99,0.99,0,0,1-.3-0.66c-1.19-.44-1.79-0.22-1.79.66l-0.3,1.66,0.6,2q2.985,20.925,6.28,30.23A25.19,25.19,0,0,0,2550.53,1186.63Zm9.27,109.99c0.39,0.22.79,0.44,1.19,0.66,0.4-.22.4-0.55,0-1l-0.89-.33A1.062,1.062,0,0,1,2559.8,1296.62Zm1.49-3.99-0.6,1.66a2.2,2.2,0,0,0,1.5-.33A1,1,0,0,0,2561.29,1292.63Zm2.39-2.99v-0.33c-0.59,0-.89.11-0.89,0.33l-0.9.99a10.9,10.9,0,0,0,2.09.34A2.068,2.068,0,0,0,2563.68,1289.64Zm5.39-410.366c-0.41-1.548-1-3.873-1.8-6.978a4.326,4.326,0,0,1-1.19-.332,0.282,0.282,0,0,0-.3.332q-0.3,9.306,1.19,12.959C2568.57,881.932,2569.26,879.938,2569.07,879.274Zm2.09,53.164V934.1a11.048,11.048,0,0,0-.3,1.661h0v1.328l0.3,0.332v1Q2573.845,935.43,2571.16,932.438Zm6.88,33.228a5.5,5.5,0,0,1-.3.584l0.9-1.248C2578.43,965.225,2578.23,965.448,2578.04,965.666Zm0.3,251.534a9.113,9.113,0,0,0-.3,2.99q0.285,1.995.6,12.3a0.818,0.818,0,0,1,.59-0.34l0.3-.33q0.3-9.96,1.5-13.62a1.44,1.44,0,0,1-.3-1h-2.39Zm94.19-196.04a21.7,21.7,0,0,0,3.58-1.66,15.519,15.519,0,0,0,.3-3.33q-1.5,1.005-3.88,2.33v2.66Zm4.78-103.01v-4.984l-2.69-1a13.634,13.634,0,0,0-.9,6.646q-1.5,16.618-2.09,33.892a75.456,75.456,0,0,0,0,9.969q0,3.987-.6,4.984v0.332a9.053,9.053,0,0,1,.6,4.984v8.639q0.3-3.987.9,31.565v3.32l3.58-1.99v-0.66q-0.6-12.96-.89-10.3c0.19-5.539.3-8.529,0.3-8.976a2.532,2.532,0,0,1,.3-1.993c0.39-.883.49-2.544,0.29-4.985a142.124,142.124,0,0,1-.29-24.256,185.99,185.99,0,0,0,0-20.933,31.214,31.214,0,0,1,.29-9.969,70.831,70.831,0,0,0,1.2-11.962l-0.3.332A9.5,9.5,0,0,0,2677.31,918.15Zm2.09,42.2q-0.3,5.654-.3,5.981v10.633q0,3.987.6,4.984A70.238,70.238,0,0,0,2679.4,960.35Zm-4.78-146.2a0.34,0.34,0,0,0,.46.118C2674.95,814.238,2674.81,814.2,2674.62,814.147Zm0.9,6.313a0.958,0.958,0,0,0-.9.665v1l0.6,0.664c0.6,0.447.89,0,.89-1.329C2676.11,820.793,2675.91,820.46,2675.52,820.46Zm7.39,96.93a2.824,2.824,0,0,1,.38-0.569A2.814,2.814,0,0,0,2682.91,917.39Zm0.98,6.077a8.061,8.061,0,0,0-1.2-2.991,4.389,4.389,0,0,1,.05-2.7,11.226,11.226,0,0,0-.65,3.036,0.686,0.686,0,0,1,.3,1,0.282,0.282,0,0,0-.3.333l0.3-.333a5.337,5.337,0,0,1,1.5,1.994c0.05,0.142.11,0.263,0.16,0.394A6.806,6.806,0,0,1,2683.89,923.467Zm14.05-59.81v0C2698.06,863.791,2698.07,863.8,2697.94,863.657Zm3.29,210.993a1.207,1.207,0,0,1-.52-0.12c0.15,0.14.32,0.29,0.52,0.46v-0.34Zm10.17,154.51a13.789,13.789,0,0,1-1.11-1.49q0.45,0.735,1.11,1.83v-0.34Zm4.78-323.969a1.442,1.442,0,0,1,1.31-.878A1.36,1.36,0,0,0,2716.18,905.191Zm2.05-2.012,0.32,1.262c0.11,0.026.21,0.05,0.32,0.086h0.3C2718.79,903.992,2718.47,903.546,2718.23,903.179Zm5.73,471.191-0.3.33a0.355,0.355,0,0,0,.6,0ZM2762.53,976.3a0.83,0.83,0,0,1-.6-0.332l-0.3.332-0.3.332c0,0.665.3,0.888,0.9,0.665A0.684,0.684,0,0,0,2762.53,976.3Zm2.99-1.994c-0.2.224-.2,0.333,0,0.333v-0.333ZM2557.11,1303.59l0.15-.12C2557.31,1303.6,2557.26,1303.65,2557.11,1303.59Zm-10.27-17.53c0.03-.14.06-0.27,0.1-0.41C2546.78,1286.34,2546.75,1286.47,2546.84,1286.06ZM2516.46,966.3a0.062,0.062,0,0,1-.02.033A0.208,0.208,0,1,1,2516.46,966.3Zm21.51-97.325a0.83,0.83,0,0,0,.6-0.332l0.6-.332h0.29A2.681,2.681,0,0,1,2537.97,868.973Zm151.34-115.762c-0.01-.07-0.03-0.131-0.04-0.2C2689.32,752.957,2689.33,753.032,2689.31,753.211Zm-96.02,198.832q-2.4.669-2.4-1c0.2-1.329-.59-3.209-2.39-5.649h2.39q4.785,0.671,3.89,3.987Zm-95.69-12.959c-0.2-.442-0.1-0.665.3-0.665a7.569,7.569,0,0,1,1.8-.332c1.59,0.665,2.39,1.552,2.39,2.658q0,1.332-2.39,4.32Q2497.9,940.08,2497.6,939.084Zm-126.03,13.623q-1.785,2.991-2.69,4.652l-2.69,3.987c-0.8,1.33-1.6,1.994-2.39,1.994q-1.2-7.974,5.98-14.62a108.571,108.571,0,0,0,7.47-8.639,29.657,29.657,0,0,1-3.28,8.307Q2373.07,950.055,2371.57,952.707Zm6.28,25.586c-1.6.887-2.39,0.332-2.39-1.662q-0.3-1,.9-1a2.792,2.792,0,0,1,1.79,1.662Zm3.29-64.13q0.3-3.318,3.29-7.642-0.6,2.328-1.19,5.981a53.35,53.35,0,0,1-1.5,5.648Q2380.54,917.154,2381.14,914.163Zm10.17,67.785a0.686,0.686,0,0,1,.3-1l0.89,0.332v1C2392.1,982.727,2391.71,982.612,2391.31,981.948Zm90.3,162.812a39.885,39.885,0,0,0-2.69,6.98,57.623,57.623,0,0,1-5.08,8.64,51.905,51.905,0,0,0-4.19,6.31c-0.6.89-1.3,2-2.09,3.33-1,1.55-1.7,2.66-2.1,3.32q-3.885,6.645-8.37,12.96c-0.2.45-.6,1.22-1.19,2.32a2.35,2.35,0,0,0,0,2.33c0.79,0.67,1.59.45,2.39-.66-0.4.44,0.3-.55,2.09-2.99q5.685-7.3,6.88-8.98,7.17-9.96,6.58-9.63c0.39-.44.69-0.78,0.89-1a0.683,0.683,0,0,1,.9,0c0.4,0,.5.33,0.3,1-1.79,3.32-2.79,5.1-2.99,5.31q-12.855,21.615-22.73,34.23a11.106,11.106,0,0,0-2.69,5.32q-0.6,1.98-5.68,7.64a1.079,1.079,0,0,1-.6,1q-1.785,6.645-1.49,5.98a1.891,1.891,0,0,1-1.8,1.99c-0.2.22-.4,0.45-0.59,0.66a2.812,2.812,0,0,1-1.5,2.33v1.66c1-.66,1.69-0.88,2.09-0.66s0.4,0.78,0,1.66a10.111,10.111,0,0,1-2.69,4.32,165.608,165.608,0,0,1-20.03,28.57,78.764,78.764,0,0,1-7.18,7.65,70.9,70.9,0,0,1-8.07,6.97q-1.5,1.005-4.49,3.33a41.222,41.222,0,0,1-4.48,3.32q-8.97,6.645-9.27,6.98l-5.68,3.99c-3.19,1.99-5.29,3.32-6.28,3.98-1.6,1.11-2.79,1.88-3.59,2.33l-3.89,2.32q1.2-.99-8.37,4.32a89.779,89.779,0,0,1-28.7,8.64q-17.655,2.325-28.11,1.33a61.7,61.7,0,0,1-21.53-5.31,91.415,91.415,0,0,1-10.17-4.99c-4.58-3.54-7.58-5.98-8.97-7.31a106.5,106.5,0,0,1-25.11-32.89,38.5,38.5,0,0,1-2.4-4.99,185.446,185.446,0,0,1-10.16-35.22,20.855,20.855,0,0,1-.6-4.65l-0.9-4.32q-0.3-2.655-.9-7.31t-1.19-14.62a194.232,194.232,0,0,1-.6-20.6v-9.97c0.2-4.65.4-7.98,0.6-9.97q0.6-6.645,1.19-11.63l0.6-5.65,0.9-5.65q0-.99,1.2-14.28c0.19-1.33,0-2-.6-2a3.186,3.186,0,0,0-1.2,1.33l-0.6,1.66-1.49,7.64q-0.6,3.99-.9,7.65a53,53,0,0,1-1.49,7.64q-1.5,5.985-1.8,8.31a9.357,9.357,0,0,1-.3-4.32q0-2,.6-7.98c0.4-4.2.6-6.98,0.6-8.31a43.528,43.528,0,0,1,2.69-12.29q3.585-18.6,5.98-27.25,0.9-3.975,2.69-10.96,1.5-7.635,2.39-10.97c0.2-.88.5-3.1,0.9-6.64a18.694,18.694,0,0,1,.9-5.32c1.59,0.22,2.49,0,2.69-.66a108.35,108.35,0,0,0,3.59-12.96q1.485-10.965,8.67-35.22a50.624,50.624,0,0,1,1.79-5.32c0.6-2.21,1.1-3.99,1.5-5.32a19.859,19.859,0,0,1,3.89-7.971c0.79-.665,2.09-3.323,3.88-7.975,1-2.212,2.29-3.208,3.89-2.99l1.2-.333c0-.441.09-0.664,0.29-0.664l0.6-1.329a1.451,1.451,0,0,1,.3-1q0.3-1.325,2.99-8.307c1-2.435,2.19-5.093,3.59-7.975l3.59-7.974a3.307,3.307,0,0,1,1.19-2.659,1.075,1.075,0,0,1,.6-1,2.735,2.735,0,0,0,.3-1h0.3a1.383,1.383,0,0,1,.6-1.329l1.49-1.994q5.685-13.621,11.07-24.921,0.285-.662,2.99-5.649,1.785-2.989,6.28-9.968a7.166,7.166,0,0,1-.6-3.655,8.553,8.553,0,0,1,1.79-3.323q-0.6-11.626-.6-9.636a23.057,23.057,0,0,1,.9-8.307,19.834,19.834,0,0,1,3.29-7.642,11.705,11.705,0,0,0,2.09-4.985q-0.6-1.994,1.2-7.642-1.2-2.32.6-6.978,0.6-1.323,5.08-10.633a8.027,8.027,0,0,1,.9-1.993q6.87-5.312,9.27-5.317a4.96,4.96,0,0,1,1.49,1.994,13.822,13.822,0,0,0,1.2,1.993c2.19-.218,3.59-0.773,4.19-1.661a63.412,63.412,0,0,0,5.08-4.652c1.19-1.329,2.09-1.879,2.69-1.661,1.39,0.446,2.89-.332,4.48-2.326a56.629,56.629,0,0,1,4.79-5.317,37.277,37.277,0,0,0,4.78-5.648c1-1.329,1.9-1.662,2.69-1,1.2,0.664,2.49.223,3.89-1.329q7.77-9.3,11.07-15.617a103.666,103.666,0,0,1,9.86-15.617c1-1.33,1.89-1.771,2.69-1.33q2.1,1.332,6.88-1.993c1-.883,1.69-1.215,2.09-1a17.868,17.868,0,0,1-7.77,7.642q-2.685,1-1.79,3.655,0.585,1.667,1.79,4.985a23.1,23.1,0,0,0-.3,3.322q-1.2,1-.6,1.662t1.5-.665a11.025,11.025,0,0,1-3.29,3.988q-2.4,1.994-5.38,4.651-1.5,1.667-.9,2.991c1.27,2.2,1.98,3.491,2.15,3.907a48.42,48.42,0,0,1,6.82-7.23,47.041,47.041,0,0,0,7.48-7.642,31.954,31.954,0,0,1,3.88-2.326q3.615-3.774,4.33-4.3a13.211,13.211,0,0,0-4.33,1.313c-1.99,1.111-3.49,1.553-4.48,1.329l2.99-3.322a106.833,106.833,0,0,0,12.56-7.643q5.37-3.652,5.98-5.981a4.267,4.267,0,0,1,1.49-1.993q10.17-7.305,18.84-8.307a1.194,1.194,0,0,1,1.2.664,0.7,0.7,0,0,1-.3,1,10.315,10.315,0,0,1-1.5,1.329,16.889,16.889,0,0,0-1.49,1.329,13.4,13.4,0,0,1-3.29,1.994,7.194,7.194,0,0,0-2.99,2.326c0.39,0.446,1.29.664,2.69,0.664,1.39,0.224,2.19.665,2.39,1.33q0.3,0,9.27-3.323l0.6-1c0.99-1.106,1.79-1.215,2.39-.332a28.378,28.378,0,0,0,.9,3.322q-2.1,3.988-.9,5.317a7.913,7.913,0,0,1,1.2,4.652,22.32,22.32,0,0,0,.59,4.652c0.8,0.223.9,0.664,0.3,1.329,5.39,1.329,8.77.664,10.17-1.994,0.4-.883,1.2-1,2.39-0.332,1.99,1.111,2.99,1.993,2.99,2.658a42.952,42.952,0,0,0-6.58,4.984c-0.8.447-1,.888-0.59,1.329l1.79,0.665h2.69a1.006,1.006,0,0,1,.9,1.329,9.933,9.933,0,0,0,.6,7.642,1.807,1.807,0,0,0,.89,1c1.39,0,1.89.779,1.5,2.326a9.509,9.509,0,0,1-5.68,5.981c-0.41.665-.8,1.329-1.2,1.994a19.61,19.61,0,0,1-4.19,9.636q0.9,3.987,1.8,4.32c0.99,0.664,1.19,1.775.6,3.322a2.543,2.543,0,0,1-2.1,1.662,8.2,8.2,0,0,1-3.58-1c-1.2-.665-1.9-0.883-2.1-0.665a7.048,7.048,0,0,1-3.59,1.329,6.559,6.559,0,0,0-3.58.665,9.628,9.628,0,0,1-2.7,1.329,8.011,8.011,0,0,0-4.48,2.991,47.46,47.46,0,0,1-5.38,4.984,4.393,4.393,0,0,0-1.5,1.329l-0.6.664c-0.2.224-.4,0.447-0.59,0.665a23.787,23.787,0,0,0-2.4,2.326c-1.59,1.776-3.79,4.434-6.57,7.975q-4.485,5.654-6.58,8.307a3.16,3.16,0,0,0-.9,1.329,18.471,18.471,0,0,1-3.89,8.307,41.467,41.467,0,0,1-6.58,6.313,26.885,26.885,0,0,0-6.27,5.981q-1.5,2.664-3.59,1.329l-3.29.665-2.39,3.655a37.4,37.4,0,0,1-2.99,6.313,25.535,25.535,0,0,1-1.5,3.323c-0.8,1.329-1.4,2.326-1.79,2.99a79.966,79.966,0,0,1-4.19,7.975q-2.4,3.66-.3,5.316,0.3,0.336-.3,1.662a6.911,6.911,0,0,1-1.79,2.99q-1.2,1-6.28,8.64,0.6-.663-4.79,7.31-2.985,4.656-4.78,7.31a32.626,32.626,0,0,1-2.09,4.319l1.19,0.665q4.185,3.987,14.36,9.636l0.59,0.665c-0.2.664-.59,0.778-1.19,0.332q-9.87-5.312-11.96-6.313c-2.2-1.329-3.89-1.106-5.09.664-0.4,1.553-.5,2.326-0.3,2.326a11.649,11.649,0,0,1-.29,5.981,4.225,4.225,0,0,0,.59,4.32,3.612,3.612,0,0,1,0,3.987q-5.985,11.635-14.95,31.231-5.085,13.965-6.87,19.28c-0.41,1.32-.6,1.88-0.6,1.66q-2.7,10.965-8.37,27.58-6.885,21.6-8.38,26.91a21.677,21.677,0,0,0-1.19,3.99,11.066,11.066,0,0,0-.3,1.66q0.6,5.325.6,5.98a47.174,47.174,0,0,0-1.8,6.65q-0.9,4.65-1.19,5.98-0.9,2.325-2.99,8.64l-0.6,2.32-0.3,2-0.9,4.32-0.9,4.65c-0.4,1.77-.89,4.65-1.49,8.64-0.4,2.65-.1,4.54.9,5.65a1.8,1.8,0,0,1,0,1.99,7.251,7.251,0,0,0-.3,3.65c0,0.45.09,1.65,0.29,3.61q-0.03.225-.29,6.03-0.3,3.99-.3,4.32c0,1.78.49,2.88,1.49,3.32q2.4,0.675,2.4,4.32-0.315,4.98-.6,7.64-0.6,2.67.6,3.99a2.466,2.466,0,0,1-.3,2.99c-1.4,2.44-1.5,4.44-.3,5.98a2.482,2.482,0,0,1,.3,2,3.891,3.891,0,0,0-.6,2.99q-0.3-1.335.6,3.32a10.806,10.806,0,0,0,.59,2.33l0.3,1.33,0.3,0.66v0.33a19.268,19.268,0,0,1,.9,2.33c0.2,2.88.49,4.54,0.9,4.98,0.19,0,.09.33-0.3,1a4.289,4.289,0,0,0,.6,2.99q0.885,1.335,2.99,5.32c1.39,2.21,2.49,4.1,3.29,5.64a15.912,15.912,0,0,0,3.58,3.99,5.051,5.051,0,0,1,1.2,1l1.2,0.33a16.959,16.959,0,0,0,2.69.67,16.555,16.555,0,0,0,2.39.33,15.644,15.644,0,0,1,2.09.99c1.2,1.12,3.09,1.67,5.68,1.67v-0.34h2.4l0.59-.33,0.9-.33a20.773,20.773,0,0,1,.3-3.66,2.529,2.529,0,0,0-2.99-.66,22.792,22.792,0,0,1-13.46-5.32l-2.99-2.99a2.745,2.745,0,0,1-.59-2.32h-0.3c-0.8.22-1.4-.22-1.8-1.33a2.825,2.825,0,0,0-.89-1.66,3.362,3.362,0,0,1-.6-1.66,59.489,59.489,0,0,1-2.4-6.65,13.59,13.59,0,0,1-1.19-3.32c0.2,0.88,0,.33-0.6-1.66a24.08,24.08,0,0,0-.6-3.66,42.07,42.07,0,0,1-.3-4.65,18,18,0,0,0-.59-4.99q-0.9-4.65.59-13.62a11.988,11.988,0,0,0,.3-2.66,21.994,21.994,0,0,0,.3-2.99c0-1.1.8-1.88,2.39-2.32a5.655,5.655,0,0,1,1.19,3.23c-0.02,0-.12,1.02-0.29,3.08,0,0.45.5,1.11,1.5,1.99,0.79,0.67.99,1.33,0.59,2a4.839,4.839,0,0,1-1.49,1.66,2.991,2.991,0,0,0-.9,1.99,5.473,5.473,0,0,1-.28,1.06c0.16,0.54-.03,2.84-0.62,6.92a20.321,20.321,0,0,0,.3,7.64q0.6,4.65,1.2,5.65a23.5,23.5,0,0,0,.9,2.99,28.743,28.743,0,0,0,2.62,5.53,17.853,17.853,0,0,0,.67,2.11l0.3,0.67q0.285,0,0,.33c2.58,3.1,3.78,4.43,3.58,3.98a9.011,9.011,0,0,0,1.5,2,4.437,4.437,0,0,0,2.09.66c1,0.23,2.39.45,4.19,0.67a12.952,12.952,0,0,0,3.89.66,3.4,3.4,0,0,1,1.79,1.33c0.79,1.11,1.59,1.44,2.39,1,0.2-2,.5-2.66.9-2,0.4,1.12.9,1.56,1.49,1.33a2.9,2.9,0,0,1,2.69,0,0.283,0.283,0,0,1,.3-0.33l0.3-1c-1-2.43-1.99-3.87-2.99-4.32-0.52-.08-0.86-0.12-1.1-0.14,0.59-.97,1.46-1.15,2.6-0.52v-1c0-.66.19-0.55,0.6,0.34a36.641,36.641,0,0,1,2.99,5.64h0.29l0.6-.33,1.8-.99,0.89-.34,0.9-.66a1.683,1.683,0,0,0,2.09-1.33l1.5-.67a1.924,1.924,0,0,0,1.79-1.32,1.126,1.126,0,0,0,.9-0.34,1.415,1.415,0,0,0,1.79-.99,0.854,0.854,0,0,1,.6-0.34,4.906,4.906,0,0,0,3.89-2.32,0.279,0.279,0,0,1,.3-0.33,1.546,1.546,0,0,0,2.09-1.33l1.5-1c0.59,0.89.59,1.55,0,1.99a13.848,13.848,0,0,1-3.59,2.66l-4.19,2.99-4.48,2.66-4.49,2.66-3.29,1.66-0.6.33a15.54,15.54,0,0,1,.3,2.33l-0.3.33-0.29,1.33c0.59,1.55,1.09,2.22,1.49,1.99l2.39-.99,1.8-1a6.215,6.215,0,0,0,2.09-1.33q11.055-6.3,24.82-15.62a44.085,44.085,0,0,1,4.18-2.65l1.2-1q-0.3,0,12.56-8.31,1.185-5.64,6.28-5.98a5.257,5.257,0,0,0,4.48-2.66l0.6,1.33q1.2,2.325,2.09.33c0.2,0,.5-0.66.9-1.99-1-.88-2.19-0.77-3.59.33-1.79-.88-3.79-0.66-5.98.67q-0.3.33-8.07,4.32-10.17,5.97-13.46,7.97l-2.39,1c0-.67.7-1.66,2.1-2.99a16.715,16.715,0,0,0,2.99-2l7.77-4.32a3.083,3.083,0,0,1,2.39-.33q0.9-1.32,6.58-5.98c0.79-.66,1-1.21.6-1.66q-0.3-.33-1.8.33-2.985,2.67-10.46,6.32a22.393,22.393,0,0,1-4.19.99,0.893,0.893,0,0,1-.6-0.66q-0.3-.33,0-0.33a46.435,46.435,0,0,1,6.58-3.66,49.141,49.141,0,0,0,7.48-4.98l2.09-.34a1.769,1.769,0,0,0,.6-1.99q0-2.655,2.09-1.33c0.8,0.45,1.6.22,2.39-.66,3.79-3.33,5.19-4.54,4.19-3.66a47.344,47.344,0,0,1,6.03-.87,3.079,3.079,0,0,1,1.75-2.45l0.29,0.33,0.3,0.33c1,3.33,2.29,5.1,3.89,5.32,1.79,0.45,2.19,1.55,1.2,3.32a7,7,0,0,1-1.2,2,2.98,2.98,0,0,0,2.69-.67,32.3,32.3,0,0,0,2.69-2.66q7.89-7.65,8.66-8.33l-0.58-.97,5.38-6.65c1.59-2.43,2.99-3.87,4.18-4.32a1.16,1.16,0,0,1,.9.34v0.99a1.032,1.032,0,0,0-.3.67,40.981,40.981,0,0,0-4.48,5.31,39.61,39.61,0,0,1-4.49,5.32c-1,1.33-1.6,2.11-1.79,2.33a0.871,0.871,0,0,0,0,.99c0.79,0.23,1.09,1.66.9,4.32l-6.58,4.32-5.09,6.65a3.81,3.81,0,0,0-.59,1.99h2.99c-0.8-1.77-.5-2.66.89-2.66,1.2,0,2.89-.77,5.09-2.32,0-.67,1.09-2.1,3.29-4.32q8.07-9.3,8.97-10.63a179.276,179.276,0,0,0,25.11-30.91,60.518,60.518,0,0,0,4.93-3.98c-1.69,3.55-2.64,5.55-2.83,5.98a1.644,1.644,0,0,0,.89,1.99q0.9,1,1.5,0a64.1,64.1,0,0,1,5.68-5.32,77.09,77.09,0,0,0,5.98-5.64l1.49-1.67a1.915,1.915,0,0,1,.6-0.99,3.968,3.968,0,0,1,.6-1c0.6-.66,1.29-0.55,2.09.33,0.2,0.23.8-.22,1.8-1.33l4.78-6.31a5.824,5.824,0,0,1,1.5-1.66,0.914,0.914,0,0,1,1.19.33c0.2,0,.3.33,0.3,1a12.72,12.72,0,0,1-1.79,3.65A65.549,65.549,0,0,0,2481.61,1144.76Zm-212.9-9.3v0.33l-0.3.33a2.576,2.576,0,0,1,.83.41l-0.53-.74Q2269.01,1135.46,2268.71,1135.46Zm2.39-7.31a7.351,7.351,0,0,1-1.49,6.65A6.392,6.392,0,0,0,2271.1,1128.15Zm171.64-325.965c0.4-.218.4-0.441,0-0.664-0.2-.219-0.3-0.11-0.3.332ZM2326.72,953.372V948.72a5,5,0,0,0,1.8-4.32,4.228,4.228,0,0,1-1.8,3.988,0.28,0.28,0,0,1-.3.332Q2326.42,949.716,2326.72,953.372Zm-20.63-65.459v7.642h0.3Q2306.09,890.907,2306.09,887.913Zm0.3,7.975h-0.3a4.7,4.7,0,0,1-.05,1.567A7.088,7.088,0,0,0,2306.39,895.888Zm-5.09,341.582a18.432,18.432,0,0,1-.89-1.65c-0.17-.19-0.46-0.52-0.9-1.01l-0.6-1.33-1.79-2.66a7.629,7.629,0,0,0-1.8-2.65,12.662,12.662,0,0,0,.9,3.32,15.515,15.515,0,0,0,.9,1.66,12.587,12.587,0,0,0,.9,1.66,10.292,10.292,0,0,0,4.48,4.32C2301.9,1238.25,2301.5,1237.69,2301.3,1237.47Zm20.64,11.96a0.275,0.275,0,0,0,.3.33Zm0.89,0.33c-0.2.67-.4,0.78-0.59,0.34a4.361,4.361,0,0,1-1.5,1.99,5.943,5.943,0,0,0-1.49,2.66,5.9,5.9,0,0,1,1.79-2.66,4.919,4.919,0,0,0,1.79-1.66,2.533,2.533,0,0,1,1.16-.52A4.473,4.473,0,0,0,2322.83,1249.76Zm17.05-10.63-0.3.33a0.874,0.874,0,0,1,.6-0.33h-0.3Zm2.09,55.82c0.2-1.54-.3-2.43-1.49-2.65,0.99,0.22,1.39,1.22,1.19,2.99l0.3-.34v1c0.4-.44.9-1,1.5-1.66a1.864,1.864,0,0,0,.89-1Zm55.92-103.33a0.683,0.683,0,0,0-.9,0l-0.9.33-0.3.99c0.2,1.12.8,1.22,1.8,0.34A1.126,1.126,0,0,0,2397.89,1191.62Zm4.78-5.32c-0.2.45-.1,0.66,0.3,0.66Zm-110.93-26.25a0.09,0.09,0,0,1-.01-0.05C2291.73,1159.98,2291.74,1159.99,2291.74,1160.05Zm11.05,18.85a0.111,0.111,0,0,1,.01.09C2302.8,1178.96,2302.79,1178.93,2302.79,1178.9Zm3.53,40.51a0.31,0.31,0,0,1,.07.12C2306.36,1219.49,2306.35,1219.45,2306.32,1219.41Zm21.99,6.95a1.1,1.1,0,0,0-.09.14C2327.84,1226.37,2327.9,1226.33,2328.31,1226.36Zm133.41-76.94c0.05-.12.1-0.22,0.16-0.34C2461.98,1149.08,2461.92,1149.2,2461.72,1149.42ZM2362.9,797.2a0.83,0.83,0,0,1-.6-0.332c-0.59-.883-0.2-2.659,1.2-5.317a7.238,7.238,0,0,1,1.79-1.329q0-.327,1.2,0a2.4,2.4,0,0,1,0,2.326C2365.29,795.654,2364.1,797.2,2362.9,797.2Zm-106.89-83.734,1.5,1-1.8.664ZM1816.16,892.233l-0.3,1-1.2.665-0.59-.332a1.841,1.841,0,0,1,1.19-1.329h0.9Zm-10.91-23.26a2.676,2.676,0,0,1,2.39,1.661q1.5,2-2.09,2.991l-2.99,1.329-1.2-.332-0.3-.332a22.127,22.127,0,0,1,1.5-3.656A2.9,2.9,0,0,1,1805.25,868.973Zm466.01-155.506-2.99,1-0.6-.665-0.3-1.994,1.8-2.326c0.79-1.547.99-2.544,0.59-2.99s-1.39-.441-2.99,0l-1.49.332-2.09-.332c0,1.552-.41,2.44-1.2,2.658l-0.9-2.658-2.99,1.661a2.43,2.43,0,0,0-1.19,2.326,1.357,1.357,0,0,1-1.2,1.329,1.008,1.008,0,0,0-.3-0.664l-1.19-.332a1.553,1.553,0,0,0-2.1,1.329V712.8a0.444,0.444,0,0,1,0,.665q-0.3,3.326-3.29,2.99a12.737,12.737,0,0,0-4.78,1.329q-0.3.336-5.68,1.994-2.4.67-2.09,3.987c1.39,0.888,2.39,1.22,2.99,1a3.22,3.22,0,0,1,1.19-1.993,1.387,1.387,0,0,1,1.8,0,1.644,1.644,0,0,1,.29,1.661c-0.2,1.111-1.09,1.885-2.69,2.326,0.2,1.329,1,1.775,2.4,1.329a5.025,5.025,0,0,1,2.39-2.326,4.742,4.742,0,0,1,5.08-.332c2.99,1.552,4.79,3.1,5.38,4.652a27.437,27.437,0,0,0,5.98-2.991q0.6-.662.6,0l0.9,3.655a0.282,0.282,0,0,0-.3.332h0.6c-0.2-.218-0.2-0.332,0-0.332l1.49-1a8.133,8.133,0,0,1,3.59-2.658,3.119,3.119,0,0,0,1.2,1.329c0.79,0.223,1.09,1.111.89,2.658a0.828,0.828,0,0,1-.59.333l-1.5,1.329-1.49,1.661,0.89,3.323-5.98,3.323a6.577,6.577,0,0,0-1.79,1,18.946,18.946,0,0,1-4.19,3.322,0.94,0.94,0,0,0-.3,1.662q1.5,1.667-.89,2.99a1.988,1.988,0,0,0-1.2,1,1.087,1.087,0,0,0-.6,1.662,0.959,0.959,0,0,0,.9.664,27.107,27.107,0,0,0,6.88-.664,11.248,11.248,0,0,1,4.78-.333c1,0.224,1.29,1.22.9,2.991q-0.9,1-4.49,1.993-0.6,1.332-4.18,2.991c-2.8,1.552-4.39,2.44-4.79,2.658l-2.69.665c-0.6-.665-1-0.551-1.2.332q-8.67,6.317-11.06,7.31a11.37,11.37,0,0,1-4.78,1.662l-4.19,2.99a6.183,6.183,0,0,1-1.2,6.313q-2.085,1.995.3,2.991c0.8,0.446.6,0.779-.59,1a7.059,7.059,0,0,1-2.4.332,2.717,2.717,0,0,0-2.09.665q-1.8,1.667-8.37,3.322a234.758,234.758,0,0,0-26.02,8.64q-17.94,6.976-28.1,9.3-12.87,3.325-14.95,3.988a105.225,105.225,0,0,1-10.17,2.99q-7.185,1.666-10.17,2.658a26.282,26.282,0,0,1-6.28,1.33q-1.2,0-5.68,1.993l-4.48,2.326c-1-1.77-2.9-1.993-5.68-.664a1.161,1.161,0,0,1-.9.332q2.685,0-11.66,2.658a5.29,5.29,0,0,0-2.4,1.662l-0.89.332a2.344,2.344,0,0,1,1.19-1.994,31.761,31.761,0,0,1,4.49-1.994c0.99-.441,2.29-1,3.89-1.661a11.612,11.612,0,0,0,3.88-1.329l13.16-4.652c1.59-.665,2.69-0.883,3.29-0.665,0.79,0.224,3.69-1,8.67-3.655l0.3-1.329h-0.6l-2.09.333q-12.555,4.321-13.16,4.651-2.1.67-7.77,2.659-4.785,1.994-7.48,2.99-0.6,0-7.77,1.994c0.19,0,.1.114-0.3,0.332a5.1,5.1,0,0,0-.3,1.994q-2.1,15.286-2.99,24.921-1.5,16.284-5.08,55.158-3.3,34.562-3.89,63.465,0,8.31-.6,21.931-0.6,16.287-.6,21.6a113.817,113.817,0,0,0,0,12.29,103.147,103.147,0,0,1,0,11.3,154.689,154.689,0,0,0-.3,17.28q0.9,14.295.9,30.57,0,14.3,1.2,20.6a63.8,63.8,0,0,1,.3,6.65,346.717,346.717,0,0,0,3.29,43.19,54.539,54.539,0,0,1,.29,6.32q0.9,12.96,2.7,17.27c-2.8,1.56-4.19,4.32-4.19,8.31q-0.3,6.975-.6,15.95c-0.2,3.11-1.49,4.54-3.89,4.32h-1.19a70.7,70.7,0,0,0,0,9.3,58.263,58.263,0,0,1,.3,9.64,29.739,29.739,0,0,1,.3,9.3c0-.21.09,0.67,0.3,2.66q0.885,17.94,0,26.92a37.754,37.754,0,0,1-.3,10.3c0,0.44-.3,2.55-0.9,6.31l-0.9,15.29c-0.4,6.19-.6,9.52-0.6,9.96q-1.785,27.585-1.79,27.25-0.3,5.31-1.2,15.62a145.267,145.267,0,0,0-1.19,15.28q-0.6,12.96-4.19,52.5-1.2,13.965-1.19,15.29a14.788,14.788,0,0,1-1.5,5.98c-1,2.87-1.6,4.76-1.79,5.65q-0.3.99-.9,0.66a1.069,1.069,0,0,1-.6-1,38.978,38.978,0,0,1,.3-4.98q0.6-10.3.6-9.3c0.19-1.78.3-5.43,0.3-10.97v-10.63q0.285-8.97,0-7.98c0.19-3.54.3-5.87,0.3-6.97q0-3.66.59-25.26,0.9-38.865.9-43.53,0-.33.3-10.63-0.6-6.645-.6-6.98v-9.3q0-5.64-.3-9.3a63.777,63.777,0,0,0-1.19-8.98q-0.6-2.655-2.39-1.32v18.94l0.29,2.65c0,3.77-.1,5.87-0.29,6.32q-0.9-.345-1.8-5.98l-0.3-3.33a8.222,8.222,0,0,0-1.19,4.32l-0.6-3.98q-0.3-3-.6-20.27c0-.89-0.1-2.44-0.3-4.66q-0.9-9.96-1.2-11.96c0-1.33-.4-1.99-1.19-1.99s-1.4.66-1.8,1.99a7.71,7.71,0,0,0-.29,2.66c-0.21,2.22-.41,5.87-0.6,10.97-0.2,4.87-.4,8.64-0.6,11.29l-0.3,2.66q0,3.33.6,9.97c0.19,4.43.4,7.75,0.6,9.97q0.885,2.985,1.19,10.96,1.5,6.315,3.59,21.93,0,1.995.6,7.31c0.4,3.33.7,5.87,0.9,7.65a18.026,18.026,0,0,1-.9,8.3q-0.6,2.325-2.39.67c-0.6-.8-0.95-1.27-1.04-1.43-1.51-1.18-2.47-.6-2.85,1.76a11.218,11.218,0,0,0,0,3.66q2.085,30.225,2.99,35.88,1.485,10.965,4.48,14.62a1.817,1.817,0,0,1,0,2c-0.59.66-.99,0.88-1.19,0.66a11.225,11.225,0,0,1-2.09-1.99c-1.4-1.56-2.4-1.33-2.99.66a1.2,1.2,0,0,1-1.2.67h-3.89a28.042,28.042,0,0,0-.6,6.64,57.069,57.069,0,0,1-.29,6.98v1.33c0,3.76-.41,5.31-1.2,4.65-0.4-.66-0.5-2.22-0.3-4.65-0.4-1.78-.6-2.77-0.6-2.99a69.45,69.45,0,0,1-2.39-14.96,11.126,11.126,0,0,0-1.2-4.31,15.132,15.132,0,0,1-.89-4.66,25.453,25.453,0,0,0-1.8-8.97,21.915,21.915,0,0,0-.6-3.32q-4.485-25.26-5.68-39.87c-0.2-1.33-.7-4.22-1.49-8.64a55.4,55.4,0,0,1-.9-8.98q0.3-1.32-1.19-17.27v-8.98c-0.21-.44-0.6-1.22-1.2-2.32l0.6-2.66q-0.6-6.975-.9-7.31c0-1.55-.3-2.55-0.9-2.99l0.9-1a30.994,30.994,0,0,0-.6-4.65,3.611,3.611,0,0,1-1.19,1.33,12.919,12.919,0,0,0,.89,4.65q-1.2,7.65,1.2,12.63c-0.6.66-1.5,1.55-2.69,2.66a189.6,189.6,0,0,1-1.2-20.27c-0.6-6.42-1-9.97-1.19-10.63q-0.3-3.33-1.8-3.99c-0.6-.22-1-1.44-1.19-3.66q-2.7-31.23-2.99-36.55-1.8-26.235-3.59-65.79c0-2.21-.11-3.43-0.3-3.65q-1.2-2.655-1.5-13.96,0-17.61.9-54.16,0-4.65,1.79-69.45v-7.31c0.2-3.1.3-5.53,0.3-7.31,0-1.99-.59-2.99-1.79-2.99a5.962,5.962,0,0,1-4.19-1.66q-4.185,0-8.07-7.31l-6.88-12.626a15.82,15.82,0,0,1-1.79-5.317q-0.6-3.987,0-1.993-1.8-9.635-5.68-12.959-4.485-3.653-8.38-16.946a3.25,3.25,0,0,1-.29-2.326q0.585-21.6,1.19-24.921,0.9-4.65,1.2-6.314-4.2-3.987-5.09-13.291c-0.59-4.87.3-8.748,2.7-11.629q0.585-1,2.99-4.32a5.423,5.423,0,0,0,.89-3.987c-0.4-1.548-.4-2.659,0-3.323q1.8-2.991.6-9.3v-1.661h-0.6a6.291,6.291,0,0,1-3.59,2.326l-11.96,3.987a17.948,17.948,0,0,1-3.88,1.994c-3.19,1.993-5.49,3.1-6.88,3.322a41.5,41.5,0,0,0-4.78,2.659,36.661,36.661,0,0,1-5.09,2.99q-9.87,4.323-13.45,6.978a3.52,3.52,0,0,1-2.1,1,15.9,15.9,0,0,0-5.08,1.329h-2.99l-4.19,2.658a37.262,37.262,0,0,1-5.38-2.326,7.494,7.494,0,0,0-5.38,0,14.382,14.382,0,0,1-8.07.333l-4.49,1.993a8.318,8.318,0,0,1-2.09,1.329,83.414,83.414,0,0,0-10.47,3.988c-1.6.887-2.79,0.778-3.59-.333a1.442,1.442,0,0,0-1.79-.664q-4.785,1.994-3.89,1.329-1.785,1-17.64,6.313a107.082,107.082,0,0,1-17.64,4.652h-2.39q-1.8-.327-0.9-1.994c2.2-2.876,4.48-4.205,6.88-3.987,0.19,0,1.69-.218,4.48-0.664q4.485,0.669,11.36-1.662,18.54-6.978,20.04-7.31l0.9-.332c-0.21-.442-1.3-0.774-3.29-1l-5.39,2.326c-6.57,1.552-9.27,1.994-8.07,1.329q-0.3.669,7.18-4.32a6.2,6.2,0,0,1,1.79-1,1.881,1.881,0,0,0,.9-1c-0.2-.665-0.8-0.883-1.8-0.665q-2.685,1-6.27,2.326c-2.4,1.111-4.29,1.552-5.69,1.329l-1.19.665-2.69.664c-0.8-.441-2.3-0.441-4.49,0l-1.49-1a4.515,4.515,0,0,0-2.4,1.662,3.675,3.675,0,0,1-4.18-1.329,5.55,5.55,0,0,0-7.18-2.326q-8.67,3.326-13.75,2.658c-0.16-.179-1.42-0.059-3.72.353-0.5.631-1.6,2.058-3.3,4.3q0,3.987-3.59,9.968a1.46,1.46,0,0,1-2.1.665q-3.285-1.659-6.57,1.993a3,3,0,0,0-1.2.665q0.6,1.332-.6,6.313c0.78,1.155.61,2.64-.46,4.448,1.77,0.38,2.7.673,2.7,0.869l0.6-.333h2.39c0.4,0,.6.115,0.6,0.333a1.435,1.435,0,0,1-.3,1,4.661,4.661,0,0,0-1.2.332,1.637,1.637,0,0,1-.89.664,18.51,18.51,0,0,0-2.4,1.994c-0.99,1.111-1.29,1.994-.89,2.658,0.2,0.447.89,0.556,2.09,0.333,1-.218,1.49,0,1.49.664a2.284,2.284,0,0,1-.59,1.994,2.052,2.052,0,0,1-.9,1q-6.18.9-9.69-.63a12.845,12.845,0,0,0-.32,4.285q0.9,10.965,1.19,17.943,0,0.335.3,5.981a18.062,18.062,0,0,1-.3,8.639,4.13,4.13,0,0,1,.3,3.987q0.6,6.978,0,33.559,0,1.335-1.19,17.94c0.19,0.67.3,4.22,0.3,10.64q0,2-.9,20.93a2.19,2.19,0,0,1,0,2.66q2.385,5.655-.9,9.3,0.9,3,.6,14.62c0,1.33-1,1.56-2.99.67-1-.44-2.09-0.11-3.29.99q0.6,1.335,1.5,10.64,0.885,8.64,1.49,19.93,0.9,15.96.3,13.96,0.3,1.335.6,3.66a21.751,21.751,0,0,0,.6,3.65q1.785,7.65-1.8,12.63a17.362,17.362,0,0,1-1.49-1.33,9.926,9.926,0,0,0-2.99-1.33c-0.41.22-.6,0.89-0.6,1.99q-0.3,2.67,4.78,4.99l0.3,0.33q-4.185,2.325-3.29,5.32,1.5,6.975,1.5,7.31,4.725,15.435,5.36,25.02,0.09,0.24,3.61,25.81,2.385,17.625,5.98,44.86c0.4,3.11.19,5.1-.6,5.98q0.6,21.27.6,22.93c0,2.21-.1,5.76-0.3,10.63q-0.3,6.975-.3,10.64,0,0.315,1.2,12.62c0.59,5.76.89,9.31,0.89,10.63a8.007,8.007,0,0,1-.89,4.99,103.269,103.269,0,0,0-4.49-9.97,52.889,52.889,0,0,1-3.89-10.3,10.813,10.813,0,0,0-.59-3.32q-2.1-2.67-3.59-10.3c-0.6-1.78-1.3-2.66-2.1-2.66-1.19,0-1.79.44-1.79,1.33v1.66a6.29,6.29,0,0,1-.6,1.66c1.39,0.88,1.8,2.21,1.2,3.99h-0.3l-0.3-.33h-1.2c-0.59-.23-0.59-0.34,0-0.34h-1.19q0.9,0,0-.33h-0.3c0.4-.22.9-1.11,1.49-2.66-0.59-.66-1-1.11-1.19-1.33l-0.6-1.66a1.184,1.184,0,0,0-1.2-.66c-1,0-1.49.33-1.49,0.99a6.3,6.3,0,0,0,.6,1.67c-0.4,1.99.3,3.2,2.09,3.65-0.8.67-1,1.88-.6,3.66,1.6,7.52,2.49,11.63,2.69,12.29q0.9,3.66-1.49,5.65a5.527,5.527,0,0,0-2.39-1.99c0-1.12-.8-1.78-2.4-2,0.8-.66.9-1.66,0.3-2.99a2.453,2.453,0,0,0-.3,2.99c0.2,0.88,1,1.55,2.4,2-2.99.66-4.89,0.33-5.68-1-0.21-.45-1.8-3.32-4.79-8.64q-4.785,0-6.58-3.32l-7.17-13.96a265.511,265.511,0,0,1-8.38-30.9v-1.66q-7.17-26.25-9.27-36.55-0.3-1.665-1.49-5.65a56.383,56.383,0,0,1-1.2-5.98q-0.3-2.325-2.99-14.62a61.463,61.463,0,0,1-1.49-14.62q0.9,2.325-3.89-20.94c-0.8-4.2-1.49-6.75-2.09-7.64a8.454,8.454,0,0,1-.9-3.32q0-18.615-.6-16.28,0.9-3-1.49-9.97a14.839,14.839,0,0,1-1.2-6.65,31.389,31.389,0,0,0,0-6.31,14.809,14.809,0,0,1,.6-6.31,5.773,5.773,0,0,0-.3-2.99c-0.51-1.33-.8-1.84-0.88-1.55a30.961,30.961,0,0,0-.32-6.76,19.9,19.9,0,0,1,0-6.98,29.885,29.885,0,0,0,.3-7.97q-1.2-20.61.6-26.25-0.9-4.65-.3-25.59,0.3-4.32-1.19-5.32c-0.6-.21-0.9-1.21-0.9-2.99v-7.31a319.2,319.2,0,0,0-.6-32.56q-1.2-16.947-2.69-29.9,0.3,2.989-2.99-18.275v-4.32a17.159,17.159,0,0,1-.9-9.636,0.883,0.883,0,0,1,0-1q-1.785-6.978,0-8.972a5.769,5.769,0,0,1-1.19-3.987,11.3,11.3,0,0,0-.6-4.32q1.785-2.321-.3-3.987c1.2-1.329,1.39-3.1.6-5.316a0.459,0.459,0,0,0,0-.665c0.19-2.212.1-3.541-.3-3.987a10.211,10.211,0,0,0,.6-7.643q0.585-12.288,6.58-46.851a5.9,5.9,0,0,1,3.88-4.652q1.5-.327,5.38-6.645a43.2,43.2,0,0,1,2.4-4.985q0.585-2.321,2.99-10.632-0.6-5.648-.6-6.314,0-1-1.8-2.326-5.985-1-5.68-1-3.585,0-3.29-2.99c1.99,0.446,3.09.665,3.29,0.665a3.832,3.832,0,0,0,2.99-1.994,3.313,3.313,0,0,0,.3-2.326c-0.2-1.106.8-1.661,2.99-1.661,2.99,0,4.68-.774,5.09-2.326v-4.652c0.19-2.877,2.49-4.538,6.87-4.984,0.2,0,1.4-.11,3.59-0.333a8.772,8.772,0,0,1,.9-1.993,4.973,4.973,0,0,1-.9-1.662q-0.6-1.994.6-2.326a4.3,4.3,0,0,1,3.89.665c0.99,0.664,1.39.888,1.19,0.664,1.4,0.665,2.39.556,2.99-.332a10.7,10.7,0,0,0,1.2-1.661,18.582,18.582,0,0,1,1.2-1.662,1.908,1.908,0,0,1,1.49-.664c1,0,1.29.332,0.9,1q-0.3.669-2.69,4.984l1.79-.333a102.712,102.712,0,0,1,16.45-2.99,65.873,65.873,0,0,0-2.7-6.313c-1.39-2.435-2.69-3.988-3.88-4.652q2.385,0,8.67,3.655a3.954,3.954,0,0,0,2.39,2.99,3.075,3.075,0,0,0,1.5-.332c0.59-.218.79-0.441,0.59-0.664s-1-1-2.39-2.326c1.99-1.771,3.79-2.1,5.38-1a14.759,14.759,0,0,1,3.89,2.326c1,0.887,2.29,1,3.89.332,1.39-.665,1.89-1.547,1.49-2.658q0.3,1-4.78-3.988,6.87,0.67,9.87,4.32,5.07,6.317,5.98,11.63a9.917,9.917,0,0,0,.3,1.993,10.59,10.59,0,0,0,.59,2.326q0.9,6.651-1.49,9.636-0.6,1-5.98,10.633,0.9,5.319.9,5.649a50.87,50.87,0,0,0,1.19,14.953q3.285,16.284,3.29,40.538c1,0.664,1.2,1.443.6,2.326a18.815,18.815,0,0,1-1.79,3.322q0.585,1,.59,5.981v19.937l0.6,1.661a7.162,7.162,0,0,0,5.98-2.658q0.255,0,2.13-3.061a7.135,7.135,0,0,1-5.27-1.258c2.45-.761,4.41-1.334,5.9-1.722a4.479,4.479,0,0,1,.53-2.266,3.444,3.444,0,0,1,2.09-.664,2.876,2.876,0,0,1,2.4.332,4.2,4.2,0,0,1,.69.72,4.719,4.719,0,0,1,2.74-1.052,64.445,64.445,0,0,1,8.67-2.326,6.159,6.159,0,0,0,3.89-1.994q1.2-1.659-.3-2.326a4.453,4.453,0,0,1-1.2-.332,2.43,2.43,0,0,0-1.19-.332q-1.2-.328-0.3-1.994t-0.6-1.662a4.184,4.184,0,0,0-2.39,0q-2.985,1-3.59-2.325a4.44,4.44,0,0,1,2.09-4.985,11.3,11.3,0,0,0,2.1-.664h2.99c0.2-2.212.7-3.432,1.49-3.655,2.79-1.329,4.69-1.662,5.68-1l0.3,0.332,0.9,0.665,2.09-1.994a1.559,1.559,0,0,0,.3-2.326,2.554,2.554,0,0,0-2.09-1.329c-4.19-.218-5.98-0.332-5.39-0.332-0.79-.218-2.99,0-6.57.664a22.686,22.686,0,0,1-2.69.333,0.91,0.91,0,0,1-.6-0.665,1.587,1.587,0,0,1,.23-0.881c0.06,0.126,1.37-.574,3.95-2.109a2.722,2.722,0,0,0,1.2-1.994,2.12,2.12,0,0,0-1.79-1.329h-0.6q-9.57,1-10.47,1a4.045,4.045,0,0,1-4.48-1.662q-2.1-2.321.59-3.987l0.3-.332q4.485-.328,5.39-5.649c0-.665.59-1,1.79-1h2.09a7.4,7.4,0,0,0,1.8.332h12.26a26.13,26.13,0,0,0,7.17-1.661,45.593,45.593,0,0,1,13.16-3.323l3.59-1.994,4.48-2.326a2.5,2.5,0,0,1,1.8,0,8.008,8.008,0,0,1,3.29-.664,9.5,9.5,0,0,0,6.28-6.313,2.849,2.849,0,0,1,2.99-1.33c1.19,0.447,1.99.333,2.39-.332,0.6-.664,1.59-0.773,2.99-0.332a2.977,2.977,0,0,0,3.89-1,22.443,22.443,0,0,0,1.49-2.658l2.09-2.326a5.116,5.116,0,0,0,5.09-.665l1.19-1.661a2.951,2.951,0,0,1,2.39-1.994,7.441,7.441,0,0,0,3.29-1.329l2.4-1.661a3.66,3.66,0,0,0,2.69,1.993,54.181,54.181,0,0,1,5.68,1.33,33.457,33.457,0,0,0,9.87-3.655,9.676,9.676,0,0,1,3.58-1.662q0.6,0,8.38-3.987a2.881,2.881,0,0,0,.89-1.994l1.8-.332a8.419,8.419,0,0,0,2.69,1l7.18-2.659a5.869,5.869,0,0,1,3.28-1.993,15.194,15.194,0,0,0,9.57-5.317q0.3-.327,3.59-3.322a3.74,3.74,0,0,0,4.49.332,31.089,31.089,0,0,0,4.18-2.658q5.085-1,6.88-.333c1.39,0.447,3.09,0,5.08-1.329q1.5-.662,5.68-1.993a2.974,2.974,0,0,1,1.5-1.33,2.5,2.5,0,0,1,2.09-.332q4.185-1.994,15.25-5.981c1.8-.664,2.99-0.332,3.59,1q0.3,1.332,1.5.332-0.9,1,4.48-1.661c4.38-1.994,6.78-3.1,7.18-3.323q2.985-1.993,5.08-.332a8.573,8.573,0,0,1,1.5.332,60.913,60.913,0,0,1,9.27-5.649,78.1,78.1,0,0,0,8.67-3.987c-0.2,0,0-.109.59-0.332q0.9-8.637.9-8.307c-0.2-1.547.3-1.994,1.5-1.329a16.35,16.35,0,0,1,1.49,1,6.319,6.319,0,0,0,1.5,1.33c0.99,0.664,1.89.332,2.69-1a16.793,16.793,0,0,0,1.49-5.981q-0.6-7.976,2.4-12.627-0.9,1.332,2.09-7.31c0.4-1.994,1.09-2.326,2.09-1,1,1.553,1.99,1.885,2.99,1a22.758,22.758,0,0,1,2.39-1q2.4-1,1.5,3.323c-0.2.665,0.19,1.22,1.19,1.661q-2.385,2.664-2.39,12.627-0.3,5.654-.3,12.627a9.7,9.7,0,0,0,2.99-1q19.14-9.969,16.45-8.307c0.4-.218.79-0.442,1.2-0.665q-2.7,1,13.15-5.649a8.705,8.705,0,0,1,3.89-1.329q5.085-.661,13.75-4.652a9.824,9.824,0,0,1,2.7-1.329,86.3,86.3,0,0,0,17.04-6.645,6.293,6.293,0,0,1,2.09-.665,19.988,19.988,0,0,0,5.68-1q3.885-1.323,5.39-1.661l2.09-1,3.89-1a8.6,8.6,0,0,0,3.88-1.329q12.57-3.653,13.46-3.987,2.685-.663,12.56-4.984c1.59-.665,2.49-1.548,2.69-2.659,0.19,0.224.4,0.115,0.6-.332,4.18-1.329,5.98-1.994,5.38-1.994a4.163,4.163,0,0,0,2.99-1.661l3.59-.664,0.3-1a1.6,1.6,0,0,1,1.79-1,2.219,2.219,0,0,0,1.5-.332,5.511,5.511,0,0,1,2.99-2.326,28.12,28.12,0,0,0,3.58-.333h0.6l3.89,0.333a9.148,9.148,0,0,1,4.48-1.662c0.2,0,1.7-.218,4.49-0.664a1.611,1.611,0,0,1,1.79-.665,4.531,4.531,0,0,1,2.69-.664h2.99c0.4-.219,1.3-0.665,2.7-1.33a4.977,4.977,0,0,1,2.69-1h2.39a3.1,3.1,0,0,1,3.89-1.662l3.58-1.993c-0.2-.883,0-1.439.6-1.662a3.033,3.033,0,0,1,1.8-.664,18.847,18.847,0,0,0,9.57-3.988c0.59-.441,1.79-0.441,3.58,0q4.785,0,6.28,2.326c-0.2-.441.7-0.218,2.69,0.665q4.785,2.328,4.79,6.978a6.19,6.19,0,0,1-1.5,4.319A14.465,14.465,0,0,1,2271.26,713.467ZM1775.35,1310.9c0.79,0.22,1.2.11,1.2-.33l-0.3-1-1.2.34Q1774.75,1309.91,1775.35,1310.9Zm-52.93-396.737c2.59,0.446,3.99.664,4.19,0.664Zm14.95,284.1a3.075,3.075,0,0,0-2.09-1.66,1.671,1.671,0,0,0,.9-1.99q-0.3-11.97-.6-12.96-2.4-14.28-2.09-17.95a16.887,16.887,0,0,0-.3-2.65,22.141,22.141,0,0,1-.3-2.99q-0.3-1.995-1.2-8.98a41.379,41.379,0,0,1-.59-9.3,191.878,191.878,0,0,0-.3-28.24c-0.41-3.33-.2-5.65.59-6.98v-2.33q-2.685-3.315,0-7.97-2.085-2.325-1.19-6.65a9.2,9.2,0,0,1,.9-4.98,2.066,2.066,0,0,1,.29-2.33,25.755,25.755,0,0,1-1.19-13.29,15.467,15.467,0,0,0-.6-7.64q-0.6-1.665-2.69,0a6.037,6.037,0,0,0-1.79,1.33,39.332,39.332,0,0,0-1.5,4.32q-0.3.99-2.09,10.63a22.838,22.838,0,0,1,.59,2.66c0.2,5.31.3,9.75,0.3,13.29q0-3.66,2.4,39.87,0.585,7.98,1.79,21.27,1.8,16.95,2.39,21.6a70.912,70.912,0,0,0,4.49,19.27,3.906,3.906,0,0,0,1.49,2.99q-0.9,1.665-.3,6.31a4.843,4.843,0,0,0,2.69,3.33c-0.2.22-.4,0.44-0.59,0.66l-0.3.33c1.19,0,1.49-.33.89-0.99Q1738.87,1203.915,1737.37,1198.26Zm19.44,115.3a2.65,2.65,0,0,0,.9-2.66q-2.4-8.97-3.59-11.96-0.6-2.985,0-3.99-2.685-9.3-2.69-10.3-0.6-3.645-5.08-5.31a5.192,5.192,0,0,0-.6,3.65q3.285,14.625,2.99,13.96,1.185,5.31,3.59,12.96a4.655,4.655,0,0,0,4.48,3.65q-2.4,2.325.6,3.99-2.1,1.32-.9,2.99,2.985,6.3,4.49,7.64l1.79-.99q0.3-6.99-5.08-9.64Q1759.795,1315.225,1756.81,1313.56Zm6.88,19.94a11.106,11.106,0,0,0,4.18,2.66A5.555,5.555,0,0,0,1763.69,1333.5Zm3.89-27.25,0.29,0.33,0.3-.33h-0.59Zm2.09,2.99-1.2-.66c-1,0-1.3.44-.89,1.33,0,0.88.09,1.33,0.29,1.33a1.184,1.184,0,0,0,1.2.66,1.053,1.053,0,0,0,1.5-.66C1770.96,1310.57,1770.66,1309.91,1769.67,1309.24Zm14.95-474.159v-0.665a0.847,0.847,0,0,0-.6.332h0.3v0.333l-0.3.664c0,0.447.2,0.556,0.6,0.332Q1785.52,835.75,1784.62,835.081Zm-0.3,5.981c-0.8-.665-1.7-0.551-2.69.332q1.185,3.325,3.29,3.987A3.542,3.542,0,0,0,1784.32,841.062Zm41.41,40.538a0.923,0.923,0,0,0-.6.664c0,0.665.3,0.888,0.9,0.665l0.59-.665C1826.43,881.6,1826.13,881.382,1825.73,881.6Zm47.54,12.626-2.69-.332a2.715,2.715,0,0,0-2.09,1,2.151,2.151,0,0,0-.3,1.993l1.79-.332,3.59-1.661Zm69.97-46.851-5.08,1.994a3.31,3.31,0,0,0,3.59,1.661l2.69-1.661Zm40.67,21.6-1.8.665a2.726,2.726,0,0,0,.3,1,7.709,7.709,0,0,1,1.8-.664,1.786,1.786,0,0,0,.89-1.329Zm2.69,48.513c0.03,0.081.07,0.151,0.09,0.213A1.277,1.277,0,1,0,1986.6,917.486Zm12.26-126.6v0.332a0.966,0.966,0,0,0-.9.664,0.28,0.28,0,0,0,.3.333c0.6-.218.79-0.551,0.6-1l0.3-.332h-0.3Zm43.06,556.562a11.7,11.7,0,0,1,.29,2.99,12.663,12.663,0,0,0,.9,3.33q0,0.66.9,0.66a1.481,1.481,0,0,0,.3-0.99C2044.31,1349.89,2043.51,1347.9,2041.92,1347.45Zm107.94-543.271q-12.555,2.663-19.74,6.313,1.5,2.328,5.09.332a30.084,30.084,0,0,1,5.08-1.993c1-.218,2.59-0.665,4.79-1.329a37.869,37.869,0,0,1,4.78-1.33q14.055-2.99,16.45-4.319,17.64-4.314,29-7.31a39.7,39.7,0,0,0,14.95-6.978q-1.5-.327-4.78,1-8.385,2.663-21.23,6.313v-2.658q10.755-2.656,13.75-4.32-2.1-.327-12.26,2.658l-1.79,1.662,0.3,2.658q-9.87,2.664-15.85,4.32Q2154.045,803.182,2149.86,804.179Zm57.11-19.605c-1.99,0-4.59.888-7.77,2.659q2.085,0.335,6.87-1A2,2,0,0,0,2206.97,784.574ZM2168.4,796.2q11.655-2.991,12.56-3.655a1.064,1.064,0,0,0-.3-0.665q-13.755,2.991-11.96,2.659a14.909,14.909,0,0,0-5.68,2.658A29.291,29.291,0,0,0,2168.4,796.2Zm44.85-19.6c-0.2,0-1.69.223-4.48,0.664a7.382,7.382,0,0,1-3.89,1.329,7.148,7.148,0,0,1-3.89.665l-9.57,3.323c-2.59,1.111-4.29,1.552-5.08,1.329a3,3,0,0,1-2.99.332l-9.27,3.655-2.99.332-6.58,2.659,2.99,0.664q4.785,0,7.18-1.993,2.385,0.335,7.47-1.33,15.555-4.314,21.23-5.981,9.87-3.317,12.56-4.984A2.724,2.724,0,0,0,2213.25,776.6Zm-2.39,6.313q2.385,1.667,4.19.665,2.985-1.995,3.28-3.323Zm9.27-3.323,2.69-1.329C2221.62,777.82,2220.73,778.261,2220.13,779.59Zm41.56-68.117-2.39,1.661a5.732,5.732,0,0,1,2.69-3.987A2.064,2.064,0,0,1,2261.69,711.473Zm8.67,13.291a1.434,1.434,0,0,0,.3,1l-2.69,1.329C2267.97,725.984,2268.77,725.211,2270.36,724.764ZM1791.2,1351.11h0.3Q1791.2,1351.44,1791.2,1351.11Zm-19.14-28.91h0.3Q1772.96,1322.53,1772.06,1322.2Zm2.39,24.92q0.3,0.33-.3.33v-0.33a18.4,18.4,0,0,0-.89-1.66l-0.84-1.54,0.24-.12a4.1,4.1,0,0,0,.9,1.66C1773.35,1345.24,1773.65,1345.79,1774.45,1347.12Zm-2.09-3.32,0.06,0.12Q1772.135,1344.04,1772.36,1343.8Zm-71.17-505.064a0.28,0.28,0,0,1-.3-0.333,3.736,3.736,0,0,1,.6-3.987h0.9l0.6,0.332q1.185,1.667-.3,3.655A8.617,8.617,0,0,0,1701.19,838.736Zm-10.46-15.285a2.1,2.1,0,0,1-2.09-1.329,1.119,1.119,0,0,1,.29-1.662,0.847,0.847,0,0,1,.6-0.332,3.1,3.1,0,0,1,2.1,1.329,1.491,1.491,0,0,1-.3,1.994h-0.6ZM1275.85,1223.87a21.126,21.126,0,0,1-2.97-2.6l0.12-.43,0.92-.83,3.26-.15q3.66-.72,3.22,1.74a2.686,2.686,0,0,1-1.4,2.55A2.884,2.884,0,0,1,1275.85,1223.87Zm305.36-228.279a2.449,2.449,0,0,1,2.4,2.658q0,2.656-19.14,65.131-9.57,29.895-29.9,106.32,37.065,36.225,74.15,46.52,15.555,10.65,15.55,11.97v1.32c0,1.78-1.19,2.66-3.59,2.66q-16.44-10.965-28.7-14.62,0,1.005,21.53,19.94v2.66q0,2.655-3.59,2.66-2.685,0-17.94-7.98v1.33q1.785,5.985,15.55,18.61v1.33l-1.2,2.66q4.785,1.98,4.79,3.98v1.33c0,1.78-.8,2.66-2.4,2.66h-3.59l-2.39-1.33c0,1.33-.8,3.11-2.39,5.32q6.57,1.665,11.96,10.63,17.94,8.97,17.94,11.96v1.33c0,1.77-.8,2.66-2.39,2.66s-13.56-7.09-35.88-21.27q-8.385,0-70.57-42.53h-2.39q-14.655,68.13-20.33,74.43h-1.2c-1.6,0-2.39-.89-2.39-2.66l4.78-33.22v-1.33h-1.19q0,3.66-17.95,58.48c0,3.54-.79,5.31-2.39,5.31h-1.19c-1.6,0-2.4-.88-2.4-2.65v-29.24l1.2-9.31h-2.39c0,2.21-1.6,3.99-4.79,5.32l-1.19,7.97v30.57c0,1.77-.8,2.66-2.39,2.66H1464c-1.6,0-2.39-.89-2.39-2.66v-27.91q0-15.615,9.57-43.86,3.585-23.25,3.58-33.23v-10.63h-1.19q-12.87,38.55-15.55,41.2h-1.2l-2.39-1.33q-9.57,63.465-11.96,74.43h-2.39c-1.6,0-2.39-.88-2.39-2.65l9.56-69.12v-1.33h-1.19q-7.785,30.585-10.77,30.57h-2.39l-2.39-1.33q0-19.59,17.94-78.41,5.985-23.6,5.98-31.9-84.615-67.455-138.74-116.97h-2.39a724.89,724.89,0,0,1-65.79,119.62l-0.15.27a4.336,4.336,0,0,0,2.9-1.78,1.456,1.456,0,0,1,2.17-.35q5.88,3.75,7.67,7.31,4.875,2.385,5.29,2.55c1.49,0.74,1.85,1.92,1.11,3.54a2.878,2.878,0,0,1-1.99,1.36,3.475,3.475,0,0,1-2.17.35q-0.84-.33-2.47-3.6c-2.62-1.66-4.02-2.44-4.2-2.36a7.152,7.152,0,0,0-6.53.31l0.21,1.75,8.93,17.82q2.235,4.47,2.14,5.62a18.681,18.681,0,0,1,3.09,2.17q1.4,0.78.51,2.34,10.86,21.69,15.22,37.72a50.779,50.779,0,0,0,5.63,13.9c0.1,0.2.67,2.02,1.73,5.46q9.12,6.195,10.11,6.82,3.465,1.605,5.65,7.95a11.3,11.3,0,0,0,.51,2.35,9.659,9.659,0,0,0,.62,1.91q1.575,5.16-.13,13.08-1.05,4.605-6.89,8.28,2.31-6.735,2.49-5.71c-0.14-1.17-.98-1.73-2.53-1.7-1.72.12-2.83,0.8-3.32,2.04a15.045,15.045,0,0,1-2.44,3.82q-1.395,2.55-5.26,1.52c0.65-1.82,1.02-2.87,1.1-3.15s-0.2-.4-0.83-0.33a3.031,3.031,0,0,0-1.49.37,3.951,3.951,0,0,0-.8,3.75q-3.975,6.075-6.11,7.15,1.155-1.695,1.39-5.9a65.11,65.11,0,0,0-.42-6.85,103.736,103.736,0,0,1-16.04,4.7l-1.76.5c2.72,1.86,4.26,2.94,4.64,3.25,0.65,0.42.54,0.85-.35,1.3a1.96,1.96,0,0,1-1.64.07c-0.28-.11-0.88-0.43-1.81-0.95a11.86,11.86,0,0,0-1.81-.95,0.037,0.037,0,0,1-.03-0.01c0.01,0.19.02,0.38,0.02,0.54,0,1.77-.8,2.66-2.39,2.66h-1.19a1.648,1.648,0,0,1-.32-0.04h0a1.815,1.815,0,0,1-.3-0.11h0a3.891,3.891,0,0,1-2.57,1.47c-0.81.16-1.34-.44-1.57-1.81a4.994,4.994,0,0,1,.06-1.89,8.127,8.127,0,0,1-1.7-1.38c-2.06.79-3.18,1.22-3.36,1.31q-6.18,2.355-8.38-1.37c-0.19-.39-0.37-0.74-0.53-1.07h0c0.15,0.58.29,1.14,0.43,1.67h0c0.02,0.08.04,0.15,0.06,0.23h0c0.4,1.6.72,2.93,0.96,4.01h0a0.3,0.3,0,0,0,.02.1h0c0.05,0.24.09,0.46,0.14,0.67h0a0.425,0.425,0,0,0,.02.11h0c0.05,0.27.1,0.52,0.13,0.74h0c0.02,0.09.03,0.18,0.05,0.26h0c0.03,0.23.06,0.44,0.08,0.62h0a4.541,4.541,0,0,1,.03.47v6.64c0,1.77-.8,2.66-2.39,2.66h-1.2a0.674,0.674,0,0,1-.3-0.08c-0.05-.03-0.09-0.08-0.14-0.11h0a2.1,2.1,0,0,1-.17-0.14,2.515,2.515,0,0,1-.19-0.24h0a1.092,1.092,0,0,1-.13-0.17h0c-0.08-.11-0.15-0.26-0.23-0.4h0a1.505,1.505,0,0,1-.1-0.17c-0.09-.18-0.18-0.39-0.28-0.61h0a0.488,0.488,0,0,1-.03-0.07h0c-0.11-.25-0.21-0.52-0.32-0.82h0a0.694,0.694,0,0,1-.05-0.13c-0.11-.3-0.22-0.63-0.33-0.97h0l-0.03-.09h0c-0.12-.38-0.24-0.78-0.36-1.21h0c-0.12-.43-0.25-0.89-0.37-1.37h0v-0.01h0a0.031,0.031,0,0,0-.01-0.02h0c-0.06-.26-0.13-0.54-0.2-0.82h0v-0.01h0c-0.12-.49-0.25-1.01-0.37-1.56h0l-0.09-.39h0c-0.1-.41-0.19-0.84-0.29-1.28h0c-0.04-.23-0.09-0.46-0.14-0.69h0c-0.12-.58-0.25-1.18-0.37-1.8h0v-0.01h0v-0.01h0c-0.1-.47-0.19-0.95-0.29-1.44h0v-0.01c-0.02-.13-0.05-0.27-0.07-0.4v-0.01h0c-0.16-.81-0.32-1.66-0.47-2.54h0c-0.01-.02-0.01-0.05-0.02-0.07h0c-0.18-1.02-.36-2.07-0.55-3.18h0v-0.01h-0.01v-0.01h0v-0.01h0v-0.01h0c-1.3.58-2.19,0.64-2.66,0.18l-3.39.76a5.516,5.516,0,0,0-.04-0.66c0-.02-0.01-0.04-0.01-0.06q-0.045-.375-0.12-0.81h0a0.09,0.09,0,0,1-.01-0.05,0.01,0.01,0,0,0-.01-0.01v-0.03q-0.09-.465-0.21-0.99a0.637,0.637,0,0,0-.02-0.07v-0.01c-0.09-.37-0.19-0.77-0.31-1.21h0a6.172,6.172,0,0,0-1.07.22q-0.27.135-2.64,2.07c-1.08-1.69-.54-3.07,1.6-4.15a12.666,12.666,0,0,1,1.27-.97h0c-0.1-.3-0.19-0.6-0.3-0.91v-0.01c-0.1-.31-0.21-0.63-0.31-0.95a0.037,0.037,0,0,1-.01-0.03c-0.11-.32-0.22-0.65-0.34-0.99v-0.01a0.035,0.035,0,0,0-.01-0.02q-0.18-.51-0.36-1.05h0v-0.01a0.01,0.01,0,0,1-.01-0.01h0q-0.2-.54-0.39-1.11h0v-0.01h0c-0.19-.52-0.38-1.06-0.58-1.61l-0.01-.01v-0.01h0c-0.41-1.12-.84-2.3-1.31-3.54h0a0.01,0.01,0,0,0-.01-0.01c-0.22-.6-0.45-1.21-0.69-1.84-0.02-.05-0.04-0.09-0.06-0.14-0.18-.47-0.37-0.96-0.56-1.45h0a0.037,0.037,0,0,0-.01-0.03h0c-0.19-.49-0.38-0.98-0.57-1.48h0l-0.01-.01h0v-0.02a0.01,0.01,0,0,1-.01-0.01c-0.2-.51-0.4-1.02-0.6-1.54l-0.01-.01v-0.01h0c-0.21-.53-0.42-1.07-0.64-1.61l-0.09-.24q-0.42-1.065-.87-2.19h0a19.923,19.923,0,0,1-2.42-1.94q-2.49-1.545-4.23-2.41h0c0.18,0.77.36,1.55,0.54,2.35,0,0.01.01,0.02,0.01,0.03l0.09,0.42a0.833,0.833,0,0,1,.04.15c0.14,0.6.27,1.2,0.42,1.82a1.163,1.163,0,0,0,.04.18,0.09,0.09,0,0,0,.01.05c0.01,0.04.01,0.07,0.02,0.1v0.01c0.02,0.09.04,0.18,0.06,0.26a0.076,0.076,0,0,1,.01.04,0.06,0.06,0,0,1,.01.04h0c0.02,0.07.03,0.14,0.05,0.2,0.12,0.54.25,1.08,0.37,1.63,0.06,0.25.12,0.5,0.17,0.75,0.02,0.06.03,0.12,0.05,0.18,0,0.02.01,0.05,0.01,0.07,0.13,0.54.25,1.09,0.38,1.64,0.02,0.08.04,0.16,0.06,0.25h0c0.03,0.12.05,0.24,0.08,0.36h0c0.03,0.15.07,0.29,0.1,0.44q0.195,0.825.39,1.68c0.01,0.04.02,0.09,0.03,0.14a0.02,0.02,0,0,0,.01.02v0.01h0v0.03a0.02,0.02,0,0,1,.01.02c0,0.01,0,.02.01,0.02v0.01h0c0.06,0.28.13,0.56,0.19,0.85q0.21,0.885.42,1.8c0.08,0.36.16,0.71,0.25,1.07q0.225,0.975.45,1.98c0.01,0.05.03,0.1,0.04,0.16l0.06,0.27c0.04,0.18.09,0.37,0.13,0.56,0.23,1,.47,2.02.71,3.05q-1.2,6.975-1.2,7.98l14.35,55.82v1.33c0,1.77-.8,2.66-2.39,2.66h-1.19q-4.485,0-11.96-37.22-2.1-.99-15.55-54.49-1.8,0-3.59-11.96a26.688,26.688,0,0,1-13.16,9.3,213.7,213.7,0,0,1-17.94,31.9H1159c-1.59,0-2.39-.89-2.39-2.66l11.96-31.9a1.9,1.9,0,0,1,.05-0.37,1.666,1.666,0,0,1,.06-0.29h0a4.1,4.1,0,0,1,.11-0.4h0c0.02-.09.07-0.19,0.1-0.29h0c0.04-.1.08-0.21,0.12-0.31h0c0.06-.16.13-0.32,0.2-0.49h0c0.06-.15.13-0.3,0.21-0.47h0c0.11-.24.24-0.51,0.38-0.79h0c0.01-.01.01-0.02,0.02-0.03h0c0.16-.32.33-0.66,0.53-1.02h0l0.06-.12h0c0.12-.22.25-0.46,0.38-0.69h0a0.147,0.147,0,0,1,.02-0.04h0c0.32-.56.66-1.16,1.04-1.8h0c0.02-.04.04-0.07,0.06-0.11h0c0.23-.39.48-0.79,0.73-1.21h0l0.15-.24h0c0.26-.42.53-0.86,0.81-1.31h0c0.06-.09.11-0.17,0.17-0.26h0q0.285-.465.6-0.96h0c0.07-.11.15-0.23,0.23-0.35h0c0.39-.62.81-1.26,1.24-1.92h0c0-.01.01-0.01,0.01-0.02h0c0.33-.5.66-1,1.01-1.52h0c0.08-.14.18-0.28,0.27-0.41h0c0.51-.77,1.04-1.57,1.6-2.39h0c0.01-.01.02-0.03,0.03-0.04h0v-0.01h0l1.16-1.71h0c0.23-.32.46-0.66,0.69-1,0.06-.09.12-0.18,0.19-0.28l0.21-.3,0.03-.06h0.01v-0.01h0.01q-6.48-9.4-9.44-14.66a10.14,10.14,0,0,0-3.95-6.56,3.618,3.618,0,0,0-.6-2.07h0c-0.64.56-1.27,1.15-1.9,1.76,0,0.01,0,.01-0.01.01l-0.27.27a0.121,0.121,0,0,1-.05.05c-0.5.5-1,1.01-1.51,1.54l-0.57.63c-0.42.46-.84,0.92-1.25,1.4-0.22.25-.44,0.52-0.66,0.78-0.39.46-.78,0.92-1.16,1.4a0.138,0.138,0,0,1-.03.04c-0.04.05-.09,0.11-0.13,0.17a0.7,0.7,0,0,0-.08.1c-0.02.02-.03,0.04-0.05,0.06s-0.03.03-.04,0.05-0.03.04-.05,0.06-0.03.04-.04,0.06c-0.09.11-.18,0.23-0.28,0.34-0.37.48-.74,0.98-1.12,1.48-0.13.17-.26,0.35-0.39,0.53-0.1.14-.21,0.27-0.31,0.41-0.37.52-.75,1.06-1.13,1.6-0.15.21-.3,0.43-0.45,0.65l-0.21.3a0.01,0.01,0,0,1-.01.01c-0.4.6-.8,1.21-1.21,1.83-0.1.16-.19,0.31-0.29,0.46a0.053,0.053,0,0,0-.02.03,0.55,0.55,0,0,1-.07.09,0.405,0.405,0,0,1-.05.09,1.629,1.629,0,0,0-.11.17,0.138,0.138,0,0,0-.03.04c-0.59.92-1.18,1.87-1.76,2.85q-18.24,30.57-19.14,30.57h-1.19l-2.4-1.33q0,1.995-4.78,5.31h-1.2c-1.6,0-2.39-.88-2.39-2.65v-1.33q12.855-22.59,16.75-34.56-10.47,11.97-15.55,11.96l-1.2-2.66v-1.32c0.78-1.3,1.54-2.58,2.3-3.87,0.64-1.09,1.28-2.17,1.91-3.25,0.05-.09.1-0.17,0.15-0.25h0a0.053,0.053,0,0,1,.02-0.03c0.04-.08.08-0.15,0.13-0.23h0l0.03-.06a0.405,0.405,0,0,0,.05-0.09c0.03-.04.06-0.09,0.09-0.14v-0.01c0.13-.21.25-0.42,0.37-0.63,1.33-2.29,2.64-4.55,3.9-6.79,0.09-.16.18-0.32,0.27-0.47,0.01-.01.01-0.02,0.02-0.03,0.05-.1.11-0.2,0.16-0.3a0.038,0.038,0,0,0,.02-0.02l0.03-.06a0.01,0.01,0,0,1,.01-0.01,0.035,0.035,0,0,1,.01-0.02l0.03-.06a0.147,0.147,0,0,0,.02-0.04c0.01-.02.03-0.04,0.04-0.06,1.2-2.13,2.37-4.23,3.52-6.32,0.13-.25.28-0.5,0.42-0.76q1.83-3.33,3.55-6.6c0.07-.14.15-0.28,0.22-0.41a0.488,0.488,0,0,1,.03-0.07,2.116,2.116,0,0,0,.11-0.21c0.02-.03.03-0.05,0.05-0.08a1.093,1.093,0,0,1,.08-0.15c0.02-.04.04-0.07,0.06-0.11a0.914,0.914,0,0,1,.07-0.14c1.16-2.21,2.31-4.41,3.4-6.57,0.01,0,.01,0,0.01-0.01l0.03-.06q1.65-3.255,3.2-6.43c0.14-.28.28-0.55,0.41-0.83,1.02-2.1,2.01-4.18,2.96-6.22l0.33-.72c0.97-2.09,1.91-4.15,2.8-6.18h0c-0.08-.51-0.19-1.01-0.22-1.53l-1.94-3.86q-6.585-20.49-5.51-17.68-4.47-12.255-10.99-27.94a323.406,323.406,0,0,0-14.05-29.38q-0.3-.6-3.28-6.53c-0.79-1.59-.97-2.62-0.53-3.08,0.59-1.04.15-2.81-1.32-5.29q-9.915-18.45-11.19-23.01-4.14-4.245-12.29-23.2a30.527,30.527,0,0,0-3.84-6.99,19.738,19.738,0,0,1-3.13-6.24,31.538,31.538,0,0,0-2.74-6.19q0.285,0.345.09-1.77a5.9,5.9,0,0,0-1.07-2.81,14.831,14.831,0,0,1-3.37-5.38,31.865,31.865,0,0,0-2.82-5.64,14.647,14.647,0,0,1-1.91-6.48q-0.99-7.305-3.13-9.58,1.575,1.8-6.76-14.826a8.428,8.428,0,0,1-.69-3.372q0.21-1.593-1.55-7.771-6.15-22.938-5.9-20.457a61.054,61.054,0,0,1-5.21-13.74q-3.105-12.2-3.88-14.411a56.364,56.364,0,0,1-1.61-5.883q-0.72-4.1-1.19-5.72-2.745-10.148-8.09-36.831l-0.74-1.485a265.675,265.675,0,0,1-6.36-31.379l0.17-15.692c0.07-2.513,1.54-4.488,4.39-5.918q0.435-9.139.41-9.868c0.11-1.544,1.66-2.691,4.63-3.436-1.05,1.025-1.47,1.977-1.25,2.854a2.454,2.454,0,0,0,1.61,2.54c-0.06-1.457-.6-2.3-1.61-2.54,1.33-.909,1.75-1.861,1.25-2.854a5.48,5.48,0,0,0,1.24-2.855q3.03,0.712,3.87,4.381,0.18,1.026,3.1,12.2c0.44,1.767,1.16,2.764,2.17,3q-2.1,1.8-.23,4.205a6.147,6.147,0,0,0,.21,1.754c0.3,0.594.89,0.669,1.78,0.221a1.167,1.167,0,0,0,.77-1.13l-0.21-1.753c0.08-.283.24-0.862,0.48-1.725-1.23-1.115-2.07-1.685-2.53-1.706l0.27-.134c0.44-.463.38-0.565-0.15-0.3l0.27-.134,0.26-.134,0.27-.134,0.27-.134c-0.54.268-.58,0.17-0.15-0.3l0.27-.134,0.26-.134,0.27-.134,0.27-.134,0.12-.431,0.27-.134c1.33,1.319,1.56,2.688.71,4.1a6.524,6.524,0,0,1,1.28,1.217c-0.1-.2.15,0.3,0.75,1.485,0.39,0.794,1.13.921,2.19,0.385,0.71-.356.95-1.459,0.69-3.315-1.4-5-1.86-8.6-1.41-10.816a10.455,10.455,0,0,0-.95-3.239,31.954,31.954,0,0,1-.72-4.178v-0.019h0s-0.01,0-.01-0.008v-0.022h0c0-.006-0.01-0.011-0.01-0.017V816.89h0c-0.34-1.15-.67-2.266-0.99-3.356v-0.008h0v0h0v0h0v-0.009c-0.01,0-.01,0-0.01,0v0h0v0c-0.02-.059-0.03-0.118-0.05-0.177h0c-0.15-.506-0.3-1-0.44-1.5v0h0a0.015,0.015,0,0,0-.01-0.016h0v0h0q-0.255-.889-0.51-1.752h0a1.245,1.245,0,0,1-.05-0.183h0c-0.58-2-1.13-3.886-1.63-5.656h0c-0.01-.033-0.02-0.064-0.03-0.1h0c-0.14-.484-0.27-0.959-0.4-1.425h0a0.586,0.586,0,0,1-.04-0.125v0c-0.12-.416-0.23-0.83-0.35-1.232h0c-0.02-.071-0.04-0.139-0.06-0.209h0c-0.21-.775-0.42-1.523-0.62-2.245h0a0.074,0.074,0,0,1-.01-0.045h0q-0.33-1.2-.63-2.294h0l-0.09-.336h0c-0.13-.482-0.26-0.951-0.38-1.4h0v-0.007h0v0h0c-0.05-.182-0.1-0.369-0.15-0.546h0v0c-0.05-.181-0.09-0.353-0.14-0.53-0.03-.13-0.07-0.264-0.1-0.391h0c-0.15-.592-0.3-1.155-0.43-1.692h0a0.257,0.257,0,0,1-.02-0.084h-0.01q-0.15-.641-0.3-1.228h0c-0.01-.029-0.01-0.059-0.02-0.088h0c-0.1-.392-0.19-0.769-0.27-1.125h0c0-.007-0.01-0.014-0.01-0.021h0c-0.04-.192-0.08-0.374-0.12-0.555h-0.01c-0.01-.068-0.03-0.138-0.04-0.2h0c-0.06-.251-0.11-0.489-0.16-0.719h0a0.017,0.017,0,0,0-.01-0.018h0c-0.24-1.156-.4-2.043-0.47-2.661h0c0-.021-0.01-0.04-0.01-0.06h0c-0.01-.1-0.02-0.2-0.02-0.282h0a2.306,2.306,0,0,1-.01-0.253c0.19-1.771.99-2.659,2.39-2.659h1.19q3.3,3.989,7.18,3.988,1.2,3.721,2.37,7.384h0v0h0v0h0v0h0v0h0v0h0v0l0.42,1.3h0v0h0v0h0s0,0,.01,0v0h0q0.825,2.594,1.65,5.16v0h0v0h0v0h0v0h0v0h0c0.18,0.556.36,1.115,0.54,1.67h0v0h0v0h0v0h0q2.145,6.7,4.21,13.215h0v0h0v0c0.16,0.49.31,0.978,0.46,1.467h0.01v0.006h0v0h0v0h0q2.115,6.679,4.16,13.164h0.01c0.08,0.281.17,0.559,0.26,0.84v0h0v0h0v0h0.01q1.05,3.351,2.09,6.647v0h0v0h0v0h0v0h0v0h0c0.02,0.072.05,0.145,0.07,0.217h0v0h0q0.975,3.09,1.92,6.138h0.01v0.014h0v0.011h0c0.16,0.294.3,0.571,0.42,0.826q0.75,1.491,9.74,20.766c1.1,0.433,2.18,2.126,3.21,5.079,0.19,0.536.37,1.06,0.55,1.589-0.4-1.411-.81-2.81-1.21-4.2a1,1,0,0,0-.05-0.162c-0.03-.119-0.06-0.234-0.1-0.352a0.252,0.252,0,0,1-.02-0.083c-0.04-.126-0.08-0.251-0.11-0.377-0.31-1.041-.61-2.078-0.91-3.1-0.14-.471-0.28-0.933-0.42-1.4-0.25-.872-0.51-1.745-0.77-2.606-0.04-.133-0.08-0.264-0.12-0.395-0.09-.3-0.17-0.588-0.26-0.883a2.687,2.687,0,0,1-.08-0.266c-0.24-.8-0.48-1.6-0.72-2.389-0.16-.538-0.33-1.07-0.49-1.6-0.23-.755-0.46-1.51-0.69-2.256-0.16-.546-0.33-1.085-0.5-1.626-0.22-.724-0.44-1.446-0.67-2.162-0.06-.207-0.12-0.411-0.19-0.618-0.1-.336-0.21-0.673-0.31-1.009q-0.33-1.05-.66-2.089v-0.01c-0.07-.21-0.13-0.418-0.2-0.627-0.1-.328-0.21-0.655-0.31-0.981-0.22-.679-0.43-1.354-0.65-2.026l-0.33-1.033-0.03-.109c-0.05-.151-0.1-0.3-0.15-0.454h0c-0.21-.663-0.43-1.321-0.64-1.976-0.09-.271-0.17-0.54-0.26-0.81-0.08-.253-0.17-0.507-0.25-0.759-0.21-.65-0.42-1.294-0.64-1.935v-0.023l-0.06-.166c-0.01-.024-0.01-0.047-0.02-0.07a0.158,0.158,0,0,1-.02-0.065c0-.005-0.01-0.01-0.01-0.015s-0.01-.031-0.01-0.047-0.01-.028-0.02-0.042V832.5l-0.03-.1v0l-0.03-.076c-0.1-.308-0.2-0.617-0.3-0.922-0.22-.639-0.43-1.272-0.64-1.9l-0.09-.263c-0.02-.054-0.03-0.107-0.05-0.161-0.08-.228-0.16-0.458-0.23-0.685-0.04-.127-0.09-0.255-0.13-0.381-0.21-.632-0.43-1.257-0.64-1.882-0.16-.479-0.33-0.96-0.49-1.435-0.22-.631-0.43-1.254-0.65-1.878a1.509,1.509,0,0,0-.07-0.194c-0.13-.391-0.27-0.783-0.4-1.169h0c-0.23-.646-0.45-1.282-0.68-1.919-0.14-.416-0.29-0.837-0.44-1.249-0.25-.7-0.49-1.383-0.74-2.069-0.12-.341-0.25-0.687-0.37-1.024-0.37-1.018-.74-2.025-1.1-3.019v-2.658a11.2,11.2,0,0,1,5.98-1.329l-1.2-6.646v-1.329a1.122,1.122,0,0,1,1.2-1.329q0-1-13.16-35.886l2.39-1.329h1.2q14.955,13.954,52.63,128.924,1.59,4.573,3.16,9.064h0c0.28,0.822.57,1.64,0.85,2.458h0v0l0.01,0h0v0h0v0h0v0.006h0v0c0.72,2.07,1.44,4.121,2.15,6.167h0v0.012h0v0c0.01,0,.01,0,0.01,0v0.02h0a0.07,0.07,0,0,0,.01.008h0v0.017c0.33,0.946.66,1.9,0.99,2.843h0v0h0q1.5,4.308,2.97,8.541v0h0v0h0c0.7,2.014,1.39,4,2.08,5.991v0.013a0.034,0.034,0,0,0,.01,0h0v0.02h0v0s0.01,0,.01.008v0h0v0.013a0.147,0.147,0,0,0,.01.013v0.02s0.01,0,.01.007v0.008c0.31,0.9.62,1.8,0.93,2.692h0v0h0c0.58,1.65,1.14,3.283,1.71,4.915h0v0h0v0.017h0c0.01,0,.01,0,0.01.008h0v0h0v0h0q1.365,3.935,2.7,7.811h0v0h0v0h0a1.372,1.372,0,0,0,.07.183v0.024h0c0.01,0,.01,0,0.01.006v0h0v0.013h0c1.01,2.929,2.02,5.834,3.01,8.708h0v0h0q1.02,2.941,2.01,5.842h0v0h0v0h0a0.017,0.017,0,0,1,.01,0c0.38,1.125.77,2.246,1.15,3.362h0v0h0v0h0.01q1.005,2.928,1.99,5.818h0v0h0v0h0l0.01,0h0c0.39,1.133.77,2.258,1.16,3.382h0v0h0v0c0.11,0.316.22,0.628,0.32,0.941h0v0c0.01,0,.01,0,0.01,0v0h0v0.006h0q1.275,3.742,2.54,7.424h0v0h0q0.975,2.824,1.92,5.611h0c0.43,1.264.86,2.514,1.28,3.766h0v0c0.01,0,.01,0,0.01,0v0h0v0h0v0h0v0c0.37,1.1.75,2.188,1.12,3.274v0h0v0h0v0h0c0.82,2.4,1.62,4.771,2.42,7.123h0v0h0v0a0.154,0.154,0,0,1,.02.064h0.01q1.155,3.411,2.28,6.751h0.01v0.01h0c0.26,0.77.52,1.54,0.78,2.3h0v0.01h0c0.49,1.45.98,2.89,1.46,4.32h0c0.2,0.59.39,1.17,0.59,1.76v0.01h0q3.93,11.64,7.53,22.44h0.01v0.01h0v0.01h0v0.01q1.17,3.495,2.31,6.92h0v0.01h0q5.76,17.34,10.62,32.34h0a0.01,0.01,0,0,0,.01.01h0v0.01h0c0.57,1.03.94,1.73,1.1,2.05,2.88,5.74,4.37,8.96,4.5,9.64q8.505,14.31,9.1,15.5,4.125,7.785,7.16,13.7c0.46-.63.95-1.29,1.48-1.99h0.01v-0.01h0c0.37-.5.76-1.01,1.16-1.54h0.01c0.07-.09.14-0.19,0.22-0.29h0c0.39-.52.8-1.04,1.23-1.6h0c0.22-.29.46-0.59,0.69-0.89h0c0.38-.49.77-0.99,1.17-1.51h0c0.42-.53.85-1.08,1.29-1.64h0c0.51-.65,1.05-1.33,1.6-2.02h0c0.24-.3.46-0.58,0.71-0.89h0c0.58-.74,1.2-1.51,1.82-2.28v-0.01h0.01c0.22-.27.42-0.53,0.65-0.81h0c0.17-.21.35-0.43,0.52-0.65h0c0.45-.56.91-1.12,1.37-1.7l0.01-.01c0.15-.19.29-0.37,0.45-0.56h0c0.16-.2.33-0.4,0.49-0.61h0c0.85-1.04,1.71-2.11,2.61-3.21a688.706,688.706,0,0,1,41.86-62.47q5.985-6.975,5.98-10.64l-64.58-55.818v-1.329q0-2.657,3.58-2.658,66.69,45.192,72.96,45.185h1.2v-3.98q-14.655-8.641-32.29-26.585V973q0-2.656,4.78-2.659l-3.59-5.316v-1.329q2.4-3.318,2.4-3.987-17.955-6.978-17.95-9.3v-1.329q0.3-2.656,2.4-2.659h2.39q21.225,8.971,61,31.9v-1.329l-28.71-23.924V951.73q0-2.657,3.59-2.658,30.195,18.612,32.29,18.607,20.925-27.576,23.92-45.19c2.4-3.54,3.99-5.316,4.79-5.316h1.2a2.447,2.447,0,0,1,2.39,2.658v1.329q-2.7,3.66-4.79,13.291h2.4l11.96-18.607h1.19c1.6,0,2.39,1.329,2.39,3.987q-3.585,12.631-3.58,13.291h1.19q1.5,0,13.16-19.936h1.19l2.4,1.329q0-1.993,8.37-9.3h1.2a2.447,2.447,0,0,1,2.39,2.658V909.2l-25.12,45.19h1.2q29.3-23.589,39.47-45.19h2.39a2.448,2.448,0,0,1,2.39,2.659v1.329a193.079,193.079,0,0,1-19.14,31.9q-18.24,30.9-33.49,53.165v1.329q53.835,39.873,127.98,103.672,34.68-160.493,74.16-287.09,26.31-68.781,26.31-83.734,7.77-19.6,13.16-23.924h1.19q2.4,0,2.4,3.987-14.355,34.89-22.73,87.722l-32.29,110.316q4.485-3.653,31.09-77.088,15.555-73.431,21.53-87.722h2.4a2.448,2.448,0,0,1,2.39,2.658v19.937h1.19q8.67-26.58,13.16-26.582,14.355-23.924,15.55-23.924h1.2q2.385,0,2.39,3.987,0,7.313-2.39,21.266v1.329h1.19q2.7-15.95,5.98-15.949h1.2a2.447,2.447,0,0,1,2.39,2.658V741.73q0,16.618-22.72,110.316Zm-5.98,219.3a23.557,23.557,0,0,0,15.55,11.97q-2.085-4.32-15.55-13.29v1.32Zm-17.94,2.66c0,1.33,1.6,3.11,4.79,5.32v-1.33q0-1.995-4.79-5.32v1.33Zm-108.84,39.88h-1.2v2.65h1.2v-2.65Zm-173.54,5.94,0.56,0.46,0.15,0.3-0.27.13a0.84,0.84,0,0,0,.69.03l-0.15-.3-0.15-.29c0.33-.67.18-0.97-0.45-0.89C1274.83,1262.79,1274.71,1262.97,1274.91,1263.37Zm-4.67-3.98c1.28,0.35,2.13.05,2.55-.91a3.542,3.542,0,0,0-1.4-4.13C1270.34,1255.37,1269.95,1257.06,1270.24,1259.39ZM1033.76,827.475a5.593,5.593,0,0,0,2.55-4.252A11.044,11.044,0,0,0,1033.76,827.475Zm10.92,49.162q-0.45-.891-2.21-10.415c-0.66-.414-1.25-1.6-1.79-3.565q-0.27-3.207-2.15-12.3a2.625,2.625,0,0,0-1.99-1.975c1.28-1.88.96-3.2-.98-3.966q3.615-4.787.22-10.893l-2.05-.087c-0.49,1.241-.69,4.19-0.58,8.842-0.22,1.351.49,2.108,2.14,2.272q-1.935,2.83,1.25,3.832a4.665,4.665,0,0,0-2.37,5.278q1.275,7.911,2.59,13.193-0.03-.723,3.58,13.817a5.256,5.256,0,0,0,2.17,3Q1045.78,880.167,1044.68,876.637Zm5.29-26.812-0.41-.163-0.12.431Zm-0.09-5.528a1.05,1.05,0,0,0-1.64.076,1.186,1.186,0,0,0-.77,1.13c-0.18.09-.06,0.533,0.33,1.322,0.04,0.974.5,1.234,1.4,0.786l0.77-1.13Q1050.855,844.921,1049.88,844.3Zm5.64-2.086c-0.19-.394-0.6-0.311-1.21.239-0.07.774-.01,1.116,0.17,1.025l1.22-.238Zm46.07,40.4h-1.19v2.658h1.19v-2.658Zm13.16,51.835q-5.985-27.91-11.96-47.848h-1.2v2.659q2.4,15.621,11.96,46.519h1.2v-1.33Zm1.2,3.988h-1.2V941.1h1.2v-2.658Zm1.19,3.987h-1.19v2.658h1.19v-2.658Zm8.94,145.4a15.455,15.455,0,0,0-2.89-7.1,25.679,25.679,0,0,1-4.88-12.42,2.06,2.06,0,0,1-1.31-1.95,9.278,9.278,0,0,1-3.04-4.05q-2.73-3.465-1.91-6.48-4.485-2.955-3.57-7.13l-1.04-2.08q-1.965-1.245-3.66-5.97a189.844,189.844,0,0,0-12.38-25.38,40.9,40.9,0,0,1-3.64-8.59q-2.325-6.63-2.95-8.554a23.887,23.887,0,0,1-1.07-2.808,16.818,16.818,0,0,0-.92-2.51q-1.92-3.138-6.17-16.98-0.18-1.023-5.27-11.853a1.669,1.669,0,0,0-1.69-1.381,3.054,3.054,0,0,0,1.12-2.423q-1.2-5.724-3.57-7.13c0.24-.862-0.18-1.025-1.25-0.489l0.42,0.163,0.83,0.326a4.821,4.821,0,0,0-.92,4.177c1.03,2.951,2.07,4.785,3.1,5.51a3.9,3.9,0,0,0,0,3.344,71.389,71.389,0,0,0,4.62,19.239q1.545,4.426,7.54,20.379,4.875,12.42,7.92,19.82,17.355,39.99,15.73,36.72,2.37,4.74,5.68,12.02a20.666,20.666,0,0,1,.66,2.64c3.94,5.21,6.16,8.06,6.63,8.57a41.294,41.294,0,0,0,3.27,3.19,6.049,6.049,0,0,0,2.2.38C1125.41,1089.4,1126.22,1089,1126.08,1087.83Zm29.2,121.02a1.166,1.166,0,0,1-.24-0.27h0q-1.455,2.82-2.61,5.37v0.01a0.01,0.01,0,0,0-.01.01h0c-0.37.82-.72,1.62-1.04,2.41a0.2,0.2,0,0,0-.04.08v0.01h-0.01v0.01h0c-0.31.74-.59,1.46-0.85,2.16-0.01.02-.01,0.03-0.02,0.05a0.142,0.142,0,0,0-.02.06,0.689,0.689,0,0,0-.04.1c-0.25.66-.46,1.29-0.67,1.91-0.01.04-.02,0.07-0.03,0.11a0.01,0.01,0,0,0-.01.01c-0.01.03-.02,0.05-0.03,0.08a0.564,0.564,0,0,1-.04.12c-0.18.57-.34,1.13-0.5,1.67a0.037,0.037,0,0,1-.01.03,0.292,0.292,0,0,1-.02.09c-0.03.1-.06,0.19-0.08,0.28-0.14.52-.26,1.02-0.37,1.51-0.03.14-.07,0.29-0.09,0.42-0.13.61-.23,1.21-0.31,1.78h1.2c0.07-.05.16-0.12,0.25-0.19h0a0.3,0.3,0,0,1,.08-0.08c0.06-.06.13-0.11,0.19-0.18a0.236,0.236,0,0,0,.05-0.05l0.06-.06c0.07-.07.13-0.14,0.2-0.22l0.04-.04c0.02-.03.05-0.06,0.07-0.09h0.01v-0.01h0c0.07-.09.15-0.17,0.22-0.26,0-.01.01-0.01,0.01-0.02,0.02-.02.03-0.04,0.05-0.06a0.053,0.053,0,0,0,.02-0.03c0.01,0,.01,0,0.01-0.01a0.138,0.138,0,0,0,.03-0.04h0.01v-0.01c0.08-.1.16-0.2,0.24-0.31a0.906,0.906,0,0,0,.11-0.16,0.038,0.038,0,0,0,.02-0.02c0.09-.12.18-0.24,0.27-0.38,0.03-.03.05-0.07,0.08-0.1a0.179,0.179,0,0,1,.05-0.07v-0.01c0.1-.14.2-0.3,0.31-0.45a0.219,0.219,0,0,1,.03-0.05,0.076,0.076,0,0,0,.02-0.04c0.02-.03.04-0.05,0.06-0.08,0.12-.18.25-0.37,0.37-0.57h0c0.01-.01.02-0.03,0.03-0.04a0.02,0.02,0,0,0,.01-0.02c0.02-.02.03-0.05,0.05-0.07,0.14-.23.29-0.47,0.45-0.71l0.03-.06c0.15-.23.3-0.48,0.45-0.74l0.02-.02c0.15-.25.3-0.52,0.46-0.78a0.138,0.138,0,0,1,.03-0.04c0.16-.27.32-0.55,0.48-0.83a0.01,0.01,0,0,1,.01-0.01,0.147,0.147,0,0,1,.02-0.04c0.17-.29.33-0.58,0.51-0.89h0v-0.01h0.01v-0.02c0.01,0,.01,0,0.01-0.01v-0.01h0c0.18-.3.35-0.62,0.54-0.94a0.02,0.02,0,0,1,.01-0.02c0-.01.01-0.02,0.01-0.03,0.18-.32.37-0.66,0.56-1v-0.01h0a0.038,0.038,0,0,1,.02-0.02v-0.01c0.19-.35.39-0.7,0.59-1.07v-0.01c0-.01.01-0.01,0.01-0.02,0.2-.37.41-0.75,0.62-1.14h0A22,22,0,0,1,1155.28,1208.85Zm119.74-231.867c0-1.329-1.6-2.658-4.78-3.987v2.658c1.19,0,2.79.888,4.78,2.658v-1.329Zm3.59,1.329h-1.2v2.658h1.2v-2.658ZM1213.43,1141.8c0.14-.24.3-0.51,0.47-0.81h0c0.01-.02.03-0.04,0.04-0.06h0c0.09-.16.19-0.33,0.3-0.5h0c0.11-.18.23-0.38,0.36-0.58h0q0.315-.51.69-1.08h0c0.01-.02.02-0.03,0.03-0.05h0c0.55-.84,1.18-1.79,1.9-2.84h0l0.03-.06h0c0.36-.52.73-1.06,1.13-1.63h0v-0.01h0c0.42-.61.87-1.25,1.35-1.93h0a0.834,0.834,0,0,1,.08-0.12h0v-0.01h0c0.46-.65.94-1.32,1.44-2.03h0c0.47-.67.97-1.37,1.48-2.08h0V1128h0.01c0.03-.04.05-0.08,0.08-0.12h0.01c0.52-.73,1.06-1.49,1.62-2.27h0c0.09-.13.18-0.25,0.28-0.38h0c0.56-.78,1.15-1.59,1.76-2.43h0a0.3,0.3,0,0,1,.05-0.07h0c0.63-.87,1.27-1.75,1.94-2.67h0l0.02-.02h0c0.01-.01.02-0.03,0.03-0.04h0v-0.01h0c0.71-.96,1.43-1.95,2.18-2.98h0.01V1117h0l0.02-.02h0v-0.01h0c0.76-1.02,1.53-2.08,2.33-3.16h0.01a0.351,0.351,0,0,1,.05-0.08h0.01c0.71-.98,1.45-1.97,2.21-2.99h0v-0.01h0c0.08-.11.16-0.22,0.24-0.32v-0.01h0.01c0.76-1.03,1.54-2.08,2.34-3.16q27.51-48.18,27.51-49.18h-1.19q-14.055,13.62-45.45,71.77a0.735,0.735,0,0,0-.26.09,0.405,0.405,0,0,0-.09.05,1,1,0,0,0-.14.08,0.219,0.219,0,0,0-.05.03,1.132,1.132,0,0,0-.13.1c-0.06.04-.12,0.1-0.19,0.15a1.848,1.848,0,0,1-.14.14l-0.2.2c-0.05.05-.1,0.11-0.16,0.17-0.04.05-.09,0.11-0.14,0.17a0.5,0.5,0,0,1-.07.08c-0.12.15-.24,0.31-0.37,0.48a0.1,0.1,0,0,0-.04.05c-0.02.02-.03,0.04-0.05,0.06a0.138,0.138,0,0,1-.03.04v0.01l-0.03.03c0,0.01-.01.01-0.01,0.02-0.09.12-.18,0.25-0.27,0.38a1.7,1.7,0,0,0-.1.14,0.351,0.351,0,0,0-.05.08c-0.1.14-.2,0.29-0.3,0.44-0.04.07-.09,0.14-0.14,0.22-0.11.17-.22,0.34-0.33,0.52a0.219,0.219,0,0,1-.03.05c-0.01.02-.02,0.03-0.03,0.05a0.052,0.052,0,0,0-.02.04,0.053,0.053,0,0,0-.02.03,0.01,0.01,0,0,0-.01.01c-0.57.93-1.2,2.03-1.88,3.3a0.01,0.01,0,0,0-.01.01c-0.17.32-.35,0.65-0.53,0.99a0.3,0.3,0,0,1-.04.08c-0.18.34-.36,0.69-0.55,1.06A16.974,16.974,0,0,1,1213.43,1141.8Zm11.36-37.22c-0.98,1.05-1.93,2.08-2.86,3.1-0.01.01-.02,0.03-0.03,0.04a1.92,1.92,0,0,1-.14.15c-0.19.22-.38,0.43-0.57,0.65-0.66.74-1.32,1.48-1.95,2.21-0.26.29-.5,0.58-0.75,0.88-0.61.71-1.21,1.42-1.78,2.11-0.21.25-.4,0.48-0.59,0.72-0.02.03-.04,0.05-0.06,0.08-0.59.72-1.17,1.44-1.72,2.14-0.07.08-.13,0.16-0.19,0.24s-0.14.19-.22,0.28c0,0.01-.01.01-0.01,0.02a0.01,0.01,0,0,1-.01.01,0.138,0.138,0,0,0-.03.04h0c-0.01.02-.03,0.04-0.04,0.06l-0.03.03h0c-0.57.74-1.13,1.48-1.67,2.21-0.07.09-.14,0.18-0.2,0.27a0.555,0.555,0,0,0-.06.08l-0.11.14a0.076,0.076,0,0,0-.02.04c-0.57.77-1.12,1.54-1.64,2.3a0.01,0.01,0,0,0-.01.01c-0.09.12-.17,0.24-0.25,0.36-0.56.81-1.09,1.62-1.6,2.41l-0.06.09a0.3,0.3,0,0,1-.05.07,0.052,0.052,0,0,1-.02.04c-0.54.86-1.06,1.7-1.55,2.54h0c0.6,1.3,1.07,2.39,1.42,3.25a3.268,3.268,0,0,1,1.18,1.58c0.3-.56.61-1.14,0.94-1.73h0v-0.01h0.01c0.47-.87.98-1.77,1.5-2.71h0.01c0.51-.92,1.05-1.86,1.62-2.84h0a0.035,0.035,0,0,0,.01-0.02h0c0.31-.53.62-1.07,0.94-1.62h0.01c0.33-.56.66-1.13,1-1.71h0c0.01-.02.02-0.03,0.03-0.05h0c0.31-.53.63-1.06,0.95-1.6h0.01a1.091,1.091,0,0,1,.06-0.11h0v-0.01h0.01c0.32-.55.65-1.1,0.99-1.66h0a0.142,0.142,0,0,0,.02-0.04h0.01v-0.01h0v-0.01h0.01c0.35-.58.71-1.18,1.07-1.78h0l0.24-.39h0.01v-0.01h0c0.36-.6.73-1.2,1.1-1.81h0.01c0-.01.01-0.02,0.01-0.03h0.01c0.37-.61.75-1.23,1.13-1.85h0c0.09-.15.18-0.29,0.27-0.44h0.01v-0.01h0v-0.01h0.01v-0.01h0.01v-0.01h0c0.26-.43.52-0.85,0.79-1.28h0c0.19-.3.38-0.6,0.56-0.9h0c0.49-.78.98-1.57,1.49-2.37h0v-0.01h0l0.01-.01h0c0.64-1.02,1.29-2.05,1.95-3.1h-1.19Zm22.72-45.19h-2.39v1.33h2.39v-1.33Zm23.92-33.23h-2.39q0,2.325-19.13,27.91h1.19q17.94-17.94,20.33-25.25v-2.66Zm1.2,50.51q0,2.655-10.76,18.6h1.19q4.485-1.65,11.96-18.6h-2.39Zm4.78-3.99h-2.39v1.33h2.39v-1.33Zm3.59-58.48h-2.39v1.33H1281v-1.33Zm2.39-7.98v2.66h2.4C1285.79,1007.11,1284.99,1006.22,1283.39,1006.22Zm14.36-19.933v2.658c1.59,0,2.39-.883,2.39-2.658h-2.39Zm7.17,69.113h-1.19l-20.34,38.55q0,4.32-16.74,46.51h1.2q6.57-7.635,41.86-81.07Zm47.85-79.746q0.885-2.991,13.15-22.6h-1.19q-9.27,5.654-13.16,17.278a11.42,11.42,0,0,1-1.2,5.317h2.4Zm-19.14-30.57q-16.755,26.587-16.75,31.9v1.329q19.14-24.921,19.14-33.228h-2.39Zm122,307.026h1.19v-5.32h-1.19v5.32Zm1.19-6.65h1.2v-5.31h-1.2v5.31Zm1.2-7.97h1.2v-3.99h-1.2v3.99Zm1.2-7.98v1.33h1.19l4.79-26.58v-1.33H1464Q1461.6,1210.25,1459.22,1229.51Zm7.17-31.89h-1.19v2.65h1.19v-2.65Zm5.98-1.33q0,3.99-2.39,15.95v1.33h1.2q4.77-12.96,4.78-14.62C1473.97,1197.17,1472.77,1196.29,1472.37,1196.29Zm7.18-10.64c0-1.33-1.2-2.65-3.59-3.98l-1.2,2.65v2.66c0,1.33,1.6,3.11,4.79,5.32v-6.65Zm51.43,35.89h1.2v-2.66h-1.2v2.66Zm-7.18-5.32c1.2,0,2.79.89,4.79,2.66v-1.33q0-1.995-3.59-3.98h-1.2v2.65Zm-1.19-29.24h1.19v-2.66h-1.19v2.66Zm0-208.668v-2.658h-1.2v2.658h1.2Zm-2.4,3.988h1.2v-2.659h-1.2V982.3Zm-3.58,227.28h1.19v-2.66h-1.19v2.66Zm-7.18,25.25h1.2v-2.66h-1.2v2.66Zm2.39-5.32v-2.65h-1.19v2.65h1.19Zm-8.37,31.9v-2.65h-1.2v2.65h1.2Zm-1.2,1.33h-1.19v2.66h1.19v-2.66Zm-2.39,6.65h1.2v-2.66h-1.2v2.66Zm-4.78-199.37v-2.66h-1.2v2.66h1.2Zm-1.2,2.66h-1.19v2.66h1.19v-2.66Zm-1.19,3.99h-1.2v2.65h1.2v-2.65Zm-1.2,5.31h-1.2v2.66h1.2v-2.66Zm-8.37,31.9q2.385,0,7.17-25.25v-1.33h-1.19q0,2.325-7.18,26.58h1.2Zm0-29.24h1.19v-2.66h-1.19v2.66Zm1.19-5.32h1.2v-2.65h-1.2v2.65Zm1.2-3.98h1.19v-2.66h-1.19v2.66Zm1.19-5.32h1.2v-2.66h-1.2v2.66Zm72.96-269.809h-1.19v2.658h1.19v-2.658Zm-1.19,5.316q-2.4,0-20.33,58.481-25.125,85.728-50.24,199.372v1.32h1.2Q1529.77,899.232,1558.49,805.527Zm-23.92,107.659h-1.2v2.658h1.2v-2.658Zm-11.96,58.481V973h1.19q0-1.993,15.55-51.836Q1528.88,938.107,1522.61,971.667Zm19.13-58.481h-1.19v2.658h1.19v-2.658Zm43.06-134.241h-1.19V781.6h1.19v-2.658Zm-2.39,5.317v3.987h1.2v-3.987h-1.2Zm-11.96,191.392q0,35.559-14.35,70.446l-4.79,17.28a11.411,11.411,0,0,1,1.2,5.31h1.19q19.14-57.81,40.67-166.137v-1.329h-1.2Q1570.445,970.674,1570.45,975.654Zm21.39-180.721,1.59,3.972a60.237,60.237,0,0,0,.94-6.669v-1.329h-1.2C1592.7,792.252,1592.26,793.594,1591.84,794.933Zm3.73-9.342h-1.2v2.658h1.2v-2.658Zm0,110.316h-1.2v2.658h1.2v-2.658Zm3.58-35.886h1.2q7.17-22.257,7.18-23.924-3,0-8.38,22.6v1.329Zm19.14-124.937q-14.355,15.95-14.35,41.2-1.5,0-3.59,19.937a67.75,67.75,0,0,0,14.35-42.532Q1615.9,753.692,1618.29,735.084ZM1036.9,814.246v0.134C1036.69,814.3,1036.69,814.257,1036.9,814.246Zm0.05-1.753a16.541,16.541,0,0,0,.06-1.887l-0.15-.3c0.36-.178.5-0.12,0.42,0.163-0.12,1.546-.14,2.177-0.06,1.887a4.244,4.244,0,0,0-.06,1.887c-0.11,0-.19,0-0.26,0Zm9.62,21.2-0.27.134Q1046.96,833.13,1046.57,833.69Zm150.97,482.21a1.462,1.462,0,0,1,1.16,1.64,3.069,3.069,0,0,1-1.27,2.13,0.84,0.84,0,0,1-.69-0.03,1.123,1.123,0,0,1-1.01-1.35,2.132,2.132,0,0,1,1.28-2.13Zm601.13-91.72q3.585,11.64,9.27,48.84V1279a25.4,25.4,0,0,1-3.59-.66,9.683,9.683,0,0,1-1.79-4.65q-3-19.275-3.29-23.26a68.1,68.1,0,0,0-2.39-12.3q-0.6-1.32-.6-5.64a16.207,16.207,0,0,0-1.49-5.99c-0.6-.66-0.3-1.66.89-2.99A16.979,16.979,0,0,1,1798.67,1224.18Zm729.43,18.27q1.5,4.665-3.29,13.63l0.3-1.66Q2525.71,1252.425,2528.1,1242.45Zm124.09-4.98a0.689,0.689,0,0,1,.3,1l-0.6.33-0.59-.67C2651.49,1237.47,2651.79,1237.25,2652.19,1237.47Zm13.46-3.99c0.4,0.45.3,0.78-.3,1a2.492,2.492,0,0,1-2.09-.33v-0.67Q2664.445,1231.17,2665.65,1233.48Zm15.55,16.28a55.226,55.226,0,0,0-1.5,9.97,24.833,24.833,0,0,1-1.49-7.64v-12.63a3.163,3.163,0,0,1,.89-2.65Q2683.285,1241.79,2681.2,1249.76Zm7.17,28.91a13.406,13.406,0,0,1,1.5,6.65,45.476,45.476,0,0,1-2.09-4.65q-0.9-2.655-1.5-4.32C2687.07,1276.35,2687.78,1277.13,2688.37,1278.67Zm69.97,53.5c0.8,0,1.5.88,2.1,2.66a2.134,2.134,0,0,1,.3,1.33l-0.9.33a1.919,1.919,0,0,1-1.5-.67c-1-1.77-1.09-2.88-.3-3.32A0.279,0.279,0,0,1,2758.34,1332.17Zm-100.96,333.88a1.009,1.009,0,0,0-.15.07l24.17,38.76h-26.96l-21.06-33.77c-0.36.01-.73,0.02-1.1,0.02h-21.7v33.75h-25.26V1584.34h46.96q14.565,0,25.1,5.25a38.127,38.127,0,0,1,16.28,15.07q5.73,9.81,5.73,23.25,0,13.6-5.73,23.33A37.2,37.2,0,0,1,2657.38,1666.05Zm-9.14-53.56q-5.895-5.415-17.36-5.42h-20.3v41.84h20.3q11.475,0,17.36-5.51t5.89-15.49Q2654.13,1617.92,2648.24,1612.49Zm-170-28.15h81.98v22.39h-57.03v26h50.36v21.87h-50.36v27.89h59.04v22.39h-83.99V1584.34Zm-40.6,117.44q-10.23,5.16-25.57,5.16a81.072,81.072,0,0,1-25.03-3.87q-12.015-3.885-19.3-10.08l8.53-21a57.33,57.33,0,0,0,16.42,9.04,55.946,55.946,0,0,0,19.38,3.53,34.667,34.667,0,0,0,12.01-1.73,14.709,14.709,0,0,0,6.74-4.56,10.639,10.639,0,0,0,2.17-6.63,9.461,9.461,0,0,0-3.41-7.66,27.044,27.044,0,0,0-9.07-4.65q-5.655-1.8-12.32-3.44t-13.4-3.96a51.575,51.575,0,0,1-12.4-6.2,28.035,28.035,0,0,1-8.99-10.16q-3.33-6.285-3.33-15.76a36.743,36.743,0,0,1,4.96-18.85q4.95-8.52,15.11-13.61,10.14-5.07,25.49-5.08a75.6,75.6,0,0,1,20.22,2.76,56.853,56.853,0,0,1,17.44,7.92l-7.9,21.01a59.915,59.915,0,0,0-15.04-6.98,51.644,51.644,0,0,0-14.87-2.32q-7.44,0-11.94,1.81a13.83,13.83,0,0,0-6.58,4.91,11.983,11.983,0,0,0-2.1,6.88,9.711,9.711,0,0,0,3.41,7.75,24.043,24.043,0,0,0,8.99,4.56q5.58,1.65,12.4,3.28a127.013,127.013,0,0,1,13.48,4.04,57.479,57.479,0,0,1,12.25,6.12,28.113,28.113,0,0,1,9.06,9.98q3.5,6.285,3.49,15.59a35.557,35.557,0,0,1-5.04,18.59Q2447.86,1696.615,2437.64,1701.78Zm-111.8-22.73H2275.6l-9.67,25.83H2240.2l48.2-120.54h24.8l48.66,120.54h-26.35Zm-25.12-67.13-17.2,45.95h34.4Zm-153.34-27.58h81.98v22.39h-57.03v26h50.36v21.87h-50.36v27.89h59.04v22.39h-83.99V1584.34Zm-51.3,120.54h-25.1v-97.81h-34.72v-22.73h94.54v22.73h-34.72v97.81Zm-191.23-120.54h25.26v97.81h54.09v22.73h-79.35V1584.34Zm-50.42,94.71h-50.25l-9.67,25.83h-25.72l48.19-120.54h24.8l48.66,120.54h-26.35Zm-25.13-67.13-17.2,45.95h34.4Zm-149.78,19.83v73.13h-24.79V1584.34h20.76l53.93,73.13v-73.13h24.8v120.54h-20.77Zm-78.72-47.41h25.26v120.54H1600.8V1584.34Zm-53.31,24.88a37,37,0,0,0-29.6-.51,32.855,32.855,0,0,0-11.24,8,36.062,36.062,0,0,0-7.28,12.23,48.443,48.443,0,0,0,0,31.08,35.854,35.854,0,0,0,7.28,12.31,34.12,34.12,0,0,0,11.16,8.09,33.693,33.693,0,0,0,14.18,2.93,39.615,39.615,0,0,0,14.49-2.75,37.125,37.125,0,0,0,5.04-2.46v-35.43h22.93v48.91a62.214,62.214,0,0,1-20.61,11.45,73.213,73.213,0,0,1-23.24,3.87,60.546,60.546,0,0,1-23.71-4.56,54.157,54.157,0,0,1-18.76-13,61.082,61.082,0,0,1-12.32-19.8,72.9,72.9,0,0,1,0-49.94,59.619,59.619,0,0,1,12.48-19.8,55.7,55.7,0,0,1,18.91-13,65.193,65.193,0,0,1,49.82.77,52.061,52.061,0,0,1,19.45,15.5l-15.96,16.53A40.373,40.373,0,0,0,1547.49,1609.22Zm-123.2-24.88h25.26v120.54h-25.26V1584.34Zm-47.89,120.54-21.05-33.77c-0.37.01-.74,0.02-1.11,0.02h-21.69v33.75h-25.26V1584.34h46.95q14.565,0,25.11,5.25a38.1,38.1,0,0,1,16.27,15.07q5.73,9.81,5.73,23.25,0,13.6-5.73,23.33a37.176,37.176,0,0,1-16.27,14.81,1.009,1.009,0,0,0-.15.07l24.17,38.76H1376.4Zm-6.2-92.39q-5.88-5.415-17.35-5.42h-20.3v41.84h20.3q11.46,0,17.35-5.51t5.89-15.49Q1376.09,1617.92,1370.2,1612.49Zm-101.81,76.89a55.969,55.969,0,0,1-18.83,13,62.752,62.752,0,0,1-47.19-.09,56.877,56.877,0,0,1-18.91-13.08,59.58,59.58,0,0,1-12.47-19.81,71.981,71.981,0,0,1,0-49.67,59.793,59.793,0,0,1,12.47-19.72,57.09,57.09,0,0,1,18.83-13.09,59.01,59.01,0,0,1,23.64-4.65,60.011,60.011,0,0,1,23.63,4.57,55.969,55.969,0,0,1,18.83,13,59.436,59.436,0,0,1,12.47,19.8,72.488,72.488,0,0,1,0,49.85A59.333,59.333,0,0,1,1268.39,1689.38Zm-11.08-60.36a38.1,38.1,0,0,0-7.21-12.22,32.59,32.59,0,0,0-10.77-8.09,31.353,31.353,0,0,0-13.4-2.84,31.453,31.453,0,0,0-24.26,10.93,38.84,38.84,0,0,0-7.13,12.22,48.9,48.9,0,0,0,0,31.17,38.778,38.778,0,0,0,7.13,12.23,31.6,31.6,0,0,0,10.77,8.09,32.042,32.042,0,0,0,13.49,2.84,31.5,31.5,0,0,0,13.4-2.84,32.59,32.59,0,0,0,10.77-8.09,38.04,38.04,0,0,0,7.21-12.23A48.9,48.9,0,0,0,1257.31,1629.02ZM2448.09,561.312c-6.74,11.477-18.84,7.156-30.63.386q-6.36-2.493-12.7-4.986c-1.8-.907-12.64-4.447-13.75-4.759q0.18,9.137.37,18.273c0.33,11.209.21,22.853-.61,34.587-0.74,10.562-3.08,18.479-13.36,17.852-9.14-.559-11.47-8.945-12.42-14.677-1.85-11.112-.16-23.477-0.34-35.583q-0.165-14.715-.33-29.434-7.71-2.365-15.44-4.733c-11.79-3.723-24.56-7.725-35.48-9.942-10.11-2.054-14.39-4.394-14.21-10.353,0.15-5.419,4.09-10.615,7.54-11.866,5.22-1.9,12.05.695,18.89,1.774q3.885,1.224,7.76,2.45l15.86,4.305q6.735,1.917,13.48,3.836l0.21-.214q-0.495-6.646-.97-13.294c-0.99-11.6-1.77-22.881-2.18-34.628-0.15-4.38-.39-14.275,4.69-16.118,1.2-.438,2.4-0.067,3.84-0.185,14.07,4.362,15.99,15.447,17.54,26.348,1.47,10.361,2.29,21.191,3.2,31.875,0.3,3.617.6,11.823,1.02,14.43,4,1.282,12.12,3.966,16.63,5.388q9.885,3.471,19.78,6.941,2.64,0.906,5.3,1.814c5.48,2.77,10.73,4.166,14.34,7.74C2448.73,551.118,2451.08,556.236,2448.09,561.312ZM1834.4,489.5c-144.13,15.571-285.26,57.018-420.87,125.7q-7.245-13.05-14.41-26.126c139.52-70.481,284.25-112.985,432.06-128.955,147.83-15.831,298.76-5.129,450.9,34q-4.215,14.3-8.52,28.593C2125.69,484.507,1978.54,474.068,1834.4,489.5Z"/>
</svg>
