<svg xmlns="http://www.w3.org/2000/svg" width="3840" height="1639" viewBox="0 0 3840 1639">
  <defs>
    <style>
      .cls-1 {
        fill: #fff;
        fill-rule: evenodd;
      }
    </style>
  </defs>
  <path id="witch-25_1" data-name="witch-25 1" class="cls-1" d="M3196.99,889.173c0.42-.945,1.28-0.945,2.56,0q-0.645,4.272-3.85,5.7A45.845,45.845,0,0,0,3196.99,889.173Zm-0.64-143.085v-1.424h1.28q0.63,0.719,3.84,3.56Q3197.63,747.523,3196.35,746.088Zm3.2,113.9V878.5l-1.92-1.423q-1.92-14.232,1.28-19.221Zm-3.2-9.254V842.19c0.42-3.793,1.28-6.407,2.56-7.83a13.152,13.152,0,0,1,.64,3.559v13.526a21.3,21.3,0,0,0-.64,4.271,1.751,1.751,0,0,1-1.28-.712l-1.28-.712v-3.559Zm640.08-254.849c0,0.957-.86,1.669-2.56,2.136q-7.7,4.27-11.53,9.254c-0.86.957-3.43,2.847-7.69,5.7q1.92-1.418-24.35,17.8a3.552,3.552,0,0,0-1.92,1.423,1.89,1.89,0,0,0,0,2.136c0.42,1.424,1.06,1.668,1.92.712q-0.645.717,3.2-1.424l18.58-12.1a1.806,1.806,0,0,1,1.29-.711,0.6,0.6,0,0,1,.64.711c0.42,0.479.42,0.712,0,.712q-3.855,3.572-4.49,4.272-26.28,19.936-31.39,23.491a17.1,17.1,0,0,0-3.85,4.271c-0.86,1.424-3.2,3.326-7.05,5.7a0.6,0.6,0,0,1-.64.712q-3.21,6.406-2.56,6.407a1.216,1.216,0,0,1-1.92.712,1.785,1.785,0,0,1-1.28.712,2.283,2.283,0,0,1-1.29,2.135l-0.64,1.424c0.85-.467,1.5-0.467,1.93,0a1.927,1.927,0,0,1,0,2.136c-0.86,1.9-1.93,3.092-3.21,3.559q-8.325,10.678-23.06,24.2a60.529,60.529,0,0,1-15.38,11.39q-0.645.719-17.94,10.678c-9.6,5.963-15.35,9.524-17.3,10.714q0.63,23.462.64,32V800.19q1.275,17.085,1.92,21.356c0.42,1.9,1.06,2.848,1.92,2.848,0.42,0,.85-0.946,1.29-2.848l0.64-2.847V796.631a67.149,67.149,0,0,1,1.28-11.39,81.049,81.049,0,0,0,1.28-12.1q1.275,1.435,1.92,6.407,1.92,28.48,1.28,22.78a67.935,67.935,0,0,1-1.28,18.508q-0.645,37.74-.64,40.577,0-1.419,1.28,33.457,0,2.136,1.92,9.967a43.05,43.05,0,0,1,1.29,7.83c-3,.478-4.49,1.424-4.49,2.848q0,14.248,1.28,19.932,2.55,11.4,7.05,55.526,0,2.135.64,8.542a70.035,70.035,0,0,1,.64,8.547c0.85,5.69.64,10.21-.64,13.52q-1.29,2.85-.64,14.24c0,3.8-1.5,5.94-4.49,6.4l-1.28,1.43a1.911,1.911,0,0,1,0,2.13v3.56q0.63,2.145,1.28,13.53,0,2.85.65,27.76,1.275,1.44,0,4.27a0.969,0.969,0,0,1,0,1.43l0.64,1.42-0.64.71a1.93,1.93,0,0,1,0,2.14l-0.65,4.27q3.21,35.61,3.21,42,0.63,1.44,0,10.68,0,3.57-.64,17.79c2.56,1.91,3.84,3.56,3.84,4.99a5.16,5.16,0,0,1,0,4.98q8.97,11.4,9.61,12.1a41.536,41.536,0,0,1,7.05,10.68,28.835,28.835,0,0,1,1.92,12.81,19.333,19.333,0,0,0,1.28,7.83q2.565,2.145,5.77,10.68,3.84,1.44,5.77,8.54,0.63,4.275,3.2,17.8a13.182,13.182,0,0,1,.64,2.85q-5.13,13.53-7.69,15.66a10.855,10.855,0,0,1-3.84-.71,16.745,16.745,0,0,0-3.85-1.43q-4.485,4.275-4.48,6.41l-1.92,11.39q-0.645,3.555-1.92,4.27-3.855,1.425-3.85,7.12,0,2.835-.64,12.1-0.645,7.11-.64,11.39a3.32,3.32,0,0,1-2.56,3.56c-2.15.95-3.21,2.85-3.21,5.7q0,15.645,3.21,25.62a160.933,160.933,0,0,1,7.69,22.07c0.42,1.43,0,2.37-1.29,2.85q-4.485,1.41-4.48,8.54c0,1.43-.43,2.14-1.28,2.14a12.247,12.247,0,0,1-1.28-12.1c0.85-2.38,0-3.81-2.57-4.28l-8.33-2.13q-3.21-2.85-3.84-2.85c0-1.42-.43-2.13-1.28-2.13s-1.28.71-1.28,2.13c-0.86-1.42-1.08-3.56-.64-6.41a68.926,68.926,0,0,0,.64-9.96c0-2.38-.64-3.56-1.93-3.56-4.4-.7-6.94-1.28-7.63-1.71a82.18,82.18,0,0,1-.05,13.81c-0.44,6.16,0,11.15,1.28,14.95l-1.28,5.69q1.11,6.855.76,7.71c1.23-.99,2.25-2.82,3.08-5.57q1.275-4.275,3.2-5.69l1.28,5.69a47.153,47.153,0,0,0-1.92,17.8c0,4.74,1.06,7.58,3.21,8.54a4.424,4.424,0,0,1,1.92,2.14q3.84,14.94,1.92,22.77a1.2,1.2,0,0,1-1.28,1.43,2.482,2.482,0,0,1-1.92-.71l-2.57-3.56a23.465,23.465,0,0,1-1.28-4.27,9.48,9.48,0,0,0-1.92-4.28,13.927,13.927,0,0,0-3.2,2.85c-0.86,1.43-1.72,2.14-2.57,2.14q-1.29,2.13,1.29,12.1l1.92,0.71c1.28,1.43,1.06,2.37-.64,2.85l-5.13.71c-4.27-2.38-7.05-3.32-8.33-2.85q3.84-1.425-15.38.72-0.645,1.41-1.92,0-4.485,10.665,2.56,14.23a2.4,2.4,0,0,1,.65,3.56q-1.935,4.275-3.21,4.27-7.68-8.535-8.97-9.96c-1.28-1.43-2.14-1.9-2.56-1.43l-0.64,2.85v4.27c0,1.43-.64,1.89-1.92,1.43-4.71-1.43-8.76-1.19-12.18.71a2.085,2.085,0,0,0-.64,1.42c0.42,2.37-.64,3.08-3.2,2.14q-7.7-2.145-11.54-10.68c0.42,0-.86-0.96-3.84-2.85a24.392,24.392,0,0,1-15.38-12.1c-4.7.47-7.27,1.42-7.69,2.85q-1.29,3.555-5.12,0a9.338,9.338,0,0,1-2.56-6.41q1.275-6.4,2.56-8.54c1.7-2.38,2.56-3.81,2.56-4.27a19.493,19.493,0,0,1,0-9.97c1.28-4.27,1.92-7.36,1.92-9.25a29.038,29.038,0,0,1,.64-6.41,29,29,0,0,0,0-12.1,95.022,95.022,0,0,1,0-15.66v-3.56a3.126,3.126,0,0,0-.64-2.14v-2.13l0.64-6.41q-1.29-42.015-1.92-39.15,0.63-2.145,0-2.85-5.76-12.12-1.28-32.03,3.2-10.68,2.56-15.67c0-3.31,1.28-5.45,3.85-6.4q1.275-1.425,3.84-4.27v-7.83q-1.29-3.555-3.2-23.5-1.29-11.37-1.28-16.37,0-7.83-4.49-7.83c-0.86,0-1.28-.71-1.28-2.14a46.791,46.791,0,0,1-.64-6.4q1.275-2.835,1.92-19.22,1.275-29.19,1.28-30.61v-7.83h-2.56q-10.26-1.425-30.11.71l-1.93-.71c0-.95.64-1.66,1.93-2.14q18.57-1.41,23.7-2.13,6.4-.705,7.69-6.41c-0.86-2.37-1.5-3.56-1.92-3.56q-3.84-4.98-4.49-8.54c-0.43-3.32-1.92-5.45-4.48-6.41-2.14-.95-3.2-2.85-3.2-5.69v-61.23q-1.935-23.49-2.57-35.59c-0.43-2.37-.64-3.31-0.64-2.85q-4.485-33.447-5.12-101.081V906.97a4.515,4.515,0,0,0-.64-2.847q-3.855-8.543-3.85-9.966v-12.1c-0.43-6.162-.64-9.966-0.64-11.39q0-1.419,1.28-17.085v-42l-2.56.712-26.91,14.949q-1.29.717-16.66,7.831l-10.25,6.406c-0.86.957-1.07,1.669-.64,2.136,0,0.478.42,0.712,1.28,0.712a4.583,4.583,0,0,0,1.92-.712q10.245-4.973,10.89-5.7a38.977,38.977,0,0,1,5.77-1.424c2.98-.945,5.13-1.657,6.41-2.135a7.624,7.624,0,0,1-2.57,2.847q-13.455,7.842-10.89,6.407a23.748,23.748,0,0,1-9.61,3.559q-18.585,9.26-19.86,9.966,0.63-.7-16.66,8.543-0.645.717-3.84,3.559-2.58,2.853-3.85,2.848c-0.86-1.424-1.71-2.136-2.56-2.136a56.064,56.064,0,0,0-9.61,5.7q-4.5,4.27-24.99,18.509c-0.86.478-2.35,1.19-4.49,2.135a28.7,28.7,0,0,1-3.84,2.848c-2.56,1.9-4.92,2.847-7.05,2.847-1.28,0-3.63.957-7.05,2.848a3.291,3.291,0,0,1-4.48-.712l-1.28-.712h-0.64l-0.65.712h-1.28q-0.645,1.434-6.4,4.983-1.29.717-12.82,6.407c-0.43,1.423-1.28,1.9-2.56,1.423a0.6,0.6,0,0,1-.64.712,0.6,0.6,0,0,0-.64.712l-0.64-.712-0.64.712-2.57.712-19.86,12.813a26.417,26.417,0,0,0-5.13,2.136h-0.64q1.275,14.249,5.77,46.983l1.28,8.543v4.271l1.28,4.983q1.275,2.848,2.57,13.529,4.47,44.835,4.48,42.71v6.41a5.554,5.554,0,0,1-.64,5.69c1.7,2.38,2.34,4.27,1.92,5.7a8.328,8.328,0,0,1,0,6.4v4.27a22.863,22.863,0,0,0,.64,4.99,12.317,12.317,0,0,1,0,7.83v18.51q1.275,4.26,0,10.67,1.935,8.55-1.92,14.95c-1.28,1.43-2.14,4.04-2.56,7.83a81.162,81.162,0,0,1-2.56,8.55v4.27q-3.855,20.655-5.77,27.76-3.84,15.66-9.61,25.63a19.4,19.4,0,0,0-1.28,7.83,28.272,28.272,0,0,1-1.93,7.83c0,1.42-.86,2.61-2.56,3.56q-10.26,30.615-11.53,33.45-0.645,1.44-5.77,17.09v2.85q-1.92,2.85-11.53,14.95c1.26,0-1.64,2.76-8.63,8.27-0.29-.84-2.31-3.35-6.11-7.56-1.28.94-2.14,2.85-2.56,5.69q-7.065,22.785-7.69,24.92-1.29,5.685-4.48,8.54,0-2.85,3.84-22.78,3.84-16.38,5.13-21.35v-14.95h-3.21a18.011,18.011,0,0,1-1.28,5.69,56.564,56.564,0,0,1-1.28,5.7q-2.565-2.835-1.28-9.97,0-1.425,3.2-17.09c0.85-3.31.85-5.69,0-7.11a2.528,2.528,0,0,0-2.56-1.43,1.2,1.2,0,0,0-1.28,1.43q-2.355,10.9-2.79,12.98c-2.82,10.88-4.04,18.21-3.62,21.9a13.182,13.182,0,0,1-.64,2.85,0.607,0.607,0,0,1-.64.71c-1.28.46-2.14,0.23-2.56-.71a12.5,12.5,0,0,1-.65-3.56q-0.645-6.42,1.93-17.09c1.7-7.58,1.06-13.05-1.93-16.37q1.29-15.66,1.29-14.95a21.094,21.094,0,0,1,3.84-14.24,21.123,21.123,0,0,1,3.84-14.24,3.032,3.032,0,0,1-.64-2.13v-1.43q3.855-29.9-1.28-67.62l-1.92-18.51-2.56-5.7q0.63-7.815-3.85-34.17a151.688,151.688,0,0,0-3.2-18.5q-2.565-13.515-3.85-17.8a6.7,6.7,0,0,0-4.48-5.7c0.42,3.81,1.06,9.02,1.92,15.67a43.912,43.912,0,0,1,1.92,9.96,106.045,106.045,0,0,0,1.93,10.68q1.275,5,1.92,17.08,1.275,15.675,4.48,22.78,2.565,39.165,2.57,42.72,0.63,28.47-2.57,43.42a34.186,34.186,0,0,0-4.48-2.14,27.881,27.881,0,0,0,.64-7.11,48.592,48.592,0,0,1,1.28-7.12q1.275-7.83-1.92-11.39c1.7-.95,2.56-3.08,2.56-6.41q-1.92-25.62-3.84-45.56c0-.47-0.64-3.31-1.93-8.54q-3.21,3.57-1.92,9.25,1.92,7.845,1.92,25.63c0.86,1.42,1.07,2.61.65,3.56a20.257,20.257,0,0,0,.64,5.69q-0.645-1.41,1.92,16.38c-3.43,2.84-4.49,6.65-3.21,11.39a50.735,50.735,0,0,0-1.28,7.83,42.473,42.473,0,0,1-.64,8.54c-0.86,3.33-3.84,5.23-8.97,5.69q0-3.54.64-15.66a69.87,69.87,0,0,0,.64-15.66c0-.94.42-6.4,1.29-16.37a8.225,8.225,0,0,1,1.28-2.14v-5.69l-0.64-6.41q0-4.26-1.93-17.79-1.29-10.68-1.92-17.8c-0.86-4.74-1.28-7.35-1.28-7.83,0.42-.95,0-5.45-1.28-13.53q-3.84-22.05-3.85-22.78a5.079,5.079,0,0,1,.65-4.27,0.6,0.6,0,0,1-.65-0.71q-2.565-3.555-3.2-12.81a9.487,9.487,0,0,1-2.56-.72h-1.92l1.28-10.67q-5.775-5.7-3.85-9.26,2.55-6.4-2.56-17.79a12.79,12.79,0,0,1-.64-3.56,43.509,43.509,0,0,0-1.28-8.55,27.649,27.649,0,0,1,0-8.538,42.564,42.564,0,0,0-4.49,2.847,1.213,1.213,0,0,1-1.92-.712,3.57,3.57,0,0,0-4.48-2.135q0.63,4.271,5.76,34.168-0.645-3.555,9.61,54.82,0,1.425,2.57,15.66,2.55,23.49,2.56,25.62,5.115,23.49,4.48,21.36-1.92,2.85-1.92,9.25v14.95c-2.56,0-3.84-.94-3.84-2.84a22.937,22.937,0,0,1,.64-4.99v-4.98q0.63-12.81-3.21-37.73-6.405-44.13-12.17-72.61-5.13-24.2-9.61-58.373c-0.82-5.447-1.29-8.758-1.41-9.96a17.2,17.2,0,0,0-6.92,1.417q-3.84.718-4.49,3.56a1.949,1.949,0,0,1-1.28,1.423q-8.97,4.989-14.09,4.272a0.6,0.6,0,0,1-.64-0.712,0.947,0.947,0,0,1,0-1.424l2.56-2.136c1.81-2.009,3.09-3.34,3.9-4.072a9.377,9.377,0,0,0-1.34-.911q-1.92-.7-1.92-2.135c-0.86-.467-3.2.245-7.05,2.135l-0.64,1.424c-0.43.957-.86,0.957-1.28,0-0.43,0-.86-1.179-1.28-3.559,1.28-3.315,1.7-5.45,1.28-6.407q0.63,2.136-1.92-11.39a2.108,2.108,0,0,1-.64-1.424q-6.42-2.135-7.69,2.848c-0.43,1.424-1.07,1.668-1.92.712a14.042,14.042,0,0,1-3.21-2.136,67.729,67.729,0,0,0,5.77-7.119,1.926,1.926,0,0,0,0-2.135h-3.84a0.6,0.6,0,0,1-.65-0.712c0.42-3.793,0-6.874-1.28-9.254l-0.64-.712q-1.92,1.434-1.92-2.136a17.508,17.508,0,0,1,5.13-9.254l1.28-2.848q0.63-7.824,5.12-12.1-1.29-4.973-2.56-5.7c-0.86-.467-0.86-1.658,0-3.56,0.85-1.423,1.7-2.135,2.56-2.135,2.14,0,3.63.478,4.49,1.424a9.424,9.424,0,0,0,2.56.711,13.049,13.049,0,0,1,4.49-.711,34.825,34.825,0,0,0,5.12.711,9.753,9.753,0,0,1,3.21-.711,8.058,8.058,0,0,0,6.4-1.424,31.889,31.889,0,0,1,7.05-2.136l1.92-.712h1.28a0.6,0.6,0,0,1,.65-0.712l3.2-.711a37.236,37.236,0,0,1,7.69-2.848,40.439,40.439,0,0,1,7.69-3.559v-9.254a70.211,70.211,0,0,1,1.28-14.95,17.155,17.155,0,0,0-1.92-12.1c0.85-.468.85-0.712,0-0.712q3.2-7.109-4.49-12.814v-1.424a29.247,29.247,0,0,0,2.56-7.118,29.15,29.15,0,0,1,2.57-7.831q-1.935-18.5-1.93-19.22,0-2.836-3.84-33.458l-1.92-4.271q-0.645-7.826-5.13-21.356h1.28c1.28,0.478,1.28.712,0,.712h0.64l2.57,0.711h2.56l1.28,0.712h1.28q-5.76-35.587-5.12-46.983a25.93,25.93,0,0,0-1.28-7.119c-1.72-3.314-2.57-5.695-2.57-7.118s0.85-3.793,2.57-7.119q2.55-4.972,1.92-7.83,0.63,3.57,1.92-13.526,1.275-19.219.64-20.644-1.92-9.243-1.28-34.882-1.29-2.135-1.92-10.678-3.855.718-4.49,3.56-5.13,12.113-5.12,12.813-9.615,29.9-11.54,54.1,0,3.572-.64,11.39-0.645,7.125-1.28,11.39a76.536,76.536,0,0,0,1.28,14.949q0.63,3.572,1.28,6.407-0.645-2.136,6.41,48.407,4.47,34.887,4.49,36.305v5.695q2.55,9.26,1.92,30.61l-1.92-4.271q-0.645-3.553-3.21-22.779v-5.7q0.63-5.69-1.92-8.543,0-1.417-3.84-33.458-2.58-17.785-5.13-33.457,1.275,7.124-3.2-42-0.645-7.824,1.92-25.627a258.213,258.213,0,0,1,15.38-58.373c1.98-4.766,3.05-7.384,3.25-7.9,0.86-1.838,2.76-2.778,5.72-2.778a68.012,68.012,0,0,1,.64-8.542,43.534,43.534,0,0,0,1.28-7.831q-1.29-3.553,0-5.695v-5.7q-1.92,3.572,2.56-26.339-0.645,4.272-3.84-13.525c0-.467-0.43-0.712-1.28-0.712-1.29.478-1.93,0.956-1.93,1.424l-2.56,4.983c-0.43-.467-0.64-1.891-0.64-4.271s0.21-6.641.64-12.814q0.63-7.826.64-12.814a24.782,24.782,0,0,0-.64-3.559c0-.945-0.86-1.424-2.56-1.424a4.154,4.154,0,0,0-3.21,1.424c-0.86,1.424-1.28,4.516-1.28,9.254a20.933,20.933,0,0,0-2.56-2.135,6.543,6.543,0,0,1-2.56-1.424q-8.34-6.406-.64-12.1a12.13,12.13,0,0,0,3.84-7.83q0.63-5.69,1.92-15.661,1.92-10.679,2.57-14.95,0.63-8.542,3.84-32.034c0-1.891.42-3.081,1.28-3.559q-2.565,1.435,10.25-11.39-0.645,2.136,4.49-11.39c1.28-2.369,4.26-3.559,8.97-3.559q3.2-2.136,21.14-2.848,1.275,2.853-1.92,4.984-1.29,4.27,1.28,9.966,0,0.717,3.85,9.966a8.832,8.832,0,0,1,1.28,2.135,8.188,8.188,0,0,0,.96,1.693q0-.26,2.88,1.867l1.28,3.559c2.14,6.652,1.7,11.635-1.28,14.949q1.92,12.112,2.56,13.526c0.42,1.9,2.14,2.847,5.13,2.847q5.115-9.96,2.56-18.508v-4.983c-1.28-1.424-2.14-3.793-2.56-7.119a61.019,61.019,0,0,0-1.28-9.254q-6.42-23.492-6.41-24.916,0-2.135-5.12-2.847,1.92-6.407,14.09-7.119,8.97-.7,8.33-7.119-0.645-5.688,0-6.406l0.46-.51q-0.135.782,6.59,2.645c5.13,0.957,7.26,1.424,6.41,1.424a7.388,7.388,0,0,0,6.4-1.424q7.05-5.69,4.49-10.678,8.97,4.989,10.25,17.085,0.63,9.976,7.69,14.237,0-.7,4.48,7.119a7.359,7.359,0,0,1-.64,7.831q2.565,21.356,1.93,19.932,2.55,4.989,0,16.373v4.983q4.47,2.136.64,4.271,0-2.136-.64,49.119,5.115,0,5.76-4.983,1.275-9.243,3.21-22.78c0-1.891.21-3.081,0.64-3.559a117.375,117.375,0,0,1,1.28,13.525q0.63,7.842.64,12.814-1.92,35.6,0,46.983-0.645,20.655-.64,22.068a8.394,8.394,0,0,0,3.2,6.407q3.2,2.853,6.41,2.135,8.97-1.418,21.78,2.136a33.632,33.632,0,0,0-.64,5.695q-10.905.717-12.81,5.7-3.21,2.853-6.41,9.254-3.21,7.125-5.12,9.254a25.924,25.924,0,0,1-1.29,7.119,7.1,7.1,0,0,0,7.69,3.559q5.13-12.813,5.77-14.237c1.28-3.315,2.98-5.695,5.13-7.119q5.115,5.706,2.56,10.678-1.92,3.572-1.28,15.661,0,2.136-2.57,20.645,0,4.988-2.56,22.779-1.29,13.532-1.92,22.068,0,10.678,3.84,17.8,5.775,12.813,3.85,32.746,0,3.57-3.21,8.542a43.582,43.582,0,0,0-4.48,19.221q0,5.706-5.13,48.407-0.645,6.406-4.48,21.356l12.17-6.407,16.66-10.678,1.92-.712q14.73-10.678,48.06-28.475l3.2-1.423,1.28-.712c2.13-3.315,3.42-5.217,3.85-5.695l6.4-2.848c2.57-1.891,4.27-2.847,5.13-2.847q0.63-.7,8.97-3.559l1.92-.712,1.92-1.424,16.02-7.831c2.57-1.423,4.06-2.847,4.49-4.271a1.2,1.2,0,0,1,1.28-1.424c1.7-.467,3.84-2.135,6.41-4.983q0.63,0,5.12-2.847,3.84-2.136,4.49-2.136,2.55-1.417,1.92-3.559c-0.43-1.891.64-3.559,3.2-4.983a57.107,57.107,0,0,1,7.69-3.56c2.13-.467,3.42-1.423,3.85-2.847s1.49-1.891,3.2-1.424c2.98,0.957,5.13.245,6.41-2.135a2.049,2.049,0,0,1,1.92-1.424c1.28,0,3.62-.945,7.05-2.848q1.275-.7,5.76-3.559a26.231,26.231,0,0,0,.64-5.7q-4.485,2.136-7.04,3.56-11.535,6.406-11.54,5.694-3.21,2.855-14.73,6.407a20.678,20.678,0,0,0-5.77,2.848q-1.92.717-3.84-1.424c0.85-1.891,1.7-3.081,2.56-3.559a4.583,4.583,0,0,0,1.92-.712,1.789,1.789,0,0,1,1.28-.712,8.183,8.183,0,0,0,1.28-2.848c0.42-1.423,1.06-2.135,1.93-2.135q8.31,0,5.76,1.424c0.85-.467,1.06-0.467.64,0,0.42-.946,3.21-1.891,8.33-2.848,2.13-.945,5.13-2.369,8.97-4.271l10.25-5.695a40.893,40.893,0,0,0-.64-7.119q-1.29-39.141-2.56-67.627l0.64-10.678V608.7a5.806,5.806,0,0,1-.64-2.136q-0.645-24.909-.64-30.61a151.231,151.231,0,0,0,0-27.763q-0.645-7.826,0-50.543a27.564,27.564,0,0,1,2.56-11.389,33.121,33.121,0,0,0,1.93-14.238q-4.5-2.837-2.57-5.695a10.275,10.275,0,0,0,2.57-7.118q0-9.243,1.92-14.238v-1.423c-0.43-.468-0.86-2.136-1.28-4.983q-6.42,2.135-8.33,11.389a33.918,33.918,0,0,1-.64,4.983,10.793,10.793,0,0,1-.65,4.272,39.5,39.5,0,0,1,1.29-19.933l0.64-.711V437.85a2.155,2.155,0,0,1-.64,1.423c-0.86-1.423-1.51-2.135-1.93-2.135q-1.29-2.836,1.29-4.271a40.538,40.538,0,0,1,10.25-4.272,2.155,2.155,0,0,0,.64-1.423v-12.1a5.165,5.165,0,0,0,0-4.983v-3.559a3.9,3.9,0,0,0,0-4.272v-1.423a5.166,5.166,0,0,0,0-4.983v-1.424q1.92-4.973,0-8.543V384.46c1.28-1.891,1.28-3.56,0-4.983v-2.848c1.7-.467,2.77,0,3.2,1.424V386.6q0,7.842.64,42v4.272c1.7,0.478,2.78,1.19,3.21,2.135a6.137,6.137,0,0,1,.64,2.136l0.64,0.712c0.42,0.478.85,0.956,1.28,1.423,2.56,0,3.84-1.179,3.84-3.559V386.6q0-18.5-.64-29.186c0-.468.42-3.793,1.28-9.966l-0.64-2.848q0.63-6.407,1.93-29.186-6.42-8.543-1.29-17.085a13.122,13.122,0,0,0,1.29-9.966h2.56q3.84,0.717,2.56-2.848l-1.28-3.559q-3.84.717-3.84,6.407-4.5,2.853-5.13,9.966,0-.7-3.2,18.508-2.58,26.344-3.21,31.322l-0.64,4.983c-0.86-.467-1.5-2.847-1.92-7.118V338.9q1.92-14.232,2.56-17.8a6.206,6.206,0,0,1,1.28-4.271q-0.645-2.837-.64-17.085c0.42-1.891,0-2.847-1.28-2.847-0.43,0-1.07,1.19-1.92,3.559q0.63,5.706-1.92,24.2-0.645,1.434-3.21,8.542h-1.28a0.6,0.6,0,0,1-.64-0.712q1.275-11.379,1.28-14.949,1.92-14.232,1.93-18.508l1.92-3.56a2.77,2.77,0,0,0-1.92-2.847c-2.57-1.891-2.36-3.56.64-4.983,1.28-.946,1.92-2.6,1.92-4.983,0-.946-0.22-4.5-0.64-10.678q4.74-9.117,5.71-10.782a5.521,5.521,0,0,1-.59-5.591h1.28q7.7,2.853,11.54,0,3.2-2.836,5.12,2.135l0.64,3.56c1.71-.946,2.57-2.6,2.57-4.984V227.137a4.728,4.728,0,0,0-1.93-.712q-1.29-14.232-1.92-15.661-0.645-7.826.64-10.678c0.42-.946.85-1.424,1.28-1.424s0.86,0.478,1.29,1.424V200.8a109.292,109.292,0,0,0,1.28,13.525,46.38,46.38,0,0,1,.64,12.814c0.42,2.847.64,4.516,0.64,4.983,0.42,0.957.85,1.424,1.28,1.424q1.92-1.419,6.41,3.559-0.645,4.272-2.56,14.237,1.92,12.114,2.56,15.661a2.762,2.762,0,0,0,1.92,2.848,40.521,40.521,0,0,0,3.2-4.271q-4.485-1.419-1.92-4.271c1.28-1.424,2.13-4.739,2.56-9.967q-0.645-1.417-1.28-9.966l-2.56-24.915q0.63-44.13-2.56-73.322c1.63-6.54,2.5-10.41,2.64-11.667,1.24,6.836,2.06,10.741,2.48,11.667,0.42,1.423,1.49,1.9,3.21,1.423q1.92,0,1.92-2.135a75.882,75.882,0,0,1,1.92-14.238,86.668,86.668,0,0,0,1.92-14.237l0.64-4.271c0.42-4.271,1.5-6.407,3.21-6.407,0.42,0,.64-1.179.64-3.559V85.475c0.42-1.424.85-2.847,1.28-4.271,0-.467.42-0.712,1.28-0.712a1.824,1.824,0,0,1,1.28.712c0.85,1.424,1.28,3.8,1.28,7.119q0.63,14.949,3.85,24.915,1.275,2.853,2.56,17.085-0.645-4.271,7.05,53.39a21.094,21.094,0,0,0,.64,4.271c0.42,1.9,1.28,2.614,2.56,2.136,1.65,0,2.5-1.116,2.56-3.346-0.05.16-.27-2.046-0.63-6.62q-0.66-9.961-3.21-39.153v-2.136c0.42-.945.85-1.423,1.28-1.423,0.85-.468,1.28-0.234,1.28.712a82.108,82.108,0,0,1,1.93,9.966q8.955,58.378,10.25,69.763a25.391,25.391,0,0,0,2.56,9.254q1.92,3.57,3.2,15.661a3.068,3.068,0,0,0,.65,2.136q5.76,9.26,5.12,8.542,1.92,2.136.64,4.271v1.424a6.255,6.255,0,0,1,1.28,4.271c0.85,0.957,1.5,1.669,1.93,2.136,0-1.891.42-3.081,1.28-3.56a3.592,3.592,0,0,1,2.56,1.424,32.7,32.7,0,0,1,2.56,8.543q7.695,20.655,15.38,54.1a199.457,199.457,0,0,1,4.49,34.169q0,1.436,2.56,37.729,3.2,46.282,3.2,46.983,0.63,7.125,0,38.441,0,12.112,3.21,36.305,5.115,41.295,5.76,56.95,0.63,2.853,3.85,48.407c0.42,3.8.64,5.939,0.64,6.407v4.983l6.4-2.848,5.13-2.135,1.28-.712,14.74-6.407q2.55-5.69,7.69-4.983,3.2,1.434,5.76-1.424l0.64,2.136c0.43,1.9,1.07,2.135,1.93.712l1.28-1.424a3.1,3.1,0,0,0-3.85-1.424,6.31,6.31,0,0,0-6.4-.712l-10.25,2.136-16.02,5.7-2.57.712c0-.468.85-1.424,2.57-2.848q0.63,0,3.84-2.135l8.97-2.848a6.688,6.688,0,0,1,3.21.712q0.63-1.419,7.68-4.983c1.29-.467,1.71-0.946,1.29-1.424a2.526,2.526,0,0,0-1.93-.712c-2.14,1.424-6.4,2.848-12.81,4.272q-0.645.717-5.13,0l-0.64-.712,0.64-.712q5.775-2.136,7.69-2.136c5.13-1.424,8.33-2.6,9.61-3.559h1.92a1.2,1.2,0,0,0,1.29-1.424q0-3.554,2.56-.712a2.464,2.464,0,0,0,2.56,0l5.77-2.847c3.86,0.333,6.03.666,6.59,1a2.437,2.437,0,0,1,2.38-1.707l0.64,0.712c0.42,3.8,1.28,6.406,2.56,7.83,1.7,0.957,1.92,2.136.64,3.56a4.06,4.06,0,0,1-1.28,2.135,3.738,3.738,0,0,0,3.21,0l3.2-1.423,10.89-5.7V608.7l7.05-4.983q3.84-2.837,5.77-2.136h0.64V603l-0.64.712a41.148,41.148,0,0,0-6.41,3.559,15.42,15.42,0,0,1-5.77,3.559,20.224,20.224,0,0,0-2.56,2.136c-0.43.478-.43,0.712,0,0.712q1.275,1.434,0,4.983l-8.33,2.136-6.41,5.7a2.3,2.3,0,0,0-1.28,2.135l3.2,0.712q-0.645-2.837,1.29-2.136,1.92,0.718,5.76-.711a45.787,45.787,0,0,1,4.49-3.56l12.17-7.83a290.376,290.376,0,0,0,35.24-19.221c4.7-.945,6.83-1.424,6.41-1.424-2.99,2.848-4.71,4.272-5.13,4.272a1.893,1.893,0,0,0,0,2.847c0.42,0.957.85,1.19,1.28,0.712a23.116,23.116,0,0,1,7.69-2.136q5.775-1.417,7.69-2.135l1.92-.712c2.57-.467,4.06-0.234,4.49.712l1.92-.712,7.05-2.848a2.458,2.458,0,0,1,1.92-.711,1.824,1.824,0,0,1,1.28.711A2.155,2.155,0,0,1,3836.43,595.884ZM3694.19,1202.4h0.64l7.05,9.96c-2.99-4.27-5.35-7.58-7.05-9.96a7.474,7.474,0,0,1-1.38-2.18A11.7,11.7,0,0,0,3694.19,1202.4ZM3159.82,954.665c-0.43.479-.43,0.712,0,0.712h0.64ZM3213,978.157h-0.64l0.64-.712a40.893,40.893,0,0,0-.64-7.119q-3.21,1.436-5.76,2.848h-3.85v3.559a8.3,8.3,0,0,1,3.85.712l-3.21,2.136a95.5,95.5,0,0,1,1.28,12.813v0.712a10.534,10.534,0,0,1,5.13-1.424q1.92,0.718,1.92-2.135V983.14l1.28-3.559v-1.424Zm17.3,13.525-1.92,2.136q-0.645,2.853,2.56,1.424A8.83,8.83,0,0,0,3230.3,991.682Zm3.87,43.458c-0.2,1.25-.63,3.84-1.3,7.8l3.2,2.13C3235.64,1039.43,3235.01,1036.13,3234.17,1035.14Zm30.64-584.282c-2.81,5.1-.45,8.127,7.14,9.06C3267.53,454.629,3265.17,451.637,3264.81,450.858Zm8.42,609.162a255.1,255.1,0,0,1-5.76-39.15q-1.935-7.11-2.57-10.68a2.1,2.1,0,0,1-.64-1.42c-2.56-.95-3.84-0.47-3.84,1.42l-0.64,3.56,1.28,4.27q6.39,44.85,13.45,64.78Q3276.445,1073.56,3273.23,1060.02Zm19.87,235.63c0.85,0.48,1.7.95,2.56,1.42q1.275-.705,0-2.13l-1.92-.71A2.17,2.17,0,0,1,3293.1,1295.65Zm3.2-8.54-1.28,3.56c1.7,0,2.77-.24,3.2-0.72C3298.64,1288.53,3298,1287.59,3296.3,1287.11Zm5.12-6.41v-0.71c-1.28,0-1.92.24-1.92,0.71l-1.92,2.14a24.593,24.593,0,0,0,4.49.71A4.506,4.506,0,0,0,3301.42,1280.7Zm11.54-879.156q-1.29-4.971-3.85-14.949a9.4,9.4,0,0,1-2.56-.712,0.6,0.6,0,0,0-.64.712q-0.645,19.938,2.56,27.763Q3313.6,403.679,3312.96,401.544Zm4.48,113.9V519a23.339,23.339,0,0,0-.64,3.559v2.847l0.64,0.712v2.136Q3323.215,521.851,3317.44,515.443Zm14.74,71.187a14.034,14.034,0,0,1-.64,1.25l1.92-2.674Zm0.64,538.88q-0.645,1.44-.64,6.41,0.63,4.275,1.28,26.34a1.776,1.776,0,0,1,1.28-.71l0.64-.71q0.63-21.36,3.21-29.19a3.076,3.076,0,0,1-.64-2.14h-5.13Zm201.83-420q8.325-3.553,7.69-3.56a33.57,33.57,0,0,0,.64-7.118c-2.14,1.423-4.92,3.092-8.33,4.983v5.695Zm10.25-220.679V474.155l-5.77-2.136q-2.565,5.706-1.92,14.238-3.21,35.6-4.48,72.61-0.645,17.085,0,21.356,0,8.543-1.28,10.678v0.712q1.92,3.57,1.28,10.678V620.8q0.63-8.542,1.92,67.627v7.119l7.69-4.272v-1.423q-1.29-27.764-1.92-22.068,0.63-17.785.64-19.221-0.645-1.418.64-4.271,1.275-2.837.64-10.678a303.311,303.311,0,0,1-.64-51.966,391.717,391.717,0,0,0,0-44.848q-1.29-13.514.64-21.356,1.92-8.543,2.56-25.627l-0.64.712A20.7,20.7,0,0,0,3544.9,484.833Zm4.49,90.407q-0.645,12.113-.64,12.814v22.779c0,5.7.42,9.255,1.28,10.678Q3553.225,595.885,3549.39,575.24Zm-10.26-313.222a0.728,0.728,0,0,0,.98.254C3539.85,262.212,3539.54,262.131,3539.13,262.018Zm1.93,13.526a2.061,2.061,0,0,0-1.93,1.424V279.1l1.29,1.424c1.28,0.957,1.92,0,1.92-2.848C3542.34,276.256,3541.91,275.544,3541.06,275.544ZM3556.9,483.2a6.413,6.413,0,0,1,.82-1.219A5.756,5.756,0,0,0,3556.9,483.2Zm2.1,13.019c-0.86-3.315-1.71-5.45-2.57-6.407a9.335,9.335,0,0,1,.1-5.794,24.266,24.266,0,0,0-1.38,6.506,1.48,1.48,0,0,1,.64,2.136,0.6,0.6,0,0,0-.64.711l0.64-.711c0.85,0.478,1.93,1.9,3.21,4.271,0.11,0.3.23,0.562,0.34,0.843A13.064,13.064,0,0,1,3559,496.223Zm30.11-128.136v0.006C3589.36,368.374,3589.38,368.393,3589.11,368.087Zm7.05,452.035a2.528,2.528,0,0,1-1.12-.267c0.32,0.3.69,0.623,1.12,0.979v-0.712Zm21.78,331.018a34.075,34.075,0,0,1-2.38-3.21c0.65,1.06,1.45,2.36,2.38,3.92v-0.71Zm10.26-694.07a3.054,3.054,0,0,1,2.81-1.881A2.916,2.916,0,0,0,3628.2,457.07Zm4.38-4.312,0.69,2.7c0.23,0.057.45,0.108,0.69,0.184h0.64C3633.78,454.5,3633.11,453.544,3632.58,452.758Zm12.27,1009.472-0.64.71a0.766,0.766,0,0,0,1.29,0Zm82.66-852.82a1.751,1.751,0,0,1-1.28-.712l-0.64.712-0.64.711c0,1.424.64,1.9,1.92,1.424A1.474,1.474,0,0,0,3727.51,609.41Zm6.41-4.272c-0.43.479-.43,0.712,0,0.712v-0.712ZM3287.33,1310.6c0.12-.1.22-0.18,0.34-0.27C3287.77,1310.62,3287.66,1310.72,3287.33,1310.6Zm-22.01-37.56c0.08-.3.14-0.58,0.22-0.88C3265.21,1273.63,3265.14,1273.91,3265.32,1273.04Zm-65.08-685.056a0.284,0.284,0,0,0-.05.07C3200.28,587.839,3200.29,587.833,3200.24,587.984Zm46.08-208.507a1.785,1.785,0,0,0,1.28-.712l1.28-.712h0.65A5.88,5.88,0,0,1,3246.32,379.477ZM3570.61,131.47c-0.03-.15-0.05-0.282-0.08-0.435C3570.63,130.925,3570.65,131.086,3570.61,131.47ZM3364.86,557.443c-3.43.957-5.13,0.245-5.13-2.135q0.63-4.272-5.12-12.1h5.12q10.245,1.435,8.33,8.542Zm-205.04-27.762c-0.43-.946-0.22-1.424.64-1.424a16.312,16.312,0,0,1,3.85-.712q5.115,2.136,5.12,5.7,0,2.853-5.12,9.254C3161.75,535.375,3160.24,531.1,3159.82,529.681Zm-270.05,29.186q-3.84,6.407-5.77,9.966l-5.76,8.543c-1.71,2.847-3.43,4.271-5.13,4.271q-2.565-17.085,12.82-31.322,3.84-3.553,16.01-18.509-1.29,7.125-7.04,17.8Q2892.965,553.183,2889.77,558.867Zm13.46,54.814c-3.43,1.9-5.13.712-5.13-3.56q-0.645-2.135,1.92-2.135a6.011,6.011,0,0,1,3.85,3.559Zm7.04-137.391q0.63-7.107,7.05-16.372-1.29,4.987-2.56,12.813a112.421,112.421,0,0,1-3.21,12.1Q2908.985,482.7,2910.27,476.29Zm21.79,145.221a1.465,1.465,0,0,1,.64-2.135l1.92,0.712v2.135C2933.76,623.18,2932.91,622.935,2932.06,621.511Zm193.5,348.815a84.116,84.116,0,0,0-5.77,14.95q-1.92,4.988-10.89,18.5a111.373,111.373,0,0,0-8.97,13.53q-1.92,2.85-4.49,7.12-3.21,4.98-4.48,7.12-8.34,14.25-17.94,27.76c-0.43.96-1.28,2.61-2.56,4.98a5.076,5.076,0,0,0,0,4.99c1.7,1.42,3.41.95,5.12-1.43q-1.29,1.44,4.49-6.4,12.165-15.66,14.73-19.23,15.375-21.345,14.1-20.64c0.85-.94,1.49-1.66,1.92-2.13s1.06-.47,1.92,0c0.85,0,1.06.71,0.64,2.13q-5.76,10.68-6.4,11.39-27.555,46.29-48.7,73.32a23.809,23.809,0,0,0-5.77,11.39q-1.29,4.275-12.17,16.38a2.292,2.292,0,0,1-1.28,2.13q-3.84,14.25-3.2,12.82c0,2.38-1.29,3.8-3.85,4.27-0.43.47-.86,0.95-1.28,1.42q0,2.85-3.2,4.98v3.56q3.195-2.13,4.48-1.42t0,3.56a21.8,21.8,0,0,1-5.76,9.25q-16.68,30.615-42.93,61.22a171.969,171.969,0,0,1-15.38,16.38,152.933,152.933,0,0,1-17.3,14.94q-3.21,2.145-9.61,7.12a86.636,86.636,0,0,1-9.61,7.12q-19.23,14.25-19.87,14.95l-12.17,8.54q-10.26,6.42-13.45,8.55c-3.43,2.37-5.99,4.02-7.69,4.98l-8.33,4.98q2.55-2.13-17.94,9.26-26.28,13.515-61.51,18.51-37.815,4.965-60.23,2.84a132.344,132.344,0,0,1-46.13-11.39q-4.5-1.425-21.79-10.68-14.745-11.385-19.22-15.66-32.67-28.47-53.82-70.47a81.14,81.14,0,0,1-5.13-10.68,396.037,396.037,0,0,1-21.78-75.46,45.782,45.782,0,0,1-1.28-9.96l-1.93-9.26q-0.645-5.685-1.92-15.66-1.29-9.96-2.56-31.32a417.119,417.119,0,0,1-1.28-44.14v-21.35q0.63-14.955,1.28-21.36,1.275-14.229,2.56-24.914l1.28-12.1,1.93-12.1q0-2.136,2.56-30.611c0.42-2.847,0-4.271-1.28-4.271-0.43,0-1.28.957-2.57,2.848l-1.28,3.559-3.2,16.373q-1.29,8.543-1.92,16.373a113.191,113.191,0,0,1-3.21,16.373q-3.2,12.813-3.84,17.8c-0.85-1.891-1.06-4.983-.64-9.255q0-4.27,1.28-17.084,1.29-13.515,1.28-17.8a92.917,92.917,0,0,1,5.77-26.339q7.68-39.86,12.81-58.373,1.92-8.543,5.77-23.492,3.2-16.368,5.12-23.492,0.645-2.835,1.93-14.237,0.63-8.542,1.92-11.39c3.41,0.478,5.34,0,5.77-1.424q6.39-19.92,7.68-27.762,3.21-23.493,18.59-75.458a108.443,108.443,0,0,1,3.84-11.39q1.92-7.109,3.2-11.39,3.21-11.379,8.33-17.085,2.565-2.136,8.33-17.085,3.21-7.107,8.33-6.406l2.56-.712c0-.946.22-1.424,0.65-1.424l1.28-2.848a3.1,3.1,0,0,1,.64-2.135q0.63-2.836,6.41-17.8,3.195-7.825,7.68-17.085l7.69-17.085a7.013,7.013,0,0,1,2.57-5.694,2.3,2.3,0,0,1,1.28-2.136,6,6,0,0,0,.64-2.136h0.64a2.956,2.956,0,0,1,1.28-2.847l3.2-4.271q12.165-29.181,23.71-53.39,0.63-1.419,6.41-12.1,3.84-6.406,13.45-21.356-1.92-5.689-1.28-7.831a18.171,18.171,0,0,1,3.85-7.118q-1.3-24.911-1.29-20.644a49.228,49.228,0,0,1,1.93-17.8q2.55-10.678,7.04-16.373a25.138,25.138,0,0,0,4.49-10.678q-1.29-4.272,2.56-16.373-2.565-4.972,1.28-14.949,1.29-2.837,10.9-22.78a17,17,0,0,1,1.92-4.271q14.73-11.379,19.86-11.39a10.705,10.705,0,0,1,3.2,4.271,30,30,0,0,0,2.57,4.271c4.69-.467,7.69-1.657,8.97-3.559q1.275-.7,10.89-9.966c2.56-2.848,4.49-4.027,5.77-3.559q4.47,1.434,9.61-4.984a117.123,117.123,0,0,1,10.25-11.389,80.042,80.042,0,0,0,10.25-12.1q3.2-4.272,5.77-2.136,3.84,2.136,8.33-2.847,16.65-19.922,23.7-33.458a222.748,222.748,0,0,1,21.15-33.458q3.195-4.27,5.76-2.847,4.485,2.853,14.74-4.271,3.195-2.836,4.49-2.136-6.42,11.4-16.66,16.373-5.775,2.136-3.85,7.83,1.275,3.571,3.85,10.678a49.238,49.238,0,0,0-.64,7.119q-2.58,2.136-1.28,3.559,1.275,1.435,3.2-1.423c-0.86,2.38-3.2,5.227-7.05,8.542q-5.13,4.272-11.53,9.966c-2.14,2.38-2.79,4.516-1.92,6.407,2.72,4.715,4.24,7.479,4.6,8.371,2.6-3.778,7.45-8.934,14.62-15.49q11.535-9.96,16.02-16.373,0.63-.7,8.33-4.983,7.74-8.084,9.26-9.22c-2.13.087-5.2,1.013-9.26,2.814q-6.42,3.57-9.62,2.847l6.41-7.119q10.245-4.971,26.91-16.373,11.535-7.824,12.82-12.813a9.281,9.281,0,0,1,3.2-4.271q21.78-15.651,40.37-17.8a2.53,2.53,0,0,1,2.56,1.424,1.474,1.474,0,0,1-.64,2.135,20.9,20.9,0,0,1-3.21,2.848,39.381,39.381,0,0,0-3.2,2.847c-0.86.957-3.2,2.38-7.05,4.271a15.585,15.585,0,0,0-6.4,4.983c0.85,0.957,2.77,1.424,5.76,1.424q4.485,0.717,5.13,2.848,0.63,0,19.86-7.119l1.28-2.136c2.13-2.369,3.85-2.6,5.13-.711a61.046,61.046,0,0,0,1.92,7.118q-4.485,8.542-1.92,11.39c1.7,2.38,2.56,5.7,2.56,9.966q0.63,8.542,1.28,9.966c1.7,0.479,1.92,1.424.64,2.848q17.31,4.271,21.79-4.271c0.85-1.891,2.56-2.136,5.12-.712,4.27,2.38,6.41,4.271,6.41,5.695a91.884,91.884,0,0,0-14.1,10.678q-2.565,1.434-1.28,2.847l3.85,1.424h5.76q2.565,0.717,1.93,2.847c-1.72,6.174-1.28,11.635,1.28,16.373q1.275,2.136,1.92,2.136c2.98,0,4.05,1.668,3.2,4.983q-2.565,8.542-12.17,12.814-1.29,2.135-2.56,4.271a42.167,42.167,0,0,1-8.97,20.644c1.28,5.7,2.56,8.787,3.84,9.254,2.13,1.424,2.56,3.8,1.28,7.119-1.28,2.38-2.78,3.559-4.48,3.559q-5.775-.7-7.69-2.135c-2.56-1.424-4.07-1.891-4.49-1.424-1.71,1.424-4.27,2.38-7.68,2.847q-5.775,0-7.69,1.424a20.9,20.9,0,0,1-5.77,2.848,17.137,17.137,0,0,0-9.61,6.406,100.909,100.909,0,0,1-11.53,10.678c-0.43,0-1.51.957-3.21,2.848l-1.28,1.424-1.28,1.423a50.9,50.9,0,0,0-5.13,4.983q-5.13,5.706-14.09,17.085-9.615,12.113-14.1,17.8c-1.28,1.424-1.92,2.38-1.92,2.847a39.536,39.536,0,0,1-8.33,17.8,88.368,88.368,0,0,1-14.1,13.526q-9.6,7.123-13.45,12.813-3.21,5.706-7.69,2.848l-7.05,1.423-5.12,7.831a80.313,80.313,0,0,1-6.41,13.525,49.825,49.825,0,0,1-3.21,7.119q-2.565,4.271-3.84,6.407a171.059,171.059,0,0,1-8.97,17.085q-5.13,7.84-.64,11.39c0.42,0.478.21,1.668-.64,3.559q-1.92,4.989-3.85,6.407-2.565,2.135-13.45,18.508,1.275-1.417-10.25,15.661-6.42,9.978-10.25,15.661c0,0.479-1.51,3.56-4.49,9.255l2.56,1.423q8.97,8.543,30.76,20.644l1.28,1.424c-0.43,1.424-1.28,1.669-2.56.712q-21.15-11.379-25.63-13.525-7.065-4.272-10.89,1.423c-0.87,3.326-1.08,4.983-.64,4.983q1.275,7.842-.65,12.814a9.052,9.052,0,0,0,1.29,9.254,7.793,7.793,0,0,1,0,8.543Q2811.6,650,2792.38,691.986q-10.9,29.9-14.74,41.288c-0.86,2.848-1.28,4.038-1.28,3.56q-5.76,23.492-17.94,59.085-14.745,46.283-17.94,57.661a46.994,46.994,0,0,0-2.56,8.543,23.318,23.318,0,0,0-.64,3.559q1.275,11.4,1.28,12.813-0.645.719-3.85,14.238-1.92,9.977-2.56,12.813-1.92,4.989-6.41,18.509l-1.28,4.983-0.64,4.271-1.92,9.254-1.92,9.967q-1.29,5.706-3.21,18.508-1.29,8.542,1.93,12.1,1.275,1.435,0,4.271a15.549,15.549,0,0,0-.64,7.831c0,0.948.2,3.519,0.63,7.728-0.05.32-.27,4.63-0.63,12.92-0.44,5.69-.65,8.78-0.65,9.25q0,5.7,3.21,7.12,5.115,1.44,5.12,9.25-0.645,10.68-1.28,16.38-1.29,5.7,1.28,8.54c1.29,1.9,1.06,4.04-.64,6.41q-4.485,7.83-.64,12.81a5.178,5.178,0,0,1,.64,4.27,8.381,8.381,0,0,0-1.28,6.41q-0.645-2.835,1.28,7.12a23.2,23.2,0,0,0,1.28,4.98l0.65,2.85,0.64,1.42v0.71a43.052,43.052,0,0,1,1.92,4.98q0.63,9.27,1.92,10.68c0.42,0,.21.71-0.64,2.14a9.213,9.213,0,0,0,1.28,6.41q1.92,2.85,6.41,11.39,4.47,7.11,7.05,12.1a34.376,34.376,0,0,0,7.68,8.54,10.508,10.508,0,0,1,2.57,2.13l2.56,0.72a37.286,37.286,0,0,0,5.77,1.42,34.49,34.49,0,0,0,5.12.71,34.238,34.238,0,0,1,4.49,2.14q3.84,3.57,12.17,3.56v-0.71h5.13l1.28-.72,1.92-.71a44.079,44.079,0,0,1,.64-7.83,5.4,5.4,0,0,0-6.4-1.42q-17.31-1.425-28.84-11.39l-6.41-6.41c-1.28-1.89-1.71-3.56-1.28-4.98h-0.64q-2.565.72-3.84-2.85c0-.95-0.64-2.14-1.92-3.56a7.308,7.308,0,0,1-1.29-3.56q-0.645-.7-5.12-14.24a28.364,28.364,0,0,1-2.56-7.11c0.42,1.9,0,.71-1.29-3.56a53.4,53.4,0,0,0-1.28-7.83,89.93,89.93,0,0,1-.64-9.97,37.95,37.95,0,0,0-1.28-10.68q-1.92-9.96,1.28-29.19a26.192,26.192,0,0,0,.64-5.69,48.587,48.587,0,0,0,.64-6.41c0-2.37,1.71-4.02,5.13-4.98a12.3,12.3,0,0,1,2.55,6.93c-0.06,0-.27,2.18-0.63,6.6,0,0.95,1.06,2.38,3.21,4.27q2.55,2.13,1.28,4.27,0,0.72-3.21,3.56a6.417,6.417,0,0,0-1.92,4.27,10.255,10.255,0,0,1-.61,2.26c0.36,1.17-.07,6.08-1.31,14.82a43.194,43.194,0,0,0,.64,16.38c0.85,6.65,1.7,10.67,2.56,12.1a49.073,49.073,0,0,0,1.92,6.4,62.651,62.651,0,0,0,5.64,11.86,34.186,34.186,0,0,0,1.41,4.52l0.64,1.42c0.42,0,.42.25,0,0.71q8.325,9.975,7.69,8.55a19.225,19.225,0,0,0,3.21,4.27,9.49,9.49,0,0,0,4.48,1.42c2.13,0.48,5.13.96,8.97,1.42a27.3,27.3,0,0,0,8.33,1.43q1.275,0,3.85,2.85,2.55,3.57,5.12,2.13,0.63-6.4,1.92-4.27c0.85,2.38,1.93,3.33,3.21,2.85a6.161,6.161,0,0,1,5.76,0,0.6,0.6,0,0,1,.64-0.71l0.64-2.14q-3.21-7.83-6.4-9.25c-1.13-.18-1.85-0.27-2.37-0.31,1.28-2.08,3.13-2.47,5.57-1.12v-2.13c0-1.43.42-1.18,1.28,0.71a76.688,76.688,0,0,1,6.41,12.1h0.64l1.28-.71,3.85-2.14,1.92-.71,1.92-1.42c2.13,0.48,3.62-.47,4.49-2.85l3.2-1.42q2.55,0,3.84-2.85a2.5,2.5,0,0,0,1.93-.71q2.55,0.7,3.84-2.14a1.776,1.776,0,0,1,1.28-.71c3.85-.47,6.62-2.14,8.33-4.98a0.606,0.606,0,0,1,.64-0.72c2.56,0.48,4.06-.46,4.49-2.84l3.2-2.14c1.28,1.9,1.28,3.33,0,4.27a29.614,29.614,0,0,1-7.69,5.7l-8.97,6.4-9.61,5.7-9.61,5.69-7.05,3.56-1.28.71a34.431,34.431,0,0,1,.64,4.99l-0.64.71-0.64,2.85c1.28,3.32,2.34,4.75,3.2,4.27l5.13-2.14,3.84-2.13a13.4,13.4,0,0,0,4.49-2.85q23.7-13.515,53.18-33.46,0.63-.7,8.97-5.69l2.56-2.14q-0.645,0,26.91-17.8,2.55-12.09,13.46-12.81,5.76,0,9.61-5.69l1.28,2.84c1.7,3.33,3.2,3.56,4.49.72q0.63,0,1.92-4.28-3.21-2.835-7.69.72c-3.85-1.89-8.12-1.43-12.82,1.42q-0.645.72-17.3,9.25-21.78,12.825-28.83,17.09l-5.12,2.13q0-2.13,4.48-6.4c0.42,0,2.56-1.43,6.41-4.27l16.66-9.26a6.629,6.629,0,0,1,5.12-.71q1.92-2.835,14.1-12.81c1.7-1.43,2.13-2.61,1.28-3.56-0.43-.47-1.71-0.24-3.84.71q-6.42,5.7-22.43,13.53c-0.86.47-3.84,1.19-8.97,2.13-0.43,0-.86-0.47-1.28-1.42-0.43-.47-0.43-0.71,0-0.71,6.83-4.28,11.53-6.88,14.1-7.84q12.15-7.1,16.01-10.67l4.49-.72c1.28-.94,1.7-2.36,1.28-4.27q0-5.685,4.49-2.84,2.55,1.425,5.12-1.43,12.165-10.68,8.97-7.83c7.46-1.32,11.72-1.93,12.93-1.87,0.49-2.58,1.71-4.35,3.73-5.25l0.64,0.71,0.64,0.72q3.195,10.68,8.33,11.39,5.775,1.425,2.56,7.12c0,0.47-.86,1.9-2.56,4.27a6.42,6.42,0,0,0,5.77-1.43,72.293,72.293,0,0,0,5.76-5.69q16.89-16.41,18.55-17.85l-1.25-2.08,11.54-14.24q5.115-7.83,8.97-9.26a2.481,2.481,0,0,1,1.92.72v2.13a2.164,2.164,0,0,0-.64,1.43q-2.565,2.13-9.61,11.38a83.787,83.787,0,0,1-9.61,11.39c-2.15,2.85-3.43,4.52-3.85,4.99a1.876,1.876,0,0,0,0,2.13q2.55,0.72,1.92,9.26l-14.09,9.25-10.89,14.24a8.106,8.106,0,0,0-1.29,4.27h6.41q-2.565-5.685,1.92-5.69c2.57,0,6.19-1.66,10.9-4.99q0-2.13,7.04-9.25,17.31-19.92,19.23-22.78,33.3-33.45,53.82-66.2a122.7,122.7,0,0,0,10.55-8.538c-3.62,7.606-5.66,11.893-6.07,12.809a3.558,3.558,0,0,0,1.92,4.271c1.29,1.424,2.35,1.424,3.21,0a138.32,138.32,0,0,1,12.17-11.39,162.653,162.653,0,0,0,12.82-12.1l3.2-3.56a4.066,4.066,0,0,1,1.28-2.135,8.226,8.226,0,0,1,1.28-2.136c1.28-1.424,2.78-1.179,4.49.712q0.63,0.717,3.84-2.847l10.25-13.526a12.36,12.36,0,0,1,3.21-3.559c0.85-.467,1.7-0.234,2.56.712,0.42,0,.64.711,0.64,2.135a27.378,27.378,0,0,1-3.84,7.831A136.221,136.221,0,0,0,3125.56,970.326Zm-456.2-19.932v0.712l-0.64.712a5.336,5.336,0,0,1,1.77.864l-1.13-1.576C2669.78,950.639,2669.78,950.394,2669.36,950.394Zm5.13-15.661a15.7,15.7,0,0,1-3.21,14.237Q2677.055,942.564,2674.49,934.733Zm367.77-698.342c0.85-.467.85-0.945,0-1.424-0.43-.467-0.64-0.233-0.64.712Zm-248.6,323.9v-9.966q4.47-4.272,3.85-9.255,0.63,4.989-3.85,8.543a0.6,0.6,0,0,1-.64.712Q2793.02,552.46,2793.66,560.291Zm-44.21-140.238v16.373h0.64Q2749.445,426.465,2749.45,420.053Zm0.64,17.085h-0.64a10.773,10.773,0,0,1-.1,3.358A14.818,14.818,0,0,0,2750.09,437.138Zm-10.89,731.8a32.463,32.463,0,0,1-1.91-3.54c-0.36-.41-1-1.11-1.94-2.16l-1.28-2.85-3.84-5.69c-1.71-3.31-2.99-5.22-3.85-5.69a26.812,26.812,0,0,0,1.93,7.11,31.9,31.9,0,0,0,1.92,3.56,31.9,31.9,0,0,0,1.92,3.56q4.47,7.125,9.61,9.26C2740.48,1170.61,2739.62,1169.42,2739.2,1168.94Zm44.21,25.62a0.6,0.6,0,0,0,.64.72Zm1.92,0.72c-0.43,1.42-.86,1.66-1.28.71a9.427,9.427,0,0,1-3.2,4.27,12.764,12.764,0,0,0-3.21,5.69,12.917,12.917,0,0,1,3.85-5.69c2.13-1.42,3.41-2.6,3.84-3.56a5.215,5.215,0,0,1,2.47-1.1A9.611,9.611,0,0,0,2785.33,1195.28Zm36.52-22.78-0.64.71a1.776,1.776,0,0,1,1.28-.71h-0.64Zm4.49,119.59c0.42-3.31-.64-5.22-3.21-5.69,2.14,0.47,2.99,2.61,2.57,6.4l0.64-.71v2.14q1.275-1.425,3.2-3.56c1.28-.95,1.92-1.66,1.92-2.14Zm119.81-221.39q-0.645-.705-1.92,0l-1.92.71-0.64,2.14c0.42,2.38,1.7,2.61,3.84.71A2.409,2.409,0,0,0,2946.15,1070.7Zm10.26-11.39c-0.43.96-.22,1.42,0.64,1.42Zm-237.71-56.24a0.375,0.375,0,0,1-.01-0.1C2718.69,1002.92,2718.7,1002.95,2718.7,1003.07Zm23.69,40.39a0.448,0.448,0,0,1,.01.19C2742.4,1043.58,2742.39,1043.52,2742.39,1043.46Zm7.57,86.79a1.112,1.112,0,0,1,.13.25C2750.04,1130.41,2750.01,1130.33,2749.96,1130.25Zm47.1,14.89c-0.06.1-.13,0.19-0.2,0.31C2796.06,1145.15,2796.2,1145.07,2797.06,1145.14ZM3082.93,980.3c0.12-.246.22-0.464,0.34-0.716C3083.5,979.581,3083.37,979.834,3082.93,980.3ZM2871.19,225.713a1.748,1.748,0,0,1-1.28-.712q-1.92-2.836,2.56-11.39a15.071,15.071,0,0,1,3.84-2.847c0-.467.86-0.467,2.57,0a5.166,5.166,0,0,1,0,4.983Q2875.025,225.725,2871.19,225.713ZM2642.14,46.323l3.21,2.136-3.85,1.424ZM1699.63,429.307l-0.64,2.136-2.56,1.424-1.28-.712c0-.946.86-1.891,2.56-2.848h1.92Zm-23.37-49.83q3.2,0,5.12,3.559,3.21,4.27-4.48,6.407l-6.41,2.847-2.56-.712-0.64-.712q2.55-7.107,3.2-7.83A6.191,6.191,0,0,1,1676.26,379.477ZM2674.82,46.323l-6.41,2.136-1.28-1.424-0.64-4.271,3.84-4.983q2.565-4.972,1.29-6.407c-0.87-.945-3-0.945-6.41,0l-3.21.712-4.48-.712c0,3.326-.86,5.228-2.56,5.695l-1.93-5.695-6.4,3.559c-1.72.957-2.57,2.614-2.57,4.983,0,1.424-.86,2.38-2.56,2.848a2.2,2.2,0,0,0-.64-1.424l-2.56-.712q-3.855-.7-4.49,2.848V44.9a0.962,0.962,0,0,1,0,1.424q-0.645,7.124-7.05,6.407c-2.56,0-5.98.957-10.25,2.848q-0.645.717-12.17,4.271-5.145,1.435-4.49,8.542,4.485,2.853,6.41,2.136a7,7,0,0,1,2.56-4.271,2.968,2.968,0,0,1,3.85,0,3.515,3.515,0,0,1,.64,3.559q-0.645,3.57-5.77,4.983c0.42,2.847,2.13,3.8,5.13,2.847a10.841,10.841,0,0,1,5.12-4.983c3.85-2.369,7.47-2.6,10.9-.712q9.6,4.989,11.53,9.966,3.2-.7,12.81-6.407,1.29-1.418,1.29,0l1.92,7.831a0.6,0.6,0,0,0-.64.712h1.28c-0.43-.467-0.43-0.712,0-0.712l3.2-2.136a17.381,17.381,0,0,1,7.69-5.695c1.28,1.9,2.13,2.847,2.56,2.847q2.565,0.717,1.93,5.695a1.8,1.8,0,0,1-1.29.712l-3.2,2.847-3.2,3.559,1.92,7.119-12.82,7.119a14.455,14.455,0,0,0-3.84,2.135,40.923,40.923,0,0,1-8.97,7.119c-1.71.956-1.92,2.136-.64,3.559q3.2,3.57-1.92,6.407a4.238,4.238,0,0,0-2.57,2.136c-1.71.956-2.14,2.135-1.28,3.559a2.038,2.038,0,0,0,1.93,1.424q9.6,0,14.73-1.424a24.184,24.184,0,0,1,10.25-.712q3.21,0.717,1.93,6.407-1.935,2.136-9.62,4.271c-0.86,1.9-3.84,4.038-8.97,6.407q-8.97,4.989-10.25,5.695l-5.76,1.424c-1.29-1.424-2.15-1.18-2.57.711q-18.585,13.531-23.7,15.662a24.353,24.353,0,0,1-10.25,3.559l-8.98,6.407q2.565,7.123-2.56,13.525-4.485,4.272.64,6.407c1.7,0.957,1.28,1.668-1.28,2.136a15.009,15.009,0,0,1-5.12.711c-2.15,0-3.64.479-4.49,1.424q-3.84,3.57-17.94,7.119a502.581,502.581,0,0,0-55.74,18.508q-38.445,14.95-60.23,19.933-27.555,7.124-32.04,8.542a222.668,222.668,0,0,1-21.78,6.407q-15.375,3.57-21.79,5.695-9.6,2.853-13.45,2.847-2.565,0-12.18,4.271l-9.61,4.984q-3.21-5.69-12.17-1.424a2.449,2.449,0,0,1-1.92.712q5.76,0-24.99,5.695a11.259,11.259,0,0,0-5.13,3.559l-1.92.712c0.42-2.369,1.28-3.793,2.56-4.271a67.28,67.28,0,0,1,9.61-4.271c2.14-.946,4.91-2.136,8.33-3.56q6.405-1.417,8.33-2.847L2336.51,267c3.42-1.423,5.77-1.89,7.05-1.423q2.55,0.717,18.58-7.831l0.64-2.847h-1.28l-4.48.712q-26.91,9.26-28.19,9.966-4.5,1.434-16.66,5.7-10.26,4.27-16.02,6.406-1.29,0-16.66,4.272c0.42,0,.21.244-0.64,0.712a10.891,10.891,0,0,0-.64,4.271q-4.5,32.751-6.41,53.39-3.21,34.887-10.89,118.17-7.065,74.044-8.33,135.966,0,17.8-1.28,46.984-1.29,34.887-1.28,46.271-0.645,4.989,0,26.339a225.374,225.374,0,0,1,0,24.2,330.3,330.3,0,0,0-.64,37.017q1.92,30.615,1.92,65.492,0,30.615,2.56,44.135a133.011,133.011,0,0,1,.64,14.238,746.556,746.556,0,0,0,7.05,92.542,113.172,113.172,0,0,1,.64,13.528q1.92,27.765,5.77,37.01-8.985,4.995-8.97,17.8-0.645,14.955-1.28,34.17-0.66,9.975-8.33,9.26h-2.57a150.975,150.975,0,0,0,0,19.93q1.275,14.25.64,20.64a62.879,62.879,0,0,1,.64,19.93c0-.46.21,1.43,0.65,5.7q1.92,38.445,0,57.66,1.275,7.845-.65,22.07,0,1.425-1.92,13.52l-1.92,32.75q-1.29,19.92-1.28,21.36-3.84,59.07-3.85,58.37-0.645,11.37-2.56,33.46-2.565,22.05-2.56,32.74-1.29,27.765-8.97,112.48-2.565,29.895-2.56,32.74a31.856,31.856,0,0,1-3.21,12.82q-3.21,9.24-3.84,12.1c-0.43,1.42-1.07,1.89-1.93,1.42a2.3,2.3,0,0,1-1.28-2.13,83.1,83.1,0,0,1,.64-10.68q1.29-22.08,1.29-19.93,0.63-5.715.64-23.5v-22.77q0.63-19.23,0-17.09,0.63-11.4.64-14.95,0-7.845,1.28-54.1,1.92-83.295,1.92-93.26,0-.7.64-22.78c-0.86-9.49-1.28-14.48-1.28-14.94v-19.94q0-12.09-.64-19.93,0-4.965-2.56-19.22-1.29-5.685-5.13-2.85v40.58l0.64,5.69c0,8.07-.22,12.57-0.64,13.53q-1.92-.72-3.84-12.81l-0.64-7.12a17.565,17.565,0,0,0-2.57,9.25l-1.28-8.54q-0.645-6.4-1.28-43.42c0-1.9-.22-5.22-0.64-9.97q-1.92-21.36-2.56-25.63,0-4.275-2.57-4.27t-3.84,4.27c-0.43.96-.64,2.85-0.64,5.7q-0.645,7.125-1.28,23.49-0.645,15.66-1.28,24.2l-0.65,5.7q0,7.125,1.29,21.35,0.63,14.235,1.28,21.36,1.92,6.4,2.56,23.49,3.2,13.515,7.69,46.98,0,4.275,1.28,15.67,1.275,10.665,1.92,16.37,1.275,7.83-1.92,17.79c-0.86,3.32-2.56,3.8-5.13,1.43-1.28-1.71-2.01-2.72-2.22-3.06-3.24-2.52-5.28-1.3-6.1,3.77a23.342,23.342,0,0,0,0,7.83q4.47,64.77,6.4,76.88,3.2,23.49,9.61,31.32a3.911,3.911,0,0,1,0,4.28c-1.28,1.42-2.14,1.89-2.56,1.42a24.179,24.179,0,0,1-4.48-4.27q-4.5-4.995-6.41,1.42a2.528,2.528,0,0,1-2.56,1.43h-8.33c-0.87,3.31-1.29,8.06-1.29,14.23a118.327,118.327,0,0,1-.64,14.95v2.85q0,12.09-2.56,9.97-1.29-2.145-.64-9.97a62.953,62.953,0,0,1-1.28-6.41q-3.84-12.81-5.13-32.03c0-2.38-.86-5.46-2.56-9.25a31.914,31.914,0,0,1-1.92-9.97q-0.645-12.12-3.85-19.22a47.2,47.2,0,0,0-1.28-7.12q-9.615-54.105-12.17-85.42-0.645-4.275-3.21-18.51a119.1,119.1,0,0,1-1.92-19.22q0.63-2.865-2.56-37.02v-19.22c-0.43-.96-1.28-2.61-2.56-4.98l1.28-5.7c-0.86-9.96-1.5-15.19-1.92-15.66,0-3.33-.65-5.46-1.93-6.41l1.93-2.13a66.082,66.082,0,0,0-1.29-9.97,7.685,7.685,0,0,1-2.56,2.85c0.42,5.23,1.06,8.54,1.92,9.97q-2.565,16.365,2.57,27.05c-1.29,1.42-3.21,3.31-5.77,5.69q-1.92-13.53-2.56-43.42-1.92-20.64-2.57-22.78-0.645-7.11-3.84-8.54c-1.28-.47-2.14-3.09-2.56-7.84q-5.775-66.9-6.41-78.3-3.84-56.235-7.69-140.95c0-4.74-.22-7.35-0.64-7.83q-2.565-5.685-3.2-29.9,0-37.724,1.92-116.035,0-9.96,3.84-148.78V710.5q0.63-9.961.64-15.661,0-6.408-3.84-6.407a12.747,12.747,0,0,1-8.97-3.559q-8.985,0-17.3-15.662l-14.74-27.05a33.826,33.826,0,0,1-3.84-11.39q-1.29-8.542,0-4.271-3.84-20.64-12.18-27.763-9.6-7.825-17.94-36.306a7.068,7.068,0,0,1-.64-4.983q1.275-46.266,2.57-53.39,1.92-9.96,2.56-13.525-8.985-8.543-10.89-28.475-1.92-15.649,5.76-24.915,1.275-2.136,6.41-9.254a11.629,11.629,0,0,0,1.92-8.543c-0.86-3.315-.86-5.695,0-7.119q3.855-6.406,1.28-19.932v-3.559h-1.28a13.484,13.484,0,0,1-7.69,4.983l-25.62,8.542q-5.775,3.572-8.33,4.272-10.26,6.406-14.74,7.118-0.645,0-10.25,5.695a77.678,77.678,0,0,1-10.9,6.407q-21.135,9.26-28.83,14.949-2.565,2.136-4.48,2.136a34.162,34.162,0,0,0-10.9,2.847h-6.4l-8.97,5.695q-10.9-4.27-11.54-4.983-5.13-2.136-11.53,0a30.837,30.837,0,0,1-17.3.712l-9.61,4.271c-2.56,1.9-4.06,2.848-4.48,2.848a178.673,178.673,0,0,0-22.43,8.542q-5.13,2.853-7.69-.712a3.094,3.094,0,0,0-3.84-1.424q-10.26,4.272-8.33,2.848-3.855,2.136-37.81,13.525a229.218,229.218,0,0,1-37.8,9.966h-5.12q-3.855-.7-1.93-4.271,7.065-9.243,14.74-8.542c0.42,0,3.62-.467,9.61-1.424q9.615,1.435,24.35-3.559,39.72-14.949,42.93-15.661l1.92-.712q-0.645-1.419-7.05-2.136l-11.53,4.983q-21.15,4.989-17.3,2.848-0.645,1.434,15.38-9.254,3.195-2.136,3.84-2.136,1.92-1.417,1.92-2.136c-0.43-1.423-1.71-1.891-3.84-1.423q-5.775,2.135-13.46,4.983c-5.12,2.38-9.19,3.325-12.17,2.847l-2.56,1.424-5.77,1.424q-2.565-1.419-9.61,0l-3.2-2.136c-2.57.957-4.28,2.136-5.13,3.559-3.84.957-6.84,0-8.97-2.847q-5.775-8.543-15.38-4.983-18.57,7.124-29.47,5.7c-0.35-.383-3.03-0.127-7.97.757-1.07,1.352-3.42,4.407-7.08,9.209q0,8.543-7.68,21.356-1.935,2.853-4.49,1.424-7.065-3.555-14.1,4.271a6.355,6.355,0,0,0-2.56,1.424q1.275,2.853-1.28,13.525c1.67,2.474,1.31,5.656-1,9.528,3.8,0.814,5.79,1.442,5.79,1.862l1.28-.712h5.13c0.86,0,1.28.245,1.28,0.712a3.069,3.069,0,0,1-.64,2.136,9.976,9.976,0,0,0-2.56.711,3.49,3.49,0,0,1-1.92,1.424,39.548,39.548,0,0,0-5.13,4.271c-2.13,2.381-2.77,4.272-1.92,5.7,0.43,0.957,1.92,1.19,4.48.712,2.15-.467,3.21,0,3.21,1.424q0.645,1.434-1.29,4.271a4.325,4.325,0,0,1-1.92,2.136q-13.23,1.918-20.77-1.349a27.466,27.466,0,0,0-.68,9.179q1.92,23.492,2.56,38.441,0,0.717.64,12.814a38.686,38.686,0,0,1-.64,18.508q2.565,4.989.64,8.543,1.29,14.949,0,71.9,0,2.853-2.56,38.441,0.63,2.136.64,22.78,0,4.27-1.92,44.847a4.7,4.7,0,0,1,0,5.695q5.115,12.114-1.92,19.933,1.92,6.407,1.28,31.322,0,4.271-6.41,1.424c-2.14-.946-4.48-0.234-7.05,2.135q1.29,2.853,3.21,22.78,1.92,18.519,3.2,42.712,1.92,34.17.64,29.9,0.63,2.853,1.28,7.831a49.149,49.149,0,0,0,1.29,7.83q3.84,16.385-3.85,27.051a36.741,36.741,0,0,1-3.2-2.847c-3.43-1.891-5.56-2.848-6.41-2.848-0.86.479-1.28,1.9-1.28,4.275q-0.645,5.7,10.25,10.67l0.64,0.72q-8.985,4.98-7.05,11.39,3.21,14.94,3.21,15.66,10.125,33.09,11.49,53.62,0.18,0.51,7.73,55.29,5.115,37.74,12.81,96.11,1.275,9.975-1.28,12.81,1.275,45.57,1.28,49.12,0,7.11-.64,22.78-0.645,14.94-.64,22.78,0,0.69,2.56,27.05,1.935,18.495,1.93,22.78,0.63,6.4-1.93,10.68-1.92-5.715-9.61-21.36-6.4-13.53-8.33-22.07c-0.43-4.27-.86-6.65-1.28-7.12q-4.485-5.7-7.69-22.06c-1.28-3.81-2.78-5.7-4.48-5.7-2.56,0-3.85.95-3.85,2.85v3.56a13.843,13.843,0,0,1-1.28,3.56q4.485,2.835,2.57,8.54h-0.65l-0.64-.71h-2.56c-1.28-.48-1.28-0.71,0-0.71h-2.56c1.28,0,1.28-.25,0-0.72h-0.64c0.85-.47,1.92-2.38,3.2-5.69-1.28-1.43-2.14-2.38-2.56-2.85l-1.28-3.56a2.527,2.527,0,0,0-2.57-1.42c-2.14,0-3.2.71-3.2,2.13a13.191,13.191,0,0,0,1.28,3.56q-1.29,6.4,4.49,7.83c-1.72,1.43-2.15,4.03-1.28,7.83q5.115,24.2,5.76,26.34,1.92,7.83-3.2,12.1a11.9,11.9,0,0,0-5.13-4.27q0-3.57-5.12-4.27c1.7-1.42,1.92-3.56.64-6.4-1.71,2.36-1.92,4.5-.64,6.4,0.42,1.89,2.13,3.32,5.12,4.27-6.4,1.43-10.47.72-12.17-2.13q-0.645-1.44-10.25-18.51-10.26,0-14.1-7.12l-15.38-29.9a568.226,568.226,0,0,1-17.94-66.2v-3.56q-15.375-56.22-19.86-78.31-0.645-3.555-3.2-12.1a119.163,119.163,0,0,1-2.57-12.81q-0.645-4.98-6.4-31.32-3.855-19.23-3.21-31.33,1.92,4.995-8.33-44.84-2.565-13.515-4.48-16.38a18.15,18.15,0,0,1-1.92-7.11q0-39.87-1.28-34.886,1.92-6.408-3.21-21.356-3.21-8.542-2.56-14.238,0.63-3.554,0-13.525-0.645-8.543,1.28-13.526,0.63-1.417-.64-6.407c-1.1-2.836-1.72-3.931-1.88-3.3a67.544,67.544,0,0,0-.68-14.5q-1.29-9.961,0-14.949t0.64-17.085q-2.565-44.13,1.28-56.238-1.92-9.96-.64-54.814,0.63-9.243-2.57-11.389-1.92-.7-1.92-6.407V732.563q1.275-24.91-1.28-69.763-2.565-36.306-5.77-64.068,0.645,6.407-6.4-39.153v-9.254q-3.855-9.243-1.92-20.644-0.66-.7,0-2.136-3.855-14.949,0-19.22c-1.72-1.891-2.57-4.739-2.57-8.543q0-6.406-1.28-9.254,3.84-4.972-.64-8.543,3.84-4.271,1.28-11.389a0.962,0.962,0,0,0,0-1.424q0.63-7.109-.64-8.543a21.787,21.787,0,0,0,1.28-16.373q1.275-26.328,14.1-100.373,1.275-7.107,8.33-9.966,3.2-.7,11.53-14.237c0-.468,1.7-4.027,5.13-10.678q1.275-4.973,6.4-22.78-1.29-12.1-1.28-13.526,0-2.135-3.84-4.983-12.825-2.135-12.18-2.135-7.68,0-7.04-6.407c4.26,0.956,6.61,1.424,7.04,1.424a8.254,8.254,0,0,0,6.41-4.272,7.177,7.177,0,0,0,.64-4.983c-0.43-2.369,1.7-3.559,6.41-3.559,6.41,0,10.03-1.657,10.89-4.983v-9.966q0.63-9.243,14.74-10.678,0.63,0,7.69-.712a18.274,18.274,0,0,1,1.92-4.271c-1.28-1.891-1.92-3.081-1.92-3.56q-1.29-4.27,1.28-4.983,3.84-1.417,8.33,1.424,3.195,2.136,2.56,1.424c2.98,1.424,5.13,1.19,6.41-.712a23.636,23.636,0,0,0,2.56-3.559q1.92-2.837,2.56-3.56a4.168,4.168,0,0,1,3.21-1.423q3.195,0,1.92,2.135-0.645,1.435-5.77,10.678l3.85-.712a220.292,220.292,0,0,1,35.24-6.406q-5.145-12.815-5.77-13.526-4.485-7.825-8.33-9.966,5.13,0,18.58,7.83c0.85,3.326,2.57,5.462,5.13,6.407a6.485,6.485,0,0,0,3.2-.712c1.28-.467,1.7-0.945,1.28-1.423s-2.14-2.136-5.12-4.983q6.39-5.69,11.53-2.136c1.7,0.478,4.49,2.136,8.33,4.983q3.2,2.853,8.33.712c2.98-1.424,4.05-3.315,3.2-5.7q0.63,2.136-10.25-8.542,14.73,1.434,21.15,9.254,10.875,13.53,12.81,24.915a21.094,21.094,0,0,0,.64,4.271,23.133,23.133,0,0,0,1.28,4.983q1.92,14.249-3.2,20.645-1.29,2.135-12.82,22.779,1.935,11.4,1.93,12.1-1.29,13.531,2.56,32.034,7.05,34.887,7.05,86.848c2.13,1.424,2.56,3.092,1.28,4.983q0,0.717-3.85,7.119,1.29,2.135,1.29,12.813v42.712l1.28,3.56q8.31,0,12.81-5.695,0.555,0,4.57-6.559a15.31,15.31,0,0,1-11.31-2.7c5.26-1.63,9.46-2.857,12.65-3.688,0.18-2.577.56-4.209,1.14-4.854a7.345,7.345,0,0,1,4.49-1.424,6.114,6.114,0,0,1,5.12.712,8.92,8.92,0,0,1,1.49,1.543c1.05-1.085,2.97-1.849,5.87-2.255q13.455-4.271,18.58-4.983a13.175,13.175,0,0,0,8.33-4.271q2.565-3.553-.64-4.983a9.664,9.664,0,0,1-2.57-.712,5.279,5.279,0,0,0-2.56-.712c-1.7-.467-1.92-1.891-0.64-4.271s0.86-3.559-1.28-3.559q-3.84-.7-5.13,0-6.39,2.135-7.69-4.983-1.275-7.109,4.49-10.678a23.978,23.978,0,0,0,4.48-1.424h6.41q0.645-7.107,3.21-7.831,8.97-4.27,12.17-2.135l0.64,0.712,1.92,1.423,4.49-4.271c1.7-1.424,1.92-3.081.64-4.983s-2.79-2.847-4.49-2.847q-13.455-.7-11.53-0.712c-1.7-.467-6.41,0-14.1,1.424a48.261,48.261,0,0,1-5.76.711,1.949,1.949,0,0,1-1.28-1.423,3.314,3.314,0,0,1,.5-1.887c0.12,0.27,2.93-1.231,8.47-4.52q2.565-2.136,2.56-4.271-0.63-2.136-3.85-2.848h-1.28q-20.49,2.136-22.42,2.136-5.775,1.434-9.61-3.56-4.485-4.971,1.28-8.542l0.64-.712q9.615-.7,11.53-12.1c0-1.423,1.28-2.135,3.85-2.135h4.48a15.755,15.755,0,0,0,3.85.712h26.27q10.89-1.419,15.37-3.56,10.89-4.971,28.2-7.118l7.68-4.272,9.61-4.983a5.33,5.33,0,0,1,3.85,0,17.194,17.194,0,0,1,7.05-1.423q10.23-3.555,13.45-13.526c1.7-2.369,3.85-3.315,6.41-2.847,2.56,0.956,4.26.712,5.13-.712q1.92-2.136,6.4-.712,5.13,2.136,8.33-2.136a45.8,45.8,0,0,0,3.21-5.695l4.48-4.983q6.4,2.136,10.89-1.423l2.57-3.56a6.294,6.294,0,0,1,5.12-4.271c3.85-.945,6.19-1.891,7.05-2.847l5.13-3.56a7.887,7.887,0,0,0,5.76,4.272q1.275,0,12.18,2.847a71.783,71.783,0,0,0,21.14-7.831,20.813,20.813,0,0,1,7.69-3.559q1.275,0,17.94-8.542,1.275-.7,1.92-4.272l3.85-.711q0.63,0.717,5.76,2.135l15.38-5.695a12.584,12.584,0,0,1,7.05-4.271q11.535-1.417,20.5-11.39,0.63-.7,7.69-7.119a8,8,0,0,0,9.61.712q0.63,0,8.97-5.695,10.89-2.135,14.74-.711c2.98,0.956,6.62,0,10.89-2.848q3.2-1.418,12.17-4.271a6.356,6.356,0,0,1,3.21-2.848,5.356,5.356,0,0,1,4.48-.711q8.97-4.272,32.68-12.814,5.76-2.136,7.69,2.136,0.63,2.852,3.2.711-1.92,2.136,9.61-3.559,14.085-6.406,15.38-7.119,6.4-4.27,10.89-.711a18.637,18.637,0,0,1,3.21.711,131.371,131.371,0,0,1,19.86-12.1q4.47-1.419,18.58-8.543c-0.43,0,0-.233,1.28-0.712q1.92-18.5,1.92-17.8c-0.43-3.315.64-4.272,3.21-2.848a32.334,32.334,0,0,1,3.2,2.136,13.73,13.73,0,0,0,3.2,2.847q3.21,2.136,5.77-2.135,3.195-7.826,3.2-12.814-1.29-17.085,5.13-27.051-1.92,2.853,4.49-15.661,1.275-6.407,4.48-2.136,3.2,4.989,6.41,2.136a46.964,46.964,0,0,1,5.12-2.136q5.13-2.135,3.21,7.119-0.645,2.136,2.56,3.559-5.13,5.706-5.13,27.051-0.645,12.114-.64,27.051a20.709,20.709,0,0,0,6.41-2.135q40.995-21.357,35.24-17.8c0.85-.467,1.7-0.945,2.56-1.424q-5.76,2.136,28.2-12.1c3.41-1.891,6.18-2.848,8.33-2.848q10.875-1.417,29.47-9.966a20.644,20.644,0,0,1,5.77-2.847q16.65-4.272,36.52-14.238a13.573,13.573,0,0,1,4.48-1.424A43.056,43.056,0,0,0,2399.31,99q8.31-2.837,11.53-3.559l4.48-2.136,8.33-2.136c2.14,0,4.91-.945,8.33-2.847q26.91-7.825,28.84-8.543,5.76-1.418,26.91-10.678c3.41-1.424,5.33-3.315,5.76-5.695,0.42,0.478.85,0.245,1.28-.712q13.455-4.271,11.54-4.271c2.13,0,4.26-1.179,6.4-3.559l7.69-1.424,0.64-2.136c0.42-1.424,1.71-2.136,3.85-2.136,1.7,0,2.77-.234,3.2-0.712q3.195-4.271,6.41-4.983a60.992,60.992,0,0,0,7.69-.712h1.28l8.33,0.712q5.76-3.554,9.61-3.559c0.42,0,3.62-.467,9.61-1.424,1.28-1.424,2.56-1.891,3.85-1.424a9.659,9.659,0,0,1,5.76-1.424h6.41c0.85-.467,2.77-1.424,5.77-2.848a10.684,10.684,0,0,1,5.76-2.136h5.13q2.55-4.972,8.33-3.559l7.69-4.271c-0.43-1.891,0-3.081,1.28-3.559a6.451,6.451,0,0,1,3.84-1.424,40.285,40.285,0,0,0,20.51-8.542q1.92-1.418,7.68,0,10.245,0,13.46,4.983-0.645-1.418,5.77,1.424,10.23,4.989,10.25,14.949a13.271,13.271,0,0,1-3.21,9.254C2679.3,40.394,2677.8,42.53,2674.82,46.323ZM1612.18,1326.26c1.71,0.47,2.57.23,2.57-.71l-0.64-2.14-2.57.71C1611.11,1324.12,1611.32,1324.84,1612.18,1326.26Zm-113.4-849.97c5.54,0.957,8.54,1.424,8.97,1.424Zm32.03,608.65c-0.43-1.43-1.92-2.61-4.48-3.56a3.581,3.581,0,0,0,1.92-4.27q-0.645-25.635-1.28-27.77-5.145-30.6-4.49-38.44a34.7,34.7,0,0,0-.64-5.69,47.05,47.05,0,0,1-.64-6.409q-0.645-4.271-2.56-19.22-1.92-12.815-1.28-19.933a408,408,0,0,0-.64-60.508q-1.29-10.679,1.28-14.95v-4.983q-5.775-7.107,0-17.084-4.5-4.973-2.56-14.238a19.648,19.648,0,0,1,1.92-10.678c-0.86-1.424-.64-3.081.64-4.983q-5.145-14.949-2.56-28.475,1.275-9.96-1.29-16.373-1.29-3.553-5.76,0c-0.43,0-1.71.957-3.85,2.848-2.14,5.695-3.2,8.787-3.2,9.254q-0.645,2.136-4.49,22.78a49.215,49.215,0,0,1,1.29,5.695q0.63,17.085.64,28.475,0-7.826,5.12,85.424,1.275,17.084,3.85,45.559,3.84,36.3,5.12,46.269,1.275,18.525,9.61,41.29a8.378,8.378,0,0,0,3.21,6.41c-1.28,2.38-1.51,6.88-.64,13.52a10.294,10.294,0,0,0,5.76,7.12l-1.28,1.43-0.64.71q3.84,0,1.92-2.14Q1534.005,1097.055,1530.81,1084.94Zm41.65,247.01a5.628,5.628,0,0,0,1.92-5.69q-5.13-19.215-7.69-25.63-1.29-6.405,0-8.54-5.76-19.92-5.76-22.07-1.29-7.815-10.9-11.39c-1.28,1.9-1.71,4.52-1.28,7.83q7.05,31.335,6.41,29.9,2.55,11.385,7.69,27.76c1.28,4.74,4.48,7.36,9.61,7.83q-5.13,4.98,1.28,8.55-4.485,2.835-1.92,6.4,6.39,13.515,9.61,16.38l3.84-2.14q0.63-14.94-10.89-20.64Q1578.865,1335.505,1572.46,1331.95Zm14.74,42.72a23.6,23.6,0,0,0,8.97,5.69A11.95,11.95,0,0,0,1587.2,1374.67Zm8.33-58.38,0.64,0.72,0.64-.72h-1.28Zm4.48,6.41-2.56-1.42c-2.14,0-2.78.94-1.92,2.84,0,1.9.21,2.85,0.64,2.85a2.519,2.519,0,0,0,2.56,1.43c1.7,0.46,2.77,0,3.2-1.43C1602.78,1325.55,1602.14,1324.12,1600.01,1322.7Zm32.04-1015.834v-1.424a1.789,1.789,0,0,0-1.28.712h0.64v0.712l-0.64,1.424c0,0.956.42,1.19,1.28,0.712Q1633.97,308.3,1632.05,306.866Zm-0.64,12.814c-1.72-1.424-3.64-1.179-5.77.712q2.55,7.124,7.05,8.542A7.594,7.594,0,0,0,1631.41,319.68Zm88.72,86.848a1.984,1.984,0,0,0-1.28,1.423c0,1.424.64,1.9,1.93,1.424l1.28-1.424C1721.64,406.528,1721,406.06,1720.13,406.528Zm101.88,27.05-5.77-.711a5.853,5.853,0,0,0-4.48,2.135q-1.29,1.435-.64,4.271l3.84-.711,7.69-3.56Zm149.93-100.373-10.89,4.271a7.093,7.093,0,0,0,7.69,3.56l5.76-3.56Zm87.14,46.272-3.84,1.423a5.8,5.8,0,0,0,.64,2.136,16.624,16.624,0,0,1,3.84-1.424c1.28-.945,1.92-1.891,1.92-2.847Zm5.77,103.932c0.07,0.174.14,0.325,0.2,0.458A3.043,3.043,0,1,0,2064.85,483.409Zm26.27-271.221V212.9a2.061,2.061,0,0,0-1.93,1.423,0.6,0.6,0,0,0,.64.712c1.29-.467,1.71-1.179,1.29-2.135l0.64-.712h-0.64Zm92.26,1192.382a24.088,24.088,0,0,1,.64,6.4q1.275,6.4,1.92,7.12c0,0.95.64,1.42,1.93,1.42a3.133,3.133,0,0,0,.64-2.13C2188.51,1409.78,2186.79,1405.51,2183.38,1404.57Zm231.3-1163.908q-26.91,5.706-42.28,13.526,3.2,4.989,10.89.712a64.626,64.626,0,0,1,10.89-4.271q3.2-.7,10.25-2.848a81.712,81.712,0,0,1,10.25-2.847q30.12-6.408,35.24-9.255,37.8-9.243,62.15-15.661a85.033,85.033,0,0,0,32.04-14.949q-3.21-.7-10.25,2.136-17.94,5.706-45.49,13.525v-5.695q23.055-5.69,29.47-9.254-4.485-.7-26.27,5.695l-3.84,3.559,0.64,5.695q-21.15,5.706-33.96,9.254Q2423.66,238.527,2414.68,240.662Zm122.38-42q-6.405,0-16.66,5.695,4.485,0.717,14.74-2.135A4.279,4.279,0,0,0,2537.06,198.662Zm-82.65,24.916q24.99-6.408,26.91-7.831a2.2,2.2,0,0,0-.64-1.424q-29.475,6.408-25.63,5.695a32.042,32.042,0,0,0-12.17,5.695Q2453.11,224.3,2454.41,223.578Zm96.11-42c-0.43,0-3.64.479-9.61,1.424a15.782,15.782,0,0,1-8.33,2.848q-5.775,2.135-8.33,1.423l-20.51,7.119c-5.55,2.38-9.19,3.326-10.89,2.848-2.56,1.423-4.7,1.668-6.4.711l-19.87,7.831-6.4.712-14.1,5.695,6.41,1.423q10.23,0,15.37-4.271,5.13,0.717,16.02-2.847,33.315-9.243,45.49-12.814,21.15-7.107,26.91-10.678C2555,181.577,2553.08,181.11,2550.52,181.577Zm-5.13,13.526q5.13,3.57,8.97,1.424,6.405-4.272,7.05-7.119Zm19.86-7.119,5.77-2.847Q2567.18,183.718,2565.25,187.984Zm89.07-145.933-5.13,3.559q0.63-4.972,5.77-8.542C2655.81,38.492,2655.6,40.161,2654.32,42.051Zm18.58,28.475a3.066,3.066,0,0,0,.64,2.136l-5.77,2.847C2667.77,73.14,2669.47,71.483,2672.9,70.526ZM1646.14,1412.4h0.64C1646.35,1412.86,1646.14,1412.86,1646.14,1412.4Zm-41-61.94h0.64C1606.63,1350.93,1606.42,1350.93,1605.14,1350.46Zm5.12,53.39c0.42,0.47.21,0.72-.64,0.72v-0.72a37.97,37.97,0,0,0-1.92-3.56l-1.79-3.3a4.977,4.977,0,0,0,.51-0.26,8.967,8.967,0,0,0,1.92,3.56Q1607.7,1399.585,1610.26,1403.85Zm-4.48-7.12,0.13,0.26C1605.5,1397.17,1605.45,1397.09,1605.78,1396.73ZM1453.28,314.7a0.6,0.6,0,0,1-.64-0.712c-1.28-2.848-.86-5.695,1.29-8.543h1.92l1.28,0.712q2.55,3.57-.64,7.831A18.188,18.188,0,0,0,1453.28,314.7Zm-22.42-32.746a4.533,4.533,0,0,1-4.49-2.848,2.4,2.4,0,0,1,.64-3.559,1.825,1.825,0,0,1,1.29-.712,6.591,6.591,0,0,1,4.48,2.847q1.275,2.855-.64,4.272h-1.28Zm-889,857.859c-0.6-.24-2.727-2.09-6.372-5.57l0.254-.92,1.972-1.79,7-.32q7.832-1.53,6.88,3.72-0.126,4.035-2.987,5.48A6.221,6.221,0,0,1,541.862,1139.81ZM1196.19,650.74q5.13,0.717,5.13,5.695,0,5.706-41.01,139.526-20.5,64.068-64.07,227.8,79.44,77.6,158.9,99.66,33.3,22.785,33.32,25.63v2.84c0,3.81-2.57,5.7-7.69,5.7q-35.25-23.49-61.51-31.32,0,2.13,46.13,42.71v5.69c0,3.81-2.56,5.7-7.69,5.7q-5.76,0-38.44-17.09v2.85q3.84,12.81,33.32,39.87v2.84l-2.57,5.7q10.245,4.275,10.25,8.54v2.85c0,3.8-1.71,5.69-5.12,5.69h-7.69l-5.13-2.84c0,2.84-1.71,6.65-5.12,11.39q14.085,3.57,25.63,22.78,38.445,19.215,38.44,25.62v2.85c0,3.79-1.71,5.7-5.12,5.7q-5.145,0-76.89-45.56-17.955,0-151.21-91.12h-5.13q-31.395,145.935-43.57,159.45h-2.56c-3.43,0-5.13-1.9-5.13-5.69l10.25-71.19v-2.84h-2.56q0,7.83-38.443,125.28,0,11.385-5.126,11.39h-2.563c-3.424,0-5.126-1.9-5.126-5.69v-62.64l2.563-19.94H965.53c0,4.74-3.424,8.55-10.252,11.39l-2.563,17.09v65.49q0,5.685-5.126,5.69h-2.563c-3.424,0-5.126-1.9-5.126-5.69v-59.8q0-33.465,20.5-93.96,7.689-49.83,7.688-71.19v-22.78H965.53q-27.556,82.59-33.318,88.27h-2.563l-5.126-2.85q-20.514,135.96-25.629,159.46h-5.126c-3.424,0-5.126-1.9-5.126-5.69l20.5-148.07v-2.85h-2.562q-16.669,65.505-23.067,65.49h-5.125l-5.126-2.84q0-42,38.443-168.01,12.81-50.535,12.815-68.33-181.331-144.51-297.3-250.582H622.1Q561.866,936.922,481.14,1055.08c-0.11.19-.215,0.37-0.324,0.56a9.235,9.235,0,0,0,6.207-3.81c1.093-1.62,2.65-1.86,4.648-.74q12.615,8.01,16.442,15.65,10.439,5.115,11.339,5.47,4.774,2.385,2.363,7.57a6.136,6.136,0,0,1-4.264,2.94,7.4,7.4,0,0,1-4.647.73c-1.2-.47-2.955-3.03-5.292-7.7q-8.42-5.34-8.983-5.05-6.57-3.09-14.008.65l0.449,3.75,19.136,38.19q4.785,9.54,4.6,12.03c4.2,2.67,6.412,4.21,6.626,4.64q2.99,1.68,1.087,5.03,23.279,46.455,32.61,80.8,4.854,18.27,12.061,29.79,0.313,0.63,3.7,11.68,19.557,13.29,21.663,14.63,7.448,3.42,12.113,17.02a23.267,23.267,0,0,0,1.087,5.03,20.9,20.9,0,0,0,1.341,4.1q3.379,11.04-.294,28.02-2.226,9.87-14.757,17.74,4.95-14.415,5.338-12.23c-0.306-2.51-2.11-3.72-5.415-3.65q-5.548.39-7.128,4.36-3.243,6.4-5.215,8.19-3,5.475-11.267,3.26c1.391-3.88,2.174-6.14,2.35-6.75,0.161-.62-0.429-0.86-1.784-0.7a6.466,6.466,0,0,0-3.183.8c-1.868,1.99-2.441,4.67-1.712,8.02q-8.523,13.02-13.1,15.33,2.481-3.645,2.982-12.65,0.242-.915-0.9-14.67a220.614,220.614,0,0,1-34.376,10.06l-3.756,1.08q8.72,5.97,9.94,6.97,2.1,1.335-.762,2.77a4.168,4.168,0,0,1-3.5.16q-0.9-.36-3.886-2.04a23.761,23.761,0,0,0-3.886-2.03c-0.018-.01-0.035-0.01-0.053-0.02,0.024,0.4.05,0.81,0.05,1.16q0,5.685-5.126,5.69H499.08a3.243,3.243,0,0,1-.683-0.09h0a3.423,3.423,0,0,1-.645-0.23h0a8.26,8.26,0,0,1-5.489,3.15q-2.616.51-3.378-3.88c-0.214-.43-0.174-1.78.124-4.04a18.528,18.528,0,0,1-3.632-2.96q-6.631,2.52-7.193,2.81-13.249,5.025-17.959-2.95c-0.415-.83-0.791-1.58-1.149-2.29h0c0.33,1.25.638,2.44,0.928,3.58h0c0.043,0.16.081,0.32,0.123,0.48h0v0.01h0q1.306,5.13,2.055,8.61h0c0.015,0.06.03,0.13,0.044,0.2h0c0.109,0.51.207,0.98,0.3,1.44h0c0.015,0.08.031,0.15,0.046,0.23h0q0.17,0.87.292,1.59h0c0.032,0.18.068,0.38,0.094,0.55h0q0.117,0.75.178,1.32h0a0.136,0.136,0,0,1,0,.02h0c0.04,0.39.063,0.73,0.063,0.99v14.24c0,3.79-1.712,5.7-5.126,5.7H455.51a1.347,1.347,0,0,1-.648-0.18,2.153,2.153,0,0,1-.3-0.24h0a2.415,2.415,0,0,1-.366-0.29,5.3,5.3,0,0,1-.414-0.53h0c-0.09-.12-0.179-0.21-0.271-0.35h0c-0.163-.24-0.329-0.55-0.5-0.86h0c-0.069-.13-0.137-0.23-0.208-0.36-0.2-.39-0.395-0.84-0.6-1.3h0c-0.025-.06-0.05-0.11-0.075-0.17h0c-0.225-.53-0.452-1.12-0.682-1.74h0c-0.038-.11-0.074-0.19-0.112-0.29-0.228-.64-0.46-1.34-0.694-2.07h0V1377h0c-0.022-.07-0.043-0.12-0.065-0.19h0c-0.253-.81-0.511-1.67-0.771-2.59h0c0-.01,0-0.01,0-0.01h0c-0.261-.92-0.525-1.9-0.792-2.93h0v-0.01h0c0-.01-0.008-0.03-0.013-0.05h0c-0.144-.55-0.29-1.16-0.436-1.75h0c0-.01,0-0.01,0-0.02h0c-0.262-1.06-.527-2.17-0.8-3.34h0l-0.192-.84h0c-0.2-.89-0.4-1.81-0.606-2.75h0v-0.01h0q-0.156-.72-0.313-1.47h0c-0.26-1.24-.524-2.53-0.789-3.86h0a0.356,0.356,0,0,0-.006-0.04h0c-0.2-1.01-.4-2.03-0.605-3.09h0c-0.055-.29-0.111-0.59-0.166-0.88h0c-0.331-1.74-.667-3.56-1.006-5.44h0v-0.01h0c-0.009-.05-0.018-0.1-0.028-0.15h0c-0.392-2.18-.788-4.44-1.19-6.8,0-.01,0-0.01,0-0.01a0.034,0.034,0,0,0,0-.01h0a0.016,0.016,0,0,1,0-.01,0.036,0.036,0,0,1,0-.01h0v-0.01s0,0,0-.01h0a0.016,0.016,0,0,1,0-.01s0-.01,0-0.01v-0.01a0.017,0.017,0,0,1,0-.01h0q-4.191,1.875-5.7.39l-7.258,1.61a12.9,12.9,0,0,0-.092-1.39c-0.006-.05-0.009-0.1-0.015-0.15-0.062-.52-0.154-1.09-0.27-1.72v-0.01c-0.006-.03-0.012-0.07-0.019-0.1,0-.01,0-0.01,0-0.02s-0.008-.05-0.013-0.07q-0.186-.975-0.456-2.13c-0.011-.04-0.022-0.09-0.033-0.14a0.042,0.042,0,0,1,0-.01c-0.191-.8-0.41-1.66-0.662-2.59h0a10.413,10.413,0,0,0-2.3.47c-0.384.19-2.279,1.66-5.663,4.43q-3.447-5.445,3.431-8.89a30.158,30.158,0,0,1,2.723-2.09h0c-0.2-.63-0.409-1.28-0.627-1.94l-0.01-.03c-0.216-.67-0.44-1.34-0.673-2.04a0.274,0.274,0,0,0-.018-0.05q-0.348-1.05-.722-2.13a0.045,0.045,0,0,0-.006-0.02c0-.02-0.01-0.03-0.015-0.05-0.25-.73-0.509-1.47-0.776-2.24,0,0,0,0,0-.01h0l-0.009-.03h0s0,0,0-.01q-0.4-1.155-.836-2.37h0v-0.01h0c-0.4-1.12-.814-2.28-1.246-3.46a0.146,0.146,0,0,0,0-.02c0-.01,0-0.01-0.008-0.02a0.016,0.016,0,0,1,0-.01h0q-1.3-3.585-2.811-7.58a0.016,0.016,0,0,1,0-.01s0,0,0-.01c-0.483-1.28-.983-2.59-1.5-3.94-0.04-.1-0.079-0.2-0.118-0.3-0.388-1.02-.785-2.05-1.19-3.1h0a0.425,0.425,0,0,0-.025-0.07h0c-0.4-1.04-.812-2.1-1.231-3.17h0c0-.01,0-0.01,0-0.01h0s0-.01,0-0.01h0a0.131,0.131,0,0,0-.016-0.04c0-.01-0.007-0.02-0.011-0.03q-0.633-1.62-1.293-3.3a0.167,0.167,0,0,0-.008-0.02,0.047,0.047,0,0,0-.005-0.01c0-.01,0-0.01,0-0.01q-0.668-1.7-1.362-3.45l-0.2-.51q-0.914-2.3-1.871-4.69h0a41.779,41.779,0,0,1-5.178-4.16c-3.568-2.21-6.573-3.92-9.061-5.17h0v0.01h0q0.563,2.46,1.153,5.03c0,0.03.011,0.05,0.016,0.07,0.068,0.3.138,0.6,0.207,0.9,0.024,0.11.049,0.22,0.073,0.32q0.441,1.92.894,3.9c0.029,0.12.058,0.25,0.087,0.37,0.009,0.04.017,0.08,0.026,0.12,0.017,0.07.034,0.15,0.051,0.22,0,0.01,0,.01,0,0.02,0.043,0.18.085,0.37,0.128,0.55,0.007,0.03.013,0.06,0.02,0.09s0.011,0.05.017,0.08h0c0.034,0.15.067,0.29,0.1,0.44,0.264,1.15.53,2.3,0.8,3.48,0.121,0.53.244,1.07,0.367,1.6,0.03,0.13.061,0.26,0.091,0.4l0.036,0.15c0.266,1.16.534,2.32,0.806,3.5l0.123,0.54s0,0,0,.01c0.06,0.25.12,0.51,0.18,0.77h0c0.071,0.32.142,0.62,0.214,0.94,0.273,1.18.55,2.38,0.829,3.59,0.023,0.1.047,0.2,0.07,0.31a0.377,0.377,0,0,1,.01.04l0.006,0.03h0c0,0.02.008,0.03,0.012,0.05a0.371,0.371,0,0,0,.012.05c0,0.02.007,0.03,0.011,0.05,0,0,0,.01,0,0.01h0c0.14,0.61.279,1.21,0.42,1.83,0.293,1.26.591,2.55,0.89,3.85,0.177,0.77.352,1.52,0.531,2.3,0.321,1.39.648,2.81,0.977,4.23,0.026,0.11.053,0.23,0.08,0.34,0.045,0.2.089,0.39,0.134,0.58,0.092,0.4.183,0.8,0.277,1.2,0.5,2.15,1,4.32,1.513,6.54q-2.568,14.955-2.563,17.09l30.755,119.59v2.85q0,5.685-5.126,5.69h-2.563q-9.611,0-25.629-79.73-4.489-2.13-33.317-116.74-3.846,0-7.689-25.63a57.109,57.109,0,0,1-28.192,19.93,459.393,459.393,0,0,1-38.444,68.34h-2.563c-3.424,0-5.126-1.9-5.126-5.69l25.629-68.34a4.507,4.507,0,0,1,.092-0.79c0.032-.2.08-0.41,0.135-0.64h0c0.067-.27.131-0.53,0.23-0.84h0c0.062-.19.149-0.42,0.224-0.63h0c0.079-.21.164-0.44,0.251-0.67h0c0.129-.33.274-0.67,0.429-1.03h0c0.141-.33.281-0.65,0.445-1.01h0c0.246-.53.529-1.11,0.825-1.7h0a0.382,0.382,0,0,0,.034-0.07h0c0.343-.68.723-1.41,1.133-2.17h0c0.045-.09.091-0.17,0.139-0.26h0c0.26-.49.532-0.98,0.817-1.49h0c0.013-.03.026-0.05,0.04-0.08h0q1.005-1.8,2.226-3.86h0c0.044-.08.087-0.15,0.133-0.23h0c0.494-.83,1.019-1.7,1.564-2.59h0v-0.01h0c0.1-.17.207-0.34,0.314-0.51h0c0.553-.9,1.134-1.84,1.738-2.8h0c0.116-.19.231-0.37,0.349-0.56h0c0.424-.68.848-1.35,1.3-2.05h0c0.157-.25.323-0.5,0.487-0.76h0q1.269-1.98,2.663-4.11h0c0.008-.01.015-0.03,0.023-0.04h0a0.034,0.034,0,0,0,0-.01h0c0.7-1.06,1.4-2.14,2.145-3.26h0c0.192-.29.388-0.58,0.578-0.87h0q1.643-2.475,3.434-5.12h0l0.06-.09h0a0.034,0.034,0,0,0,0-.01h0c0.811-1.2,1.636-2.41,2.493-3.67h0c0.476-.7.971-1.42,1.464-2.14,0.138-.2.274-0.4,0.411-0.59,0.15-.22.294-0.44,0.443-0.65,0.029-.04.056-0.08,0.084-0.12a0.041,0.041,0,0,1,.011-0.02c0-.01.007-0.01,0.011-0.02h0q-13.875-20.16-20.211-31.39a21.773,21.773,0,0,0-8.481-14.07c0.224-.83-0.213-2.32-1.277-4.43h0q-2.045,1.8-4.075,3.78s-0.006,0-.009.01c-0.194.19-.386,0.39-0.58,0.58a1.141,1.141,0,0,1-.11.11c-1.08,1.07-2.158,2.16-3.232,3.3-0.412.44-.822,0.9-1.233,1.35-0.9.98-1.788,1.97-2.68,2.99-0.472.55-.944,1.11-1.415,1.67-0.829.98-1.657,1.99-2.483,3.01a0.426,0.426,0,0,1-.054.07c-0.1.13-.2,0.25-0.3,0.38l-0.169.21c-0.033.04-.067,0.09-0.1,0.13s-0.056.07-.084,0.1a1.476,1.476,0,0,1-.1.13l-0.094.12-0.588.75q-1.2,1.545-2.406,3.15c-0.282.38-.563,0.77-0.845,1.15-0.217.29-.435,0.58-0.651,0.88-0.808,1.11-1.614,2.26-2.419,3.41l-0.977,1.41c-0.148.22-.3,0.42-0.444,0.64-0.005.01-.01,0.01-0.015,0.02-0.868,1.28-1.732,2.6-2.6,3.93-0.211.33-.423,0.65-0.635,0.97-0.014.02-.028,0.05-0.043,0.07-0.043.07-.088,0.13-0.132,0.2s-0.083.12-.124,0.19c-0.079.12-.157,0.24-0.235,0.36-0.017.03-.034,0.05-0.051,0.08-1.265,1.98-2.526,4.01-3.782,6.11q-39.09,65.49-41.007,65.49h-2.563l-5.126-2.85q0,4.275-10.251,11.39H214.6c-3.424,0-5.126-1.89-5.126-5.69v-2.85q27.541-48.4,35.881-74.04-22.435,25.635-33.318,25.63l-2.563-5.69v-2.85c1.667-2.78,3.3-5.53,4.923-8.28q2.067-3.495,4.1-6.97l0.314-.54h0l0.038-.06c0.095-.16.189-0.33,0.284-0.49h0c0.024-.04.047-0.08,0.07-0.12,0.036-.07.073-0.13,0.109-0.19l0.176-.3,0.015-.03c0.264-.45.531-0.9,0.793-1.35q4.275-7.35,8.359-14.54c0.194-.35.384-0.68,0.575-1.02a0.222,0.222,0,0,1,.028-0.05c0.122-.22.241-0.43,0.362-0.65a0.12,0.12,0,0,0,.023-0.04c0.027-.05.053-0.09,0.08-0.14,0,0,0-.01.008-0.01,0.01-.02.02-0.04,0.029-0.06,0.023-.04.045-0.08,0.067-0.12,0.015-.02.029-0.05,0.043-0.07,0.028-.05.055-0.1,0.082-0.15q3.855-6.825,7.534-13.52c0.3-.54.6-1.09,0.9-1.63q3.921-7.155,7.622-14.15c0.156-.3.31-0.59,0.466-0.89,0.024-.04.048-0.09,0.072-0.13,0.08-.15.159-0.3,0.239-0.46,0.029-.05.058-0.1,0.087-0.16,0.057-.11.114-0.22,0.171-0.32,0.043-.08.086-0.17,0.129-0.25s0.1-.19.151-0.28c2.5-4.75,4.949-9.45,7.3-14.08a0.034,0.034,0,0,1,.011-0.02c0.021-.05.041-0.09,0.062-0.13q3.55-6.975,6.864-13.78c0.29-.59.586-1.19,0.873-1.78q3.284-6.75,6.349-13.34c0.241-.51.474-1.02,0.712-1.54q3.105-6.7,6-13.24h0a32.138,32.138,0,0,1-.484-3.26l-4.147-8.27q-14.118-43.89-11.813-37.88-9.579-26.25-23.55-59.86-17.811-41.238-30.111-62.944l-7.016-14q-2.558-5.1-1.152-6.589,1.9-3.342-2.812-11.331-21.247-39.516-23.986-49.292-8.863-9.107-26.342-49.7-4.863-11.112-8.227-14.987-3.39-3.882-6.7-13.365a67.281,67.281,0,0,0-5.883-13.267c0.424,0.493.491-.765,0.2-3.792q-1.094-5.033-2.3-6.015-3.954-3.6-7.206-11.518-3.906-9.2-6.06-12.092-3.133-4.813-4.087-13.877-2.119-15.66-6.7-20.528,3.369,3.873-14.482-31.759a18.2,18.2,0,0,1-1.471-7.226q0.44-3.411-3.326-16.647Q64.67,572.312,65.2,577.628q-6-10.539-11.169-29.438-6.648-26.136-8.305-30.873a118.732,118.732,0,0,1-3.45-12.6q-1.545-8.781-2.558-12.254-5.889-21.739-17.326-78.906l-1.595-3.182A565.865,565.865,0,0,1,7.17,343.146l0.352-33.619q0.253-8.076,9.413-12.678,0.938-19.581.873-21.14,0.369-4.962,9.927-7.363-3.371,3.294-2.669,6.115-0.44,3.411,3.443,5.441c-0.13-3.12-1.284-4.931-3.443-5.441q4.264-2.921,2.669-6.115a11.835,11.835,0,0,0,2.669-6.115q6.492,1.525,8.286,9.384,0.379,2.2,6.645,26.132c0.935,3.786,2.486,5.92,4.654,6.426q-4.513,3.867-.5,9.01a13.249,13.249,0,0,0,.449,3.757c0.638,1.272,1.906,1.433,3.821.474a2.517,2.517,0,0,0,1.653-2.421l-0.449-3.757c0.167-.605.508-1.846,1.016-3.693q-3.946-3.585-5.416-3.657l0.573-.287c0.936-.991.827-1.21-0.319-0.636l0.573-.287,0.573-.287,0.573-.287,0.573-.287c-1.146.574-1.25,0.365-.319-0.637l0.573-.287,0.573-.287,0.573-.287,0.573-.287,0.254-.923,0.573-.287q4.275,4.24,1.536,8.785a13.613,13.613,0,0,1,2.74,2.608l1.595,3.182q1.278,2.552,4.713.824c1.522-.763,2.017-3.126,1.458-7.1q-4.473-16.065-3.013-23.174c0.167-.606-0.515-2.926-2.044-6.938a71.937,71.937,0,0,1-1.528-8.951v0l-0.011-.037h0L61.347,268v0l-0.013-.044h0l-0.011-.037-0.005-.018h0c-0.728-2.465-1.431-4.855-2.116-7.191l0-.008v0l0,0a0,0,0,0,0,0,0v0l0-.008v-0.005l0-.007v-0.008l0-.009,0-.006a0.017,0.017,0,0,1,0,0v0l-0.111-.379v0h0v0s0,0,0,0h0v0h0v0a0,0,0,0,0,0,0v0a0,0,0,0,1,0,0v0h0c-0.318-1.084-.629-2.149-0.937-3.2v0h0l-0.01-.035a0.007,0.007,0,0,1,0,0v0h0v0h0v0h0v0h0v0q-0.557-1.907-1.093-3.754v0h0s0,0,0,0h0V253.2l-0.113-.39h0v0a0.007,0.007,0,0,0,0,0h0v0h0a0,0,0,0,1,0,0v0q-1.866-6.429-3.484-12.117s0,0,0,0h0s0,0,0,0,0,0,0,0h0l-0.058-.206h0s0,0,0,0,0,0,0,0,0,0,0,0v0h0c-0.294-1.035-.583-2.055-0.865-3.053h0s0,0,0,0h0l-0.076-.269v-0.008c-0.252-.892-0.5-1.778-0.743-2.64h0s0,0,0,0,0,0,0,0h0a0,0,0,0,0,0,0l-0.125-.447h0a0.007,0.007,0,0,1,0,0h0q-0.7-2.488-1.337-4.81s0,0,0,0h0s0,0,0,0h0l-0.026-.1h0q-0.706-2.56-1.343-4.914h0s0,0,0,0h0l-0.195-.721h0s0,0,0,0q-0.418-1.55-.806-3.01h0s0,0,0,0h0a0,0,0,0,0,0,0h0s0,0,0,0h0l0-.014h0v0h0c-0.1-.39-0.211-0.79-0.311-1.17h0v-0.008c-0.1-.389-0.2-0.756-0.3-1.135-0.073-.278-0.149-0.566-0.22-0.839h0c-0.33-1.27-.64-2.476-0.93-3.627h0l-0.046-.181h0c-0.231-.916-0.448-1.791-0.653-2.631h0a0,0,0,0,1,0,0h0l-0.046-.189h0c-0.2-.84-0.4-1.649-0.578-2.411h0a0,0,0,0,0,0,0h0l-0.011-.044h0c-0.1-.411-0.185-0.8-0.274-1.189h0s0,0,0,0h0s0,0,0,0h0s0,0,0,0h0s0,0,0,0c-0.033-.144-0.068-0.295-0.1-0.436h0c-0.121-.536-0.234-1.047-0.34-1.539h0s0,0,0,0h0s0,0,0,0l-0.008-.039h0q-0.8-3.713-1.021-5.7h0c0-.045-0.009-0.086-0.013-0.128h0c-0.022-.215-0.042-0.422-0.053-0.6h0c-0.014-.2-0.023-0.385-0.023-0.544q0.631-5.689,5.126-5.695h2.563q7.043,8.542,15.377,8.543,2.562,7.976,5.073,15.82v0a0,0,0,0,1,0,0v0a0.007,0.007,0,0,0,0,0v0h0a0.012,0.012,0,0,0,0,0h0v0.005h0V216.7l0.894,2.794h0l0,0.006v0.009h0v0l0,0.006v0h0a0.007,0.007,0,0,0,0,0h0q1.779,5.557,3.535,11.056l0,0v0h0v0h0l0,0.007v0l0,0.006v0.009s0,0,0,0a0,0,0,0,1,0,0v0h0c0.381,1.193.764,2.39,1.143,3.579h0a0.007,0.007,0,0,0,0,0,0,0,0,0,1,0,0v0s0,0,0,0h0v0.009h0v0.007h0q4.584,14.358,9.011,28.31h0v0h0v0a0.007,0.007,0,0,0,0,0h0v0h0a0.007,0.007,0,0,1,0,0v0h0v0q0.5,1.575,1,3.143v0h0v0.008l0,0v0l0,0v0l0,0h0v0h0v0.008q4.538,14.308,8.917,28.2h0s0,0,0,0h0v0h0v0h0v0h0v0l0.567,1.8,0,0.006,0,0.007h0l0,0.007v0h0v0h0V295.8a0.012,0.012,0,0,1,0,0h0v0q2.261,7.177,4.478,14.24s0,0,0,0h0s0,0,0,0h0s0,0,0,0h0a0,0,0,0,1,0,0h0a0,0,0,0,0,0,0,0.014,0.014,0,0,0,0,.006,0.006,0.006,0,0,0,0,0,0.023,0.023,0,0,0,0,0,0,0,0,0,1,0,0v0c0.049,0.155.1,0.31,0.146,0.464h0v0a0.023,0.023,0,0,0,0,0h0v0h0q2.077,6.621,4.121,13.149a0,0,0,0,0,0,0s0,0,0,0h0a0.026,0.026,0,0,0,0,0s0,0,0,0l0,0.008a0.024,0.024,0,0,1,0,.008s0,0,0,0h0s0,0,0,0l0,0.009,0,0.013a0,0,0,0,1,0,0c0.324,0.63.626,1.223,0.9,1.771q1.6,3.192,20.862,44.488,3.553,1.392,6.887,10.882l1.179,3.4q-1.3-4.536-2.6-8.992c-0.034-.117-0.068-0.232-0.1-0.348l-0.221-.754c-0.017-.059-0.034-0.118-0.052-0.177-0.078-.269-0.157-0.538-0.236-0.809-0.65-2.228-1.3-4.452-1.946-6.65-0.3-1.007-.592-2-0.889-3-0.552-1.868-1.1-3.737-1.656-5.583-0.084-.283-0.169-0.564-0.253-0.844-0.19-.635-0.379-1.262-0.568-1.894q-0.086-.284-0.17-0.569c-0.514-1.712-1.028-3.425-1.54-5.118-0.348-1.153-.7-2.292-1.044-3.436-0.492-1.618-.984-3.235-1.474-4.835-0.358-1.168-.715-2.324-1.073-3.482-0.478-1.551-.956-3.1-1.432-4.632-0.138-.444-0.276-0.881-0.414-1.323-0.224-.721-0.45-1.444-0.675-2.163q-0.7-2.248-1.405-4.476a0.1,0.1,0,0,0,0-.016,0.026,0.026,0,0,0,0,0c-0.142-.45-0.283-0.9-0.425-1.343q-0.333-1.053-.665-2.1-0.693-2.181-1.383-4.34c-0.237-.741-0.474-1.476-0.711-2.213l-0.075-.235-0.313-.973h0q-0.686-2.128-1.37-4.232c-0.189-.581-0.377-1.158-0.566-1.736-0.176-.542-0.353-1.087-0.53-1.626q-0.683-2.088-1.363-4.146c-0.006-.016-0.011-0.032-0.016-0.048-0.04-.119-0.079-0.238-0.118-0.357-0.017-.05-0.033-0.1-0.049-0.148s-0.031-.094-0.047-0.141l-0.01-.031c-0.011-.034-0.022-0.067-0.034-0.1l-0.03-.091s0-.011,0-0.016c-0.023-.068-0.045-0.136-0.067-0.2l0-.008-0.054-.163-0.654-1.977c-0.455-1.368-.909-2.723-1.363-4.075q-0.095-.284-0.19-0.565c-0.038-.115-0.077-0.229-0.115-0.344-0.165-.489-0.329-0.981-0.494-1.468-0.091-.272-0.182-0.545-0.274-0.815-0.458-1.355-.914-2.694-1.371-4.032-0.35-1.027-.7-2.058-1.05-3.074-0.465-1.354-.928-2.688-1.391-4.024-0.048-.139-0.1-0.277-0.145-0.416-0.29-.837-0.58-1.678-0.87-2.5h0c-0.483-1.384-.965-2.746-1.447-4.11-0.315-.892-0.631-1.793-0.945-2.677-0.531-1.494-1.061-2.963-1.59-4.433-0.263-.729-0.526-1.47-0.788-2.193q-1.185-3.273-2.364-6.468v-5.695q4.475-2.837,12.814-2.847l-2.562-14.238v-2.847c0-1.891.85-2.848,2.562-2.848q0-2.135-28.191-76.881l5.126-2.848h2.563q32.032,29.9,112.768,276.205,3.422,9.8,6.774,19.419h0q0.919,2.642,1.835,5.267h0a0.024,0.024,0,0,0,0,.008s0,0,0,0v0h0a0.017,0.017,0,0,0,0,0,0,0,0,0,0,0,0,0.031,0.031,0,0,0,0,.008s0,0,0,0v0a0.011,0.011,0,0,1,0,0l0,0.005h0v0a0,0,0,0,1,0,0q2.317,6.651,4.6,13.213h0a0.241,0.241,0,0,1,.008.025l0,0,0,0.009a0.014,0.014,0,0,0,0,.006l0.008,0.023a0.121,0.121,0,0,0,0,.014,0.043,0.043,0,0,0,0,0l0,0,0.006,0.018h0l0.006,0.018a0.146,0.146,0,0,1,.007.019c0.7,2.026,1.419,4.075,2.119,6.09h0v0s0,0,0,0v0h0v0q3.21,9.228,6.357,18.3s0,0,0,.006h0a0.023,0.023,0,0,0,0,0,0,0,0,0,1,0,0,0,0,0,0,1,0,0h0c1.5,4.316,2.973,8.571,4.451,12.834a0.247,0.247,0,0,0,.01.029v0a0,0,0,0,1,0,0s0,0.008,0,.012l0.011,0.03h0l0,0.01a0.088,0.088,0,0,1,0,.015l0,0.007s0,0,0,0l0,0.01a0.134,0.134,0,0,0,.007.018l0.009,0.027,0.009,0.026,0.006,0.016a0.075,0.075,0,0,0,0,.016s0,0.008,0,.012a0.026,0.026,0,0,1,0,0c0.668,1.927,1.338,3.857,2,5.767a0,0,0,0,1,0,0h0a0,0,0,0,0,0,0h0a0,0,0,0,0,0,0h0a0,0,0,0,1,0,0h0s0,0,0,0h0c1.225,3.534,2.435,7.032,3.645,10.53h0a0,0,0,0,0,0,0h0a0.019,0.019,0,0,1,0,.007s0,0,0,0v0s0,0,0,0,0.008,0.023.013,0.035v0l0.006,0.018h0a0.008,0.008,0,0,1,0,0,0,0,0,0,1,0,0v0h0a0,0,0,0,0,0,0q2.916,8.429,5.785,16.733h0v0h0l0,0h0s0,0,0,0h0v0a0,0,0,0,1,0,0h0c0.046,0.132.09,0.261,0.136,0.392l0,0.009a0.056,0.056,0,0,0,0,.012s0,0,0,.006,0.005,0.014.007,0.02,0,0,0,.006v0l0,0.012,0,0.01a0,0,0,0,1,0,0l0,0.006,0,0.014a0.025,0.025,0,0,0,0,.007h0q3.251,9.414,6.435,18.656v0s0,0,0,0v0h0a0,0,0,0,1,0,0v0h0s0,0,0,0,0,0,0,0h0q2.172,6.3,4.309,12.516a0,0,0,0,1,0,0h0l0,0v0a0,0,0,0,0,0,0h0s0,0,0,0l0,0h0a0,0,0,0,0,0,0,0.014,0.014,0,0,0,0,.006q1.243,3.613,2.476,7.2v0a0.006,0.006,0,0,1,0,0h0v0h0a0,0,0,0,1,0,0v0a0,0,0,0,1,0,0h0q2.156,6.273,4.28,12.463v0l0,0.006h0l0,0h0a0.015,0.015,0,0,0,0,0v0a0,0,0,0,1,0,0v0h0q1.25,3.64,2.484,7.245h0v0l0,0s0,0,0,.008h0a186182652.6,186182652.6,0,0,1,0,.006h0l0,0a0.014,0.014,0,0,0,0,.006c0.231,0.676.461,1.345,0.69,2.016h0l0,0.008,0,0.009,0,0.009s0,0,0,0h0a0.023,0.023,0,0,0,0,0l0,0.007h0q2.748,8.02,5.444,15.906h0a0,0,0,0,0,0,0h0v0h0s0,0,0,0h0v0s0,0,0,0h0v0h0q2.067,6.049,4.105,12.02v0c0.924,2.709,1.837,5.387,2.75,8.068h0l0,0.009s0,0,0,.008a0.008,0.008,0,0,1,0,0l0,0h0a0.014,0.014,0,0,1,0,.006h0a0.014,0.014,0,0,1,0,.006,0,0,0,0,1,0,0h0a0.024,0.024,0,0,1,0,.008q1.2,3.521,2.389,7.014a0.014,0.014,0,0,1,0,.006,0,0,0,0,1,0,0l0,0h0v0h0l0,0h0q2.623,7.71,5.187,15.26h0s0,0,0,.006h0v0l0,0.006c0.015,0.046.031,0.092,0.046,0.138h0s0,0,0,0q2.48,7.3,4.9,14.467h0a0,0,0,0,0,0,0h0v0l0,0v0a0,0,0,0,0,0,0h0a0,0,0,0,1,0,0h0l1.668,4.928a0,0,0,0,0,0,0h0v0h0a0,0,0,0,0,0,0h0a0,0,0,0,0,0,0,0.023,0.023,0,0,1,0,0h0a0,0,0,0,0,0,0q1.572,4.651,3.123,9.242h0l1.276,3.782a0.019,0.019,0,0,0,0,.007s0,0,0,.006h0q8.42,24.954,16.135,48.081h0v0h0v0h0l0,0a0.006,0.006,0,0,0,0,0s0,0,0,0h0v0h0s0,0,0,0a0.023,0.023,0,0,1,0,0v0h0a0,0,0,0,1,0,0h0a0,0,0,0,0,0,0s0,0,0,0a0.023,0.023,0,0,0,0,0v0a0,0,0,0,0,0,0q2.505,7.512,4.937,14.83a0,0,0,0,1,0,0s0,0,0,0h0a0,0,0,0,1,0,0h0a0,0,0,0,1,0,0,0,0,0,0,1,0,0,0,0,0,0,1,0,0h0v0a0.026,0.026,0,0,0,0,.005v0q12.334,37.124,22.762,69.289h0a0.023,0.023,0,0,1,0,0h0a0,0,0,0,0,0,0v0h0v0h0a0.006,0.006,0,0,1,0,0s0,0,0,0a0,0,0,0,1,0,0,0.023,0.023,0,0,0,0,0h0c1.219,2.224,2.016,3.707,2.361,4.394q9.246,18.452,9.633,20.653,18.227,30.672,19.514,33.219,8.835,16.683,15.334,29.34,1.488-2.018,3.173-4.253h0a0,0,0,0,1,0,0s0,0,0,0h0a0,0,0,0,1,0,0v0h0l0,0v0l0.01-.013h0c0.8-1.056,1.631-2.155,2.494-3.285h0l0.474-.621h0c0.85-1.111,1.719-2.244,2.632-3.424h0c0.483-.625.988-1.274,1.488-1.918h0c0.817-1.052,1.646-2.116,2.51-3.221h0q1.345-1.719,2.761-3.517h0c1.1-1.4,2.257-2.856,3.426-4.328v0h0a0,0,0,0,0,0,0h0c0.5-.63.989-1.249,1.507-1.9h0c1.259-1.581,2.581-3.232,3.914-4.9l0,0h0v0s0,0,0,0h0l0,0a0,0,0,0,0,0,0l0,0h0c0.467-.584.912-1.142,1.39-1.737h0c0.361-.45.74-0.919,1.106-1.375h0l0,0v0h0q1.443-1.792,2.93-3.633l0.019-.024,0.969-1.2h0l1.056-1.306h0q2.714-3.351,5.591-6.886a1475.816,1475.816,0,0,1,89.7-133.831q12.808-14.949,12.814-22.78L381.186,582.4v-2.847q0-5.69,7.689-5.7,142.872,96.819,156.337,96.814h2.563V662.13q-31.4-18.5-69.2-56.95v-2.847q0-5.69,10.252-5.695l-7.688-11.39V582.4q5.12-7.107,5.125-8.542-38.443-14.949-38.443-19.932v-2.848q0.63-5.689,5.125-5.695h5.126q45.488,19.221,130.709,68.34v-2.848l-61.51-51.254v-2.848q0-5.69,7.689-5.7,64.707,39.876,69.2,39.865Q649,531.864,655.417,494.129q7.689-11.379,10.252-11.39h2.563q5.121,0.717,5.126,5.7v2.848q-5.767,7.841-10.252,28.474h5.126l25.629-39.864h2.563q5.121,0,5.126,8.542-7.689,27.061-7.689,28.475h2.563q3.2,0,28.192-42.712h2.563l5.126,2.847q0-4.27,17.94-19.932h2.563q5.121,0.717,5.126,5.695v2.847l-53.821,96.814h2.562q62.787-50.536,84.577-96.814h5.125q5.121,0.718,5.126,5.695V474.2q-14.747,32.034-41.006,68.339-39.09,66.2-71.762,113.9v2.847q115.33,85.425,274.232,222.1,74.315-343.831,158.9-615.054,56.37-147.356,56.38-179.39,16.65-41.995,28.19-51.254h2.57q5.115,0,5.12,8.542-30.75,74.746-48.69,187.933l-69.2,236.34q9.615-7.825,66.63-165.153,33.315-157.318,46.14-187.933h5.12q5.13,0.717,5.13,5.7v42.712h2.56q18.57-56.945,28.19-56.95,30.765-51.254,33.32-51.254h2.56q5.13,0,5.13,8.542,0,15.667-5.13,45.56v2.847h2.57q5.76-34.169,12.81-34.169h2.56q5.13,0.717,5.13,5.695v22.78q0,35.6-48.7,236.34Zm-12.81,469.83q10.89,19.935,33.31,25.63-4.485-9.24-33.31-28.48v2.85Zm-38.45,5.7c0,2.84,3.42,6.65,10.25,11.39v-2.85q0-4.275-10.25-11.39v2.85Zm-233.222,85.42h-2.563v5.7h2.563v-5.7Zm-371.872,12.74,1.211,0.98,0.319,0.64-0.573.29a1.8,1.8,0,0,0,1.464.06l-0.318-.64-0.319-.63c0.717-1.43.4-2.07-.957-1.91C539.679,1223.18,539.407,1223.57,539.836,1224.43Zm-10-8.53c2.754,0.74,4.582.1,5.475-1.94a7.588,7.588,0,0,0-3-8.85Q528.927,1208.4,529.831,1215.9ZM23.106,290.572a11.938,11.938,0,0,0,5.468-9.11A23.672,23.672,0,0,0,23.106,290.572ZM46.5,395.9q-0.957-1.909-4.732-22.313-2.111-1.331-3.827-7.637-0.588-6.872-4.608-26.356a5.636,5.636,0,0,0-4.27-4.23q4.127-6.043-2.109-8.5,7.762-10.254.489-23.336l-4.394-.187q-1.595,3.99-1.257,18.943-0.7,4.342,4.589,4.867-4.133,6.064,2.682,8.211-6.552,4.086-5.084,11.306,2.749,16.948,5.565,28.265-0.072-1.55,7.667,29.6,1.65,4.734,4.654,6.426Q48.863,403.46,46.5,395.9Zm11.347-57.442L56.96,338.1l-0.254.923Zm-0.2-11.842c-1.023-1.08-2.19-1.018-3.5.162a2.524,2.524,0,0,0-1.654,2.421c-0.385.193-.144,1.142,0.7,2.833q0.124,3.129,2.994,1.684l1.653-2.421Q59.749,327.948,57.651,326.611Zm12.094-4.468c-0.424-.845-1.3-0.668-2.61.512-0.132,1.658,0,2.389.384,2.2l2.61-.512Zm98.719,86.562H165.9V414.4h2.563v-5.695Zm28.192,111.051q-12.824-59.8-25.629-102.509h-2.563v5.695q5.121,33.469,25.63,99.662h2.562v-2.848Zm2.563,8.543h-2.563v5.7h2.563v-5.7Zm2.563,8.542h-2.563v5.695h2.563v-5.695Zm19.15,311.508q-0.588-6.872-6.19-15.212-8.358-10.947-10.466-26.606c-2-1.126-2.938-2.509-2.806-4.168a19.728,19.728,0,0,1-6.5-8.685Q189.1,786.26,190.88,779.8q-9.625-6.336-7.655-15.274l-2.232-4.455q-4.21-2.668-7.844-12.791A407.434,407.434,0,0,0,146.612,692.9q-3.77-6.079-7.785-18.394-4.978-14.226-6.32-18.332a46.843,46.843,0,0,1-2.3-6.015,34.733,34.733,0,0,0-1.978-5.378q-4.092-6.721-13.214-36.377-0.391-2.191-11.293-25.395a3.578,3.578,0,0,0-3.632-2.957c1.863-2,2.668-3.726,2.415-5.191q-2.566-12.262-7.654-15.275,0.762-2.77-2.675-1.048l0.892,0.349,1.783,0.7a10.31,10.31,0,0,0-1.966,8.948q3.308,9.483,6.633,11.805a8.389,8.389,0,0,0,.006,7.163q2.753,24.094,9.906,41.218,3.307,9.484,16.149,43.665,10.456,26.6,16.975,42.453Q179.744,800.5,176.247,793.5q5.1,10.173,12.185,25.745a47.978,47.978,0,0,1,1.405,5.665q12.684,16.73,14.216,18.357c0.21,0.418,2.544,2.707,7.011,6.838,2.753,0.736,4.328,1.017,4.713.824Q221.369,852.105,220.932,848.349ZM283.5,1107.63a3.014,3.014,0,0,1-.51-0.59h0q-3.123,6.045-5.6,11.51c0,0.01,0,.01-0.007.02s-0.008.01-.012,0.02h0c-0.8,1.77-1.54,3.48-2.236,5.15l-0.076.18a0.038,0.038,0,0,1-.008.02,0.016,0.016,0,0,0,0,.01h0c0,0.01,0,.01-0.007.02h0c-0.657,1.59-1.259,3.13-1.823,4.63-0.013.03-.028,0.07-0.04,0.1-0.018.05-.035,0.09-0.052,0.14-0.028.07-.057,0.14-0.083,0.21-0.521,1.41-.988,2.76-1.428,4.09-0.025.08-.053,0.15-0.078,0.23a0.2,0.2,0,0,0-.012.04c-0.018.05-.037,0.1-0.053,0.15-0.03.09-.061,0.18-0.089,0.26-0.4,1.23-.742,2.42-1.07,3.59a0.663,0.663,0,0,0-.019.07c-0.018.06-.037,0.12-0.056,0.19-0.054.19-.123,0.4-0.176,0.6-0.3,1.11-.543,2.18-0.776,3.23-0.065.3-.15,0.61-0.21,0.89q-0.406,1.98-.657,3.81h2.563c0.167-.11.346-0.25,0.534-0.4h0s0-.01,0-0.01c0.057-.05.121-0.11,0.18-0.16,0.134-.12.268-0.24,0.412-0.39,0.031-.03.065-0.07,0.1-0.1a1.829,1.829,0,0,1,.137-0.14c0.139-.15.279-0.3,0.427-0.47a0.655,0.655,0,0,0,.075-0.08c0.053-.06.107-0.13,0.161-0.19,0-.01.006-0.01,0.009-0.01s0-.01.007-0.01h0s0,0,0-.01h0c0.152-.18.305-0.36,0.466-0.56l0.025-.03c0.033-.04.068-0.09,0.1-0.13a0.492,0.492,0,0,0,.05-0.07s0.008-.01.012-0.01l0.068-.09h0c0-.01,0-0.01,0-0.01s0,0,0-.01c0.169-.21.341-0.43,0.518-0.67l0.245-.33c0.011-.02.022-0.03,0.033-0.05q0.285-.39.585-0.81c0.052-.08.106-0.15,0.159-0.23,0.036-.05.071-0.1,0.108-0.15a0.017,0.017,0,0,0,0-.01c0.217-.31.441-0.64,0.67-0.98a1.051,1.051,0,0,0,.072-0.11l0.045-.06c0.042-.07.084-0.13,0.126-0.19l0.785-1.2s0-.01,0-0.01a1.022,1.022,0,0,0,.066-0.1l0.023-.03c0.032-.05.064-0.1,0.1-0.15q0.468-.735.961-1.53c0.024-.04.047-0.08,0.072-0.12,0.315-.5.639-1.03,0.97-1.58a0.219,0.219,0,0,1,.03-0.05q0.489-.81,1-1.68a0.482,0.482,0,0,1,.049-0.08c0.339-.58.686-1.17,1.04-1.79a0.034,0.034,0,0,0,.011-0.02,0.565,0.565,0,0,0,.047-0.08q0.533-.915,1.086-1.89a0.186,0.186,0,0,0,.01-0.02h0c0-.01.006-0.01,0.009-0.02h0l0.014-.03a0.034,0.034,0,0,0,.012-0.02,0.03,0.03,0,0,0,.01-0.02h0c0.372-.65.751-1.33,1.137-2.02a0.189,0.189,0,0,0,.028-0.05,0.222,0.222,0,0,0,.028-0.05c0.39-.7.788-1.41,1.194-2.15a0.061,0.061,0,0,1,.007-0.01h0c0-.01,0-0.01,0-0.01h0a0.224,0.224,0,0,1,.027-0.05c0-.01,0-0.01.006-0.01,0.41-.75.828-1.51,1.254-2.3l0.015-.03c0-.01.01-0.01,0.015-0.02q0.649-1.2,1.324-2.46h0A47.764,47.764,0,0,1,283.5,1107.63ZM540.086,610.875q0-4.27-10.251-8.542v5.7q3.844,0,10.251,5.695v-2.848Zm7.689,2.848h-2.563v5.7h2.563v-5.7ZM408.115,963.985c0.287-.524.626-1.112,1-1.748h0l0.076-.13h0c0.2-.335.415-0.69,0.639-1.056h0l0.006-.009h0q0.36-.59.765-1.233h0l0,0h0q0.683-1.087,1.483-2.322h0l0.066-.1h0q1.748-2.691,4.06-6.09h0l0.079-.117h0q1.132-1.665,2.4-3.5h0q1.367-1.977,2.886-4.144h0l0.184-.261h0c0.979-1.4,2-2.84,3.072-4.355h0.006a0,0,0,0,0,0,0h0c1.013-1.429,2.078-2.923,3.177-4.458h0a0,0,0,0,0,0,0h0l0.187-.263h0q1.677-2.343,3.488-4.854h0c0.194-.268.387-0.537,0.583-0.807h0q1.821-2.522,3.77-5.205h0l0.11-.153h0v0h0c1.343-1.849,2.722-3.743,4.157-5.707h0l0.034-.047h0l0.067-.092h0l0,0v0l0,0a0,0,0,0,1,0,0h0v0a0,0,0,0,0,0,0h0q2.259-3.09,4.673-6.376h0a0,0,0,0,1,0,0l0,0h0l0,0v0a0.086,0.086,0,0,1,.007-0.01l0.006-.008,0.04-.054h0q2.415-3.288,4.987-6.772h0s0,0,0,0h0v0h0a0,0,0,0,0,0,0v0l0.123-.166h0q2.308-3.127,4.738-6.406h0a0,0,0,0,0,0,0h0v0h0l0.519-.7,0,0h0v0a0,0,0,0,0,0,0h0l0,0h0c1.64-2.212,3.309-4.462,5.032-6.778q58.942-103.209,58.947-105.356H517.02q-30.124,29.2-97.39,153.763a2.213,2.213,0,0,0-.551.181c-0.065.029-.135,0.073-0.2,0.11-0.094.051-.192,0.113-0.29,0.177-0.04.025-.077,0.043-0.118,0.072-0.086.06-.175,0.129-0.265,0.2q-0.2.154-.4,0.339c-0.1.091-.2,0.183-0.308,0.285-0.136.132-.278,0.281-0.421,0.432-0.113.121-.225,0.235-0.343,0.368-0.1.113-.206,0.243-0.31,0.369-0.047.054-.092,0.108-0.139,0.164q-0.391.473-.81,1.027l-0.079.1-0.109.144-0.062.082a0.027,0.027,0,0,1-.007.008l-0.053.071-0.031.041c-0.186.254-.379,0.532-0.572,0.809l-0.219.314c-0.036.053-.072,0.1-0.109,0.157-0.206.3-.418,0.622-0.632,0.951q-0.151.229-.3,0.468c-0.234.363-.47,0.735-0.713,1.126-0.02.034-.042,0.069-0.063,0.1l-0.061.1c-0.017.027-.034,0.054-0.05,0.082l-0.039.062a0.174,0.174,0,0,1-.011.018c-1.23,2-2.576,4.357-4.044,7.079,0,0.01-.011.02-0.016,0.031q-0.55,1.018-1.122,2.107l-0.094.179q-0.577,1.1-1.176,2.262A38.677,38.677,0,0,1,408.115,963.985Zm24.329-79.753q-3.159,3.369-6.115,6.649l-0.068.076c-0.1.111-.2,0.221-0.3,0.333-0.413.464-.818,0.925-1.233,1.389-1.42,1.59-2.829,3.175-4.179,4.733-0.547.632-1.063,1.25-1.6,1.876-1.3,1.525-2.593,3.043-3.829,4.537-0.43.52-.841,1.031-1.26,1.546l-0.131.16c-1.259,1.543-2.5,3.077-3.683,4.589-0.134.169-.262,0.337-0.393,0.506q-0.237.3-.469,0.6l-0.038.048-0.007.01-0.065.084h0l-0.1.131-0.05.064h0c-1.235,1.594-2.438,3.173-3.591,4.731-0.144.194-.284,0.386-0.425,0.579l-0.133.179c-0.073.1-.148,0.2-0.221,0.3l-0.061.082q-1.822,2.491-3.509,4.923l-0.024.035c-0.178.256-.356,0.512-0.531,0.767q-1.793,2.615-3.423,5.156c-0.04.064-.082,0.128-0.124,0.193l-0.107.166c-0.014.023-.03,0.046-0.044,0.069q-1.76,2.763-3.33,5.443h0c1.284,2.789,2.3,5.123,3.038,6.962a7.023,7.023,0,0,1,2.535,3.387q0.969-1.8,2.015-3.705h0a0.114,0.114,0,0,0,.01-0.019h0q1.536-2.795,3.233-5.8h0l0,0h0q1.662-2.94,3.475-6.073h0c0.008-.014.016-0.029,0.025-0.043h0s0,0,0,0h0a0,0,0,0,0,0,0h0v0h0q0.987-1.7,2.017-3.462a0.017,0.017,0,0,1,0-.006h0a0,0,0,0,0,0,0h0l0,0h0a0,0,0,0,0,0,0v0h0q1.053-1.8,2.154-3.658h0l0.058-.1h0q1-1.695,2.043-3.437h0c0.045-.076.092-0.154,0.139-0.231a0,0,0,0,1,0,0h0l0,0v0h0a0.008,0.008,0,0,1,0,0h0l0,0q1.051-1.758,2.139-3.565h0l0.043-.071a0,0,0,0,1,0,0l0,0,0,0,0,0,0,0a0.005,0.005,0,0,1,0,0l0,0,0,0h0a0.005,0.005,0,0,1,0,0l0,0h0v0q1.135-1.882,2.313-3.82h0c0.166-.274.34-0.557,0.508-0.833l0,0h0v0h0v0h0v0h0s0,0,0,0v0h0a0,0,0,0,1,0,0h0q1.165-1.914,2.37-3.879h0l0.035-.057v0h0s0,0,0,0h0v0q1.2-1.955,2.438-3.959h0l0.577-.931a0.041,0.041,0,0,1,.005-0.009,0.043,0.043,0,0,0,0-.007h0l0-.006a0.016,0.016,0,0,0,0-.007h0a0.043,0.043,0,0,1,0-.007l0,0a0.025,0.025,0,0,1,0-.007l0-.006,0-.007h0a0,0,0,0,0,0,0h0l0-.006,0-.006v0l0-.007,0.006-.009c0.564-.911,1.124-1.817,1.7-2.744h0c0.391-.629.8-1.275,1.192-1.911l0-.007h0a0,0,0,0,1,0,0h0q1.561-2.5,3.182-5.085h0s0,0,0,0h0a0.174,0.174,0,0,0,.011-0.018h0a0,0,0,0,1,0,0h0c1.37-2.18,2.759-4.386,4.191-6.647h-2.563Zm48.7-96.814h-5.126v2.848h5.126v-2.848ZM532.4,716.232h-5.126q0,4.988-41.007,59.8h2.563q38.444-38.441,43.57-54.1v-5.694Zm2.563,108.2q0,5.706-23.067,39.865h2.563q9.611-3.553,25.629-39.865h-5.125Zm10.251-8.542h-5.126v2.847h5.126v-2.847ZM552.9,690.6h-5.126v2.848H552.9V690.6Zm5.126-17.084v5.694h5.126Q563.153,673.525,558.027,673.52Zm30.755-42.713V636.5c3.414,0,5.125-1.891,5.125-5.695h-5.125Zm15.377,148.069H601.6l-43.569,82.576q0,9.261-35.881,99.662h2.563q14.085-16.368,89.7-173.7ZM706.675,608.028q1.923-6.408,28.193-48.407h-2.563q-19.867,12.113-28.192,37.017a24.612,24.612,0,0,1-2.563,11.39h5.125Zm-41.006-65.492q-35.891,56.961-35.881,68.339v2.848q41-53.391,41.007-71.187h-5.126ZM927.086,1200.3h2.563v-11.39h-2.563v11.39Zm2.563-14.24h2.563v-11.39h-2.563v11.39Zm2.563-17.08h2.563v-8.54h-2.563v8.54Zm2.563-17.09v2.85h2.563l10.251-56.95v-2.85h-2.563Q939.89,1110.615,934.775,1151.89Zm15.377-68.33h-2.563v5.69h2.563v-5.69Zm12.815-2.85q0,8.535-5.126,34.17v2.84H960.4q10.24-27.75,10.251-31.32Q964.243,1080.715,962.967,1080.71Zm15.377-22.78q0-4.275-7.689-8.54l-2.563,5.69v5.7c0,2.84,3.414,6.65,10.252,11.39v-14.24Zm110.206,76.88h2.56v-5.7h-2.56v5.7Zm-15.38-11.39q3.84,0,10.25,5.69v-2.84q0-4.275-7.69-8.55h-2.56v5.7Zm-2.56-62.64h2.56v-5.7h-2.56v5.7Zm0-447.057v-5.695h-2.56v5.695h2.56Zm-5.13,8.542h2.57V616.57h-2.57v5.695Zm-7.69,486.915h2.57v-5.69h-2.57v5.69Zm-15.37,54.1h2.56v-5.69h-2.56v5.69Zm5.12-11.39v-5.69h-2.56v5.69h2.56Zm-17.94,68.34v-5.69h-2.56v5.69h2.56Zm-2.56,2.85h-2.56v5.7h2.56v-5.7Zm-5.13,14.24h2.57v-5.7h-2.57v5.7ZM1011.66,810.2V804.5h-2.56V810.2h2.56Zm-2.56,5.7h-2.56v5.695h2.56v-5.695Zm-2.56,8.542h-2.57v5.7h2.57v-5.7Zm-2.57,11.39h-2.56v5.695h2.56v-5.695Zm-17.937,68.34q5.121,0,15.377-54.1v-2.848h-2.563q0,4.989-15.377,56.95h2.563Zm0-62.645H988.6v-5.695h-2.563v5.695Zm2.563-11.39h2.563v-5.7H988.6v5.7Zm2.563-8.542h2.562v-5.695h-2.562v5.695Zm2.562-11.39h2.564V804.5h-2.564V810.2ZM1150.06,232.162h-2.56v5.695h2.56v-5.695Zm-2.56,11.39q-5.145,0-43.57,125.288Q1050.11,552.5,996.285,795.961v2.847h2.562Q1085.972,444.3,1147.5,243.552ZM1096.24,474.2h-2.56v5.695h2.56V474.2Zm-25.63,125.288v2.848h2.56q0-4.272,33.32-111.051Q1084.05,527.587,1070.61,599.485ZM1111.62,474.2h-2.57v5.695h2.57V474.2Zm92.26-287.6h-2.56V192.3h2.56V186.6Zm-5.13,11.39v8.543h2.57v-8.543h-2.57Zm-25.62,410.036q0,76.181-30.76,150.916l-10.25,37.017a24.662,24.662,0,0,1,2.56,11.39h2.56q41.01-123.865,87.14-355.934V448.57h-2.56Q1173.115,597.361,1173.13,608.028Zm45.83-387.174,3.4,8.511q2.025-11.733,2.02-14.288V212.23h-2.56Q1220.29,216.551,1218.96,220.854Zm7.99-20.014h-2.57v5.695h2.57V200.84Zm0,236.34h-2.57v5.695h2.57V437.18Zm7.69-76.882h2.56q15.375-47.683,15.38-51.255-6.42,0-17.94,48.407V360.3Zm41-267.662q-30.75,34.17-30.75,88.271-3.225,0-7.69,42.712,30.75-39.858,30.75-91.119Q1270.5,132.5,1275.64,92.636ZM29.84,262.231l-0.009.287C29.38,262.348,29.385,262.253,29.84,262.231Zm0.115-3.756a36.391,36.391,0,0,0,.124-4.043L29.76,253.8c0.761-.381,1.059-0.256.892,0.35q-0.382,4.968-.124,4.043a9.051,9.051,0,0,0-.124,4.043c-0.236-.007-0.42-0.007-0.564,0Zm20.608,45.411-0.573.287C50.926,303.182,51.114,303.087,50.563,303.886ZM374.06,1336.95c1.569,0.28,2.4,1.45,2.486,3.54a6.557,6.557,0,0,1-2.734,4.55,1.837,1.837,0,0,1-1.464-.06,2.408,2.408,0,0,1-2.168-2.9,4.534,4.534,0,0,1,2.734-4.55Zm1288.1-196.49q7.695,24.93,19.86,104.65v12.81a57.084,57.084,0,0,1-7.68-1.42q-2.58-2.835-3.85-9.97-6.4-41.28-7.05-49.83-1.92-16.365-5.12-26.34-1.29-2.835-1.28-12.1a34.384,34.384,0,0,0-3.21-12.81q-1.92-2.145,1.92-6.41A35.787,35.787,0,0,1,1662.16,1140.46Zm1563.02,39.16q3.2,9.975-7.05,29.18l0.64-3.56Q3220.045,1200.98,3225.18,1179.62Zm265.9-10.68a1.475,1.475,0,0,1,.64,2.13l-1.28.71-1.28-1.42C3489.58,1168.94,3490.22,1168.47,3491.08,1168.94Zm28.83-8.55c0.85,0.96.64,1.67-.64,2.14a5.259,5.259,0,0,1-4.48-.71v-1.43Q3517.34,1155.425,3519.91,1160.39Zm33.32,34.89q-1.92,6.4-3.2,21.35a53.365,53.365,0,0,1-3.21-16.37v-27.05c0-2.85.64-4.74,1.93-5.7Q3557.705,1178.19,3553.23,1195.28Zm15.38,61.93q3.195,5.7,3.2,14.24a99.01,99.01,0,0,1-4.48-9.97c-1.28-3.79-2.36-6.87-3.21-9.25C3565.82,1252.23,3567.33,1253.89,3568.61,1257.21Zm149.93,114.61c1.7,0,3.2,1.89,4.48,5.69a4.518,4.518,0,0,1,.64,2.85l-1.92.71a4.113,4.113,0,0,1-3.2-1.42q-3.21-5.7-.64-7.12A0.6,0.6,0,0,1,3718.54,1371.82Z"/>
</svg>
