<svg xmlns="http://www.w3.org/2000/svg" width="2448" height="2448" viewBox="0 0 2448 2448">
  <defs>
    <style>
      .cls-1 {
        fill: #ff768f;
      }

      .cls-1, .cls-2, .cls-3, .cls-4, .cls-5, .cls-6 {
        fill-rule: evenodd;
      }

      .cls-2 {
        fill: #b467ff;
      }

      .cls-3 {
        fill: #31bbe3;
      }

      .cls-4 {
        fill: #ff395d;
      }

      .cls-5 {
        fill: #8302ff;
      }

      .cls-6 {
        fill: #0779e4;
      }
    </style>
  </defs>
  <path id="Ellipse_1_copy_2" data-name="Ellipse 1 copy 2" class="cls-1" d="M2261.6,728.232S2144.06,112.868,1071.72,62.9c-179.353,0-350.807,33.817-508.335,95.421C43.62,361.59,219,1279,219,1279l169,537,438,212,350,200,31,119,457-338,300-162,344-681Z"/>
  <path id="Ellipse_1_copy" data-name="Ellipse 1 copy" class="cls-2" d="M2167.12,1655.92C2069.9,1060.34,1538.04,605,896.5,605c-253.41,0-489.708,71.047-688.865,193.72C-151.606,1020,498,1884,498,1884l419,225,300,249,401-337,388-156S2194.1,1821.2,2167.12,1655.92Z"/>
  <path class="cls-3" d="M1757.17,2102.07s2.34-59.2-.17-88.07c-44.37-510.35-476.33-910.28-998.184-910.28-213.356,0-411.081,66.93-573.325,180.93C-71.548,1465.27,509,1918,509,1918l459,217,231,231,430-334Z"/>
  <path id="Shape_1_copy" data-name="Shape 1 copy" class="cls-4" d="M2374.04,1093.18c0,0.38-.01.74-0.01,1.11,0.09,8.86.15,17.78,0.15,26.81,0,341.74-77.18,560.58-173.73,700.76-38.34,61.11-101.38,130.92-205.04,192.72C1900.83,2074,1771.59,2126.04,1595,2155.9c-34.08,24.76-76.93,67.18-192.2,178.1-32.91,32.05-79.89,82.31-139.08,96.47-92.88,22.22-153.36-27.7-187.94-61.07-133.35-122.83-191.341-184.85-236.409-216.08-154.737-27.44-272.412-72.09-361.886-123.58-121.39-66.47-192.053-144.26-233.179-211.12-70.477-103.53-130.32-249.44-156.848-455.05-9.423-73.03-14.642-153.6-14.642-242.47,0-9.03.059-17.95,0.152-26.81,0-.37-0.011-0.73-0.015-1.11-0.016-1.57-.029-3.15-0.041-4.73q-0.085-10.41-.1-20.96c0-6.59.039-13.11,0.1-19.61,0.016-1.83.038-3.66,0.058-5.48q0.086-7.665.225-15.24c0.028-1.51.05-3.02,0.08-4.53q0.194-9.48.467-18.84c0.039-1.34.087-2.67,0.129-4q0.237-7.575.527-15.065,0.1-2.665.211-5.324,0.351-8.48.764-16.855c0.026-.53.048-1.066,0.075-1.6q0.461-9.093,1.007-18.045c0.1-1.656.2-3.3,0.309-4.951q0.438-6.982.923-13.885c0.105-1.5.207-3.01,0.316-4.506q0.636-8.751,1.344-17.381c0.088-1.067.183-2.121,0.273-3.184q0.6-7.183,1.261-14.276,0.231-2.5.467-4.981,0.7-7.319,1.447-14.545c0.087-.838.168-1.685,0.257-2.52q0.879-8.334,1.833-16.535c0.173-1.492.352-2.974,0.528-4.46q0.753-6.356,1.546-12.635c0.187-1.48.371-2.965,0.562-4.438q1.038-8.029,2.139-15.944c0.112-.8.23-1.592,0.343-2.391q0.964-6.821,1.979-13.547,0.353-2.345.712-4.677,0.976-6.351,2-12.621c0.168-1.034.331-2.077,0.5-3.108q1.251-7.587,2.567-15.054c0.238-1.355.483-2.7,0.724-4.046q1.028-5.748,2.091-11.427c0.273-1.458.545-2.919,0.822-4.37q1.395-7.311,2.843-14.519c0.111-.55.227-1.09,0.338-1.639q1.317-6.474,2.683-12.852,0.477-2.227.96-4.441,1.194-5.492,2.422-10.915c0.265-1.17.526-2.349,0.793-3.514q1.572-6.852,3.2-13.594c0.3-1.251.611-2.489,0.915-3.735q1.258-5.142,2.546-10.221,0.549-2.167,1.1-4.327,1.579-6.132,3.2-12.177c0.167-.62.333-1.241,0.5-1.859q1.664-6.141,3.376-12.18,0.608-2.149,1.222-4.283,1.349-4.7,2.724-9.343c0.377-1.272.75-2.552,1.13-3.818q1.838-6.125,3.721-12.152c0.372-1.19.751-2.365,1.126-3.549q1.431-4.521,2.887-8.988,0.7-2.164,1.417-4.318,1.6-4.832,3.228-9.6c0.291-.853.578-1.717,0.87-2.566q1.972-5.721,3.99-11.337c0.5-1.409,1.013-2.807,1.521-4.207q1.435-3.954,2.89-7.86c0.5-1.354,1.006-2.712,1.514-4.057q2.041-5.41,4.12-10.735c0.459-1.175.926-2.333,1.388-3.5q1.534-3.878,3.086-7.709,0.883-2.178,1.773-4.342,1.561-3.793,3.143-7.536c0.48-1.14.956-2.291,1.439-3.424q2.133-5,4.3-9.909c0.621-1.411,1.248-2.808,1.874-4.209q1.449-3.241,2.91-6.446c0.647-1.418,1.293-2.838,1.944-4.245q2.076-4.486,4.178-8.9c0.649-1.362,1.3-2.706,1.957-4.057q1.545-3.2,3.1-6.369,1.087-2.2,2.18-4.386,1.466-2.927,2.942-5.815c0.677-1.326,1.35-2.661,2.03-3.977q2.229-4.311,4.484-8.545c0.764-1.435,1.533-2.854,2.3-4.277q1.383-2.562,2.774-5.1,1.206-2.2,2.416-4.379,1.6-2.875,3.219-5.709,1.774-3.124,3.562-6.2c0.96-1.654,1.921-3.307,2.886-4.943q1.316-2.229,2.639-4.433,1.311-2.189,2.63-4.351c0.875-1.44,1.75-2.885,2.63-4.311q2.262-3.663,4.542-7.263c0.934-1.475,1.874-2.931,2.813-4.391q1.234-1.92,2.473-3.823,1.458-2.236,2.92-4.45c0.822-1.241,1.647-2.468,2.472-3.7,0.868-1.293,1.731-2.6,2.6-3.883,39.583-64.392,106.574-138.938,219.887-203.744C612.71,76.885,842.838,6.015,1199.36,6.015q11.88,0,23.58.1,12.255-.1,24.7-0.1c356.07,0,586.07,70.692,734.67,159.956,113.76,64.937,180.91,139.7,220.55,204.242,0.1,0.153.21,0.311,0.31,0.464q2.625,3.853,5.21,7.791,0.825,1.252,1.65,2.517,2.115,3.236,4.22,6.525c0.46,0.715.92,1.423,1.38,2.142q2.67,4.217,5.32,8.519c0.43,0.693.85,1.4,1.28,2.093,1.4,2.289,2.8,4.6,4.18,6.923,0.54,0.9,1.08,1.8,1.61,2.7q2.415,4.082,4.81,8.233c0.17,0.292.34,0.578,0.5,0.871q2.61,4.537,5.18,9.175c0.5,0.91,1.01,1.827,1.51,2.743q1.98,3.6,3.95,7.262c0.46,0.847.91,1.689,1.37,2.541q2.52,4.74,5.02,9.571c0.35,0.673.69,1.357,1.04,2.033q2.025,3.972,4.05,8,0.75,1.506,1.5,3.019,2.13,4.305,4.23,8.679c0.25,0.516.5,1.024,0.74,1.541q2.43,5.069,4.81,10.24c0.45,0.974.89,1.956,1.34,2.935q1.845,4.02,3.66,8.1c0.43,0.981.87,1.957,1.31,2.942q2.34,5.3,4.64,10.694c0.25,0.6.5,1.2,0.76,1.8q1.95,4.621,3.88,9.317c0.46,1.107.91,2.216,1.36,3.329q1.875,4.6,3.71,9.266c0.28,0.719.57,1.429,0.85,2.15q2.205,5.633,4.37,11.372c0.38,1.02.76,2.051,1.15,3.076q1.665,4.491,3.32,9.045c0.4,1.114.81,2.225,1.21,3.344q2.115,5.9,4.19,11.893c0.14,0.426.29,0.86,0.43,1.286,1.25,3.627,2.47,7.286,3.69,10.97,0.4,1.205.8,2.415,1.19,3.626q1.62,4.95,3.2,9.97c0.29,0.911.58,1.813,0.87,2.727q1.95,6.229,3.85,12.569c0.31,1.043.62,2.1,0.93,3.146q1.485,5.028,2.95,10.124c0.36,1.248.72,2.5,1.07,3.749q1.845,6.535,3.65,13.168c0.02,0.1.05,0.191,0.08,0.286q1.755,6.522,3.46,13.165,0.495,1.945.99,3.9,1.365,5.353,2.69,10.779c0.26,1.1.54,2.187,0.8,3.288q1.665,6.862,3.26,13.835c0.24,1.03.47,2.072,0.7,3.106q1.275,5.648,2.52,11.37,0.45,2.075.9,4.156,1.425,6.622,2.79,13.337c0.08,0.4.16,0.8,0.24,1.207q1.47,7.275,2.88,14.679c0.26,1.379.52,2.768,0.78,4.153q1.095,5.811,2.14,11.695c0.23,1.282.46,2.557,0.69,3.844q1.32,7.527,2.58,15.167c0.16,0.963.32,1.939,0.47,2.9q1.035,6.378,2.03,12.839c0.24,1.515.47,3.033,0.7,4.556q1.02,6.816,2,13.723c0.11,0.75.22,1.49,0.32,2.242q1.11,7.936,2.15,16c0.19,1.446.37,2.9,0.55,4.354,0.54,4.219,1.05,8.462,1.56,12.73,0.17,1.465.35,2.925,0.52,4.4q0.945,8.228,1.84,16.571c0.08,0.812.16,1.635,0.25,2.449q0.75,7.26,1.45,14.618c0.16,1.646.31,3.3,0.46,4.949q0.66,7.113,1.27,14.314c0.09,1.054.18,2.1,0.27,3.155q0.7,8.631,1.34,17.394c0.11,1.49.21,2.993,0.32,4.489q0.48,6.91.92,13.9c0.11,1.646.21,3.29,0.31,4.943q0.54,8.966,1.01,18.049c0.02,0.525.05,1.058,0.07,1.583q0.42,8.375.77,16.866,0.105,2.655.21,5.322,0.285,7.491.52,15.067c0.05,1.331.09,2.661,0.13,4q0.285,9.36.47,18.84c0.03,1.51.05,3.02,0.08,4.53q0.135,7.575.23,15.24c0.02,1.82.04,3.65,0.05,5.48,0.06,6.5.1,13.02,0.1,19.61q0,10.56-.1,20.96C2374.07,1090.03,2374.06,1091.61,2374.04,1093.18Zm-225.07,2.14c0,0.3-.01.59-0.01,0.89q0.12,10.605.12,21.4c0,272.91-62.11,447.69-139.82,559.63-30.85,48.8-81.59,104.56-165.01,153.91-76.12,47.45-180.14,89.01-322.26,112.85-27.42,19.78-61.91,53.65-154.68,142.24-26.48,25.59-64.3,65.73-111.93,77.04-74.76,17.74-123.43-22.12-151.26-48.77-107.319-98.1-153.991-147.62-190.262-172.57-124.533-21.91-219.239-57.57-291.249-98.68-97.7-53.09-154.565-115.21-187.664-168.61-76.868-112.05-138.017-286.24-138.017-557.04q0-10.8.123-21.4c0-.3-0.01-0.59-0.013-0.89q-0.018-1.89-.033-3.78c-0.046-5.55-.077-11.12-0.077-16.74,0-5.26.031-10.47,0.077-15.66q0.019-2.19.047-4.38,0.069-6.12.181-12.17c0.022-1.2.04-2.41,0.064-3.61q0.156-7.575.376-15.05c0.032-1.07.071-2.13,0.1-3.2q0.19-6.045.424-12.03c0.056-1.42.111-2.84,0.17-4.25q0.282-6.77.615-13.46c0.021-.422.039-0.851,0.06-1.273q0.372-7.261.811-14.411c0.08-1.322.165-2.637,0.248-3.954q0.352-5.576.743-11.088c0.085-1.2.166-2.4,0.254-3.6q0.512-6.988,1.081-13.881c0.071-.852.148-1.693,0.22-2.542q0.487-5.736,1.015-11.4,0.186-1.994.376-3.978,0.561-5.844,1.164-11.616c0.07-.668.136-1.345,0.207-2.012q0.707-6.655,1.475-13.205c0.139-1.192.283-2.375,0.424-3.562q0.606-5.074,1.245-10.09c0.151-1.182.3-2.367,0.452-3.544q0.835-6.411,1.721-12.733c0.09-.64.186-1.271,0.277-1.91q0.775-5.445,1.592-10.818,0.285-1.872.574-3.735,0.784-5.072,1.606-10.079c0.135-.826.266-1.659,0.4-2.482q1.007-6.06,2.066-12.022c0.192-1.082.389-2.154,0.583-3.231q0.826-4.591,1.683-9.126c0.22-1.165.439-2.331,0.661-3.49q1.123-5.839,2.288-11.595c0.09-.439.183-0.87,0.273-1.309q1.059-5.171,2.159-10.263,0.384-1.779.772-3.547,0.962-4.386,1.95-8.717c0.213-.934.423-1.875,0.638-2.806q1.266-5.472,2.575-10.856c0.243-1,.492-1.988.737-2.983q1.012-4.107,2.049-8.163,0.443-1.73.887-3.455,1.272-4.9,2.577-9.725c0.135-.5.268-0.99,0.4-1.484q1.338-4.9,2.717-9.727c0.325-1.145.655-2.282,0.984-3.42q1.084-3.755,2.192-7.462c0.3-1.016.6-2.038,0.909-3.049q1.479-4.892,3-9.7c0.3-.951.6-1.889,0.906-2.835q1.152-3.61,2.323-7.177,0.568-1.73,1.141-3.449,1.287-3.86,2.6-7.664c0.234-.681.465-1.371,0.7-2.05q1.587-4.568,3.211-9.053c0.406-1.125.815-2.242,1.224-3.36q1.155-3.158,2.326-6.277c0.406-1.081.81-2.166,1.218-3.24q1.644-4.322,3.316-8.573c0.37-.938.746-1.863,1.118-2.8q1.233-3.1,2.483-6.156,0.711-1.74,1.427-3.468,1.257-3.029,2.529-6.018c0.387-.91.77-1.829,1.159-2.734q1.716-3.993,3.462-7.913c0.5-1.127,1-2.243,1.508-3.362q1.166-2.589,2.342-5.148c0.521-1.132,1.041-2.266,1.565-3.39q1.671-3.582,3.362-7.11c0.522-1.087,1.05-2.161,1.575-3.24q1.244-2.556,2.5-5.086,0.874-1.76,1.754-3.5,1.179-2.336,2.368-4.643c0.544-1.059,1.086-2.126,1.633-3.176q1.794-3.444,3.609-6.825c0.615-1.146,1.234-2.279,1.852-3.415q1.112-2.046,2.232-4.072c0.647-1.169,1.294-2.338,1.945-3.5,0.859-1.532,1.724-3.048,2.59-4.56q1.428-2.495,2.867-4.954c0.772-1.321,1.545-2.641,2.323-3.948q1.059-1.78,2.123-3.54t2.116-3.474c0.7-1.15,1.409-2.305,2.117-3.443q1.821-2.926,3.656-5.8c0.752-1.179,1.508-2.342,2.264-3.508q0.993-1.531,1.99-3.053,1.173-1.785,2.351-3.554c0.661-.99,1.325-1.97,1.989-2.951,0.7-1.033,1.393-2.079,2.094-3.1,31.856-51.423,85.771-110.955,176.967-162.71C731.439,283.7,916.648,227.105,1203.58,227.105c6.38,0,12.69.032,18.98,0.081q9.855-.079,19.87-0.081c286.57,0,471.68,56.455,591.27,127.741,91.56,51.859,145.61,111.569,177.5,163.108,0.09,0.123.17,0.248,0.25,0.371q2.115,3.076,4.2,6.222c0.44,0.667.88,1.338,1.33,2.01,1.13,1.722,2.27,3.46,3.39,5.211,0.37,0.571.74,1.136,1.11,1.71q2.145,3.367,4.29,6.8c0.34,0.553.68,1.115,1.02,1.671q1.7,2.742,3.37,5.529,0.645,1.075,1.29,2.157,1.95,3.26,3.87,6.575c0.14,0.233.28,0.462,0.41,0.695,1.4,2.416,2.78,4.863,4.16,7.328,0.41,0.726.82,1.459,1.22,2.19q1.605,2.877,3.18,5.8c0.37,0.677.74,1.349,1.1,2.03,1.36,2.524,2.7,5.069,4.04,7.643,0.28,0.538.56,1.084,0.84,1.624q1.635,3.171,3.26,6.393,0.6,1.2,1.2,2.41c1.15,2.292,2.28,4.6,3.41,6.932,0.2,0.412.4,0.817,0.6,1.23q1.95,4.048,3.87,8.178c0.36,0.778.72,1.562,1.08,2.344q1.47,3.21,2.94,6.466c0.35,0.783.7,1.563,1.05,2.349q1.89,4.235,3.74,8.541c0.2,0.476.41,0.961,0.61,1.439q1.575,3.69,3.13,7.441c0.36,0.883.73,1.77,1.09,2.658q1.5,3.672,2.99,7.4c0.22,0.574.45,1.141,0.68,1.717q1.77,4.5,3.51,9.082c0.31,0.814.62,1.637,0.93,2.456q1.35,3.587,2.67,7.223c0.33,0.89.65,1.777,0.98,2.671q1.695,4.71,3.37,9.5c0.11,0.34.23,0.686,0.35,1.027q1.5,4.344,2.97,8.761c0.32,0.962.64,1.928,0.95,2.895q1.3,3.954,2.58,7.962c0.23,0.727.47,1.448,0.7,2.178q1.56,4.976,3.1,10.038c0.25,0.833.49,1.675,0.74,2.512,0.8,2.677,1.6,5.372,2.38,8.085,0.29,1,.58,1.992.86,2.994q1.485,5.218,2.94,10.516c0.02,0.076.04,0.153,0.06,0.228q1.41,5.209,2.78,10.513c0.27,1.036.54,2.078,0.81,3.119q1.095,4.275,2.16,8.607c0.21,0.877.43,1.747,0.65,2.627q1.32,5.48,2.62,11.048c0.19,0.822.37,1.655,0.56,2.48,0.69,3.008,1.36,6.034,2.03,9.081q0.36,1.656.72,3.319,1.14,5.287,2.24,10.651c0.07,0.323.14,0.64,0.2,0.963q1.185,5.811,2.32,11.723c0.21,1.1.42,2.21,0.63,3.317,0.58,3.094,1.16,6.207,1.72,9.34,0.18,1.023.37,2.042,0.55,3.069q1.065,6.01,2.08,12.113c0.13,0.769.25,1.548,0.38,2.319,0.56,3.4,1.1,6.814,1.64,10.254,0.18,1.21.37,2.422,0.55,3.638q0.825,5.444,1.62,10.959c0.08,0.6.17,1.191,0.26,1.791q0.885,6.339,1.72,12.781c0.15,1.155.3,2.319,0.45,3.478,0.43,3.369.84,6.757,1.25,10.166,0.14,1.17.28,2.336,0.42,3.51q0.765,6.571,1.48,13.234c0.07,0.648.13,1.306,0.2,1.956q0.6,5.8,1.17,11.674c0.13,1.314.25,2.632,0.37,3.952,0.36,3.787.69,7.6,1.02,11.431,0.07,0.842.15,1.676,0.22,2.52q0.57,6.893,1.08,13.89c0.09,1.191.17,2.391,0.25,3.585q0.39,5.52.75,11.1c0.08,1.315.16,2.627,0.24,3.948q0.435,7.16.82,14.414c0.02,0.419.03,0.844,0.06,1.264q0.33,6.687.61,13.467c0.06,1.42.11,2.83,0.17,4.25q0.24,5.985.42,12.03c0.04,1.07.08,2.13,0.11,3.2q0.225,7.47.37,15.05c0.03,1.2.05,2.41,0.07,3.61q0.1,6.06.18,12.17c0.02,1.46.03,2.92,0.05,4.38,0.04,5.19.07,10.4,0.07,15.66,0,5.62-.03,11.19-0.07,16.74C2149,1092.8,2148.99,1094.06,2148.97,1095.32Z"/>
  <path id="Shape_1_copy_3" data-name="Shape 1 copy 3" class="cls-5" d="M81,889c0.173-1.814-.686,1.734-1.381,10-0.09,1.063-.185,2.117-0.273,3.184Q78.635,910.8,78,919.562c-0.109,1.5-.21,3-0.316,4.506q-0.485,6.9-.923,13.885c-0.1,1.649-.209,3.3-0.309,4.951q-0.539,8.964-1.007,18.045c-0.027.529-.049,1.065-0.075,1.6q-0.417,8.369-.764,16.855-0.11,2.655-.211,5.324-0.29,7.49-.527,15.065c-0.042,1.332-.09,2.662-0.129,4q-0.275,9.36-.467,18.84c-0.031,1.51-.053,3.02-0.08,4.53q-0.138,7.575-.225,15.24c-0.02,1.82-.042,3.65-0.058,5.48-0.057,6.5-.1,13.02-0.1,19.61q0,10.56.1,20.96c0.013,1.58.026,3.16,0.041,4.73,0,0.38.011,0.74,0.015,1.11-0.093,8.86-.152,17.78-0.152,26.81,0,88.87,5.219,169.44,14.642,242.47,26.528,205.61,86.371,351.52,156.848,455.05,41.126,66.86,111.789,144.65,233.179,211.12,89.474,51.49,207.149,96.14,361.886,123.58,45.068,31.23,103.059,93.25,236.409,216.08,34.58,33.37,95.06,83.29,187.94,61.07,59.19-14.16,106.17-64.42,139.08-96.47,115.27-110.92,158.12-153.34,192.2-178.1,176.59-29.86,297.17-77.57,400.41-141.32C2131.74,1932.87,2184,1845,2184,1845s-11.53-230.4-71.94-401.25c2.95,2.94-61.98,174.7-102.8,233.49-30.85,48.8-81.59,104.56-165.01,153.91-76.12,47.45-180.14,89.01-322.26,112.85-27.42,19.78-61.91,53.65-154.68,142.24-26.48,25.59-64.3,65.73-111.93,77.04-74.76,17.74-123.43-22.12-151.26-48.77-107.319-98.1-153.991-147.62-190.262-172.57-124.533-21.91-219.239-57.57-291.249-98.68-97.7-53.09-154.565-115.21-187.664-168.61-76.868-112.05-138.017-286.24-138.017-557.04q0-10.8.123-21.4c0-.3-0.01-0.59-0.013-0.89q-0.018-1.89-.033-3.78c-0.046-5.55-.077-11.12-0.077-16.74,0-5.26.031-10.47,0.077-15.66q0.019-2.19.047-4.38,0.069-6.12.181-12.17c0.022-1.2.04-2.41,0.064-3.61q0.156-7.575.376-15.05c0.032-1.07.071-2.13,0.1-3.2q0.19-6.045.424-12.03c0.056-1.42.111-2.84,0.17-4.25q0.282-6.77.615-13.46c0.021-.422.039-0.851,0.06-1.273q0.372-7.261.811-14.411c0.08-1.322.165-2.637,0.248-3.954q0.352-5.576.743-11.088c0.085-1.2.166-2.4,0.254-3.6q0.512-6.988,1.081-13.881c0.071-.852.148-1.693,0.22-2.542q0.487-5.736,1.015-11.4,0.186-1.994.376-3.978,0.561-5.844,1.164-11.616c0.07-.668.136-1.345,0.207-2.012q0.707-6.655,1.475-13.205c0.139-1.192.283-2.375,0.424-3.562q0.606-5.074,1.245-10.09c0.151-1.182.3-2.367,0.452-3.544q0.835-6.411,1.721-12.733c0.09-.64.186-1.271,0.277-1.91q0.775-5.445,1.592-10.818,0.285-1.872.574-3.735,0.784-5.072,1.606-10.079c0.135-.826.266-1.659,0.4-2.482q1.007-6.06,2.066-12.022c0.192-1.082.389-2.154,0.583-3.231q0.826-4.591,1.683-9.126c0.22-1.165.439-2.331,0.661-3.49q1.123-5.839,2.288-11.595c0.09-.439.183-0.87,0.273-1.309q1.059-5.171,2.159-10.263,0.384-1.779.772-3.547,0.962-4.386,1.95-8.717c0.213-.934.423-1.875,0.638-2.806q1.266-5.472,2.575-10.856c0.243-1,.492-1.988.737-2.983q1.012-4.107,2.049-8.163,0.443-1.73.887-3.455,1.272-4.9,2.577-9.725c0.135-.5.268-0.99,0.4-1.484,0.892-3.27.8-2.508,1.717-5.727,0.325-1.145.655-2.282,0.984-3.42C340.659,724.655,81.465,884.121,81,889Z"/>
  <path id="Shape_1_copy_2" data-name="Shape 1 copy 2" class="cls-6" d="M300,1215c12.124,219.39,67.106,360.76,134.945,459.65,33.1,53.4,89.968,115.52,187.664,168.61,72.01,41.11,166.716,76.77,291.249,98.68,36.271,24.95,82.943,74.47,190.262,172.57,27.83,26.65,76.5,66.51,151.26,48.77,47.63-11.31,85.45-51.45,111.93-77.04,92.77-88.59,127.26-122.46,154.68-142.24,84.42-14.16,215.06-56.61,215.06-58.76,12.87,42.9,19.47,233.89,19.47,233.89s-102.56,26.8-161.52,36.77c-34.08,24.76-76.93,67.18-192.2,178.1-32.91,32.05-79.89,82.31-139.08,96.47-92.88,22.22-153.36-27.7-187.94-61.07-133.35-122.83-191.341-184.85-236.409-216.08-154.737-27.44-272.412-72.09-361.886-123.58-121.39-66.47-192.053-144.26-233.179-211.12-70.477-103.53-130.32-249.44-156.848-455.05"/>
</svg>
