<svg xmlns="http://www.w3.org/2000/svg" width="2000" height="2000" viewBox="0 0 2000 2000">
  <defs>
    <style>
      .cls-1 {
        fill: #fff;
        fill-rule: evenodd;
      }
    </style>
  </defs>
  <path id="Shape_316_1" data-name="Shape 316 1" class="cls-1" d="M1943.89,895.984c0,0.3-.01.605-0.01,0.91q0.105,10.9.12,21.987c0,280.329-63.31,459.839-142.53,574.829-31.45,50.13-83.17,107.39-168.2,158.09-77.6,48.74-183.63,91.43-328.5,115.92-27.95,20.31-63.11,55.1-157.68,146.09-26.99,26.29-65.54,67.52-114.1,79.14-76.2,18.22-125.809-22.72-154.181-50.1-109.395-100.76-156.97-151.63-193.943-177.25-126.944-22.51-223.483-59.13-296.886-101.37-99.587-54.52-157.558-118.34-191.3-173.18-57.819-84.93-106.913-204.61-128.676-373.27-7.73-59.91-12.012-125.995-12.012-198.9q0-11.1.125-21.987c0-.3-0.01-0.6-0.013-0.909q-0.019-1.938-.034-3.883c-0.046-5.7-.078-11.418-0.078-17.195q0-8.1.079-16.082,0.02-2.257.048-4.5,0.071-6.285.185-12.5c0.023-1.235.041-2.478,0.066-3.71q0.159-7.784.383-15.46c0.032-1.1.072-2.186,0.106-3.281q0.195-6.215.432-12.357,0.085-2.187.173-4.368,0.288-6.956.627-13.826c0.022-.434.04-0.874,0.062-1.308q0.378-7.459.826-14.8c0.082-1.358.168-2.709,0.253-4.062q0.359-5.727.757-11.389c0.087-1.232.17-2.469,0.259-3.7q0.522-7.179,1.1-14.258c0.072-.875.151-1.739,0.224-2.612q0.5-5.892,1.034-11.71,0.189-2.048.383-4.086,0.572-6,1.187-11.931c0.071-.687.138-1.382,0.211-2.067q0.721-6.835,1.5-13.563c0.142-1.225.288-2.44,0.433-3.659q0.617-5.212,1.269-10.365c0.154-1.213.3-2.431,0.461-3.64q0.852-6.585,1.754-13.079c0.092-.657.189-1.305,0.282-1.961q0.791-5.594,1.623-11.112,0.289-1.923.584-3.837,0.8-5.209,1.638-10.352c0.138-.848.271-1.7,0.411-2.55q1.026-6.223,2.106-12.348c0.2-1.112.4-2.213,0.594-3.319q0.843-4.715,1.716-9.374c0.224-1.2.447-2.394,0.674-3.585q1.144-6,2.332-11.91c0.091-.45.186-0.893,0.278-1.343q1.08-5.311,2.2-10.543,0.39-1.827.787-3.643,0.98-4.5,1.988-8.953c0.217-.96.431-1.927,0.65-2.883q1.29-5.62,2.625-11.151c0.248-1.026.5-2.042,0.751-3.064q1.032-4.218,2.088-8.384,0.451-1.778.905-3.549,1.3-5.03,2.627-9.989,0.205-.762.41-1.525,1.365-5.037,2.769-9.991,0.5-1.763,1-3.513,1.105-3.857,2.234-7.664c0.31-1.044.616-2.093,0.927-3.132q1.509-5.025,3.053-9.968c0.305-.976.616-1.94,0.924-2.912q1.175-3.708,2.368-7.372,0.579-1.776,1.162-3.542,1.313-3.964,2.649-7.873c0.239-.7.474-1.408,0.714-2.1q1.617-4.692,3.273-9.3c0.413-1.156.831-2.3,1.248-3.452q1.176-3.243,2.371-6.447c0.413-1.111.825-2.225,1.242-3.329q1.675-4.437,3.38-8.805c0.377-.964.759-1.913,1.139-2.872q1.257-3.18,2.531-6.323,0.725-1.788,1.455-3.562,1.281-3.113,2.578-6.182c0.394-.935.785-1.879,1.181-2.808q1.749-4.1,3.529-8.128c0.51-1.158,1.024-2.3,1.537-3.453q1.19-2.659,2.388-5.288c0.531-1.163,1.061-2.328,1.595-3.482q1.7-3.679,3.427-7.3c0.532-1.117,1.07-2.22,1.605-3.328q1.269-2.627,2.547-5.224,0.891-1.807,1.788-3.6,1.2-2.4,2.413-4.77c0.555-1.088,1.108-2.183,1.666-3.262q1.829-3.537,3.678-7.01c0.627-1.177,1.258-2.341,1.888-3.508q1.134-2.1,2.275-4.182c0.659-1.2,1.319-2.4,1.982-3.592q1.316-2.359,2.641-4.683,1.455-2.562,2.922-5.089c0.788-1.357,1.576-2.712,2.368-4.054q1.08-1.83,2.165-3.637t2.157-3.569c0.718-1.181,1.436-2.367,2.158-3.536q1.856-3,3.726-5.958c0.767-1.21,1.538-2.4,2.308-3.6q1.013-1.575,2.029-3.136,1.2-1.835,2.4-3.651c0.674-1.017,1.351-2.023,2.027-3.031,0.712-1.061,1.42-2.136,2.135-3.186,32.473-52.82,87.432-113.969,180.392-167.129C498.916,62.327,687.711,4.193,980.194,4.193q9.755,0,19.349.082,10.046-.081,20.257-0.082c292.12,0,480.81,57.988,602.72,131.21,93.32,53.268,148.42,114.6,180.93,167.537,0.09,0.126.17,0.255,0.26,0.381q2.145,3.16,4.27,6.391c0.46,0.685.91,1.375,1.36,2.064q1.74,2.655,3.46,5.353c0.38,0.586.75,1.167,1.13,1.757q2.19,3.457,4.37,6.988c0.35,0.569.69,1.146,1.04,1.717q1.725,2.817,3.44,5.679,0.66,1.106,1.32,2.216,1.98,3.346,3.94,6.753c0.14,0.24.28,0.474,0.41,0.714,1.43,2.481,2.84,5,4.25,7.527,0.41,0.746.83,1.5,1.24,2.249q1.62,2.957,3.24,5.957c0.37,0.695.75,1.386,1.12,2.085,1.38,2.592,2.76,5.207,4.12,7.85,0.29,0.553.57,1.114,0.85,1.669,1.12,2.171,2.22,4.36,3.33,6.566q0.615,1.234,1.23,2.476,1.74,3.531,3.47,7.12c0.2,0.423.41,0.839,0.61,1.264q1.98,4.157,3.94,8.4c0.37,0.8.74,1.6,1.1,2.407q1.515,3.3,3,6.642c0.36,0.8.72,1.6,1.08,2.413q1.92,4.349,3.8,8.772c0.21,0.49.42,0.987,0.63,1.478q1.605,3.791,3.18,7.643c0.38,0.908.75,1.818,1.12,2.731,1.02,2.514,2.04,5.048,3.04,7.6,0.23,0.589.47,1.172,0.7,1.763q1.815,4.622,3.58,9.328c0.32,0.837.63,1.683,0.94,2.524q1.38,3.684,2.73,7.419c0.33,0.914.66,1.825,0.99,2.743q1.74,4.839,3.44,9.756c0.12,0.349.23,0.7,0.35,1.055q1.53,4.462,3.03,9c0.33,0.988.65,1.981,0.98,2.974,0.88,2.707,1.76,5.433,2.62,8.178,0.24,0.747.48,1.487,0.71,2.237q1.605,5.111,3.16,10.31c0.26,0.856.51,1.721,0.77,2.58q1.215,4.125,2.42,8.305c0.29,1.024.58,2.047,0.88,3.076q1.515,5.36,2.99,10.8l0.06,0.235q1.44,5.351,2.84,10.8c0.27,1.064.55,2.134,0.82,3.2,0.74,2.928,1.48,5.875,2.2,8.842,0.22,0.9.44,1.794,0.66,2.7q1.365,5.628,2.67,11.347c0.2,0.845.38,1.7,0.58,2.549q1.05,4.632,2.07,9.327c0.24,1.134.49,2.269,0.73,3.408q1.17,5.433,2.29,10.941c0.07,0.331.14,0.658,0.2,0.989q1.215,5.969,2.36,12.042c0.22,1.131.43,2.27,0.64,3.406,0.6,3.178,1.18,6.376,1.76,9.594,0.19,1.051.38,2.1,0.56,3.153q1.1,6.174,2.12,12.441c0.13,0.79.26,1.591,0.39,2.383q0.855,5.232,1.66,10.531,0.285,1.866.57,3.738,0.84,5.592,1.65,11.257c0.08,0.615.18,1.222,0.26,1.839q0.915,6.51,1.76,13.128c0.16,1.186.3,2.381,0.45,3.573q0.66,5.19,1.28,10.442c0.15,1.2.29,2.4,0.43,3.605q0.78,6.75,1.51,13.593c0.07,0.666.13,1.341,0.2,2.009q0.615,5.955,1.19,11.991c0.13,1.35.26,2.7,0.38,4.06q0.54,5.833,1.04,11.741c0.07,0.865.15,1.721,0.22,2.588q0.585,7.08,1.11,14.268c0.09,1.223.17,2.455,0.25,3.682q0.4,5.67.76,11.4c0.09,1.351.17,2.7,0.26,4.055q0.435,7.355.82,14.806c0.02,0.43.04,0.867,0.06,1.3q0.345,6.87.63,13.836c0.06,1.451.12,2.908,0.17,4.365q0.24,6.144.44,12.359c0.03,1.1.07,2.182,0.1,3.28q0.225,7.675.38,15.46c0.03,1.232.05,2.474,0.07,3.71q0.12,6.216.19,12.5c0.01,1.5.03,3,.04,4.5q0.075,7.99.08,16.082c0,5.777-.03,11.5-0.08,17.195Q1943.905,894.045,1943.89,895.984Zm-184.64,1.752c0.01-1.031.01-2.066,0.02-3.1,0.04-4.549.07-9.118,0.07-13.732q0-6.471-.07-12.843c-0.01-1.2-.02-2.4-0.04-3.594q-0.045-5.019-.14-9.983c-0.02-.987-0.04-1.979-0.06-2.963q-0.12-6.216-.31-12.346c-0.02-.877-0.05-1.745-0.08-2.62-0.11-3.309-.22-6.6-0.35-9.869-0.04-1.164-.09-2.328-0.14-3.487q-0.225-5.557-.5-11.049c-0.02-.344-0.03-0.693-0.05-1.037q-0.3-5.958-.67-11.823c-0.06-1.083-.13-2.16-0.2-3.238-0.19-3.053-.4-6.089-0.61-9.107-0.07-.98-0.14-1.964-0.21-2.941q-0.42-5.736-.89-11.394c-0.05-.693-0.12-1.376-0.17-2.067q-0.4-4.717-.84-9.377c-0.1-1.082-.2-2.163-0.31-3.241q-0.45-4.818-.96-9.577c-0.05-.533-0.1-1.072-0.16-1.6q-0.585-5.471-1.21-10.855c-0.12-.964-0.23-1.92-0.35-2.88q-0.495-4.194-1.03-8.339c-0.12-.951-0.24-1.9-0.36-2.853q-0.69-5.279-1.42-10.484c-0.07-.492-0.14-0.977-0.21-1.469q-0.645-4.526-1.32-8.99c-0.15-1-.31-1.991-0.46-2.984-0.44-2.822-.88-5.625-1.34-8.411-0.11-.632-0.21-1.272-0.31-1.9q-0.84-5.007-1.71-9.935c-0.15-.843-0.3-1.679-0.45-2.518-0.46-2.57-.94-5.124-1.42-7.662-0.17-.907-0.34-1.817-0.51-2.72q-0.93-4.844-1.9-9.616c-0.05-.265-0.11-0.526-0.16-0.79-0.6-2.936-1.22-5.846-1.84-8.738-0.2-.91-0.4-1.816-0.59-2.722q-0.825-3.749-1.67-7.449c-0.16-.677-0.31-1.36-0.46-2.034-0.71-3.046-1.42-6.066-2.15-9.063-0.18-.722-0.36-1.435-0.54-2.154q-0.87-3.553-1.77-7.061c-0.22-.854-0.43-1.708-0.66-2.558q-1.125-4.344-2.28-8.624c-0.02-.062-0.03-0.125-0.05-0.187-0.79-2.9-1.6-5.772-2.41-8.626-0.23-.822-0.47-1.639-0.71-2.457q-0.96-3.338-1.95-6.632c-0.2-.686-0.4-1.377-0.61-2.06-0.84-2.768-1.68-5.513-2.54-8.234-0.19-.6-0.38-1.19-0.57-1.786-0.7-2.192-1.4-4.369-2.12-6.531q-0.39-1.191-.78-2.376-1.215-3.62-2.44-7.186c-0.1-.28-0.19-0.564-0.29-0.843q-1.365-3.932-2.76-7.79c-0.26-.734-0.53-1.462-0.8-2.191-0.72-1.989-1.46-3.964-2.19-5.925-0.26-.672-0.51-1.347-0.76-2.015q-1.425-3.758-2.88-7.45c-0.19-.472-0.38-0.937-0.57-1.408-0.81-2.039-1.62-4.062-2.45-6.07-0.29-.729-0.59-1.456-0.89-2.181q-1.275-3.075-2.57-6.1c-0.17-.392-0.33-0.789-0.5-1.18q-1.515-3.537-3.06-7.006c-0.29-.645-0.58-1.284-0.87-1.926q-1.2-2.671-2.41-5.3c-0.3-.641-0.59-1.285-0.89-1.922q-1.575-3.384-3.17-6.709c-0.16-.338-0.33-0.671-0.49-1.009q-1.395-2.866-2.8-5.686-0.5-.992-0.99-1.977-1.32-2.643-2.67-5.244c-0.23-.443-0.46-0.891-0.69-1.332-1.09-2.111-2.2-4.2-3.31-6.27-0.3-.558-0.6-1.109-0.9-1.664q-1.3-2.4-2.61-4.758c-0.34-.6-0.67-1.2-1-1.8-1.14-2.022-2.27-4.029-3.42-6.011-0.11-.191-0.22-0.379-0.33-0.57q-1.575-2.722-3.17-5.394c-0.36-.592-0.71-1.18-1.07-1.769q-1.365-2.286-2.76-4.535c-0.28-.457-0.56-0.917-0.84-1.371q-1.755-2.82-3.52-5.581c-0.3-.471-0.6-0.935-0.91-1.4q-1.38-2.154-2.78-4.275c-0.37-.55-0.73-1.1-1.09-1.648-1.15-1.717-2.29-3.421-3.44-5.1-0.07-.1-0.14-0.2-0.21-0.3-26.17-42.277-70.51-91.256-145.62-133.8-98.11-58.475-249.97-104.784-485.07-104.784q-8.205,0-16.3.066-7.734-.06-15.573-0.066c-235.393,0-387.336,46.426-485.435,105.006-74.815,42.454-119.046,91.288-145.181,133.47-0.575.838-1.145,1.7-1.718,2.544-0.544.8-1.089,1.608-1.632,2.421q-0.966,1.447-1.928,2.915-0.819,1.245-1.633,2.5c-0.62.956-1.24,1.91-1.857,2.876q-1.506,2.359-3,4.758c-0.581.934-1.158,1.881-1.737,2.824s-1.159,1.895-1.736,2.85-1.163,1.931-1.742,2.9c-0.638,1.071-1.272,2.154-1.906,3.238q-1.179,2.018-2.352,4.063-1.065,1.861-2.125,3.741c-0.533.95-1.064,1.909-1.6,2.868q-0.92,1.66-1.831,3.34c-0.507.932-1.015,1.861-1.519,2.8q-1.488,2.775-2.961,5.6c-0.449.862-.893,1.737-1.34,2.606q-0.975,1.894-1.942,3.809-0.723,1.431-1.44,2.873-1.029,2.071-2.049,4.172c-0.431.885-.863,1.766-1.292,2.658q-1.388,2.891-2.758,5.832c-0.43.922-.856,1.852-1.284,2.781q-0.964,2.1-1.921,4.222c-0.413.918-.827,1.834-1.238,2.758q-1.429,3.221-2.84,6.491c-0.319.742-.633,1.5-0.95,2.243q-1.044,2.454-2.075,4.937-0.588,1.416-1.171,2.844-1.026,2.508-2.037,5.05c-0.305.765-.614,1.524-0.917,2.294q-1.372,3.485-2.72,7.032c-0.335.881-.667,1.771-1,2.658q-0.96,2.559-1.908,5.149c-0.335.917-.671,1.833-1,2.756q-1.33,3.684-2.634,7.426c-0.194.556-.383,1.122-0.575,1.681q-1.075,3.121-2.131,6.287-0.471,1.409-.936,2.829-0.962,2.923-1.906,5.887c-0.247.776-.5,1.546-0.743,2.325q-1.245,3.948-2.457,7.961c-0.251.829-.5,1.668-0.746,2.5q-0.909,3.042-1.8,6.121-0.4,1.4-.808,2.8-1.128,3.962-2.228,7.979c-0.111.4-.221,0.812-0.331,1.218q-1.072,3.956-2.114,7.977c-0.244.941-.486,1.888-0.728,2.834q-0.851,3.327-1.681,6.7c-0.2.816-.405,1.627-0.6,2.447q-1.074,4.417-2.113,8.9c-0.177.763-.348,1.536-0.523,2.3q-0.812,3.554-1.6,7.15-0.318,1.452-.633,2.909-0.9,4.182-1.772,8.42c-0.074.359-.15,0.713-0.223,1.073q-0.961,4.715-1.877,9.511c-0.183.951-.363,1.908-0.543,2.863q-0.7,3.72-1.381,7.486c-0.159.883-.321,1.763-0.478,2.65q-0.867,4.895-1.695,9.862c-0.112.675-.219,1.359-0.33,2.036q-0.673,4.107-1.318,8.267-0.237,1.529-.471,3.064-0.669,4.409-1.306,8.875c-0.075.523-.153,1.041-0.227,1.566q-0.729,5.179-1.412,10.445c-0.126.965-.247,1.937-0.371,2.907q-0.525,4.115-1.021,8.277c-0.116.974-.234,1.944-0.348,2.922q-0.627,5.378-1.21,10.831c-0.059.547-.112,1.1-0.17,1.651q-0.5,4.732-.955,9.528-0.157,1.628-.309,3.263-0.432,4.647-.832,9.352c-0.059.7-.122,1.387-0.18,2.086q-0.469,5.649-.888,11.386c-0.071.98-.138,1.968-0.208,2.952q-0.319,4.523-.609,9.1c-0.069,1.081-.138,2.159-0.2,3.244q-0.355,5.872-.665,11.821c-0.018.346-.032,0.7-0.05,1.045q-0.274,5.481-.5,11.041-0.072,1.74-.139,3.488-0.192,4.906-.348,9.869c-0.028.874-.059,1.742-0.085,2.62q-0.181,6.129-.309,12.346c-0.02.984-.035,1.976-0.053,2.963q-0.091,4.963-.148,9.982c-0.014,1.2-.028,2.393-0.038,3.6q-0.057,6.383-.064,12.843c0,4.614.026,9.183,0.063,13.732q0.014,1.553.028,3.1c0,0.244.007,0.483,0.01,0.726-0.061,5.805-.1,11.648-0.1,17.559,0,222.138,50.166,365.018,113.227,456.938,27.154,43.79,73.809,94.76,153.958,138.3,59.075,33.73,136.77,62.98,238.936,80.95,29.756,20.46,68.045,61.09,156.087,141.56,22.834,21.86,62.763,54.56,124.089,40,39.08-9.27,70.1-42.2,91.83-63.19,76.11-72.67,104.4-100.46,126.9-116.68,116.59-19.55,201.93-53.65,264.37-92.57,68.44-40.49,110.06-86.22,135.38-126.25,63.75-91.83,114.71-235.19,114.71-459.058,0-5.911-.04-11.754-0.1-17.559C1759.24,898.219,1759.24,897.98,1759.25,897.736Zm-205.84,413.9c-21.72,34.61-57.43,74.15-116.14,109.16-53.58,33.65-126.79,63.13-226.83,80.04-19.3,14.02-43.57,38.05-108.87,100.88-18.64,18.15-45.26,46.62-78.79,54.64-52.613,12.58-86.871-15.69-106.462-34.59-75.536-69.58-108.386-104.7-133.916-122.39-87.654-15.55-154.313-40.83-205-70-68.764-37.64-108.792-81.71-132.089-119.58-39.924-58.64-73.823-141.28-88.85-257.74-5.338-41.36-8.295-87-8.295-137.335,0-5.111.034-10.163,0.087-15.182,0-.211-0.007-0.418-0.009-0.628q-0.014-1.338-.024-2.681c-0.032-3.934-.054-7.884-0.054-11.873,0-3.731.022-7.426,0.055-11.105,0.009-1.039.021-2.073,0.032-3.108q0.05-4.34.128-8.631c0.015-.853.028-1.711,0.045-2.562q0.109-5.375.265-10.675c0.022-.758.049-1.509,0.073-2.265q0.135-4.291.3-8.533,0.057-1.51.119-3.016,0.2-4.8.433-9.546c0.015-.3.027-0.6,0.042-0.9q0.261-5.149.571-10.22c0.056-.938.116-1.871,0.175-2.805q0.248-3.954.522-7.864c0.06-.851.118-1.7,0.179-2.552q0.36-4.958.761-9.845c0.05-.6.1-1.2,0.155-1.8q0.342-4.068.714-8.086,0.13-1.413.265-2.821,0.395-4.145.819-8.238c0.05-.475.1-0.954,0.146-1.428q0.5-4.719,1.038-9.365c0.1-.845.2-1.684,0.3-2.526q0.426-3.6.876-7.157c0.106-.838.21-1.679,0.318-2.513q0.588-4.548,1.212-9.031c0.063-.454.13-0.9,0.194-1.354q0.546-3.863,1.121-7.673,0.2-1.329.4-2.65,0.552-3.6,1.13-7.148c0.1-.585.188-1.176,0.284-1.76q0.708-4.3,1.454-8.527c0.135-.767.274-1.527,0.41-2.291q0.582-3.256,1.185-6.473c0.155-.826.309-1.653,0.466-2.475q0.789-4.141,1.61-8.224c0.063-.311.129-0.617,0.192-0.928q0.746-3.668,1.52-7.279,0.269-1.263.543-2.516,0.677-3.111,1.372-6.182c0.151-.663.3-1.33,0.449-1.99q0.891-3.882,1.813-7.7c0.171-.709.346-1.41,0.519-2.116q0.712-2.912,1.442-5.789c0.207-.818.415-1.637,0.625-2.451q0.894-3.473,1.813-6.9,0.142-.526.284-1.053,0.942-3.478,1.912-6.9,0.344-1.218.693-2.426,0.763-2.662,1.542-5.292c0.214-.721.425-1.446,0.641-2.163q1.041-3.47,2.107-6.883c0.211-.674.426-1.339,0.638-2.01q0.811-2.561,1.635-5.091,0.4-1.226.8-2.446,0.906-2.736,1.829-5.435c0.165-.483.327-0.973,0.493-1.454q1.116-3.24,2.26-6.421c0.285-.8.574-1.59,0.861-2.383q0.813-2.24,1.638-4.452c0.285-.767.569-1.536,0.857-2.3q1.156-3.064,2.334-6.08c0.26-.666.525-1.321,0.786-1.983q0.87-2.2,1.748-4.367,0.5-1.233,1-2.459,0.884-2.148,1.78-4.268c0.272-.646.542-1.3,0.816-1.94q1.207-2.832,2.436-5.612c0.352-.8.707-1.591,1.062-2.384q0.821-1.836,1.649-3.651c0.366-.8.732-1.608,1.1-2.4q1.176-2.541,2.366-5.043c0.368-.771.739-1.533,1.109-2.3q0.875-1.814,1.758-3.607,0.615-1.248,1.235-2.485,0.829-1.658,1.666-3.293c0.383-.751.765-1.508,1.15-2.253q1.263-2.442,2.54-4.84c0.433-.813.868-1.616,1.3-2.422q0.783-1.452,1.571-2.888c0.456-.829.911-1.658,1.369-2.48,0.605-1.086,1.214-2.161,1.823-3.234q1.006-1.769,2.018-3.513c0.544-.938,1.088-1.874,1.635-2.8q0.746-1.263,1.5-2.512t1.489-2.464c0.5-.815.992-1.634,1.49-2.441q1.282-2.076,2.573-4.114c0.53-.836,1.062-1.661,1.594-2.488q0.7-1.086,1.4-2.165,0.825-1.266,1.654-2.52c0.466-.7.933-1.4,1.4-2.094,0.492-.732.981-1.475,1.474-2.2,22.423-36.471,60.371-78.694,124.56-115.4,84.165-50.65,214.526-90.791,416.484-90.791q6.735,0,13.361.056,6.938-.055,13.985-0.056c201.71,0,332,40.04,416.17,90.6,64.45,36.781,102.49,79.129,124.94,115.683l0.18,0.263c0.98,1.455,1.97,2.929,2.95,4.413,0.31,0.473.62,0.95,0.93,1.425q1.2,1.833,2.39,3.7c0.26,0.4.52,0.806,0.78,1.213q1.515,2.388,3.02,4.825c0.24,0.393.48,0.791,0.72,1.185q1.2,1.945,2.37,3.922c0.31,0.509.61,1.018,0.91,1.53q1.365,2.311,2.73,4.663c0.09,0.165.19,0.327,0.28,0.493q1.47,2.57,2.93,5.2c0.29,0.515.57,1.035,0.86,1.553,0.75,1.361,1.49,2.732,2.24,4.114,0.26,0.48.51,0.956,0.77,1.439,0.96,1.79,1.9,3.6,2.85,5.421,0.19,0.381.39,0.769,0.58,1.152q1.155,2.248,2.3,4.534c0.28,0.568.57,1.137,0.85,1.709q1.2,2.439,2.39,4.917c0.14,0.292.29,0.579,0.43,0.872q1.365,2.871,2.72,5.8c0.25,0.552.51,1.108,0.76,1.663q1.035,2.275,2.07,4.586c0.25,0.555.5,1.108,0.74,1.666,0.89,2,1.76,4.018,2.63,6.057,0.15,0.338.29,0.682,0.43,1.021q1.11,2.618,2.2,5.277c0.26,0.627.52,1.255,0.77,1.885q1.065,2.605,2.1,5.249c0.16,0.407.33,0.809,0.49,1.218q1.245,3.19,2.47,6.441c0.22,0.578.43,1.161,0.65,1.742q0.945,2.544,1.88,5.123c0.23,0.631.46,1.26,0.69,1.894q1.2,3.342,2.37,6.736c0.08,0.242.16,0.487,0.25,0.729q1.05,3.081,2.09,6.213c0.22,0.683.45,1.368,0.67,2.054,0.61,1.869,1.22,3.752,1.81,5.647,0.17,0.516.33,1.027,0.49,1.545q1.11,3.528,2.18,7.119c0.18,0.591.36,1.188,0.53,1.781q0.84,2.849,1.67,5.735c0.21,0.707.41,1.413,0.61,2.124q1.05,3.7,2.07,7.458c0.01,0.054.03,0.108,0.04,0.162,0.66,2.463,1.32,4.953,1.96,7.456,0.19,0.735.38,1.474,0.56,2.212,0.52,2.021,1.02,4.057,1.53,6.1,0.15,0.621.3,1.239,0.45,1.863,0.63,2.59,1.24,5.2,1.85,7.835,0.13,0.584.26,1.174,0.39,1.76,0.49,2.133.96,4.279,1.43,6.44q0.255,1.174.51,2.354c0.54,2.5,1.06,5.016,1.58,7.554,0.05,0.229.09,0.454,0.14,0.683q0.84,4.122,1.63,8.315c0.15,0.781.29,1.567,0.44,2.352,0.41,2.194.82,4.4,1.21,6.624,0.13,0.726.26,1.448,0.39,2.177q0.75,4.263,1.47,8.591c0.09,0.546.17,1.1,0.26,1.645,0.39,2.409.78,4.833,1.15,7.272,0.14,0.859.27,1.719,0.4,2.581q0.57,3.861,1.13,7.773c0.06,0.424.12,0.844,0.18,1.27q0.63,4.5,1.22,9.065c0.11,0.819.21,1.644,0.31,2.466q0.45,3.585.89,7.21c0.09,0.83.19,1.657,0.29,2.49q0.54,4.66,1.04,9.386c0.05,0.46.09,0.926,0.14,1.387,0.29,2.742.56,5.5,0.83,8.28,0.08,0.932.17,1.867,0.26,2.8q0.375,4.029.71,8.107c0.05,0.6.11,1.189,0.16,1.787q0.4,4.889.76,9.852c0.06,0.845.12,1.7,0.18,2.543,0.18,2.61.36,5.234,0.52,7.874,0.06,0.932.12,1.863,0.18,2.8q0.3,5.079.57,10.224c0.01,0.3.02,0.6,0.04,0.9q0.24,4.743.43,9.553,0.06,1.5.12,3.015,0.165,4.242.3,8.533c0.02,0.756.05,1.507,0.07,2.265,0.11,3.533.19,7.092,0.27,10.676,0.01,0.85.03,1.708,0.04,2.561,0.05,2.861.1,5.738,0.13,8.631,0.01,1.035.02,2.069,0.03,3.108,0.03,3.679.06,7.374,0.06,11.105,0,3.989-.03,7.939-0.06,11.872,0,0.9-.01,1.79-0.02,2.681,0,0.211-.01.418-0.01,0.629,0.05,5.019.09,10.071,0.09,15.182C1651.83,1108.29,1608.11,1232.24,1553.41,1311.64ZM1333.12,859.587c-20.98-10.76-46.1-9.608-74.19-14.211l-25.97-.618-97.07-3.09c-21.9,0-61.54-.528-80.99-0.617-5.5-10.95-18.32-46.831-24.73-62.407-18.94-46-37.724-92.773-58.736-136.552-22.107-46.061-46.124-92.415-114.379-92.064-6.176,2.527-11.983,2.559-16.693,6.179-19.832,15.24-4.956,58.688,1.855,77.853,18.263,51.393,37.5,100.235,58.117,150.145q11.436,28.729,22.876,57.463-0.311.618-.619,1.236l-64.918,1.854-76.046,3.089H743.913c-31.749,4.788-65.509,2.843-85.939,18.537-13.466,10.343-23.594,38.832-16.694,63.024,7.588,26.6,29.731,30.989,77.284,25.951,51.327-5.438,113.321-5.559,170.641-5.561l74.81-.618q21.329,64.872,42.665,129.76c17.74,53.3,27.61,110.36,51.31,156.94,12.23,24.03,34.28,57.87,75.43,47.57,46.27-11.57,45.53-49.87,34-97.62-12.8-53.06-28.58-104.73-45.75-153.85q-13.59-40.17-27.2-80.328c5.33-.167,58.19.346,67.39,1.853l63.06,4.325c61.56,13.488,121.06,15.7,134.79-44.487C1365.77,886.726,1348.26,867.353,1333.12,859.587Z"/>
</svg>
