<svg xmlns="http://www.w3.org/2000/svg" width="2000" height="2000" viewBox="0 0 2000 2000">
  <defs>
    <style>
      .cls-1 {
        fill: #fff;
        fill-rule: evenodd;
      }
    </style>
  </defs>
  <path class="cls-1" d="M1981.68,566.714L1803.43,1217.34l-119.11,446.34q-1.5,5.43-3.15,10.82c-0.13.44-.26,0.89-0.4,1.34-1.05,3.42-2.16,6.84-3.3,10.24l-0.57,1.71q-1.725,5.07-3.58,10.11c-0.19.51-.38,1.02-0.57,1.52q-1.935,5.2-4,10.35c-0.1.25-.2,0.49-0.3,0.73q-4.4,10.86-9.42,21.52c-0.13.29-.27,0.58-0.4,0.87q-2.46,5.175-5.05,10.28c-0.16.33-.33,0.67-0.5,1q-2.64,5.16-5.42,10.27c-0.1.19-.21,0.39-0.32,0.58q-8.82,16.14-19.15,31.66c-0.04.07-.08,0.13-0.12,0.2q-3.435,5.145-7.03,10.21c-0.06.08-.11,0.16-0.17,0.24a432.8,432.8,0,0,1-31.94,39.78h0q-5.085,5.775-10.39,11.42a0.6,0.6,0,0,1-.08.08c-1.61,1.71-3.25,3.41-4.89,5.1-0.18.19-.36,0.37-0.54,0.56q-2.73,2.79-5.52,5.55c-170.42,168.32-445.75,167.62-616.174-.7-12.419-12.27-35.5-37.69-35.5-37.69L781.084,1687.38l-57.33,10.85-257.626,50.61c-57.657,12.32-124.9-7.18-174.849-56.52-0.268-.26-0.53-0.53-0.8-0.79s-0.54-.52-0.808-0.79c-49.954-49.34-69.7-115.75-57.223-172.69l51.24-254.45,10.977-56.58L167.258,1082.08s-25.743-22.8-38.162-35.06C-41.328,878.7-42.04,606.763,128.383,438.44q2.793-2.757,5.623-5.454c0.186-.178.376-0.35,0.562-0.528q2.568-2.439,5.164-4.833l0.083-.075q5.711-5.252,11.564-10.262h0a436.392,436.392,0,0,1,40.279-31.55l0.242-.168q5.131-3.549,10.341-6.937l0.2-.127q15.7-10.191,32.053-18.911c0.2-.105.395-0.213,0.593-0.318q5.169-2.748,10.4-5.347,0.5-.252,1.01-0.5,5.178-2.56,10.407-4.979c0.293-.136.588-0.268,0.882-0.4q10.789-4.954,21.786-9.3c0.246-.1.492-0.2,0.738-0.3q5.217-2.05,10.479-3.954c0.513-.187,1.026-0.375,1.54-0.56q5.1-1.834,10.243-3.537c0.573-.191,1.148-0.378,1.723-0.566q5.171-1.692,10.375-3.259c0.451-.135.9-0.265,1.357-0.4,3.641-1.079,7.29-2.122,10.953-3.105L778.883,205.432,1437.64,29.381c147.62-41.91,313.23-5.458,429.53,109.41,0.62,0.616,1.23,1.24,1.85,1.859s1.26,1.212,1.88,1.828C1987.2,257.345,2024.11,420.912,1981.68,566.714ZM807.636,1527.14l44.6-8.6,10.185,10.12,87.9,87.45s3.454,3.63,8.428,8.84c5.988,6.52,16.215,17.55,22.7,23.96,1.69,1.67,3.4,3.3,5.12,4.93,2.293,2.34,4.265,4.34,5.715,5.77,0.56,0.55,1.131,1.09,1.694,1.63,0.866,0.88,1.7,1.72,2.468,2.48,1.69,1.67,3.4,3.3,5.121,4.93,2.29,2.34,4.26,4.34,5.71,5.77,132.14,130.5,313.25,149.48,446.36,18.01,1.46-1.44,2.89-2.88,4.32-4.34,0.14-.14.27-0.29,0.41-0.43q1.935-1.98,3.83-3.98a0.435,0.435,0,0,1,.06-0.07q4.14-4.395,8.11-8.92h0a340.326,340.326,0,0,0,24.98-31.04c0.04-.07.09-0.13,0.13-0.19q2.8-3.96,5.5-7.97a1.3,1.3,0,0,1,.1-0.15q8.07-12.09,14.99-24.69c0.08-.15.17-0.3,0.25-0.46q2.175-3.975,4.24-8c0.14-.26.27-0.52,0.4-0.78q2.04-3.99,3.95-8.01c0.11-.23.22-0.46,0.32-0.68q3.945-8.31,7.39-16.77l0.24-.57q1.62-4.02,3.14-8.07c0.15-.39.3-0.79,0.45-1.18q1.455-3.93,2.82-7.89l0.45-1.32c0.62-1.85,1.21-3.71,1.8-5.56,0.08-.18.16-0.35,0.23-0.53s0.16-.38.23-0.57q1.635-4.02,3.15-8.06c0.15-.4.3-0.79,0.44-1.19,0.98-2.62,1.92-5.24,2.82-7.88,0.15-.44.3-0.88,0.45-1.33q1.35-3.975,2.6-7.98c0.11-.35.21-0.7,0.32-1.04,0.86-2.81,1.69-5.61,2.48-8.43l223.75-865.186c24.62-83.6,37.63-196.129,6.83-285.22L554.95,1578.65c18.08-2.06,35.146-5.41,49.055-8.43Zm543.2-1299.863-875.99,221c-2.854.775-5.7,1.6-8.533,2.447-0.352.106-.7,0.208-1.057,0.314q-4.054,1.23-8.083,2.566c-0.448.148-.9,0.3-1.343,0.445q-4,1.341-7.981,2.782c-0.4.145-.8,0.293-1.2,0.44q-4.1,1.5-8.166,3.107c-0.192.076-.383,0.155-0.575,0.231s-0.357.15-.536,0.222c-1.878.587-3.758,1.169-5.628,1.786q-0.672.222-1.343,0.446-4,1.34-7.981,2.781c-0.4.145-.8,0.294-1.2,0.44q-4.1,1.5-8.166,3.107c-0.192.076-.383,0.155-0.575,0.232q-8.567,3.41-16.98,7.3c-0.229.106-.459,0.21-0.688,0.317q-4.077,1.894-8.113,3.9l-0.788.392q-4.075,2.04-8.108,4.191l-0.462.25q-12.741,6.831-25,14.807l-0.153.1q-4.063,2.65-8.067,5.428l-0.189.13A343.417,343.417,0,0,0,312.5,531.1h0q-4.567,3.916-9.029,8.018l-0.065.059q-2.028,1.867-4.032,3.776c-0.146.138-.294,0.273-0.439,0.412q-2.209,2.106-4.391,4.26c-133.111,131.469-113.9,310.352,18.232,440.854,1.45,1.433,3.47,3.38,5.843,5.645,1.647,1.7,3.3,3.387,4.992,5.057,0.773,0.763,1.616,1.579,2.506,2.439,0.556,0.55,1.1,1.12,1.655,1.67,1.451,1.43,3.471,3.38,5.844,5.65,1.647,1.69,3.3,3.38,4.991,5.05,6.487,6.41,17.657,16.51,24.262,22.42,5.273,4.92,8.95,8.33,8.95,8.33l88.536,86.82,10.247,10.06-8.7,44.04L418.28,1386.79a472.317,472.317,0,0,0-8.736,50.29L1640.85,220.96C1550.45,190,1435.87,202.852,1350.84,227.277Z"/>
</svg>
