<svg xmlns="http://www.w3.org/2000/svg" width="2000" height="2000" viewBox="0 0 2000 2000">
  <defs>
    <style>
      .cls-1 {
        fill: #fff;
        fill-rule: evenodd;
      }
    </style>
  </defs>
  <path class="cls-1" d="M1995.47,999.042c0,0.341-.01.676-0.01,1.018q0.12,12.165.13,24.54c0,312.96-66.77,513.37-150.32,641.74-33.17,55.96-87.71,119.89-177.4,176.49-128.11,85.19-329.72,153.84-646.98,153.84q-21.06,0-41.455-.35h-0.322c-299.38,0-495.743-61.14-624.575-139.61-105.03-60.87-166.168-132.11-201.751-193.34C70.15,1534.88,4.411,1335.14,4.411,1024.6q0-12.39.132-24.54c0-.342-0.01-0.676-0.013-1.017q-0.02-2.163-.036-4.335-0.073-9.538-.082-19.2c0-6.032.034-12.006,0.083-17.955q0.021-2.518.05-5.024,0.075-7.017.195-13.955c0.024-1.379.043-2.767,0.069-4.142q0.168-8.69.4-17.26c0.034-1.226.075-2.439,0.112-3.662q0.205-6.937.456-13.8,0.089-2.442.183-4.876,0.3-7.766.661-15.435c0.023-.485.042-0.976,0.065-1.461q0.4-8.327.871-16.524c0.086-1.517.177-3.024,0.267-4.535q0.379-6.394.8-12.715c0.091-1.375.179-2.757,0.273-4.126q0.55-8.015,1.163-15.918c0.076-.977.159-1.941,0.236-2.916q0.523-6.576,1.091-13.073,0.2-2.286.4-4.561,0.6-6.7,1.252-13.32c0.075-.767.146-1.543,0.222-2.308q0.761-7.632,1.586-15.142c0.149-1.367.3-2.723,0.456-4.085q0.651-5.818,1.338-11.57c0.162-1.356.321-2.715,0.486-4.065q0.9-7.351,1.85-14.6c0.1-.734.2-1.457,0.3-2.189q0.834-6.246,1.712-12.406,0.306-2.147.617-4.283,0.845-5.816,1.727-11.558c0.145-.946.286-1.9,0.433-2.846q1.082-6.948,2.221-13.786c0.206-1.24.418-2.47,0.627-3.7q0.889-5.264,1.81-10.465c0.236-1.335.472-2.673,0.711-4q1.206-6.694,2.46-13.3c0.1-.5.2-1,0.293-1.5q1.139-5.929,2.321-11.77,0.412-2.04.83-4.067,1.033-5.03,2.1-10c0.229-1.072.454-2.151,0.686-3.218q1.36-6.274,2.769-12.449c0.261-1.146.528-2.28,0.792-3.421q1.088-4.708,2.2-9.36,0.476-1.985.955-3.962,1.367-5.616,2.771-11.152c0.144-.567.288-1.136,0.433-1.7q1.439-5.624,2.92-11.154c0.35-1.313.7-2.617,1.058-3.922q1.166-4.305,2.357-8.556c0.326-1.165.649-2.338,0.978-3.5q1.59-5.609,3.22-11.128c0.322-1.09.65-2.166,0.974-3.251q1.238-4.14,2.5-8.23,0.611-1.981,1.226-3.955,1.384-4.425,2.793-8.788c0.252-.781.5-1.573,0.753-2.35q1.706-5.24,3.452-10.382c0.436-1.29.877-2.57,1.316-3.853q1.242-3.621,2.5-7.2c0.436-1.239.871-2.483,1.31-3.715q1.767-4.954,3.565-9.831c0.4-1.076.8-2.136,1.2-3.206q1.327-3.55,2.67-7.06,0.764-2,1.534-3.976,1.351-3.474,2.719-6.9c0.416-1.044.828-2.1,1.246-3.136q1.845-4.578,3.721-9.074c0.538-1.292,1.08-2.572,1.622-3.854q1.253-2.969,2.518-5.9c0.56-1.3,1.119-2.6,1.682-3.887q1.8-4.109,3.615-8.153c0.561-1.247,1.128-2.478,1.693-3.716q1.337-2.931,2.685-5.831,0.941-2.017,1.886-4.017,1.268-2.68,2.545-5.325c0.586-1.215,1.168-2.437,1.757-3.642q1.927-3.948,3.88-7.826c0.66-1.314,1.325-2.613,1.99-3.916q1.2-2.347,2.4-4.669,1.043-2.012,2.09-4.01c0.925-1.756,1.854-3.494,2.785-5.229q1.536-2.861,3.082-5.68c0.831-1.515,1.662-3.029,2.5-4.527q1.139-2.041,2.284-4.06t2.274-3.984c0.758-1.319,1.515-2.643,2.276-3.948q1.958-3.356,3.93-6.651c0.809-1.352,1.622-2.685,2.434-4.022q1.068-1.758,2.14-3.5,1.26-2.047,2.526-4.075c0.711-1.136,1.425-2.26,2.139-3.385,0.751-1.184,1.5-2.384,2.252-3.556,34.247-58.969,92.209-127.235,190.25-186.583C471.536,68.349,670.647,3.448,979.113,3.448q10.288,0,20.408.092,10.6-.091,21.369-0.092c308.07,0,507.08,64.737,635.65,146.483,98.42,59.467,156.53,127.937,190.82,187.038,0.09,0.14.18,0.285,0.27,0.425q2.265,3.529,4.51,7.135c0.48,0.765.95,1.535,1.43,2.3q1.83,2.964,3.65,5.976c0.39,0.655.79,1.3,1.19,1.961q2.31,3.863,4.61,7.8c0.37,0.635.73,1.279,1.1,1.917q1.815,3.144,3.62,6.34c0.46,0.823.93,1.646,1.39,2.474q2.085,3.736,4.16,7.539c0.15,0.267.29,0.529,0.44,0.8q2.25,4.155,4.47,8.4c0.44,0.833.88,1.673,1.31,2.511q1.725,3.3,3.42,6.651c0.39,0.776.79,1.547,1.18,2.327q2.19,4.341,4.35,8.764c0.3,0.617.6,1.243,0.9,1.863q1.755,3.636,3.5,7.33c0.43,0.919.87,1.84,1.3,2.764q1.845,3.943,3.66,7.949c0.21,0.472.43,0.937,0.64,1.411q2.1,4.641,4.16,9.378c0.39,0.891.78,1.791,1.16,2.687q1.59,3.681,3.17,7.416c0.37,0.9.75,1.791,1.13,2.693q2.025,4.856,4.02,9.794c0.22,0.546.43,1.1,0.65,1.65q1.7,4.231,3.36,8.532c0.4,1.013.79,2.03,1.18,3.049q1.62,4.211,3.21,8.485c0.24,0.659.49,1.309,0.74,1.969q1.9,5.159,3.77,10.414c0.34,0.935.66,1.878,1,2.817q1.44,4.113,2.87,8.283c0.35,1.02.7,2.037,1.05,3.063q1.83,5.4,3.62,10.891c0.13,0.39.25,0.787,0.38,1.178q1.6,4.98,3.19,10.046c0.35,1.1.69,2.211,1.03,3.32,0.93,3.022,1.86,6.066,2.77,9.13,0.25,0.834.5,1.66,0.75,2.5q1.68,5.706,3.33,11.511c0.27,0.955.54,1.921,0.8,2.88,0.86,3.07,1.72,6.161,2.56,9.272,0.31,1.143.62,2.285,0.92,3.434q1.6,5.984,3.16,12.058a2.539,2.539,0,0,0,.07.262q1.515,5.973,2.99,12.056c0.29,1.187.58,2.382,0.86,3.575q1.185,4.9,2.33,9.871c0.23,1,.46,2,0.69,3.012q1.44,6.284,2.82,12.669c0.2,0.943.4,1.9,0.61,2.844q1.11,5.174,2.18,10.413,0.39,1.9.78,3.805,1.215,6.066,2.41,12.215c0.07,0.37.14,0.734,0.21,1.1q1.275,6.663,2.49,13.443c0.23,1.263.45,2.534,0.67,3.8q0.945,5.322,1.86,10.71c0.19,1.174.4,2.342,0.59,3.52q1.14,6.893,2.24,13.89c0.14,0.882.27,1.775,0.4,2.66q0.9,5.841,1.76,11.757,0.3,2.082.6,4.173,0.885,6.243,1.74,12.567c0.09,0.687.18,1.365,0.27,2.053q0.96,7.269,1.86,14.657c0.16,1.324.32,2.658,0.48,3.988q0.69,5.795,1.35,11.657c0.15,1.342.3,2.678,0.45,4.025q0.825,7.536,1.59,15.176c0.07,0.743.14,1.5,0.21,2.242q0.66,6.649,1.26,13.388c0.14,1.507.27,3.018,0.4,4.531q0.57,6.514,1.09,13.108c0.08,0.966.16,1.922,0.24,2.89q0.615,7.9,1.16,15.929c0.1,1.364.18,2.741,0.27,4.11q0.42,6.33.8,12.731c0.09,1.508.18,3.013,0.27,4.527,0.31,5.473.61,10.975,0.87,16.528,0.03,0.481.04,0.969,0.07,1.45q0.36,7.668.66,15.446,0.09,2.43.18,4.873,0.255,6.859.46,13.8c0.03,1.222.07,2.435,0.11,3.662q0.24,8.568.4,17.26c0.03,1.374.05,2.762,0.07,4.141q0.12,6.939.2,13.955c0.01,1.673.03,3.345,0.05,5.024q0.075,8.922.08,17.955,0,9.674-.08,19.2C1995.5,996.154,1995.48,997.6,1995.47,999.042ZM311.131,1539.4c28.932,49.78,78.644,107.71,164.043,157.2,104.754,63.8,264.417,113.51,507.843,113.51h0.262q16.6,0.285,33.7.29c257.97,0,421.9-55.82,526.07-125.08,72.92-46.02,117.27-98.01,144.24-143.51,47.72-73.32,88.71-175.55,108.88-318.1-78.65,62.29-184.57,103.31-328.23,103.31-176.71,0-307.6-62.17-503.944-153.8C816.741,1104.51,685.847,1045.6,525.5,1045.6c-129.01,0-222.012,33.92-326.721,137.5C216.292,1345.45,259.684,1459.41,311.131,1539.4ZM1808.86,932.665c-0.02-1-.06-1.984-0.09-2.978q-0.165-5.641-.37-11.218-0.075-1.985-.15-3.963-0.24-6.318-.53-12.559c-0.02-.391-0.04-0.788-0.06-1.179q-0.315-6.773-.71-13.439c-0.07-1.231-.14-2.455-0.21-3.681q-0.315-5.205-.65-10.351c-0.08-1.114-.15-2.233-0.22-3.343q-0.45-6.52-.95-12.951c-0.06-.787-0.13-1.565-0.19-2.35q-0.42-5.363-.89-10.658-0.165-1.846-.33-3.685c-0.32-3.651-.67-7.281-1.02-10.885-0.06-.606-0.11-1.219-0.17-1.823q-0.63-6.219-1.3-12.339c-0.12-1.1-.24-2.182-0.36-3.273-0.36-3.178-.72-6.338-1.1-9.479-0.13-1.081-.26-2.166-0.39-3.243q-0.735-6-1.51-11.917c-0.07-.56-0.15-1.111-0.22-1.669q-0.69-5.145-1.41-10.219c-0.16-1.133-.33-2.264-0.49-3.392-0.47-3.207-.94-6.394-1.43-9.56-0.11-.72-0.22-1.446-0.33-2.163q-0.885-5.692-1.82-11.294c-0.16-.958-0.32-1.907-0.48-2.862q-0.75-4.382-1.51-8.708c-0.18-1.032-.36-2.066-0.55-3.093q-0.99-5.5-2.02-10.93c-0.06-.3-0.12-0.6-0.18-0.9q-0.96-5.005-1.95-9.931c-0.21-1.035-.42-2.065-0.64-3.095q-0.87-4.26-1.77-8.466c-0.17-.77-0.33-1.546-0.49-2.313q-1.125-5.193-2.3-10.3c-0.18-.821-0.37-1.632-0.56-2.449q-0.93-4.039-1.89-8.026c-0.23-.971-0.47-1.942-0.7-2.907q-1.2-4.938-2.44-9.8a1.68,1.68,0,0,0-.05-0.213q-1.26-4.948-2.57-9.8c-0.25-.934-0.5-1.862-0.75-2.792-0.68-2.529-1.38-5.042-2.08-7.538-0.21-.78-0.43-1.566-0.65-2.342q-1.335-4.719-2.71-9.36c-0.2-.68-0.4-1.352-0.61-2.03q-1.11-3.738-2.25-7.423-0.42-1.353-.84-2.7c-0.85-2.743-1.72-5.468-2.59-8.168-0.11-.318-0.21-0.641-0.31-0.958q-1.455-4.47-2.94-8.855c-0.29-.834-0.57-1.661-0.85-2.491q-1.17-3.39-2.34-6.734c-0.27-.764-0.54-1.531-0.81-2.291q-1.53-4.269-3.07-8.467c-0.2-.537-0.4-1.066-0.6-1.6q-1.29-3.477-2.61-6.9-0.48-1.242-.96-2.479-1.35-3.5-2.73-6.938c-0.18-.445-0.36-0.9-0.53-1.341q-1.62-4.02-3.27-7.963c-0.31-.734-0.61-1.46-0.92-2.19q-1.275-3.037-2.57-6.03c-0.32-.729-0.63-1.46-0.95-2.185-1.12-2.564-2.24-5.109-3.38-7.625-0.17-.385-0.35-0.763-0.52-1.147q-1.485-3.26-2.98-6.463-0.525-1.128-1.05-2.248-1.425-3-2.85-5.96c-0.25-.5-0.49-1.013-0.73-1.515q-1.755-3.6-3.54-7.126c-0.32-.635-0.64-1.261-0.96-1.892q-1.38-2.724-2.78-5.408c-0.35-.681-0.71-1.364-1.06-2.042q-1.815-3.447-3.64-6.832c-0.12-.218-0.24-0.431-0.36-0.648q-1.68-3.095-3.38-6.131c-0.37-.673-0.75-1.342-1.13-2.011q-1.47-2.6-2.94-5.155c-0.3-.519-0.6-1.042-0.9-1.558q-1.86-3.206-3.75-6.344c-0.32-.535-0.64-1.062-0.96-1.594q-1.485-2.45-2.97-4.86-0.585-.937-1.17-1.873-1.815-2.928-3.66-5.8c-0.07-.115-0.15-0.232-0.22-0.346-27.88-48.055-75.13-103.728-155.16-152.081-104.54-66.467-266.35-119.105-516.85-119.105q-8.745,0-17.37.074-8.241-.067-16.593-0.074c-250.814,0-412.711,52.771-517.237,119.357-79.717,48.256-126.846,103.763-154.692,151.71-0.613.954-1.22,1.929-1.831,2.892-0.58.915-1.16,1.828-1.739,2.752q-1.029,1.647-2.054,3.314-0.872,1.416-1.74,2.847c-0.66,1.087-1.322,2.171-1.979,3.27q-1.6,2.681-3.2,5.408c-0.619,1.061-1.234,2.137-1.85,3.21s-1.235,2.153-1.849,3.239-1.24,2.194-1.857,3.3q-1.018,1.829-2.03,3.681-1.258,2.3-2.506,4.619-1.135,2.115-2.265,4.251-0.852,1.622-1.7,3.261-0.978,1.887-1.951,3.8c-0.54,1.059-1.081,2.116-1.618,3.185q-1.586,3.155-3.155,6.363c-0.478.979-.952,1.973-1.428,2.961q-1.038,2.154-2.069,4.33-0.77,1.626-1.534,3.266-1.1,2.355-2.184,4.742c-0.459,1.006-.92,2.007-1.376,3.021q-1.479,3.286-2.939,6.629c-0.458,1.048-.913,2.105-1.368,3.161q-1.029,2.387-2.047,4.8c-0.44,1.043-.881,2.083-1.319,3.134q-1.524,3.66-3.026,7.378c-0.34.844-.675,1.7-1.013,2.55q-1.111,2.788-2.211,5.611-0.626,1.611-1.247,3.233-1.094,2.851-2.171,5.74c-0.325.87-.653,1.732-0.976,2.608q-1.464,3.96-2.9,7.992c-0.357,1-.71,2.014-1.065,3.022q-1.023,2.909-2.033,5.852c-0.358,1.043-.716,2.084-1.07,3.133q-1.417,4.19-2.807,8.441c-0.206.633-.407,1.276-0.612,1.911q-1.146,3.549-2.271,7.146-0.5,1.6-1,3.216-1.024,3.324-2.031,6.692c-0.263.882-.53,1.757-0.792,2.643q-1.326,4.486-2.618,9.048c-0.267.943-.53,1.9-0.795,2.844q-0.968,3.456-1.916,6.956-0.43,1.592-.86,3.189-1.2,4.5-2.375,9.07-0.175.69-.352,1.384-1.143,4.5-2.252,9.067-0.392,1.605-.776,3.222-0.907,3.782-1.791,7.61c-0.215.928-.432,1.85-0.644,2.782q-1.144,5.02-2.251,10.122c-0.188.868-.372,1.746-0.558,2.617q-0.864,4.038-1.7,8.127-0.339,1.65-.675,3.307-0.96,4.752-1.888,9.57c-0.078.408-.16,0.81-0.238,1.22q-1.023,5.358-2,10.811c-0.195,1.08-.386,2.168-0.578,3.254q-0.748,4.228-1.471,8.509c-0.17,1-.342,2-0.51,3.012q-0.924,5.563-1.806,11.21c-0.119.767-.234,1.544-0.352,2.314q-0.717,4.668-1.4,9.4-0.253,1.739-.5,3.483-0.713,5.011-1.391,10.087c-0.08.6-.163,1.184-0.242,1.78q-0.777,5.889-1.5,11.873c-0.134,1.1-.263,2.2-0.4,3.3q-0.558,4.677-1.088,9.409c-0.124,1.106-.25,2.209-0.371,3.321q-0.667,6.113-1.289,12.311c-0.062.623-.12,1.253-0.181,1.877q-0.528,5.379-1.018,10.83-0.166,1.851-.328,3.709-0.462,5.283-.887,10.63c-0.063.792-.131,1.577-0.192,2.371q-0.5,6.422-.946,12.942c-0.076,1.114-.148,2.238-0.222,3.356q-0.34,5.139-.649,10.338c-0.073,1.229-.147,2.454-0.217,3.687q-0.379,6.675-.709,13.437c-0.019.393-.034,0.793-0.053,1.187q-0.292,6.231-.537,12.551-0.077,1.977-.148,3.964c-0.059,1.59-.1,3.2-0.159,4.8C271.825,854.2,379.833,809.994,532.047,809.994c176.707,0,307.6,58.9,503.943,153.8,147.25,65.445,278.15,124.345,441.76,124.345,129.56,0,223.5-35.63,331.39-143.592C1809.06,940.568,1808.97,936.6,1808.86,932.665ZM1244.11,638.8a171.21,171.21,0,1,1,171.21,171.212A171.21,171.21,0,0,1,1244.11,638.8Z"/>
</svg>
