<svg xmlns="http://www.w3.org/2000/svg" width="2000" height="2000" viewBox="0 0 2000 2000">
  <defs>
    <style>
      .cls-1 {
        fill: #fff;
        fill-rule: evenodd;
      }
    </style>
  </defs>
  <path class="cls-1" d="M1996.22,998.984c-0.01.341-.01,0.675-0.02,1.016,0.08,8.12.14,16.29,0.14,24.56,0,313.13-66.83,513.66-150.43,642.1-33.2,55.99-87.78,119.96-177.54,176.59-128.21,85.23-329.96,153.92-647.47,153.92q-21.06,0-41.48-.35H979.1c-299.6,0-496.115-61.17-625.044-139.68-105.109-60.91-166.293-132.19-201.9-193.45C69.452,1535.13,3.664,1335.27,3.664,1024.56c0-8.27.052-16.44,0.132-24.56,0-.34-0.01-0.675-0.013-1.015q-0.02-2.164-.036-4.338c-0.049-6.363-.083-12.754-0.083-19.207,0-6.035.034-12.013,0.083-17.965q0.021-2.52.05-5.027,0.075-7.02.195-13.962c0.024-1.381.043-2.769,0.069-4.145q0.168-8.694.4-17.27c0.034-1.227.076-2.441,0.112-3.664q0.205-6.942.456-13.8,0.089-2.442.183-4.878,0.3-7.77.661-15.444c0.023-.486.042-0.977,0.065-1.462q0.4-8.332.872-16.534c0.086-1.517.178-3.026,0.267-4.537q0.379-6.4.8-12.722c0.091-1.376.179-2.758,0.273-4.129q0.551-8.019,1.164-15.926c0.076-.978.159-1.943,0.236-2.918q0.524-6.58,1.092-13.08,0.2-2.287.4-4.564,0.6-6.707,1.253-13.328c0.075-.767.146-1.543,0.222-2.309q0.761-7.635,1.587-15.15c0.149-1.368.3-2.725,0.457-4.087q0.652-5.823,1.339-11.578c0.162-1.355.322-2.716,0.487-4.066q0.9-7.356,1.852-14.609c0.1-.735.2-1.458,0.3-2.191q0.835-6.249,1.713-12.413,0.306-2.148.617-4.286,0.846-5.819,1.729-11.564c0.146-.947.286-1.9,0.433-2.847q1.083-6.952,2.223-13.794c0.206-1.241.418-2.471,0.627-3.707q0.89-5.266,1.811-10.471c0.237-1.336.472-2.674,0.712-4q1.207-6.7,2.461-13.3c0.1-.5.2-1,0.293-1.5q1.14-5.933,2.323-11.776,0.412-2.042.831-4.07,1.034-5.031,2.1-10c0.229-1.072.455-2.152,0.686-3.219q1.361-6.279,2.771-12.456c0.261-1.147.529-2.281,0.793-3.423q1.089-4.712,2.2-9.366,0.476-1.984.955-3.964,1.368-5.619,2.773-11.158,0.217-.852.433-1.7,1.44-5.626,2.922-11.16c0.351-1.314.7-2.619,1.059-3.925q1.167-4.307,2.358-8.56c0.326-1.166.65-2.339,0.979-3.5q1.591-5.613,3.222-11.135c0.322-1.09.651-2.167,0.975-3.252q1.239-4.143,2.5-8.235,0.611-1.983,1.227-3.957,1.385-4.428,2.8-8.794c0.252-.781.5-1.573,0.754-2.351q1.707-5.241,3.454-10.387c0.437-1.291.877-2.572,1.317-3.855q1.242-3.623,2.5-7.2c0.437-1.241.871-2.485,1.311-3.718q1.768-4.957,3.567-9.836c0.4-1.077.8-2.137,1.2-3.208q1.328-3.552,2.671-7.064,0.765-1.995,1.535-3.978,1.352-3.476,2.721-6.9c0.416-1.044.828-2.1,1.247-3.137q1.847-4.583,3.724-9.08c0.538-1.293,1.081-2.573,1.623-3.857q1.254-2.97,2.52-5.906c0.56-1.3,1.12-2.6,1.683-3.89q1.8-4.11,3.617-8.157c0.562-1.248,1.129-2.48,1.695-3.718q1.338-2.933,2.687-5.835,0.941-2.019,1.888-4.019,1.267-2.682,2.547-5.328c0.586-1.215,1.168-2.439,1.757-3.644q1.931-3.951,3.883-7.83c0.661-1.315,1.327-2.615,1.992-3.919q1.2-2.348,2.4-4.671,1.046-2.013,2.093-4.013c0.925-1.757,1.855-3.5,2.787-5.231q1.536-2.862,3.084-5.684c0.831-1.516,1.663-3.03,2.5-4.529q1.138-2.043,2.285-4.063,1.136-2,2.276-3.986c0.759-1.32,1.516-2.644,2.278-3.95q1.959-3.357,3.933-6.655c0.809-1.352,1.623-2.686,2.436-4.024q1.068-1.758,2.141-3.5,1.262-2.049,2.529-4.078c0.711-1.136,1.426-2.26,2.14-3.386,0.751-1.185,1.5-2.386,2.253-3.559,34.273-59,92.278-127.306,190.393-186.688C471.14,67.765,670.4,2.828,979.1,2.828q10.3,0,20.422.092,10.605-.091,21.38-0.092c308.31,0,507.46,64.774,636.13,146.565,98.5,59.5,156.65,128.01,190.97,187.144,0.09,0.14.18,0.285,0.27,0.425q2.265,3.531,4.51,7.139c0.48,0.765.95,1.536,1.43,2.306q1.83,2.966,3.65,5.979c0.4,0.655.8,1.3,1.19,1.962q2.31,3.864,4.61,7.807c0.37,0.635.74,1.279,1.11,1.917q1.815,3.147,3.62,6.344c0.47,0.823.93,1.647,1.39,2.475q2.1,3.739,4.17,7.544c0.14,0.267.29,0.529,0.43,0.8q2.265,4.158,4.48,8.408c0.44,0.833.88,1.674,1.31,2.512q1.725,3.3,3.42,6.655c0.4,0.776.79,1.547,1.19,2.328,1.45,2.9,2.91,5.817,4.35,8.769,0.3,0.617.59,1.244,0.89,1.864q1.77,3.639,3.51,7.335c0.43,0.919.87,1.84,1.3,2.765q1.845,3.945,3.66,7.954c0.22,0.472.43,0.937,0.65,1.411q2.1,4.644,4.16,9.383c0.39,0.892.77,1.793,1.16,2.689q1.59,3.684,3.17,7.42c0.38,0.9.75,1.792,1.13,2.695q2.025,4.857,4.02,9.8c0.22,0.547.44,1.1,0.66,1.651q1.695,4.234,3.36,8.537c0.39,1.014.79,2.031,1.18,3.05q1.62,4.214,3.21,8.491c0.24,0.659.49,1.309,0.74,1.97q1.9,5.161,3.78,10.42c0.33,0.935.66,1.879,0.99,2.818q1.455,4.116,2.88,8.288c0.35,1.02.7,2.038,1.05,3.064q1.83,5.4,3.62,10.9c0.13,0.391.25,0.788,0.38,1.179q1.62,4.985,3.19,10.052c0.35,1.1.69,2.213,1.03,3.322,0.94,3.024,1.86,6.069,2.78,9.135,0.25,0.835.5,1.661,0.75,2.5q1.68,5.708,3.33,11.517c0.27,0.956.53,1.922,0.8,2.882,0.86,3.072,1.72,6.163,2.56,9.276q0.465,1.716.93,3.436,1.59,5.988,3.16,12.066c0.02,0.086.04,0.175,0.06,0.262,1.02,3.984,2.01,8.012,3,12.062,0.29,1.188.57,2.383,0.86,3.578q1.185,4.9,2.33,9.876c0.23,1.006.46,2,.69,3.013q1.44,6.288,2.82,12.676c0.21,0.944.41,1.9,0.61,2.847q1.11,5.175,2.18,10.418,0.39,1.9.78,3.808,1.23,6.068,2.41,12.221c0.07,0.37.15,0.735,0.22,1.105,0.85,4.445,1.67,8.935,2.49,13.451,0.22,1.263.45,2.535,0.67,3.8q0.945,5.325,1.86,10.716c0.2,1.175.4,2.343,0.59,3.522q1.155,6.9,2.24,13.9c0.14,0.882.27,1.776,0.41,2.661q0.9,5.844,1.76,11.764,0.3,2.083.6,4.175,0.885,6.246,1.73,12.574c0.09,0.687.19,1.366,0.28,2.054q0.96,7.274,1.86,14.665c0.16,1.325.32,2.66,0.48,3.991q0.69,5.8,1.35,11.664c0.15,1.342.3,2.679,0.45,4.027,0.54,5.026,1.08,10.082,1.59,15.184,0.07,0.744.14,1.5,0.21,2.244q0.66,6.653,1.26,13.395c0.14,1.507.27,3.019,0.4,4.534q0.57,6.518,1.1,13.115c0.07,0.966.16,1.923,0.23,2.891q0.615,7.91,1.17,15.938c0.09,1.366.18,2.743,0.27,4.113q0.42,6.333.8,12.738c0.09,1.509.18,3.014,0.27,4.529q0.465,8.215.87,16.538c0.02,0.481.04,0.969,0.06,1.451q0.36,7.672.66,15.454c0.07,1.621.13,3.249,0.19,4.877,0.16,4.575.32,9.176,0.45,13.805,0.04,1.223.08,2.437,0.11,3.664q0.24,8.573.41,17.269c0.03,1.376.04,2.764,0.07,4.144q0.12,6.943.19,13.963c0.02,1.674.04,3.347,0.05,5.027,0.05,5.952.09,11.93,0.09,17.965,0,6.453-.04,12.844-0.09,19.207Q1996.235,996.818,1996.22,998.984ZM310.614,1539.64c28.954,49.81,78.7,107.78,164.167,157.3C579.613,1760.78,739.4,1810.51,983,1810.51h0.262q16.61,0.285,33.734.29c258.16,0,422.21-55.85,526.46-125.16,72.97-46.04,117.36-98.05,144.35-143.58,2.13-3.28,4.26-6.62,6.36-10.02-35.82-47.03-78.84-96.34-130.3-147.8q-6.195-6.2-12.35-12.24-5.775-5.88-11.69-11.8c-177.48-177.48-329.38-254.71-450.46-281.57-90.55-22.27-163.172-16.35-216.8-2.13-1.108.24-2.228,0.5-3.341,0.75-1.058.24-2.115,0.47-3.178,0.72-1.262.29-2.529,0.59-3.8,0.89l-3.245.78c-1.237.3-2.472,0.6-3.714,0.92q-3.031.75-6.088,1.56c-1.189.31-2.385,0.64-3.58,0.96s-2.4.65-3.6,0.99-2.43.67-3.649,1.02c-1.343.38-2.692,0.77-4.041,1.16q-2.514.735-5.042,1.5-2.3.69-4.61,1.4-1.749.555-3.51,1.11c-1.352.43-2.707,0.86-4.066,1.3-1.132.37-2.262,0.74-3.4,1.11q-3.356,1.11-6.735,2.27c-1.031.36-2.07,0.72-3.105,1.09q-2.259.78-4.528,1.59l-3.4,1.23c-1.628.59-3.263,1.2-4.9,1.81-1.037.39-2.071,0.77-3.112,1.16q-3.372,1.29-6.77,2.61c-1.065.42-2.135,0.85-3.2,1.27q-2.415.96-4.844,1.95c-1.05.43-2.1,0.85-3.151,1.28-2.445,1.01-4.9,2.03-7.362,3.08-0.837.36-1.68,0.73-2.52,1.09q-2.76,1.185-5.535,2.41c-1.055.46-2.111,0.93-3.17,1.4q-2.79,1.245-5.6,2.52c-0.846.39-1.688,0.77-2.536,1.16q-3.837,1.77-7.706,3.6c-0.961.46-1.927,0.92-2.891,1.39q-2.783,1.335-5.58,2.7c-0.99.48-1.98,0.97-2.974,1.46q-3.964,1.95-7.958,3.98c-0.593.31-1.191,0.62-1.785,0.92-2.214,1.14-4.435,2.28-6.663,3.45-0.992.52-1.986,1.04-2.98,1.57q-3.078,1.635-6.172,3.3c-0.811.44-1.618,0.87-2.43,1.31q-4.113,2.235-8.255,4.55c-0.856.47-1.716,0.96-2.574,1.45q-3.13,1.755-6.278,3.56-1.431.825-2.865,1.65c-2.69,1.56-5.388,3.13-8.1,4.74-0.409.24-.819,0.48-1.228,0.73q-3.99,2.37-8.009,4.82c-0.942.57-1.885,1.15-2.829,1.73-2.211,1.35-4.428,2.73-6.652,4.11-0.808.51-1.614,1.01-2.423,1.52q-4.363,2.745-8.755,5.57c-0.747.48-1.5,0.97-2.246,1.45-2.312,1.5-4.631,3.01-6.956,4.55q-1.407.915-2.817,1.86-4.041,2.685-8.107,5.43c-0.344.24-.686,0.46-1.031,0.7-3.01,2.04-6.034,4.13-9.064,6.23l-2.712,1.89q-3.52,2.475-7.061,4.98l-2.492,1.77q-4.59,3.285-9.209,6.66c-0.627.46-1.258,0.92-1.886,1.39q-3.811,2.79-7.643,5.65c-0.938.7-1.878,1.4-2.818,2.11q-4.05,3.045-8.122,6.15c-0.478.37-.953,0.72-1.431,1.09q-4.714,3.615-9.464,7.34c-0.871.68-1.745,1.37-2.618,2.05q-3.7,2.925-7.426,5.89c-0.871.7-1.74,1.39-2.612,2.09-3.2,2.57-6.4,5.16-9.623,7.8-0.484.39-.971,0.8-1.456,1.19q-4.179,3.435-8.383,6.95c-0.951.79-1.9,1.59-2.856,2.39q-4.063,3.4-8.149,6.89c-0.605.52-1.207,1.03-1.813,1.54q-4.9,4.2-9.826,8.49-1.263,1.11-2.531,2.22-3.878,3.39-7.774,6.85-1.38,1.23-2.762,2.46-4.99,4.455-10.007,9l-0.878.81q-4.617,4.2-9.26,8.5c-0.969.89-1.939,1.79-2.91,2.69q-4.089,3.81-8.2,7.68-1.086,1.02-2.171,2.04-5.066,4.8-10.161,9.7c-0.807.77-1.616,1.56-2.423,2.34-2.707,2.62-5.42,5.25-8.14,7.92-0.973.95-1.945,1.9-2.919,2.86q-5.175,5.085-10.376,10.28-5.567,5.565-11,11.09c-0.826.84-1.652,1.68-2.473,2.51-0.194.2-.383,0.4-0.577,0.6q-7.071,6.93-14.2,14.04c-33.289,33.29-69.759,76.7-101.934,117.38Q299.841,1522.95,310.614,1539.64ZM1810.03,999.171c0.01-1.173.02-2.349,0.02-3.526,0.04-5.174.07-10.37,0.07-15.617q0-7.361-.07-14.607c-0.01-1.367-.02-2.727-0.04-4.088q-0.06-5.707-.15-11.353c-0.02-1.122-.04-2.251-0.06-3.369q-0.135-7.069-.33-14.042c-0.03-1-.06-1.985-0.09-2.98-0.11-3.763-.24-7.5-0.37-11.225q-0.075-1.985-.15-3.965c-0.17-4.214-.34-8.406-0.54-12.566-0.02-.391-0.03-0.788-0.05-1.179q-0.33-6.777-.71-13.447c-0.07-1.232-.14-2.456-0.22-3.683q-0.3-5.208-.65-10.357c-0.07-1.114-.14-2.234-0.22-3.344q-0.45-6.525-.95-12.959c-0.06-.788-0.12-1.565-0.19-2.351q-0.42-5.365-.89-10.664c-0.1-1.232-.21-2.461-0.32-3.687q-0.495-5.48-1.03-10.891c-0.06-.606-0.11-1.22-0.17-1.825q-0.63-6.222-1.3-12.346c-0.12-1.1-.24-2.183-0.36-3.274-0.36-3.18-.72-6.342-1.1-9.484-0.13-1.082-.26-2.168-0.39-3.245q-0.735-6-1.51-11.924c-0.07-.56-0.15-1.112-0.22-1.67q-0.69-5.148-1.42-10.225-0.24-1.7-.48-3.394-0.705-4.814-1.43-9.565c-0.12-.72-0.22-1.447-0.33-2.164q-0.9-5.7-1.82-11.3c-0.16-.959-0.33-1.909-0.49-2.864q-0.735-4.383-1.51-8.714c-0.18-1.032-.36-2.066-0.55-3.094q-0.99-5.507-2.02-10.936c-0.06-.3-0.12-0.6-0.17-0.9-0.65-3.338-1.3-6.647-1.97-9.937-0.2-1.035-.42-2.065-0.63-3.1q-0.87-4.263-1.77-8.471c-0.17-.77-0.33-1.547-0.5-2.314q-1.125-5.2-2.29-10.307c-0.19-.821-0.38-1.633-0.57-2.451q-0.93-4.041-1.89-8.03c-0.23-.971-0.46-1.943-0.7-2.909q-1.2-4.94-2.44-9.808a1.68,1.68,0,0,0-.05-0.213c-0.84-3.3-1.7-6.564-2.57-9.81-0.25-.935-0.5-1.864-0.75-2.794q-1.035-3.8-2.08-7.543c-0.22-.78-0.43-1.566-0.65-2.343q-1.35-4.722-2.71-9.365c-0.21-.681-0.41-1.353-0.61-2.031q-1.125-3.74-2.26-7.428c-0.28-.9-0.55-1.8-0.84-2.7-0.85-2.745-1.72-5.472-2.59-8.174-0.11-.317-0.21-0.641-0.31-0.958q-1.455-4.473-2.95-8.86c-0.28-.834-0.56-1.662-0.85-2.492q-1.155-3.393-2.34-6.739c-0.27-.763-0.54-1.531-0.81-2.291-1.01-2.849-2.04-5.675-3.07-8.473-0.2-.537-0.4-1.066-0.6-1.6q-1.29-3.478-2.61-6.9-0.48-1.243-.96-2.48c-0.9-2.332-1.82-4.647-2.73-6.942-0.18-.446-0.36-0.9-0.54-1.342q-1.62-4.023-3.27-7.968c-0.3-.734-0.61-1.461-0.92-2.191q-1.275-3.039-2.57-6.033c-0.32-.729-0.63-1.461-0.95-2.187-1.12-2.565-2.24-5.111-3.38-7.629-0.17-.385-0.35-0.763-0.53-1.148-0.98-2.174-1.98-4.328-2.97-6.466-0.36-.753-0.71-1.5-1.06-2.249q-1.425-3.006-2.85-5.964c-0.25-.5-0.49-1.014-0.73-1.515q-1.755-3.6-3.54-7.131c-0.32-.634-0.64-1.262-0.96-1.893q-1.38-2.725-2.78-5.411c-0.36-.681-0.71-1.365-1.07-2.043-1.2-2.3-2.42-4.582-3.64-6.836-0.12-.218-0.24-0.431-0.35-0.648q-1.695-3.1-3.39-6.134c-0.37-.674-0.75-1.343-1.13-2.013q-1.47-2.6-2.95-5.158c-0.3-.518-0.59-1.042-0.89-1.559q-1.875-3.206-3.76-6.347c-0.32-.535-0.64-1.063-0.96-1.595q-1.485-2.451-2.97-4.862c-0.39-.626-0.78-1.253-1.17-1.875-1.21-1.953-2.44-3.891-3.66-5.805-0.08-.114-0.15-0.231-0.22-0.346-27.91-48.082-75.19-103.786-155.28-152.166C1429.61,241.864,1267.68,189.2,1017,189.2q-8.775,0-17.39.074c-5.5-.045-11.024-0.074-16.606-0.074-251,0-413.021,52.8-517.624,119.424C385.6,356.9,338.438,412.443,310.571,460.417c-0.613.954-1.221,1.93-1.832,2.893-0.581.916-1.162,1.83-1.74,2.754q-1.031,1.647-2.056,3.316-0.873,1.416-1.741,2.848c-0.661,1.088-1.323,2.172-1.981,3.272q-1.605,2.682-3.2,5.411c-0.619,1.062-1.235,2.139-1.851,3.212s-1.236,2.154-1.851,3.241-1.241,2.2-1.858,3.3c-0.68,1.219-1.356,2.45-2.032,3.683q-1.258,2.295-2.508,4.621-1.137,2.116-2.266,4.254-0.853,1.621-1.7,3.263-0.981,1.887-1.953,3.8c-0.541,1.06-1.082,2.117-1.62,3.186q-1.587,3.158-3.157,6.367c-0.479.98-.953,1.975-1.429,2.963q-1.04,2.155-2.071,4.332-0.769,1.628-1.535,3.268-1.1,2.356-2.185,4.744c-0.459,1.007-.921,2.009-1.377,3.024q-1.481,3.288-2.942,6.632c-0.458,1.049-.913,2.107-1.368,3.163q-1.031,2.386-2.049,4.8c-0.441,1.044-.882,2.085-1.32,3.137q-1.524,3.662-3.028,7.382c-0.34.844-.675,1.7-1.014,2.551q-1.112,2.79-2.212,5.614-0.627,1.612-1.249,3.235-1.094,2.853-2.172,5.744c-0.325.87-.654,1.733-0.977,2.608q-1.466,3.963-2.9,8c-0.358,1-.711,2.014-1.066,3.023q-1.024,2.91-2.035,5.856c-0.357,1.043-.716,2.084-1.071,3.134q-1.417,4.191-2.808,8.446c-0.206.633-.408,1.277-0.613,1.912q-1.146,3.55-2.273,7.15-0.5,1.6-1,3.217-1.026,3.327-2.033,6.7c-0.264.883-.53,1.758-0.792,2.645q-1.327,4.488-2.62,9.053c-0.268.944-.53,1.9-0.8,2.845q-0.968,3.459-1.917,6.961c-0.288,1.062-.576,2.123-0.861,3.191q-1.2,4.5-2.377,9.074-0.176.692-.352,1.385-1.143,4.5-2.254,9.072c-0.261,1.071-.519,2.148-0.777,3.224q-0.907,3.783-1.792,7.615c-0.214.928-.432,1.851-0.644,2.783q-1.146,5.024-2.253,10.128c-0.188.868-.372,1.746-0.558,2.618q-0.865,4.041-1.706,8.132-0.339,1.652-.675,3.308-0.962,4.756-1.889,9.576c-0.079.409-.16,0.811-0.239,1.221q-1.023,5.361-2,10.817c-0.195,1.081-.386,2.169-0.579,3.256q-0.749,4.23-1.472,8.513c-0.17,1.005-.342,2.005-0.51,3.015q-0.924,5.565-1.807,11.216c-0.12.767-.234,1.545-0.353,2.315q-0.717,4.671-1.4,9.4-0.254,1.74-.5,3.485-0.712,5.014-1.393,10.093c-0.079.6-.163,1.184-0.242,1.781q-0.777,5.892-1.505,11.879c-0.134,1.1-.264,2.2-0.4,3.307q-0.558,4.679-1.089,9.413c-0.123,1.108-.249,2.211-0.371,3.323q-0.667,6.117-1.29,12.319c-0.062.622-.12,1.254-0.181,1.877q-0.528,5.383-1.019,10.837-0.166,1.851-.328,3.711-0.462,5.286-.888,10.636c-0.063.793-.13,1.577-0.192,2.372q-0.5,6.426-.946,12.95c-0.077,1.115-.148,2.238-0.223,3.357q-0.34,5.144-.649,10.344c-0.073,1.229-.147,2.456-0.218,3.69q-0.378,6.678-.709,13.443c-0.018.394-.034,0.794-0.053,1.189q-0.292,6.234-.537,12.557-0.078,1.978-.149,3.967-0.2,5.58-.371,11.224c-0.029.995-.063,1.982-0.091,2.979q-0.194,6.972-.329,14.042c-0.021,1.119-.037,2.248-0.056,3.37q-0.1,5.646-.158,11.353c-0.015,1.361-.03,2.721-0.041,4.088q-0.06,7.258-.068,14.607c0,5.247.028,10.443,0.068,15.617q0.014,1.765.029,3.527c0,0.277.008,0.549,0.01,0.826q-0.1,9.9-.107,19.972c0,109.52,10.059,202.09,26.927,280.35,13.958-15.24,27.608-29.69,39.839-41.92,5.847-5.85,11.662-11.59,17.46-17.28,0.239-.24.47-0.48,0.709-0.73q1.517-1.545,3.042-3.09,6.7-6.795,13.523-13.64,6.4-6.4,12.761-12.64,1.8-1.77,3.591-3.52,5.016-4.92,10.01-9.74,1.49-1.44,2.98-2.88,6.267-6.03,12.5-11.92c0.891-.85,1.779-1.68,2.67-2.52q5.054-4.755,10.083-9.43,1.791-1.665,3.579-3.32,5.709-5.28,11.388-10.46c0.359-.32.721-0.66,1.08-0.98q6.173-5.61,12.307-11.08c1.134-1.01,2.266-2.01,3.4-3.02q4.791-4.26,9.561-8.43,1.556-1.365,3.112-2.73,6.06-5.28,12.085-10.44c0.745-.63,1.486-1.26,2.23-1.89q5.024-4.29,10.021-8.48l3.513-2.94q5.169-4.32,10.31-8.54c0.6-.49,1.195-0.99,1.79-1.47q5.937-4.86,11.835-9.59c1.073-.87,2.142-1.72,3.213-2.57q4.578-3.66,9.133-7.24c1.074-.84,2.148-1.69,3.22-2.53q5.837-4.575,11.639-9.02c0.588-.45,1.173-0.89,1.76-1.34q5.009-3.825,9.989-7.57,1.734-1.3,3.466-2.59c3.142-2.35,6.275-4.66,9.4-6.96,0.773-.56,1.549-1.14,2.32-1.7q5.682-4.155,11.326-8.19c1.023-.73,2.043-1.45,3.064-2.17q4.354-3.1,8.685-6.13c1.112-.77,2.225-1.55,3.335-2.33,3.727-2.58,7.445-5.15,11.147-7.66,0.424-.29.845-0.57,1.269-0.86q5-3.39,9.97-6.68c1.156-.77,2.311-1.53,3.465-2.29q4.288-2.835,8.555-5.59c0.92-.59,1.843-1.2,2.762-1.79q5.4-3.48,10.766-6.849c1-.626,1.987-1.239,2.981-1.86q4.1-2.562,8.181-5.064,1.741-1.067,3.479-2.128,4.94-3,9.85-5.929l1.511-.9q5-2.961,9.958-5.825,1.764-1.02,3.523-2.026,3.871-2.22,7.721-4.386c1.056-.593,2.113-1.194,3.166-1.782q5.094-2.842,10.152-5.6c1-.543,1.992-1.072,2.989-1.61q3.806-2.053,7.59-4.056,1.834-.971,3.666-1.93,4.11-2.152,8.194-4.242c0.731-.374,1.466-0.759,2.2-1.13q4.914-2.5,9.787-4.9c1.222-.6,2.439-1.2,3.658-1.795q3.44-1.683,6.862-3.323c1.185-.568,2.373-1.141,3.556-1.7q4.755-2.255,9.477-4.432c1.043-.48,2.079-0.945,3.119-1.419q3.45-1.572,6.883-3.105,1.953-.871,3.9-1.728,3.414-1.5,6.807-2.958c1.033-.444,2.07-0.9,3.1-1.337q4.545-1.933,9.053-3.787c1.3-.533,2.585-1.055,3.875-1.579q2.988-1.213,5.959-2.395c1.314-.523,2.63-1.047,3.94-1.56q4.178-1.635,8.326-3.21c1.28-.485,2.552-0.955,3.827-1.432q3.021-1.126,6.026-2.225,2.094-.762,4.177-1.507,2.793-1,5.569-1.967c1.273-.445,2.55-0.9,3.819-1.334q4.158-1.428,8.282-2.791c1.4-.462,2.788-0.911,4.18-1.363q2.507-.813,5-1.6c1.441-.457,2.882-0.913,4.317-1.358,1.9-.588,3.784-1.16,5.67-1.729q3.11-.937,6.2-1.838c1.659-.484,3.318-0.967,4.969-1.436q2.25-.639,4.489-1.256,2.22-.615,4.428-1.209c1.469-.4,2.941-0.8,4.4-1.183q3.759-.988,7.487-1.925c1.529-.384,3.047-0.752,4.568-1.123q2-.487,3.991-0.963,2.342-.555,4.672-1.1c1.306-.3,2.606-0.59,3.908-0.881,1.369-.307,2.746-0.627,4.109-0.923,65.955-17.486,155.267-24.769,266.637,2.619,148.91,33.029,335.72,128.015,554,346.3q7.29,7.275,14.38,14.5,7.56,7.44,15.18,15.06,41.07,41.07,76.42,80.63c21.86-85.37,35.29-189.31,35.29-315.88q0-10.08-.11-19.972C1810.02,999.721,1810.02,999.449,1810.03,999.171ZM1423.46,808.449c-105.11,0-190.33-85.227-190.33-190.358s85.22-190.358,190.33-190.358,190.33,85.226,190.33,190.358S1528.58,808.449,1423.46,808.449Z"/>
</svg>
