<svg xmlns="http://www.w3.org/2000/svg" width="2000" height="2000" viewBox="0 0 2000 2000">
  <defs>
    <style>
      .cls-1 {
        fill: #fff;
        fill-rule: evenodd;
      }
    </style>
  </defs>
  <path id="Shape_316_1" data-name="Shape 316 1" class="cls-1" d="M1992.16,997.8c0,0.34-.01.674-0.01,1.014q0.12,12.133.13,24.479c0,312.14-66.6,512.03-149.93,640.06-33.08,55.82-87.48,119.58-176.93,176.03-127.78,84.96-328.87,153.43-645.31,153.43q-21,0-41.341-.35h-0.321c-298.6,0-494.454-60.98-622.952-139.24-104.756-60.71-165.735-131.77-201.225-192.83C71.849,1532.24,6.28,1333.01,6.28,1023.29q0-12.36.131-24.479c0-.34-0.01-0.673-0.013-1.013q-0.02-2.157-.036-4.323c-0.049-6.343-.082-12.714-0.082-19.147,0-6.015.033-11.974,0.082-17.907q0.021-2.513.05-5.011,0.074-7,.194-13.918c0.024-1.376.043-2.76,0.069-4.131q0.167-8.667.4-17.215c0.034-1.223.075-2.433,0.111-3.653q0.2-6.92.455-13.76,0.089-2.434.182-4.863,0.3-7.745.659-15.395c0.023-.483.042-0.973,0.065-1.456q0.4-8.306.869-16.482c0.086-1.512.177-3.016,0.266-4.523q0.378-6.376.8-12.681c0.091-1.372.178-2.75,0.272-4.116q0.549-7.993,1.16-15.876c0.076-.974.158-1.936,0.236-2.908q0.522-6.56,1.088-13.039,0.2-2.28.4-4.549,0.6-6.684,1.249-13.286c0.075-.764.145-1.538,0.221-2.3q0.759-7.611,1.582-15.1c0.149-1.364.3-2.717,0.455-4.074q0.649-5.8,1.335-11.541c0.161-1.351.32-2.707,0.485-4.053q0.9-7.333,1.846-14.563c0.1-.732.2-1.454,0.3-2.184q0.832-6.228,1.707-12.373,0.3-2.142.615-4.272,0.843-5.8,1.723-11.528c0.145-.944.285-1.9,0.432-2.838q1.08-6.93,2.215-13.75c0.205-1.237.417-2.463,0.625-3.7q0.887-5.25,1.8-10.437c0.236-1.332.47-2.666,0.709-3.991q1.2-6.678,2.453-13.262c0.1-.5.2-1,0.292-1.5q1.136-5.914,2.315-11.739,0.411-2.034.828-4.056,1.03-5.016,2.091-9.97c0.229-1.068.453-2.145,0.684-3.209q1.357-6.258,2.761-12.416c0.261-1.144.527-2.274,0.79-3.412q1.085-4.7,2.2-9.336,0.475-1.979.952-3.952,1.364-5.6,2.763-11.122,0.216-.849.432-1.7,1.435-5.609,2.913-11.125c0.349-1.309.7-2.61,1.055-3.912q1.163-4.293,2.35-8.533c0.325-1.162.647-2.331,0.975-3.488q1.586-5.594,3.211-11.1c0.321-1.087.648-2.16,0.972-3.242q1.235-4.13,2.491-8.209,0.609-1.976,1.223-3.944,1.38-4.413,2.786-8.766c0.252-.778.5-1.568,0.751-2.343q1.7-5.226,3.443-10.355c0.435-1.287.874-2.564,1.313-3.842q1.238-3.612,2.494-7.179c0.435-1.237.868-2.478,1.306-3.707q1.762-4.941,3.556-9.8c0.4-1.073.8-2.131,1.2-3.2Q82.86,480.9,84.2,477.4q0.763-1.99,1.53-3.966,1.347-3.465,2.712-6.883c0.415-1.041.825-2.092,1.242-3.127q1.841-4.568,3.712-9.051c0.537-1.289,1.078-2.565,1.618-3.844q1.25-2.961,2.511-5.888c0.558-1.3,1.116-2.592,1.678-3.877q1.792-4.1,3.606-8.132c0.56-1.244,1.125-2.471,1.688-3.706q1.334-2.923,2.678-5.816,0.939-2.013,1.882-4.007,1.263-2.671,2.538-5.311c0.584-1.211,1.165-2.431,1.752-3.632q1.923-3.937,3.87-7.805c0.659-1.311,1.322-2.607,1.985-3.907q1.192-2.34,2.393-4.656,1.041-2.007,2.086-4,1.383-2.627,2.777-5.214,1.531-2.853,3.074-5.666c0.829-1.511,1.658-3.021,2.491-4.515q1.136-2.037,2.277-4.05t2.269-3.973c0.756-1.316,1.51-2.636,2.27-3.938q1.952-3.345,3.92-6.634c0.806-1.347,1.617-2.677,2.427-4.011q1.066-1.752,2.134-3.491,1.258-2.043,2.521-4.065c0.709-1.133,1.421-2.254,2.133-3.376,0.749-1.181,1.494-2.378,2.245-3.547,34.158-58.814,91.97-126.9,189.755-186.094C472.191,69.541,670.784,4.811,978.448,4.811q10.261,0,20.354.091,10.572-.09,21.308-0.091c307.28,0,505.76,64.568,634,146.1,98.17,59.312,156.12,127.6,190.33,186.549,0.09,0.14.18,0.284,0.27,0.424q2.25,3.519,4.49,7.116c0.48,0.763.95,1.531,1.43,2.3,1.21,1.97,2.43,3.957,3.64,5.96,0.39,0.653.79,1.3,1.18,1.956q2.31,3.85,4.6,7.781c0.37,0.633.73,1.276,1.1,1.912q1.815,3.137,3.61,6.323c0.47,0.821.93,1.642,1.39,2.467q2.085,3.727,4.15,7.52c0.14,0.267.29,0.528,0.43,0.8q2.25,4.144,4.47,8.381c0.43,0.831.87,1.669,1.3,2.5,1.15,2.194,2.28,4.405,3.41,6.633,0.4,0.774.79,1.543,1.18,2.321q2.19,4.329,4.34,8.741c0.3,0.615.59,1.24,0.89,1.858q1.755,3.627,3.5,7.311,0.645,1.375,1.29,2.757c1.23,2.621,2.44,5.263,3.65,7.928,0.22,0.471.43,0.935,0.65,1.407q2.085,4.629,4.14,9.353c0.39,0.89.78,1.787,1.16,2.681q1.59,3.671,3.16,7.4c0.37,0.895.75,1.786,1.13,2.686q2.01,4.842,4,9.768c0.22,0.545.44,1.1,0.66,1.646q1.68,4.221,3.35,8.51,0.585,1.515,1.17,3.04,1.62,4.2,3.2,8.464c0.25,0.656.5,1.305,0.74,1.964q1.905,5.144,3.77,10.386c0.33,0.932.66,1.873,0.99,2.81q1.44,4.1,2.87,8.261c0.34,1.017.69,2.032,1.04,3.055q1.83,5.387,3.61,10.862c0.13,0.389.25,0.785,0.38,1.175q1.6,4.968,3.18,10.02c0.35,1.1.69,2.205,1.03,3.312q1.4,4.521,2.76,9.106c0.25,0.831.5,1.655,0.75,2.49q1.68,5.691,3.32,11.481c0.27,0.953.54,1.916,0.8,2.873q1.29,4.591,2.55,9.247c0.31,1.14.62,2.279,0.92,3.425q1.605,5.968,3.15,12.027a2.456,2.456,0,0,1,.07.261q1.515,5.957,2.99,12.024c0.28,1.184.57,2.376,0.86,3.566q1.17,4.89,2.31,9.845c0.23,1,.47,2,0.7,3q1.425,6.267,2.81,12.635c0.2,0.941.4,1.893,0.6,2.838q1.11,5.159,2.18,10.385c0.26,1.263.52,2.527,0.77,3.8q1.23,6.048,2.41,12.182c0.07,0.369.14,0.732,0.21,1.1q1.275,6.645,2.48,13.407c0.23,1.26.45,2.528,0.68,3.793q0.93,5.308,1.84,10.682c0.2,1.171.4,2.336,0.6,3.511q1.14,6.874,2.23,13.854c0.14,0.879.27,1.77,0.4,2.652q0.9,5.826,1.76,11.727c0.2,1.385.4,2.771,0.59,4.161q0.9,6.226,1.73,12.535c0.1,0.685.19,1.361,0.28,2.047q0.96,7.251,1.85,14.619c0.17,1.321.32,2.651,0.48,3.977q0.69,5.779,1.35,11.627c0.14,1.338.3,2.672,0.44,4.015q0.825,7.515,1.59,15.136c0.07,0.741.14,1.493,0.21,2.236q0.66,6.633,1.26,13.353c0.13,1.5.27,3.01,0.4,4.519q0.57,6.5,1.09,13.074c0.08,0.963.16,1.916,0.23,2.882q0.615,7.882,1.16,15.887c0.1,1.361.18,2.734,0.28,4.1q0.4,6.312.79,12.7c0.09,1.5.18,3,.27,4.515q0.465,8.189.87,16.486c0.02,0.479.04,0.966,0.06,1.445q0.36,7.65.66,15.406c0.07,1.616.12,3.238,0.18,4.861q0.255,6.84.46,13.761c0.03,1.219.08,2.429,0.11,3.652q0.24,8.547.4,17.215c0.03,1.371.05,2.755,0.07,4.13q0.12,6.921.2,13.919c0.01,1.669.03,3.336,0.05,5.011,0.05,5.933.08,11.892,0.08,17.907,0,6.433-.03,12.8-0.08,19.146C1992.19,994.917,1992.17,996.359,1992.16,997.8ZM1628.36,532.84c-20.63-10.592-45.34-9.458-72.96-13.99l-25.54-.609L1434.4,515.2c-21.53,0-60.52-.52-79.64-0.608-5.41-10.78-18.02-46.1-24.32-61.438-18.63-45.291-37.1-91.333-57.76-134.432-21.74-45.346-45.36-90.98-112.48-90.635-6.08,2.488-11.79,2.52-16.42,6.083-19.5,15-4.87,57.777,1.82,76.644,17.96,50.6,36.88,98.679,57.16,147.815q11.235,28.282,22.49,56.571c-0.2.4-.4,0.811-0.61,1.216l-63.84,1.825-74.78,3.042h-37.09c-31.22,4.713-64.419,2.8-84.511,18.248-13.242,10.183-23.2,38.23-16.416,62.046,7.462,26.189,29.237,30.508,76,25.548,50.48-5.353,111.44-5.473,167.81-5.474l73.57-.609q20.97,63.864,41.95,127.741c17.45,52.477,27.15,108.647,50.47,154.506,12.02,23.654,33.7,56.972,74.17,46.838,45.5-11.393,44.77-49.095,33.44-96.11-12.59-52.234-28.11-103.105-44.99-151.464q-13.38-39.534-26.75-79.078c5.24-.163,57.22.341,66.27,1.825l62.02,4.258c60.53,13.279,119.04,15.461,132.54-43.8C1660.47,559.557,1643.24,540.486,1628.36,532.84Zm41.8,709.72c-87.38-102.44-181.77-160.63-269.93-151.59-96.88,9.94-193.59,139.85-259.23,182.03-84.76,54.46-168.269,78.36-196,75-138.024-16.7-208.4-210.23-353.84-292.16-110.821-62.424-204.321-71.381-281.057-51.66-45.188,11.61-84.356,37.28-117.523,63.78,6.48,223.95,57.08,371.54,119.622,468.78,28.858,49.65,78.44,107.43,163.617,156.79,104.481,63.64,263.729,113.22,506.522,113.22H982.6q16.554,0.27,33.618.28c257.3,0,420.8-55.67,524.7-124.76,72.73-45.89,116.96-97.74,143.86-143.12,27.56-42.35,52.87-94.37,73.2-158.26C1733.84,1335.82,1705.17,1283.61,1670.16,1242.56Z"/>
</svg>
