<svg xmlns="http://www.w3.org/2000/svg" width="2000" height="2000" viewBox="0 0 2000 2000">
  <defs>
    <style>
      .cls-1 {
        fill: #fff;
        fill-rule: evenodd;
      }
    </style>
  </defs>
  <path id="Rounded_Rectangle_2" data-name="Rounded Rectangle 2" class="cls-1" d="M1795.48,1655.1H1566.43a693.033,693.033,0,0,1-205.31,105.12c-65.39,21.96-136.04,34.1-209.53,32.14h0A692.319,692.319,0,0,1,736.755,1655.1H204.939A201.847,201.847,0,0,1,3.094,1453.26V791.2c0-111.476,90.369-201.845,201.845-201.845h90.83V515.686a80.738,80.738,0,0,1,80.738-80.738H534.956a80.738,80.738,0,0,1,80.738,80.738v73.673H676.4C800.725,472.937,967.832,401.648,1151.59,401.648s350.87,71.289,475.2,187.711h168.69A201.847,201.847,0,0,1,1997.32,791.2V1453.26C1997.32,1564.73,1906.95,1655.1,1795.48,1655.1ZM203.425,688.263a92.344,92.344,0,1,0,92.344,92.344A92.344,92.344,0,0,0,203.425,688.263ZM1151.59,554.148c-299.806,0-542.85,243.044-542.85,542.852s243.044,542.86,542.85,542.86,542.86-243.05,542.86-542.86S1451.4,554.148,1151.59,554.148Zm110.2,993.922a457.42,457.42,0,0,1-110.2,11.74,457.473,457.473,0,0,1-110.2-11.74c-89.611-20.84-164.191-66.17-221.91-122.34-34.654-32.15-64.351-69.09-87.131-109.94a422.113,422.113,0,0,1-27.821-61.8,498.247,498.247,0,0,1-34.206-167.88c-0.155-2.04-.26-4.1-0.26-6.19,0-.61.033-1.22,0.047-1.84-0.01-.58-0.04-1.16-0.047-1.75l0.091-.01A80.831,80.831,0,0,1,750.916,999.1c0.207,0,.411.013,0.618,0.014s0.385-.014.58-0.014c104.094,0,73.923,111.136,100.019,184.986,18.148,51.35,47.192,96.54,84.619,131.85,48,43.07,109.868,73.35,178.908,81.27a308.508,308.508,0,0,0,71.87,0c69.03-7.92,130.9-38.2,178.9-81.27,37.43-35.31,66.47-80.5,84.62-131.85,26.1-73.85-4.07-184.986,100.02-184.986,0.19,0,.39.013,0.58,0.014,0.21,0,.41-0.014.62-0.014a80.83,80.83,0,0,1,80.76,77.216l0.09,0.01c-0.01.59-.04,1.17-0.04,1.75,0.01,0.62.04,1.23,0.04,1.84,0,2.09-.1,4.15-0.26,6.19a498.217,498.217,0,0,1-34.2,167.88,422.547,422.547,0,0,1-27.83,61.8c-22.77,40.85-52.47,77.79-87.13,109.94C1425.98,1481.9,1351.4,1527.23,1261.79,1548.07Z"/>
</svg>
