<svg xmlns="http://www.w3.org/2000/svg" width="2000" height="2000" viewBox="0 0 2000 2000">
  <defs>
    <style>
      .cls-1 {
        fill: #fff;
        fill-rule: evenodd;
      }
    </style>
  </defs>
  <path id="JUL" class="cls-1" d="M1990.18,998.692c0,0.339-.01.672-0.01,1.011q0.12,12.1.13,24.417c0,311.29-66.42,510.64-149.52,638.32-32.99,55.67-87.25,119.26-176.45,175.55-127.44,84.73-327.97,153.02-643.55,153.02q-20.94,0-41.235-.35h-0.321c-297.79,0-493.11-60.81-621.258-138.86-104.472-60.55-165.285-131.41-200.68-192.31C75.088,1531.68,9.7,1333,9.7,1024.12q0-12.33.131-24.417c0-.339-0.01-0.671-0.013-1.01q-0.02-2.151-.036-4.312C9.731,988.056,9.7,981.7,9.7,975.287c0-6,.033-11.942.082-17.859,0.014-1.671.032-3.334,0.05-5q0.074-6.978.194-13.88c0.024-1.372.043-2.753,0.069-4.12q0.167-8.644.4-17.168c0.034-1.22.075-2.427,0.111-3.643q0.2-6.9.453-13.723,0.089-2.428.182-4.85,0.3-7.724.657-15.353c0.023-.482.042-0.971,0.065-1.452q0.4-8.284.867-16.437c0.086-1.509.177-3.008,0.265-4.511q0.377-6.36.794-12.647c0.091-1.368.178-2.742,0.272-4.1q0.548-7.971,1.156-15.832c0.076-.972.158-1.932,0.235-2.9q0.52-6.542,1.085-13,0.2-2.272.4-4.537,0.6-6.666,1.245-13.249c0.075-.762.145-1.534,0.221-2.3q0.757-7.591,1.578-15.061c0.148-1.36.3-2.709,0.454-4.063q0.648-5.788,1.331-11.51c0.161-1.347.32-2.7,0.483-4.042q0.893-7.312,1.84-14.524c0.1-.73.2-1.449,0.3-2.177q0.83-6.213,1.7-12.34,0.3-2.136.613-4.261,0.84-5.784,1.718-11.5c0.145-.941.285-1.892,0.431-2.83q1.077-6.912,2.209-13.713c0.2-1.234.416-2.457,0.623-3.686q0.885-5.235,1.8-10.409c0.235-1.328.469-2.659,0.707-3.981q1.2-6.658,2.447-13.225c0.1-.5.2-0.993,0.291-1.492q1.133-5.9,2.309-11.707,0.41-2.03.826-4.046,1.027-5,2.085-9.942c0.228-1.066.452-2.139,0.682-3.2q1.353-6.242,2.754-12.382c0.26-1.14.525-2.268,0.788-3.4q1.082-4.683,2.191-9.31c0.316-1.316.631-2.633,0.949-3.942q1.36-5.585,2.756-11.092c0.143-.564.286-1.13,0.431-1.693q1.431-5.594,2.9-11.1,0.523-1.958,1.052-3.9,1.16-4.281,2.344-8.51c0.324-1.159.646-2.325,0.973-3.478q1.582-5.58,3.2-11.069c0.32-1.085.647-2.155,0.969-3.234q1.231-4.117,2.484-8.186,0.608-1.972,1.219-3.934,1.376-4.4,2.778-8.742c0.251-.776.5-1.564,0.749-2.337q1.7-5.211,3.433-10.326c0.434-1.284.872-2.557,1.309-3.833q1.235-3.6,2.487-7.16c0.434-1.232.866-2.47,1.3-3.7q1.758-4.928,3.546-9.777c0.4-1.071.8-2.125,1.195-3.19q1.32-3.531,2.656-7.022,0.76-1.984,1.526-3.955,1.343-3.454,2.7-6.864c0.414-1.038.823-2.087,1.239-3.119q1.836-4.554,3.7-9.026c0.535-1.285,1.075-2.558,1.613-3.834q1.246-2.954,2.5-5.872c0.557-1.292,1.113-2.585,1.673-3.867q1.787-4.086,3.595-8.109c0.559-1.241,1.123-2.465,1.684-3.7q1.331-2.916,2.671-5.8,0.936-2.007,1.876-4,1.261-2.664,2.532-5.3c0.582-1.208,1.162-2.424,1.747-3.623q1.918-3.927,3.859-7.784c0.657-1.307,1.319-2.6,1.98-3.895q1.19-2.334,2.387-4.644,1.038-2,2.08-3.989c0.919-1.747,1.844-3.476,2.77-5.2q1.527-2.846,3.065-5.65c0.827-1.507,1.653-3.012,2.484-4.5q1.132-2.031,2.271-4.039,1.128-1.992,2.263-3.962c0.754-1.312,1.506-2.629,2.264-3.927q1.946-3.338,3.909-6.616c0.8-1.344,1.613-2.67,2.421-4q1.062-1.749,2.128-3.483,1.254-2.036,2.514-4.053c0.707-1.13,1.417-2.248,2.127-3.367,0.747-1.178,1.49-2.371,2.239-3.537,34.066-58.655,91.72-126.558,189.24-185.59C474.343,72.95,672.4,8.395,979.224,8.395c6.823,0,13.578.036,20.3,0.091q10.54-.09,21.257-0.091c306.44,0,504.38,64.393,632.27,145.7,97.9,59.151,155.7,127.257,189.81,186.043,0.09,0.14.18,0.283,0.27,0.423q2.25,3.51,4.48,7.1c0.48,0.761.95,1.527,1.42,2.292q1.83,2.948,3.64,5.944c0.39,0.651.78,1.3,1.18,1.951q2.3,3.84,4.58,7.76c0.37,0.632.73,1.272,1.1,1.907q1.815,3.128,3.6,6.306c0.46,0.818.93,1.637,1.39,2.461q2.07,3.717,4.13,7.5c0.15,0.266.29,0.527,0.44,0.793q2.235,4.132,4.45,8.358c0.43,0.829.87,1.664,1.3,2.5q1.71,3.282,3.4,6.615c0.39,0.772.79,1.539,1.18,2.314q2.175,4.319,4.32,8.718c0.3,0.614.6,1.237,0.89,1.853q1.755,3.617,3.49,7.292,0.645,1.371,1.29,2.749,1.83,3.921,3.64,7.906c0.21,0.47.43,0.933,0.64,1.4q2.085,4.617,4.14,9.328c0.38,0.886.77,1.781,1.15,2.673q1.59,3.662,3.15,7.376c0.38,0.893.75,1.781,1.13,2.679q2.01,4.828,3.99,9.742c0.22,0.543.44,1.1,0.65,1.64,1.13,2.807,2.24,5.637,3.35,8.488q0.585,1.512,1.17,3.032,1.605,4.188,3.19,8.441c0.24,0.654.49,1.3,0.73,1.958q1.9,5.132,3.76,10.358c0.33,0.93.66,1.868,0.99,2.8q1.44,4.092,2.86,8.239c0.35,1.015.7,2.027,1.04,3.046,1.21,3.582,2.42,7.188,3.6,10.834,0.13,0.388.25,0.783,0.38,1.171q1.6,4.955,3.17,9.993c0.35,1.1.69,2.2,1.03,3.3,0.93,3.006,1.84,6.033,2.75,9.081,0.25,0.83.5,1.651,0.75,2.484q1.68,5.674,3.31,11.449c0.27,0.951.53,1.911,0.8,2.866,0.86,3.053,1.7,6.127,2.54,9.222,0.31,1.137.62,2.273,0.92,3.415q1.59,5.954,3.14,12c0.02,0.086.05,0.174,0.07,0.26q1.515,5.942,2.98,11.992c0.28,1.181.57,2.369,0.85,3.556q1.17,4.877,2.31,9.818c0.23,1,.47,1.993.7,3q1.425,6.25,2.8,12.6c0.2,0.938.4,1.887,0.6,2.829q1.11,5.145,2.18,10.358c0.25,1.259.51,2.519,0.77,3.785q1.215,6.032,2.39,12.149c0.07,0.368.15,0.73,0.22,1.1q1.26,6.627,2.47,13.371c0.23,1.256.45,2.521,0.67,3.783q0.945,5.293,1.85,10.653c0.19,1.167.39,2.329,0.59,3.5q1.14,6.856,2.22,13.816c0.14,0.877.27,1.766,0.41,2.646q0.885,5.809,1.74,11.695c0.21,1.38.4,2.763,0.6,4.15q0.885,6.209,1.73,12.5c0.09,0.683.18,1.358,0.27,2.042q0.96,7.23,1.85,14.579c0.16,1.317.32,2.644,0.48,3.967q0.69,5.763,1.34,11.6c0.15,1.335.3,2.664,0.44,4q0.825,7.494,1.59,15.095c0.07,0.739.14,1.489,0.21,2.23q0.645,6.615,1.25,13.316c0.14,1.5.27,3,.4,4.508q0.57,6.478,1.09,13.038c0.08,0.961.16,1.911,0.23,2.874q0.615,7.861,1.16,15.844c0.09,1.358.18,2.727,0.27,4.089q0.42,6.3.79,12.663c0.09,1.5.18,3,.27,4.5q0.465,8.166.87,16.441c0.02,0.478.04,0.963,0.06,1.441q0.36,7.629.66,15.364,0.09,2.418.18,4.848,0.255,6.822.45,13.723c0.04,1.217.08,2.423,0.11,3.643q0.24,8.523.41,17.168c0.02,1.368.04,2.748,0.07,4.119q0.12,6.9.19,13.881c0.02,1.665.04,3.327,0.05,5,0.05,5.916.08,11.859,0.08,17.859,0,6.415-.03,12.769-0.08,19.094C1990.21,995.82,1990.2,997.258,1990.18,998.692ZM815.855,196.774H630.391V262.6H742.034V431.2q0,58.23-45.113,58.226a57.067,57.067,0,0,1-31.67-9.62q-14.814-9.612-27.569-28.86L596.67,505.122A114.563,114.563,0,0,0,641.1,543.856q27.106,13.409,59.468,13.417,56.5,0,85.9-32.4t29.392-98.226V196.774Zm362.715,0h-72.45V392.72q0,50.125-18.68,72.656t-52.41,22.531q-33.27,0-51.945-22.531Q964.4,442.854,964.4,392.72V196.774H890.125V394.745q0,78.487,38.278,120.5t106.177,42.024q67.425,0,105.72-42.024t38.27-120.5V196.774Zm311.24,287.589H1330.77V196.774h-74.28V551.2h233.32V484.363Zm315.31,514.516q0.015-1.749.03-3.506c0.04-5.143.06-10.309,0.06-15.525q0-7.317-.06-14.521c-0.01-1.359-.03-2.711-0.04-4.064-0.04-3.783-.1-7.545-0.16-11.286-0.02-1.116-.03-2.238-0.06-3.35q-0.135-7.027-.32-13.959c-0.03-.992-0.06-1.973-0.09-2.962-0.11-3.741-.24-7.46-0.37-11.159q-0.075-1.974-.15-3.941-0.24-6.285-.53-12.493c-0.02-.389-0.04-0.783-0.06-1.172q-0.315-6.736-.7-13.368c-0.07-1.225-.14-2.442-0.22-3.661-0.2-3.452-.42-6.884-0.64-10.3-0.08-1.108-.15-2.221-0.22-3.325q-0.45-6.486-.94-12.883c-0.07-.783-0.13-1.556-0.19-2.337-0.29-3.555-.58-7.089-0.89-10.6-0.11-1.224-.21-2.446-0.32-3.665q-0.495-5.448-1.02-10.828c-0.06-.6-0.12-1.212-0.18-1.813q-0.615-6.186-1.28-12.274c-0.12-1.089-.24-2.17-0.36-3.255q-0.54-4.741-1.09-9.428c-0.13-1.076-.26-2.155-0.39-3.226q-0.735-5.969-1.5-11.854c-0.08-.556-0.15-1.1-0.23-1.66q-0.675-5.118-1.4-10.164c-0.16-1.128-.32-2.252-0.49-3.375q-0.69-4.785-1.42-9.509c-0.11-.715-0.21-1.438-0.33-2.151-0.58-3.775-1.19-7.517-1.8-11.234-0.16-.953-0.33-1.9-0.49-2.847q-0.735-4.357-1.49-8.662c-0.19-1.026-.37-2.054-0.55-3.076q-0.99-5.475-2.01-10.872c-0.06-.3-0.12-0.594-0.18-0.893q-0.945-4.978-1.94-9.879-0.315-1.543-.63-3.077-0.87-4.239-1.77-8.422c-0.16-.766-0.32-1.538-0.49-2.3q-1.125-5.164-2.28-10.246c-0.18-.816-0.37-1.623-0.56-2.436q-0.93-4.017-1.88-7.983c-0.23-.965-0.46-1.931-0.7-2.892-0.33-1.376-.68-2.729-1.01-4.1H228.225c-0.327,1.322-.661,2.631-0.984,3.961q-0.389,1.6-.772,3.205-0.9,3.76-1.782,7.57c-0.213.923-.429,1.84-0.64,2.767q-1.138,4.993-2.239,10.068c-0.187.863-.37,1.736-0.555,2.6q-0.859,4.017-1.695,8.084-0.337,1.641-.672,3.289-0.954,4.726-1.877,9.519c-0.078.406-.159,0.806-0.237,1.213q-1.017,5.331-1.989,10.754c-0.194,1.075-.384,2.157-0.575,3.237q-0.745,4.206-1.464,8.463c-0.169,1-.34,1.994-0.507,3q-0.919,5.533-1.8,11.15c-0.119.763-.233,1.536-0.35,2.3q-0.714,4.644-1.4,9.347-0.252,1.728-.5,3.464-0.709,4.985-1.384,10.034c-0.079.592-.162,1.177-0.241,1.77q-0.772,5.857-1.5,11.81c-0.134,1.091-.263,2.19-0.393,3.286q-0.556,4.652-1.083,9.359c-0.123,1.1-.248,2.2-0.369,3.3q-0.665,6.081-1.282,12.246c-0.062.619-.119,1.247-0.18,1.867q-0.525,5.351-1.013,10.773-0.165,1.84-.326,3.689-0.459,5.255-.883,10.573c-0.062.788-.129,1.568-0.19,2.359q-0.5,6.387-.941,12.873c-0.076,1.108-.147,2.225-0.221,3.338q-0.339,5.112-.646,10.283c-0.072,1.222-.146,2.441-0.215,3.668q-0.378,6.637-.7,13.364c-0.019.392-.034,0.79-0.053,1.182q-0.293,6.2-.534,12.483-0.078,1.966-.148,3.944-0.2,5.547-.369,11.158c-0.029.988-.063,1.97-0.09,2.962q-0.192,6.93-.327,13.959c-0.021,1.112-.037,2.234-0.056,3.35q-0.1,5.611-.157,11.286c-0.015,1.353-.03,2.7-0.041,4.064-0.04,4.811-.067,9.643-0.067,14.521,0,5.216.027,10.382,0.067,15.525q0.013,1.755.029,3.507c0,0.275.008,0.545,0.01,0.82q-0.1,9.84-.106,19.85c0,251.15,53.169,412.7,120,516.62,28.779,49.52,78.227,107.14,163.173,156.37,104.2,63.46,263.012,112.91,505.145,112.91h0.261q16.508,0.27,33.522.28c256.6,0,419.66-55.52,523.27-124.42,72.54-45.77,116.65-97.48,143.48-142.73,67.57-103.83,121.57-265.92,121.57-519.03q0-10.02-.1-19.85C1805.11,999.425,1805.12,999.154,1805.12,998.879ZM1195.31,1652.33H1034.16V1478.01H618.752V1345.59L979.584,806.16H1165.47L831.745,1317.45l202.415,0.08V1161.24h161.15v156.35l133.08,0.05v160.37H1195.31v174.32Z"/>
</svg>
