<svg xmlns="http://www.w3.org/2000/svg" width="2000" height="2000" viewBox="0 0 2000 2000">
  <defs>
    <style>
      .cls-1 {
        fill: #fff;
        fill-rule: evenodd;
      }
    </style>
  </defs>
  <path id="_" data-name="#" class="cls-1" d="M324.064,1501.42l-95.859,346.57q27.016,34.455,90.943,51.62,63.886,17.16,132.727,7.37L564.94,1501.42h587.44l-95.86,349.03q34.395,34.44,100.78,51.61,66.36,17.175,122.9,7.38l110.6-408.02h390.81q9.8-41.76,11.06-99.54,1.215-57.735-11.06-97.09H1444.88l145.01-526h376.07q9.78-41.766,11.06-99.546,1.2-57.723-11.06-97.088H1643.97l117.98-432.595q-31.98-31.914-98.32-49.158-66.36-17.167-120.44-7.374L1408.01,582.159h-589.9L938.544,147.106q-31.972-31.914-98.317-49.158-66.363-17.167-120.438-7.374L582.145,582.159H218.373q-12.328,51.617-11.061,97.088,1.21,45.51,11.061,99.546h309.7l-147.475,526H34.029q-12.328,51.615-11.061,97.09,1.21,45.51,11.061,99.54H324.064ZM764.032,778.793h589.9l-147.47,526H619.014Z"/>
</svg>
