<svg xmlns="http://www.w3.org/2000/svg" width="2000" height="2000" viewBox="0 0 2000 2000">
  <defs>
    <style>
      .cls-1 {
        fill: #fff;
        fill-rule: evenodd;
      }
    </style>
  </defs>
  <path id="map" class="cls-1" d="M1930.75,233.469q20.535,0,37.64,15.4t17.11,39.352V1472.18q0,34.215-18.82,61.59a116.375,116.375,0,0,1-49.62,41.07L1396.94,1756.2q-68.43,20.52-136.87,0L671.508,1547.46,89.793,1763.04a64.618,64.618,0,0,1-20.531,3.42q-20.531,0-37.64-15.4t-17.109-39.35V527.749q0-34.22,18.82-61.594a116.353,116.353,0,0,1,49.617-41.062L603.071,243.735a233.246,233.246,0,0,1,136.874,0L1328.5,452.468l581.72-215.577A64.588,64.588,0,0,1,1930.75,233.469ZM781.008,431.937V1410.59l438,157.4V589.342ZM178.761,1554.31l438-160.83V414.828l-438,150.561V1554.31ZM1821.25,1434.54V445.624l-438,160.828V1585.1Z"/>
</svg>
