<svg xmlns="http://www.w3.org/2000/svg" width="2000" height="2000" viewBox="0 0 2000 2000">
  <defs>
    <style>
      .cls-1 {
        fill: #fff;
        fill-rule: evenodd;
      }
    </style>
  </defs>
  <path id="Shape_368_1" data-name="Shape 368 1" class="cls-1" d="M1402.35,5.424c208.06-2.759,311.02,112.494,359.28,270.62,19.79,70.783,47.47,166.9-11.47,240.7-50.28,62.971-304.23,119-304.23,119s-408.89,99.165-634.718,159.525v1.146l645.458,1.146c417.42,0,406.99,109.664,406.99,414.92v264.77c0,223.74,31.52,515.29-487.06,515.29-76.7,1.62-507.507-2.51-637.615-2.94-422.573,0-545.467-52.7-545.467-417.33,0-132.2-1.4-253.83-1.4-383.86v-315.2c-22.337-106.959-83.5-241.125-43.565-369.073,63.462-203.346,224.032-227.075,427.63-287.693C694.816,181.728,976.074,114.391,1172.35,55.976,1259.36,33.117,1338.63,9.793,1402.35,5.424Zm-0.71,142.247c-23.36,0-43.03,6.113-49.3,9.169q-21.21,178.788-42.42,357.611l249.93-67.625c97.07-29.029,97.65-28.212,65.35-126.081C1593.91,218.938,1534.36,146.736,1401.64,147.671Zm-201.78,49.286Q975.76,257.7,751.6,318.453,730.389,496.1,709.177,673.771q225.256-59.595,450.563-119.2,21.78-178.788,43.56-357.611h-3.44ZM494.788,386.078C373.7,423.856,248.4,477.649,284.986,651.994l29.808,127.227h3.439l241.9-64.187c14.138-119.191,42.419-357.611,42.419-357.611S588.12,356.732,494.788,386.078ZM335.43,939.687V1338.56q1.146,103.725,2.293,207.46,1.146,31.515,2.293,63.04c0,139.46,16.053,237.26,387.5,237.26h632.85c369.93-5.13,359.98-99.55,359.99-391.99V1222.8c0-287.987,12.63-283.12-418.46-283.113H335.43Z"/>
</svg>
