<svg xmlns="http://www.w3.org/2000/svg" width="2000" height="2000" viewBox="0 0 2000 2000">
  <defs>
    <style>
      .cls-1 {
        fill: #fff;
        fill-rule: evenodd;
      }
    </style>
  </defs>
  <path id="aria_icon_square_1" data-name="aria+ icon square 1" class="cls-1" d="M1479.24,1985.17H519.766c-278.862,0-504.924-226.06-504.924-504.92V520.771c0-278.862,226.063-504.924,504.924-504.924H1479.24c278.87,0,504.93,226.063,504.93,504.924V1480.25C1984.17,1759.11,1758.11,1985.17,1479.24,1985.17ZM1808.23,568.124c0-206.358-167.28-373.644-373.64-373.644H556.331c-206.358,0-373.644,167.286-373.644,373.644V1446.38c0,206.36,167.286,373.65,373.644,373.65H1434.59c206.36,0,373.64-167.29,373.64-373.65V568.124ZM1509.63,1189.8c-20.7-20.92-18.95-54.81-18.48-57.75l0.77-200.695s-333.17,337.135-343.66,347.765a72.958,72.958,0,0,1-98.79-.78L773.045,998.916,497.212,1277.74a64.988,64.988,0,0,1-92.622,0,66.706,66.706,0,0,1,0-93.62L724.554,860.68a71.253,71.253,0,0,1,97.571.6L1099.37,1141.53,1399.6,838.038l-200.85-.076c-30.07-.012-44.91-8.166-55.81-19.188a67.932,67.932,0,0,1-.04-95.346c15.18-15.343,33.34-19.174,55.63-19.165l242.03,1.878s73.89,3.106,124,53.755,55.04,130.992,55.04,130.992l1.8,241.442c0,13.06,3.01,35.77-18.49,57.51A65.456,65.456,0,0,1,1509.63,1189.8Zm-361.37,89.32,0.02-.02C1147.92,1279.47,1147.92,1279.47,1148.26,1279.12Z"/>
</svg>
