<svg xmlns="http://www.w3.org/2000/svg" width="2000" height="2000" viewBox="0 0 2000 2000">
  <defs>
    <style>
      .cls-1 {
        fill: #fff;
        fill-rule: evenodd;
      }
    </style>
  </defs>
  <path id="arrow_1" data-name="arrow 1" class="cls-1" d="M1480.18,1978H522.818c-278.247,0-503.811-225.57-503.811-503.81V516.823c0-278.247,225.564-503.811,503.811-503.811H1480.18c278.25,0,503.81,225.564,503.81,503.811V1474.19C1983.99,1752.43,1758.43,1978,1480.18,1978ZM1808.45,564.072c0-205.9-166.92-372.82-372.82-372.82H559.3c-205.9,0-372.82,166.917-372.82,372.82V1440.39c0,205.91,166.917,372.82,372.82,372.82H1435.63c205.9,0,372.82-166.91,372.82-372.82V564.072ZM765.467,463.426l438.143,3.257s133.75,5.53,224.43,96.21,99.59,234.557,99.59,234.557l3.14,432.37c0.01,23.4,5.45,64.07-33.48,103a119.392,119.392,0,0,1-168.86-.02c-37.46-37.46-34.28-98.15-33.44-103.41l1.48-359.414S653.255,1513.87,674.253,1492.87a118.521,118.521,0,0,1-167.618-167.61c1.872-1.87,3.807-3.64,5.769-5.36l617-617-363.6-.048c-54.428-.007-81.289-14.6-101.022-34.336a120.738,120.738,0,0,1-.023-170.748C692.24,470.289,725.118,463.421,765.467,463.426Z"/>
</svg>
