<svg xmlns="http://www.w3.org/2000/svg" width="3840" height="2160" viewBox="0 0 3840 2160">
  <defs>
    <style>
      .cls-1 {
        fill: #fff;
        fill-rule: evenodd;
      }
    </style>
  </defs>
  <rect width="3840" height="2160"/>
  <path id="Shape_346_1" data-name="Shape 346 1" class="cls-1" d="M1833.67,627c32.71,1.446,61.05,9.621,74.35,38.148,23.52,70.431,3.41,136.229-91.14,128.413-47.34-5.571-73.5-36.3-65.21-93.61,2.56-17.7,3.49-30.037,10.98-41.963,10.37-16.512,28.78-25.657,51.65-29.7Zm-830.25,18.722h194.32q81.345,392.8,162.7,785.678H1201.62c-0.22-.43-0.43-0.86-0.65-1.29q-17.1-89.085-34.22-178.18H1016.97L979.528,1431.4H822l0.645-1.29Q913.022,1037.95,1003.42,645.722Zm1410,513.238q0.33,94.89.65,189.81,3.87,41.31,7.74,82.63H2310.77c-9.59,0-27.24,2.56-34.22-1.29q-4.2-27.435-8.39-54.88h-3.23c-37.06,52.84-122.28,87.28-203.37,51.01-52.19-23.35-80.47-73.62-90.38-140.1-3.94-26.42,1.72-56.3,7.75-76.18,33.88-111.66,141.59-145.2,269.86-162.68-0.45-89.073-83.18-94.647-158.82-71.018-18.48,5.774-34.3,15.459-51,22.6q-14.85-51.642-29.7-103.294c66.04-39.37,228.92-64.689,308.6-19.368,56.47,32.119,85.97,84.876,93.61,165.914l118.15-3.87q-45.51-117.165-91.03-234.349c-7.73-24.587-24.85-72.052,3.23-88.446,31.56-12.3,78.37,6.522,100.71,33.571,19.06,19.672,36.45,54.291,50.36,85.863q27.1,63.584,54.23,127.18,14.2,37.118,28.41,74.241l127.83,2.58c35.93,1.3,69.52,2.04,107.81,3.88s99.39,5.55,107.17,55.52c2.86,18.37-4.36,33.1-10.97,42.61-30.49,43.8-80.41,36.02-140.74,26.47q-37.77-2.91-75.54-5.81-34.86-1.3-69.72-2.59,15.48,45.84,30.98,91.68c18.62,53.56,32.41,108.53,48.42,164.62,13.91,48.69,17.69,97.53-28.4,113.62-46.69,16.31-76.11-19.41-90.39-47.12-26.14-50.74-37.42-112.43-56.81-171.08q-25.17-76.83-50.36-153.65Q2494.135,1157.99,2413.42,1158.96ZM1093.8,790.333q-20.655,120.712-41.32,241.447-9.675,50.685-19.37,101.36h118.8q-6.465-38.085-12.92-76.18-20.655-132.977-41.32-265.981c-0.21-.215-0.43-0.43-0.64-0.646h-3.23Zm621.72,215.627c-141.19-4.83-140.1,77.9-140.1,214.98V1431.4H1412.73V981.427q-2.265-60.033-4.52-120.079l140.1,0.645q4.185,41.637,8.39,83.281h5.17c14.4-43.37,47.19-79.745,94.9-90.382,5.95-1.326,55.62-4.466,58.75,0V1005.96Zm39.38-144.612h162.69V1431.4H1754.9V861.348Zm491.31,302.132q-17.43,1.62-34.86,3.23c-33.22,7.01-63.84,21.83-79.41,46.48-11.9,13.57-15.55,90.29,20.01,108.46,9.27,5.59,25.22,8.83,40.03,6.46,55.21-8.87,61.33-45.88,61.33-110.4q-0.315-27.105-.65-54.23h-6.45Z"/>
</svg>
