<svg xmlns="http://www.w3.org/2000/svg" width="3840" height="2160" viewBox="0 0 3840 2160">
  <defs>
    <style>
      .cls-1 {
        fill: #fff;
        fill-rule: evenodd;
      }
    </style>
  </defs>
  <rect width="3840" height="2160"/>
  <path id="ORIGINALS" class="cls-1" d="M2901.06,1250.16q13.035,3.84,28.97,7.65a298.877,298.877,0,0,1,31.52,9.46,134.435,134.435,0,0,1,28.61,14.29,65.713,65.713,0,0,1,21.19,23.35q8.16,14.7,8.15,36.44a83.287,83.287,0,0,1-11.77,43.47q-11.775,19.74-35.68,31.81t-59.77,12.07a189.217,189.217,0,0,1-58.49-9.06q-28.08-9.045-45.1-23.55l19.92-49.11q15.945,12.885,38.4,21.14a130.417,130.417,0,0,0,45.27,8.25q17.4,0,28.08-4.03t15.75-10.67a24.792,24.792,0,0,0,5.07-15.49q0-11.265-7.96-17.92-7.98-6.645-21.19-10.87-13.23-4.23-28.8-8.05t-31.33-9.26a120.181,120.181,0,0,1-28.98-14.49,65.3,65.3,0,0,1-21.01-23.75q-7.785-14.685-7.79-36.84a86.068,86.068,0,0,1,11.59-44.08q11.6-19.92,35.32-31.8,23.715-11.865,59.59-11.88a177.327,177.327,0,0,1,47.27,6.45q23.355,6.435,40.75,18.51l-18.48,49.12a140.054,140.054,0,0,0-35.13-16.31,121.043,121.043,0,0,0-34.78-5.43q-17.385,0-27.89,4.23-10.5,4.215-15.39,11.47a28.155,28.155,0,0,0-4.89,16.1q0,11.28,7.97,18.12T2901.06,1250.16ZM2799.34,736.12h191.61v52.333h-133.3v60.788h117.73v51.125H2857.65v65.216h138.01v52.338H2799.34V736.12Zm-203.2,281.8-109.76-281.8h63.75l77.12,201.267,78.28-201.267h58.31l-109.75,281.8h-57.95Zm-207.91-281.8h59.04v281.8h-59.04V736.12Zm138.66,687.75h-61.58l-22.59-60.38H2325.27l-22.59,60.38h-60.13l112.65-281.79h57.95Zm-183.09-109.9h80.39l-40.2-107.42Zm-57.71-303.3q-23.91,12.075-59.77,12.08a189.234,189.234,0,0,1-58.5-9.06q-28.08-9.06-45.1-23.551l19.93-49.113q15.93,12.888,38.39,21.134a130.384,130.384,0,0,0,45.28,8.253q17.385,0,28.07-4.026t15.76-10.668a24.82,24.82,0,0,0,5.07-15.5q0-11.265-7.97-17.914t-21.19-10.869q-13.23-4.227-28.8-8.051t-31.33-9.259a120.7,120.7,0,0,1-28.98-14.493,65.352,65.352,0,0,1-21-23.751q-7.8-14.691-7.79-36.835a86.053,86.053,0,0,1,11.59-44.081q11.58-19.926,35.32-31.8,23.715-11.87,59.58-11.876a177.261,177.261,0,0,1,47.27,6.441q23.37,6.444,40.75,18.518l-18.47,49.113a140.15,140.15,0,0,0-35.14-16.3,120.939,120.939,0,0,0-34.77-5.435q-17.385,0-27.89,4.227T2191,799.322a28.167,28.167,0,0,0-4.89,16.1q0,11.276,7.97,18.116t21.01,10.668q13.035,3.829,28.98,7.648a295.9,295.9,0,0,1,31.51,9.461,134.424,134.424,0,0,1,28.62,14.291,65.815,65.815,0,0,1,21.19,23.348q8.145,14.7,8.15,36.433a83.224,83.224,0,0,1-11.78,43.477Q2309.985,998.6,2286.09,1010.67Zm-330.71,12.08q-53.97,0-84.4-33.417t-30.42-95.81V736.12h59.04V891.913q0,39.853,14.85,57.768t41.29,17.914q26.8,0,41.66-17.914t14.85-57.768V736.12h57.59v157.4q0,62.4-30.42,95.81T1955.38,1022.75Zm-60.92,401.12h-59.04V1142.08h59.04v281.79ZM1612.72,736.12h59.04V964.777h126.42v53.143H1612.72V736.12ZM1420.75,942.233a75.8,75.8,0,0,0,25.72,18.72,78.913,78.913,0,0,0,32.6,6.642,72.705,72.705,0,0,0,34.95-8.655q16.11-8.652,28.8-25.161l38.03,38.647a119.387,119.387,0,0,1-44.92,37.434q-26.805,12.885-60.12,12.89a138.32,138.32,0,0,1-54.52-10.67,127.031,127.031,0,0,1-43.65-30.4,142.368,142.368,0,0,1-28.79-46.295q-10.32-26.569-10.32-58.372t10.32-58.372a140.721,140.721,0,0,1,28.98-46.295,128.873,128.873,0,0,1,43.82-30.394,138.389,138.389,0,0,1,54.52-10.668q32.955,0,59.76,12.681a117.776,117.776,0,0,1,44.92,37.237l-38.03,38.646q-12.69-16.5-28.8-24.959a74.135,74.135,0,0,0-34.95-8.454,78.9,78.9,0,0,0-32.6,6.643,75.793,75.793,0,0,0-25.72,18.719,85.794,85.794,0,0,0-16.84,28.582,115.2,115.2,0,0,0,0,73.267A85.724,85.724,0,0,0,1420.75,942.233Zm-81.14,75.687h-67.73l-61.12-97.934-60.23,97.934h-67.01l93.34-143.495-88.63-138.3h66.29l58.12,90.893,57.43-90.893h63.39L1245.03,872.2Zm-241.66,265.05q0,31.41-10.32,58.17a138.794,138.794,0,0,1-29.16,46.5,130.645,130.645,0,0,1-44.01,30.39q-25.182,10.665-54.877,10.67-30.071,0-55.42-10.87a132.61,132.61,0,0,1-44.191-30.59,139.215,139.215,0,0,1-29.159-46.3q-10.323-26.565-10.323-57.97,0-31.785,10.323-58.17a139.813,139.813,0,0,1,29.159-46.09,133.26,133.26,0,0,1,44.01-30.6q25.172-10.86,55.238-10.87t55.24,10.67a130.959,130.959,0,0,1,44.01,30.4,139.37,139.37,0,0,1,29.16,46.29Q1097.95,1251.165,1097.95,1282.97Zm-65.38-36.43a88.741,88.741,0,0,0-16.84-28.58,76.43,76.43,0,0,0-25.178-18.92,73.479,73.479,0,0,0-31.332-6.64,74.654,74.654,0,0,0-31.513,6.64,73.91,73.91,0,0,0-25.174,18.92,90.5,90.5,0,0,0-16.662,28.58q-5.978,16.305-5.977,36.43,0,20.145,5.977,36.44a90.612,90.612,0,0,0,16.662,28.58,73.782,73.782,0,0,0,25.174,18.92,74.654,74.654,0,0,0,31.513,6.64,73.479,73.479,0,0,0,31.332-6.64,76.294,76.294,0,0,0,25.178-18.92,88.848,88.848,0,0,0,16.84-28.58A113.986,113.986,0,0,0,1032.57,1246.54ZM857.136,736.12H1048.75v52.333h-133.3v60.788H1033.18v51.125H915.454v65.216H1053.46v52.338H857.136V736.12Zm460.684,418.23a88.959,88.959,0,0,1,38.03,35.23q13.395,22.95,13.4,54.34,0,31.815-13.4,54.55a86.735,86.735,0,0,1-38.03,34.62c-0.12.06-.24,0.11-0.36,0.17l56.5,90.61h-63.03l-49.21-78.93c-0.86.01-1.71,0.03-2.58,0.03h-50.71v78.9h-59.05V1142.08h109.76Q1293.175,1142.08,1317.82,1154.35Zm-109.39,40.86v97.83h47.45q26.79,0,40.56-12.88t13.77-36.24q0-23.34-13.77-36.03t-40.56-12.68h-47.45Zm273.47,228.66h-59.05V1142.08h59.05v281.79Zm90.55-245.56a130.3,130.3,0,0,1,44.19-30.4q25.35-10.665,55.78-10.67,33.69,0,60.67,12.48a121.532,121.532,0,0,1,45.46,36.24l-37.31,38.64q-14.13-16.5-30.43-24.35a81.442,81.442,0,0,0-35.86-7.85,82.333,82.333,0,0,0-33.32,6.64,76.856,76.856,0,0,0-26.26,18.72,84.21,84.21,0,0,0-17.02,28.58,113.34,113.34,0,0,0,0,72.66,83.833,83.833,0,0,0,17.02,28.79,78.474,78.474,0,0,0,59.22,25.76,92.181,92.181,0,0,0,33.87-6.44,82.886,82.886,0,0,0,11.77-5.75v-82.81h53.61v114.32a144.846,144.846,0,0,1-48.17,26.77,170.934,170.934,0,0,1-54.34,9.06q-30.06,0-55.42-10.67a126.488,126.488,0,0,1-43.83-30.39,142.408,142.408,0,0,1-28.79-46.29q-10.32-26.58-10.33-58.38,0-31.785,10.33-58.37A139.21,139.21,0,0,1,1572.45,1178.31Zm563.6,134.73V1142.08h57.96v281.79h-48.54l-126.05-170.96v170.96h-57.96V1142.08H2010Zm498.05,57.69h126.42v53.14H2575.06V1142.08h59.04v228.65Z"/>
</svg>
