<svg xmlns="http://www.w3.org/2000/svg" width="3840" height="2160" viewBox="0 0 3840 2160">
  <defs>
    <style>
      .cls-1 {
        fill: blue;
      }

      .cls-2 {
        fill: #fff;
        fill-rule: evenodd;
      }
    </style>
  </defs>
  <rect class="cls-1" width="3840" height="2160"/>
  <path id="Shape_346_1" data-name="Shape 346 1" class="cls-2" d="M1832.71,625.668c32.76,1.448,61.15,9.636,74.46,38.206,23.56,70.537,3.42,136.435-91.27,128.607-47.41-5.579-73.6-36.353-65.3-93.751,2.57-17.724,3.5-30.083,10.99-42.027,10.39-16.537,28.83-25.7,51.73-29.742Zm-831.43,18.751h194.6q81.465,393.393,162.93,786.861H1199.76c-0.21-.43-0.43-0.86-0.64-1.29q-17.13-89.22-34.27-178.45H1014.86q-18.75,89.865-37.5,179.74H819.607l0.647-1.29Q910.758,1037.245,1001.28,644.419ZM2413.29,1158.44q0.33,95.025.65,190.08,3.87,41.385,7.76,82.76H2310.49c-9.6,0-27.27,2.57-34.26-1.29q-4.2-27.48-8.41-54.96h-3.23c-37.11,52.91-122.45,87.41-203.65,51.08-52.27-23.38-80.59-73.72-90.52-140.3-3.94-26.47,1.72-56.39,7.76-76.3,33.93-111.83,141.8-145.42,270.25-162.93-0.46-89.2-83.3-94.786-159.05-71.122-18.51,5.783-34.35,15.482-51.07,22.63q-14.88-51.72-29.74-103.45c66.13-39.429,229.24-64.787,309.04-19.4,56.55,32.168,86.09,85,93.74,166.169q59.16-1.95,118.32-3.88-45.585-117.342-91.16-234.7c-7.74-24.624-24.89-72.161,3.23-88.579,31.6-12.313,78.49,6.531,100.86,33.621,19.08,19.7,36.5,54.373,50.43,85.993q27.15,63.681,54.3,127.373,14.235,37.173,28.45,74.356l128.01,2.58c35.99,1.3,69.62,2.04,107.97,3.88s99.53,5.56,107.33,55.61c2.86,18.4-4.37,33.15-11,42.67-30.52,43.87-80.52,36.08-140.94,26.51l-75.64-5.82-69.83-2.58q15.525,45.9,31.04,91.81c18.64,53.64,32.45,108.7,48.49,164.87,13.92,48.77,17.7,97.67-28.45,113.8-46.75,16.32-76.22-19.45-90.51-47.2-26.18-50.82-37.48-112.6-56.9-171.34q-25.215-76.935-50.43-153.88Q2494.115,1157.46,2413.29,1158.44ZM1091.79,789.248q-20.685,120.9-41.37,241.812-9.7,50.76-19.4,101.51h118.96l-12.93-76.29Q1116.365,923.1,1095.67,789.9c-0.21-.215-0.43-0.431-0.64-0.647h-3.24ZM1714.4,1005.2c-141.39-4.84-140.3,78.02-140.3,215.31v210.77H1411.18V980.631q-2.265-60.125-4.53-120.261l140.3,0.647q4.2,41.7,8.4,83.406h5.17c14.43-43.436,47.27-79.866,95.04-90.518,5.96-1.329,55.7-4.473,58.84,0v151.3Zm39.44-144.83h162.92v570.91H1753.84V860.37Zm492,302.59q-17.445,1.62-34.91,3.23c-33.26,7.02-63.93,21.87-79.52,46.56-11.92,13.58-15.57,90.42,20.04,108.62,9.28,5.6,25.26,8.85,40.08,6.46,55.3-8.88,61.42-45.94,61.42-110.56q-0.315-27.15-.64-54.31h-6.47Z"/>
</svg>
