<svg xmlns="http://www.w3.org/2000/svg" xmlns:xlink="http://www.w3.org/1999/xlink" width="3840" height="2160" viewBox="0 0 3840 2160">
  <defs>
    <style>
      .cls-1 {
        fill: url(#linear-gradient);
      }

      .cls-2 {
        fill: #fff;
        fill-rule: evenodd;
      }
    </style>
    <linearGradient id="linear-gradient" x1="1013.772" y1="2160" x2="2826.228" gradientUnits="userSpaceOnUse">
      <stop offset="0.065" stop-color="#030156"/>
      <stop offset="0.935" stop-color="blue"/>
    </linearGradient>
  </defs>
  <rect class="cls-1" width="3840" height="2160"/>
  <path id="Shape_316_1" data-name="Shape 316 1" class="cls-2" d="M-249.352,1274.46C264.569,1014.28,797.69,857.381,1342.16,798.43c544.51-58.439,1100.46-18.935,1660.87,125.52q-15.5,52.784-31.37,105.55C2426.99,888.445,1884.94,849.909,1354.01,906.889,823.114,964.368,303.251,1117.37-196.259,1370.9q-26.717-48.18-53.093-96.44M3320.66,775.84c51.83,16.1,58.91,57.022,64.62,97.262,5.43,38.246,8.45,78.226,11.77,117.664,1.12,13.354,2.23,43.644,3.77,53.264,14.73,4.74,44.65,14.64,61.26,19.89l72.84,25.62q9.78,3.36,19.54,6.7c20.19,10.23,39.52,15.38,52.84,28.57,9.61,9.52,18.24,28.42,7.26,47.15-24.85,42.37-69.43,26.42-112.86,1.43q-23.385-9.21-46.77-18.41c-6.61-3.35-46.57-16.41-50.65-17.56q0.675,33.72,1.36,67.45c1.22,41.37.79,84.36-2.23,127.67-2.73,38.99-11.35,68.22-49.21,65.9-33.66-2.06-42.26-33.02-45.76-54.18-6.8-41.01-.59-86.66-1.25-131.35q-0.615-54.315-1.21-108.65-28.44-8.73-56.87-17.47c-43.45-13.75-90.48-28.52-130.7-36.7-37.26-7.58-52.99-16.22-52.36-38.22,0.57-20,15.08-39.186,27.78-43.8,19.25-7,44.38,2.566,69.59,6.548l28.6,9.043,58.39,15.893q24.825,7.078,49.66,14.159c0.26-.26.51-0.52,0.77-0.79q-1.785-24.529-3.56-49.07c-3.65-42.8-6.52-84.464-8.04-127.827-0.56-16.17-1.41-52.694,17.28-59.5C3310.96,774.908,3315.37,776.276,3320.66,775.84Z"/>
</svg>
