<svg xmlns="http://www.w3.org/2000/svg" width="3840" height="2160" viewBox="0 0 3840 2160">
  <defs>
    <style>
      .cls-1 {
        fill: #fff;
        fill-rule: evenodd;
      }
    </style>
  </defs>
  <rect width="3840" height="2160"/>
  <path id="arrow_1" data-name="arrow 1" class="cls-1" d="M1655.43,484.434L2146,487.992s170.49-14.5,272,87.008,90.73,283.274,90.73,283.274l3.43,484.106c0,26.2,6.09,71.74-37.51,115.34a133.69,133.69,0,0,1-189.06.01c-41.95-41.94-38.37-109.89-37.43-115.78l1.73-402.424s-720.31,721.074-696.8,697.564a132.682,132.682,0,1,1-187.64-187.64c2.1-2.1,4.26-4.08,6.46-6.01L2062.86,752.5l-407.1.019c-60.94,0-91.01-16.334-113.11-38.424a135.191,135.191,0,0,1,.01-191.181C1573.44,492.134,1610.25,484.436,1655.43,484.434Z"/>
</svg>
