<svg xmlns="http://www.w3.org/2000/svg" width="3840" height="2160" viewBox="0 0 3840 2160">
  <defs>
    <style>
      .cls-1 {
        fill: gray;
        fill-rule: evenodd;
      }
    </style>
  </defs>
  <rect id="Rounded_Rectangle_2" data-name="Rounded Rectangle 2" width="3840" height="2160"/>
  <path id="Rounded_Rectangle_1" data-name="Rounded Rectangle 1" class="cls-1" d="M1489.99,664.69a168.18,168.18,0,1,1-164.97,171.332A168.174,168.174,0,0,1,1489.99,664.69Zm588.96-149.543c58.93-.3,79.67,39.751,98.75,79.553,18.15,37.83,34.36,78.242,50.72,118,5.53,13.458,16.6,44.463,21.35,53.925,16.79,0.077,51.02.534,69.93,0.534l83.81,2.669,22.42,0.534c24.25,3.978,45.94,2.983,64.05,12.28,13.07,6.711,28.2,23.451,22.96,46.451-11.85,52.012-63.23,50.1-116.37,38.441l-54.45-3.737c-7.95-1.3-53.59-1.745-58.19-1.6q11.745,34.7,23.49,69.409c14.82,42.445,28.45,87.1,39.5,132.941,9.95,41.27,10.59,74.36-29.36,84.36-35.53,8.9-54.57-20.35-65.12-41.11-20.47-40.25-28.99-89.55-44.31-135.614q-18.42-56.055-36.83-112.121l-64.59.533c-49.49,0-103.02.107-147.33,4.806-41.06,4.353-60.18.563-66.73-22.425-5.96-20.9,2.79-45.521,14.41-54.459,17.64-13.56,46.79-11.88,74.2-16.017h32.56l65.66-2.67,56.05-1.6,0.54-1.068q-9.885-24.825-19.75-49.654c-17.8-43.128-34.41-85.332-50.18-129.741-5.88-16.56-18.73-54.1-1.6-67.273C2068.6,517.359,2073.62,517.331,2078.95,515.147Zm-648.8,703.013,958.21,168.96a108,108,0,1,1-37.51,212.72l-958.21-168.96A108,108,0,1,1,1430.15,1218.16Z"/>
</svg>
