<svg xmlns="http://www.w3.org/2000/svg" width="2000" height="2000" viewBox="0 0 2000 2000">
  <defs>
    <style>
      .cls-1 {
        fill: #fff;
        fill-rule: evenodd;
      }
    </style>
  </defs>
  <path id="Shape_316_2" data-name="Shape 316 2" class="cls-1" d="M1992.57,1294.83c0,515.15-227.47,661.88-510.22,665.44v0.08H528.115v-0.01c-0.17,0-.339.01-0.509,0.01-286.654,0-519.218-142.87-520.889-659.92H6.7V690.408h0.07C11.145,180.828,242.652,39.654,527.606,39.654c0.17,0,.339.006,0.509,0.006V39.654H1482.35v0.074c278.89,3.517,503.99,146.327,510.08,644.571h0.14V1294.32h0v0.51Zm-161.02-52.51c-91.13,92.06-213.83,126.59-349.2,128.3v0.08H528.115v-0.01c-0.17,0-.339.01-0.509,0.01-139.112,0-265.486-33.65-358.916-127.38q-1.071,24.69-1.086,51c0,407.09,195.545,519.38,436.762,519.38,0.139,0,.277-0.01.415-0.01v0.01H1404.89v-0.06c237.07-2.79,427.79-117.29,427.79-519.32Q1832.68,1267.47,1831.55,1242.32ZM829.1,248.716c81.423-.418,110.074,54.895,136.447,109.859,25.065,52.241,47.472,108.048,70.072,162.946,7.64,18.586,22.94,61.4,29.5,74.468,23.2,0.107,70.49.738,96.62,0.738l115.79,3.686,30.98,0.737c33.51,5.494,63.48,4.119,88.5,16.958,18.07,9.268,38.96,32.385,31.72,64.147-16.37,71.826-87.36,69.181-160.79,53.086l-75.23-5.161c-10.97-1.8-74.03-2.411-80.39-2.212q16.23,47.921,32.45,95.85c20.48,58.616,39.31,120.277,54.58,183.592,13.75,56.98,14.63,102.68-40.56,116.49-49.1,12.29-75.4-28.1-89.99-56.77-28.27-55.59-40.05-123.669-61.21-187.276Q982.144,802.443,956.7,725.019l-89.243.737c-68.379,0-142.334.147-203.564,6.636-56.727,6.011-83.142.777-92.194-30.967-8.231-28.868,3.85-62.864,19.914-75.206,24.373-18.727,64.645-16.407,102.519-22.119H739.12l90.719-3.687,77.442-2.212,0.738-1.474-27.289-68.57C856.136,468.6,833.187,410.317,811.4,348.99c-8.125-22.869-25.871-74.715-2.213-92.9C814.806,251.77,821.733,251.731,829.1,248.716Z"/>
</svg>
