<svg xmlns="http://www.w3.org/2000/svg" width="500" height="500" viewBox="0 0 2000 2000">
  <defs>
    <style>
      .cls-1 {
        fill: #fff;
        fill-rule: evenodd;
      }
    </style>
  </defs>
  <path id="Shape_316_1" data-name="Shape 316 1" class="cls-1" d="M1658.98,1633.28H1395.85c-24.66,2.34-50.28,3.84-73.75,23.97-32.11,27.53-60.86,68.63-173.03,221.44-27.05,37.29-65.67,95.78-114.33,112.26-76.347,25.86-126.059-32.23-154.488-71.06-181.579-236.81-193.181-279.39-268.088-286.61H341.015c-167.2,0-302.749-135.55-302.749-302.75V309.253C38.266,142.049,173.811,6.5,341.015,6.5H1658.98c167.21,0,302.75,135.545,302.75,302.749V1330.53C1961.73,1497.73,1826.19,1633.28,1658.98,1633.28Zm-67.13-187.64h-33.61c-3.69.15-7.39,0.24-11.12,0.24H1328.86c-20.46,1.84-41.73,2.99-61.18,18.79-4.85,2.72-11.62,8.86-22.74,20.76s-243.93,313.35-243.93,313.35L753.151,1486.71c-26.9-29.05-44.612-38.12-74.351-40.83H453.886c-3.725,0-7.427-.09-11.112-0.24H409.162c-113.993,0-206.4-94.11-206.4-210.21V381.2c0-116.093,92.41-210.2,206.4-210.2H1591.85c113.99,0,206.4,94.111,206.4,210.2V1235.43C1798.25,1351.53,1705.84,1445.64,1591.85,1445.64ZM813.307,376.518c89.151-.457,120.521,60.1,149.4,120.267,27.445,57.19,51.977,118.284,76.717,178.382,8.38,20.347,25.12,67.219,32.3,81.524,25.41,0.116,77.18.808,105.79,0.807l126.79,4.036,33.91,0.807c36.69,6.014,69.51,4.509,96.91,18.564,19.77,10.145,42.65,35.452,34.72,70.223-17.92,78.632-95.64,75.735-176.04,58.116l-82.37-5.65c-12.02-1.97-81.07-2.639-88.02-2.422q17.76,52.461,35.53,104.928c22.42,64.17,43.04,131.67,59.76,200.99,15.04,62.38,16.01,112.41-44.42,127.53-53.75,13.44-82.55-30.77-98.52-62.15-30.96-60.86-43.85-135.39-67.03-205.02q-27.852-84.75-55.717-169.506l-97.713.807c-74.869,0-155.841.16-222.883,7.264-62.11,6.582-91.033.851-100.943-33.9-9.013-31.6,4.216-68.818,21.8-82.33,26.686-20.5,70.78-17.961,112.249-24.215h49.261l99.328-4.035,84.792-2.422,0.808-1.614q-14.939-37.53-29.879-75.066c-26.928-65.2-52.055-129-75.91-196.14-8.9-25.036-28.326-81.793-2.422-101.7C797.656,379.862,805.24,379.819,813.307,376.518Z"/>
</svg>
