<svg xmlns="http://www.w3.org/2000/svg" width="2000" height="2000" viewBox="0 0 2000 2000">
  <defs>
    <style>
      .cls-1 {
        fill: #fff;
        fill-rule: evenodd;
      }
    </style>
  </defs>
  <path id="Shape_316_1_copy" data-name="Shape 316 1 copy" class="cls-1" d="M1992.57,1315.7h-0.14c-6.09,498.25-231.19,641.06-510.08,644.57v0.08H528.115v-0.01c-0.17,0-.339.01-0.509,0.01-284.954,0-516.461-141.18-520.838-650.76H6.7V699.574h0.02C8.388,182.523,240.952,39.654,527.606,39.654c0.17,0,.339.006,0.509,0.006V39.654H1482.35v0.074c282.75,3.566,510.22,150.293,510.22,665.448v0.509h0V1315.7Zm-1419.1,13.94c9.015,31.63,35.322,36.85,91.817,30.86,60.981-6.47,134.633-6.61,202.733-6.61q44.435-.375,88.879-0.74,25.34,77.145,50.685,154.3c21.08,63.38,32.8,131.23,60.96,186.62,14.53,28.57,40.73,68.81,89.62,56.57,54.97-13.76,54.09-59.3,40.4-116.09-15.21-63.09-33.97-124.53-54.36-182.94q-16.155-47.76-32.32-95.52c6.33-.2,69.14.41,80.07,2.2q37.455,2.58,74.92,5.15c73.13,16.04,143.82,18.67,160.13-52.9,7.21-31.65-13.6-54.69-31.59-63.93-24.92-12.79-54.77-11.42-88.14-16.89q-15.42-.375-30.85-0.74-57.66-1.83-115.32-3.67c-26.02,0-73.12-.63-96.23-0.74-6.53-13.02-21.76-55.69-29.38-74.21-22.5-54.7-44.817-110.31-69.781-162.373C939.445,933.215,910.91,878.1,829.82,878.511c-7.338,3-14.237,3.044-19.833,7.348-23.562,18.122-5.887,69.787,2.2,92.577,21.7,61.114,44.554,119.194,69.047,178.544q13.587,34.155,27.177,68.33-0.366.735-.734,1.47-38.559,1.1-77.127,2.2-45.169,1.83-90.348,3.67H695.4c-37.719,5.7-77.827,3.38-102.1,22.05C577.3,1267,565.268,1300.87,573.466,1329.64ZM1404.89,186.36V186.3H604.781v0c-0.138,0-.276,0-0.415,0C363.149,186.3,167.6,298.593,167.6,705.684q0,26.319,1.086,51C262.12,662.952,388.494,629.3,527.606,629.3c0.17,0,.339.006,0.509,0.006V629.3H1482.35v0.074c135.37,1.707,258.07,36.239,349.2,128.3q1.11-25.163,1.13-51.993C1832.68,303.654,1641.96,189.145,1404.89,186.36Z"/>
</svg>
