<svg xmlns="http://www.w3.org/2000/svg" width="2000" height="2000" viewBox="0 0 2000 2000">
  <defs>
    <style>
      .cls-1 {
        fill: #fff;
        fill-rule: evenodd;
      }
    </style>
  </defs>
  <path id="arrow_1" data-name="arrow 1" class="cls-1" d="M1989.7,998.99c0,0.339-.01.671-0.01,1.01q0.12,12.105.13,24.4c0,311.15-66.39,510.41-149.45,638.04-32.98,55.63-87.2,119.19-176.37,175.46-127.37,84.7-327.81,152.95-643.23,152.95q-20.94,0-41.216-.35h-0.319c-297.645,0-492.87-60.78-620.955-138.79-104.42-60.52-165.2-131.36-200.581-192.23C75.541,1531.74,10.183,1333.14,10.183,1024.4q0-12.315.131-24.4c0-.338-0.01-0.671-0.013-1.009q-0.02-2.151-.036-4.31c-0.049-6.323-.082-12.674-0.082-19.086q0-8.994.082-17.85,0.021-2.5.05-5,0.074-6.975.194-13.874c0.024-1.371.043-2.751,0.069-4.118q0.166-8.64.4-17.16c0.034-1.219.075-2.426,0.111-3.641q0.2-6.9.453-13.717,0.089-2.427.182-4.847,0.3-7.721.657-15.347c0.023-.481.041-0.97,0.065-1.451q0.4-8.28.866-16.43c0.086-1.507.176-3.006,0.265-4.508q0.377-6.357.794-12.642c0.091-1.367.178-2.74,0.272-4.1q0.547-7.968,1.156-15.826c0.076-.971.158-1.93,0.235-2.9q0.52-6.538,1.085-13,0.2-2.271.4-4.534,0.6-6.663,1.245-13.244c0.075-.762.145-1.533,0.221-2.294q0.756-7.587,1.577-15.054c0.148-1.359.3-2.708,0.454-4.061q0.647-5.785,1.33-11.5c0.161-1.348.319-2.7,0.483-4.041q0.893-7.31,1.84-14.517c0.1-.729.2-1.449,0.3-2.176q0.829-6.21,1.7-12.335,0.3-2.135.613-4.258Q28.12,715.389,29,709.68c0.145-.941.285-1.891,0.431-2.829q1.076-6.909,2.208-13.707c0.2-1.233.415-2.455,0.623-3.684q0.884-5.234,1.8-10.4c0.235-1.328.469-2.658,0.707-3.979q1.2-6.657,2.445-13.219c0.1-.5.2-0.992,0.291-1.492q1.132-5.895,2.308-11.7,0.409-2.028.825-4.043,1.027-5,2.084-9.938c0.228-1.065.452-2.138,0.682-3.2q1.353-6.239,2.753-12.377c0.26-1.139.525-2.267,0.788-3.4q1.082-4.682,2.19-9.306c0.315-1.315.63-2.631,0.949-3.939q1.359-5.583,2.755-11.087,0.215-.848.43-1.693,1.431-5.592,2.9-11.09,0.523-1.956,1.052-3.9,1.16-4.279,2.343-8.506c0.324-1.159.645-2.324,0.972-3.477q1.581-5.577,3.2-11.064c0.32-1.084.646-2.153,0.969-3.232q1.231-4.116,2.483-8.182,0.607-1.971,1.219-3.932,1.376-4.4,2.777-8.738c0.251-.776.5-1.563,0.749-2.337q1.7-5.208,3.432-10.321c0.434-1.283.872-2.556,1.309-3.831q1.234-3.6,2.486-7.156c0.434-1.232.865-2.47,1.3-3.694Q82.216,495.3,84,490.448c0.4-1.07.8-2.124,1.194-3.188q1.319-3.529,2.654-7.019,0.76-1.983,1.526-3.953,1.343-3.453,2.7-6.861c0.413-1.038.823-2.086,1.239-3.117q1.835-4.553,3.7-9.022c0.535-1.285,1.074-2.557,1.612-3.833q1.246-2.95,2.5-5.869c0.557-1.291,1.112-2.584,1.672-3.865q1.787-4.085,3.594-8.105c0.558-1.24,1.122-2.464,1.683-3.695q1.331-2.914,2.67-5.8,0.934-2.005,1.875-3.993,1.26-2.664,2.531-5.3c0.582-1.207,1.161-2.423,1.746-3.621q1.917-3.925,3.857-7.78c0.657-1.307,1.318-2.6,1.979-3.894q1.189-2.333,2.386-4.642c0.691-1.333,1.383-2.666,2.078-3.986q1.378-2.619,2.769-5.2,1.525-2.844,3.064-5.648c0.826-1.506,1.652-3.011,2.483-4.5q1.131-2.031,2.27-4.037t2.261-3.961c0.754-1.311,1.506-2.627,2.263-3.925q1.946-3.336,3.907-6.613c0.8-1.343,1.612-2.669,2.42-4q1.062-1.748,2.127-3.481,1.254-2.036,2.512-4.052c0.707-1.129,1.417-2.246,2.127-3.365,0.746-1.177,1.489-2.37,2.238-3.536,34.049-58.627,91.675-126.5,189.147-185.5C474.6,73.674,672.557,9.148,979.235,9.148q10.228,0,20.288.091,10.54-.09,21.247-0.091c306.29,0,504.13,64.363,631.96,145.636,97.86,59.124,155.62,127.2,189.72,185.958l0.27,0.423q2.25,3.507,4.48,7.093c0.47,0.761.95,1.526,1.42,2.291q1.815,2.946,3.63,5.942c0.39,0.65.79,1.3,1.18,1.949q2.295,3.84,4.58,7.757c0.37,0.631.73,1.272,1.1,1.9q1.8,3.128,3.6,6.3,0.69,1.227,1.38,2.459,2.085,3.715,4.14,7.5c0.14,0.265.29,0.526,0.43,0.792q2.235,4.131,4.45,8.354c0.44,0.828.87,1.664,1.3,2.5q1.71,3.281,3.4,6.612c0.39,0.771.79,1.538,1.18,2.313q2.175,4.317,4.32,8.714c0.3,0.614.59,1.236,0.89,1.852q1.755,3.615,3.48,7.288,0.645,1.371,1.29,2.749c1.22,2.613,2.44,5.246,3.64,7.9,0.22,0.47.43,0.932,0.64,1.4q2.085,4.614,4.14,9.324c0.38,0.886.77,1.78,1.15,2.672q1.59,3.659,3.15,7.372c0.37,0.892.75,1.781,1.13,2.678q2.01,4.827,3.99,9.737c0.22,0.543.43,1.1,0.65,1.64,1.12,2.806,2.24,5.634,3.34,8.484q0.585,1.51,1.17,3.03c1.07,2.792,2.14,5.6,3.19,8.437,0.25,0.655.49,1.3,0.74,1.958q1.89,5.128,3.75,10.353c0.33,0.929.66,1.868,0.99,2.8q1.44,4.089,2.86,8.235c0.34,1.014.69,2.026,1.04,3.045q1.815,5.37,3.6,10.828c0.12,0.388.25,0.783,0.37,1.171q1.6,4.953,3.18,9.988,0.51,1.645,1.02,3.3,1.395,4.507,2.75,9.077c0.25,0.829.5,1.65,0.75,2.483q1.68,5.672,3.31,11.444c0.27,0.95.53,1.91,0.8,2.864,0.86,3.052,1.7,6.124,2.54,9.217,0.31,1.137.62,2.272,0.92,3.414q1.59,5.95,3.14,11.989l0.06,0.261q1.515,5.938,2.98,11.986c0.29,1.181.57,2.368,0.86,3.555q1.17,4.874,2.31,9.813c0.23,1,.46,1.992.69,3q1.425,6.246,2.8,12.6c0.21,0.938.4,1.887,0.6,2.828q1.11,5.143,2.18,10.353c0.25,1.259.51,2.519,0.77,3.784q1.215,6.029,2.39,12.143c0.07,0.368.15,0.73,0.22,1.1q1.26,6.625,2.47,13.366c0.23,1.255.45,2.519,0.67,3.781q0.945,5.291,1.84,10.648c0.2,1.167.4,2.328,0.59,3.5q1.14,6.852,2.23,13.809c0.14,0.877.27,1.765,0.4,2.645q0.9,5.807,1.75,11.689,0.3,2.07.6,4.148,0.87,6.207,1.72,12.5c0.09,0.683.19,1.357,0.28,2.041q0.945,7.227,1.84,14.572c0.16,1.317.32,2.643,0.48,3.965q0.69,5.762,1.34,11.59c0.15,1.334.3,2.663,0.44,4q0.825,7.491,1.58,15.088c0.08,0.739.15,1.489,0.22,2.229q0.645,6.612,1.25,13.31c0.14,1.5.27,3,.4,4.506q0.57,6.477,1.09,13.032c0.07,0.96.15,1.911,0.23,2.873q0.615,7.859,1.16,15.837c0.09,1.357.18,2.725,0.27,4.087q0.4,6.293.79,12.657c0.09,1.5.18,3,.27,4.5q0.465,8.163.86,16.434c0.03,0.477.04,0.962,0.07,1.441q0.36,7.624.65,15.356c0.07,1.611.13,3.228,0.19,4.846q0.24,6.819.45,13.717c0.04,1.216.08,2.422,0.11,3.641q0.24,8.52.4,17.16c0.03,1.367.05,2.747,0.07,4.118q0.12,6.9.19,13.874c0.02,1.664.04,3.326,0.05,5,0.05,5.913.09,11.854,0.09,17.85,0,6.412-.04,12.763-0.09,19.086Q1989.715,996.838,1989.7,998.99Zm-184.98.186q0.03-1.748.03-3.5c0.04-5.14.07-10.3,0.07-15.518q0-7.314-.07-14.514c-0.01-1.358-.02-2.709-0.04-4.062q-0.06-5.671-.15-11.281c-0.02-1.115-.04-2.237-0.06-3.348q-0.135-7.024-.33-13.953c-0.02-.991-0.06-1.972-0.09-2.961q-0.165-5.608-.37-11.153c-0.04-1.315-.09-2.63-0.14-3.94-0.17-4.188-.34-8.353-0.54-12.487-0.02-.388-0.03-0.783-0.05-1.171q-0.33-6.735-.7-13.362c-0.07-1.224-.15-2.441-0.22-3.66q-0.3-5.175-.65-10.291c-0.07-1.107-.14-2.22-0.22-3.323q-0.435-6.484-.94-12.877c-0.06-.783-0.12-1.555-0.19-2.336q-0.42-5.331-.88-10.6c-0.11-1.223-.21-2.445-0.32-3.663q-0.495-5.445-1.02-10.822c-0.06-.6-0.12-1.212-0.18-1.813q-0.615-6.183-1.28-12.268c-0.12-1.089-.24-2.169-0.36-3.254q-0.54-4.74-1.09-9.424c-0.13-1.075-.26-2.153-0.39-3.224-0.49-3.977-.98-7.931-1.5-11.848-0.07-.557-0.15-1.105-0.23-1.66q-0.675-5.115-1.4-10.159-0.24-1.69-.48-3.373-0.705-4.784-1.42-9.5c-0.11-.715-0.22-1.437-0.33-2.15q-0.885-5.661-1.81-11.229c-0.16-.953-0.32-1.9-0.48-2.845q-0.735-4.356-1.5-8.658c-0.18-1.026-.36-2.054-0.55-3.075q-0.975-5.472-2.01-10.867c-0.05-.3-0.11-0.594-0.17-0.893q-0.96-4.977-1.95-9.874-0.3-1.543-.63-3.076-0.855-4.238-1.76-8.418c-0.16-.766-0.33-1.537-0.49-2.3q-1.125-5.163-2.28-10.241c-0.18-.816-0.37-1.623-0.56-2.435q-0.93-4.016-1.88-7.979c-0.23-.965-0.46-1.931-0.7-2.891q-1.185-4.909-2.42-9.746a1.666,1.666,0,0,0-.05-0.212q-1.26-4.92-2.55-9.748-0.375-1.392-.75-2.776-1.02-3.773-2.06-7.5c-0.22-.775-0.44-1.556-0.66-2.328q-1.32-4.692-2.69-9.305c-0.2-.677-0.4-1.345-0.6-2.019q-1.11-3.715-2.24-7.381c-0.28-.9-0.56-1.792-0.83-2.684q-1.29-4.092-2.59-8.121c-0.1-.316-0.2-0.637-0.3-0.953q-1.44-4.444-2.93-8.8c-0.28-.829-0.56-1.651-0.84-2.476q-1.155-3.37-2.33-6.7c-0.27-.759-0.53-1.522-0.8-2.277q-1.515-4.245-3.06-8.418c-0.19-.534-0.39-1.06-0.59-1.592-0.86-2.3-1.72-4.591-2.6-6.86-0.31-.824-0.63-1.645-0.95-2.465q-1.35-3.474-2.71-6.9c-0.18-.443-0.36-0.892-0.53-1.334q-1.62-4-3.25-7.917c-0.3-.73-0.61-1.452-0.92-2.178-0.84-2.012-1.7-4.01-2.55-5.994-0.32-.725-0.63-1.452-0.94-2.173q-1.68-3.823-3.36-7.581c-0.18-.383-0.35-0.759-0.53-1.14q-1.47-3.241-2.95-6.426-0.525-1.122-1.05-2.235-1.41-2.986-2.84-5.926c-0.24-.5-0.48-1.007-0.72-1.5q-1.755-3.579-3.52-7.086c-0.31-.63-0.63-1.254-0.95-1.881q-1.38-2.707-2.76-5.376c-0.36-.678-0.71-1.357-1.06-2.03q-1.8-3.427-3.62-6.793c-0.12-.216-0.24-0.428-0.35-0.644q-1.68-3.078-3.37-6.1c-0.37-.67-0.75-1.335-1.12-2q-1.455-2.583-2.93-5.126c-0.29-.515-0.59-1.036-0.89-1.549q-1.86-3.186-3.73-6.307c-0.32-.532-0.64-1.056-0.96-1.585q-1.47-2.436-2.95-4.831c-0.38-.622-0.77-1.245-1.15-1.863q-1.815-2.91-3.65-5.768c-0.07-.113-0.14-0.23-0.22-0.344-27.72-47.777-74.69-103.128-154.25-151.2-103.94-66.083-264.81-118.417-513.86-118.417q-8.7,0-17.268.075-8.193-.067-16.5-0.075C733.756,194.335,572.8,246.8,468.878,313c-79.255,47.977-126.111,103.164-153.8,150.834-0.609.948-1.213,1.918-1.82,2.875-0.577.91-1.154,1.818-1.729,2.736q-1.023,1.637-2.042,3.3-0.867,1.407-1.73,2.83c-0.657,1.081-1.314,2.158-1.968,3.251q-1.594,2.666-3.177,5.377c-0.615,1.055-1.227,2.125-1.839,3.191s-1.228,2.141-1.839,3.221-1.232,2.182-1.846,3.282c-0.675,1.211-1.347,2.435-2.018,3.66q-1.251,2.28-2.492,4.592c-0.752,1.4-1.5,2.807-2.251,4.227q-0.849,1.611-1.69,3.241-0.974,1.876-1.94,3.775c-0.537,1.053-1.075,2.1-1.609,3.166q-1.577,3.137-3.137,6.326c-0.475.974-.946,1.962-1.419,2.944q-1.034,2.142-2.058,4.3-0.764,1.617-1.525,3.247-1.09,2.341-2.17,4.715c-0.457,1-.915,2-1.369,3q-1.47,3.267-2.922,6.59c-0.455,1.042-.907,2.093-1.36,3.143q-1.022,2.371-2.035,4.772c-0.438,1.037-.876,2.071-1.311,3.116q-1.515,3.639-3.008,7.336c-0.338.839-.671,1.691-1.008,2.534q-1.1,2.774-2.2,5.58-0.623,1.6-1.24,3.214-1.086,2.834-2.158,5.707c-0.323.865-.65,1.722-0.971,2.592q-1.455,3.938-2.882,7.947c-0.355,1-.706,2-1.058,3q-1.018,2.892-2.022,5.818c-0.355,1.037-.711,2.072-1.064,3.115q-1.408,4.164-2.79,8.392c-0.205.629-.405,1.269-0.609,1.9q-1.138,3.528-2.258,7.105-0.5,1.593-.991,3.2-1.019,3.3-2.019,6.653c-0.262.877-.527,1.747-0.787,2.628q-1.319,4.461-2.6,9c-0.266.937-.527,1.885-0.79,2.827q-0.963,3.438-1.905,6.917c-0.286,1.055-.572,2.109-0.856,3.17q-1.194,4.476-2.36,9.017-0.177.687-.35,1.376-1.137,4.471-2.24,9.015c-0.259,1.064-.515,2.134-0.772,3.2q-0.9,3.76-1.78,7.567c-0.213.922-.429,1.839-0.64,2.765q-1.138,4.992-2.238,10.064c-0.187.863-.369,1.735-0.555,2.6q-0.859,4.016-1.694,8.081-0.337,1.641-.671,3.288-0.954,4.725-1.877,9.514c-0.078.406-.159,0.806-0.237,1.213q-1.017,5.328-1.988,10.749c-0.194,1.074-.384,2.156-0.575,3.235q-0.744,4.2-1.463,8.46c-0.168,1-.34,1.992-0.506,3q-0.919,5.53-1.795,11.145c-0.119.763-.233,1.535-0.351,2.3q-0.713,4.643-1.4,9.343-0.251,1.728-.5,3.463-0.709,4.983-1.384,10.029c-0.079.592-.162,1.177-0.24,1.77q-0.774,5.855-1.5,11.8c-0.133,1.091-.262,2.19-0.393,3.285q-0.555,4.65-1.082,9.354c-0.123,1.1-.248,2.2-0.369,3.3q-0.663,6.078-1.282,12.241c-0.061.618-.118,1.245-0.179,1.865q-0.525,5.349-1.012,10.768-0.166,1.839-.327,3.688-0.457,5.251-.882,10.568c-0.062.788-.129,1.568-0.191,2.357q-0.5,6.386-.939,12.868c-0.077,1.107-.147,2.224-0.221,3.336q-0.339,5.11-.646,10.279c-0.072,1.221-.146,2.439-0.216,3.665q-0.376,6.636-.7,13.359c-0.019.391-.034,0.789-0.053,1.181q-0.291,6.195-.534,12.478c-0.051,1.31-.1,2.626-0.147,3.941q-0.2,5.546-.369,11.153c-0.029.988-.063,1.969-0.09,2.961q-0.192,6.927-.327,13.953c-0.021,1.111-.037,2.233-0.056,3.348q-0.1,5.61-.157,11.281-0.023,2.028-.041,4.062-0.06,7.212-.067,14.514c0,5.214.027,10.378,0.067,15.518q0.013,1.755.029,3.5c0,0.275.008,0.546,0.011,0.821-0.065,6.562-.107,13.162-0.107,19.842,0,251.04,53.143,412.51,119.946,516.38,28.765,49.5,78.188,107.09,163.092,156.3,104.146,63.43,262.884,112.86,504.9,112.86h0.26q16.5,0.27,33.5.28c256.48,0,419.45-55.5,523.02-124.36,72.5-45.75,116.59-97.44,143.41-142.67,67.53-103.78,121.51-265.8,121.51-518.79,0-6.68-.04-13.28-0.11-19.842C1804.72,999.722,1804.72,999.452,1804.72,999.176ZM814.6,501.638l406.95,2.984s124.24,5.125,208.45,89.341,92.48,217.852,92.48,217.852l2.88,401.6c0,21.73,5.05,59.51-31.11,95.67a110.9,110.9,0,0,1-156.84,0c-34.79-34.8-31.84-91.17-31.05-96.05l1.41-333.831S710.28,1477.32,729.785,1457.81a110.076,110.076,0,0,1-155.671-155.67c1.739-1.74,3.536-3.38,5.358-4.98L1152.6,724.036l-337.709-.012c-50.555,0-75.5-13.556-93.829-31.882a112.143,112.143,0,0,1,0-158.594C746.585,508.019,777.124,501.636,814.6,501.638Z"/>
</svg>
