<svg xmlns="http://www.w3.org/2000/svg" width="2000" height="2000" viewBox="0 0 2000 2000">
  <defs>
    <style>
      .cls-1 {
        fill: #fff;
        fill-rule: evenodd;
      }
    </style>
  </defs>
  <path id="arrow_2" data-name="arrow 2" class="cls-1" d="M560.391,3.5L1380.04,9.549s250.22,10.332,419.85,179.96,186.27,438.786,186.27,438.786L1992,1437.15c0,43.76,10.18,119.86-62.65,192.69-87.22,87.23-228.65,87.21-315.89-.02-70.08-70.09-64.13-183.62-62.56-193.45L1553.71,764S350.364,1968.62,389.648,1929.34c-86.572,86.57-226.943,86.56-313.528-.02s-86.6-226.96-.024-313.53c3.5-3.5,7.121-6.81,10.792-10.03L1241.18,451.466,561,451.413c-101.822-.008-152.07-27.31-188.983-64.223-88.214-88.214-88.225-231.226-.025-319.426C423.4,16.349,484.909,3.5,560.391,3.5Z"/>
</svg>
