<svg xmlns="http://www.w3.org/2000/svg" width="2000" height="2000" viewBox="0 0 2000 2000">
  <defs>
    <style>
      .cls-1 {
        fill: #fff;
        fill-rule: evenodd;
      }
    </style>
  </defs>
  <path id="Ellipse_1_copy_5" data-name="Ellipse 1 copy 5" class="cls-1" d="M1934.96,696.763V1476.87c0,286.37-232.15,518.52-518.52,518.52H582.561c-286.372,0-518.522-232.15-518.522-518.52V696.763c-0.006-.869-0.033-1.734-0.033-2.605s0.027-1.733.033-2.6v-48.5c0.445-2.251.407-1.39,0.961-5.06,4.6-33.407,16.027-62.5,28.669-92.526l125.6-386.268,1.191-.866C248.337,70.16,330.787,6.23,428.187,6.23h0.14c0.5,0,1,.017,1.494.023l0.031-.023h1139.3l0.03,0.023c0.5-.005.99-0.023,1.49-0.023h0.14c97.4,0,179.85,63.93,207.73,152.11l1.19,0.866,125.6,386.268C1917.97,575.5,1929.4,604.593,1934,638c0.55,3.67.52,2.809,0.96,5.06v48.5c0.01,0.869.03,1.732,0.03,2.6S1934.97,695.894,1934.96,696.763ZM1404.14,1860.71c218.69,0,395.97-177.28,395.97-395.96V987.66a385.246,385.246,0,0,1-251.9,93.28h-0.12a385.544,385.544,0,0,1-274.26-114.075A385.586,385.586,0,0,1,999.559,1080.94h-0.118A385.563,385.563,0,0,1,725.174,966.865,385.563,385.563,0,0,1,450.907,1080.94h-0.118a385.232,385.232,0,0,1-251.895-93.28v477.09c0,218.68,177.279,395.96,395.962,395.96H1404.14Zm75.53-1730.369-0.05-.029H519.376l-0.047.029c-0.458,0-.909-0.029-1.368-0.029h-0.019l-0.269.166q-1.68-.059-3.364-0.1c-81.185,1.347-149.561,47.368-172.908,110.537l-1.012.63L233.352,523.155c-40.968,84.781-33,212.92-33,154.485,0,146.887,129.016,266.047,288.518,266.91,112.36-.858,209.488-60.421,256.9-146.976,46.971,85.736,142.714,145,253.725,146.944,111.01-1.944,206.75-61.208,253.73-146.944,47.41,86.555,144.54,146.118,256.9,146.976,159.5-.863,288.52-120.023,288.52-266.91,0,58.435,7.97-69.7-33-154.485L1658.61,241.543l-1.01-.63c-23.35-63.169-91.72-109.19-172.91-110.537q-1.68.043-3.36,0.1l-0.27-.166h-0.02C1480.58,130.312,1480.13,130.339,1479.67,130.341ZM570.762,1283.57A71.786,71.786,0,0,1,642.4,1214.9c0.184,0,.365.01,0.549,0.02,0.172-.01.342-0.02,0.514-0.02,0.465,0,.907.02,1.366,0.03,0.314-.01.624-0.03,0.939-0.03,0.184,0,.365.01,0.549,0.02,0.172-.01.342-0.02,0.514-0.02,92.336,0,65.572,98.83,88.721,164.5,16.1,45.66,41.861,85.84,75.06,117.25,42.578,38.29,97.457,65.22,158.695,72.26a248.609,248.609,0,0,0,60.382,0c61.24-7.04,116.12-33.97,158.7-72.26,33.2-31.41,58.96-71.59,75.06-117.25,23.15-65.67-3.62-164.5,88.72-164.5,0.17,0,.34.01,0.51,0.02,0.19-.01.37-0.02,0.55-0.02,0.32,0,.63.02,0.94,0.03,0.46-.01.9-0.03,1.37-0.03,0.17,0,.34.01,0.51,0.02,0.18-.01.36-0.02,0.55-0.02a71.785,71.785,0,0,1,71.64,68.67l0.08,0.01c-0.01.52-.03,1.03-0.04,1.55,0.01,0.55.04,1.09,0.04,1.64,0,1.85-.09,3.68-0.23,5.5a444.1,444.1,0,0,1-30.34,149.29,375.925,375.925,0,0,1-24.68,54.95c-20.21,36.32-46.55,69.17-77.29,97.76-51.2,49.95-117.35,90.26-196.84,108.79a404.6,404.6,0,0,1-93.49,10.47c-1.99.01-3.97,0-5.95-.02-1.98.02-3.963,0.03-5.948,0.02a404.556,404.556,0,0,1-93.488-10.47c-79.489-18.53-145.645-58.84-196.844-108.79-30.739-28.59-57.082-61.44-77.288-97.76a376.348,376.348,0,0,1-24.679-54.95,444.1,444.1,0,0,1-30.342-149.29c-0.137-1.82-.23-3.65-0.23-5.5,0-.55.029-1.09,0.041-1.64-0.008-.52-0.035-1.03-0.041-1.55Z"/>
</svg>
