<svg xmlns="http://www.w3.org/2000/svg" width="2000" height="2000" viewBox="0 0 2000 2000">
  <defs>
    <style>
      .cls-1 {
        fill: #fff;
        fill-rule: evenodd;
      }
    </style>
  </defs>
  <path id="arrow_1" data-name="arrow 1" class="cls-1" d="M1394.9,1380.43l-226.85,223.63S1096.47,1670,1003.26,1670s-171.721-69.41-171.721-69.41L607.716,1379.88c-12.025-12.03-35.727-30.15-35.727-70.19a86.805,86.805,0,0,1,86.791-86.82c38.51,0,68.064,32.84,70.334,35.98l183.951,185.58s-0.351-1048.865-.351-1027.269a86.143,86.143,0,1,1,172.286,0c0,1.925-.09,3.829-0.21,5.723V1444.43l186.89-186.94c27.97-27.99,49.28-34.3,69.56-34.3a87.779,87.779,0,0,1,87.76,87.8C1429,1339.25,1415.64,1359.69,1394.9,1380.43Z"/>
</svg>
