<svg xmlns="http://www.w3.org/2000/svg" width="2000" height="2000" viewBox="0 0 2000 2000">
  <defs>
    <style>
      .cls-1 {
        fill: #fff;
        fill-rule: evenodd;
      }
    </style>
  </defs>
  <path class="cls-1" d="M1931.92,411.258q-53.13,182.373-106.26,364.783-59.775,199.885-119.55,399.809c-54.4,178.05-87.86,349.21-214.94,452.96-93.43,76.28-199.42,94.5-332.07,132.87L725.6,1878.84q-158.774,42.885-317.58,85.76c-47.377,13.58-102.918,40.24-166.638,31.41-57.186-7.93-97.4-23.27-132.828-51.94-45.141-36.53-68.405-89.59-78.49-161.86-10.79-77.32,23.8-145.27,41.056-202.92q53.127-187.215,106.263-374.45,62.181-219.21,124.375-438.462c45.077-150.792,68.928-271.663,156.978-378.07,102.543-123.921,254.705-144.1,435.918-188.431q300.041-72.465,600.137-144.946,93.585-22.344,187.17-44.692l53.13-7.247C1876.33,0.4,1953.01,87.246,1970.56,209.54,1982.09,289.921,1949.43,354.04,1931.92,411.258Zm-194.41-263.32q-400.26,95.414-800.594,190.847C801.855,371.678,648.938,387.376,572.243,478.9c-69.548,83-92.621,196.378-128,316.467q-60.37,212.568-120.753,425.173Q258.9,1445.8,194.287,1671.09c-13.99,48.55-35.614,127.43,7.245,161.85,37.664,30.25,99.567,12.59,143.7,0l361.05-99.04q210.088-56.775,420.222-113.54c100.39-28.77,201.92-45.11,271.69-102.67a261.43,261.43,0,0,0,35.37-35.59c71.87-87.29,95.32-220.94,132.48-343.69l107.47-358.746q72.435-245.177,144.9-490.4C1840.7,212.725,1816.22,148.67,1737.51,147.938ZM1001,1381c-210.42,0-381-170.58-381-381s170.58-381,381-381,381,170.58,381,381S1211.42,1381,1001,1381Z"/>
</svg>
