<svg xmlns="http://www.w3.org/2000/svg" width="2000" height="2000" viewBox="0 0 2000 2000">
  <defs>
    <style>
      .cls-1 {
        fill: #fff;
        fill-rule: evenodd;
      }
    </style>
  </defs>
  <path id="Rounded_Rectangle_1_copy_2" data-name="Rounded Rectangle 1 copy 2" class="cls-1" d="M613.775,17.625L808.649,69.842A110.245,110.245,0,0,1,886.6,204.864L431.21,1904.42a110.243,110.243,0,0,1-135.022,77.95l-194.874-52.21a110.244,110.244,0,0,1-77.955-135.02L478.753,95.58A110.245,110.245,0,0,1,613.775,17.625ZM1091.21,10h222.24a100.005,100.005,0,0,1,100,100V1890a100,100,0,0,1-100,100H1091.21a100,100,0,0,1-100-100V110A100,100,0,0,1,1091.21,10Zm564.45,0H1877.9a100,100,0,0,1,100,100V1890a100,100,0,0,1-100,100H1655.66a100,100,0,0,1-100-100V110A100,100,0,0,1,1655.66,10Z"/>
</svg>
