<svg xmlns="http://www.w3.org/2000/svg" width="2000" height="2000" viewBox="0 0 2000 2000">
  <defs>
    <style>
      .cls-1 {
        fill: #fff;
        fill-rule: evenodd;
      }
    </style>
  </defs>
  <path id="Rounded_Rectangle_2" data-name="Rounded Rectangle 2" class="cls-1" d="M205,309H1795c110.46,0,200,89.543,200,200v912c0,110.46-89.54,200-200,200H205C94.543,1621,5,1531.46,5,1421V509C5,398.543,94.543,309,205,309Zm41.648,125h1507.7a125,125,0,0,1,125,125v804a124.994,124.994,0,0,1-125,125H246.648a125,125,0,0,1-125-125V559A125,125,0,0,1,246.648,434ZM77.5,1681h1847a71.5,71.5,0,0,1,0,143H77.5A71.5,71.5,0,0,1,77.5,1681Z"/>
</svg>
