<svg xmlns="http://www.w3.org/2000/svg" width="2000" height="2000" viewBox="0 0 2000 2000">
  <defs>
    <style>
      .cls-1 {
        fill: #fff;
        fill-rule: evenodd;
      }
    </style>
  </defs>
  <path id="_" data-name="" class="cls-1" d="M735.628,41.928A1007.545,1007.545,0,0,0,498.411,141.86,991.59,991.59,0,0,0,141.857,498.414q-64.529,110.6-99.932,237.7Q6.5,863.223,6.512,1000.01q0,137.79,35.413,264.39a1006.158,1006.158,0,0,0,99.933,237.22,991.538,991.538,0,0,0,356.554,356.55q110.6,64.53,237.7,99.93,127.081,35.43,263.9,35.41,136.8,0,263.9-35.41,127.08-35.385,237.7-99.93a991.617,991.617,0,0,0,356.56-356.55q64.5-110.61,99.93-237.71,35.4-127.08,35.41-263.9,0-136.792-35.41-263.894-35.43-127.08-99.93-237.7A991.669,991.669,0,0,0,1501.61,141.86q-110.595-64.5-237.7-99.932-127.11-35.4-263.9-35.413Q862.225,6.515,735.628,41.928Zm726.2,585.524q-11.64-58.212-27.16-117.4a1171.038,1171.038,0,0,0-37.36-116.91,1058.534,1058.534,0,0,0-49.96-112.06,825.922,825.922,0,0,0-63.07-102.843,836.188,836.188,0,0,1,156.21,72.766,902.97,902.97,0,0,1,138.74,101.873A884.389,884.389,0,0,1,1695.66,479.5a830.752,830.752,0,0,1,89.26,147.957H1461.83Zm371.6,620.938H1481.24q7.74-62.085,11.64-123.7,3.87-61.59,3.88-124.68,0-63.039-3.88-124.668-3.9-61.592-11.64-123.7h352.19q35.88,119.337,35.89,248.37,0,129.06-35.89,248.38h0ZM911.237,1843.13q-41.242-26.19-76.162-68.88T772.5,1677.71a1126.629,1126.629,0,0,1-49-109.15q-21.361-55.3-35.9-106.72-14.553-51.4-22.314-89.26H1334.74q-7.77,37.83-22.32,89.26t-35.9,106.72a1131.438,1131.438,0,0,1-48.99,109.15q-27.66,53.85-62.58,96.54-34.935,42.69-76.16,68.88-41.25,26.2-88.78,26.2Q952.454,1869.33,911.237,1843.13ZM643.943,1248.39q-7.77-62.085-12.128-123.7-4.367-61.59-4.366-124.68,0-63.039,4.366-124.668,4.366-61.592,12.128-123.7H1356.08q7.74,62.111,12.13,123.7,4.365,61.617,4.36,124.668,0,63.075-4.36,124.68t-12.13,123.7H643.943ZM166.6,751.64H518.785q-7.77,62.111-11.643,123.7-3.9,61.617-3.88,124.668,0,63.075,3.88,124.68t11.643,123.7H166.6q-35.915-119.34-35.9-248.38,0-129.023,35.9-248.37h0ZM1088.79,156.9q41.2,26.2,76.16,68.885,34.92,42.7,62.58,96.537a1131.421,1131.421,0,0,1,48.99,109.149q21.345,55.3,35.9,106.724t22.32,89.259H665.288q7.743-37.838,22.314-89.259,14.554-51.4,35.9-106.724a1126.613,1126.613,0,0,1,49-109.149q27.651-53.847,62.579-96.537Q870,183.111,911.237,156.9q41.217-26.2,88.773-26.2Q1047.545,130.7,1088.79,156.9ZM652.675,281.086a1054.317,1054.317,0,0,0-49.966,112.06,1168.408,1168.408,0,0,0-37.354,116.91q-15.54,59.2-27.166,117.4H215.108A828.93,828.93,0,0,1,304.368,479.5,884.239,884.239,0,0,1,420.793,352.882,902.009,902.009,0,0,1,559.534,251.009a835.878,835.878,0,0,1,156.205-72.766A824.811,824.811,0,0,0,652.675,281.086ZM538.189,1372.58q11.643,58.215,27.166,117.39a1165.361,1165.361,0,0,0,37.354,116.91,1051,1051,0,0,0,49.966,112.06,822.275,822.275,0,0,0,63.064,102.85,833.616,833.616,0,0,1-156.205-72.77,899.755,899.755,0,0,1-138.741-101.87,882.885,882.885,0,0,1-116.425-126.61,828.707,828.707,0,0,1-89.26-147.96H538.189Zm809.161,346.36a1055.187,1055.187,0,0,0,49.96-112.06,1167.977,1167.977,0,0,0,37.36-116.91q15.51-59.175,27.16-117.39h323.09a830.528,830.528,0,0,1-89.26,147.96,883.034,883.034,0,0,1-116.43,126.61,900.711,900.711,0,0,1-138.74,101.87,833.924,833.924,0,0,1-156.21,72.77A823.378,823.378,0,0,0,1347.35,1718.94Z"/>
</svg>
