<svg xmlns="http://www.w3.org/2000/svg" width="2000" height="2000" viewBox="0 0 2000 2000">
  <defs>
    <style>
      .cls-1 {
        fill: #fff;
        fill-rule: evenodd;
      }
    </style>
  </defs>
  <path id="circleAI_1_copy_2" data-name="circleAI 1 copy 2" class="cls-1" d="M1996.54,1287.97c0,364.54-295.52,660.05-660.06,660.05a657.065,657.065,0,0,1-335.63-91.58,657.072,657.072,0,0,1-335.634,91.58c-364.538,0-660.054-295.51-660.054-660.05,0-246.84,135.5-462.017,336.162-575.245,0-.537-0.01-1.073-0.01-1.61,0-364.537,295.516-660.054,660.056-660.054s660.05,295.517,660.05,660.054c0,0.733-.01,1.463-0.01,2.2C1861.5,826.694,1996.54,1041.56,1996.54,1287.97Zm-995.69,391c95.83-82.34,161.04-199.29,176.25-331.46a664.385,664.385,0,0,1-352.538-.3C839.707,1479.5,904.949,1596.57,1000.85,1678.97Zm0-782A514.726,514.726,0,0,0,829.21,1196.95a517.816,517.816,0,0,0,343.34.35A514.711,514.711,0,0,0,1000.85,896.967Zm304.67,230.143c104.74-76.71,179.43-192.01,203.13-324.969a517.132,517.132,0,0,0-381.17,14.688A659.325,659.325,0,0,1,1305.52,1127.11Zm-431.3-310.281A517.176,517.176,0,0,0,494.027,801.79c23.564,132.736,97.946,247.9,202.315,324.68A659.281,659.281,0,0,1,874.216,816.829ZM149.92,1287.97c0,284.59,230.706,515.29,515.3,515.29a513.466,513.466,0,0,0,209-44.15c-122.063-119.78-197.789-286.62-197.789-471.14,0-.74.012-1.47,0.015-2.2-155.04-87.85-271.009-236.63-315.376-413.8C233.053,965.725,149.92,1117.14,149.92,1287.97ZM1001.37,195.82c-264.456,0-482.379,199.213-511.894,455.758A661.986,661.986,0,0,1,1000.85,719.5a661.949,661.949,0,0,1,512.44-67.623C1483.91,395.187,1265.92,195.82,1001.37,195.82Zm640.14,676.8c-44.59,177.282-160.88,326.072-316.25,413.742,0,0.54.01,1.07,0.01,1.61,0,184.52-75.73,351.36-197.79,471.14a513.487,513.487,0,0,0,209,44.15c284.59,0,515.3-230.7,515.3-515.29C1851.78,1117.53,1769.02,966.421,1641.51,872.618Z"/>
</svg>
