<svg xmlns="http://www.w3.org/2000/svg" width="2000" height="2000" viewBox="0 0 2000 2000">
  <defs>
    <style>
      .cls-1 {
        fill: #fff;
        fill-rule: evenodd;
      }
    </style>
  </defs>
  <path id="gender_1" data-name="gender 1" class="cls-1" d="M1176.74,24.68C1504.6,19,1715.61,206.289,1809.7,435.55c48.38,117.863,66.48,294.663,23.59,434.461-32.94,107.4-84.64,186.469-146.44,263.429q-32.925,31.455-65.86,62.91-13.755,10.815-27.52,21.62,95.82,170.52,191.66,341.08h0.99q8.34-28.995,16.7-57.99c12.64-41.05,17.84-100.93,48.16-124.83,28.37-22.37,75.37-25.14,105.17-1.97,29.14,22.66,32.02,64.89,19.66,106.16q-34.89,127.77-69.79,255.56c-12.65,42.35-14.98,88.4-49.14,109.11-39.37,23.87-91.84,2.09-130.72-9.83q-101.715-29.49-203.45-58.98c-64.06-19.26-119.22-23.08-131.7-94.36-7.82-44.62,43.95-94.55,86.49-87.48q82.545,22.11,165.12,44.23-95.325-170.52-190.68-341.08-17.19,6.885-34.4,13.76c-90.86,36.59-122.51,27.06-142.51,20.64-35.72-10.66-72.05-48.65-57.01-102.22,15.98-56.91,70.21-54.34,125.81-71.76,65.53-20.53,121.67-50.83,170.03-88.46,126.87-98.7,231.52-311.029,161.19-534.723-37.13-118.1-114.35-209.521-210.33-269.326-38.42-23.94-83.12-42.856-130.72-57.011-94.85-28.207-222.2-17.374-302.72,14.744C870.893,287.206,762.06,406.71,717.747,586.923c-26.5,107.749-.1,230.109,34.4,308.644q15.724,29.977,31.451,59.96c9.893,15.836,23.463,26.728,28.5,48.163,15.928,67.74-52.228,117.6-113.028,92.4-36.682-15.21-54.325-64.4-73.715-97.314C561.321,890.081,517.38,706.991,559.507,540.725,618.255,308.857,764.3,149.457,972.307,66.947,1088.39,26.261,1168.27,25.538,1176.74,24.68ZM582.112,58.1c75.052-.937,115.631,78.889,70.766,136.629-26.517,34.127-97.387,35.274-140.549,52.1-74.468,29.024-147.25,73.113-193.623,130.731-44.811,55.678-84.878,114.969-109.1,191.674-8.3,26.29-12.4,54.407-17.692,83.55-12.9,71.073,2.938,151.392,19.657,204.452,48.06,152.528,150.7,262.248,293.875,319.458,31.929,12.76,67.156,20.05,104.183,27.52,68.913,13.9,154.746,2.15,209.349-14.74,153.185-47.39,263.609-143.5,322.379-285.056,14.66-35.321,25.03-74.079,33.42-116.971q1.965-25.062,3.93-50.13,0.495-25.554.98-51.113c-12.31-74.917-18.41-124.041-44.23-182.827-11.55-26.31-27.2-52.909-43.24-75.687-10.1-14.333-23.16-27.06-28.51-46.2-17.82-63.792,54.18-120.275,112.05-95.345,38.67,16.66,61.75,68.973,82.56,104.192,70.81,119.839,115.62,326.963,62.9,502.283C1253.8,1116.83,1104.97,1271.56,880.9,1339.86c-81.07,24.71-208.972,40.95-307.635,19.66q-27.027,86.97-54.058,173.98c-2.721,8.41-16.328,54.49-14.743,56.02,56.821,32.07,204.663,29.09,184.778,131.72-7.311,37.73-37.431,79.16-90.423,68.8q-33.906-11.3-67.817-22.6-37.346-11.805-74.7-23.59-25.06,80.1-50.126,160.22c-8.91,28.15-13.425,55.07-34.4,70.77-13.158,9.84-41.495,21.87-66.834,14.74-96.662-27.19-58.125-113.88-35.383-185.77q16.215-52.59,32.434-105.18v-0.98l-56.023-16.71c-50.855-15.6-92.628-20.56-110.08-69.79-4.859-13.71-5.644-38.06,0-52.1,36.048-89.62,141.5-35,212.3-15.72q35.379-115,70.766-230.01c-59.6-18.95-110.453-61.94-155.292-97.31C124.707,1106.37-20.276,856.27,38.591,585.94c13.349-61.3,32.519-114.032,55.04-165.134,61.28-139.05,191-258.748,332.207-318.474,34.19-14.461,70.958-25.169,109.1-35.385Z"/>
</svg>
