<svg xmlns="http://www.w3.org/2000/svg" width="2000" height="2000" viewBox="0 0 2000 2000">
  <defs>
    <style>
      .cls-1 {
        fill: #fff;
        fill-rule: evenodd;
      }
    </style>
  </defs>
  <path id="_" data-name="" class="cls-1" d="M1991.62,874.647V755.3L1066.06,337.6V277.931h263.41V39.244H933.841V337.6L8.285,755.3V874.647H140.507V1590.71q-18.593,50.34-32.539,88.11T77.5,1761.33q-16.536,44.76-30.99,84.38-14.478,39.645-25.308,68.53-10.846,28.9-12.912,34.5H1991.62q-2.085-5.6-12.91-34.5-10.845-28.89-25.31-68.53-14.475-39.615-30.99-84.38-16.53-44.76-30.47-82.51-13.95-37.77-32.54-88.11V874.647h132.22ZM999.952,441.1L1696.19,755.3H303.719ZM537.174,874.647H669.4V1590.71H537.174V874.647Zm264.445,0H933.841V1590.71H801.619V874.647Zm264.441,0h132.23V1590.71H1066.06V874.647Zm264.45,0h132.22V1590.71H1330.51V874.647Zm-1057.78,0H404.952V1590.71H272.73V874.647ZM192.157,1829.39l43.385-119.34H1764.36l43.39,119.34H192.157ZM1727.18,1590.71H1594.95V874.647h132.23V1590.71Z"/>
</svg>
