<svg xmlns="http://www.w3.org/2000/svg" width="2000" height="2000" viewBox="0 0 2000 2000">
  <defs>
    <style>
      .cls-1 {
        fill: #fff;
        fill-rule: evenodd;
      }
    </style>
  </defs>
  <path id="Shape_1_copy_2" data-name="Shape 1 copy 2" class="cls-1" d="M1881.9,893.805c-0.01,1.01-.03,2.017-0.04,3.027-0.03,1.785-.04,3.571-0.08,5.354-0.02,1.049-.05,2.094-0.07,3.141-0.04,1.741-.07,3.483-0.12,5.221-0.03,1.065-.07,2.127-0.11,3.19-0.05,1.718-.1,3.437-0.17,5.153-0.03,1-.08,1.987-0.12,2.981-0.07,1.781-.14,3.563-0.23,5.342-0.04,1.026-.1,2.049-0.15,3.074-0.09,1.744-.17,3.488-0.27,5.228-0.06,1.034-.13,2.064-0.19,3.1-0.1,1.73-.2,3.46-0.31,5.187q-0.105,1.463-.21,2.92c-0.12,1.782-.24,3.563-0.37,5.342-0.07.954-.16,1.906-0.23,2.86-0.14,1.794-.28,3.589-0.43,5.38q-0.12,1.38-.24,2.757c-0.16,1.822-.32,3.644-0.49,5.462-0.08.874-.17,1.745-0.25,2.617q-0.27,2.792-.55,5.581c-0.09.855-.19,1.708-0.28,2.563-0.2,1.872-.39,3.744-0.6,5.612-0.09.775-.19,1.547-0.27,2.32-0.23,1.946-.45,3.891-0.69,5.833-0.09.78-.2,1.558-0.29,2.338q-0.36,2.9-.73,5.8c-0.1.69-.2,1.39-0.29,2.08-0.27,2.01-.53,4.02-0.82,6.02-0.09.68-.2,1.36-0.29,2.04-0.29,2.02-.58,4.03-0.88,6.05-0.1.65-.21,1.31-0.31,1.97q-0.465,3.045-.94,6.09c-0.1.62-.21,1.25-0.31,1.87-0.33,2.06-.66,4.11-1.01,6.16l-0.3,1.74c-0.36,2.09-.72,4.19-1.09,6.27l-0.33,1.77c-0.37,2.07-.75,4.15-1.14,6.22-0.1.52-.2,1.04-0.3,1.57-0.41,2.13-.81,4.26-1.23,6.39-0.11.53-.22,1.05-0.32,1.58-0.43,2.12-.85,4.24-1.29,6.35-0.1.49-.21,0.97-0.31,1.45-0.45,2.16-.9,4.31-1.37,6.46-0.1.45-.2,0.89-0.29,1.34-0.48,2.18-.96,4.37-1.46,6.54-0.1.44-.2,0.87-0.3,1.31-0.5,2.18-1,4.37-1.52,6.55-0.09.42-.2,0.83-0.3,1.24q-0.78,3.3-1.58,6.59c-0.1.38-.2,0.76-0.29,1.14q-0.825,3.33-1.67,6.66c-0.09.33-.18,0.66-0.26,0.98q-0.87,3.405-1.77,6.8c-0.07.27-.15,0.55-0.22,0.82-0.62,2.31-1.24,4.62-1.88,6.92-0.06.25-.14,0.49-0.2,0.74q-0.975,3.495-1.96,6.98c-0.07.24-.14,0.47-0.21,0.71-0.66,2.33-1.34,4.66-2.02,6.98-0.07.22-.14,0.45-0.21,0.68q-1.035,3.495-2.09,6.98c-0.06.19-.12,0.37-0.18,0.56q-1.08,3.54-2.19,7.07c-0.05.16-.11,0.33-0.16,0.49q-1.125,3.57-2.28,7.11c-0.04.14-.09,0.27-0.13,0.4q-1.17,3.6-2.37,7.17c-0.04.12-.08,0.24-0.12,0.35-0.81,2.4-1.62,4.8-2.45,7.19-0.04.11-.08,0.22-0.11,0.33q-1.245,3.6-2.52,7.18c-0.03.09-.06,0.17-0.09,0.25q-1.29,3.63-2.61,7.23l-0.09.24c-0.88,2.4-1.77,4.81-2.68,7.21-0.02.05-.04,0.1-0.06,0.16q-1.365,3.63-2.77,7.25c-0.01.04-.03,0.08-0.04,0.11-0.94,2.43-1.89,4.86-2.85,7.27a0.257,0.257,0,0,1-.02.05q-1.455,3.66-2.94,7.31c0,0.01-.01.02-0.01,0.03a879.756,879.756,0,0,1-76.36,146.2,0.038,0.038,0,0,1-.02.02c-1.41,2.17-2.82,4.34-4.25,6.5-0.32.61-.67,1.26-1.04,1.93-4.9,8.91-13.1,21.31-23.73,35.85-37.91,52.44-107.16,135.37-162.58,182.32l-176.48,169.91L1228,1905c-63.77,63.77-145.79,93.47-228,91.63-82.214,1.84-164.226-27.86-228-91.63L627.483,1760.91,451,1591c-55.423-46.95-124.668-129.88-162.583-182.32-10.625-14.54-18.83-26.94-23.726-35.85-0.369-.67-0.721-1.32-1.044-1.93q-2.139-3.24-4.249-6.5a0.039,0.039,0,0,1-.017-0.02,879.066,879.066,0,0,1-76.357-146.2l-0.015-.03q-1.485-3.645-2.94-7.31a0.358,0.358,0,0,1-.019-0.05c-0.96-2.41-1.91-4.84-2.85-7.27a1,1,0,0,1-.044-0.11q-1.4-3.615-2.768-7.25c-0.021-.06-0.042-0.11-0.062-0.16-0.9-2.4-1.795-4.81-2.677-7.21l-0.088-.24q-1.32-3.6-2.608-7.23c-0.031-.08-0.062-0.16-0.092-0.25q-1.275-3.585-2.518-7.18c-0.038-.11-0.078-0.22-0.116-0.33q-1.239-3.585-2.448-7.19c-0.039-.11-0.08-0.23-0.12-0.35q-1.2-3.57-2.368-7.17c-0.044-.13-0.09-0.26-0.134-0.4q-1.154-3.54-2.277-7.11c-0.052-.16-0.106-0.33-0.158-0.49q-1.112-3.525-2.193-7.07c-0.057-.19-0.117-0.37-0.174-0.56q-1.065-3.48-2.1-6.98c-0.067-.23-0.136-0.46-0.2-0.68q-1.029-3.48-2.028-6.98c-0.067-.24-0.137-0.47-0.205-0.71q-0.993-3.48-1.957-6.98c-0.068-.25-0.139-0.49-0.207-0.74q-0.951-3.45-1.872-6.92c-0.074-.27-0.151-0.55-0.224-0.82q-0.9-3.39-1.772-6.8c-0.084-.32-0.172-0.65-0.256-0.98q-0.85-3.33-1.673-6.66c-0.094-.38-0.192-0.76-0.285-1.14q-0.808-3.285-1.589-6.59c-0.1-.41-0.2-0.82-0.3-1.24-0.515-2.18-1.018-4.37-1.518-6.55-0.1-.44-0.2-0.87-0.3-1.31-0.494-2.17-.975-4.36-1.452-6.54-0.1-.45-0.2-0.89-0.3-1.34q-0.7-3.225-1.37-6.46c-0.1-.48-0.207-0.96-0.308-1.45q-0.657-3.165-1.287-6.35c-0.1-.53-0.216-1.05-0.32-1.58q-0.631-3.2-1.233-6.39c-0.1-.53-0.2-1.05-0.3-1.57-0.39-2.07-.766-4.15-1.141-6.22-0.106-.59-0.219-1.18-0.324-1.77-0.373-2.08-.732-4.18-1.09-6.27-0.1-.58-0.2-1.16-0.3-1.74-0.346-2.05-.679-4.1-1.012-6.16-0.1-.62-0.208-1.25-0.308-1.87-0.323-2.03-.633-4.06-0.942-6.09-0.1-.66-0.207-1.32-0.306-1.97-0.3-2.02-.59-4.03-0.879-6.05-0.1-.68-0.2-1.36-0.3-2.04-0.282-2-.55-4.01-0.818-6.02-0.093-.69-0.192-1.39-0.283-2.08-0.253-1.932-.492-3.864-0.733-5.8-0.1-.78-0.2-1.558-0.3-2.338-0.237-1.942-.459-3.887-0.683-5.833-0.089-.773-0.184-1.545-0.271-2.32-0.21-1.868-.406-3.74-0.6-5.612-0.091-.855-0.188-1.708-0.276-2.563-0.191-1.858-.368-3.72-0.548-5.581-0.084-.872-0.175-1.743-0.257-2.617-0.17-1.818-.326-3.64-0.485-5.462-0.08-.919-0.168-1.837-0.245-2.757-0.151-1.791-.287-3.586-0.427-5.38-0.075-.954-0.156-1.906-0.228-2.86-0.132-1.779-.251-3.56-0.374-5.342-0.067-.973-0.141-1.945-0.2-2.92-0.113-1.727-.212-3.457-0.315-5.187-0.062-1.032-.13-2.062-0.188-3.1-0.1-1.74-.181-3.484-0.269-5.228-0.051-1.025-.11-2.048-0.158-3.074-0.083-1.779-.152-3.561-0.224-5.342-0.04-.994-0.088-1.986-0.125-2.981-0.064-1.716-.114-3.435-0.169-5.153-0.033-1.063-.074-2.125-0.1-3.19-0.049-1.738-.083-3.48-0.122-5.221-0.023-1.047-.053-2.092-0.073-3.141-0.033-1.783-.052-3.569-0.075-5.354-0.013-1.01-.033-2.017-0.042-3.027q-0.039-4.194-.039-8.4C118.062,398.383,512.919,3.573,1000,3.573s881.94,394.81,881.94,881.833Q1881.94,889.611,1881.9,893.805Zm-189.92,16.862c-0.01.815-.03,1.628-0.04,2.443-0.02,1.441-.03,2.883-0.06,4.322-0.01.847-.04,1.691-0.05,2.536-0.03,1.405-.06,2.811-0.1,4.215-0.02.859-.05,1.716-0.08,2.575-0.04,1.387-.08,2.775-0.13,4.159-0.03.8-.07,1.6-0.1,2.407-0.06,1.438-.11,2.876-0.18,4.312q-0.06,1.244-.12,2.482-0.105,2.112-.21,4.221l-0.15,2.5c-0.08,1.4-.16,2.793-0.25,4.187-0.05.787-.1,1.571-0.16,2.358-0.09,1.437-.19,2.876-0.29,4.311-0.06.771-.12,1.539-0.18,2.309q-0.165,2.173-.33,4.344c-0.07.743-.13,1.483-0.2,2.225-0.12,1.471-.24,2.942-0.38,4.41-0.06.705-.13,1.408-0.2,2.112-0.14,1.5-.28,3.006-0.43,4.5-0.07.691-.14,1.379-0.22,2.07-0.15,1.51-.3,3.022-0.47,4.53l-0.21,1.873c-0.18,1.571-.35,3.141-0.54,4.708-0.07.631-.15,1.259-0.23,1.888q-0.285,2.34-.57,4.676c-0.08.562-.15,1.122-0.23,1.683-0.21,1.623-.42,3.243-0.64,4.863-0.07.55-.15,1.09-0.23,1.64-0.23,1.63-.45,3.26-0.69,4.88-0.08.53-.16,1.06-0.24,1.6-0.24,1.63-.49,3.27-0.74,4.91-0.08.51-.16,1.01-0.24,1.52-0.26,1.65-.52,3.31-0.8,4.97-0.07.47-.16,0.93-0.23,1.4-0.28,1.69-.57,3.38-0.86,5.06-0.08.48-.17,0.95-0.25,1.43-0.3,1.67-.59,3.35-0.9,5.02-0.08.42-.16,0.84-0.24,1.27q-0.465,2.58-.96,5.16c-0.08.42-.17,0.85-0.25,1.27-0.34,1.71-.67,3.42-1.01,5.13-0.08.39-.17,0.78-0.25,1.17q-0.525,2.61-1.07,5.22c-0.08.36-.16,0.71-0.23,1.07q-0.57,2.655-1.14,5.29l-0.24,1.05q-0.585,2.655-1.19,5.29c-0.08.34-.16,0.67-0.24,1.01q-0.615,2.655-1.24,5.31c-0.08.31-.15,0.61-0.23,0.92-0.43,1.79-.86,3.59-1.31,5.38-0.06.27-.13,0.53-0.2,0.79q-0.69,2.745-1.39,5.49l-0.18.66q-0.72,2.805-1.46,5.59c-0.06.2-.11,0.4-0.17,0.6q-0.75,2.82-1.53,5.63c-0.06.19-.11,0.38-0.16,0.57l-1.59,5.64c-0.06.18-.11,0.36-0.16,0.54-0.55,1.89-1.09,3.76-1.65,5.64-0.04.15-.09,0.3-0.14,0.46-0.56,1.9-1.14,3.8-1.72,5.7-0.04.13-.08,0.27-0.12,0.4-0.59,1.91-1.18,3.83-1.79,5.74-0.03.11-.07,0.21-0.1,0.32q-0.915,2.895-1.86,5.79c-0.03.09-.06,0.19-0.1,0.28q-0.945,2.91-1.92,5.81c-0.03.08-.06,0.17-0.09,0.26q-0.975,2.91-1.97,5.8a1.587,1.587,0,0,0-.07.2q-1.02,2.925-2.05,5.83c-0.02.07-.05,0.13-0.07,0.2q-1.035,2.91-2.1,5.82c-0.02.04-.03,0.08-0.05,0.13q-1.08,2.925-2.17,5.85a0.355,0.355,0,0,1-.04.09c-0.73,1.96-1.48,3.92-2.23,5.87a0.147,0.147,0,0,1-.02.04q-1.14,2.955-2.3,5.9c-0.01.01-.01,0.02-0.02,0.03a716.981,716.981,0,0,1-59.91,118.02,0.035,0.035,0,0,0-.01.02q-1.665,2.625-3.34,5.24c-0.25.49-.53,1.02-0.82,1.56-3.84,7.19-10.27,17.2-18.61,28.94-29.75,42.33-84.08,109.28-127.57,147.18l-138.48,137.16L1178.9,1726.97c-50.04,51.48-114.39,75.45-178.9,73.97-64.509,1.48-128.859-22.49-178.9-73.97L707.707,1610.65,569.231,1473.49c-43.487-37.9-97.82-104.85-127.569-147.18-8.337-11.74-14.775-21.75-18.617-28.94-0.289-.54-0.565-1.07-0.819-1.56q-1.678-2.61-3.334-5.24a0.034,0.034,0,0,0-.013-0.02,717.619,717.619,0,0,1-59.913-118.02l-0.012-.03q-1.166-2.94-2.306-5.9a0.134,0.134,0,0,1-.015-0.04q-1.131-2.925-2.237-5.87l-0.035-.09q-1.1-2.925-2.172-5.85c-0.016-.05-0.032-0.09-0.048-0.13q-1.064-2.91-2.1-5.82c-0.023-.07-0.046-0.13-0.069-0.2q-1.035-2.91-2.046-5.83c-0.024-.07-0.048-0.13-0.072-0.2q-1-2.895-1.976-5.8c-0.03-.09-0.061-0.18-0.091-0.26q-0.972-2.9-1.92-5.81c-0.031-.09-0.064-0.19-0.095-0.28q-0.94-2.895-1.858-5.79c-0.035-.11-0.07-0.21-0.105-0.32-0.6-1.91-1.2-3.83-1.786-5.74-0.041-.13-0.084-0.27-0.124-0.4q-0.873-2.85-1.721-5.7c-0.045-.16-0.092-0.31-0.137-0.46-0.557-1.88-1.1-3.75-1.646-5.64-0.052-.18-0.107-0.36-0.159-0.54q-0.808-2.82-1.591-5.64c-0.053-.19-0.108-0.38-0.161-0.57q-0.78-2.8-1.536-5.63c-0.053-.2-0.109-0.4-0.163-0.6q-0.745-2.79-1.469-5.59c-0.057-.22-0.118-0.44-0.175-0.66q-0.707-2.745-1.39-5.49c-0.066-.26-0.135-0.52-0.2-0.79-0.445-1.79-.881-3.59-1.313-5.38-0.074-.31-0.15-0.61-0.224-0.92q-0.635-2.655-1.246-5.31c-0.078-.34-0.159-0.67-0.236-1.01q-0.606-2.64-1.191-5.29c-0.077-.35-0.159-0.7-0.236-1.05q-0.58-2.64-1.14-5.29c-0.076-.36-0.156-0.71-0.232-1.07q-0.549-2.61-1.075-5.22c-0.08-.39-0.163-0.78-0.242-1.17-0.344-1.71-.677-3.42-1.01-5.13-0.082-.42-0.169-0.85-0.251-1.27q-0.5-2.58-.968-5.16c-0.078-.43-0.16-0.85-0.237-1.27-0.306-1.67-.6-3.35-0.895-5.02-0.084-.48-0.172-0.95-0.255-1.43-0.292-1.68-.574-3.37-0.855-5.06-0.078-.47-0.16-0.93-0.237-1.4-0.272-1.66-.534-3.32-0.794-4.97-0.08-.51-0.164-1.01-0.242-1.52-0.254-1.64-.5-3.28-0.74-4.91-0.079-.54-0.162-1.07-0.24-1.6-0.237-1.62-.463-3.25-0.689-4.88-0.076-.55-0.157-1.09-0.232-1.64-0.222-1.62-.432-3.24-0.642-4.863-0.073-.561-0.151-1.121-0.223-1.683-0.2-1.557-.386-3.116-0.574-4.676-0.077-.629-0.158-1.257-0.232-1.888-0.186-1.567-.36-3.137-0.536-4.708-0.07-.625-0.145-1.248-0.213-1.873-0.165-1.508-.318-3.02-0.474-4.53-0.071-.691-0.147-1.379-0.216-2.07-0.15-1.5-.289-3-0.43-4.5-0.066-.7-0.138-1.407-0.2-2.112-0.133-1.468-.256-2.939-0.38-4.41-0.063-.742-0.132-1.482-0.193-2.225-0.118-1.446-.225-2.895-0.335-4.344-0.058-.77-0.122-1.538-0.178-2.309-0.1-1.435-.2-2.874-0.294-4.311-0.052-.787-0.11-1.571-0.16-2.358-0.089-1.394-.167-2.791-0.247-4.187-0.049-.833-0.1-1.665-0.148-2.5-0.076-1.405-.142-2.813-0.211-4.221-0.04-.827-0.086-1.653-0.123-2.482-0.066-1.436-.12-2.874-0.177-4.312-0.031-.8-0.069-1.6-0.1-2.407-0.05-1.384-.089-2.772-0.132-4.159-0.026-.859-0.058-1.716-0.082-2.575-0.038-1.4-.065-2.81-0.1-4.215-0.018-.845-0.042-1.689-0.058-2.536-0.026-1.439-.041-2.881-0.059-4.322-0.01-.815-0.025-1.628-0.033-2.443q-0.03-3.387-.031-6.781c0-393.158,309.822-711.876,692.007-711.876s692.01,318.718,692.01,711.876Q1692.01,907.281,1691.98,910.667Z"/>
</svg>
