<svg xmlns="http://www.w3.org/2000/svg" width="2000" height="2000" viewBox="0 0 2000 2000">
  <defs>
    <style>
      .cls-1 {
        fill: #fff;
        fill-rule: evenodd;
      }
    </style>
  </defs>
  <path class="cls-1" d="M1806.21,1178.22l-140.44,140.44v343.72c0,183.58-148.82,332.4-332.4,332.4H701.739c-183.578,0-332.4-148.82-332.4-332.4V1318.66L228.9,1178.22c-0.623-.62-1.223-1.26-1.842-1.89V1277.7c21.026,9.19,36.768,46.51,36.768,91.19v177.46c0,51.57-20.971,93.38-46.84,93.38H127.976c-25.869,0-46.84-41.81-46.84-93.38V1368.89c0-44.68,15.741-82,36.767-91.19V941.727C107.8,831.86,144.785,718.477,228.9,634.364L745.627,117.635c150.182-150.182,393.673-150.182,543.853,0l516.73,516.729C1956.39,784.546,1956.39,1028.04,1806.21,1178.22Zm-256.26,256.26-260.47,260.47c-150.18,150.18-393.671,150.18-543.853,0l-265.79-265.79v210.93c0,135.85,110.126,245.97,245.973,245.97h578.17c135.84,0,245.97-110.12,245.97-245.97V1434.48Z"/>
</svg>
