<svg xmlns="http://www.w3.org/2000/svg" width="2000" height="569" viewBox="0 0 2000 569">
  <defs>
    <style>
      .cls-1 {
        fill: #e30613;
      }

      .cls-2 {
        fill: #f39200;
      }

      .cls-3 {
        fill: #95c11f;
      }

      .cls-4 {
        fill: #009640;
      }

      .cls-5 {
        fill: #009fe3;
      }

      .cls-6 {
        fill: #004899;
      }

      .cls-7 {
        fill: #662483;
      }

      .cls-8 {
        fill: #e6007e;
      }

      .cls-9 {
        fill: #e50051;
      }

      .cls-10 {
        fill: #fff;
        fill-rule: evenodd;
      }
    </style>
  </defs>
  <rect class="cls-1" x="16" y="364.719" width="198.062" height="198.031"/>
  <rect id="Rectangle_1_copy" data-name="Rectangle 1 copy" class="cls-2" x="214.062" y="364.719" width="198" height="198.031"/>
  <rect id="Rectangle_1_copy_2" data-name="Rectangle 1 copy 2" class="cls-3" x="411.062" y="364.719" width="198.063" height="198.031"/>
  <rect id="Rectangle_1_copy_3" data-name="Rectangle 1 copy 3" class="cls-4" x="608.094" y="364.719" width="198.031" height="198.031"/>
  <rect id="Rectangle_1_copy_4" data-name="Rectangle 1 copy 4" class="cls-5" x="806.125" y="364.719" width="198.065" height="198.031"/>
  <rect id="Rectangle_1_copy_5" data-name="Rectangle 1 copy 5" class="cls-6" x="1004.19" y="364.719" width="198.03" height="198.031"/>
  <rect id="Rectangle_1_copy_6" data-name="Rectangle 1 copy 6" class="cls-7" x="1201.22" y="364.719" width="198.03" height="198.031"/>
  <rect id="Rectangle_1_copy_7" data-name="Rectangle 1 copy 7" class="cls-8" x="1398.22" y="364.719" width="198.06" height="198.031"/>
  <rect id="Rectangle_1_copy_8" data-name="Rectangle 1 copy 8" class="cls-9" x="1595.28" y="364.719" width="198" height="198.031"/>
  <rect id="Rectangle_1_copy_9" data-name="Rectangle 1 copy 9" class="cls-1" x="1792.28" y="364.719" width="198.06" height="198.031"/>
  <path id="Shape_346_1" data-name="Shape 346 1" class="cls-10" d="M360.436-4c11.139,0.491,20.788,3.271,25.315,12.969,8.009,23.943,1.162,46.312-31.03,43.655C338.6,50.729,329.7,40.284,332.521,20.8c0.871-6.016,1.187-10.211,3.736-14.266,3.53-5.614,9.8-8.722,17.585-10.1ZM77.766,2.365h66.161q27.693,133.535,55.391,267.1H145.246c-0.073-.147-0.147-0.293-0.22-0.439l-11.65-60.574H82.381L69.633,269.461H16l0.22-.439ZM557.822,176.844q0.109,32.259.22,64.524,1.318,14.046,2.637,28.093H522.873c-3.266,0-9.273.87-11.65-.439q-1.428-9.327-2.858-18.655h-1.1c-12.617,17.96-41.631,29.67-69.238,17.338-17.771-7.938-27.4-25.025-30.773-47.625-1.341-8.983.584-19.139,2.637-25.9,11.536-37.96,48.208-49.362,91.879-55.306-0.154-30.28-28.32-32.175-54.072-24.142-6.293,1.963-11.679,5.255-17.365,7.681L420.223,87.3c22.486-13.384,77.939-21.991,105.067-6.584,19.226,10.919,29.269,28.854,31.872,56.4l40.225-1.317L566.394,56.135c-2.63-8.358-8.46-24.494,1.1-30.068,10.745-4.18,26.685,2.217,34.29,11.413,6.489,6.688,12.409,18.457,17.145,29.19l18.464,43.235q4.834,12.619,9.671,25.239l43.522,0.878c12.234,0.439,23.67.691,36.707,1.317s33.839,1.886,36.488,18.875a19.765,19.765,0,0,1-3.737,14.485c-10.379,14.891-27.375,12.246-47.917,9l-25.718-1.975-23.739-.878q5.276,15.581,10.551,31.165c6.339,18.21,11.032,36.9,16.485,55.965,4.734,16.553,6.021,33.155-9.671,38.627-15.894,5.542-25.912-6.6-30.773-16.022-8.9-17.249-12.742-38.22-19.343-58.159q-8.571-26.115-17.145-52.234ZM108.538,51.526q-7.032,41.037-14.067,82.082l-6.594,34.457h40.445q-2.2-12.947-4.4-25.9-7.033-45.207-14.068-90.422l-0.22-.22h-1.1Zm211.674,73.3c-48.07-1.642-47.7,26.484-47.7,73.084v71.548H217.122V116.489q-0.768-20.407-1.538-40.821l47.7,0.219q1.428,14.154,2.857,28.312H267.9c4.9-14.744,16.069-27.11,32.311-30.726,2.025-.451,18.936-1.518,20,0v51.356ZM333.62,75.668h55.391V269.461H333.62V75.668ZM500.892,178.38l-11.87,1.1c-11.307,2.381-21.734,7.422-27.036,15.8-4.05,4.612-5.291,30.693,6.814,36.872,3.155,1.9,8.588,3,13.628,2.194,18.8-3.015,20.882-15.594,20.882-37.529q-0.109-9.218-.22-18.436h-2.2Z"/>
</svg>
