<svg xmlns="http://www.w3.org/2000/svg" width="3845" height="527" viewBox="0 0 3845 527">
  <defs>
    <style>
      .cls-1 {
        fill: #fff;
        fill-rule: evenodd;
      }
    </style>
  </defs>
  <path id="ORIGINALS" class="cls-1" d="M3680.22,213.214q17.115,5.03,38.05,10.042a389.449,389.449,0,0,1,41.39,12.421,176.153,176.153,0,0,1,37.57,18.762,86.23,86.23,0,0,1,27.83,30.655q10.71,19.3,10.7,47.832a109.223,109.223,0,0,1-15.46,57.081q-15.45,25.9-46.85,41.754t-78.49,15.856a248.665,248.665,0,0,1-76.82-11.892q-36.87-11.892-59.22-30.919l26.16-64.481q20.925,16.921,50.42,27.748a171.271,171.271,0,0,0,59.46,10.835q22.845,0,36.87-5.285t20.69-14.006a32.577,32.577,0,0,0,6.66-20.349q0-14.79-10.47-23.519t-27.82-14.27q-17.37-5.55-37.82-10.571t-41.14-12.156a158.139,158.139,0,0,1-38.06-19.027,85.793,85.793,0,0,1-27.59-31.183q-10.23-19.289-10.22-48.361,0-31.712,15.22-57.874t46.38-41.754q31.14-15.583,78.24-15.592a232.836,232.836,0,0,1,62.08,8.457q30.675,8.461,53.51,24.312l-24.26,64.48a183.763,183.763,0,0,0-46.14-21.4,158.8,158.8,0,0,0-45.66-7.135q-22.83,0-36.63,5.549t-20.21,15.063a36.914,36.914,0,0,0-6.43,21.141q0,14.8,10.47,23.784Q3663.085,208.2,3680.22,213.214ZM3280.65,71.3h77.54v300.2H3524.2v69.765H3280.65V71.3ZM3125.88,362H2971.65l-29.67,79.279h-78.97L3010.95,71.3h76.11l149.36,369.97h-80.86Zm-77.11-206.046-52.79,141.037h105.57ZM2589.03,216.82V441.274h-76.11V71.3h63.74l165.53,224.455V71.3h76.11v369.97h-63.74ZM2366.42,71.3h77.53v369.97h-77.53V71.3Zm-144.61,76.373q-21.405-10.306-47.09-10.307a108.18,108.18,0,0,0-43.76,8.721,100.9,100.9,0,0,0-34.49,24.577,110.765,110.765,0,0,0-22.36,37.525q-7.845,21.678-7.84,48.1a139.431,139.431,0,0,0,7.84,47.3,110.238,110.238,0,0,0,22.36,37.789,104.679,104.679,0,0,0,34.25,24.841q19.725,8.994,43.52,8.985a121.153,121.153,0,0,0,44.48-8.456,108.428,108.428,0,0,0,15.46-7.546V250.476h70.4v150.1a190.6,190.6,0,0,1-63.27,35.147,224.4,224.4,0,0,1-71.35,11.892q-39.48,0-72.78-14.006a166.038,166.038,0,0,1-57.55-39.9,186.78,186.78,0,0,1-37.82-60.781q-13.56-34.882-13.56-76.637t13.56-76.636a182.917,182.917,0,0,1,38.29-60.781,171.142,171.142,0,0,1,58.04-39.9q33.285-14,73.25-14.006,44.235,0,79.68,16.384a159.5,159.5,0,0,1,59.69,47.568l-48.99,50.739Q2243.215,157.987,2221.81,147.677ZM1862.68,71.3h77.54v369.97h-77.54V71.3Zm-127.95,369.97-64.62-103.617c-1.13.015-2.26,0.026-3.4,0.026h-66.59V441.274h-77.54V71.3h144.13q44.7,0,77.06,16.12,32.34,16.128,49.95,46.247,17.58,30.126,17.6,71.351,0,41.759-17.6,71.616t-49.95,45.453c-0.15.074-.31,0.144-0.46,0.217l74.19,118.966h-82.77ZM1715.7,157.719q-18.075-16.648-53.27-16.649h-62.31V269.5h62.31q35.19,0,53.27-16.913t18.08-47.568Q1733.78,174.376,1715.7,157.719ZM1422.22,393.707a171.72,171.72,0,0,1-57.8,39.9q-33.06,14-72.06,14.006-39.495,0-72.78-14.27a174.339,174.339,0,0,1-58.04-40.169,182.827,182.827,0,0,1-38.29-60.781q-13.545-34.882-13.55-76.108,0-41.745,13.55-76.372a183.6,183.6,0,0,1,38.29-60.517,175.116,175.116,0,0,1,57.8-40.168q33.06-14.27,72.54-14.27t72.54,14.006a171.949,171.949,0,0,1,57.8,39.9,183.077,183.077,0,0,1,38.29,60.781q13.56,34.882,13.55,76.636,0,41.226-13.55,76.373A182.347,182.347,0,0,1,1422.22,393.707Zm-34.02-185.25a116.529,116.529,0,0,0-22.11-37.525,100.312,100.312,0,0,0-33.06-24.841,96.572,96.572,0,0,0-41.15-8.721,98.071,98.071,0,0,0-41.38,8.721,96.949,96.949,0,0,0-33.06,24.841,118.754,118.754,0,0,0-21.88,37.525q-7.86,21.407-7.85,47.832t7.85,47.832a118.671,118.671,0,0,0,21.88,37.526,96.848,96.848,0,0,0,33.06,24.841,98.086,98.086,0,0,0,41.38,8.72,96.587,96.587,0,0,0,41.15-8.72,100.2,100.2,0,0,0,33.06-24.841,116.448,116.448,0,0,0,22.11-37.526q7.86-21.4,7.85-47.832T1388.2,208.457ZM971.177,317.05l-35.7-2.746-32.954-1.221q7.323,21.666,14.646,43.335c8.8,25.321,15.315,51.306,22.885,77.82,6.571,23.017,8.357,46.1-13.426,53.711-22.063,7.708-35.97-9.178-42.718-22.277-12.355-23.987-17.688-53.147-26.851-80.872q-11.9-36.314-23.8-72.633l-76.283.916q0.153,44.856.3,89.722,1.832,19.53,3.662,39.063H708.461c-4.534,0-12.873,1.21-16.172-.611q-1.983-12.967-3.967-25.94H686.8c-17.515,24.974-57.792,41.257-96.115,24.109-24.669-11.038-38.035-34.8-42.718-66.223-1.862-12.491.81-26.613,3.661-36.011,16.013-52.785,66.922-68.639,127.544-76.905-0.213-42.1-39.314-44.739-75.062-33.569-8.735,2.729-16.212,7.307-24.105,10.681q-7.017-24.413-14.036-48.828c31.214-18.611,108.193-30.58,145.852-9.156,26.689,15.183,40.63,40.122,44.244,78.431l55.839-1.831-43.024-110.78c-3.651-11.622-11.744-34.059,1.526-41.809,14.916-5.812,37.043,3.083,47.6,15.869,9.008,9.3,17.226,25.664,23.8,40.589L867.433,220l13.426,35.1,60.416,1.221c16.983,0.61,32.858.961,50.956,1.831s46.979,2.623,50.649,26.245c1.35,8.684-2.06,15.649-5.18,20.142C1023.29,325.244,999.693,321.566,971.177,317.05ZM681,315.219h-3.051l-16.477,1.526c-15.7,3.312-30.171,10.321-37.531,21.973-5.623,6.413-7.345,42.678,9.459,51.27,4.379,2.644,11.921,4.175,18.918,3.051,26.1-4.192,28.988-21.684,28.987-52.185Q681.152,328.038,681,315.219ZM445.744,172.4h76.893V441.868H445.744V172.4Zm29.293-32.043c-22.376-2.634-34.737-17.159-30.818-44.251,1.209-8.366,1.648-14.2,5.187-19.836,4.9-7.806,13.6-12.129,24.41-14.038l9.154-.61c15.463,0.684,28.858,4.548,35.142,18.033C529.229,112.944,519.724,144.047,475.037,140.353ZM360.918,342.38v99.488H284.026V229.159q-1.068-28.378-2.136-56.763L348.1,172.7q1.983,19.683,3.966,39.368h2.441c6.807-20.5,22.307-37.7,44.855-42.725,2.811-.626,26.286-2.111,27.766,0v71.412C360.4,238.472,360.916,277.582,360.918,342.38ZM183.943,441.257q-8.085-42.109-16.172-84.229H96.981l-17.7,84.84H4.832l0.305-.611L90.574,70.467h91.844q38.444,185.682,76.893,371.4H184.248C184.147,441.664,184.045,441.461,183.943,441.257ZM154.651,264.865L135.122,139.132q-0.152-.153-0.305-0.305h-1.525L113.763,252.963l-9.154,47.913h56.144Q157.7,282.871,154.651,264.865Z"/>
</svg>
