<svg xmlns="http://www.w3.org/2000/svg" width="999.936" height="335.916" viewBox="0 0 3840 1290">
  <defs>
    <style>
      .cls-1 {
        fill: orange;
        fill-rule: evenodd;
      }
    </style>
  </defs>
  <path id="Shape_347_1" data-name="Shape 347 1" class="cls-1" d="M711.755,331.185c22.688,1,42.341,6.672,51.562,26.456,16.311,48.843,2.366,94.474-63.2,89.054-32.83-3.864-50.966-25.173-45.217-64.919,1.775-12.273,2.418-20.83,7.611-29.1,7.19-11.451,19.96-17.793,35.816-20.6ZM136.018,344.169H270.775q56.4,272.406,112.819,544.866H273.461l-0.448-.9q-11.862-61.778-23.728-123.568H145.42Q132.438,826.8,119.454,889.035H10.216l0.448-.9ZM1113.79,700.1q0.225,65.808.44,131.628,2.685,28.65,5.38,57.307H1042.6c-6.65,0-18.88,1.775-23.73-.9q-2.895-19.024-5.82-38.055h-2.23c-25.7,36.638-84.8,60.525-141.028,35.369-36.2-16.193-55.805-51.05-62.677-97.153-2.732-18.325,1.189-39.044,5.372-52.831,23.5-77.438,98.189-100.7,187.137-112.823-0.313-61.77-57.683-65.635-110.133-49.249-12.817,4-23.788,10.721-35.368,15.67l-20.594-71.634c45.8-27.3,158.743-44.861,214-13.431,39.16,22.275,59.61,58.861,64.91,115.062l81.93-2.686q-31.56-81.252-63.12-162.52c-5.36-17.051-17.23-49.968,2.24-61.336,21.88-8.527,54.35,4.522,69.84,23.281,13.21,13.642,25.27,37.65,34.92,59.545q18.8,44.1,37.6,88.2,9.855,25.74,19.7,51.487l88.64,1.791c24.92,0.895,48.22,1.409,74.77,2.686s68.92,3.847,74.32,38.5c1.98,12.74-3.03,22.958-7.61,29.549-21.14,30.377-55.76,24.981-97.6,18.356l-52.38-4.029-48.35-1.791q10.74,31.785,21.49,63.575c12.91,37.148,22.47,75.269,33.57,114.167,9.65,33.768,12.27,67.634-19.69,78.8-32.38,11.307-52.78-13.465-62.68-32.683-18.13-35.188-25.95-77.969-39.4-118.643q-17.46-53.272-34.92-106.556ZM198.7,444.456L170.043,611.9q-6.714,35.142-13.431,70.291h82.377q-4.478-26.414-8.954-52.83L201.382,444.9l-0.448-.448H198.7ZM629.827,593.992c-97.907-3.351-97.153,54.026-97.15,149.088V889.035H419.858V576.979q-1.568-41.632-3.134-83.274l97.15,0.447q2.909,28.875,5.82,57.755h3.581c9.987-30.077,32.73-55.3,65.812-62.68,4.124-.919,38.568-3.1,40.74,0V593.992Zm27.309-100.287h112.82v395.33H657.136V493.705Zm340.7,209.529-24.175,2.239c-23.031,4.858-44.268,15.141-55.067,32.235-8.25,9.408-10.777,62.611,13.879,75.216,6.425,3.879,17.49,6.126,27.757,4.477,38.289-6.151,42.533-31.813,42.533-76.559q-0.225-18.8-.45-37.608h-4.477ZM1616.57,76.177h62.41V1204.82h-62.41V76.177Zm163.39,230.294c84.31-1.18,166.96-7.87,201.1,41.33,10.04,14.482,18.4,40.9,15.21,64.171-11.6,84.733-60.31,97.089-157.61,95.713V583.82h-58.7V306.471Zm257.62,0c67.73-1.046,146.18-6.693,183.7,22.84,54.38,42.8,36.81,136.691-17.39,165.322q27.165,44.589,54.35,89.187l-63.05-1.088q-23.37-38.064-46.74-76.135h-52.17V583.82h-58.7V306.471Zm261.96,0h188.05v52.207H2357.15v58.733h115.22V468.53H2357.15v63.083h134.79c0.36,0.362.72,0.725,1.09,1.088V583.82H2299.54V306.471Zm238.05,0h48.92q46.185,85.371,92.39,170.76h1.09l90.22-170.76h48.91V583.82h-54.35q-1.08-81.021-2.17-162.059-35.865,66.34-71.74,132.692h-26.09q-36.405-66.339-72.83-132.692V583.82h-54.35V306.471Zm340.23,0h58.7V583.82h-58.7V306.471Zm117.39,0h188.05v52.207H3052.82v58.733h115.22V468.53H3052.82v63.083h134.79c0.36,0.362.72,0.725,1.09,1.088V583.82H2995.21V306.471Zm238.05,0c69.61-1.076,147.6-6.388,185.88,23.928,53.3,42.223,34.65,137.934-19.57,164.234,15.71,25.815,18.3,28.512,55.44,89.187h-63.05q-23.91-38.607-47.83-77.223h-52.17V583.82h-58.7V306.471Zm-1394.6,52.207V454.39c47.47,1.326,89.94,3.883,98.92-33.717C1952.43,358.448,1893.1,357.2,1838.66,358.678Zm257.62,0V454.39c45.94,1.286,88.16,3.83,97.82-31.541C2211.58,358.853,2150.32,357.2,2096.28,358.678Zm1195.68,0V454.39c46.95,1.306,89.45,3.992,98.92-32.629C3407.21,358.568,3346.22,357.2,3291.96,358.678ZM1883.23,682.8c197.54-13.743,201.41,253.636,44.56,284.963-105.92,21.156-189.48-81.329-157.61-187.075C1788.36,720.361,1835.04,688.963,1883.23,682.8Zm744.58,138.131h52.18l1.08,1.088q-0.54,56.552-1.08,113.114c-97.56,69.522-259.38,21.888-235.88-128.341,20.26-129.511,148.45-160.947,241.31-77.223q-17.925,19.575-35.87,39.155c-0.72-.362-1.45-0.725-2.17-1.088-41.66-55.376-127-30.506-142.4,31.542-22.38,90.21,50.22,130.61,122.83,104.414V820.926Zm1192.42-114.2q-9.24,24.469-18.47,48.944c-19.24-11.575-138.01-46.57-115.23,18.49,13.64,38.946,125.98,13.389,142.4,93.538,4.42,21.595-.72,45.06-9.78,59.82-29.29,47.7-118.85,51.267-172.83,23.928l-22.83-13.052q9.24-24.47,18.48-48.944l4.35,1.088c20.19,20.97,135.72,54.616,125-13.052-27.57-28.155-85.76-25.991-117.39-50.031-39.64-30.116-27.41-103.018,8.69-127.254C3673.42,692.949,3735.52,658.865,3820.23,706.723ZM2081.06,687.146c67.73-1.048,146.18-6.692,183.7,22.84,56.19,44.229,34.98,134.69-17.39,165.322q27.165,44.589,54.35,89.187l-63.05-1.088q-23.37-38.064-46.74-76.135h-52.17V964.5h-58.7V687.146Zm261.96,0h57.61V964.5h-57.61V687.146Zm391.32,0h57.61V964.5h-57.61V687.146Zm116.3,0h48.92l122.83,167.5v-167.5H3080V964.5h-48.92q-60.855-83.2-121.74-166.41-0.54,83.2-1.09,166.41h-57.61V687.146Zm365.23,0h57.61q55.98,138.66,111.96,277.349h-60.87q-10.875-29.364-21.74-58.733H3186.52q-10.32,29.364-20.65,58.733h-59.79Q3160.98,825.834,3215.87,687.146Zm195.66,0h58.69V912.288h123.92V964.5H3411.53V687.146ZM1890.84,737.177c-24.46,1.36-54.03,24.306-64.14,58.733-17.91,61.028,20.85,130.226,85.88,118.553C2004.99,897.875,2006.76,730.381,1890.84,737.177Zm248.92,2.176v95.712c46.09,1.293,87.92,3.734,97.82-31.541C2255.49,739.715,2193.44,737.884,2139.76,739.353ZM3244.13,752.4q-19.02,51.659-38.04,103.326h77.17v-1.087Q3263.7,803.529,3244.13,752.4Z"/>
</svg>
