<svg xmlns="http://www.w3.org/2000/svg" width="2000" height="2000" viewBox="0 0 2000 2000">
  <defs>
    <style>
      .cls-1 {
        fill: #36b548;
      }

      .cls-1, .cls-2 {
        fill-rule: evenodd;
      }

      .cls-2 {
        fill: #fff;
      }
    </style>
  </defs>
  <path id="circleAI_1" data-name="circleAI 1" class="cls-1" d="M1000,1989.99c-546.755,0-989.987-443.23-989.987-989.99S453.245,10.015,1000,10.015,1989.99,453.248,1989.99,1000,1546.75,1989.99,1000,1989.99Zm0-1762.858c-426.844,0-772.87,346.026-772.87,772.868S573.156,1772.87,1000,1772.87s772.87-346.02,772.87-772.87S1426.84,227.132,1000,227.132Z"/>
  <path id="check_1" data-name="check 1" class="cls-2" d="M1536.01,792.738L976,1366.44h-0.687c-23.728,27.03-64.858,44.93-111.661,44.93s-87.934-17.9-111.661-44.93H751.3l-295.67-281.61c-0.817-.86-34.888-41.07-33.042-76.94,0-59.655,48.394-109.594,108.044-108.016,54.953,1.548,92.348,44.425,92.348,44.425l218.2,218.231L1370.89,634.3c1.13-1.7,19.91-20.28,43.38-33.067,15.6-8.5,33.29-13.684,49.15-12.4a114.059,114.059,0,0,1,114.07,114.049C1577.49,753.884,1536.01,792.738,1536.01,792.738Z"/>
</svg>
