<svg xmlns="http://www.w3.org/2000/svg" width="2000" height="2000" viewBox="0 0 2000 2000">
  <defs>
    <style>
      .cls-1 {
        fill: #fff;
        fill-rule: evenodd;
      }
    </style>
  </defs>
  <path id="_8K" data-name="8K" class="cls-1" d="M1796,1672H204C93.543,1672,4,1582.46,4,1472V678C4,567.543,93.543,478,204,478H1796c110.46,0,200,89.543,200,200v794C1996,1582.46,1906.46,1672,1796,1672ZM857.934,1027.62q26.958-36.75,26.97-88.284,0-52.37-26.97-90.814t-74.452-59.98Q735.994,767,672.943,767q-62.3,0-110.158,21.542t-74.832,59.98q-26.976,38.451-26.97,90.814,0,51.539,26.97,88.284a153.737,153.737,0,0,0,30.538,31.06,171.026,171.026,0,0,0-46.872,42.43q-29.628,39.285-29.629,95.04,0,56.61,28.869,98.42t80.91,64.62Q603.8,1382.005,672.943,1382q69.123,0,121.175-22.81,52.027-22.8,80.909-64.62,28.864-41.82,28.87-98.42,0-54.9-29.249-94.62a167.194,167.194,0,0,0-46.961-42.95A156.116,156.116,0,0,0,857.934,1027.62ZM1545.85,778.827H1380.99L1175.11,1024.5V778.827H1026.96V1370.18h148.15V1222.04l55.85-66.54,152.31,214.68H1558l-228.2-329.35ZM672.943,1264.58q-36.465,0-58.118-19.43t-21.652-54.07q0-33.78,21.652-53.64t58.118-19.85q36.467,0,58.119,19.85t21.652,53.64q0,34.65-21.652,54.07Q709.41,1264.59,672.943,1264.58Zm0-255.97q-28.114,0-45.582-16.475-17.486-16.473-17.474-45.2,0-30.411,17.854-46.463t45.2-16.051q27.351,0,45.583,16.051T736.759,946.1q0,28.728-17.853,45.618Q701.047,1008.629,672.943,1008.61Z"/>
</svg>
