<svg xmlns="http://www.w3.org/2000/svg" width="2000" height="2000" viewBox="0 0 2000 2000">
  <defs>
    <style>
      .cls-1 {
        fill: #fff;
        fill-rule: evenodd;
      }
    </style>
  </defs>
  <path id="CC" class="cls-1" d="M204,479H1796c110.46,0,200,89.543,200,200v792c0,110.46-89.54,200-200,200H204C93.543,1671,4,1581.46,4,1471V679C4,568.543,93.543,479,204,479Zm50,130H1747a120,120,0,0,1,120,120v693a120.005,120.005,0,0,1-120,120H254a120,120,0,0,1-120-120V729A120,120,0,0,1,254,609Zm615.789,737.27q56.6-27.93,94.331-81.38L870.9,1171.17q-25.161,33.72-55.489,50.97-30.346,17.265-66.587,17.26-31.819,0-58.448-11.51a124.768,124.768,0,0,1-45.5-33.29q-18.867-21.765-29.594-52.2-10.734-30.4-10.728-67.41,0-36.99,10.728-67.41,10.716-30.4,29.594-52.2a125.19,125.19,0,0,1,45.5-33.294q26.634-11.5,58.448-11.508,36.242,0,66.587,17.263,30.327,17.263,55.489,50.145l93.221-93.714q-37.732-53.427-94.331-80.973T741.425,775.763q-61.42,0-113.2,21.785A268.976,268.976,0,0,0,537.965,859.2q-38.478,39.882-59.927,94.948-21.468,55.083-21.456,120.84,0,65.775,21.456,120.84,21.45,55.1,59.927,94.95a268.688,268.688,0,0,0,90.262,61.66q51.779,21.765,113.2,21.78Q813.179,1374.22,869.789,1346.27Zm579.3,0q56.6-27.93,94.33-81.38l-93.22-93.72q-25.17,33.72-55.49,50.97-30.345,17.265-66.59,17.26-31.815,0-58.45-11.51a124.848,124.848,0,0,1-45.5-33.29q-18.87-21.765-29.59-52.2-10.74-30.4-10.73-67.41,0-36.99,10.73-67.41,10.71-30.4,29.59-52.2a125.271,125.271,0,0,1,45.5-33.294q26.64-11.5,58.45-11.508,36.24,0,66.59,17.263,30.33,17.263,55.49,50.145l93.22-93.714q-37.74-53.427-94.33-80.973-56.61-27.533-128.37-27.539-61.41,0-113.19,21.785a268.9,268.9,0,0,0-90.27,61.654q-38.475,39.882-59.92,94.948-21.48,55.083-21.46,120.84,0,65.775,21.46,120.84,21.45,55.1,59.92,94.95a268.611,268.611,0,0,0,90.27,61.66q51.765,21.765,113.19,21.78Q1392.48,1374.22,1449.09,1346.27Z"/>
</svg>
