<svg xmlns="http://www.w3.org/2000/svg" width="5196" height="625" viewBox="0 0 5196 625">
  <defs>
    <style>
      .cls-1 {
        fill: #36b548;
      }

      .cls-1, .cls-2 {
        fill-rule: evenodd;
      }

      .cls-2 {
        fill: #fff;
      }

      .cls-3 {
        fill: #e30613;
      }

      .cls-4 {
        fill: #f39200;
      }

      .cls-5 {
        fill: #95c11f;
      }

      .cls-6 {
        fill: #009640;
      }

      .cls-7 {
        fill: #009fe3;
      }

      .cls-8 {
        fill: #004899;
      }

      .cls-9 {
        fill: #662483;
      }

      .cls-10 {
        fill: #e6007e;
      }

      .cls-11 {
        fill: #e50051;
      }
    </style>
  </defs>
  <g>
    <path id="circleAI_1" data-name="circleAI 1" class="cls-1" d="M224.8,443.852A129.887,129.887,0,1,1,351.646,311,129.886,129.886,0,0,1,224.8,443.852Zm-5.35-231.225a101.4,101.4,0,1,0,103.719,99.027A101.4,101.4,0,0,0,219.449,212.627Z"/>
    <path id="check_1" data-name="check 1" class="cls-2" d="M291.471,285.187l-71.713,76.95-0.09,0c-3.03,3.618-8.371,6.09-14.51,6.232s-11.588-2.08-14.782-5.554l-0.09,0-39.637-36.04c-0.109-.11-4.7-5.281-4.567-9.991a14.045,14.045,0,0,1,13.844-14.5c7.212,0.036,12.247,5.546,12.247,5.546L201.456,335.8l67.876-70.894a24.57,24.57,0,0,1,5.591-4.469,11.985,11.985,0,0,1,6.407-1.776,14.967,14.967,0,0,1,15.31,14.613C296.794,279.965,291.471,285.187,291.471,285.187Z"/>
  </g>
  <path id="_8K" data-name="8K" class="cls-2" d="M2700.07,492.5H2225.45a59.629,59.629,0,0,1-59.63-59.625V196.16a59.63,59.63,0,0,1,59.63-59.626h474.62a59.622,59.622,0,0,1,59.62,59.626V432.872A59.621,59.621,0,0,1,2700.07,492.5ZM2420.4,300.389q8.04-10.954,8.04-26.318,0-15.614-8.04-27.074a53.317,53.317,0,0,0-22.19-17.882q-14.16-6.422-32.96-6.422-18.57,0-32.84,6.422T2310.1,247q-8.04,11.463-8.04,27.074,0,15.365,8.04,26.318a45.9,45.9,0,0,0,9.11,9.263,51.111,51.111,0,0,0-13.98,12.648q-8.835,11.712-8.83,28.334,0,16.875,8.61,29.341,8.595,12.466,24.12,19.266,15.51,6.8,36.12,6.8t36.13-6.8q15.51-6.8,24.12-19.266t8.61-29.341q0-16.37-8.72-28.208a49.989,49.989,0,0,0-14-12.8A46.465,46.465,0,0,0,2420.4,300.389Zm205.09-74.17h-49.15l-61.38,73.24v-73.24H2470.8v176.3h44.16V358.351l16.65-19.837,45.41,64h52.09l-68.03-98.185ZM2365.25,371.034q-10.86,0-17.32-5.793t-6.46-16.118q0-10.071,6.46-15.993t17.32-5.918q10.875,0,17.33,5.918t6.45,15.993q0,10.329-6.45,16.118T2365.25,371.034Zm0-76.311q-8.37,0-13.59-4.911-5.2-4.913-5.21-13.475,0-9.066,5.33-13.851a19.387,19.387,0,0,1,13.47-4.786,19.817,19.817,0,0,1,13.59,4.786q5.445,4.787,5.44,13.6,0,8.563-5.32,13.6T2365.25,294.723Z"/>
  <path id="CC" class="cls-2" d="M4227.7,520.777H3678.05a69.057,69.057,0,0,1-69.06-69.053V178.276a69.057,69.057,0,0,1,69.06-69.053H4227.7a69.057,69.057,0,0,1,69.06,69.053V451.724A69.057,69.057,0,0,1,4227.7,520.777Zm24.52-325.238a41.431,41.431,0,0,0-41.43-41.431H3695.31a41.431,41.431,0,0,0-41.43,41.431V434.806a41.432,41.432,0,0,0,41.43,41.432h515.48a41.432,41.432,0,0,0,41.43-41.432V195.539ZM4048.1,365.725a52.927,52.927,0,0,0,19.29,14.114,61.738,61.738,0,0,0,24.78,4.879,56.056,56.056,0,0,0,28.22-7.319q12.87-7.319,23.53-21.606l39.52,39.728a105.744,105.744,0,0,1-39.99,34.5q-24,11.842-54.42,11.849a122.6,122.6,0,0,1-47.99-9.235,113.848,113.848,0,0,1-38.26-26.138,119.681,119.681,0,0,1-25.41-40.252q-9.1-23.343-9.09-51.229t9.09-51.229a119.8,119.8,0,0,1,25.41-40.252,114,114,0,0,1,38.26-26.137,122.6,122.6,0,0,1,47.99-9.235q30.42,0,54.42,11.674a104.4,104.4,0,0,1,39.99,34.327L4143.92,273.9q-10.665-13.933-23.53-21.258a56.056,56.056,0,0,0-28.22-7.319,61.841,61.841,0,0,0-24.78,4.879,53.044,53.044,0,0,0-19.29,14.115,67.932,67.932,0,0,0-12.55,22.129,92.016,92.016,0,0,0,0,57.154A67.823,67.823,0,0,0,4048.1,365.725Zm-245.59,0a53.1,53.1,0,0,0,19.29,14.114,61.773,61.773,0,0,0,24.78,4.879,56.12,56.12,0,0,0,28.23-7.319q12.855-7.319,23.52-21.606l39.52,39.728a105.6,105.6,0,0,1-39.99,34.5q-23.985,11.842-54.41,11.849a122.56,122.56,0,0,1-47.99-9.235,113.888,113.888,0,0,1-38.27-26.138,119.813,119.813,0,0,1-25.4-40.252q-9.105-23.343-9.1-51.229t9.1-51.229a119.932,119.932,0,0,1,25.4-40.252,114.045,114.045,0,0,1,38.27-26.137,122.56,122.56,0,0,1,47.99-9.235q30.4,0,54.41,11.674a104.253,104.253,0,0,1,39.99,34.327L3898.33,273.9q-10.665-13.933-23.52-21.258a56.12,56.12,0,0,0-28.23-7.319,61.875,61.875,0,0,0-24.78,4.879,53.212,53.212,0,0,0-19.29,14.115,67.912,67.912,0,0,0-12.54,22.129,92.016,92.016,0,0,0,0,57.154A67.8,67.8,0,0,0,3802.51,365.725Z"/>
  <path id="SDH" class="cls-2" d="M5008.7,520.777H4459.05a69.057,69.057,0,0,1-69.06-69.053V178.276a69.057,69.057,0,0,1,69.06-69.053H5008.7a69.057,69.057,0,0,1,69.06,69.053V451.724A69.057,69.057,0,0,1,5008.7,520.777Zm24.52-325.238a41.431,41.431,0,0,0-41.43-41.431H4476.31a41.431,41.431,0,0,0-41.43,41.431V434.806a41.432,41.432,0,0,0,41.43,41.432h515.48a41.432,41.432,0,0,0,41.43-41.432V195.539ZM4934.49,390.42V319.749h-66.35V390.42h-34.12V218.051h34.12v67.963h66.35V218.051h33.91V390.42h-33.91ZM4761.4,379.709q-18.21,10.712-42.07,10.711h-66.56V218.051h66.56q23.85,0,42.07,10.712a74.656,74.656,0,0,1,28.46,30.041q10.26,19.334,10.26,45.432t-10.26,45.431A74.633,74.633,0,0,1,4761.4,379.709Zm-1.57-104.037a43.886,43.886,0,0,0-16.75-18.591q-10.785-6.522-25.43-6.526h-30.77V357.916h30.77q14.655,0,25.43-6.525a43.714,43.714,0,0,0,16.75-18.714q5.955-12.189,5.96-28.441Q4765.79,287.742,4759.83,275.672ZM4593.75,385.988q-13.815,7.387-34.54,7.387a103.842,103.842,0,0,1-33.8-5.54q-16.23-5.541-26.06-14.4l11.51-30.042a76.147,76.147,0,0,0,22.19,12.928,71.631,71.631,0,0,0,26.16,5.048q10.05,0,16.22-2.463a19.963,19.963,0,0,0,9.11-6.525,15.8,15.8,0,0,0,2.93-9.48,13.884,13.884,0,0,0-4.61-10.958,35.518,35.518,0,0,0-12.24-6.649q-7.65-2.585-16.64-4.924t-18.11-5.664a68.1,68.1,0,0,1-16.74-8.865,39.266,39.266,0,0,1-12.14-14.528q-4.5-8.985-4.5-22.531a55,55,0,0,1,6.7-26.963q6.69-12.189,20.4-19.453t34.43-7.265a97.163,97.163,0,0,1,27.32,3.94,74.749,74.749,0,0,1,23.55,11.327L4604.21,260.4a78.932,78.932,0,0,0-20.3-9.973,66.348,66.348,0,0,0-20.09-3.324q-10.05,0-16.12,2.585a18.949,18.949,0,0,0-8.9,7.018,17.978,17.978,0,0,0-2.82,9.85,14.248,14.248,0,0,0,4.6,11.081,31.746,31.746,0,0,0,12.14,6.525c5.03,1.562,10.6,3.12,16.75,4.679a165.294,165.294,0,0,1,18.21,5.786,76.055,76.055,0,0,1,16.53,8.742,39.518,39.518,0,0,1,12.25,14.282q4.7,8.991,4.7,22.285a53.254,53.254,0,0,1-6.8,26.594Q4607.565,378.6,4593.75,385.988Z"/>
  <path id="TV-MA" class="cls-2" d="M3450.95,478.215H2917.57a47.422,47.422,0,0,1-47.42-47.426V232.551a47.422,47.422,0,0,1,47.42-47.426h533.38a47.424,47.424,0,0,1,47.43,47.426V430.789A47.424,47.424,0,0,1,3450.95,478.215Zm21.5-239.025a25.291,25.291,0,0,0-25.29-25.294H2921.68a25.291,25.291,0,0,0-25.29,25.294V424.15a25.291,25.291,0,0,0,25.29,25.294h525.48a25.291,25.291,0,0,0,25.29-25.294V239.19Zm-57.1,127.181h-42.21l-7.85,21.709h-28.8l44.06-110.922h27.81l44.21,110.922H3423.2Zm-21.1-58.444-12.82,35.467h25.63Zm-100.51,21.3-25.71,47.918h-12.55l-25.53-46.272V388.08H3204V277.158h23.24l35.02,64.086,34.3-64.086h23.24l0.14,110.922h-25.95Zm-156.91,1.965h41.64v23.293h-41.64V331.193Zm-80.01,56.887-42.64-110.922h30.38l27.18,72.349,27.73-72.349h27.95L3084.63,388.08h-27.81Zm-77.86,0h-28.24V302.036h-30.66V277.158h89.42v24.878h-30.52V388.08Z"/>
  <g>
    <g>
      <rect class="cls-3" x="471" y="367.281" width="153.5" height="153.5"/>
      <rect id="Rectangle_1_copy" data-name="Rectangle 1 copy" class="cls-4" x="624.5" y="367.281" width="153.438" height="153.5"/>
      <rect id="Rectangle_1_copy_2" data-name="Rectangle 1 copy 2" class="cls-5" x="777.156" y="367.281" width="153.563" height="153.5"/>
      <rect id="Rectangle_1_copy_3" data-name="Rectangle 1 copy 3" class="cls-6" x="929.906" y="367.281" width="153.474" height="153.5"/>
      <rect id="Rectangle_1_copy_4" data-name="Rectangle 1 copy 4" class="cls-7" x="1083.38" y="367.281" width="153.53" height="153.5"/>
      <rect id="Rectangle_1_copy_5" data-name="Rectangle 1 copy 5" class="cls-8" x="1236.91" y="367.281" width="153.53" height="153.5"/>
      <rect id="Rectangle_1_copy_6" data-name="Rectangle 1 copy 6" class="cls-9" x="1389.62" y="367.281" width="153.5" height="153.5"/>
      <rect id="Rectangle_1_copy_7" data-name="Rectangle 1 copy 7" class="cls-10" x="1542.31" y="367.281" width="153.53" height="153.5"/>
      <rect id="Rectangle_1_copy_8" data-name="Rectangle 1 copy 8" class="cls-11" x="1695.06" y="367.281" width="153.47" height="153.5"/>
      <rect id="Rectangle_1_copy_9" data-name="Rectangle 1 copy 9" class="cls-3" x="1847.75" y="367.281" width="153.53" height="153.5"/>
    </g>
    <path id="Shape_346_1" data-name="Shape 346 1" class="cls-2" d="M737.942,81.491c8.634,0.381,16.113,2.535,19.622,10.052,6.207,18.558.9,35.9-24.052,33.836-12.494-1.468-19.395-9.564-17.207-24.666,0.675-4.663.92-7.915,2.9-11.057,2.736-4.351,7.6-6.761,13.63-7.825Zm-219.1,4.933h51.281L613.06,293.449H571.149l-0.171-.34q-4.513-23.473-9.029-46.951H522.422q-4.939,23.643-9.881,47.291H470.97l0.171-.34Q494.99,189.777,518.845,86.424Zm372.09,135.238q0.086,25,.171,50.013,1.022,10.886,2.044,21.774h-29.3c-2.531,0-7.187.675-9.03-.34L852.6,278.65H851.75c-9.78,13.921-32.269,23-53.667,13.438-13.774-6.152-21.237-19.4-23.852-36.914-1.04-6.962.453-14.834,2.044-20.073,8.942-29.423,37.366-38.261,71.216-42.868-0.12-23.47-21.952-24.938-41.912-18.712-4.877,1.521-9.052,4.073-13.459,5.954l-7.837-27.218c17.428-10.374,60.41-17.046,81.437-5.1,14.9,8.463,22.686,22.364,24.7,43.718l31.178-1.02L897.58,128.1c-2.039-6.479-6.558-18.985.851-23.3,8.329-3.24,20.684,1.718,26.578,8.846,5.03,5.183,9.619,14.305,13.289,22.624q7.155,16.755,14.311,33.512,3.748,9.782,7.5,19.563l33.733,0.681c9.481,0.34,18.351.535,28.451,1.02s26.23,1.462,28.28,14.63a15.323,15.323,0,0,1-2.89,11.227c-8.05,11.542-21.22,9.492-37.14,6.975L990.6,222.343l-18.4-.681q4.089,12.076,8.178,24.156c4.913,14.114,8.551,28.6,12.778,43.379,3.669,12.83,4.666,25.7-7.5,29.939-12.319,4.3-20.084-5.116-23.852-12.418-6.9-13.37-9.876-29.625-14.992-45.079q-6.643-20.243-13.289-40.487ZM542.7,124.529q-5.452,31.808-10.9,63.621-2.556,13.353-5.111,26.708H558.03q-1.7-10.035-3.407-20.073-5.452-35.04-10.9-70.086l-0.171-.17H542.7Zm164.067,56.817c-37.259-1.273-36.972,20.527-36.97,56.647v55.456H626.86V174.882q-0.6-15.819-1.193-31.641l36.971,0.17q1.107,10.971,2.215,21.944h1.363c3.8-11.428,12.455-21.012,25.044-23.815,1.57-.35,14.677-1.177,15.5,0v39.806Zm10.393-38.1H760.09V293.449H717.157V143.241Zm129.652,79.612-9.2.851c-8.764,1.846-16.846,5.753-20.956,12.248-3.139,3.574-4.1,23.789,5.282,28.578a16.879,16.879,0,0,0,10.563,1.7c14.571-2.336,16.185-12.087,16.185-29.088q-0.086-7.145-.17-14.29h-1.7Z"/>
  </g>
</svg>
