<svg xmlns="http://www.w3.org/2000/svg" width="7673" height="625" viewBox="0 0 7673 625">
  <defs>
    <style>
      .cls-1 {
        fill: #fff;
      }

      .cls-1, .cls-2 {
        fill-rule: evenodd;
      }

      .cls-2 {
        fill: #36b548;
      }

      .cls-3 {
        fill: #e30613;
      }

      .cls-4 {
        fill: #f39200;
      }

      .cls-5 {
        fill: #95c11f;
      }

      .cls-6 {
        fill: #009640;
      }

      .cls-7 {
        fill: #009fe3;
      }

      .cls-8 {
        fill: #004899;
      }

      .cls-9 {
        fill: #662483;
      }

      .cls-10 {
        fill: #e6007e;
      }

      .cls-11 {
        fill: #e50051;
      }
    </style>
  </defs>
  <path id="MASTER_AUDIO" data-name="MASTER AUDIO" class="cls-1" d="M7092.17,588.168V36.832h411.52V588.168H7092.17ZM7471.05,72.117h-345.8V152.3a415.2,415.2,0,0,1,127.55-35.077c49.37-5.293,99.78-1.715,150.6,11.368q-1.41,4.781-2.85,9.559a408.7,408.7,0,0,0-146.68-11.1,404.273,404.273,0,0,0-128.62,36.2v391.4h345.8V72.117ZM7186.92,425.544l13.86-25.928h12.12l0.12,48.716h-13.43l-0.11-22.221-9.51,17.837h-6.5l-9.5-17.067v21.451h-13.43V399.616h12.12Zm29.98,39.573,19.11,48.716h-15.24l-2.93-8.491h-16.63l-2.93,8.491h-15l19.12-48.716h14.5Zm-3.14,28.394-4.24-12.271-4.23,12.271h8.47Zm38.06-2.088q0,5.57,1.81,7.9a6.293,6.293,0,0,0,9.78,0q1.785-2.331,1.78-7.9V465.117h14.5v26.794q0,10.926-5.63,16.98-5.61,6.055-15.68,6.055-10.05,0-15.68-6.055t-5.62-16.98V465.117h14.74v26.306Zm69.04-23.348a21.39,21.39,0,0,1,8.68,8.386,25.448,25.448,0,0,1,3.13,12.944,25.788,25.788,0,0,1-3.13,13.049,21.322,21.322,0,0,1-8.68,8.421,27.013,27.013,0,0,1-12.87,2.958h-21.56V465.117h21.56A27.013,27.013,0,0,1,7320.86,468.075Zm-19.68,9.847v23.1h6.18a10.918,10.918,0,0,0,5.47-1.322,9.08,9.08,0,0,0,3.66-3.932,14.127,14.127,0,0,0,1.31-6.368,13.736,13.736,0,0,0-1.31-6.263,9.131,9.131,0,0,0-3.66-3.9,10.939,10.939,0,0,0-5.47-1.322h-6.18Zm19.24-29.59v-35.98h-12.81V399.616h40.37v12.736h-12.81v35.98h-14.75Zm32.37,65.5h-14.75V465.117h14.75v48.716Zm12.37-42.627a22.866,22.866,0,0,1,7.84-5.324,26.783,26.783,0,0,1,19.71,0,23.033,23.033,0,0,1,7.81,5.324,24.684,24.684,0,0,1,5.15,8.073,28.923,28.923,0,0,1,0,20.356,24.581,24.581,0,0,1-5.15,8.108,23.019,23.019,0,0,1-7.81,5.324,26.783,26.783,0,0,1-19.71,0,22.852,22.852,0,0,1-7.84-5.324,24.605,24.605,0,0,1-5.16-8.108,29.07,29.07,0,0,1,0-20.356A24.709,24.709,0,0,1,7365.16,471.206Zm8.62,23.384a11.15,11.15,0,0,0,2.09,3.828,9.4,9.4,0,0,0,3.12,2.4,9.27,9.27,0,0,0,7.69,0,9.2,9.2,0,0,0,3.12-2.4,11.166,11.166,0,0,0,2.1-3.828,17.817,17.817,0,0,0,0-10.23,11.166,11.166,0,0,0-2.1-3.828,9.187,9.187,0,0,0-3.12-2.4,9.27,9.27,0,0,0-7.69,0,9.383,9.383,0,0,0-3.12,2.4,11.15,11.15,0,0,0-2.09,3.828A17.817,17.817,0,0,0,7373.78,494.59Zm20.05-46.258V399.616h21.06a23.505,23.505,0,0,1,10.59,2.227,16.158,16.158,0,0,1,6.9,6.368,18.881,18.881,0,0,1,2.44,9.778,18.509,18.509,0,0,1-2.44,9.709,15.7,15.7,0,0,1-5.8,5.651l9.18,14.983h-15.75l-7.42-12.248h-4.01v12.248h-14.75Zm20.12-24.636a6.018,6.018,0,0,0,4.53-1.531,6.665,6.665,0,0,0,0-8.351,6.021,6.021,0,0,0-4.53-1.531h-5.37V423.7h5.37Zm17.14-257.035c-0.62-3.715-.06-7.849-0.12-11.9-0.03-3.279-.07-6.56-0.1-9.84l-5.16-1.582c-3.94-1.245-8.21-2.583-11.85-3.324-3.38-.687-4.81-1.469-4.75-3.461a4.674,4.674,0,0,1,2.52-3.967c1.74-.635,4.02.232,6.31,0.593,0.86,0.273,1.73.546,2.59,0.819,1.77,0.479,3.53.959,5.3,1.439l4.5,1.283c0.02-.024.05-0.048,0.07-0.072-0.11-1.481-.22-2.963-0.32-4.444-0.33-3.877-.59-7.65-0.73-11.577-0.05-1.465-.13-4.773,1.56-5.389a5.1,5.1,0,0,1,1.29-.062c4.7,1.458,5.34,5.164,5.86,8.809,0.49,3.464.76,7.085,1.06,10.656,0.1,1.21.21,3.953,0.35,4.825,1.33,0.428,4.04,1.325,5.55,1.8l6.6,2.32c0.6,0.2,1.19.405,1.78,0.607,1.83,0.926,3.58,1.393,4.79,2.587a3.514,3.514,0,0,1,.66,4.271c-2.26,3.837-6.3,2.392-10.24.129-1.41-.556-2.83-1.112-4.24-1.667-0.6-.3-4.22-1.487-4.59-1.591l0.12,6.109c0.11,3.747.07,7.64-.2,11.563-0.25,3.531-1.03,6.178-4.46,5.968C7432.19,171.381,7431.41,168.577,7431.09,166.661Zm-79.3,232.955h35.55V412h-21.06v5.707h18.49v11.831h-18.49v6.4h21.87v12.387h-36.36V399.616Zm-53.67,47.568a25.1,25.1,0,0,1-11.31,2.262,40.263,40.263,0,0,1-10.62-1.392,28.466,28.466,0,0,1-8.44-3.619l4.75-11.97a28.753,28.753,0,0,0,6.97,3.236,24.631,24.631,0,0,0,7.46,1.218,14.112,14.112,0,0,0,3.35-.313,3.708,3.708,0,0,0,1.78-.9,2.015,2.015,0,0,0,.56-1.427,2.34,2.34,0,0,0-1.31-2.087,13.117,13.117,0,0,0-3.47-1.288c-1.44-.348-3.01-0.719-4.72-1.113a40.431,40.431,0,0,1-5.15-1.566,19.37,19.37,0,0,1-4.75-2.575,11.694,11.694,0,0,1-3.47-4.211,14.475,14.475,0,0,1-1.31-6.507,15.488,15.488,0,0,1,2.28-8.247,16,16,0,0,1,6.81-5.95,25.473,25.473,0,0,1,11.28-2.227,37.078,37.078,0,0,1,8.75,1.044,25.956,25.956,0,0,1,7.74,3.2l-4.43,11.9a31.62,31.62,0,0,0-6.28-2.714,20.609,20.609,0,0,0-5.91-.905,10.981,10.981,0,0,0-3.37.417,3.615,3.615,0,0,0-1.78,1.114,2.43,2.43,0,0,0-.53,1.531,2.217,2.217,0,0,0,1.31,1.983,13.061,13.061,0,0,0,3.47,1.218c1.43,0.326,3.02.673,4.75,1.044a35.9,35.9,0,0,1,5.15,1.531,19.614,19.614,0,0,1,4.72,2.575,11.761,11.761,0,0,1,3.46,4.176,13.949,13.949,0,0,1,1.32,6.4,15.359,15.359,0,0,1-2.28,8.177A16.238,16.238,0,0,1,7298.12,447.184Zm-45.24,1.148-2.93-8.49h-16.63l-2.93,8.49H7215.4l19.11-48.716h14.5l19.12,48.716h-15.25Zm-11.24-32.592-4.24,12.271h8.47Z"/>
  <g>
    <path id="circleAI_1" data-name="circleAI 1" class="cls-2" d="M224.8,443.852A129.887,129.887,0,1,1,351.646,311,129.887,129.887,0,0,1,224.8,443.852Zm-5.351-231.225a101.4,101.4,0,1,0,103.719,99.027A101.4,101.4,0,0,0,219.448,212.627Z"/>
    <path id="check_1" data-name="check 1" class="cls-1" d="M291.471,285.187l-71.713,76.95-0.09,0c-3.03,3.618-8.371,6.09-14.51,6.232s-11.588-2.08-14.783-5.554l-0.09,0-39.636-36.04c-0.11-.11-4.7-5.281-4.567-9.991a14.043,14.043,0,0,1,13.843-14.5c7.212,0.036,12.248,5.546,12.248,5.546L201.455,335.8l67.877-70.894a24.527,24.527,0,0,1,5.59-4.469,11.988,11.988,0,0,1,6.407-1.776,14.966,14.966,0,0,1,15.31,14.613C296.794,279.965,291.471,285.187,291.471,285.187Z"/>
  </g>
  <path id="_8K" data-name="8K" class="cls-1" d="M2700.07,492.5H2225.45a59.629,59.629,0,0,1-59.63-59.625V196.16a59.63,59.63,0,0,1,59.63-59.626h474.62a59.628,59.628,0,0,1,59.62,59.626V432.872A59.627,59.627,0,0,1,2700.07,492.5ZM2420.4,300.389q8.04-10.954,8.04-26.318,0-15.614-8.04-27.074a53.317,53.317,0,0,0-22.19-17.882q-14.16-6.422-32.96-6.422-18.57,0-32.84,6.422T2310.1,247q-8.04,11.463-8.04,27.074,0,15.365,8.04,26.318a45.634,45.634,0,0,0,9.11,9.263,51.111,51.111,0,0,0-13.98,12.648q-8.835,11.712-8.83,28.334,0,16.875,8.61,29.341,8.595,12.466,24.12,19.266,15.51,6.8,36.12,6.8t36.13-6.8q15.51-6.8,24.12-19.266t8.61-29.341q0-16.37-8.72-28.208a49.989,49.989,0,0,0-14-12.8A46.465,46.465,0,0,0,2420.4,300.389Zm205.09-74.17h-49.15l-61.38,73.24v-73.24H2470.8v176.3h44.16V358.351l16.65-19.837,45.41,64h52.09l-68.03-98.185ZM2365.25,371.034q-10.875,0-17.32-5.793-6.465-5.79-6.46-16.118,0-10.071,6.46-15.993t17.32-5.918q10.875,0,17.33,5.918t6.45,15.993q0,10.329-6.45,16.118T2365.25,371.034Zm0-76.311q-8.385,0-13.59-4.912t-5.21-13.474q0-9.066,5.33-13.852a19.391,19.391,0,0,1,13.47-4.785,19.821,19.821,0,0,1,13.59,4.785q5.445,4.788,5.44,13.6,0,8.563-5.32,13.6T2365.25,294.723Z"/>
  <path id="TV-MA" class="cls-1" d="M3450.95,478.215H2917.57a47.422,47.422,0,0,1-47.42-47.426V232.551a47.422,47.422,0,0,1,47.42-47.426h533.38a47.431,47.431,0,0,1,47.43,47.426V430.789A47.431,47.431,0,0,1,3450.95,478.215Zm21.5-239.025a25.291,25.291,0,0,0-25.29-25.294H2921.68a25.291,25.291,0,0,0-25.29,25.294V424.15a25.29,25.29,0,0,0,25.29,25.293h525.48a25.29,25.29,0,0,0,25.29-25.293V239.19Zm-57.1,127.181h-42.21l-7.85,21.709h-28.8l44.06-110.922h27.81l44.21,110.922H3423.2Zm-21.11-58.444-12.81,35.467h25.63Zm-100.5,21.3-25.71,47.918h-12.55l-25.53-46.272V388.08H3204V277.158h23.24l35.02,64.086,34.29-64.086h23.25l0.14,110.922h-25.95Zm-156.91,1.965h41.64v23.293h-41.64V331.193Zm-80.01,56.887-42.64-110.922h30.38l27.18,72.349,27.72-72.349h27.96L3084.63,388.08h-27.81Zm-77.86,0h-28.24V302.036h-30.66V277.158h89.42v24.878h-30.52V388.08Z"/>
  <path id="TV-MA_copy" data-name="TV-MA copy" class="cls-1" d="M4168.59,491H3635.4c-26.18,0-47.41-23.617-47.41-52.75V187.75c0-29.133,21.23-52.75,47.41-52.75h533.19c26.19,0,47.41,23.617,47.41,52.75v250.5C4216,467.379,4194.78,491,4168.59,491Zm21.5-295.861c0-15.538-11.32-28.133-25.29-28.133H3639.51c-13.97,0-25.29,12.6-25.29,28.133V430.861c0,15.537,11.32,28.133,25.29,28.133H4164.8c13.97,0,25.29-12.6,25.29-28.133V195.135Z"/>
  <path id="SDH" class="cls-1" d="M4860.59,493H4327.4c-26.18,0-47.41-23.617-47.41-52.75V189.75c0-29.133,21.23-52.75,47.41-52.75h533.19c26.19,0,47.41,23.617,47.41,52.75v250.5C4908,469.379,4886.78,493,4860.59,493ZM4497.33,322.254a30.521,30.521,0,0,0-10.45-10.361,69.489,69.489,0,0,0-14.11-6.342,158.33,158.33,0,0,0-15.54-4.2q-7.86-1.7-14.29-3.395a28.7,28.7,0,0,1-10.36-4.733,9.66,9.66,0,0,1-3.93-8.039,11.618,11.618,0,0,1,2.41-7.146,15.941,15.941,0,0,1,7.59-5.091q5.175-1.875,13.76-1.875a65.691,65.691,0,0,1,17.14,2.411,72.747,72.747,0,0,1,17.33,7.235l9.11-21.794a68.93,68.93,0,0,0-20.09-8.217,96.664,96.664,0,0,0-23.32-2.858q-17.685,0-29.38,5.269t-17.42,14.113a35.294,35.294,0,0,0-5.72,19.561q0,9.826,3.85,16.345a30.121,30.121,0,0,0,10.36,10.539,62.093,62.093,0,0,0,14.29,6.431q7.77,2.412,15.45,4.109t14.2,3.573a32.173,32.173,0,0,1,10.45,4.823,9.425,9.425,0,0,1,3.93,7.949,10.289,10.289,0,0,1-2.5,6.878,17.185,17.185,0,0,1-7.77,4.734,44.1,44.1,0,0,1-13.84,1.786,70.664,70.664,0,0,1-22.33-3.662,68.449,68.449,0,0,1-18.94-9.378l-9.83,21.793q8.4,6.432,22.24,10.451a103.013,103.013,0,0,0,28.86,4.019q17.685,0,29.47-5.359t17.6-14.113a34.236,34.236,0,0,0,5.8-19.292Q4501.35,328.775,4497.33,322.254ZM4648.9,279.56a59.08,59.08,0,0,0-24.29-21.794Q4609.07,250,4588.7,250h-56.8V375.041h56.8q20.37,0,35.91-7.77a59.066,59.066,0,0,0,24.29-21.794q8.76-14.022,8.76-32.959T4648.9,279.56ZM4790.56,250h-28.94v49.3h-56.63V250h-29.11V375.041h29.11V323.772h56.63v51.269h28.94V250Zm-181.58,96.732q-9.21,4.736-21.71,4.734h-26.26V273.575h26.26q12.51,0,21.71,4.734a34.407,34.407,0,0,1,14.29,13.487q5.085,8.755,5.09,20.722a40.665,40.665,0,0,1-5.09,20.633A34.21,34.21,0,0,1,4608.98,346.727Z"/>
  <path id="_originals_1" data-name="+ originals 1" class="cls-1" d="M6069.79,343.588c-6.71,11.453-18.76,7.141-30.5.385q-6.315-2.487-12.64-4.975c-1.78-.906-12.58-4.438-13.68-4.749l0.36,18.235c0.33,11.185.22,22.8-.6,34.514-0.74,10.539-3.07,18.44-13.3,17.814-9.1-.557-11.42-8.926-12.37-14.645-1.83-11.089-.16-23.428-0.33-35.509l-0.33-29.372-15.37-4.723c-11.74-3.716-24.45-7.71-35.32-9.922-10.07-2.049-14.32-4.384-14.15-10.331,0.15-5.408,4.08-10.593,7.51-11.841,5.2-1.894,11.99.693,18.8,1.77q3.87,1.223,7.73,2.444l15.78,4.3q6.72,1.914,13.42,3.828l0.21-.213-0.96-13.266c-0.99-11.571-1.76-22.834-2.17-34.556-0.16-4.371-.39-14.245,4.67-16.085,1.19-.436,2.39-0.067,3.82-0.184,14,4.352,15.92,15.414,17.46,26.293,1.47,10.339,2.28,21.146,3.18,31.808,0.3,3.609.6,11.8,1.02,14.4,3.98,1.279,12.07,3.957,16.55,5.377q9.84,3.462,19.69,6.926l5.28,1.81c5.46,2.765,10.68,4.157,14.28,7.723C6070.43,333.415,6072.76,338.523,6069.79,343.588Zm-610.9-71.658c-143.47,15.539-283.96,56.9-418.95,125.437q-7.23-13.023-14.35-26.072c138.88-70.333,282.96-112.748,430.1-128.685,147.15-15.8,297.39-5.119,448.84,33.932q-4.185,14.27-8.48,28.534C5748.86,266.944,5602.37,256.527,5458.89,271.93Z"/>
  <path id="_70MM" data-name="70MM" class="cls-1" d="M6938.11,413.528l-0.49-112.313-55.47,92.138h-19.36l-55.42-90.888V413.528h-40.62v-188.3h36.05l70.51,116.895,69.1-116.895h36.31v188.3h-40.61Zm-252-112.313-55.47,92.138h-19.37l-55.41-90.888V413.528h-40.62v-188.3h36.05l70.51,116.895,69.1-116.895h36.31v188.3h-40.62ZM6448.4,405.324q-18.165,11.436-41.56,11.432-23.145,0-41.29-11.432-18.165-11.43-28.79-33.087t-10.62-52.859q0-31.2,10.62-52.858,10.635-21.651,28.79-33.087T6406.84,222q23.4,0,41.56,11.433t28.78,33.087q10.62,21.657,10.63,52.858t-10.63,52.859Q6466.56,393.894,6448.4,405.324Zm-9.42-120.647q-4.71-13.448-12.91-19.771a31.8,31.8,0,0,0-38.06,0q-8.34,6.324-13.18,19.771t-4.85,34.7q0,21.254,4.85,34.7t13.18,19.772a31.8,31.8,0,0,0,38.06,0q8.2-6.318,12.91-19.772t4.71-34.7Q6443.69,298.132,6438.98,284.677ZM6200.24,413.528l67.54-152.792h-62.69v30.935h-38.47V225.228h150.91v28.245l-69.94,160.055h-47.35Z"/>
  <path id="CC" class="cls-1" d="M3869.68,374.3a58.751,58.751,0,0,0,22.46-16.847l-19.02-17.391a44.164,44.164,0,0,1-14.4,11.322,39.661,39.661,0,0,1-17.48,3.895,43.293,43.293,0,0,1-16.31-2.989A37.647,37.647,0,0,1,3803.65,331a46.936,46.936,0,0,1,0-32.969,37.647,37.647,0,0,1,21.28-21.286,43.293,43.293,0,0,1,16.31-2.989,40.486,40.486,0,0,1,17.48,3.8,43.135,43.135,0,0,1,14.4,11.232l19.02-17.391a57.979,57.979,0,0,0-22.46-16.757,80.528,80.528,0,0,0-57.16-.906,65.115,65.115,0,0,0-21.92,13.678,62.782,62.782,0,0,0-14.49,20.832,69.439,69.439,0,0,0,0,52.535,63.392,63.392,0,0,0,14.4,20.832,64.047,64.047,0,0,0,21.83,13.678,75.921,75.921,0,0,0,27.26,4.8A75.094,75.094,0,0,0,3869.68,374.3Zm140.93,0a58.675,58.675,0,0,0,22.46-16.847l-19.02-17.391a44.164,44.164,0,0,1-14.4,11.322,39.6,39.6,0,0,1-17.48,3.895,43.241,43.241,0,0,1-16.3-2.989A37.625,37.625,0,0,1,3944.58,331a46.936,46.936,0,0,1,0-32.969,37.625,37.625,0,0,1,21.29-21.286,43.241,43.241,0,0,1,16.3-2.989,40.423,40.423,0,0,1,17.48,3.8,43.135,43.135,0,0,1,14.4,11.232l19.02-17.391a57.906,57.906,0,0,0-22.46-16.757,80.5,80.5,0,0,0-57.15-.906,65.016,65.016,0,0,0-21.92,13.678,62.782,62.782,0,0,0-14.49,20.832,69.314,69.314,0,0,0,0,52.535,63.31,63.31,0,0,0,36.23,34.51,75.921,75.921,0,0,0,27.26,4.8A75.045,75.045,0,0,0,4010.61,374.3Z"/>
  <g>
    <g>
      <rect class="cls-3" x="471" y="367.281" width="153.5" height="153.5"/>
      <rect id="Rectangle_1_copy" data-name="Rectangle 1 copy" class="cls-4" x="624.5" y="367.281" width="153.438" height="153.5"/>
      <rect id="Rectangle_1_copy_2" data-name="Rectangle 1 copy 2" class="cls-5" x="777.156" y="367.281" width="153.563" height="153.5"/>
      <rect id="Rectangle_1_copy_3" data-name="Rectangle 1 copy 3" class="cls-6" x="929.906" y="367.281" width="153.474" height="153.5"/>
      <rect id="Rectangle_1_copy_4" data-name="Rectangle 1 copy 4" class="cls-7" x="1083.38" y="367.281" width="153.53" height="153.5"/>
      <rect id="Rectangle_1_copy_5" data-name="Rectangle 1 copy 5" class="cls-8" x="1236.91" y="367.281" width="153.53" height="153.5"/>
      <rect id="Rectangle_1_copy_6" data-name="Rectangle 1 copy 6" class="cls-9" x="1389.62" y="367.281" width="153.5" height="153.5"/>
      <rect id="Rectangle_1_copy_7" data-name="Rectangle 1 copy 7" class="cls-10" x="1542.31" y="367.281" width="153.53" height="153.5"/>
      <rect id="Rectangle_1_copy_8" data-name="Rectangle 1 copy 8" class="cls-11" x="1695.06" y="367.281" width="153.47" height="153.5"/>
      <rect id="Rectangle_1_copy_9" data-name="Rectangle 1 copy 9" class="cls-3" x="1847.75" y="367.281" width="153.53" height="153.5"/>
    </g>
    <path id="Shape_346_1" data-name="Shape 346 1" class="cls-1" d="M737.942,81.491c8.633,0.381,16.112,2.535,19.621,10.052,6.207,18.558.9,35.9-24.051,33.836-12.494-1.468-19.395-9.564-17.208-24.666,0.676-4.663.92-7.915,2.9-11.057,2.737-4.351,7.6-6.761,13.63-7.825Zm-219.1,4.933h51.282q21.465,103.5,42.933,207.025H571.148l-0.17-.34q-4.515-23.473-9.03-46.951H522.422q-4.941,23.643-9.882,47.291H470.97l0.171-.34Q494.99,189.777,518.844,86.424Zm372.09,135.238q0.086,25,.171,50.013,1.021,10.886,2.044,21.774h-29.3c-2.532,0-7.188.675-9.03-.34q-1.107-7.228-2.215-14.459h-0.852c-9.779,13.921-32.268,23-53.666,13.438-13.775-6.152-21.237-19.4-23.852-36.914-1.04-6.962.452-14.835,2.044-20.073,8.941-29.423,37.366-38.261,71.215-42.868-0.119-23.47-21.952-24.938-41.911-18.712-4.878,1.521-9.053,4.073-13.46,5.954l-7.836-27.218c17.428-10.374,60.409-17.046,81.437-5.1,14.9,8.463,22.685,22.364,24.7,43.718l31.178-1.021q-12.009-30.871-24.022-61.75c-2.039-6.479-6.557-18.985.852-23.3,8.328-3.24,20.683,1.718,26.578,8.846,5.03,5.183,9.618,14.305,13.289,22.624l14.311,33.512q3.747,9.782,7.5,19.563l33.734,0.681c9.481,0.34,18.351.535,28.451,1.02s26.23,1.462,28.28,14.63a15.323,15.323,0,0,1-2.89,11.227c-8.05,11.542-21.22,9.492-37.15,6.975L990.6,222.343l-18.4-.681,8.177,24.156c4.913,14.114,8.552,28.6,12.778,43.379,3.669,12.83,4.666,25.7-7.5,29.939-12.319,4.3-20.084-5.116-23.852-12.418-6.9-13.37-9.877-29.625-14.993-45.079q-6.644-20.243-13.289-40.487ZM542.7,124.529q-5.451,31.808-10.9,63.621-2.554,13.353-5.111,26.708h31.348q-1.7-10.035-3.407-20.073-5.451-35.04-10.9-70.086c-0.056-.057-0.113-0.114-0.17-0.17H542.7Zm164.068,56.817c-37.259-1.273-36.973,20.527-36.971,56.647v55.456H626.86V174.882q-0.6-15.819-1.193-31.641l36.97,0.17q1.107,10.971,2.215,21.944h1.363c3.8-11.428,12.456-21.012,25.044-23.815,1.57-.35,14.678-1.177,15.5,0v39.806Zm10.392-38.1h42.933V293.449H717.156V143.241Zm129.653,79.612-9.2.851c-8.764,1.846-16.845,5.753-20.955,12.248-3.139,3.574-4.1,23.789,5.282,28.578a16.876,16.876,0,0,0,10.562,1.7c14.571-2.336,16.186-12.087,16.185-29.089q-0.084-7.143-.17-14.289h-1.7Z"/>
  </g>
</svg>
