<svg xmlns="http://www.w3.org/2000/svg" width="7068" height="625" viewBox="0 0 7068 625">
  <defs>
    <style>
      .cls-1 {
        fill: #36b548;
      }

      .cls-1, .cls-2 {
        fill-rule: evenodd;
      }

      .cls-2 {
        fill: #fff;
      }

      .cls-3 {
        fill: #e30613;
      }

      .cls-4 {
        fill: #f39200;
      }

      .cls-5 {
        fill: #95c11f;
      }

      .cls-6 {
        fill: #009640;
      }

      .cls-7 {
        fill: #009fe3;
      }

      .cls-8 {
        fill: #004899;
      }

      .cls-9 {
        fill: #662483;
      }

      .cls-10 {
        fill: #e6007e;
      }

      .cls-11 {
        fill: #e50051;
      }
    </style>
  </defs>
  <g>
    <path id="circleAI_1" data-name="circleAI 1" class="cls-1" d="M224.8,443.852A129.887,129.887,0,1,1,351.646,311,129.886,129.886,0,0,1,224.8,443.852Zm-5.351-231.225a101.4,101.4,0,1,0,103.72,99.027A101.4,101.4,0,0,0,219.448,212.627Z"/>
    <path id="check_1" data-name="check 1" class="cls-2" d="M291.471,285.187l-71.713,76.95-0.09,0c-3.03,3.618-8.371,6.09-14.51,6.232s-11.588-2.08-14.782-5.554l-0.09,0-39.637-36.04c-0.11-.11-4.7-5.281-4.567-9.991a14.044,14.044,0,0,1,13.843-14.5c7.213,0.036,12.248,5.546,12.248,5.546L201.455,335.8l67.877-70.894a24.527,24.527,0,0,1,5.59-4.469,11.991,11.991,0,0,1,6.408-1.776,14.965,14.965,0,0,1,15.309,14.613C296.794,279.965,291.471,285.187,291.471,285.187Z"/>
  </g>
  <path id="_8K" data-name="8K" class="cls-2" d="M2700.07,492.5H2225.45a59.629,59.629,0,0,1-59.63-59.625V196.16a59.63,59.63,0,0,1,59.63-59.626h474.62a59.622,59.622,0,0,1,59.62,59.626V432.872A59.621,59.621,0,0,1,2700.07,492.5ZM2420.4,300.389q8.04-10.954,8.04-26.318,0-15.614-8.04-27.074a53.317,53.317,0,0,0-22.19-17.882q-14.16-6.422-32.96-6.422-18.57,0-32.84,6.422T2310.1,247q-8.04,11.463-8.04,27.074,0,15.365,8.04,26.318a45.634,45.634,0,0,0,9.11,9.263,51.111,51.111,0,0,0-13.98,12.648q-8.835,11.712-8.83,28.334,0,16.875,8.61,29.341,8.595,12.466,24.12,19.266,15.51,6.8,36.12,6.8t36.13-6.8q15.51-6.8,24.12-19.266t8.61-29.341q0-16.37-8.72-28.208a49.989,49.989,0,0,0-14-12.8A46.465,46.465,0,0,0,2420.4,300.389Zm205.09-74.17h-49.15l-61.38,73.24v-73.24H2470.8v176.3h44.16V358.351l16.65-19.837,45.41,64h52.09l-68.03-98.185ZM2365.25,371.034q-10.86,0-17.32-5.793t-6.46-16.118q0-10.071,6.46-15.993t17.32-5.918q10.875,0,17.33,5.918t6.45,15.993q0,10.329-6.45,16.118T2365.25,371.034Zm0-76.311q-8.385,0-13.59-4.912t-5.21-13.474q0-9.066,5.33-13.852a19.391,19.391,0,0,1,13.47-4.785,19.821,19.821,0,0,1,13.59,4.785q5.445,4.788,5.44,13.6,0,8.563-5.32,13.6T2365.25,294.723Z"/>
  <path id="TV-MA" class="cls-2" d="M3450.95,478.215H2917.57a47.422,47.422,0,0,1-47.42-47.426V232.551a47.422,47.422,0,0,1,47.42-47.426h533.38a47.431,47.431,0,0,1,47.43,47.426V430.789A47.431,47.431,0,0,1,3450.95,478.215Zm21.5-239.025a25.291,25.291,0,0,0-25.29-25.294H2921.68a25.291,25.291,0,0,0-25.29,25.294V424.15a25.29,25.29,0,0,0,25.29,25.293h525.48a25.29,25.29,0,0,0,25.29-25.293V239.19Zm-57.1,127.181h-42.21l-7.85,21.709h-28.8l44.06-110.922h27.81l44.21,110.922H3423.2Zm-21.11-58.444-12.81,35.467h25.63Zm-100.5,21.3-25.71,47.918h-12.55l-25.53-46.272V388.08H3204V277.158h23.24l35.02,64.086,34.29-64.086h23.25l0.14,110.922h-25.95Zm-156.91,1.965h41.64v23.293h-41.64V331.193Zm-80.01,56.887-42.64-110.922h30.38l27.18,72.349,27.73-72.349h27.95L3084.63,388.08h-27.81Zm-77.86,0h-28.24V302.036h-30.66V277.158h89.42v24.878h-30.52V388.08Z"/>
  <path id="TV-MA_copy" data-name="TV-MA copy" class="cls-2" d="M4168.59,491H3635.4c-26.18,0-47.41-23.617-47.41-52.75V187.75c0-29.133,21.23-52.75,47.41-52.75h533.19c26.19,0,47.41,23.617,47.41,52.75v250.5C4216,467.379,4194.78,491,4168.59,491Zm21.5-295.861c0-15.538-11.32-28.133-25.29-28.133H3639.51c-13.97,0-25.29,12.6-25.29,28.133V430.861c0,15.537,11.32,28.133,25.29,28.133H4164.8c13.97,0,25.29-12.6,25.29-28.133V195.135Z"/>
  <path id="SDH" class="cls-2" d="M4860.59,493H4327.4c-26.18,0-47.41-23.617-47.41-52.75V189.75c0-29.133,21.23-52.75,47.41-52.75h533.19c26.19,0,47.41,23.617,47.41,52.75v250.5C4908,469.379,4886.78,493,4860.59,493ZM4497.33,322.254a30.521,30.521,0,0,0-10.45-10.361,69.489,69.489,0,0,0-14.11-6.342,158.33,158.33,0,0,0-15.54-4.2q-7.86-1.7-14.29-3.395a28.7,28.7,0,0,1-10.36-4.733,9.66,9.66,0,0,1-3.93-8.039,11.618,11.618,0,0,1,2.41-7.146,15.941,15.941,0,0,1,7.59-5.091q5.175-1.875,13.76-1.875a65.691,65.691,0,0,1,17.14,2.411,72.747,72.747,0,0,1,17.33,7.235l9.11-21.794a68.93,68.93,0,0,0-20.09-8.217,96.664,96.664,0,0,0-23.32-2.858q-17.685,0-29.38,5.269t-17.42,14.113a35.294,35.294,0,0,0-5.72,19.561q0,9.826,3.85,16.345a30.121,30.121,0,0,0,10.36,10.539,62.093,62.093,0,0,0,14.29,6.431q7.77,2.412,15.45,4.109t14.2,3.573a32.173,32.173,0,0,1,10.45,4.823,9.425,9.425,0,0,1,3.93,7.949,10.289,10.289,0,0,1-2.5,6.878,17.185,17.185,0,0,1-7.77,4.734,44.1,44.1,0,0,1-13.84,1.786,70.664,70.664,0,0,1-22.33-3.662,68.422,68.422,0,0,1-18.94-9.378l-9.83,21.793q8.4,6.432,22.25,10.451a102.891,102.891,0,0,0,28.85,4.019q17.685,0,29.47-5.359t17.6-14.113a34.236,34.236,0,0,0,5.8-19.292Q4501.35,328.775,4497.33,322.254ZM4648.9,279.56a59.08,59.08,0,0,0-24.29-21.794Q4609.07,250,4588.7,250h-56.8V375.041h56.8q20.37,0,35.91-7.77a59.066,59.066,0,0,0,24.29-21.794q8.76-14.022,8.76-32.959T4648.9,279.56ZM4790.56,250h-28.94v49.3h-56.63V250h-29.11V375.041h29.11V323.772h56.63v51.269h28.94V250Zm-181.58,96.732q-9.21,4.736-21.71,4.734h-26.26V273.575h26.26q12.51,0,21.71,4.734a34.407,34.407,0,0,1,14.29,13.487q5.085,8.755,5.09,20.722a40.665,40.665,0,0,1-5.09,20.633A34.21,34.21,0,0,1,4608.98,346.727Z"/>
  <path id="_originals_1" data-name="+ originals 1" class="cls-2" d="M6069.79,343.588c-6.71,11.453-18.76,7.141-30.5.385q-6.315-2.487-12.64-4.975c-1.78-.906-12.58-4.438-13.68-4.749l0.36,18.235c0.33,11.185.22,22.8-.6,34.514-0.74,10.539-3.07,18.44-13.3,17.814-9.1-.557-11.42-8.926-12.37-14.645-1.83-11.089-.16-23.428-0.33-35.509l-0.33-29.372-15.37-4.723c-11.74-3.716-24.45-7.71-35.32-9.922-10.07-2.049-14.32-4.384-14.15-10.331,0.15-5.408,4.08-10.593,7.51-11.841,5.2-1.894,11.99.693,18.8,1.77q3.87,1.223,7.73,2.444l15.78,4.3q6.72,1.914,13.42,3.828l0.21-.213-0.96-13.266c-0.99-11.571-1.76-22.834-2.17-34.556-0.16-4.371-.39-14.245,4.67-16.085,1.19-.436,2.39-0.067,3.82-0.184,14,4.352,15.92,15.414,17.46,26.293,1.47,10.339,2.28,21.146,3.18,31.808,0.3,3.609.6,11.8,1.02,14.4,3.98,1.279,12.07,3.957,16.55,5.377q9.855,3.462,19.69,6.926l5.28,1.81c5.46,2.765,10.68,4.157,14.28,7.723C6070.43,333.415,6072.76,338.523,6069.79,343.588Zm-610.9-71.658c-143.47,15.539-283.96,56.9-418.95,125.437q-7.23-13.023-14.35-26.072c138.88-70.333,282.96-112.748,430.1-128.685,147.15-15.8,297.39-5.119,448.84,33.932q-4.185,14.27-8.48,28.534C5748.86,266.944,5602.37,256.527,5458.89,271.93Z"/>
  <path id="_70MM" data-name="70MM" class="cls-2" d="M6938.11,413.528l-0.49-112.313-55.47,92.138h-19.36l-55.42-90.888V413.528h-40.62v-188.3h36.05l70.51,116.895,69.1-116.895h36.31v188.3h-40.61Zm-252-112.313-55.47,92.138h-19.37l-55.41-90.888V413.528h-40.62v-188.3h36.05l70.51,116.895,69.1-116.895h36.31v188.3h-40.62ZM6448.4,405.324q-18.165,11.436-41.56,11.432-23.145,0-41.29-11.432-18.165-11.43-28.79-33.087t-10.62-52.859q0-31.2,10.62-52.858,10.635-21.651,28.79-33.087T6406.84,222q23.4,0,41.56,11.433t28.78,33.087q10.62,21.657,10.63,52.858t-10.63,52.859Q6466.56,393.894,6448.4,405.324Zm-9.42-120.647q-4.71-13.448-12.91-19.771a31.8,31.8,0,0,0-38.06,0q-8.34,6.324-13.18,19.771t-4.84,34.7q0,21.254,4.84,34.7t13.18,19.772a31.8,31.8,0,0,0,38.06,0q8.2-6.318,12.91-19.772t4.71-34.7Q6443.69,298.132,6438.98,284.677ZM6200.24,413.528l67.54-152.792h-62.69v30.935h-38.47V225.228h150.91v28.245l-69.94,160.055h-47.35Z"/>
  <path id="CC" class="cls-2" d="M3869.68,374.3a58.751,58.751,0,0,0,22.46-16.847l-19.02-17.391a44.164,44.164,0,0,1-14.4,11.322,39.661,39.661,0,0,1-17.48,3.895,43.293,43.293,0,0,1-16.31-2.989A37.647,37.647,0,0,1,3803.65,331a46.936,46.936,0,0,1,0-32.969,37.647,37.647,0,0,1,21.28-21.286,43.293,43.293,0,0,1,16.31-2.989,40.486,40.486,0,0,1,17.48,3.8,43.135,43.135,0,0,1,14.4,11.232l19.02-17.391a57.979,57.979,0,0,0-22.46-16.757,80.528,80.528,0,0,0-57.16-.906,65.115,65.115,0,0,0-21.92,13.678,62.782,62.782,0,0,0-14.49,20.832,69.439,69.439,0,0,0,0,52.535,63.392,63.392,0,0,0,14.4,20.832,64.047,64.047,0,0,0,21.83,13.678,75.921,75.921,0,0,0,27.26,4.8A75.094,75.094,0,0,0,3869.68,374.3Zm140.93,0a58.675,58.675,0,0,0,22.46-16.847l-19.02-17.391a44.164,44.164,0,0,1-14.4,11.322,39.6,39.6,0,0,1-17.48,3.895,43.241,43.241,0,0,1-16.3-2.989A37.625,37.625,0,0,1,3944.58,331a46.936,46.936,0,0,1,0-32.969,37.625,37.625,0,0,1,21.29-21.286,43.241,43.241,0,0,1,16.3-2.989,40.423,40.423,0,0,1,17.48,3.8,43.135,43.135,0,0,1,14.4,11.232l19.02-17.391a57.906,57.906,0,0,0-22.46-16.757,80.5,80.5,0,0,0-57.15-.906,65.016,65.016,0,0,0-21.92,13.678,62.782,62.782,0,0,0-14.49,20.832,69.314,69.314,0,0,0,0,52.535,63.31,63.31,0,0,0,36.23,34.51,75.921,75.921,0,0,0,27.26,4.8A75.045,75.045,0,0,0,4010.61,374.3Z"/>
  <g>
    <g>
      <rect class="cls-3" x="471" y="367.281" width="153.5" height="153.5"/>
      <rect id="Rectangle_1_copy" data-name="Rectangle 1 copy" class="cls-4" x="624.5" y="367.281" width="153.438" height="153.5"/>
      <rect id="Rectangle_1_copy_2" data-name="Rectangle 1 copy 2" class="cls-5" x="777.156" y="367.281" width="153.563" height="153.5"/>
      <rect id="Rectangle_1_copy_3" data-name="Rectangle 1 copy 3" class="cls-6" x="929.906" y="367.281" width="153.474" height="153.5"/>
      <rect id="Rectangle_1_copy_4" data-name="Rectangle 1 copy 4" class="cls-7" x="1083.38" y="367.281" width="153.53" height="153.5"/>
      <rect id="Rectangle_1_copy_5" data-name="Rectangle 1 copy 5" class="cls-8" x="1236.91" y="367.281" width="153.53" height="153.5"/>
      <rect id="Rectangle_1_copy_6" data-name="Rectangle 1 copy 6" class="cls-9" x="1389.62" y="367.281" width="153.5" height="153.5"/>
      <rect id="Rectangle_1_copy_7" data-name="Rectangle 1 copy 7" class="cls-10" x="1542.31" y="367.281" width="153.53" height="153.5"/>
      <rect id="Rectangle_1_copy_8" data-name="Rectangle 1 copy 8" class="cls-11" x="1695.06" y="367.281" width="153.47" height="153.5"/>
      <rect id="Rectangle_1_copy_9" data-name="Rectangle 1 copy 9" class="cls-3" x="1847.75" y="367.281" width="153.53" height="153.5"/>
    </g>
    <path id="Shape_346_1" data-name="Shape 346 1" class="cls-2" d="M737.942,81.491c8.633,0.381,16.112,2.535,19.621,10.052,6.208,18.558.9,35.9-24.051,33.836-12.494-1.468-19.395-9.564-17.208-24.666,0.676-4.663.921-7.915,2.9-11.057,2.737-4.351,7.6-6.761,13.63-7.825Zm-219.1,4.933h51.282L613.06,293.449H571.148l-0.17-.34q-4.515-23.473-9.03-46.951H522.422q-4.941,23.643-9.882,47.291H470.97l0.171-.34Q494.99,189.777,518.844,86.424ZM890.935,221.662q0.086,25,.17,50.013,1.023,10.886,2.044,21.774h-29.3c-2.532,0-7.188.675-9.03-.34q-1.107-7.228-2.215-14.459H851.75c-9.78,13.921-32.269,23-53.667,13.438-13.775-6.152-21.237-19.4-23.852-36.914-1.04-6.962.452-14.835,2.044-20.073,8.941-29.423,37.366-38.261,71.215-42.868-0.119-23.47-21.951-24.938-41.911-18.712-4.878,1.521-9.053,4.073-13.459,5.954q-3.92-13.608-7.837-27.218c17.428-10.374,60.409-17.046,81.437-5.1,14.9,8.463,22.686,22.364,24.7,43.718l31.179-1.021L897.579,128.1c-2.038-6.479-6.557-18.985.852-23.3,8.329-3.24,20.683,1.718,26.578,8.846,5.03,5.183,9.618,14.305,13.289,22.624l14.311,33.512q3.747,9.782,7.5,19.563l33.734,0.681c9.481,0.34,18.351.535,28.451,1.02s26.23,1.462,28.28,14.63a15.323,15.323,0,0,1-2.89,11.227c-8.05,11.542-21.22,9.492-37.14,6.975L990.6,222.343l-18.4-.681,8.177,24.156c4.914,14.114,8.552,28.6,12.778,43.379,3.669,12.83,4.667,25.7-7.5,29.939-12.319,4.3-20.084-5.116-23.852-12.418-6.9-13.37-9.876-29.625-14.993-45.079q-6.644-20.243-13.289-40.487ZM542.7,124.529q-5.451,31.808-10.9,63.621-2.554,13.353-5.11,26.708H558.03q-1.7-10.035-3.408-20.073l-10.9-70.086-0.171-.17H542.7Zm164.068,56.817c-37.259-1.273-36.972,20.527-36.971,56.647v55.456H626.86V174.882q-0.6-15.819-1.193-31.641l36.971,0.17q1.106,10.971,2.215,21.944h1.362c3.8-11.428,12.456-21.012,25.045-23.815,1.569-.35,14.677-1.177,15.5,0v39.806Zm10.392-38.1H760.09V293.449H717.156V143.241Zm129.653,79.612-9.2.851c-8.764,1.846-16.845,5.753-20.955,12.248-3.139,3.574-4.1,23.789,5.282,28.578a16.877,16.877,0,0,0,10.562,1.7c14.571-2.336,16.186-12.087,16.186-29.089q-0.086-7.143-.17-14.289h-1.7Z"/>
  </g>
</svg>
