<svg xmlns="http://www.w3.org/2000/svg" width="2000" height="2000" viewBox="0 0 2000 2000">
  <defs>
    <style>
      .cls-1 {
        fill: #fff;
        fill-rule: evenodd;
      }
    </style>
  </defs>
  <path id="TV-MA" class="cls-1" d="M157,611H1844a150,150,0,0,1,150,150v627a150,150,0,0,1-150,150H157A150,150,0,0,1,7,1388V761A150,150,0,0,1,157,611Zm13,91H1832a80,80,0,0,1,80,80v585a80,80,0,0,1-80,80H170a80,80,0,0,1-80-80V782A80,80,0,0,1,170,702Zm1586.21,550.92-24.8-68.67H1597.87l-24.8,68.67h-91.11l139.38-350.834h87.96l139.83,350.834h-92.92Zm-51.05-141.34-40.52-112.175-40.52,112.175h81.04Zm-358.41-44.8-81.3,151.55h-39.7l-80.74-146.35v180.94h-82.09V902.086h73.52L1247.2,1104.78l108.46-202.694h73.53l0.45,350.834h-82.1Zm-496.277,6.21H982.184v73.67H850.473v-73.67ZM597.428,1252.92L462.558,902.086h96.078l85.981,228.834L732.3,902.086h88.409L685.386,1252.92H597.428Zm-246.282,0H261.835V980.772h-96.98V902.086h282.82v78.686H351.146V1252.92Z"/>
</svg>
