<svg xmlns="http://www.w3.org/2000/svg" width="2000" height="2000" viewBox="0 0 2000 2000">
  <defs>
    <style>
      .cls-1 {
        fill: #fff;
        fill-rule: evenodd;
      }
    </style>
  </defs>
  <path id="SDH" class="cls-1" d="M1796,1671H204C93.543,1671,4,1581.46,4,1471V679C4,568.543,93.543,479,204,479H1796c110.46,0,200,89.543,200,200v792C1996,1581.46,1906.46,1671,1796,1671Zm71-942a120,120,0,0,0-120-120H254A120,120,0,0,0,134,729v693a120,120,0,0,0,120,120H1747a120.005,120.005,0,0,0,120-120V729Zm-269.86,405.35H1411.65v209.16H1275.12V807.19h136.53v201.5h185.49V807.19h136.53v536.32H1597.14V1134.35Zm-495.78,176.22q-60.69,32.94-139.98,32.94H733.137V807.19H961.38q79.29,0,139.98,32.946t94.81,92.707q34.14,59.761,34.14,141.737,0,82.755-34.14,142.9A236.948,236.948,0,0,1,1101.36,1310.57Zm-26.2-314.518q-17.25-32.556-47.93-50.184t-72.746-17.622H869.669V1222.46h84.815q42.052,0,72.746-17.63,30.675-17.61,47.93-50.95,17.22-33.33,17.24-78.53Q1092.4,1028.625,1075.16,996.052ZM589.028,1330.49q-47.58,23.73-119.293,23.75a397.216,397.216,0,0,1-114.811-16.47q-54.82-16.47-88.608-41.76l44.821-112.63q32.4,22.98,74.817,37.93t84.47,14.94q28.962,0,45.856-5.37,16.889-5.34,24.824-15.32,7.918-9.945,7.93-23.75,0-17.61-15.171-27.97-15.176-10.335-39.649-17.62t-53.1-13.79a488.5,488.5,0,0,1-58.267-17.24,213.63,213.63,0,0,1-53.786-28.35q-24.144-17.61-38.96-45.97-14.835-28.335-14.825-71.251,0-47.5,23.445-86.578t71.024-62.826q47.58-23.739,118.6-23.751a371.419,371.419,0,0,1,93.435,11.875q45.849,11.889,81.022,35.627L621.437,955.828q-34.488-21.441-68.266-31.413-33.793-9.949-65.508-9.961-28.283,0-45.51,6.9-17.245,6.9-24.824,17.622a39.06,39.06,0,0,0-7.586,22.985q0,18.389,15.171,28.732t39.3,16.851q24.129,6.525,53.441,13.41a544.917,544.917,0,0,1,58.267,17.24,222.3,222.3,0,0,1,53.441,27.58q24.468,17.25,39.649,45.21,15.161,27.975,15.171,70.1a163.857,163.857,0,0,1-23.79,86.2Q636.607,1306.745,589.028,1330.49Z"/>
</svg>
