<svg xmlns="http://www.w3.org/2000/svg" width="2000" height="2000" viewBox="0 0 2000 2000">
  <defs>
    <style>
      .cls-1 {
        fill: #f5c518;
        fill-rule: evenodd;
      }
    </style>
  </defs>
  <path id="Shape_370_1" data-name="Shape 370 1" class="cls-1" d="M102,410H1898a100,100,0,0,1,100,100v981a100,100,0,0,1-100,100H102A100,100,0,0,1,2,1491V510A100,100,0,0,1,102,410ZM226,710H386.154v580.87H226V710Zm225.248,0H651.7v1.034h1.033c0.308,14.516,4.078,30.414,7.233,43.41,4.747,19.556,4.728,39.521,9.3,57.88,7.557,30.353,6.371,63.256,13.432,93.022,4.225,17.813,3.3,35.954,7.233,52.713,1.647,7.018-.337,15.489,3.1,20.671Q711.109,844.378,729.192,710H933.776v580.87H797.387V933.253c0-7.95,2.464-24.312-1.033-29.974,0.045,10.537-2.052,21.087-4.133,29.974-3.689,15.744-2.795,31.95-6.2,46.511q-1.034,11.885-2.066,23.776c-4.494,19.13-4.826,41.81-9.3,60.98q-3.1,27.39-6.2,54.78c-12.9,55.18-12.487,115.57-23.765,171.57H644.466c-0.947-19.54-4.913-41.79-9.3-59.95-5.681-23.51-4.955-47.97-10.333-70.28q-1.033-10.845-2.066-21.71c-9.228-38.02-9.577-80.74-18.6-118.86-6.127-25.885-5.33-52.712-11.366-77.515-2.4-9.867.1-24.66-5.166-32.041V1290.87H451.248V710Zm547.622,0h192.18c52.65,0,92.45-1.213,122.96,20.672,43.61,31.277,39.26,77.852,39.26,150.9V1115.16c0.01,62.51,4.6,103.11-22.73,139.54-27.9,37.18-76,36.17-140.52,36.17H998.87V710Zm419.5,0h151.89V895.01h2.06c12.99-25.262,74.93-49.714,119.86-37.208,31.56,8.785,59.08,28.811,71.29,56.846,14.33,32.885,8.27,98.562,8.27,144.7v100.26c0,15.67,2.62,35.8-1.03,49.61-5.97,22.55-17.67,44.64-34.1,56.84a135.861,135.861,0,0,1-47.53,22.74q-10.335.525-20.66,1.04c-15.79,3.33-38.4-1.08-50.63-6.2-13.23-5.55-24.57-14.35-35.13-22.74-4.88-3.88-7.1-10.81-12.4-14.47q-3.615,18.075-7.24,36.17H1418.37V710ZM1151.79,811.291V1189.58c19.25,0.16,36.66-2.26,43.4-14.47,9.08-16.45,5.17-74.85,5.16-101.29V829.9c-8.24-6.129-6.43-15.651-21.69-15.5C1174.8,811.937,1157.98,811.284,1151.79,811.291Zm440.17,132.3c-7.83,4.892-17.41,2.915-20.67,12.4-3.96,6.347-1.03,42.237-1.03,52.708v128.17c0,9.84-2.7,42.59,1.03,48.58,4.67,14.57,37.75,16.84,46.5,4.13,2.96-3.94.73-9.28,2.06-15.5,3.14-14.63,3.1-31.22,3.1-48.58,0-55.47,5.29-122.91-4.13-171.576C1610.96,948.779,1605.32,943.918,1591.96,943.589Z"/>
</svg>
