<svg xmlns="http://www.w3.org/2000/svg" width="2000" height="2000" viewBox="0 0 2000 2000">
  <defs>
    <style>
      .cls-1 {
        fill: #fff;
        fill-rule: evenodd;
      }
    </style>
  </defs>
  <path id="Polygon_1_copy" data-name="Polygon 1 copy" class="cls-1" d="M1351.6,1929.01q-350.79-120.465-701.417.42t-344.46-249.95q6.175-370.83-217.146-666.95T219.85,607.688Q574.444,498.965,787.058,195.069t425.592-.254q212.97,303.642,567.7,411.941t131.76,404.684q-222.975,296.385-216.35,667.21T1351.6,1929.01Zm-78.54-185.51q-272.355-94.875-544.608.32T461,1547q4.794-292.005-168.6-525.19Q119,788.641,394.323,703.026T834.728,378.111q165.083-239.3,330.442-.2,165.375,239.1,440.79,324.381t102.3,318.668q-173.115,233.385-167.98,525.39T1273.06,1743.5Z"/>
</svg>
