<svg xmlns="http://www.w3.org/2000/svg" width="2000" height="2000" viewBox="0 0 2000 2000">
  <defs>
    <style>
      .cls-1 {
        fill: #fff;
        fill-rule: evenodd;
      }
    </style>
  </defs>
  <path id="Ellipse_1_copy" data-name="Ellipse 1 copy" class="cls-1" d="M1988.04,1502.78c-0.02.16-.04,0.32-0.05,0.49-0.29,2.58-.6,5.16-0.91,7.74-0.04.28-.07,0.57-0.11,0.85-0.31,2.49-.64,4.96-0.99,7.44-0.05.37-.1,0.74-0.15,1.12-0.34,2.4-.7,4.79-1.07,7.19l-0.21,1.32c-0.37,2.33-.75,4.67-1.15,6.99-0.09.49-.17,0.98-0.25,1.47-0.4,2.29-.81,4.56-1.24,6.84-0.1.53-.19,1.05-0.29,1.58q-0.645,3.36-1.32,6.71c-0.12.55-.23,1.1-0.34,1.66-0.45,2.2-.93,4.4-1.41,6.6-0.12.57-.25,1.14-0.37,1.72-0.49,2.17-.99,4.35-1.5,6.51-0.13.59-.27,1.17-0.41,1.75q-0.765,3.24-1.58,6.45l-0.45,1.77q-0.81,3.21-1.67,6.39l-0.48,1.77q-0.87,3.18-1.77,6.35c-0.16.59-.33,1.17-0.5,1.76q-0.915,3.165-1.86,6.31c-0.18.58-.35,1.16-0.53,1.74q-0.96,3.15-1.96,6.29c-0.18.57-.36,1.13-0.54,1.7q-1.02,3.15-2.07,6.28c-0.18.55-.37,1.1-0.56,1.65q-1.065,3.15-2.17,6.28c-0.18.53-.37,1.06-0.56,1.58q-1.125,3.165-2.28,6.3c-0.19.5-.38,1-0.56,1.5-0.79,2.12-1.59,4.22-2.4,6.32-0.19.47-.37,0.94-0.56,1.42q-1.245,3.18-2.52,6.35c-0.18.44-.36,0.87-0.54,1.31q-1.305,3.21-2.66,6.41c-0.16.39-.33,0.78-0.5,1.17q-1.38,3.255-2.8,6.48c-0.15.34-.31,0.68-0.46,1.02q-1.455,3.3-2.96,6.58c-0.13.28-.26,0.56-0.39,0.83-1.04,2.25-2.08,4.48-3.15,6.71-0.09.2-.19,0.41-0.29,0.61-1.1,2.3-2.22,4.58-3.35,6.86-0.06.12-.12,0.23-0.17,0.35-1.18,2.36-2.37,4.72-3.58,7.06a0.035,0.035,0,0,1-.01.02,551.693,551.693,0,0,1-95.11,131.94c-0.01.02-.03,0.03-0.04,0.05-1.85,1.89-3.71,3.78-5.59,5.65l-0.18.18q-2.76,2.745-5.55,5.45c-0.1.1-.2,0.2-0.3,0.29-1.83,1.78-3.68,3.53-5.54,5.28-0.13.13-.26,0.25-0.39,0.38-1.84,1.72-3.68,3.43-5.54,5.12-0.16.15-.32,0.29-0.48,0.44q-2.76,2.52-5.55,4.99l-0.54.48q-2.775,2.46-5.57,4.87c-0.2.17-.41,0.34-0.61,0.51q-2.775,2.4-5.6,4.75c-0.22.18-.43,0.36-0.65,0.54q-2.805,2.34-5.64,4.64c-0.23.19-.46,0.37-0.68,0.55-1.89,1.53-3.79,3.04-5.7,4.55l-0.7.55q-2.865,2.25-5.76,4.45c-0.24.18-.48,0.37-0.72,0.55-1.93,1.47-3.87,2.92-5.82,4.37-0.24.18-.48,0.35-0.72,0.53q-2.94,2.16-5.89,4.29l-0.72.51c-1.98,1.42-3.98,2.83-5.98,4.22-0.09.06-.18,0.12-0.27,0.19a91.149,91.149,0,0,1-10.22,6.93c-0.32.21-.64,0.43-0.96,0.64-0.03-.02-0.05-0.03-0.08-0.05a100.464,100.464,0,0,1-49.68,12.86c-23.04,0-44.06-7.47-60.09-19.76l-0.91.73-13.39-13.39-0.13.08L1295.9,1559.55l-0.27-.48c-75.96-76.06-173.68-196.97-273-215.2a241.212,241.212,0,0,0-60.682,2.47c-94.8,24.87-187.295,140.65-259.852,213.21L378.91,1882.74l-0.134-.08-13.383,13.39-0.9-.72c-16.029,12.28-37.056,19.75-60.1,19.75a100.5,100.5,0,0,1-49.686-12.86c-0.027.02-.051,0.03-0.078,0.05l-0.808-.54a90.853,90.853,0,0,1-10.431-7.08c-0.091-.06-0.182-0.12-0.273-0.19q-2.256-1.56-4.5-3.16c-0.766-.54-1.531-1.09-2.294-1.63q-2.244-1.62-4.471-3.25-1.124-.825-2.241-1.65-2.232-1.65-4.447-3.33c-0.731-.55-1.46-1.11-2.187-1.66q-2.22-1.695-4.422-3.42c-0.713-.55-1.424-1.11-2.134-1.67q-2.207-1.74-4.4-3.5c-0.695-.56-1.388-1.13-2.08-1.69-1.462-1.19-2.919-2.38-4.368-3.59-0.678-.56-1.352-1.12-2.027-1.69q-2.178-1.83-4.339-3.67c-0.66-.57-1.317-1.14-1.974-1.7q-2.163-1.875-4.309-3.76-0.963-.855-1.92-1.71-2.148-1.92-4.278-3.85-0.936-.855-1.867-1.71-2.133-1.95-4.246-3.93-0.91-.855-1.814-1.71-2.117-2.01-4.213-4.03-0.883-.855-1.761-1.71-2.1-2.055-4.179-4.11c-0.571-.57-1.138-1.14-1.707-1.72q-2.082-2.085-4.144-4.2-0.829-.855-1.653-1.71-2.066-2.13-4.108-4.29c-0.536-.57-1.067-1.13-1.6-1.7q-2.046-2.19-4.071-4.39c-0.518-.56-1.032-1.13-1.547-1.69q-2.026-2.235-4.032-4.48c-0.5-.56-1-1.12-1.494-1.69q-2.007-2.265-3.993-4.56-0.723-.84-1.439-1.68-1.989-2.325-3.953-4.66c-0.464-.56-0.924-1.12-1.386-1.67-1.312-1.58-2.618-3.16-3.912-4.76-0.446-.54-0.888-1.1-1.332-1.65-1.3-1.61-2.59-3.22-3.87-4.85-0.428-.54-0.852-1.09-1.278-1.63q-1.926-2.46-3.826-4.95c-0.411-.54-0.817-1.08-1.226-1.62q-1.9-2.505-3.781-5.04c-0.393-.53-0.781-1.06-1.172-1.59-1.253-1.71-2.5-3.42-3.736-5.15-0.374-.52-0.744-1.04-1.117-1.57-1.239-1.74-2.471-3.48-3.69-5.24-0.356-.51-0.709-1.03-1.063-1.55q-1.836-2.655-3.643-5.34c-0.339-.5-0.673-1.01-1.01-1.52-1.207-1.8-2.408-3.62-3.594-5.44-0.321-.5-0.637-0.99-0.956-1.49q-1.787-2.76-3.545-5.55c-0.3-.48-0.6-0.96-0.9-1.45-1.175-1.88-2.342-3.76-3.494-5.66-0.284-.47-0.564-0.94-0.847-1.41-1.158-1.91-2.308-3.84-3.443-5.77-0.266-.45-0.528-0.91-0.793-1.36q-1.711-2.94-3.391-5.89c-0.248-.44-0.492-0.88-0.738-1.31q-1.685-3-3.337-6.01c-0.23-.42-0.455-0.84-0.684-1.26-1.106-2.04-2.2-4.07-3.283-6.12-0.212-.41-0.419-0.81-0.629-1.21q-1.631-3.12-3.228-6.25c-0.193-.38-0.382-0.76-0.575-1.14-1.069-2.12-2.129-4.24-3.171-6.38-0.175-.35-0.346-0.71-0.52-1.07q-1.576-3.24-3.114-6.51c-0.157-.33-0.309-0.67-0.465-1-1.032-2.21-2.053-4.42-3.056-6.65-0.138-.3-0.272-0.61-0.41-0.92q-1.519-3.375-3-6.78c-0.12-.28-0.235-0.56-0.355-0.84q-1.49-3.45-2.937-6.94c-0.1-.24-0.2-0.48-0.3-0.73-0.974-2.36-1.935-4.72-2.877-7.1-0.082-.2-0.161-0.41-0.243-0.62q-1.431-3.615-2.815-7.27c-0.063-.16-0.124-0.33-0.187-0.5q-1.4-3.705-2.752-7.44c-0.044-.13-0.087-0.25-0.132-0.37-0.914-2.54-1.811-5.08-2.689-7.64-0.025-.07-0.05-0.15-0.075-0.22q-1.34-3.915-2.624-7.84l-0.018-.06A549.515,549.515,0,0,1,6.692,1442.55V558.05C6.692,254.274,252.956,8.014,556.737,8.014H1441.26c303.78,0,550.05,246.26,550.05,550.036v884.5A557.151,557.151,0,0,1,1988.04,1502.78ZM1848.3,571.165c0-231.975-188.05-420.028-420.03-420.028H569.733C337.755,151.137,149.7,339.19,149.7,571.165V1429.69q0,4.245.085,8.47c0,0.1,0,.2.007,0.31q0.26,12.675,1.262,25.17c0.008,0.11.017,0.21,0.025,0.32q0.669,8.3,1.657,16.48l0.049,0.4q1.488,12.255,3.671,24.27c0.031,0.18.063,0.35,0.095,0.53q1.446,7.92,3.188,15.74l0.156,0.69q0.86,3.825,1.785,7.64a0.045,0.045,0,0,1,.006.02q0.968,3.96,2.011,7.89c0.026,0.1.053,0.2,0.079,0.29q0.958,3.615,1.984,7.19c0.086,0.31.171,0.61,0.258,0.91q2.14,7.44,4.547,14.77c0.126,0.38.253,0.76,0.379,1.15q1.105,3.33,2.263,6.64c0.07,0.2.139,0.41,0.21,0.61,0.85,2.41,1.722,4.82,2.615,7.21,0.116,0.31.236,0.62,0.353,0.94q1.151,3.06,2.348,6.1c0.187,0.47.372,0.95,0.56,1.42q2.733,6.87,5.7,13.62c0.249,0.56.5,1.13,0.751,1.69,0.813,1.83,1.64,3.66,2.478,5.47,0.2,0.44.4,0.88,0.6,1.31q1.508,3.24,3.071,6.44c0.268,0.56.542,1.1,0.812,1.65q1.209,2.46,2.45,4.89c0.338,0.67.676,1.33,1.018,2q1.562,3.03,3.166,6.03c0.206,0.38.418,0.76,0.626,1.15,0.936,1.73,1.885,3.46,2.846,5.17,0.421,0.76.847,1.51,1.273,2.26,0.8,1.42,1.612,2.82,2.43,4.23,0.4,0.68.788,1.36,1.188,2.04,1.112,1.89,2.241,3.76,3.382,5.63,0.475,0.78.959,1.55,1.439,2.32,0.764,1.24,1.534,2.46,2.311,3.69,0.537,0.84,1.073,1.69,1.616,2.53q1.362,2.115,2.751,4.21c0.727,1.09,1.46,2.19,2.2,3.28,0.807,1.19,1.617,2.39,2.436,3.57,0.633,0.92,1.271,1.83,1.912,2.74,0.717,1.03,1.44,2.04,2.166,3.06,0.639,0.89,1.275,1.78,1.921,2.67,1.182,1.63,2.376,3.24,3.58,4.85,0.718,0.96,1.445,1.91,2.171,2.86q1,1.3,2.008,2.61c0.763,0.98,1.527,1.97,2.3,2.94,0.68,0.87,1.369,1.72,2.056,2.58,1.338,1.67,2.689,3.32,4.052,4.97,0.626,0.76,1.25,1.51,1.881,2.26,0.861,1.03,1.728,2.05,2.6,3.07q0.891,1.035,1.79,2.07,2.853,3.285,5.769,6.52c0.223,0.25.441,0.5,0.664,0.74q1.446,1.59,2.911,3.16c0.551,0.6,1.1,1.19,1.657,1.78q1.485,1.59,2.984,3.16c0.422,0.44.849,0.87,1.272,1.31,1.945,2.02,3.909,4.01,5.893,5.99,0.456,0.45.911,0.91,1.369,1.36q1.61,1.59,3.236,3.15c0.48,0.47.962,0.93,1.444,1.39q5.337,5.1,10.853,10.02c0.468,0.42.938,0.84,1.409,1.25q1.77,1.575,3.557,3.12l0.674,0.57q3.631,3.12,7.335,6.17c0.278,0.22.554,0.45,0.831,0.68L610.05,1449.16c0.778-.78,1.564-1.54,2.346-2.32,106.985-107.09,246.543-253.66,386.144-253.78,140.93-.12,281.89,148.58,389.41,256.1l305.92,305.92A422.461,422.461,0,0,0,1784.08,1653a2.392,2.392,0,0,1,.13-0.21q4.53-7.215,8.77-14.61a0.219,0.219,0,0,1,.03-0.05q1.4-2.445,2.76-4.9c0.05-.1.1-0.19,0.16-0.29q3.99-7.215,7.71-14.6c0.16-.31.31-0.61,0.46-0.92q3.585-7.155,6.91-14.47c0.14-.33.3-0.66,0.44-0.99q1.05-2.325,2.07-4.67c0.16-.36.31-0.72,0.47-1.08q3.1-7.185,5.95-14.51c0.22-.55.43-1.11,0.65-1.67q2.7-7.08,5.17-14.27c0.21-.63.43-1.25,0.64-1.88,0.49-1.46.98-2.93,1.46-4.4,0.21-.64.41-1.29,0.62-1.93,0.87-2.76,1.73-5.52,2.55-8.3,0.17-.57.34-1.13,0.5-1.69,0.42-1.43.83-2.87,1.23-4.31l0.66-2.4c0.4-1.43.79-2.86,1.16-4.3,0.11-.39.2-0.79,0.31-1.18,0.74-2.86,1.45-5.72,2.13-8.6,0.2-.88.41-1.76,0.61-2.64,0.32-1.38.64-2.77,0.94-4.16,0.2-.91.39-1.82,0.58-2.73q0.765-3.57,1.45-7.14c0.19-.96.38-1.91,0.55-2.87,0.26-1.36.5-2.72,0.74-4.08,0.18-1,.35-1.99.52-2.99,0.22-1.35.45-2.7,0.67-4.06s0.42-2.72.62-4.09q0.435-2.925.83-5.87c0.14-1.06.28-2.12,0.42-3.19,0.17-1.33.33-2.67,0.49-4.01,0.13-1.12.25-2.25,0.37-3.37,0.24-2.15.45-4.31,0.66-6.47,0.1-1.18.22-2.35,0.32-3.54,0.11-1.32.21-2.65,0.31-3.98,0.09-1.13.16-2.26,0.24-3.39,0.09-1.31.18-2.62,0.25-3.93q0.18-3.135.32-6.28c0.06-1.3.1-2.6,0.14-3.9,0.04-1.17.08-2.34,0.11-3.51,0.03-1.32.06-2.65,0.08-3.97,0.02-1.26.03-2.52,0.04-3.78,0.01-1.04.02-2.08,0.02-3.13V571.165Z"/>
</svg>
