<svg xmlns="http://www.w3.org/2000/svg" width="2000" height="2000" viewBox="0 0 2000 2000">
  <defs>
    <style>
      .cls-1 {
        fill: #fff;
        fill-rule: evenodd;
      }
    </style>
  </defs>
  <path id="Ellipse_1_copy_3" data-name="Ellipse 1 copy 3" class="cls-1" d="M1847.05,1094h-0.38v586.32c0.49,6.95.76,13.96,0.76,21.03a298.489,298.489,0,0,1-104.85,229.99,306.285,306.285,0,0,1-73.9,46.38,407.13,407.13,0,0,1-56.09,15.11,308.549,308.549,0,0,1-58.25,5.39q-60.435,0-114.35-21.58a279.976,279.976,0,0,1-94.93-62.56L997.712,1566.73l-326.638,325.6A296.444,296.444,0,0,1,648,1916.46q-41.181,43.74-88.788,59.65a343.1,343.1,0,0,1-40.776,10.85,294.941,294.941,0,0,1-71.294,8.71c-162.553,0-294.329-131.77-294.329-294.32,0-3.97.1-7.9,0.257-11.83V1094h-0.257V305.484l0.083-.087c-0.047-2.164-.083-4.331-0.083-6.507,0-162.553,131.776-294.328,294.329-294.328,6.963,0,13.864.26,20.706,0.735h518.48a124.9,124.9,0,0,1,13.546-.725,93.863,93.863,0,0,1,11.511.725h521.01c6.85-.476,13.75-0.735,20.71-0.735,162.55,0,294.33,131.775,294.33,294.328q0,7.563-.38,15.033V1094Z"/>
</svg>
