<svg xmlns="http://www.w3.org/2000/svg" width="2000" height="2000" viewBox="0 0 2000 2000">
  <defs>
    <style>
      .cls-1 {
        fill: #fff;
        fill-rule: evenodd;
      }
    </style>
  </defs>
  <path id="Rectangle_1_copy_2" data-name="Rectangle 1 copy 2" class="cls-1" d="M1847.05,1094h-0.38v586.32c0.49,6.95.76,13.96,0.76,21.03a298.489,298.489,0,0,1-104.85,229.99,306.285,306.285,0,0,1-73.9,46.38,407.13,407.13,0,0,1-56.09,15.11,308.549,308.549,0,0,1-58.25,5.39q-60.435,0-114.35-21.58a279.976,279.976,0,0,1-94.93-62.56L997.712,1566.73l-326.638,325.6A296.444,296.444,0,0,1,648,1916.46q-41.181,43.74-88.788,59.65a343.1,343.1,0,0,1-40.776,10.85,294.941,294.941,0,0,1-71.294,8.71c-162.553,0-294.329-131.77-294.329-294.32,0-3.97.1-7.9,0.257-11.83V1094h-0.257V305.484l0.083-.087c-0.047-2.164-.083-4.331-0.083-6.507,0-162.553,131.776-294.328,294.329-294.328,6.963,0,13.864.26,20.706,0.735h518.48a124.9,124.9,0,0,1,13.546-.725,93.863,93.863,0,0,1,11.511.725h521.01c6.85-.476,13.75-0.735,20.71-0.735,162.55,0,294.33,131.775,294.33,294.328q0,7.563-.38,15.033V1094Zm-158.79,371.7q0,5.97-.33,11.86c0.03,51.16-.04,84.21-0.04,84.21a277.231,277.231,0,0,1-.78,40.1c0.21,6.74.46,18.77,0.15,33.09v30.79c0.09,2.15.15,4.31,0.15,6.49,0,2.25-.06,4.49-0.15,6.72v2.01h-0.11a149.426,149.426,0,0,1-251.45,100.21c-44.5-38.63-92.71-84.66-92.71-84.66s-16.59-16.71-25.85-26.01c0-.01-0.01-0.01-0.01-0.02-5.7-5.64-11.3-11.28-16.86-16.97-5.83-5.98-11.63-12.01-17.46-18.19L999.5,1366.79,716.181,1635.33c-5.831,6.18-11.627,12.21-17.46,18.19-5.562,5.69-11.158,11.33-16.855,16.97-0.007.01-.013,0.01-0.02,0.02-9.254,9.3-25.846,26.01-25.846,26.01s-48.217,46.03-92.715,84.66a149.415,149.415,0,0,1-251.447-100.21h-0.1v-2.01c-0.1-2.23-.157-4.47-0.157-6.72,0-2.18.063-4.34,0.157-6.49v-30.79c-0.31-14.32-.065-26.35.15-33.09a275.751,275.751,0,0,1-.781-40.1s-0.071-33.05-.043-84.21q-0.322-5.895-.328-11.86c0-3.04.083-6.06,0.208-9.06V1011.37h-0.208V394.024l0.067-.066c0-.082,0-0.236,0-0.426-0.034-1.517-.062-3.035-0.062-4.56,0-.818.024-1.631,0.033-2.448-0.02-7.814-.033-19.059-0.033-20.175,0-35.252,10.586-80.581,21.874-103.954,33.35-69.052,96.61-97.685,156.965-98.977,2.023-.044,5.4-0.058,9.575-0.056,11.626,0,30.237.14,42.7,0.145h0.926q3.154-.076,6.329-0.08c0.143,0,.284.005,0.426,0.008,0.195,0,.387-0.008.581-0.008,0.421,0,.838.013,1.256,0.022,0.605-.01,1.211-0.022,1.8-0.022h0c0.167,0,.368,0,0.59.005,0.138,0,.281-0.005.418-0.005h0c2.795,0.1,14,.382,16.77.564H985.785a106.9,106.9,0,0,1,10.97-.555c0.154,0,.3.01,0.457,0.014,0.187,0,.363-0.014.551-0.014,0.584,0,1.157.03,1.732,0.053,0.575-.023,1.145-0.053,1.735-0.053,0.19,0,.36.013,0.55,0.014,0.15,0,.3-0.014.46-0.014a107.075,107.075,0,0,1,10.97.555h414.83c2.77-.182,13.97-0.468,16.77-0.564h0c0.14,0,.28.005,0.42,0.005,0.22,0,.42-0.005.59-0.005h0c0.59,0,1.2.012,1.8,0.022,0.42-.009.84-0.022,1.26-0.022,0.19,0,.38.007,0.58,0.008,0.14,0,.28-0.008.42-0.008q3.18,0,6.33.08h0.93c12.47,0,31.08-.148,42.7-0.145,4.18,0,7.56.012,9.58,0.056,60.35,1.292,123.61,29.925,156.96,98.977,11.29,23.373,21.88,68.7,21.88,103.954,0,1.116-.02,12.361-0.04,20.175,0.01,0.817.04,1.63,0.04,2.448,0,1.525-.03,3.043-0.06,4.56-0.01.19-.01,0.344-0.01,0.426l0.07,0.066V1011.37h-0.21v445.27C1688.17,1459.64,1688.26,1462.66,1688.26,1465.7ZM554.182,163.426C551.387,163.331,557,163.426,554.182,163.426Zm890.628,0C1441.99,163.426,1447.6,163.331,1444.81,163.426Z"/>
</svg>
