<svg xmlns="http://www.w3.org/2000/svg" width="2000" height="2000" viewBox="0 0 2000 2000">
  <defs>
    <style>
      .cls-1 {
        fill: #fff;
        fill-rule: evenodd;
      }
    </style>
  </defs>
  <path id="Ellipse_1_copy_2" data-name="Ellipse 1 copy 2" class="cls-1" d="M1442.35,1992.99h-884.7c-303.842,0-550.156-246.31-550.156-550.15V558.161C7.491,254.323,253.805,8.014,557.647,8.014H685.97c0.186,0,.369-0.014.555-0.014s0.369,0.013.555,0.014h2.274V8.071a71.46,71.46,0,0,1,0,142.81v0.285H570.646c-232.025,0-420.119,188.091-420.119,420.113V1124.23c28.685,0.04,60.1.08,92.73,0.12,1.081,0,2.168,0,3.252.01q4.86,0,9.754.01c3.675,0,7.359.01,11.057,0.01,1.567,0,3.136.01,4.707,0.01,2.745,0,5.494.01,8.248,0.01l21.2,0.03,46.952,0.06q8.034,0,16.029.02,11.3,0.015,22.481.02,3.829-.225,8.194-0.35a0.642,0.642,0,0,0,.138-0.01c1.32-.03,2.686-0.06,4.08-0.08,0.177,0,.342-0.01.52-0.01q2.349-.03,4.835-0.03c207.438,0,353.3,114.36,353.3,114.36l-0.106.21c9.29,6.91,18.82,13.87,28.561,20.73,10.4,7.52-4.876-4.38,22.773,14.82,3.461,2.19,7.59,4.8,12.512,7.92,56.584,31.43,117.635,49.26,178.259,50.52,60.62-1.26,121.68-19.09,178.26-50.52,4.92-3.12,9.05-5.73,12.51-7.92,27.65-19.2,12.38-7.3,22.77-14.82,9.74-6.86,19.27-13.82,28.57-20.73l-0.11-.21s145.86-114.36,353.3-114.36q2.49,0,4.83.03c0.18,0,.34.01,0.52,0.01,1.4,0.02,2.76.05,4.08,0.08a0.66,0.66,0,0,0,.14.01q4.365,0.12,8.19.35,11.175,0,22.48-.02,7.995-.015,16.03-0.02l46.96-.06,21.19-.03c2.76,0,5.51-.01,8.25-0.01,1.57,0,3.14-.01,4.71-0.01,3.7,0,7.38-.01,11.06-0.01q4.89-.015,9.75-0.01c1.09-.01,2.17-0.01,3.25-0.01,32.64-.04,64.05-0.08,92.73-0.12V571.279c0-232.022-188.09-420.113-420.12-420.113h-118.7v-0.31a71.434,71.434,0,0,1,0-142.759V8.014h2.27c0.19,0,.37-0.014.55-0.014s0.37,0.013.56,0.014h128.32c303.85,0,550.16,246.309,550.16,550.147V1442.84C1992.51,1746.68,1746.2,1992.99,1442.35,1992.99Zm110.71-713.73h-15.25q-2.85.2-5.65,0.44c-0.18.01-.35,0.03-0.53,0.04q-5.61.48-11.1,1.1l-0.48.06c-1.77.2-3.54,0.41-5.29,0.64a0.772,0.772,0,0,0-.15.02q-2.8.36-5.56,0.75a0.249,0.249,0,0,0-.08.01q-2.625.375-5.23,0.78c-0.15.02-.29,0.04-0.44,0.07q-5.325.825-10.51,1.78c-0.14.02-.28,0.05-0.42,0.07q-5.175.96-10.23,2.02c-0.15.03-.3,0.07-0.45,0.1q-4.89,1.035-9.65,2.16c-1.97.47-3.91,0.94-5.84,1.43l-2.01.51c-1.37.36-2.74,0.71-4.09,1.08-1.11.3-2.22,0.59-3.32,0.9-0.1.02-.2,0.05-0.3,0.08l-1.68.48q-2.46.69-4.89,1.41-6.15,1.815-12.07,3.76c-0.14.05-.29,0.09-0.43,0.14-1.09.36-2.17,0.73-3.25,1.09-0.61.21-1.22,0.41-1.82,0.62-0.91.32-1.82,0.63-2.73,0.95-0.6.21-1.19,0.42-1.79,0.64-1.16.41-2.32,0.83-3.47,1.25a1.066,1.066,0,0,0-.19.07c-1.32.48-2.64,0.97-3.94,1.47q-4.05,1.53-7.96,3.11c-1.54.61-3.06,1.24-4.56,1.86-0.18.07-.36,0.15-0.54,0.22-0.57.24-1.13,0.48-1.7,0.72q-3.555,1.5-6.98,3.02c-0.94.42-1.89,0.84-2.81,1.26-0.01,0-.03.01-0.04,0.01-1.19.55-2.37,1.09-3.54,1.63-0.18.08-.36,0.17-0.54,0.25-0.64.3-1.27,0.6-1.91,0.9-2.25,1.06-4.47,2.13-6.63,3.19-0.19.1-.39,0.2-0.58,0.29l-0.24.12c-1.85.92-3.65,1.84-5.43,2.75-1.19.62-2.36,1.23-3.52,1.84-1.3.69-2.62,1.38-3.88,2.06-0.08.04-.17,0.09-0.25,0.13-0.39.21-.76,0.42-1.14,0.63-0.33.17-.65,0.35-0.97,0.53-0.16.08-.32,0.17-0.48,0.26-1.34.74-3.76,2.68-5.05,3.42-1.04.58-2.06,1.46-3.07,2.04-0.09.05,0.91-.37,0.81-0.31-1.76,1.02-3.47,2.02-5.13,3.02-0.06.03-.12,0.07-0.18,0.1-46.72,33.6-87.62,69.69-135.81,94.32-54.16,29.11-111.37,48.61-169.67,53.51v-0.33a468.277,468.277,0,0,1-96.839,0l-0.006.33c-58.291-4.9-115.5-24.4-169.668-53.51-48.183-24.63-89.083-60.72-135.81-94.32-0.057-.03-0.116-0.07-0.173-0.1-1.662-1-3.373-2-5.135-3.02-0.1-.06-0.194-0.11-0.29-0.17-1-.58-2.061-1.17-3.1-1.76-1.3-.73-2.581-2.48-3.927-3.22-0.158-.09-0.315-0.18-0.474-0.26-0.32-.18-0.644-0.36-0.967-0.53-0.38-.21-0.759-0.42-1.142-0.63-0.085-.04-0.172-0.09-0.257-0.13-1.259-.68-2.575-1.37-3.875-2.06-1.162-.61-2.328-1.22-3.522-1.84-1.782-.91-3.579-1.83-5.433-2.75l-0.233-.12c-0.194-.09-0.391-0.19-0.585-0.29-2.16-1.06-4.374-2.13-6.628-3.19-0.635-.3-1.267-0.6-1.909-0.9-0.179-.08-0.358-0.17-0.538-0.25-1.17-.54-2.351-1.08-3.545-1.63-0.011,0-.023-0.01-0.034-0.01-0.927-.42-1.868-0.84-2.81-1.26q-3.427-1.515-6.985-3.02c-0.567-.24-1.128-0.48-1.7-0.72-0.178-.07-0.357-0.15-0.535-0.22-1.5-.62-3.028-1.25-4.565-1.86q-3.911-1.575-7.959-3.11-1.955-.75-3.94-1.47a1.408,1.408,0,0,0-.186-0.07c-1.149-.42-2.311-0.84-3.476-1.25-0.594-.22-1.191-0.43-1.789-0.64-0.905-.32-1.814-0.63-2.729-0.95-0.6-.21-1.209-0.41-1.816-0.62-1.079-.36-2.159-0.73-3.25-1.09-0.144-.05-0.288-0.09-0.433-0.14-3.01-.99-1.445-0.53-4.552-1.47-2.561-.78-9.787-2.96-12.413-3.7-0.56-.16-1.113-0.32-1.675-0.48-0.1-.03-0.2-0.06-0.3-0.08-1.1-.31-2.208-0.6-3.316-0.9-1.357-.37-2.724-0.72-4.1-1.08-0.669-.17-1.334-0.34-2.007-0.51-1.929-.49-3.875-0.96-5.836-1.43q-4.766-1.125-9.653-2.16c-0.151-.03-0.3-0.07-0.454-0.1q-5.052-1.065-10.232-2.02c-0.137-.02-0.274-0.05-0.412-0.07q-5.192-.945-10.512-1.78c-0.148-.03-0.3-0.05-0.444-0.07q-2.6-.4-5.231-0.78a0.223,0.223,0,0,0-.08-0.01q-2.76-.39-5.553-0.75a0.854,0.854,0,0,0-.157-0.02c-1.752-.23-3.514-0.44-5.284-0.64l-0.479-.06q-5.492-.615-11.106-1.1c-0.176-.01-0.351-0.03-0.527-0.04q-2.809-.24-5.647-0.44H150.527v150.72c0,232.02,188.094,420.11,420.119,420.11h858.7c232.03,0,420.12-188.09,420.12-420.11V1279.26H1553.06Zm-335.48-610.6c22.5-22.512,39.63-27.586,55.95-27.586a70.6,70.6,0,0,1,70.58,70.622c0,22.737-10.75,39.178-27.43,55.867L1134.24,947.459s-57.57,53.041-132.53,53.041S863.6,944.668,863.6,944.668L683.6,767.115c-9.671-9.676-28.734-24.251-28.734-56.46a69.821,69.821,0,0,1,69.8-69.84c30.971,0,54.74,26.419,56.565,28.942L929.171,819.045s-0.271-726.1-.282-741.751a69.281,69.281,0,1,1,138.561.016c0,1.549-.07,3.08-0.17,4.6V819.045ZM928.889,77.294c0,0.005,0,.011,0,0.016C928.888,76.929,928.888,76.943,928.889,77.294Z"/>
</svg>
