<svg xmlns="http://www.w3.org/2000/svg" width="2000" height="2000" viewBox="0 0 2000 2000">
  <defs>
    <style>
      .cls-1 {
        fill: #fff;
        fill-rule: evenodd;
      }
    </style>
  </defs>
  <path id="Shape_367_1_copy_2" data-name="Shape 367 1 copy 2" class="cls-1" d="M1363.37,740.248L1158.68,941.964s-64.59,59.476-148.69,59.476-154.944-62.606-154.944-62.606L653.09,739.744c-10.851-10.85-32.238-27.193-32.238-63.309a78.312,78.312,0,0,1,78.313-78.311c34.748,0,61.414,29.623,63.462,32.452l165.981,167.4s2.579-728.784,2.579-709.3a77.727,77.727,0,1,1,155.453,0c0,1.736-.08,3.454-0.19,5.162l-2.89,704.143,168.62-168.625c25.25-25.243,44.47-30.932,62.77-30.932a79.186,79.186,0,0,1,79.19,79.189C1394.14,703.1,1382.08,721.536,1363.37,740.248Zm544.47-188.523c0.93,53.5-.14,110.005-1.12,169.448V1478.33c-0.03,1.16-.06,2.31-0.1,3.46,0.32,39.76-.11,79.15-3.3,115.58q-0.36,12.855-.73,25.69a539.582,539.582,0,0,1-13.31,54.68c-0.11.38-.22,0.77-0.33,1.15-0.07.24-.15,0.47-0.23,0.71-46.85,154.1-158.77,261.78-314.93,301.15-62.05,15.64-146.99,10.34-223.33,10.34H668.889c-76.347,0-161.283,5.3-223.333-10.34C289.393,1941.38,177.48,1833.7,130.623,1679.6c-0.073-.24-0.155-0.47-0.228-0.71-0.115-.38-0.216-0.77-0.329-1.15a539.578,539.578,0,0,1-13.306-54.68q-0.368-12.84-.734-25.69c-3.194-36.43-3.619-75.82-3.3-115.58-0.033-1.15-.066-2.3-0.1-3.46V721.173c-0.982-59.443-2.047-115.945-1.114-169.448-1.152-80.928-.7-162.387,17.657-222.952A424.4,424.4,0,0,1,192.805,201.3q8.538-13.007,18.238-25.527c8.751-11.246,21.844-24.8,38.191-39.24,6.01-5.577,13.84-12.125,23.126-19.249C325.2,75.723,399.734,32.145,473.076,17.2c32.228-7.268,63.632-8.81,91.178-1.155,0.822,0.18,1.649.339,2.468,0.532A57.407,57.407,0,0,1,581.538,22.4a58.322,58.322,0,0,1,18.946,15.919c23.549,28.275,27.758,75.332-4.812,100.239-29.036,22.206-93.922,15.15-132.345,26.879-83.05,25.35-153.4,87.516-186.111,163.337C246.473,400.033,252.4,510.549,252.4,614.1V1027.61c163.406-.82,260.566,56.09,324.66,153,60.015,90.73,73.258,183.97,198.746,210.36,69.718,0.35,170.158,1.48,233.863,1.88,63.71-.4,164.15-1.53,233.87-1.88,125.49-26.39,138.73-119.63,198.74-210.36,64.1-96.91,161.26-153.82,324.66-153V614.1c0-103.546,5.93-214.062-24.81-285.322-32.71-75.821-103.06-137.987-186.11-163.337-38.43-11.729-103.31-4.673-132.35-26.879-32.57-24.907-28.36-71.963-4.81-100.239A58.336,58.336,0,0,1,1437.81,22.4a57.38,57.38,0,0,1,14.81-5.828c0.82-.193,1.65-0.351,2.47-0.532,27.55-7.654,58.95-6.113,91.18,1.156,73.34,14.95,147.88,58.528,200.72,100.089,9.28,7.124,17.11,13.672,23.12,19.249,16.35,14.437,29.44,27.994,38.19,39.24q9.735,12.512,18.24,25.527a424.453,424.453,0,0,1,63.64,127.473C1908.53,389.338,1908.99,470.8,1907.84,551.725Zm-140.9,910.065V1164.07c-0.33,0-.65.01-0.99,0-64.96.06-109.3,12.12-141.66,31.72-0.54.33-1.09,0.67-1.62,1.01-0.55.34-1.08,0.69-1.62,1.03-40.16,26.17-61.44,65.3-84.52,109.24-19.98,40.25-39.8,82.75-76.92,118.49-52.75,56.2-114.51,90.71-208.83,105.88-2.64,0-5.4,0-8.21.01-1.26.21-2.51,0.44-3.78,0.64h-88.81c-41.26.88-87.32,0.3-140.31,0.08-52.989.22-99.042,0.8-140.309-.08h-88.8c-1.258-.2-2.5-0.42-3.748-0.63-3.346-.01-6.605-0.02-9.689-0.02-94.322-15.17-154.634-49.68-207.384-105.88-37.115-35.74-56.935-78.24-76.922-118.49-23.076-43.94-44.362-83.07-84.515-109.24-0.54-.34-1.073-0.69-1.62-1.03s-1.083-.68-1.626-1.01c-32.355-19.6-76.693-31.66-141.661-31.72-0.333.01-.656,0-0.99,0v297.72q0,4.95-.052,9.99c-0.229,23.49-1.14,48.23-1.068,72.19,5.4,54.3,15.957,103.84,35.321,146.96a293.226,293.226,0,0,0,14.858,28.81,461.558,461.558,0,0,0,27.453,37.71q3.972,4.95,8.153,9.55a254.4,254.4,0,0,0,34.045,29.74,222.458,222.458,0,0,0,32.1,19.38c79.3,38.45,187.811,38.51,318.6,38.51H1297.53c130.79,0,239.31-.06,318.6-38.51a221.636,221.636,0,0,0,32.1-19.38,254.818,254.818,0,0,0,34.05-29.74q4.17-4.605,8.15-9.55a462.1,462.1,0,0,0,27.46-37.71,291.868,291.868,0,0,0,14.85-28.81c19.37-43.12,29.92-92.66,35.32-146.96,0.08-23.96-.83-48.7-1.06-72.19Q1766.94,1466.74,1766.94,1461.79Z"/>
</svg>
