<svg xmlns="http://www.w3.org/2000/svg" width="2000" height="2000" viewBox="0 0 2000 2000">
  <defs>
    <style>
      .cls-1 {
        fill: #fff;
        fill-rule: evenodd;
      }
    </style>
  </defs>
  <path class="cls-1" d="M94,1191l457,17,395,191,495-175,437,5-46,507-436,175s-981.92-1.29-986-30S65,1515,65,1515Z"/>
  <path id="Ellipse_1_copy_3" data-name="Ellipse 1 copy 3" class="cls-1" d="M1442.35,1992.99h-884.7c-303.842,0-550.156-246.31-550.156-550.15V558.161C7.491,254.323,253.805,8.014,557.647,8.014H685.97c0.186,0,.369-0.014.555-0.014s0.369,0.013.555,0.014h2.274V8.071a71.46,71.46,0,0,1,0,142.81v0.285H570.646c-232.025,0-420.119,188.091-420.119,420.113V1124.23c28.685,0.04,60.1.08,92.73,0.12,1.081,0,2.168,0,3.252.01q4.86,0,9.754.01c3.675,0,7.359.01,11.057,0.01,1.567,0,3.136.01,4.707,0.01,2.745,0,5.494.01,8.248,0.01l21.2,0.03,46.952,0.06q8.034,0,16.029.02,11.3,0.015,22.481.02,3.829-.225,8.194-0.35a0.642,0.642,0,0,0,.138-0.01c1.32-.03,2.686-0.06,4.08-0.08,0.177,0,.342-0.01.52-0.01q2.349-.03,4.835-0.03c207.438,0,353.3,114.36,353.3,114.36l-0.106.21c9.29,6.91,18.82,13.87,28.561,20.73,10.4,7.52-4.876-4.38,22.773,14.82,3.461,2.19,7.59,4.8,12.512,7.92,56.584,31.43,117.635,49.26,178.259,50.52,60.62-1.26,121.68-19.09,178.26-50.52,4.92-3.12,9.05-5.73,12.51-7.92,27.65-19.2,12.38-7.3,22.77-14.82,9.74-6.86,19.27-13.82,28.57-20.73l-0.11-.21s145.86-114.36,353.3-114.36q2.49,0,4.83.03c0.18,0,.34.01,0.52,0.01,1.4,0.02,2.76.05,4.08,0.08a0.66,0.66,0,0,0,.14.01q4.365,0.12,8.19.35,11.175,0,22.48-.02,7.995-.015,16.03-0.02l46.96-.06,21.19-.03c2.76,0,5.51-.01,8.25-0.01,1.57,0,3.14-.01,4.71-0.01,3.7,0,7.38-.01,11.06-0.01q4.89-.015,9.75-0.01c1.09-.01,2.17-0.01,3.25-0.01,32.64-.04,64.05-0.08,92.73-0.12V571.279c0-232.022-188.09-420.113-420.12-420.113h-118.7v-0.31a71.434,71.434,0,0,1,0-142.759V8.014h2.27c0.19,0,.37-0.014.55-0.014s0.37,0.013.56,0.014h128.32c303.85,0,550.16,246.309,550.16,550.147V1442.84C1992.51,1746.68,1746.2,1992.99,1442.35,1992.99ZM286.025,1738.96c-11.231-11.71-22.758-23.65-34.373-35.61A423.588,423.588,0,0,0,286.025,1738.96Zm931.555-1070.3c22.5-22.512,39.63-27.586,55.95-27.586a70.6,70.6,0,0,1,70.58,70.622c0,22.737-10.75,39.178-27.43,55.867L1134.24,947.459s-57.57,53.041-132.53,53.041S863.6,944.668,863.6,944.668L683.6,767.115c-9.671-9.676-28.734-24.251-28.734-56.46a69.821,69.821,0,0,1,69.8-69.84c30.971,0,54.74,26.419,56.565,28.942L929.171,819.045s-0.271-726.1-.282-741.751a69.281,69.281,0,1,1,138.561.016c0,1.549-.07,3.08-0.17,4.6V819.045ZM928.889,77.294c0,0.005,0,.011,0,0.016C928.888,76.929,928.888,76.943,928.889,77.294Z"/>
</svg>
