<svg xmlns="http://www.w3.org/2000/svg" width="2000" height="2000" viewBox="0 0 2000 2000">
  <defs>
    <style>
      .cls-1 {
        fill: #fff;
        fill-rule: evenodd;
      }
    </style>
  </defs>
  <path id="arrow_1" data-name="arrow 1" class="cls-1" d="M1941.08,548.248c0.98,53.93-.13,110.884-1.16,170.8v763.21c-0.04,1.16-.07,2.32-0.11,3.49,0.33,40.08-.11,79.78-3.46,116.5q-0.375,12.945-.77,25.9a527.292,527.292,0,0,1-13.94,55.11c-0.12.38-.22,0.78-0.34,1.16-0.08.24-.17,0.47-0.24,0.72-49.1,155.32-166.36,263.87-329.98,303.55-38.61,9.36-85.67,11.28-134.27,11.29-33.26.01-67.24-.87-99.74-0.87H642.932c-32.5,0-66.482.88-99.739,0.87-48.608-.01-95.665-1.93-134.268-11.29C245.3,1949.01,128.039,1840.46,78.943,1685.14c-0.077-.25-0.163-0.48-0.239-0.72-0.12-.38-0.226-0.78-0.345-1.16a526.746,526.746,0,0,1-13.942-55.11q-0.384-12.945-.769-25.9c-3.346-36.72-3.791-76.42-3.461-116.5-0.035-1.17-.069-2.33-0.1-3.49V719.05c-1.029-59.918-2.145-116.872-1.167-170.8-1.207-81.576-.732-163.685,18.5-224.734l0-.015C117.018,137.106,302.252,33,437.749,9.449l0.011,0c33.715-7.315,66.567-8.873,95.4-1.2,0.046,0.012.094,0.022,0.14,0.034,0.861,0.182,1.728.342,2.586,0.536a61.591,61.591,0,0,1,15.524,5.874,60.6,60.6,0,0,1,19.851,16.046c24.675,28.5,29.085,75.934-5.041,101.041-0.043.031-.091,0.059-0.134,0.091-30.5,22.3-101.834,27.585-142.038,39.391-87.014,25.552-157.224,75.821-191.5,152.241l0,0.012c-23.959,74.987-26,183.229-26,287.6V1027.93c171.215-.82,273.018,56.54,340.175,154.22,62.883,91.47,76.759,185.45,208.244,212.05,73.048,0.36,178.288,1.49,245.04,1.89,66.75-.4,171.99-1.53,245.04-1.89,131.49-26.6,145.36-120.58,208.24-212.05,67.16-97.68,168.96-155.04,340.18-154.22V611.116c0-104.373-2.04-212.615-26-287.6a0.011,0.011,0,0,0-.01-0.012c-34.27-76.42-104.48-126.689-191.49-152.241-40.21-11.806-111.55-17.087-142.04-39.391-0.05-.032-0.09-0.06-0.14-0.091-34.12-25.107-29.71-72.539-5.04-101.041a60.671,60.671,0,0,1,19.85-16.046,61.763,61.763,0,0,1,15.53-5.874c0.85-.194,1.72-0.354,2.58-0.536,0.05-.012.1-0.022,0.14-0.034,28.83-7.674,61.69-6.116,95.4,1.2l0.01,0C1697.75,33,1882.98,137.106,1922.58,323.5v0.015C1941.82,384.563,1942.29,466.672,1941.08,548.248Zm-147.57,927.4c-0.03-3.38-.05-6.74-0.05-10.06v-300.1h-1.04c-68.07.06-114.53,12.21-148.43,31.97-0.57.34-1.14,0.67-1.7,1.02s-1.13.69-1.7,1.04c-42.07,26.38-64.37,65.81-88.55,110.11-20.94,40.57-41.71,83.41-80.6,119.43-0.57.59-1.15,1.16-1.73,1.74-54.86,55.62-117.76,89.86-215.57,104.99-3.23,0-6.64.01-10.15,0.02-1.31.21-2.61,0.43-3.92,0.64h-93.05c-16.22.33-33.14,0.46-50.88,0.47-29.58.03-61.44-.26-96.14-0.4-34.7.14-66.564,0.43-96.137,0.4-17.745-.01-34.665-0.14-50.881-0.47H759.934c-1.318-.21-2.617-0.43-3.927-0.64-3.506-.01-6.92-0.02-10.151-0.02-97.8-15.13-160.705-49.37-215.568-104.99-0.575-.58-1.155-1.15-1.728-1.74-38.889-36.02-59.656-78.86-80.6-119.43-24.179-44.3-46.483-83.73-88.554-110.11-0.566-.35-1.124-0.7-1.7-1.04s-1.135-.68-1.7-1.02c-33.9-19.76-80.357-31.91-148.43-31.97h-1.036v300.1c0,3.32-.02,6.68-0.054,10.06-0.24,23.68-1.194,48.62-1.12,72.77,5.664,54.74,16.72,104.67,37.009,148.14a290.961,290.961,0,0,0,15.569,29.03,466.3,466.3,0,0,0,28.765,38.02q4.161,4.98,8.542,9.63a263.891,263.891,0,0,0,35.672,29.97,235.46,235.46,0,0,0,33.635,19.54c83.088,38.76,196.786,38.81,333.828,38.81H1301.61c137.04,0,250.74-.05,333.83-38.81a235.623,235.623,0,0,0,33.64-19.54,263.687,263.687,0,0,0,35.67-29.97c2.91-3.11,5.77-6.31,8.54-9.63a469.338,469.338,0,0,0,28.77-38.02,291.1,291.1,0,0,0,15.56-29.03c20.29-43.47,31.35-93.4,37.01-148.14C1794.71,1524.27,1793.75,1499.33,1793.51,1475.65Zm-343.73-850.6c0,29.642-14.03,51.077-35.8,72.834L1390.31,721.2c-5.91,7-12.17,12.227-16.69,16.573l-3.79,3.6L1175.87,932.413s-75.14,69.147-172.97,69.147c-0.54,0-1.08-.01-1.63-0.02-0.31.01-.62,0.01-0.93,0.01h-0.678c-39.817,0-75.446-12.236-102.555-25.654-44.818-20.956-74.456-47.123-74.456-47.123L690.882,798.943l-64.5-61.174c-6.146-5.912-15.515-13.451-22.829-24.874l-15.832-15.6c-12.622-12.615-37.5-31.617-37.5-73.608a91.076,91.076,0,0,1,91.1-91.051c40.422,0,71.443,34.442,73.825,37.732L908.225,765s-0.346-651.01-.368-671.523A90.4,90.4,0,0,1,998.276,3.146c0.133,0,.263.009,0.4,0.01,0.179,0,.355-0.013.534-0.013,0.267,0,.528.017,0.794,0.019s0.53-.019.79-0.019a82.861,82.861,0,0,1,56.32,21.783,90.111,90.111,0,0,1,31.59,68.591c0,2.019-.09,4.016-0.22,6V765l196.16-196.057c29.36-29.349,51.73-35.964,73.02-35.964A92.1,92.1,0,0,1,1449.78,625.048ZM907.857,93.475c0,0.014,0,.028,0,0.043C907.856,92.8,907.856,92.806,907.857,93.475Z"/>
</svg>
