<svg xmlns="http://www.w3.org/2000/svg" width="2000" height="2000" viewBox="0 0 2000 2000">
  <defs>
    <style>
      .cls-1 {
        fill: #fff;
        fill-rule: evenodd;
      }
    </style>
  </defs>
  <path id="store_1" data-name="store 1" class="cls-1" d="M274,435H1727c138.07,0,250,111.929,250,250v631c0,138.07-111.93,250-250,250H274c-138.071,0-250-111.93-250-250V685C24,546.929,135.929,435,274,435ZM1485.57,799.448c0,2.1-.11,4.175-0.27,6.236a502.324,502.324,0,0,1-34.45,169.138,425.483,425.483,0,0,1-28.03,62.258c-22.94,41.16-52.86,78.38-87.77,110.76-58.14,56.6-133.27,102.27-223.53,123.26a460.159,460.159,0,0,1-111.01,11.83A460.162,460.162,0,0,1,889.5,1271.1c-90.268-20.99-165.394-66.66-223.537-123.26-34.907-32.38-64.822-69.6-87.768-110.76a425.373,425.373,0,0,1-28.026-62.258,502.111,502.111,0,0,1-34.456-169.138c-0.157-2.061-.262-4.135-0.262-6.236,0-.621.033-1.235,0.047-1.853-0.009-.59-0.04-1.176-0.047-1.766l0.092-.007a81.43,81.43,0,0,1,81.354-77.8c0.209,0,.415.013,0.623,0.014s0.388-.014.584-0.014c104.857,0,74.465,111.967,100.752,186.37,18.281,51.742,47.538,97.266,85.239,132.846,48.352,43.38,110.672,73.9,180.215,81.87a310.135,310.135,0,0,0,72.4,0c69.54-7.97,131.86-38.49,180.21-81.87,37.7-35.58,66.96-81.1,85.24-132.846,26.29-74.4-4.1-186.37,100.75-186.37,0.2,0,.39.013,0.59,0.014s0.41-.014.62-0.014a81.43,81.43,0,0,1,81.35,77.8l0.1,0.007c-0.01.59-.04,1.176-0.05,1.766C1485.53,798.213,1485.57,798.827,1485.57,799.448Z"/>
</svg>
