<svg xmlns="http://www.w3.org/2000/svg" width="1332" height="2000" viewBox="0 0 1332 2000">
  <defs>
    <style>
      .cls-1 {
        fill: #fff;
        fill-rule: evenodd;
      }
    </style>
  </defs>
  <rect y="-2" width="1332" height="2002"/>
  <path id="Shape_316_1" data-name="Shape 316 1" class="cls-1" d="M887.61,1133.92H768.236A74.23,74.23,0,0,1,694,1059.69V940.313a74.234,74.234,0,0,1,74.234-74.234H887.61a74.235,74.235,0,0,1,74.235,74.234V1059.69A74.23,74.23,0,0,1,887.61,1133.92Zm54.936-191.837A56.688,56.688,0,0,0,885.858,885.4H769.989A56.688,56.688,0,0,0,713.3,942.083V1057.95a56.688,56.688,0,0,0,56.688,56.69H885.858a56.688,56.688,0,0,0,56.688-56.69V942.083Zm-47.662,12.563c0,0.29-.014.576-0.036,0.86a69.259,69.259,0,0,1-4.751,23.326,58.729,58.729,0,0,1-3.865,8.587,62.23,62.23,0,0,1-12.1,15.271,65.213,65.213,0,0,1-30.826,17,72.7,72.7,0,0,1-30.616,0,65.213,65.213,0,0,1-30.826-17,62.206,62.206,0,0,1-12.1-15.271,58.729,58.729,0,0,1-3.865-8.587,69.235,69.235,0,0,1-4.751-23.326c-0.022-.284-0.036-0.57-0.036-0.86,0-.086,0-0.17.006-0.255s0-.163-0.006-0.244h0.012a11.23,11.23,0,0,1,11.219-10.729l0.086,0,0.08,0c14.46,0,10.269,15.441,13.894,25.7a46.321,46.321,0,0,0,11.754,18.321,44.261,44.261,0,0,0,59.687,0,46.312,46.312,0,0,0,11.755-18.321c3.625-10.261-.566-25.7,13.893-25.7l0.081,0,0.086,0a11.23,11.23,0,0,1,11.219,10.729h0.012c0,0.081,0,.162-0.006.244S894.884,954.56,894.884,954.646ZM457.126,866.094c24.826-.128,33.562,16.76,41.6,33.543,7.642,15.95,14.475,32.989,21.364,49.751,2.332,5.675,7,18.747,9,22.737,7.075,0.033,21.493.225,29.459,0.225l35.306,1.126L603.3,973.7c10.217,1.677,19.357,1.257,26.986,5.178,5.507,2.829,11.877,9.887,9.67,19.585-4.992,21.926-26.635,21.126-49.024,16.206q-11.467-.78-22.938-1.57c-3.346-.55-22.574-0.74-24.512-0.68q4.947,14.64,9.895,29.27c6.243,17.89,11.985,36.72,16.641,56.05,4.191,17.4,4.46,31.35-12.368,35.57-14.969,3.75-22.989-8.58-27.436-17.33C521.59,1099,518,1078.22,511.547,1058.8q-7.758-23.64-15.517-47.28-13.6.12-27.21,0.23c-20.849,0-43.4.04-62.067,2.02-17.3,1.84-25.351.24-28.111-9.45-2.509-8.817,1.174-19.2,6.072-22.965,7.432-5.718,19.711-5.009,31.259-6.754H429.69l27.661-1.125,23.612-.676,0.225-.45-8.32-20.936c-7.5-18.184-14.5-35.979-21.139-54.7-2.477-6.983-7.888-22.812-.675-28.365C452.767,867.026,454.879,867.014,457.126,866.094Z"/>
</svg>
