<svg xmlns="http://www.w3.org/2000/svg" width="2000" height="2000" viewBox="0 0 2000 2000">
  <defs>
    <style>
      .cls-1 {
        fill: #fff;
        fill-rule: evenodd;
      }
    </style>
  </defs>
  <path id="store_1" data-name="store 1" class="cls-1" d="M1442.86,1993H558.166C254.325,1993,8.014,1746.69,8.014,1442.85V558.157C8.014,254.316,254.325,8,558.166,8H1442.86c303.84,0,550.15,246.312,550.15,550.153V1442.85C1993.01,1746.69,1746.7,1993,1442.86,1993ZM1849.98,571.275c0-232.024-188.09-420.117-420.11-420.117H571.156c-232.024,0-420.116,188.093-420.116,420.117V1429.99c0,232.02,188.092,420.11,420.116,420.11H1429.87c232.02,0,420.11-188.09,420.11-420.11V571.275ZM1496.76,664.38c0,2.147-.1,4.268-0.26,6.374a513.329,513.329,0,0,1-35.22,172.871,434.18,434.18,0,0,1-28.64,63.637c-23.45,42.062-54.02,80.1-89.7,113.208-59.42,57.85-136.2,104.52-228.45,125.98a471.4,471.4,0,0,1-113.45,12.09,471.393,471.393,0,0,1-113.446-12.09c-92.252-21.46-169.03-68.13-228.451-125.98-35.674-33.105-66.247-71.146-89.7-113.208A435.027,435.027,0,0,1,540.8,843.625,513.225,513.225,0,0,1,505.59,670.754c-0.16-2.106-.267-4.227-0.267-6.374,0-.635.033-1.262,0.048-1.894-0.01-.6-0.041-1.2-0.048-1.8l0.093-.007a83.224,83.224,0,0,1,83.143-79.516c0.214,0,.424.013,0.637,0.015s0.4-.015.6-0.015c107.162,0,76.1,114.438,102.967,190.484,18.683,52.884,48.583,99.412,87.112,135.777,49.416,44.342,113.106,75.527,184.178,83.679a317.755,317.755,0,0,0,73.991,0c71.07-8.152,134.76-39.337,184.17-83.679,38.53-36.365,68.43-82.893,87.12-135.777,26.86-76.046-4.2-190.484,102.96-190.484,0.2,0,.4.013,0.6,0.015s0.42-.015.64-0.015a83.226,83.226,0,0,1,83.14,79.516l0.09,0.007c0,0.6-.04,1.2-0.05,1.8C1496.73,663.118,1496.76,663.745,1496.76,664.38Z"/>
</svg>
