<svg xmlns="http://www.w3.org/2000/svg" width="2000" height="2000" viewBox="0 0 2000 2000">
  <defs>
    <style>
      .cls-1 {
        fill: #fff;
        fill-rule: evenodd;
      }
    </style>
  </defs>
  <path id="Shape_368_1" data-name="Shape 368 1" class="cls-1" d="M1000,1989c-546.21,0-989-442.79-989-989S453.79,11,1000,11s989,442.79,989,989S1546.21,1989,1000,1989Zm0-1761.1c-426.419,0-772.1,345.681-772.1,772.1s345.681,772.1,772.1,772.1,772.1-345.68,772.1-772.1S1426.42,227.9,1000,227.9Zm470.44,614.254c-9.9,9.893-17.86,17.841-17.86,17.841l-0.36-.362S1111.36,1200.29,952.7,1358.85a103.119,103.119,0,0,1-160.318-1.35c-98.525-98.46-252.044-251.89-252.044-251.89l-0.016.02s-24.253-26.26-27.442-34.74A87.051,87.051,0,0,1,645.123,963.455a74.286,74.286,0,0,1,9.652,8.164c75.728,75.681,218.44,218.3,218.44,218.3S1227.36,835.13,1344.06,718.5c-10.9,10.894,21.2-27.335,64.9-27.335a87.767,87.767,0,0,1,67.76,143.613A60.592,60.592,0,0,1,1470.44,842.154Z"/>
</svg>
