<svg xmlns="http://www.w3.org/2000/svg" width="2000" height="2000" viewBox="0 0 2000 2000">
  <defs>
    <style>
      .cls-1 {
        fill: #fff;
        fill-rule: evenodd;
      }
    </style>
  </defs>
  <path id="square-01_1" data-name="square-01 1" class="cls-1" d="M1996.36,1330.35h0v113c0,304.92-247.19,552.1-552.11,552.1H556.407C251.485,1995.45,4.3,1748.27,4.3,1443.35v-113H4.033V665.25H4.3V555.521C4.3,250.6,251.485,3.419,556.407,3.419H1444.25c304.92,0,552.11,247.184,552.11,552.1V665.25h0v665.1ZM147.831,1430.44c0,232.85,188.762,421.61,421.612,421.61H1431.21c232.85,0,421.61-188.76,421.61-421.61V1330.35H147.831v100.09ZM1350.17,999.794a69.693,69.693,0,0,0-69.69-69.7H719.917a69.7,69.7,0,1,0,0,139.393H1280.48A69.69,69.69,0,0,0,1350.17,999.794Zm502.65-431.109c0-232.846-188.76-421.6-421.61-421.6H569.443c-232.85,0-421.612,188.759-421.612,421.6V665.25H1852.82V568.685Zm-1131.908-232H1281.47a69.7,69.7,0,1,1,0,139.393H720.912A69.7,69.7,0,0,1,720.912,336.681ZM1280.48,1662.91H719.917a69.7,69.7,0,0,1,0-139.4H1280.48A69.7,69.7,0,0,1,1280.48,1662.91Z"/>
</svg>
