<svg xmlns="http://www.w3.org/2000/svg" width="2000" height="2000" viewBox="0 0 2000 2000">
  <defs>
    <style>
      .cls-1 {
        fill: #fff;
        fill-rule: evenodd;
      }
    </style>
  </defs>
  <path class="cls-1" d="M1046.23,20.409c206.55,1.471,472.58,1.393,472.57,1.4,253.77,0,459.49,205.723,459.49,459.5V957.089c0,131.961-31.35,268.4-132.42,369.461l-522.48,522.48c-179.44,179.44-470.375,179.44-649.819-.01L151.084,1326.54c-179.444-179.45-179.446-470.381,0-649.822L673.558,154.239C774.594,53.2,908.074,20.409,1046.23,20.409ZM318.219,738.4C169.181,887.44,130.9,1090.79,310.773,1270.67l421.98,421.98c178.095,178.1,383.227,141.59,532.267-7.44l438.93-442.25c83.94-83.94,112.7-196.2,112.7-304.144,2.44-173.89,5.46-389.72,5.46-389.72,2.91-207.865-163.24-374.015-371.1-371.106l-389.81,5.456c-107.918,0-220.136,28.794-304.053,112.711Zm1259.3-315.814c81.59,81.595,81.59,213.887,0,295.482s-213.89,81.595-295.49,0-81.59-213.887,0-295.482S1495.92,340.993,1577.52,422.588Z"/>
</svg>
