<svg xmlns="http://www.w3.org/2000/svg" width="2000" height="2000" viewBox="0 0 2000 2000">
  <defs>
    <style>
      .cls-1 {
        fill: #fff;
        fill-rule: evenodd;
      }
    </style>
  </defs>
  <path id="_---------------------------------------------------------------" data-name="---------------------------------------------------------------" class="cls-1" d="M1722.74,1498.37c-144.79,144.81-325.29,325.33-325.29,325.33-172.82,172.85-511.49,282.41-793.9-.01,0,0-180.41-180.43-325.19-325.23-97.911-81.18-160.282-203.75-160.282-340.89V445.811C118.078,201.362,316.221,3.2,560.642,3.2H1440.35c244.42,0,442.56,198.165,442.56,442.614V1157.57C1882.91,1294.66,1820.59,1417.18,1722.74,1498.37ZM1719.43,603v55.7h29.07V603h-29.07Zm29.07-21.064v-55.7h-29.07v55.7h29.07Zm-29.07,97.829v55.7h29.07v-55.7h-29.07Zm0,76.753v55.7h29.07v-55.7h-29.07Zm0,76.75v55.7h29.07v-55.7h-29.07Zm0,76.747v55.7h29.07v-55.7h-29.07Zm0,76.756v55.7h29.07v-55.7h-29.07Zm0,76.778v55.7h29.07v-55.7h-29.07Zm28.16,77.95-28.63-5.01-9.69,54.85,28.63,5.02Zm-15.93,76.52-26.97-10.81-20.9,51.67,26.96,10.81Zm-31.53,71.58-24.14-16.12-31.16,46.25,24.14,16.13Zm-45.64,63.54-20.31-20.71-40.02,38.92,20.31,20.71Zm-55.78,52.85-20.55-20.46-39.55,39.38,20.55,20.47Zm-94.05,93.67,39.55-39.39-20.56-20.46-39.55,39.39Zm-38.47,38.31-20.55-20.47-39.56,39.39,20.56,20.47Zm-211.06,194.71,45.36-32.6-17.02-23.47-45.35,32.6Zm-68.62,37.08,49.71-25.54-13.32-25.72-49.72,25.54Zm-464.385-52.59,18.74-22.13L698.1,1659.13l-18.739,22.13ZM609.67,1611.51l20.555-20.47-39.551-39.39-20.556,20.47ZM500.662,1502.95l20.556-20.47-39.552-39.39-20.555,20.47Zm-54.493-54.27,20.555-20.47-39.552-39.38-20.555,20.46Zm-54.927-53.57,20.035-20.97-40.528-38.39-20.036,20.97Zm-55.221-55.53,23.925-16.44-31.769-45.84-23.925,16.44Zm-42.613-65.62,26.815-11.17-21.588-51.39-26.816,11.17Zm-28.081-72.99,28.559-5.39-10.42-54.73-28.559,5.39Zm-11.82-77.06h29.068v-55.7H253.507v55.7Zm0-76.75h29.068v-55.7H253.507v55.7Zm0-76.748h29.068v-55.7H253.507v55.7Zm0-76.767h29.068v-55.7H253.507v55.7Zm0-76.757h29.068v-55.7H253.507v55.7Zm0-76.767h29.068v-55.7H253.507v55.7Zm0-76.763h29.068v-55.7H253.507v55.7Zm0-76.751h29.068v-55.7H253.507v55.7Zm-1.01-77.242,29,1.987,3.841-55.569-29-1.987Zm7.726-77.757,27.964,7.9,15.27-53.585-27.964-7.9ZM283.937,357.1l25.713,13.5,26.087-49.273-25.713-13.5Zm38.684-68L345,307.571l35.7-42.88-22.378-18.474Zm95.636-93.328-43.764,34.693L392.6,253.106l43.763-34.693Zm69.067-37.113L437.329,183.64l13.038,25.869,50-24.984Zm75.285-22.063L508.5,150.717l7.371,28,54.11-14.124Zm-26.424,1360.8-20.555,20.46,39.552,39.39,20.555-20.46Zm104.664-1366.9-55.872,2.721,1.421,28.91,55.871-2.721ZM624.635,1626.41l39.552,39.39,20.555-20.47-39.552-39.38ZM718.285,131.4H662.346v28.944h55.939V131.4Zm77.07,0H739.417v28.944h55.938V131.4ZM755.262,1705.62L740,1730.25l47.6,29.25,15.267-24.63Zm104.053,84.95,10.907-26.83-51.852-20.9-10.906,26.83ZM872.457,131.4H816.518v28.944h55.939V131.4Zm8.308,1665.7,54.792,11.22,5.854-28.35-54.792-11.22ZM949.54,131.4H893.6v28.944H949.54V131.4Zm8.332,1679.379,55.928,1.03,0.54-28.94-55.931-1.03ZM1026.64,131.4H970.7v28.944h55.943V131.4Zm9.49,1678.8,55.24-8.78-4.58-28.58-55.24,8.78Zm67.58-1678.8h-55.94v28.944h55.94V131.4Zm9.3,1664.669,53.05-17.67-9.22-27.45-53.05,17.67ZM1180.79,131.4h-55.93v28.944h55.93V131.4Zm77.1,0h-55.94v28.944h55.94V131.4Zm77.09,0h-55.94v28.944h55.94V131.4ZM1297.02,1664.98l20.28,20.74,40.07-38.87-20.28-20.73Zm75.12-33.34,39.55-39.39-20.56-20.47-39.55,39.39ZM1356.35,130.652l-1.05,28.926,55.91,2,1.04-28.926Zm78.31,5.12-7,28.094,54.3,13.407,6.99-28.094Zm75.57,21.108-12.69,26.038,50.32,24.325,12.69-26.039Zm69.54,36.243L1561.97,216l44.21,34.12,17.81-22.878Zm60.56,49.7-22.13,18.764,36.26,42.411,22.14-18.763Zm49.07,61-25.53,13.835,26.74,48.926,25.53-13.835Zm35.42,69.734-27.86,8.271,15.98,53.378,27.86-8.271Zm20.12,75.543-28.97,2.363,4.57,55.515,28.97-2.364Z"/>
</svg>
