<svg xmlns="http://www.w3.org/2000/svg" width="2000" height="2000" viewBox="0 0 2000 2000">
  <defs>
    <style>
      .cls-1 {
        fill: #fff;
        fill-rule: evenodd;
      }
    </style>
  </defs>
  <path id="square-01_1_copy_3" data-name="square-01 1 copy 3" class="cls-1" d="M1974.22,607.093l-253.37,538.1c-32.74,69.2-100.15,114.92-167.15,114.92H592.357A308.043,308.043,0,0,0,780.6,1323.96h541.74v-0.43h537.27a52.845,52.845,0,1,1,0,105.69H1322.34v-0.01H771.032c-223.8,0-405.229-181.42-405.229-405.22V624.3C358.225,462.486,226.37,333.178,63.522,329.661a53.523,53.523,0,0,1-5.986.346,52.847,52.847,0,1,1,0-105.693c152.9,0,290.076,84.692,361.665,209.709,31.8,0.4,79.006,1.678,147.422,1.678H1888.15C1973.95,435.7,2010.71,515.594,1974.22,607.093Zm-185.81-74.877H604.674c-76.5,0-121.259-1.755-145.823-1.3a390.006,390.006,0,0,1,12.618,95.578A208.213,208.213,0,0,1,474.64,663.4l-3.258,362.469c3.216,89.13,19.819,136.7,99.991,137.36H1517.02c63.67,0,99.57-24.94,131.21-88.08l199.05-417.492C1896.87,538.242,1903.54,532.216,1788.41,532.216ZM524.35,1480.31a158.54,158.54,0,1,1-158.541,158.54A158.54,158.54,0,0,1,524.35,1480.31Zm1067.51,0a158.54,158.54,0,1,1-158.54,158.54A158.545,158.545,0,0,1,1591.86,1480.31Z"/>
</svg>
