<svg xmlns="http://www.w3.org/2000/svg" width="2000" height="2000" viewBox="0 0 2000 2000">
  <defs>
    <style>
      .cls-1 {
        fill: #fff;
        fill-rule: evenodd;
      }
    </style>
  </defs>
  <path class="cls-1" d="M1974.22,607.093l-253.37,538.1c-32.74,69.2-100.15,114.92-167.15,114.92H592.357A308.043,308.043,0,0,0,780.6,1323.96h541.74v-0.43h537.27a52.845,52.845,0,1,1,0,105.69H1322.34v-0.01H771.032c-223.8,0-405.229-181.42-405.229-405.22V624.3C358.225,462.486,226.37,333.178,63.522,329.661a53.523,53.523,0,0,1-5.986.346,52.847,52.847,0,1,1,0-105.693c152.9,0,290.076,84.692,361.665,209.709,31.8,0.4,79.006,1.678,147.422,1.678H1888.15C1973.95,435.7,2010.71,515.594,1974.22,607.093ZM524.35,1480.31a158.54,158.54,0,1,1-158.541,158.54A158.54,158.54,0,0,1,524.35,1480.31Zm1067.51,0a158.54,158.54,0,1,1-158.54,158.54A158.545,158.545,0,0,1,1591.86,1480.31Z"/>
</svg>
