<svg xmlns="http://www.w3.org/2000/svg" width="2000" height="2000" viewBox="0 0 2000 2000">
  <defs>
    <style>
      .cls-1 {
        fill: #fff;
        fill-rule: evenodd;
      }
    </style>
  </defs>
  <path id="Shape_1_copy" data-name="Shape 1 copy" class="cls-1" d="M1968.64,399.756l-267.5,670.534c-34.84,73.64-106.58,122.3-177.88,122.3l-926.583-.12c0,36.44,114.879,217.05,245.4,217.05h576.5v-0.46h430.23a56.24,56.24,0,0,1,0,112.48H1418.58v-0.01H831.9c-277.047,0-431.238-342.05-431.238-580.214V515.973c0-260.171-128.687-313.551-321.682-313.551a56.235,56.235,0,1,1-6.37-112.108c162.71,0,256.755-3.971,377.428,125.264,33.84,0.428,84.077,1.786,156.884,1.786H1877.05C1968.35,217.364,2007.48,302.384,1968.64,399.756ZM569.381,1575.9a168.72,168.72,0,1,1-168.716,168.72A168.719,168.719,0,0,1,569.381,1575.9Zm1136.019,0a168.72,168.72,0,1,1-168.72,168.72A168.722,168.722,0,0,1,1705.4,1575.9Z"/>
</svg>
