<svg xmlns="http://www.w3.org/2000/svg" xmlns:xlink="http://www.w3.org/1999/xlink" width="999.951" height="999.951" viewBox="0 0 1986 1986">
  <defs>
    <style>
      .cls-1 {
        fill-rule: evenodd;
        fill: url(#linear-gradient);
      }
    </style>
    <linearGradient id="linear-gradient" x1="634.187" y1="1336.25" x2="1352.718" y2="617.719" gradientUnits="userSpaceOnUse">
      <stop offset="0" stop-color="#9b9b9b"/>
      <stop offset="0.496" stop-color="#eee"/>
      <stop offset="1" stop-color="#9b9b9b"/>
    </linearGradient>
  </defs>
  <rect id="Rounded_Rectangle_1" data-name="Rounded Rectangle 1" x="0.219" y="0.313" width="1985.721" height="1985.717"/>
  <path id="action_adventure" data-name="action &amp; adventure" class="cls-1" d="M1875.61,1238.42q-0.18,4.065-.53,7.17H1728.94a64.655,64.655,0,0,0,6.47,19.76,53.755,53.755,0,0,0,21.45,22.28q13.935,7.95,32.43,7.95a63.911,63.911,0,0,0,50.57-22.87l23.71,30.23a83.978,83.978,0,0,1-31.91,24.8q-19.005,8.52-43.42,8.52-31.035,0-54.23-13.75a94.885,94.885,0,0,1-35.92-37.59q-12.735-23.835-12.73-54.83t12.38-54.83a95.566,95.566,0,0,1,34.18-37.59q21.8-13.755,49.7-13.76,27.2,0,48.47,13.37t33.48,37.4q12.21,24.03,12.21,56.96Q1875.78,1234.355,1875.61,1238.42Zm-47.43-46.11a51.94,51.94,0,0,0-18.66-21.32q-11.865-7.545-27.9-7.55a52.885,52.885,0,0,0-28.08,7.55,49.238,49.238,0,0,0-19,21.51,68.385,68.385,0,0,0-5.92,20.93h105.55A62.468,62.468,0,0,0,1828.18,1192.31ZM1673.67,921.147l-30.75-32.8a119.217,119.217,0,0,1-22.95,17.3q-26.16,15.112-58.94,15.112-25.47,0-45.51-9.3-20.07-9.3-31.74-25.575a62.169,62.169,0,0,1-11.68-37.2q0-19.762,7.67-35.262t24.24-29.644a207.486,207.486,0,0,1,24.52-17.713,172.843,172.843,0,0,1-13.54-17.549,83.717,83.717,0,0,1-10.46-21.119,70.005,70.005,0,0,1-3.14-20.925q0-18.981,8.55-33.325t24.76-22.281q16.215-7.938,37.49-7.944,19.53,0,34.17,7.169a54.473,54.473,0,0,1,22.85,20.343q8.19,13.179,8.19,31.775a64.089,64.089,0,0,1-7.15,30.032Q1623.11,746,1607.41,758.4a208.74,208.74,0,0,1-19.98,13.767l52.75,56.239q9.09-19.624,13.61-45.981l34.88,12.4q-6.33,35.851-21.56,62.287l30.63,32.65Zm-77.94-201.888a30.853,30.853,0,0,0,4.71-16.275q0-11.625-7.33-18.793t-20.92-7.169q-14.655,0-22.85,7.944t-8.19,20.343a41.044,41.044,0,0,0,2.09,13.175q2.1,6.2,8.37,13.95,4.59,5.675,11.62,13.63c6.3-3.795,11.7-7.312,16.11-10.53Q1591.01,727.016,1595.73,719.259Zm-42.96,72.922a174.138,174.138,0,0,0-17.2,12.135q-11.175,9.108-16.04,18.406a42.655,42.655,0,0,0-4.89,20.15,33.928,33.928,0,0,0,6.11,19.956,39.7,39.7,0,0,0,17.26,13.563q11.16,4.85,26.16,4.843a78.213,78.213,0,0,0,40.63-10.85,74.071,74.071,0,0,0,12.5-9.366Zm-38.3,334.449v206.92h-41.5v-26.48a68.545,68.545,0,0,1-20.22,18.34,75.992,75.992,0,0,1-39.76,10.85q-23.73,0-41.85-9.88-18.135-9.885-28.42-30.22-10.305-20.355-10.29-51.35V1126.63h43.94v111.98q0,27.525,11.51,41.27,11.5,13.77,32.08,13.76,15.345,0,26.86-6.98t17.78-20.92q6.285-13.95,6.28-34.49V1126.63h43.59ZM1305.05,804.509q0-27.509-11.51-41.075t-32.78-13.562q-15.345,0-27.2,6.975t-18.31,20.731q-6.465,13.76-6.45,34.681V916.884h-43.25V709.959h41.5v26.558a68.423,68.423,0,0,1,20.75-18.42q18.66-10.843,43.07-10.85,22.665,0,39.94,9.687,17.25,9.692,27.55,29.838,10.275,20.152,10.28,51.537V916.884h-43.59V804.509ZM1101.21,1221.18q0-27.51-11.51-41.08t-32.78-13.56q-15.36,0-27.21,6.97t-18.3,20.73q-6.465,13.77-6.46,34.69v104.62H961.708V1126.63h41.5v26.55a68.489,68.489,0,0,1,20.75-18.42q18.66-10.845,43.07-10.85,22.665,0,39.93,9.69t27.55,29.84q10.29,20.145,10.29,51.54v118.57h-43.59V1221.18ZM1082.2,905.841q-22.665,13.758-51.26,13.756-28.26,0-50.746-13.756a97.263,97.263,0,0,1-35.4-37.782q-12.908-24.021-12.9-54.637,0-31.388,12.9-55.025A98.517,98.517,0,0,1,980.02,721q22.314-13.75,50.92-13.756,28.935,0,51.44,13.756A96.885,96.885,0,0,1,1117.6,758.4q12.735,23.64,12.73,55.025,0,31.006-12.73,54.831A96.033,96.033,0,0,1,1082.2,905.841Zm-2.96-126.713a54.209,54.209,0,0,0-19.71-22.475,54.185,54.185,0,0,0-56.49,0,55.357,55.357,0,0,0-19.882,22.475q-7.323,14.532-7.323,34.294,0,19.381,7.323,34.294t19.882,22.862a51.07,51.07,0,0,0,27.9,7.944,52.312,52.312,0,0,0,28.59-7.944q12.555-7.938,19.71-22.862t7.15-34.294Q1086.39,793.66,1079.24,779.128ZM925.789,1245.59H779.646a64.708,64.708,0,0,0,6.469,19.76,53.72,53.72,0,0,0,21.448,22.28q13.944,7.95,32.434,7.95a63.911,63.911,0,0,0,50.568-22.87l23.715,30.23a84.016,84.016,0,0,1-31.91,24.8q-19.012,8.52-43.42,8.52-31.044,0-54.23-13.75a94.813,94.813,0,0,1-35.921-37.59q-12.735-23.835-12.73-54.83t12.381-54.83a95.537,95.537,0,0,1,34.177-37.59q21.792-13.755,49.7-13.76,27.2,0,48.476,13.37t33.48,37.4q12.2,24.03,12.207,56.96,0,2.715-.175,6.78T925.789,1245.59Zm-46.907-53.28a51.878,51.878,0,0,0-18.658-21.32q-11.861-7.545-27.9-7.55a52.859,52.859,0,0,0-28.074,7.55,49.241,49.241,0,0,0-19.007,21.51,68.411,68.411,0,0,0-5.918,20.93H884.876A62.586,62.586,0,0,0,878.882,1192.31Zm18.14-275.426H853.777V709.959h43.245V916.884ZM875.4,675.859q-12.211,0-20.053-8.525T847.5,646.409a28.772,28.772,0,0,1,7.847-20.15q7.846-8.518,20.053-8.525t20.053,7.944q7.848,7.947,7.847,20.344a30.871,30.871,0,0,1-7.672,21.119Q887.952,675.859,875.4,675.859Zm-70.1,240.25a75.6,75.6,0,0,1-22.669,3.488q-30.693,0-47.43-17.631t-16.74-51.732V750.259h-30.69v-38.75h30.69V664.234h43.245v47.275h50.22v38.75h-50.22v98.425q0,14.732,6.975,22.863t19.53,8.137q14.3,0,23.715-8.525l12.555,34.488A52.874,52.874,0,0,1,805.3,916.109ZM570.6,870.578a54.074,54.074,0,0,0,28.947,7.944,49.852,49.852,0,0,0,25.982-7.169q12.031-7.165,20.4-21.894l33.132,21.7Q668.6,894.409,647.673,907T599.9,919.6q-29.295,0-52.139-13.756a96.8,96.8,0,0,1-35.746-37.588q-12.908-23.831-12.9-54.831,0-31.388,12.9-55.025A97.243,97.243,0,0,1,547.756,721q22.837-13.75,52.139-13.756,26.85,0,47.778,12.4t31.388,36.037l-33.132,21.7q-8.37-14.331-20.4-21.506a49.908,49.908,0,0,0-25.982-7.169,53.563,53.563,0,0,0-49.174,30.419q-7.323,14.532-7.324,34.294t7.324,34.487A54.183,54.183,0,0,0,570.6,870.578ZM511.828,1046.03v287.52h-41.5v-27.14a68.227,68.227,0,0,1-19.356,18.42q-18.309,11.445-42.722,11.43-26.859,0-48.3-13.17t-33.655-37.01q-12.211-23.835-12.206-55.99,0-31.77,12.206-55.8t33.655-37.2q21.447-13.17,48.3-13.18,23.361,0,41.85,11.43a69.6,69.6,0,0,1,17.787,15.95V1046.03h43.942Zm-50.394,149.76q-7.5-14.52-19.879-22.47a53.6,53.6,0,0,0-56.149,0q-12.382,7.95-19.878,22.47-7.5,14.535-7.5,34.3,0,19.38,7.5,34.29t19.878,22.86a53.546,53.546,0,0,0,56.149,0q12.375-7.935,19.879-22.86t7.5-34.29Q468.932,1210.32,461.434,1195.79ZM424.129,891.832a52.325,52.325,0,0,1-17.437,17.69Q390.647,919.6,365.539,919.6q-20.925,0-36.619-7.944a58.313,58.313,0,0,1-24.238-22.087,60.564,60.564,0,0,1-8.544-31.969,65.2,65.2,0,0,1,7.5-31.388q7.5-13.95,24.587-22.087t45.337-8.138h48.477v-3.1q0-21.306-11.683-33.131t-35.4-11.819a88.639,88.639,0,0,0-30.341,5.425,77.973,77.973,0,0,0-25.807,15.113l-17.089-35.263a105.863,105.863,0,0,1,35.921-19.375,139.889,139.889,0,0,1,42.9-6.587q40.8,0,62.775,21.7t21.972,66.65V916.884H424.129V891.832Zm-2.092-63.685H376.7q-21.97,0-29.818,7.944t-7.847,19.956q0,12.787,9.416,20.537t26.157,7.75a52.29,52.29,0,0,0,28.772-8.137q12.726-8.137,18.658-24.025V828.147ZM239.11,1308.5a52.352,52.352,0,0,1-17.437,17.69q-16.046,10.08-41.153,10.07-20.925,0-36.618-7.94a58.249,58.249,0,0,1-24.238-22.09,60.536,60.536,0,0,1-8.545-31.97,65.178,65.178,0,0,1,7.5-31.38q7.5-13.95,24.587-22.09t45.338-8.14h48.476v-3.1q0-21.3-11.683-33.13t-35.4-11.82a88.5,88.5,0,0,0-30.342,5.43,77.847,77.847,0,0,0-25.807,15.11L116.7,1149.88a105.856,105.856,0,0,1,35.921-19.38,139.863,139.863,0,0,1,42.9-6.59q40.8,0,62.775,21.7t21.971,66.65v121.29H239.11V1308.5Zm-2.092-63.69H191.68q-21.971,0-29.818,7.95t-7.847,19.95q0,12.8,9.417,20.54t26.156,7.75a52.251,52.251,0,0,0,28.772-8.14q12.726-8.13,18.658-24.02v-24.03Zm397.736,35.27,59.818-153.45h41.85l-79.864,206.92H611.569l-79.863-206.92h44.988ZM1199.21,1080.9h43.24v47.28h50.22v38.75h-50.22v98.42q0,14.73,6.98,22.86,6.96,8.145,19.53,8.14,14.3,0,23.71-8.52l12.56,34.48a52.978,52.978,0,0,1-19.19,10.47,75.69,75.69,0,0,1-22.66,3.48q-30.7,0-47.43-17.63t-16.74-51.73v-99.97h-30.69v-38.75h30.69V1080.9Zm407.33,75.78a60.832,60.832,0,0,1,21.28-21.72q18.12-11.055,44.29-11.05v46.12c-1.63-.26-3.26-0.45-4.88-0.59-1.63-.12-3.14-0.19-4.54-0.19q-25.11,0-39.75,15.89-14.655,15.885-14.65,48.44v99.97h-43.25V1126.63h41.5v30.05Z"/>
</svg>
