<svg xmlns="http://www.w3.org/2000/svg" xmlns:xlink="http://www.w3.org/1999/xlink" width="999.951" height="999.951" viewBox="0 0 1986 1986">
  <defs>
    <style>
      .cls-1 {
        fill: url(#linear-gradient);
      }

      .cls-2 {
        fill-rule: evenodd;
        fill: url(#linear-gradient-2);
      }
    </style>
    <linearGradient id="linear-gradient" x1="0.221" y1="1986.03" x2="1985.938" y2="0.313" gradientUnits="userSpaceOnUse">
      <stop offset="0.1" stop-color="#NaNNaNNaN"/>
      <stop offset="0.49" stop-color="#9d260b"/>
      <stop offset="0.9" stop-color="#fbe49b"/>
    </linearGradient>
    <linearGradient id="linear-gradient-2" x1="1144.287" y1="798.406" x2="840.873" y2="1160" gradientUnits="userSpaceOnUse">
      <stop offset="0.35" stop-color="#NaNNaNNaN"/>
      <stop offset="0.496" stop-color="#9d260b"/>
      <stop offset="0.65" stop-color="#fbe49b"/>
    </linearGradient>
  </defs>
  <rect id="Rounded_Rectangle_1" data-name="Rounded Rectangle 1" class="cls-1" x="0.219" y="0.313" width="1985.721" height="1985.717"/>
  <path id="Action" class="cls-2" d="M1592.28,1156.36V1027.18q0-29.565-11.66-43.665t-32.96-14.1a51.732,51.732,0,0,0-27.22,7.278q-12.075,7.281-18.83,21.377t-6.75,37.3v120.99H1431V911.65h60.99v29.089a84.128,84.128,0,0,1,22.52-19.538q22.1-13.187,50.35-13.19,26.19,0,46.87,11.6t32.54,35.478q11.88,23.88,11.87,61.173v140.1h-63.86Zm-246.02-12.74q-27.435,16.38-62.63,16.38-34.8,0-62.02-16.38a116.434,116.434,0,0,1-42.78-44.8q-15.57-28.425-15.56-64.82,0-36.84,15.56-65.267a114.865,114.865,0,0,1,42.78-44.575q27.21-16.14,62.02-16.147,35.19,0,62.63,16.147a114.517,114.517,0,0,1,42.98,44.575q15.555,28.431,15.56,65.267t-15.56,65.05A116.493,116.493,0,0,1,1346.26,1143.62Zm-13.72-146q-7.575-15.01-20.05-22.97a51.841,51.841,0,0,0-28.45-7.96,52.841,52.841,0,0,0-28.66,7.96q-12.69,7.964-20.26,22.97-7.59,15.006-7.58,36.384,0,20.925,7.58,36.39,7.56,15.465,20.26,23.43a52.123,52.123,0,0,0,28.25,7.96q16.365,0,28.86-7.96,12.48-7.965,20.05-23.43t7.58-36.39Q1340.12,1012.625,1332.54,997.616Zm-228.21-120.08q-18.015,0-29.07-11.371t-11.05-28.2q0-16.821,11.05-28.2t29.07-11.371q17.6,0,28.86,10.689,11.25,10.692,11.25,27.518,0,17.739-11.05,29.337T1104.33,877.536ZM989.912,1094.95q7.156,8.655,19.448,8.64,15.54,0,26.2-9.09l16.78,50.03a62.618,62.618,0,0,1-23.13,11.6,104.7,104.7,0,0,1-28.45,3.87q-38.9,0-60.586-22.06t-21.7-65.73V971.689H884.5V917.108h33.977V857.523h64.27v59.585h54.442v54.581H982.748v99.161Q982.748,1086.315,989.912,1094.95Zm-255.64-1.13a54.938,54.938,0,0,0,29.065,7.96,51.435,51.435,0,0,0,27.836-7.96q12.684-7.965,21.7-25.7l49.124,30.02a92.261,92.261,0,0,1-37.457,45.48q-26,16.38-60.79,16.38-35.614,0-63.247-16.15a115,115,0,0,1-43.392-44.8q-15.764-28.665-15.76-65.05,0-36.84,15.76-65.04A117.567,117.567,0,0,1,700.5,924.385q27.633-16.374,63.247-16.374,34.789,0,60.79,16.147t37.457,45.712l-49.124,30.02q-9.009-17.281-21.7-25.244a51.418,51.418,0,0,0-27.836-7.96,54.92,54.92,0,0,0-29.065,7.96q-13.107,7.964-20.878,22.97T705.616,1034q0,21.39,7.778,36.62T734.272,1093.82ZM580.76,1156.36l-25.535-68.23H422.492l-25.535,68.23H329l127.311-318.4h65.5l128.54,318.4H580.76Zm-91.9-245.551L443.431,1032.18h90.855Zm647.4,245.551H1072.4V911.65h63.86v244.71Z"/>
</svg>
