<svg xmlns="http://www.w3.org/2000/svg" xmlns:xlink="http://www.w3.org/1999/xlink" width="999.951" height="999.951" viewBox="0 0 1986 1986">
  <defs>
    <style>
      .cls-1 {
        fill-rule: evenodd;
        fill: url(#linear-gradient);
      }
    </style>
    <linearGradient id="linear-gradient" x1="635.019" y1="1348.84" x2="1367.079" y2="616.781" gradientUnits="userSpaceOnUse">
      <stop offset="0" stop-color="#9b9b9b"/>
      <stop offset="0.496" stop-color="#eee"/>
      <stop offset="1" stop-color="#9b9b9b"/>
    </linearGradient>
  </defs>
  <rect id="Rounded_Rectangle_1" data-name="Rounded Rectangle 1" x="0.219" y="0.313" width="1985.721" height="1985.717"/>
  <path id="alien_invaders" data-name="alien invaders" class="cls-1" d="M1797.98,1148.77a134.92,134.92,0,0,0-31.76-3.89q-23.1,0-34.65,7.56t-11.55,19.48q0,10.995,7.43,16.5,7.425,5.49,19.38,8.48,11.97,2.985,26.61,5.5t29.08,6.41a109.194,109.194,0,0,1,26.61,11,53.807,53.807,0,0,1,19.59,19.94q7.425,12.84,7.43,33.46,0,23.37-12.17,40.1t-34.24,26.13q-22.065,9.39-53.01,9.39a174.047,174.047,0,0,1-53.21-8.02q-25.17-8.01-40.42-19.48l19.8-43.54q14.85,10.545,35.47,17.19a135.128,135.128,0,0,0,41.66,6.65q23.925,0,34.86-7.11,10.92-7.1,10.93-19.48,0-10.08-7.42-15.35t-19.39-8.02q-11.97-2.76-26.61-5.04a284.807,284.807,0,0,1-29.28-6.19,94.986,94.986,0,0,1-26.61-11.46,58,58,0,0,1-19.39-20.4q-7.425-12.825-7.42-34.37,0-22.92,11.96-40.11,11.955-17.175,33.62-26.81,21.66-9.615,51.35-9.62a183.941,183.941,0,0,1,44.76,5.73q22.89,5.73,38.16,15.81l-20.22,43.54A99.1,99.1,0,0,0,1797.98,1148.77Zm-158.81,2.52q-29.7,0-47.02,18.79-17.325,18.81-17.33,57.3v118.25h-51.15V1100.88h49.09v35.54a71.849,71.849,0,0,1,25.16-25.69q21.45-13.065,52.39-13.06v54.54q-2.895-.45-5.77-0.69C1642.61,1151.37,1640.82,1151.29,1639.17,1151.29Zm-157.98,90.29H1308.33a76.59,76.59,0,0,0,7.65,23.38,63.552,63.552,0,0,0,25.37,26.35q16.5,9.4,38.36,9.4,18.57,0,33.42-6.88a78.6,78.6,0,0,0,26.4-20.16l28.05,35.75a99.423,99.423,0,0,1-37.75,29.33q-22.485,10.1-51.35,10.08-36.72,0-64.15-16.27a112.12,112.12,0,0,1-42.49-44.46q-15.06-28.185-15.05-64.85t14.64-64.85a113.011,113.011,0,0,1,40.43-44.46q25.77-16.26,58.78-16.27,32.175,0,57.34,15.81t39.6,44.23q14.43,28.425,14.43,67.37,0,3.225-.2,8.02C1481.66,1236.31,1481.46,1239.14,1481.19,1241.58Zm-55.48-63.02q-8.055-16.26-22.07-25.21-14.025-8.925-33-8.93a62.523,62.523,0,0,0-33.21,8.93,58.253,58.253,0,0,0-22.48,25.44,80.923,80.923,0,0,0-7,24.75H1432.8A74.181,74.181,0,0,0,1425.71,1178.56Zm-18.57-340.851q0-32.538-13.61-48.583t-38.77-16.042q-18.165,0-32.18,8.25t-21.66,24.521q-7.635,16.273-7.63,41.021v123.75h-51.15V725.876h49.09v31.412a81.043,81.043,0,0,1,24.54-21.787q22.065-12.826,50.95-12.834,26.8,0,47.23,11.459t32.59,35.291q12.15,23.838,12.17,60.959v140.25h-51.57V837.709ZM1166.45,1313.53a80.784,80.784,0,0,1-22.89,21.78q-21.66,13.53-50.53,13.52-31.77,0-57.13-15.58-25.38-15.57-39.811-43.77t-14.438-66.23q0-37.575,14.438-66,14.432-28.41,39.811-44,25.365-15.57,57.13-15.58,27.63,0,49.5,13.52a82.05,82.05,0,0,1,21.03,18.86V1005.54h51.98v340.09h-49.09v-32.1Zm-10.52-130.84q-8.865-17.19-23.51-26.59a63.4,63.4,0,0,0-66.41,0q-14.655,9.4-23.51,26.59-8.88,17.19-8.87,40.56,0,22.92,8.87,40.56,8.865,17.655,23.51,27.04a63.347,63.347,0,0,0,66.41,0q14.64-9.375,23.51-27.04,8.865-17.64,8.87-40.56Q1164.8,1199.88,1155.93,1182.69Zm43.73-316.106H1026.8a76.577,76.577,0,0,0,7.65,23.375,63.567,63.567,0,0,0,25.37,26.354q16.5,9.4,38.36,9.4,18.57,0,33.41-6.875a78.49,78.49,0,0,0,26.4-20.167l28.06,35.75a99.374,99.374,0,0,1-37.75,29.334q-22.485,10.086-51.35,10.083-36.72,0-64.15-16.271a112.15,112.15,0,0,1-42.486-44.458q-15.063-28.188-15.056-64.854T989.9,783.4a113.049,113.049,0,0,1,40.429-44.458q25.77-16.263,58.78-16.271,32.175,0,57.34,15.813t39.6,44.229q14.43,28.424,14.43,67.375,0,3.212-.2,8.021C1200.13,861.313,1199.93,864.142,1199.66,866.584Zm-55.48-63.021q-8.055-16.263-22.07-25.208t-33-8.938a62.447,62.447,0,0,0-33.21,8.938,58.234,58.234,0,0,0-22.48,25.437,80.931,80.931,0,0,0-7,24.75h124.85A74.142,74.142,0,0,0,1144.18,803.563ZM892.97,1315.99a61.848,61.848,0,0,1-20.625,20.93q-18.978,11.925-48.675,11.91-24.75,0-43.313-9.39a68.969,68.969,0,0,1-28.669-26.13q-10.111-16.725-10.106-37.81,0-20.625,8.869-37.12t29.081-26.13q20.207-9.63,53.625-9.62H890.5v-3.67q0-25.2-13.819-39.19t-41.869-13.98a104.711,104.711,0,0,0-35.887,6.42,92.211,92.211,0,0,0-30.525,17.87l-20.213-41.7a125.113,125.113,0,0,1,42.488-22.92,165.488,165.488,0,0,1,50.737-7.79q48.262,0,74.25,25.66,25.987,25.68,25.988,78.84v143.46H892.97v-29.64Zm-2.475-75.32H836.87q-25.988,0-35.269,9.39-9.282,9.4-9.281,23.61,0,15.12,11.137,24.29t30.938,9.17a61.825,61.825,0,0,0,34.031-9.63q15.052-9.63,22.069-28.42v-28.41Zm43.518-270.044h-51.15V725.876h51.15v244.75ZM908.438,685.542q-14.443,0-23.719-10.083t-9.281-24.75a34.028,34.028,0,0,1,9.281-23.833Q894,616.8,908.438,616.792t23.719,9.4q9.28,9.4,9.281,24.063t-9.075,24.979Q923.285,685.543,908.438,685.542Zm-136.532-55h51.15V970.626h-51.15V630.542ZM592.674,1345.63l-94.463-244.75h53.213l68.672,181.5,70.753-181.5h49.5l-94.463,244.75H592.674Zm72.4-404.636a61.882,61.882,0,0,1-20.625,20.923q-18.978,11.925-48.675,11.917-24.75,0-43.312-9.4a68.958,68.958,0,0,1-28.669-26.125q-10.113-16.725-10.106-37.812,0-20.625,8.868-37.125t29.082-26.125q20.205-9.626,53.625-9.625H662.6v-3.667q0-25.2-13.819-39.188t-41.868-13.979a104.832,104.832,0,0,0-35.888,6.417A92.224,92.224,0,0,0,540.5,795.084l-20.212-41.708a125.2,125.2,0,0,1,42.487-22.917,165.44,165.44,0,0,1,50.738-7.792q48.262,0,74.25,25.667t25.987,78.833V970.626H665.071V940.994ZM662.6,865.667H608.971q-25.988,0-35.269,9.4t-9.281,23.6q0,15.126,11.138,24.292t30.937,9.167a61.849,61.849,0,0,0,34.031-9.625q15.054-9.626,22.069-28.417V865.667ZM429.323,1212.71q0-32.535-13.613-48.58t-38.775-16.05q-18.156,0-32.175,8.25T323.1,1180.85q-7.638,16.275-7.631,41.03v123.75h-51.15V1100.88H313.41v31.41a80.957,80.957,0,0,1,24.544-21.79q22.062-12.825,50.944-12.83,26.809,0,47.231,11.46t32.587,35.29q12.164,23.835,12.169,60.96v140.25H429.323V1212.71ZM178.941,1060.54q-14.443,0-23.719-10.08t-9.281-24.75a34.009,34.009,0,0,1,9.281-23.83q9.282-10.083,23.719-10.088t23.719,9.4q9.281,9.39,9.281,24.06t-9.075,24.98Q193.788,1060.535,178.941,1060.54Zm25.575,285.09h-51.15V1100.88h51.15v244.75Z"/>
</svg>
