<svg xmlns="http://www.w3.org/2000/svg" xmlns:xlink="http://www.w3.org/1999/xlink" width="999.951" height="999.951" viewBox="0 0 1986 1986">
  <defs>
    <style>
      .cls-1 {
        fill: url(#linear-gradient);
      }

      .cls-2 {
        fill-rule: evenodd;
        fill: url(#linear-gradient-2);
      }
    </style>
    <linearGradient id="linear-gradient" x1="0.221" y1="1986.03" x2="1985.938" y2="0.313" gradientUnits="userSpaceOnUse">
      <stop offset="0.1" stop-color="#152311"/>
      <stop offset="0.5" stop-color="#5aa158"/>
      <stop offset="0.9" stop-color="#60e5f2"/>
    </linearGradient>
    <linearGradient id="linear-gradient-2" x1="1285.558" y1="828.906" x2="718.22" y2="1226.16" gradientUnits="userSpaceOnUse">
      <stop offset="0.31" stop-color="#152311"/>
      <stop offset="0.5" stop-color="#5aa158"/>
      <stop offset="0.69" stop-color="#60e5f2"/>
    </linearGradient>
  </defs>
  <rect id="Rounded_Rectangle_1" data-name="Rounded Rectangle 1" class="cls-1" x="0.219" y="0.313" width="1985.721" height="1985.717"/>
  <path id="Comedy" class="cls-2" d="M1780.61,914.745l-92.04,240.295q-9.855,27.78-22.54,43.14-12.69,15.345-28.02,21.67a88.26,88.26,0,0,1-33.9,6.31,93.094,93.094,0,0,1-31.06-5.47q-15.54-5.475-25.75-15.15l21.58-47.13a47.036,47.036,0,0,0,15.72,10.94,45.656,45.656,0,0,0,17.99,3.79q12.12,0,19.51-6.53t13.44-21.67l0.73-1.91-87.84-228.285h60.6l57.33,153.635,57.81-153.635h56.44ZM1482.53,1115.3a67.387,67.387,0,0,1-17.61,16.81q-19.125,12.405-46.02,12.41-28.785,0-51.88-14.52-23.115-14.52-36.36-40.61-13.275-26.085-13.26-61.44,0-35.355,13.26-61.442,13.245-26.088,36.36-40.611,23.085-14.519,51.88-14.518,25.755,0,45.08,12.625a70.6,70.6,0,0,1,15.9,14.374V828.9h59.09V1141.15h-56.44V1115.3Zm-8.52-121.017q-7.005-13.887-18.75-21.252a48.878,48.878,0,0,0-26.51-7.365,48.171,48.171,0,0,0-26.13,7.365q-11.745,7.368-18.75,21.252t-7.01,33.667q0,19.365,7.01,33.67t18.75,21.67a48.133,48.133,0,0,0,26.13,7.36,48.84,48.84,0,0,0,26.51-7.36q11.745-7.365,18.75-21.67t7.01-33.67Q1481.02,1008.18,1474.01,994.283Zm-167.97,52.187H1151.9a59.738,59.738,0,0,0,6.05,16.83,52.265,52.265,0,0,0,20.83,21.25q13.245,7.365,31.81,7.37,15.915,0,28.22-5.47a69.545,69.545,0,0,0,22.54-16.42l31.43,37.88a92.1,92.1,0,0,1-35.22,27.14q-21.225,9.465-48.86,9.47-34.845,0-60.98-15.15a105.821,105.821,0,0,1-40.53-41.45q-14.385-26.3-14.39-59.97t13.83-60.18a102.746,102.746,0,0,1,38.63-41.452q24.795-14.932,55.86-14.939,29.925,0,53.98,14.308t38.06,40.4q14.01,26.1,14.01,62.7c0,2.53-.13,5.41-0.37,8.63Q1306.41,1042.265,1306.04,1046.47Zm-60.22-57.658a50.3,50.3,0,0,0-17.8-20.41q-11.37-7.359-26.52-7.365t-26.7,7.365a49.416,49.416,0,0,0-17.99,20.62,63.982,63.982,0,0,0-5.63,19.148h100.17A59.478,59.478,0,0,0,1245.82,988.812Zm-237.1,32.828q0-27.36-10.035-40.4t-28.217-13.046a42.734,42.734,0,0,0-23.483,6.523q-10.226,6.529-15.718,19.358t-5.492,33.458v113.62H866.69V1021.64q0-27.36-10.036-40.4t-28.975-13.046a42.062,42.062,0,0,0-23.1,6.523q-10.226,6.529-15.907,19.358t-5.681,33.458v113.62H723.9V914.745h56.433V940.6a71.558,71.558,0,0,1,19.317-17.229q19.689-11.992,44.313-11.993,28.024,0,49.238,15.781a66.019,66.019,0,0,1,18.32,21.224,89.816,89.816,0,0,1,21.449-21.224q22.342-15.781,51.888-15.781,24.24,0,42.99,10.731t29.35,32.825q10.6,22.094,10.61,56.605v129.61h-59.09V1021.64ZM645.5,1129.37q-25.38,15.15-57.949,15.15-32.2,0-57.38-15.15a107.749,107.749,0,0,1-39.58-41.45q-14.4-26.3-14.392-59.97,0-34.1,14.392-60.39a106.307,106.307,0,0,1,39.58-41.242q25.183-14.932,57.38-14.939,32.569,0,57.949,14.939A105.989,105.989,0,0,1,685.27,967.56q14.39,26.306,14.392,60.39t-14.392,60.18A107.823,107.823,0,0,1,645.5,1129.37ZM632.813,994.283Q625.8,980.4,614.254,973.031a47.95,47.95,0,0,0-26.323-7.365,48.878,48.878,0,0,0-26.513,7.365q-11.743,7.368-18.748,21.252t-7.007,33.667q0,19.365,7.007,33.67t18.748,21.67a48.159,48.159,0,0,0,26.134,7.36q15.144,0,26.7-7.36t18.559-21.67q7-14.31,7.007-33.67Q639.82,1008.18,632.813,994.283ZM406.7,908.012a77.529,77.529,0,0,0-36.549-8.837,82.547,82.547,0,0,0-34.088,6.943,79.339,79.339,0,0,0-26.891,19.569,89.87,89.87,0,0,0-17.612,29.879,120.476,120.476,0,0,0,0,76.594,89.8,89.8,0,0,0,17.612,29.88,79.449,79.449,0,0,0,26.891,19.57,82.69,82.69,0,0,0,34.088,6.94,75.994,75.994,0,0,0,36.549-9.05q16.848-9.045,30.111-26.3l39.768,40.4a124.88,124.88,0,0,1-46.965,39.14q-28.032,13.455-62.872,13.46a144.681,144.681,0,0,1-57-11.15,132.636,132.636,0,0,1-45.639-31.77,148.717,148.717,0,0,1-30.111-48.4Q223.2,1027.115,223.2,993.862t10.794-61.021a147.145,147.145,0,0,1,30.3-48.4,134.791,134.791,0,0,1,45.829-31.773,144.682,144.682,0,0,1,57-11.152q34.459,0,62.493,13.257A123.109,123.109,0,0,1,476.582,893.7l-39.768,40.4Q423.551,916.853,406.7,908.012Z"/>
</svg>
