<svg xmlns="http://www.w3.org/2000/svg" xmlns:xlink="http://www.w3.org/1999/xlink" width="999.951" height="999.951" viewBox="0 0 1986 1986">
  <defs>
    <style>
      .cls-1 {
        fill-rule: evenodd;
        fill: url(#linear-gradient);
      }
    </style>
    <linearGradient id="linear-gradient" x1="561.547" y1="1424.75" x2="1424.423" y2="561.875" gradientUnits="userSpaceOnUse">
      <stop offset="-0.25" stop-color="#9b9b9b"/>
      <stop offset="0.495" stop-color="#eee"/>
      <stop offset="1.25" stop-color="#9b9b9b"/>
    </linearGradient>
  </defs>
  <rect id="Rounded_Rectangle_1" data-name="Rounded Rectangle 1" x="0.219" y="0.313" width="1985.721" height="1985.717"/>
  <path id="coming_of_age" data-name="coming of age" class="cls-1" d="M1759.63,880.915q-0.27,66.452-30.92,97.73t-88.4,31.045a199.479,199.479,0,0,1-59.57-9.18q-28.635-9.057-47.54-26.548l23.27-42.532q14.385,13.347,36.22,21.688a127.424,127.424,0,0,0,45.34,8.433q35.88,0.144,52.87-18.35t17.14-56.077l0.05-12.932a83.632,83.632,0,0,1-23.38,19.713q-22.545,12.746-50.58,12.63-31.77-.129-56.87-15.126a107.235,107.235,0,0,1-39.64-41.639q-14.535-26.634-14.39-61.933,0.135-35.749,14.89-62.5t39.98-41.319q25.215-14.56,56.98-14.437,28.05,0.114,50.48,12.808a83.1,83.1,0,0,1,25.69,22.855l0.13-32.147,49.09,0.2Zm-58.67-129.029a60.9,60.9,0,0,0-23.63-24.387q-15.225-8.763-34.61-8.848t-34.89,8.568a60.368,60.368,0,0,0-24.02,24.195q-8.535,15.552-8.61,36.632-0.075,20.173,8.31,36.013a61.532,61.532,0,0,0,23.83,24.846,68.385,68.385,0,0,0,34.82,9.078q19.38,0.078,34.68-8.8a61.959,61.959,0,0,0,23.82-24.654q8.52-15.779,8.6-35.945Q1709.35,767.511,1700.96,751.886ZM1573.11,1101.81q25.08,15.915,39.42,44.39,14.31,28.485,14.16,67.43c0,2.14-.09,4.81-0.23,8.02q-0.24,4.815-.66,8.48l-172.85-.7a76.458,76.458,0,0,0,7.55,23.41,63.56,63.56,0,0,0,25.27,26.45q16.455,9.465,38.32,9.55,18.555,0.075,33.44-6.74a78.405,78.405,0,0,0,26.48-20.06l27.91,35.87a99.394,99.394,0,0,1-37.87,29.18q-22.515,9.99-51.39,9.87-36.72-.135-64.08-16.53a112.08,112.08,0,0,1-42.31-44.62q-14.94-28.26-14.79-64.92t14.9-64.79q14.76-28.14,40.61-44.3,25.83-16.155,58.84-16.03Q1548.005,1085.89,1573.11,1101.81Zm-57.47,30.71q-18.555-.075-33.24,8.8a58.177,58.177,0,0,0-22.58,25.35,80.736,80.736,0,0,0-7.1,24.72l124.84,0.5a74.074,74.074,0,0,0-6.98-25.01q-7.98-16.29-21.97-25.29T1515.64,1132.52Zm-84.09-215.8,0.54-132.915q0.12-32.538-13.42-48.638t-38.71-16.2q-18.165-.073-32.21,8.12T1326,751.521q-7.71,16.244-7.8,40.99l-0.5,123.749-51.15-.207,0.99-244.748,49.08,0.2-0.12,31.413a80.907,80.907,0,0,1,24.63-21.689q22.11-12.736,50.99-12.628,26.82,0.108,47.19,11.649t32.44,35.422q12.075,23.886,11.93,61.007l-0.57,140.249ZM1311.51,1120.3l0.13-32.15,49.09,0.2-0.84,207.62q-0.27,66.45-30.92,97.73t-88.4,31.04a199.2,199.2,0,0,1-59.57-9.17q-28.635-9.06-47.54-26.55l23.28-42.53q14.37,13.35,36.21,21.69a127.374,127.374,0,0,0,45.34,8.43q35.88,0.15,52.87-18.35t17.14-56.08l0.06-12.93a83.7,83.7,0,0,1-23.39,19.71q-22.545,12.75-50.58,12.63-31.77-.12-56.87-15.12a107.315,107.315,0,0,1-39.64-41.64q-14.535-26.64-14.39-61.93,0.15-35.76,14.89-62.51,14.76-26.745,39.98-41.32,25.215-14.55,56.98-14.43,28.05,0.1,50.48,12.81A83.078,83.078,0,0,1,1311.51,1120.3Zm-68.53,13.41q-19.395-.075-34.89,8.57a60.325,60.325,0,0,0-24.02,24.19q-8.52,15.555-8.61,36.64-0.075,20.16,8.31,36.01a61.607,61.607,0,0,0,23.83,24.84,68.367,68.367,0,0,0,34.82,9.08q19.38,0.075,34.69-8.8a61.939,61.939,0,0,0,23.81-24.65q8.52-15.78,8.61-35.94,0.075-21.09-8.31-36.7a60.933,60.933,0,0,0-23.62-24.39Q1262.36,1133.8,1242.98,1133.71Zm-36.24-217.9-51.15-.206,0.99-244.748,51.15,0.206Zm-24.42-285.184q-14.445-.057-23.68-10.178t-9.18-24.788a34.018,34.018,0,0,1,9.38-23.8q9.315-10.039,23.76-9.988t23.68,9.491q9.24,9.436,9.18,24.1t-9.18,24.942Q1197.16,630.689,1182.32,630.628ZM1046.29,915.166l0.53-132.916q0.135-32.538-12.8-48.635t-36.85-16.19q-16.92-.069-29.94,8.129t-20.311,24.439q-7.287,16.245-7.382,40.533l-0.5,124.208-51.15-.206,0.536-132.916q0.13-32.538-12.8-48.635t-36.854-16.191q-16.918-.067-29.939,8.13t-20.311,24.439q-7.288,16.245-7.383,40.533l-0.5,124.207-51.15-.206,0.987-244.748,49.087,0.2-0.124,30.729a81.154,81.154,0,0,1,23.391-21.01q21.293-12.741,48.932-12.636,30.938,0.124,53.557,17.174a71.382,71.382,0,0,1,20.4,24.615,94.96,94.96,0,0,1,24.971-24.432q24.819-16.851,57.408-16.727,26.385,0.1,46.77,11.647t31.83,35.42q11.445,23.883,11.3,61l-0.56,140.249ZM761.977,990.6a52.257,52.257,0,0,1,20.378,10.166l-14.609,42.57a48.152,48.152,0,0,0-12.76-6.93,43.68,43.68,0,0,0-15.251-2.81q-16.087-.075-24.377,9.75-8.3,9.84-8.367,29.07l-0.061,15.13,60.637,0.24-0.185,45.84-59.4-.24-0.794,197.08-51.149-.21,0.794-197.08-36.3-.14,0.185-45.84,36.3,0.15,0.061-15.13q0.158-38.94,20.669-62.02,20.513-23.052,58.462-22.908A100.949,100.949,0,0,1,761.977,990.6ZM630.959,900.43q-26.885,16.166-60.7,16.026-33.413-.135-59.953-16.513a115.032,115.032,0,0,1-41.688-44.855q-15.151-28.474-15-64.686,0.15-37.125,15.525-65.022a116.523,116.523,0,0,1,41.84-44.061q26.458-16.156,60.29-16.028,34.235,0.138,60.778,16.516a114.544,114.544,0,0,1,41.484,44.4q14.94,28.022,14.794,65.143-0.148,36.674-15.318,64.793A113.581,113.581,0,0,1,630.959,900.43Zm-2.9-149.888q-8.39-17.221-23.2-26.677a64.107,64.107,0,0,0-66.825-.27q-14.888,9.341-23.619,26.489t-8.826,40.527q-0.093,22.923,8.5,40.6t23.4,27.136a60.43,60.43,0,0,0,32.962,9.529q18.969,0.076,33.863-9.259t23.415-26.948q8.52-17.6,8.619-40.528Q636.444,767.763,628.056,750.542ZM375.308,722.023a59.022,59.022,0,0,0-30.7-8.6A63.356,63.356,0,0,0,286.3,749.164q-8.731,17.153-8.826,40.528t8.5,40.826q8.592,17.458,23.817,26.909a63.956,63.956,0,0,0,34.2,9.533,58.952,58.952,0,0,0,30.765-8.355q14.265-8.418,24.236-25.8l39.083,25.824q-12.485,27.45-37.3,42.246t-56.572,14.668q-34.65-.139-61.6-16.519A114.5,114.5,0,0,1,240.5,854.4q-15.151-28.248-15-64.915,0.15-37.124,15.525-65.021A115.021,115.021,0,0,1,283.487,680.4q27.078-16.155,61.734-16.023,31.76,0.129,56.453,14.895t36.953,42.774l-39.291,25.508Q389.505,730.567,375.308,722.023Zm55.621,375.647q26.459-16.155,60.29-16.03,34.233,0.135,60.777,16.51a114.641,114.641,0,0,1,41.484,44.4q14.94,28.02,14.794,65.14-0.147,36.675-15.317,64.8a113.59,113.59,0,0,1-42.048,44.29q-26.885,16.155-60.7,16.02-33.412-.135-59.953-16.51a114.959,114.959,0,0,1-41.689-44.86q-15.15-28.47-15-64.68,0.148-37.125,15.524-65.02A116.48,116.48,0,0,1,430.929,1097.67Zm3.108,149.89q8.592,17.67,23.4,27.13a60.406,60.406,0,0,0,32.962,9.53q18.969,0.075,33.863-9.26t23.415-26.95q8.52-17.6,8.62-40.52,0.093-23.385-8.293-40.6t-23.2-26.68a64.112,64.112,0,0,0-66.825-.27q-14.887,9.345-23.619,26.49t-8.826,40.53Q425.446,1229.88,434.037,1247.56Zm487.351-49.6q20.245-9.555,53.663-9.41l57.339,0.23,0.01-3.67q0.105-25.2-13.66-39.24-13.77-14.025-41.81-14.15a104.975,104.975,0,0,0-35.913,6.27,92.305,92.305,0,0,0-30.6,17.76l-20.045-41.79a125.069,125.069,0,0,1,42.58-22.75,165.356,165.356,0,0,1,50.768-7.59q48.264,0.2,74.146,25.97t25.67,78.94l-0.58,143.45-48.67-.19,0.12-29.63A62.051,62.051,0,0,1,1013.7,1323q-19.035,11.835-48.725,11.72-24.75-.1-43.274-9.57a69,69,0,0,1-28.564-26.24q-10.044-16.77-9.953-37.86,0.083-20.625,9.018-37.09T921.388,1197.96Zm23.58,85.8q11.1,9.225,30.9,9.29a61.839,61.839,0,0,0,34.072-9.49q15.09-9.555,22.18-28.32h0l0.12-28.42-53.629-.22q-25.988-.105-35.307,9.26t-9.376,23.56Q933.866,1274.555,944.968,1283.76Z"/>
</svg>
