<svg xmlns="http://www.w3.org/2000/svg" xmlns:xlink="http://www.w3.org/1999/xlink" width="999.951" height="999.951" viewBox="0 0 1986 1986">
  <defs>
    <style>
      .cls-1 {
        fill-rule: evenodd;
        fill: url(#linear-gradient);
      }
    </style>
    <linearGradient id="linear-gradient" x1="633.716" y1="1323.41" x2="1352.438" y2="604.688" gradientUnits="userSpaceOnUse">
      <stop offset="0" stop-color="#9b9b9b"/>
      <stop offset="0.496" stop-color="#eee"/>
      <stop offset="1" stop-color="#9b9b9b"/>
    </linearGradient>
  </defs>
  <rect id="Rounded_Rectangle_1" data-name="Rounded Rectangle 1" x="0.219" y="0.313" width="1985.721" height="1985.717"/>
  <path id="creature_feature_" data-name="creature feature " class="cls-1" d="M1843.86,791.013q-0.21,4.812-.62,8.479H1670.38a76.577,76.577,0,0,0,7.65,23.375,63.567,63.567,0,0,0,25.37,26.354q16.5,9.4,38.36,9.4,18.57,0,33.42-6.875a78.588,78.588,0,0,0,26.4-20.167l28.05,35.75a99.374,99.374,0,0,1-37.75,29.334q-22.485,10.086-51.35,10.083-36.72,0-64.15-16.271a112.094,112.094,0,0,1-42.48-44.458q-15.075-28.188-15.06-64.854,0-36.663,14.64-64.855a113.066,113.066,0,0,1,40.43-44.458q25.77-16.263,58.78-16.271,32.175,0,57.34,15.813t39.6,44.229q14.43,28.424,14.43,67.375Q1844.06,786.2,1843.86,791.013Zm-56.1-54.542q-8.04-16.263-22.07-25.208t-33-8.938a62.447,62.447,0,0,0-33.21,8.938A58.234,58.234,0,0,0,1677,736.7a80.931,80.931,0,0,0-7,24.75h124.85A74.142,74.142,0,0,0,1787.76,736.471ZM1664.21,1088.05q25.155,15.825,39.6,44.23,14.445,28.425,14.44,67.38,0,3.21-.21,8.02t-0.61,8.48H1544.57a76.529,76.529,0,0,0,7.65,23.37,63.576,63.576,0,0,0,25.37,26.36q16.485,9.39,38.36,9.39,18.57,0,33.41-6.87a78.409,78.409,0,0,0,26.4-20.17l28.05,35.75a99.317,99.317,0,0,1-37.74,29.34q-22.485,10.08-51.36,10.08-36.72,0-64.14-16.27a112.185,112.185,0,0,1-42.49-44.46q-15.06-28.185-15.05-64.85t14.64-64.86q14.64-28.185,40.42-44.46,25.785-16.26,58.79-16.27Q1639.055,1072.24,1664.21,1088.05Zm-57.33,30.94a62.439,62.439,0,0,0-33.21,8.94,58.191,58.191,0,0,0-22.48,25.44,80.923,80.923,0,0,0-7,24.75h124.84a73.659,73.659,0,0,0-7.09-24.98q-8.04-16.26-22.06-25.21Q1625.84,1118.99,1606.88,1118.99ZM1592.03,709.2q-29.7,0-47.03,18.792t-17.32,57.292v118.25h-51.15V658.784h49.08V694.33a71.93,71.93,0,0,1,25.17-25.692q21.435-13.064,52.38-13.063v54.542c-1.92-.3-3.85-0.53-5.77-0.688S1593.68,709.2,1592.03,709.2Zm-114.68,417.58q-2.895-.45-5.78-0.68c-1.92-.15-3.71-0.23-5.36-0.23q-29.7,0-47.02,18.79t-17.33,57.29V1320.2h-51.15V1075.45h49.09V1111a71.957,71.957,0,0,1,25.16-25.7q21.45-13.05,52.39-13.06v54.54ZM1367.63,872.214a81.191,81.191,0,0,1-23.93,21.695,89.885,89.885,0,0,1-47.02,12.833q-28.065,0-49.5-11.688-21.465-11.686-33.62-35.75-12.18-24.061-12.17-60.729V658.784h51.97V791.242q0,32.549,13.62,48.812,13.605,16.275,37.95,16.271,18.135,0,31.76-8.25,13.605-8.25,21.04-24.75t7.42-40.791V658.784h51.56v244.75h-49.08v-31.32ZM1210.87,1264.74q13.62-8.25,21.04-24.75t7.43-40.79V1075.45h51.56V1320.2h-49.09v-31.32a81.074,81.074,0,0,1-23.92,21.7,89.992,89.992,0,0,1-47.03,12.83q-28.05,0-49.5-11.69t-33.62-35.75q-12.165-24.06-12.17-60.73V1075.45h51.98v132.46q0,32.55,13.61,48.81t37.95,16.27Q1197.26,1272.99,1210.87,1264.74Zm-64.34-362.123a89.474,89.474,0,0,1-26.82,4.125q-36.3,0-56.1-20.854t-19.8-61.188V706.45h-36.3V660.617h36.3V604.7h51.15v55.917h59.4V706.45h-59.4V822.867q0,17.424,8.25,27.042t23.1,9.625q16.92,0,28.05-10.084l14.85,40.792A62.5,62.5,0,0,1,1146.53,902.617ZM930.379,873.9a61.882,61.882,0,0,1-20.625,20.923q-18.978,11.923-48.675,11.917-24.75,0-43.312-9.4A68.958,68.958,0,0,1,789.1,871.221q-10.113-16.725-10.106-37.812,0-20.625,8.868-37.125t29.082-26.125q20.205-9.625,53.625-9.625H927.9v-3.667q0-25.2-13.819-39.188T872.217,703.7a104.832,104.832,0,0,0-35.888,6.417A92.207,92.207,0,0,0,805.8,727.992l-20.212-41.708a125.2,125.2,0,0,1,42.487-22.917,165.44,165.44,0,0,1,50.738-7.792q48.262,0,74.25,25.667t25.987,78.833V903.534H930.379V873.9ZM927.9,798.575H874.279q-25.988,0-35.269,9.4t-9.281,23.6q0,15.126,11.138,24.292t30.937,9.167a61.849,61.849,0,0,0,34.031-9.625q15.054-9.625,22.069-28.417V798.575Zm-169.123.917H585.924a76.552,76.552,0,0,0,7.651,23.375,63.553,63.553,0,0,0,25.369,26.354q16.494,9.4,38.362,9.4,18.563,0,33.413-6.875a78.509,78.509,0,0,0,26.4-20.167l28.05,35.75a99.37,99.37,0,0,1-37.744,29.334q-22.488,10.086-51.356,10.083-36.72,0-64.144-16.271a112.132,112.132,0,0,1-42.487-44.458q-15.063-28.188-15.057-64.854T549.025,716.3q14.637-28.186,40.425-44.458t58.781-16.271q32.175,0,57.338,15.813t39.6,44.229q14.435,28.424,14.437,67.375,0,3.212-.206,8.021T758.781,799.492ZM703.3,736.471q-8.043-16.263-22.069-25.208t-33-8.938a62.44,62.44,0,0,0-33.206,8.938A58.212,58.212,0,0,0,592.544,736.7a80.9,80.9,0,0,0-7,24.75H710.39A74.073,74.073,0,0,0,703.3,736.471ZM579.755,1088.05q25.156,15.825,39.6,44.23,14.434,28.425,14.438,67.38,0,3.21-.206,8.02t-0.619,8.48H460.11a76.5,76.5,0,0,0,7.652,23.37,63.559,63.559,0,0,0,25.368,26.36q16.494,9.39,38.363,9.39,18.563,0,33.412-6.87a78.428,78.428,0,0,0,26.4-20.17l28.05,35.75a99.342,99.342,0,0,1-37.743,29.34q-22.488,10.08-51.357,10.08-36.718,0-64.143-16.27a112.133,112.133,0,0,1-42.488-44.46q-15.063-28.185-15.056-64.85t14.644-64.86q14.637-28.185,40.425-44.46,25.774-16.26,58.781-16.27Q554.593,1072.24,579.755,1088.05Zm-57.337,30.94a62.433,62.433,0,0,0-33.206,8.94,58.233,58.233,0,0,0-22.482,25.44,80.923,80.923,0,0,0-7,24.75H584.576a74.068,74.068,0,0,0-7.089-24.98q-8.044-16.26-22.069-25.21T522.418,1118.99ZM507.567,709.2q-29.7,0-47.025,18.792t-17.325,57.292v118.25h-51.15V658.784h49.088V694.33a71.925,71.925,0,0,1,25.162-25.692q21.444-13.064,52.388-13.063v54.542q-2.891-.451-5.775-0.688T507.567,709.2Zm-89.509,281-14.437,42.63a48.318,48.318,0,0,0-12.788-6.88,43.7,43.7,0,0,0-15.262-2.75q-16.088,0-24.338,9.85-8.256,9.87-8.25,29.11v15.12h60.638v45.84h-59.4V1320.2h-51.15V1123.12h-36.3v-45.84h36.3v-15.12q0-38.955,20.419-62.11,20.418-23.131,58.368-23.141a101,101,0,0,1,25.782,3.208A52.254,52.254,0,0,1,418.058,990.2Zm-191.4-141.437a63.962,63.962,0,0,0,34.238,9.4,58.952,58.952,0,0,0,30.731-8.48q14.232-8.475,24.131-25.895l39.188,25.666q-12.375,27.5-37.125,42.4t-56.513,14.9q-34.65,0-61.668-16.271a114.5,114.5,0,0,1-42.282-44.458q-15.266-28.188-15.262-64.854,0-37.125,15.262-65.084a115.023,115.023,0,0,1,42.282-44.229q27.012-16.263,61.668-16.271,31.76,0,56.513,14.667t37.125,42.625l-39.188,25.667q-9.9-16.952-24.131-25.438a59.026,59.026,0,0,0-30.731-8.479A63.355,63.355,0,0,0,202.732,740.6q-8.662,17.187-8.662,40.563t8.662,40.791Q211.395,839.374,226.657,848.763ZM691.128,1186.83q20.207-9.63,53.625-9.63h57.338v-3.67q0-25.2-13.819-39.18T746.4,1120.37a104.937,104.937,0,0,0-35.887,6.41,92.231,92.231,0,0,0-30.525,17.88l-20.213-41.71a125.285,125.285,0,0,1,42.488-22.92A165.488,165.488,0,0,1,753,1072.24q48.262,0,74.25,25.67t25.988,78.83V1320.2H804.566v-29.63a61.909,61.909,0,0,1-20.625,20.92q-18.978,11.925-48.675,11.92-24.75,0-43.313-9.4a68.947,68.947,0,0,1-28.669-26.12q-10.111-16.725-10.106-37.81,0-20.625,8.869-37.13T691.128,1186.83Zm23.925,85.7q11.137,9.18,30.938,9.17a61.9,61.9,0,0,0,34.031-9.62q15.052-9.63,22.069-28.42v-28.42H748.466q-25.988,0-35.269,9.4t-9.281,23.6Q703.916,1263.375,715.053,1272.53ZM918,1021.37h51.15v55.91h59.4v45.84h-59.4v116.41q0,17.43,8.25,27.05t23.1,9.62q16.9,0,28.05-10.08l14.85,40.79a62.531,62.531,0,0,1-22.69,12.37,89.365,89.365,0,0,1-26.809,4.13q-36.3,0-56.1-20.86T918,1241.37V1123.12H881.7v-45.84H918v-55.91Z"/>
</svg>
