<svg xmlns="http://www.w3.org/2000/svg" xmlns:xlink="http://www.w3.org/1999/xlink" width="999.951" height="999.951" viewBox="0 0 1986 1986">
  <defs>
    <style>
      .cls-1 {
        fill-rule: evenodd;
        fill: url(#linear-gradient);
      }
    </style>
    <linearGradient id="linear-gradient" x1="815.031" y1="1162.09" x2="1173.433" y2="803.688" gradientUnits="userSpaceOnUse">
      <stop offset="0" stop-color="#9b9b9b"/>
      <stop offset="0.496" stop-color="#eee"/>
      <stop offset="1" stop-color="#9b9b9b"/>
    </linearGradient>
  </defs>
  <rect id="Rounded_Rectangle_1" data-name="Rounded Rectangle 1" x="0.219" y="0.313" width="1985.721" height="1985.717"/>
  <path id="Crime" class="cls-1" d="M1601.43,1044.99c-0.14,3.21-.35,6.03-0.62,8.48H1427.95a76.543,76.543,0,0,0,7.66,23.37,63.515,63.515,0,0,0,25.37,26.36q16.485,9.39,38.36,9.39,18.555,0,33.41-6.87a78.538,78.538,0,0,0,26.4-20.17l28.05,35.75a99.368,99.368,0,0,1-37.74,29.33q-22.485,10.095-51.36,10.09-36.72,0-64.14-16.27a112.251,112.251,0,0,1-42.49-44.46q-15.06-28.185-15.06-64.86t14.65-64.851q14.64-28.188,40.42-44.459t58.78-16.27q32.175,0,57.34,15.812t39.6,44.229q14.43,28.423,14.44,67.379Q1601.64,1040.18,1601.43,1044.99Zm-56.1-54.545q-8.04-16.263-22.07-25.208t-33-8.937a62.445,62.445,0,0,0-33.2,8.937,58.175,58.175,0,0,0-22.48,25.438,80.94,80.94,0,0,0-7.03,24.745h124.87A74.146,74.146,0,0,0,1545.33,990.445Zm-260.07,34.145q0-32.535-13-48.582t-36.92-16.042q-16.9,0-29.9,8.25t-20.21,24.521q-7.23,16.28-7.22,40.563v124.21h-51.15V1024.59q0-32.535-13-48.582t-36.92-16.042q-16.9,0-29.9,8.25t-20.21,24.521q-7.23,16.28-7.22,40.563v124.21H968.457V912.758h49.083v30.729a81.32,81.32,0,0,1,23.31-21.1q21.24-12.827,48.88-12.833,30.945,0,53.63,16.958a71.4,71.4,0,0,1,20.5,24.532,94.99,94.99,0,0,1,24.87-24.532q24.75-16.952,57.34-16.958,26.4,0,46.82,11.458t31.97,35.292q11.535,23.837,11.55,60.96v140.25h-51.15V1024.59ZM883.076,872.425q-14.445,0-23.719-10.084t-9.281-24.75a34.027,34.027,0,0,1,9.281-23.833q9.281-10.077,23.719-10.083t23.718,9.4q9.282,9.4,9.282,24.063T907,862.112Q897.921,872.425,883.076,872.425Zm-73.016,90.75q-29.7,0-47.025,18.791T745.71,1039.26v118.25H694.56V912.758h49.087V948.3a71.927,71.927,0,0,1,25.163-25.692Q790.253,909.55,821.2,909.55v54.541q-2.891-.452-5.775-0.687T810.06,963.175Zm-340.1,115.045a95.959,95.959,0,0,0,32.588,23.37q18.765,8.25,41.456,8.25a94.34,94.34,0,0,0,41.663-9.39q19.385-9.39,35.475-28.65l34.65,36.21a132.023,132.023,0,0,1-49.5,40.33q-29.295,13.755-65.175,13.75-33.412,0-61.463-12.14a143.91,143.91,0,0,1-48.881-34.61,161.964,161.964,0,0,1-32.381-52.25q-11.553-29.79-11.55-66t11.55-66a160.369,160.369,0,0,1,32.587-52.25,146.261,146.261,0,0,1,49.088-34.6q28.047-12.138,61.462-12.146,35.472,0,64.763,13.521a130,130,0,0,1,49.5,40.1l-34.65,36.209q-16.087-18.789-35.475-28.188a94.358,94.358,0,0,0-41.663-9.4q-22.69,0-41.456,8.25a95.932,95.932,0,0,0-32.588,23.375,110.5,110.5,0,0,0-21.656,35.75q-7.84,20.625-7.837,45.375t7.837,45.379A110.56,110.56,0,0,0,469.957,1078.22Zm438.694,79.29H857.5V912.758h51.15V1157.51Z"/>
</svg>
