<svg xmlns="http://www.w3.org/2000/svg" xmlns:xlink="http://www.w3.org/1999/xlink" width="999.951" height="999.951" viewBox="0 0 1986 1986">
  <defs>
    <style>
      .cls-1 {
        fill-rule: evenodd;
        fill: url(#linear-gradient);
      }
    </style>
    <linearGradient id="linear-gradient" x1="834.28" y1="1155.94" x2="1158.314" y2="831.906" gradientUnits="userSpaceOnUse">
      <stop offset="0" stop-color="#9b9b9b"/>
      <stop offset="0.496" stop-color="#eee"/>
      <stop offset="1" stop-color="#9b9b9b"/>
    </linearGradient>
  </defs>
  <rect id="Rounded_Rectangle_1" data-name="Rounded Rectangle 1" x="0.219" y="0.313" width="1985.721" height="1985.717"/>
  <path id="Drama" class="cls-1" d="M1611.33,1152.74v-29.63a61.821,61.821,0,0,1-20.62,20.92q-18.975,11.925-48.68,11.92-24.75,0-43.31-9.4a69.026,69.026,0,0,1-28.67-26.13q-10.11-16.725-10.1-37.81,0-20.625,8.87-37.12t29.08-26.13q20.2-9.615,53.62-9.62h57.34v-3.67q0-25.2-13.82-39.187T1553.17,952.9a104.859,104.859,0,0,0-35.89,6.416,92.261,92.261,0,0,0-30.52,17.875l-20.21-41.708a125.114,125.114,0,0,1,42.48-22.917,165.494,165.494,0,0,1,50.74-7.791q48.27,0,74.25,25.666t25.99,78.835v143.46h-48.68Zm-56.1-104.96q-25.98,0-35.27,9.39-9.27,9.4-9.28,23.61,0,15.12,11.14,24.29t30.94,9.17a61.829,61.829,0,0,0,34.03-9.63q15.06-9.615,22.07-28.41v-28.42h-53.63Zm-188.51-27.96q0-32.538-12.99-48.583T1316.81,955.2q-16.92,0-29.9,8.25-13.005,8.25-20.22,24.521t-7.22,40.564v124.21h-51.15V1019.82q0-32.538-12.99-48.583T1158.41,955.2q-16.92,0-29.9,8.25-13.005,8.25-20.22,24.521t-7.22,40.564v124.21h-51.15V907.987h49.09v30.729a81.059,81.059,0,0,1,23.31-21.1q21.24-12.826,48.88-12.833,30.93,0,53.62,16.958a71.412,71.412,0,0,1,20.51,24.528,94.992,94.992,0,0,1,24.87-24.528q24.75-16.951,57.34-16.958,26.385,0,46.81,11.458t31.97,35.292q11.55,23.836,11.55,60.961v140.25h-51.15V1019.82ZM943.089,1123.11a61.909,61.909,0,0,1-20.625,20.92q-18.98,11.925-48.675,11.92-24.75,0-43.313-9.4a68.969,68.969,0,0,1-28.669-26.13q-10.113-16.725-10.106-37.81,0-20.625,8.869-37.12t29.081-26.13q20.207-9.615,53.625-9.62h57.338v-3.67q0-25.2-13.819-39.187T884.926,952.9a104.825,104.825,0,0,0-35.887,6.416A92.2,92.2,0,0,0,818.514,977.2L798.3,935.487a125.228,125.228,0,0,1,42.488-22.917,165.428,165.428,0,0,1,50.737-7.791q48.263,0,74.25,25.666t25.988,78.835v143.46H943.089v-29.63Zm-2.475-75.33H886.989q-25.988,0-35.269,9.39t-9.281,23.61q0,15.12,11.137,24.29t30.938,9.17a61.825,61.825,0,0,0,34.031-9.63Q933.6,1095,940.614,1076.2v-28.42ZM776.026,958.4q-29.7,0-47.025,18.791t-17.325,57.295v118.25h-51.15V907.987h49.088v35.546a71.933,71.933,0,0,1,25.162-25.692q21.444-13.062,52.388-13.062V959.32q-2.89-.45-5.775-0.687T776.026,958.4ZM541.112,1132.8q-35.683,19.935-81.881,19.94H332.594V831.9H459.231q46.194,0,81.881,19.937a139.935,139.935,0,0,1,55.482,56.146q19.8,36.212,19.8,84.333t-19.8,84.33A139.9,139.9,0,0,1,541.112,1132.8Zm8.25-198.688a97.7,97.7,0,0,0-37.125-38.042q-23.724-13.749-56.306-13.75H386.219v220h69.712q32.582,0,56.306-13.75a96.9,96.9,0,0,0,37.125-38.5q13.4-24.75,13.407-57.75Q562.769,958.408,549.362,934.112Z"/>
</svg>
