<svg xmlns="http://www.w3.org/2000/svg" xmlns:xlink="http://www.w3.org/1999/xlink" width="999.951" height="999.951" viewBox="0 0 1986 1986">
  <defs>
    <style>
      .cls-1 {
        fill-rule: evenodd;
        fill: url(#linear-gradient);
      }
    </style>
    <linearGradient id="linear-gradient" x1="626.921" y1="1356.69" x2="1345.455" y2="638.156" gradientUnits="userSpaceOnUse">
      <stop offset="0" stop-color="#9b9b9b"/>
      <stop offset="0.496" stop-color="#eee"/>
      <stop offset="1" stop-color="#9b9b9b"/>
    </linearGradient>
  </defs>
  <rect id="Rounded_Rectangle_1" data-name="Rounded Rectangle 1" x="0.219" y="0.313" width="1985.721" height="1985.717"/>
  <path id="dystopian_futures" data-name="dystopian futures" class="cls-1" d="M1782.39,937.3V824.929q0-27.51-11.51-41.075t-32.78-13.562q-15.36,0-27.2,6.975-11.865,6.975-18.31,20.731-6.465,13.76-6.46,34.681V937.3h-43.24V730.379h41.5v26.558a68.423,68.423,0,0,1,20.75-18.42q18.66-10.845,43.07-10.85,22.665,0,39.93,9.687t27.55,29.838q10.29,20.152,10.29,51.537V937.3h-43.59ZM1516.12,1228.23q10.11,2.52,22.5,4.65t24.58,5.42a92.176,92.176,0,0,1,22.5,9.3,45.51,45.51,0,0,1,16.56,16.86q6.285,10.845,6.28,28.29,0,19.755-10.29,33.9t-28.94,22.09q-18.66,7.935-44.82,7.94a147.275,147.275,0,0,1-44.99-6.78q-21.27-6.765-34.17-16.47l16.74-36.81a108.975,108.975,0,0,0,29.99,14.53,114.038,114.038,0,0,0,35.22,5.62q20.22,0,29.47-6.01t9.24-16.46q0-8.52-6.27-12.99-6.285-4.44-16.4-6.78t-22.49-4.26a239.364,239.364,0,0,1-24.76-5.23,80.513,80.513,0,0,1-22.5-9.69,49.155,49.155,0,0,1-16.39-17.24q-6.27-10.845-6.27-29.06,0-19.38,10.11-33.91t28.42-22.67q18.315-8.13,43.42-8.14a155.52,155.52,0,0,1,37.84,4.85q19.365,4.845,32.26,13.37l-17.09,36.81a83.966,83.966,0,0,0-26.5-11.82,114.136,114.136,0,0,0-26.86-3.29q-19.53,0-29.29,6.39t-9.77,16.47q0,9.3,6.28,13.95T1516.12,1228.23Zm36.44-315.978a52.313,52.313,0,0,1-17.43,17.69q-16.05,10.08-41.16,10.075-20.925,0-36.61-7.944a58.236,58.236,0,0,1-24.24-22.088,60.562,60.562,0,0,1-8.55-31.968,65.219,65.219,0,0,1,7.5-31.388q7.5-13.95,24.59-22.087T1502,816.4h48.47v-3.1q0-21.306-11.68-33.131t-35.4-11.819a88.605,88.605,0,0,0-30.34,5.425,78.021,78.021,0,0,0-25.81,15.113l-17.09-35.263a105.887,105.887,0,0,1,35.92-19.375,139.938,139.938,0,0,1,42.9-6.587q40.8,0,62.78,21.7,21.96,21.705,21.97,66.65V937.3h-41.16V912.252Zm-2.09-63.685h-45.34q-21.96,0-29.81,7.943t-7.85,19.957q0,12.788,9.42,20.537,9.4,7.756,26.15,7.75a52.286,52.286,0,0,0,28.77-8.137q12.735-8.137,18.66-24.025V848.567ZM1431.55,1258.84q-0.18,4.065-.52,7.17H1284.89a64.642,64.642,0,0,0,6.46,19.76,53.755,53.755,0,0,0,21.45,22.28q13.95,7.95,32.44,7.95a63.911,63.911,0,0,0,50.57-22.87l23.71,30.23a83.978,83.978,0,0,1-31.91,24.8q-19.02,8.52-43.42,8.52-31.05,0-54.23-13.75a94.749,94.749,0,0,1-35.92-37.59q-12.735-23.835-12.73-54.83t12.38-54.83a95.492,95.492,0,0,1,34.18-37.59q21.78-13.755,49.69-13.76,27.21,0,48.48,13.37t33.48,37.4q12.21,24.03,12.21,56.96Q1431.73,1254.775,1431.55,1258.84Zm-47.43-46.11a51.8,51.8,0,0,0-18.66-21.32q-11.85-7.545-27.9-7.55a52.85,52.85,0,0,0-28.07,7.55,49.259,49.259,0,0,0-19.01,21.51,68.666,68.666,0,0,0-5.92,20.93h105.56A62.707,62.707,0,0,0,1384.12,1212.73Zm3.49-275.426h-43.24V730.379h43.24V937.3Zm-21.62-241.025q-12.21,0-20.05-8.525-7.86-8.519-7.85-20.925a28.735,28.735,0,0,1,7.85-20.15q7.845-8.519,20.05-8.525t20.05,7.944q7.845,7.947,7.85,20.344a30.871,30.871,0,0,1-7.67,21.118Q1378.54,696.28,1365.99,696.279ZM1263.46,926.842q-21.27,13.177-48.48,13.175-23.01,0-41.5-11.432a69.1,69.1,0,0,1-18.13-16.428V1012.48H1112.1v-282.1h41.5V756.7a67.8,67.8,0,0,1,19.18-17.6,79.768,79.768,0,0,1,42.2-11.431q27.21,0,48.48,13.175t33.65,37.2q12.375,24.03,12.38,55.8,0,32.168-12.38,55.993T1263.46,926.842Zm-5.58-127.294a55.832,55.832,0,0,0-19.7-22.475,53.9,53.9,0,0,0-56.33,0,55.419,55.419,0,0,0-19.88,22.475q-7.32,14.531-7.32,34.294,0,19.38,7.32,34.1a56.527,56.527,0,0,0,19.88,22.862,52.8,52.8,0,0,0,56.33,0q12.375-8.137,19.7-22.862t7.32-34.1Q1265.2,814.08,1257.88,799.548ZM1028.75,926.26q-22.665,13.76-51.262,13.757-28.248,0-50.743-13.757a97.253,97.253,0,0,1-35.4-37.781q-12.906-24.023-12.9-54.637,0-31.387,12.9-55.025a98.51,98.51,0,0,1,35.224-37.394q22.314-13.751,50.917-13.756,28.944,0,51.442,13.756a96.8,96.8,0,0,1,35.22,37.394q12.735,23.64,12.73,55.025,0,31-12.73,54.831A95.959,95.959,0,0,1,1028.75,926.26Zm-2.96-126.712a54.181,54.181,0,0,0-19.7-22.475,54.206,54.206,0,0,0-56.5,0,55.357,55.357,0,0,0-19.878,22.475q-7.325,14.531-7.324,34.294,0,19.38,7.324,34.293T949.588,891a51.087,51.087,0,0,0,27.9,7.944,52.358,52.358,0,0,0,28.6-7.944q12.555-7.938,19.7-22.863t7.15-34.293Q1032.94,814.08,1025.79,799.548ZM851.936,936.529a75.6,75.6,0,0,1-22.668,3.488q-30.693,0-47.43-17.632T765.1,870.654V770.679h-30.69v-38.75H765.1V684.654h43.245v47.275h50.22v38.75h-50.22V869.1q0,14.731,6.975,22.863t19.53,8.137q14.3,0,23.715-8.525l12.555,34.488A52.886,52.886,0,0,1,851.936,936.529ZM636.06,811.56q10.112,2.526,22.5,4.65t24.586,5.425a92.064,92.064,0,0,1,22.5,9.3A45.507,45.507,0,0,1,722.2,847.792q6.277,10.853,6.278,28.287,0,19.763-10.288,33.906t-28.946,22.088q-18.662,7.938-44.815,7.944a147.342,147.342,0,0,1-44.989-6.782q-21.276-6.774-34.177-16.468L582,879.954A109.152,109.152,0,0,0,612,894.485,114.143,114.143,0,0,0,647.22,900.1q20.223,0,29.47-6.006t9.242-16.469q0-8.519-6.278-12.981t-16.391-6.781q-10.119-2.325-22.5-4.263a240.191,240.191,0,0,1-24.761-5.231,80.379,80.379,0,0,1-22.494-9.688,49.044,49.044,0,0,1-16.391-17.243q-6.277-10.845-6.278-29.063,0-19.372,10.114-33.906T609.381,735.8q18.309-8.137,43.419-8.137a155.669,155.669,0,0,1,37.84,4.843q19.355,4.851,32.259,13.369L705.81,782.692a83.9,83.9,0,0,0-26.5-11.819,114.009,114.009,0,0,0-26.854-3.294q-19.534,0-29.3,6.394t-9.765,16.469q0,9.3,6.278,13.95T636.06,811.56ZM462.209,990.585q-10.643,13.37-23.715,18.985a71.348,71.348,0,0,1-28.423,5.62,78.745,78.745,0,0,1-27.552-5.04A59.678,59.678,0,0,1,360.2,996.2l17.089-35.262a57.681,57.681,0,0,0,14.822,10.075,39.939,39.939,0,0,0,17.263,3.875q11.852,0,19.181-6.588t13.6-22.475l3.211-8.089L364.036,730.379h44.988l59.042,153.514L526.9,730.379h41.85L481.564,954.354Q472.843,977.214,462.209,990.585ZM302.657,910.168A68.34,68.34,0,0,1,283.3,928.585q-18.309,11.434-42.722,11.432-26.859,0-48.3-13.175t-33.654-37.007Q146.412,866,146.417,833.842q0-31.77,12.206-55.8t33.654-37.2q21.449-13.17,48.3-13.175,23.361,0,41.85,11.431a69.49,69.49,0,0,1,17.787,15.947V649.779h43.942V937.3h-41.5V910.168Zm-8.893-110.62q-7.5-14.532-19.879-22.475a53.58,53.58,0,0,0-56.149,0q-12.382,7.947-19.879,22.475t-7.5,34.294q0,19.38,7.5,34.293T217.736,891a53.58,53.58,0,0,0,56.149,0q12.375-7.938,19.879-22.863t7.5-34.293Q301.262,814.08,293.764,799.548ZM402.919,1135.81q0-32.94,17.263-52.51t49.348-19.57a85.129,85.129,0,0,1,21.8,2.72,44.241,44.241,0,0,1,17.263,8.52l-12.206,36.04a40.792,40.792,0,0,0-10.812-5.81,36.89,36.89,0,0,0-12.9-2.33q-13.6,0-20.577,8.33t-6.975,24.61v12.79h51.267v38.75h-50.22v166.62H402.919V1187.35h-30.69V1148.6h30.69v-12.79ZM560.9,1259.03q0,27.525,11.509,41.27t32.085,13.76q15.342,0,26.854-6.98t17.786-20.92q6.278-13.95,6.277-34.49V1147.05H699v206.92H657.5v-26.48a68.587,68.587,0,0,1-20.228,18.34,75.95,75.95,0,0,1-39.757,10.85q-23.721,0-41.85-9.88t-28.423-30.22q-10.291-20.355-10.288-51.35V1147.05H560.9v111.98Zm194.254-157.71H798.4v47.28h50.22v38.75H798.4v98.42q0,14.73,6.975,22.86t19.53,8.14q14.295,0,23.715-8.52l12.555,34.48a52.963,52.963,0,0,1-19.181,10.47,75.758,75.758,0,0,1-22.669,3.48q-30.693,0-47.43-17.63t-16.74-51.73v-99.97h-30.69V1148.6h30.69v-47.28Zm177.163,157.71q0,27.525,11.509,41.27t32.085,13.76q15.342,0,26.851-6.98t17.79-20.92q6.27-13.95,6.28-34.49V1147.05h43.59v206.92h-41.5v-26.48a68.582,68.582,0,0,1-20.23,18.34,75.944,75.944,0,0,1-39.756,10.85q-23.719,0-41.85-9.88t-28.423-30.22q-10.291-20.355-10.288-51.35V1147.05h43.942v111.98Zm230.175-81.93a60.8,60.8,0,0,1,21.27-21.72q18.135-11.055,44.3-11.05v46.12c-1.63-.26-3.26-0.45-4.89-0.59-1.63-.12-3.14-0.19-4.53-0.19q-25.11,0-39.76,15.89T1164.23,1254v99.97h-43.24V1147.05h41.5v30.05Z"/>
</svg>
