<svg xmlns="http://www.w3.org/2000/svg" xmlns:xlink="http://www.w3.org/1999/xlink" width="999.951" height="999.951" viewBox="0 0 1986 1986">
  <defs>
    <style>
      .cls-1 {
        fill: url(#linear-gradient);
      }

      .cls-2 {
        fill: #3f0c1e;
        fill-rule: evenodd;
      }
    </style>
    <linearGradient id="linear-gradient" x1="0.221" y1="1986.03" x2="1985.938" y2="0.313" gradientUnits="userSpaceOnUse">
      <stop offset="0" stop-color="#4e1729"/>
      <stop offset="0.337" stop-color="#d35d77"/>
      <stop offset="0.638" stop-color="#bd7663"/>
      <stop offset="1" stop-color="#e9dc93"/>
    </linearGradient>
  </defs>
  <rect id="Rounded_Rectangle_1" data-name="Rounded Rectangle 1" class="cls-1" x="0.219" y="0.313" width="1985.721" height="1985.717"/>
  <path id="kids_family" data-name="kids &amp; family" class="cls-2" d="M1519.99,929.757l-31.9-32.926a140.386,140.386,0,0,1-22.07,15.672q-30.105,17.26-66.85,17.254-28.785,0-51.7-10.521T1311.3,890.62q-13.26-18.09-13.26-41.663,0-21.876,8.71-39.558t27.65-32.825a218.881,218.881,0,0,1,22.43-15.544,153.3,153.3,0,0,1-12.2-15.6,99.959,99.959,0,0,1-11.93-23.356,71.458,71.458,0,0,1-3.98-23.356q0-21.464,10.42-37.875t29.16-25.461q18.75-9.043,42.99-9.048,23.475,0,40.34,8.207a63.9,63.9,0,0,1,26.51,23.356q9.66,15.15,9.66,36.192a70.182,70.182,0,0,1-8.34,33.666q-8.325,15.575-26.13,29.038c-5.24,3.963-11.18,7.953-17.74,11.969l48.71,50.017q9-19.836,13.34-45.574l47.35,15.992q-6.75,38.21-23.85,67.407l30.67,31.489Zm-82.19-234.4q0-10.513-6.63-17.465t-19.5-6.943q-13.635,0-21.21,7.575-7.59,7.575-7.58,19.358a32.747,32.747,0,0,0,2.47,12.415q2.445,6.105,8.71,13.887,3.75,4.688,9.52,11.133c4.74-2.82,8.92-5.486,12.44-7.977q11.94-8.414,16.86-15.991A28.875,28.875,0,0,0,1437.8,695.353Zm-48.74,99.27a128.44,128.44,0,0,0-11.86,8.463q-11.355,9.262-16.28,18.307a42.828,42.828,0,0,0-4.93,20.831,32.45,32.45,0,0,0,5.68,18.517,35.48,35.48,0,0,0,16.29,12.835Q1388.565,878,1403.34,878A77.958,77.958,0,0,0,1445.57,866a82.155,82.155,0,0,0,7.49-5.323Zm-58.82,525.827h-59.08V1008.19h59.08v312.26Zm-128.39-257.97q-16.665,0-26.89-10.52t-10.23-26.09q0-15.57,10.23-26.095t26.89-10.521q16.275,0,26.7,9.89t10.42,25.456q0,16.425-10.23,27.15T1201.85,1062.48Zm-47.53-143.664q-21.4,9.25-52.08,9.258a178.048,178.048,0,0,1-50-6.944q-23.865-6.943-38.25-17.464l19.31-46.713a140.623,140.623,0,0,0,33.52,15.36,123.466,123.466,0,0,0,37.69,6.1q20.445,0,28.97-5.471t8.53-15.15a13.133,13.133,0,0,0-6.63-11.994q-6.63-3.995-17.42-6.1t-24.06-4.208a215.7,215.7,0,0,1-26.32-5.892,96.689,96.689,0,0,1-24.24-10.731,50.285,50.285,0,0,1-17.8-19.148q-6.63-12.2-6.63-31.563,0-21.462,11.36-38.085t32.2-25.881q20.82-9.252,50.37-9.259a178.077,178.077,0,0,1,42.61,5.261q21.39,5.266,36.17,14.518l-20.07,46.713a99.419,99.419,0,0,0-29.35-13.046,116.592,116.592,0,0,0-28.6-3.787q-20.46,0-29.54,5.891t-9.09,15.15a14.36,14.36,0,0,0,6.81,12.836q6.825,4.418,17.81,6.523t24.24,4.208a209.382,209.382,0,0,1,26.13,5.892,97.505,97.505,0,0,1,24.05,10.731,50.321,50.321,0,0,1,17.8,19.148q6.63,12.21,6.63,31.562a62.591,62.591,0,0,1-11.36,36.823Q1175.71,909.561,1154.32,918.816ZM1094.1,1101.41q18.75,10.725,29.35,32.82t10.61,56.6v129.62h-59.09V1200.93q0-27.345-10.04-40.4-10.035-13.035-28.21-13.04a42.729,42.729,0,0,0-23.49,6.52q-10.215,6.525-15.714,19.36t-5.492,33.46v113.62H932.939V1200.93q0-27.345-10.037-40.4-10.04-13.035-28.974-13.04a42.024,42.024,0,0,0-23.1,6.52q-10.227,6.525-15.907,19.36t-5.682,33.46v113.62H790.15V1094.04h56.434v25.86a71.541,71.541,0,0,1,19.316-17.23q19.689-12,44.314-11.99,28.024,0,49.237,15.78a65.959,65.959,0,0,1,18.32,21.22,89.67,89.67,0,0,1,21.449-21.22q22.35-15.78,51.89-15.78Q1075.35,1090.68,1094.1,1101.41ZM937.865,898.856a67.619,67.619,0,0,1-17.612,16.8q-19.13,12.418-46.018,12.415-28.788,0-51.889-14.519t-36.36-40.61q-13.261-26.09-13.256-61.442t13.256-61.442q13.254-26.088,36.36-40.61t51.889-14.519q25.752,0,45.071,12.625a70.488,70.488,0,0,1,15.908,14.375V612.449H994.3V924.707H937.865V898.856Zm-8.522-121.02q-7.012-13.887-18.748-21.252a48.9,48.9,0,0,0-26.513-7.364,48.2,48.2,0,0,0-26.133,7.364Q846.2,763.952,839.2,777.836T832.194,811.5q0,19.362,7.007,33.667t18.748,21.673a48.141,48.141,0,0,0,26.133,7.364,48.841,48.841,0,0,0,26.513-7.364q11.736-7.359,18.748-21.673T936.35,811.5Q936.35,791.727,929.343,777.836Zm-211.909-111.1q-16.671,0-26.891-10.52t-10.226-26.092q0-15.564,10.226-26.092t26.891-10.521q16.281,0,26.7,9.89t10.416,25.46q0,16.413-10.226,27.144T717.434,666.736ZM604.95,924.707l-64.1-88.443L512.156,867.34v57.367H453.071V612.449h59.085V788.9l86.355-90.6h70.448L584.1,794.157l92.439,130.55H604.95ZM471.626,1027.55q20.453-22.725,58.327-22.72a104.087,104.087,0,0,1,24.619,2.94,59.487,59.487,0,0,1,20.453,8.84L559.5,1064.58a38.764,38.764,0,0,0-23.861-7.99q-12.88,0-19.885,7.99-7.013,8.01-7.006,25.25v9.26h52.267v50.5H510.637v170.86H451.174V1149.59H419.737v-50.5h31.437v-10.1Q451.174,1050.275,471.626,1027.55ZM687.892,698.3h59.085V924.707H687.892V698.3Zm-92.415,498q19.316-8.4,50.752-8.41h46.587v-0.42q0-21.045-11.552-32.83t-35.413-11.78a93.416,93.416,0,0,0-32,5.68,86.845,86.845,0,0,0-27.08,15.36l-20.832-45.87q16.662-13.47,40.148-20.41a167.4,167.4,0,0,1,47.722-6.94q46.587,0,72.342,24.4,25.752,24.42,25.755,76.17v129.2H696.6v-28.17a56.9,56.9,0,0,1-18.18,19.96q-17.043,11.58-43.935,11.58-23.489,0-40.526-9.05a65.729,65.729,0,0,1-26.323-24.62,66.866,66.866,0,0,1-9.28-34.93q0-19.77,8.9-35.14T595.477,1196.3Zm29.353,75.96q8.895,7.38,24.051,7.37a49.455,49.455,0,0,0,27.08-7.58q11.931-7.575,16.855-23.14v-23.15H652.289q-20.833,0-28.6,7.58a25.362,25.362,0,0,0-7.765,18.94Q615.929,1264.9,624.83,1272.26Zm606.56,48.19h-59.08V1094.04h59.08v226.41Zm144.87,28.2a45.642,45.642,0,0,0,17.99,3.78q12.12,0,19.51-6.52t13.44-21.67l0.73-1.91-87.84-228.29h60.6l57.33,153.63,57.81-153.63h56.43l-92.03,240.3q-9.855,27.765-22.54,43.13t-28.03,21.68a88.4,88.4,0,0,1-33.89,6.31,93.094,93.094,0,0,1-31.06-5.47q-15.54-5.475-25.76-15.15l21.59-47.14A46.965,46.965,0,0,0,1376.26,1348.65Z"/>
</svg>
