<svg xmlns="http://www.w3.org/2000/svg" xmlns:xlink="http://www.w3.org/1999/xlink" width="999.951" height="999.951" viewBox="0 0 1986 1986">
  <defs>
    <style>
      .cls-1 {
        fill: url(#linear-gradient);
      }

      .cls-2 {
        fill-rule: evenodd;
        fill: url(#linear-gradient-2);
      }
    </style>
    <linearGradient id="linear-gradient" x1="1884.546" y1="1986.03" x2="101.612" y2="0.313" gradientUnits="userSpaceOnUse">
      <stop offset="0.155" stop-color="#271452"/>
      <stop offset="0.374" stop-color="#56227d"/>
      <stop offset="0.837" stop-color="#e34595"/>
      <stop offset="0.845" stop-color="#e34595"/>
    </linearGradient>
    <linearGradient id="linear-gradient-2" x1="570.966" y1="540.25" x2="1433.596" y2="1402.88" gradientUnits="userSpaceOnUse">
      <stop offset="0.35" stop-color="#180640"/>
      <stop offset="0.445" stop-color="#9d5ad0"/>
      <stop offset="0.65" stop-color="#edd8fe"/>
    </linearGradient>
  </defs>
  <rect id="Rounded_Rectangle_1" data-name="Rounded Rectangle 1" class="cls-1" x="0.219" y="0.313" width="1985.721" height="1985.717"/>
  <path id="movie_night" data-name="movie night" class="cls-2" d="M1615.04,781.553q-0.21,4.813-.62,8.479H1441.56a76.573,76.573,0,0,0,7.66,23.375,63.552,63.552,0,0,0,25.36,26.355q16.5,9.4,38.37,9.4,18.555,0,33.41-6.875a78.487,78.487,0,0,0,26.4-20.166l28.05,35.75a99.415,99.415,0,0,1-37.74,29.333q-22.5,10.087-51.36,10.083-36.72,0-64.14-16.27a112.053,112.053,0,0,1-42.49-44.459q-15.06-28.187-15.06-64.854t14.65-64.854a112.955,112.955,0,0,1,40.42-44.458q25.77-16.264,58.78-16.271,32.175,0,57.34,15.812t39.6,44.229q14.43,28.425,14.44,67.375Q1615.25,776.745,1615.04,781.553Zm-56.1-54.541q-8.04-16.264-22.07-25.209t-33-8.937q-18.555,0-33.2,8.937a58.263,58.263,0,0,0-22.49,25.438,81.2,81.2,0,0,0-7,24.75h124.85A74.136,74.136,0,0,0,1558.94,727.012Zm-143.75,284.9h51.15v55.91h59.4v45.84h-59.4v116.41q0,17.43,8.25,27.05t23.1,9.62q16.9,0,28.05-10.08l14.85,40.79a62.531,62.531,0,0,1-22.69,12.37,89.415,89.415,0,0,1-26.81,4.13q-36.3,0-56.1-20.86t-19.8-61.18V1113.66h-36.3v-45.84h36.3v-55.91ZM1323.2,608.991q-14.445,0-23.72-10.084t-9.28-24.75a34.061,34.061,0,0,1,9.28-23.833q9.285-10.076,23.72-10.083t23.72,9.4q9.285,9.4,9.28,24.062t-9.07,24.979Q1338.055,608.991,1323.2,608.991ZM1125.62,894.074l-94.46-244.75h53.21l68.67,181.507,70.76-181.507h49.5l-94.47,244.75h-53.21Zm-108.69-57.521a113.563,113.563,0,0,1-41.868,44.459q-26.818,16.274-60.637,16.27-33.412,0-60.019-16.27a115.043,115.043,0,0,1-41.869-44.688q-15.265-28.413-15.262-64.625,0-37.125,15.262-65.083A116.514,116.514,0,0,1,854.2,662.387q26.392-16.264,60.225-16.271,34.233,0,60.843,16.271a114.525,114.525,0,0,1,41.662,44.229q15.06,27.961,15.06,65.083Q1031.99,808.373,1016.93,836.553ZM971.556,731.137q-8.46-17.188-23.306-26.584a64.106,64.106,0,0,0-66.825,0q-14.85,9.4-23.513,26.584T849.25,771.7q0,22.924,8.662,40.563T881.425,839.3a60.417,60.417,0,0,0,33,9.4q18.968,0,33.825-9.4t23.306-27.041q8.449-17.64,8.456-40.563Q980.012,748.325,971.556,731.137ZM794.8,1015.34q-9.078,10.32-23.925,10.32-14.445,0-23.719-10.09-9.282-10.065-9.281-24.746a34.023,34.023,0,0,1,9.281-23.833q9.28-10.077,23.719-10.084t23.718,9.4q9.282,9.4,9.282,24.063T794.8,1015.34ZM706.118,761.157q0-32.538-12.994-48.583t-36.918-16.042q-16.92,0-29.907,8.25T606.087,729.3q-7.222,16.275-7.219,40.563V894.074h-51.15V761.157q0-32.538-12.994-48.583t-36.918-16.042q-16.92,0-29.907,8.25T447.687,729.3q-7.222,16.275-7.219,40.563V894.074h-51.15V649.324h49.088v30.729a81.16,81.16,0,0,1,23.306-21.1q21.24-12.826,48.881-12.833,30.937,0,53.625,16.958a71.387,71.387,0,0,1,20.5,24.532,94.968,94.968,0,0,1,24.872-24.532q24.75-16.951,57.338-16.958,26.392,0,46.818,11.458t31.969,35.292q11.544,23.836,11.55,60.958v140.25h-51.15V761.157ZM520.077,1097.4a81.054,81.054,0,0,1,24.543-21.78q22.063-12.84,50.944-12.84,26.81,0,47.231,11.46t32.588,35.29q12.162,23.835,12.169,60.96v140.25H635.989V1177.82q0-32.535-13.612-48.58T583.6,1113.2q-18.158,0-32.175,8.25t-21.657,24.52q-7.637,16.275-7.631,41.02v123.75h-51.15V1065.99h49.088v31.41Zm276.374,213.34H745.3V1065.99h51.15v244.75Zm203.15-23.83q-22.488,12.84-50.531,12.83-31.769,0-56.925-14.9a107.2,107.2,0,0,1-39.806-41.47q-14.648-26.58-14.644-61.88,0-35.745,14.644-62.56t39.806-41.48q25.157-14.67,56.925-14.67,28.047,0,50.531,12.61a83.15,83.15,0,0,1,25.779,22.75v-32.15h49.09v207.63q0,66.45-30.52,97.85-30.54,31.4-88.28,31.4a199.04,199.04,0,0,1-59.606-8.94q-28.675-8.94-47.644-26.36l23.1-42.62q14.435,13.29,36.3,21.54a127.466,127.466,0,0,0,45.375,8.25q35.887,0,52.795-18.56t16.92-56.15V1267.1A83.79,83.79,0,0,1,999.6,1286.91Zm24.129-105.42q0-21.075-8.45-36.67a60.911,60.911,0,0,0-23.723-24.29q-15.265-8.7-34.649-8.71t-34.857,8.71a60.469,60.469,0,0,0-23.925,24.29q-8.458,15.6-8.456,36.67,0,20.175,8.456,35.98a61.556,61.556,0,0,0,23.925,24.75,68.373,68.373,0,0,0,34.857,8.94q19.383,0,34.649-8.94a62.026,62.026,0,0,0,23.723-24.75Q1023.725,1201.66,1023.73,1181.49Zm273.9-532.166h51.15v244.75h-51.15V649.324Zm-112.2,445.426a81.278,81.278,0,0,1,22.48-19.13q22.065-12.84,50.94-12.84,26.805,0,47.23,11.46t32.59,35.29q12.165,23.835,12.17,60.96v140.25h-51.56V1177.82q0-32.535-13.62-48.58t-38.77-16.04q-18.165,0-32.18,8.25t-21.65,24.52q-7.635,16.275-7.63,41.02v123.75h-51.15V970.657h51.15V1094.75Z"/>
</svg>
