<svg xmlns="http://www.w3.org/2000/svg" xmlns:xlink="http://www.w3.org/1999/xlink" width="999.951" height="999.951" viewBox="0 0 1986 1986">
  <defs>
    <style>
      .cls-1 {
        fill: url(#linear-gradient);
      }

      .cls-2 {
        fill: #fff;
        fill-rule: evenodd;
      }
    </style>
    <linearGradient id="linear-gradient" x1="0.221" y1="1986.03" x2="1985.938" y2="0.313" gradientUnits="userSpaceOnUse">
      <stop offset="0" stop-color="#00f4ff"/>
      <stop offset="0.544" stop-color="#8b6fff"/>
      <stop offset="1" stop-color="#f0f"/>
    </linearGradient>
  </defs>
  <rect id="Rounded_Rectangle_1" data-name="Rounded Rectangle 1" class="cls-1" x="0.219" y="0.313" width="1985.721" height="1985.717"/>
  <path id="New" class="cls-2" d="M1496.32,903.623l-83.04,254.557h-63.87l-51.81-158.7-52.52,158.7h-64.3l-82.61-254.557h62.59l53.77,171.8,56.1-171.8h56.63l54.64,173.517,55.66-173.517h58.76Zm-409.23,148.1H913.8a67.272,67.272,0,0,0,6.795,18.92,58.9,58.9,0,0,0,23.421,23.9q14.9,8.28,35.77,8.28,17.885,0,31.727-6.15a78.074,78.074,0,0,0,25.33-18.45l35.35,42.58a103.691,103.691,0,0,1-39.6,30.52q-23.865,10.635-54.937,10.64-39.183,0-68.559-17.03a118.942,118.942,0,0,1-45.564-46.61q-16.188-29.565-16.182-67.42t15.543-67.66a115.553,115.553,0,0,1,43.435-46.605q27.887-16.789,62.811-16.8,33.635,0,60.683,16.087,27.03,16.091,42.79,45.422t15.76,70.5c0,2.84-.15,6.07-0.43,9.7S1087.37,1048.57,1087.09,1051.72Zm-67.7-64.823a56.55,56.55,0,0,0-20.019-22.947q-12.775-8.273-29.808-8.28t-30.022,8.28a55.521,55.521,0,0,0-20.227,23.184,71.429,71.429,0,0,0-6.326,21.526h112.6A67.06,67.06,0,0,0,1019.39,986.9ZM592.7,957.241V1158.18H524.566V826.973h57.062l148.19,200.937V826.973h68.134V1158.18H740.89Z"/>
</svg>
