<svg xmlns="http://www.w3.org/2000/svg" xmlns:xlink="http://www.w3.org/1999/xlink" width="999.951" height="999.951" viewBox="0 0 1986 1986">
  <defs>
    <style>
      .cls-1 {
        fill: url(#linear-gradient);
      }

      .cls-2 {
        fill-rule: evenodd;
        fill: url(#linear-gradient-2);
      }
    </style>
    <linearGradient id="linear-gradient" x1="0.221" y1="1986.03" x2="1985.938" y2="0.313" gradientUnits="userSpaceOnUse">
      <stop offset="0" stop-color="#271f17"/>
      <stop offset="0.095" stop-color="#271f17"/>
      <stop offset="0.147" stop-color="#271f17"/>
      <stop offset="0.535" stop-color="#c1982e"/>
      <stop offset="0.888" stop-color="#e7d685"/>
    </linearGradient>
    <linearGradient id="linear-gradient-2" x1="1277.908" y1="785.406" x2="742.933" y2="1160" xlink:href="#linear-gradient"/>
  </defs>
  <rect id="Rounded_Rectangle_1" data-name="Rounded Rectangle 1" class="cls-1" x="0.219" y="0.313" width="1985.721" height="1985.717"/>
  <path id="Non-Fic" class="cls-2" d="M1727.7,968a53.248,53.248,0,0,0-28.83-8.246A56.88,56.88,0,0,0,1668.76,968q-13.575,8.249-21.63,23.794t-8.06,37.69q0,22.155,8.06,37.93,8.055,15.795,21.63,24.03a56.811,56.811,0,0,0,30.11,8.25,53.183,53.183,0,0,0,28.83-8.25q13.14-8.235,22.48-26.62l50.88,31.1a95.609,95.609,0,0,1-38.8,47.12q-26.925,16.95-62.97,16.96-36.885,0-65.52-16.73a119.079,119.079,0,0,1-44.95-46.41q-16.32-29.685-16.32-67.38,0-38.16,16.32-67.374a121.81,121.81,0,0,1,44.95-46.175q28.635-16.962,65.52-16.962,36.045,0,62.97,16.727t38.8,47.353l-50.88,31.1Q1740.85,976.245,1727.7,968ZM1511.44,867.4q-18.675,0-30.11-11.78t-11.45-29.212q0-17.427,11.45-29.213t30.11-11.779q18.225,0,29.89,11.072T1552.99,825q0,18.376-11.45,30.391T1511.44,867.4Zm-213.3,107.427h136.97v61.252H1298.14v120.15h-69.12V826.409h224.32v61.252h-155.2v87.167Zm-228.98,19.318h120v58.894h-120V994.146Zm-100.5,28.274q0-30.63-12.085-45.236t-34.137-14.607a53.587,53.587,0,0,0-28.2,7.539q-12.513,7.542-19.507,22.145t-7,38.639v125.33H801.581V902.739h63.184v30.133a87.185,87.185,0,0,1,23.323-20.239q22.9-13.661,52.159-13.664,27.132,0,48.554,12.015,21.4,12.015,33.709,36.751t12.3,63.375v145.12H968.658V1022.42ZM713.8,1143.04q-28.414,16.95-64.88,16.96-36.048,0-64.244-16.96a120.708,120.708,0,0,1-44.314-46.41q-16.121-29.445-16.114-67.15,0-38.16,16.114-67.609A119.007,119.007,0,0,1,584.678,915.7q28.2-16.719,64.244-16.727,36.465,0,64.88,16.727a118.654,118.654,0,0,1,44.526,46.175q16.11,29.451,16.114,67.609,0,38.175-16.114,67.38A120.761,120.761,0,0,1,713.8,1143.04ZM699.6,991.79Q691.745,976.241,678.818,968a53.7,53.7,0,0,0-29.472-8.246A54.728,54.728,0,0,0,619.662,968q-13.149,8.249-20.991,23.794t-7.845,37.69q0,21.69,7.845,37.7t20.991,24.26a53.9,53.9,0,0,0,29.26,8.25q16.956,0,29.9-8.25t20.778-24.26q7.842-16.02,7.845-37.7Q707.441,1007.34,699.6,991.79ZM287.628,956.133v200.1H219.779V826.409H276.6L424.174,1026.5V826.409h67.848V1156.23H435.2Zm1256.882,200.1h-66.15V902.739h66.15V1156.23Z"/>
</svg>
