<svg xmlns="http://www.w3.org/2000/svg" xmlns:xlink="http://www.w3.org/1999/xlink" width="999.951" height="999.951" viewBox="0 0 1986 1986">
  <defs>
    <style>
      .cls-1 {
        fill: url(#linear-gradient);
      }

      .cls-2 {
        fill: #fff;
        fill-rule: evenodd;
      }
    </style>
    <linearGradient id="linear-gradient" x1="0.221" y1="1986.03" x2="1985.938" y2="0.313" gradientUnits="userSpaceOnUse">
      <stop offset="0.1" stop-color="#4db678"/>
      <stop offset="0.389" stop-color="#28a3b6"/>
      <stop offset="0.812" stop-color="#3c2432"/>
      <stop offset="0.9" stop-color="#3c2432"/>
    </linearGradient>
  </defs>
  <rect id="Rounded_Rectangle_1" data-name="Rounded Rectangle 1" class="cls-1" x="0.219" y="0.313" width="1985.721" height="1985.717"/>
  <path id="outrageous_comedies" data-name="outrageous comedies" class="cls-2" d="M1780.36,838.775q8.16,1.568,18,3.125a155.544,155.544,0,0,1,19.41,4.375,72.542,72.542,0,0,1,17.86,7.969,37.448,37.448,0,0,1,13.22,14.219q4.9,9.068,4.92,23.437a46.424,46.424,0,0,1-8.44,27.344q-8.43,12.033-24.33,18.906-15.885,6.87-38.67,6.875a132.159,132.159,0,0,1-37.12-5.156q-17.73-5.157-28.41-12.969l14.34-34.687a104.421,104.421,0,0,0,24.89,11.406,91.717,91.717,0,0,0,27.99,4.531q15.18,0,21.51-4.062a12.691,12.691,0,0,0,6.33-11.25,9.74,9.74,0,0,0-4.92-8.907A40.043,40.043,0,0,0,1794,879.4q-8.01-1.56-17.86-3.125a159.9,159.9,0,0,1-19.54-4.375,71.549,71.549,0,0,1-18-7.969,37.255,37.255,0,0,1-13.22-14.218q-4.935-9.06-4.92-23.438a48.953,48.953,0,0,1,8.43-28.281q8.445-12.342,23.91-19.219t37.41-6.875a132.346,132.346,0,0,1,31.64,3.906q15.885,3.912,26.86,10.782l-14.91,34.687a73.8,73.8,0,0,0-21.8-9.687,86.517,86.517,0,0,0-21.23-2.813q-15.195,0-21.94,4.375t-6.75,11.25a10.667,10.667,0,0,0,5.06,9.531A37.075,37.075,0,0,0,1780.36,838.775ZM1645.92,1142.94q8.16,1.575,18,3.13a155.526,155.526,0,0,1,19.41,4.37,72.656,72.656,0,0,1,17.86,7.97,37.473,37.473,0,0,1,13.22,14.22q4.9,9.06,4.92,23.44a46.416,46.416,0,0,1-8.44,27.34q-8.43,12.03-24.33,18.91-15.885,6.87-38.67,6.87a132.412,132.412,0,0,1-37.12-5.15q-17.73-5.16-28.41-12.97l14.34-34.69a104.7,104.7,0,0,0,24.89,11.41,91.776,91.776,0,0,0,27.99,4.53q15.18,0,21.51-4.07a12.68,12.68,0,0,0,6.33-11.25,9.732,9.732,0,0,0-4.92-8.9,39.855,39.855,0,0,0-12.94-4.53q-8.01-1.56-17.86-3.13a160.81,160.81,0,0,1-19.54-4.37,71.659,71.659,0,0,1-18-7.97,37.319,37.319,0,0,1-13.22-14.22q-4.935-9.06-4.92-23.44a48.957,48.957,0,0,1,8.43-28.28q8.445-12.345,23.91-19.22t37.41-6.87a132.437,132.437,0,0,1,31.64,3.9q15.885,3.915,26.86,10.78l-14.91,34.69a73.937,73.937,0,0,0-21.8-9.69,86.749,86.749,0,0,0-21.23-2.81q-15.195,0-21.94,4.38t-6.75,11.25a10.669,10.669,0,0,0,5.06,9.53A37.038,37.038,0,0,0,1645.92,1142.94ZM1643.39,922.6a53.724,53.724,0,0,1-14.9,13.516,60.49,60.49,0,0,1-32.06,8.906q-19.14,0-33.75-8.125-14.64-8.122-22.79-25t-8.15-42.5v-95h43.87v87.5q0,21.255,8.02,31.094t22.64,9.844a32.845,32.845,0,0,0,18-5q7.875-4.995,12.51-15,4.65-10,4.65-25V774.4h43.59V942.525h-41.63V922.6Zm-81.28,240.647c0,1.88-.1,4.02-0.28,6.41s-0.38,4.64-.56,6.72H1446.83a44.424,44.424,0,0,0,4.47,12.5,38.874,38.874,0,0,0,15.47,15.78q9.84,5.475,23.62,5.47a48.388,48.388,0,0,0,37.69-16.25l23.34,28.12a68.519,68.519,0,0,1-26.15,20.16q-15.765,7.035-36.28,7.03-25.89,0-45.29-11.25a78.574,78.574,0,0,1-30.09-30.78q-10.695-19.53-10.69-44.53t10.27-44.69a76.3,76.3,0,0,1,28.69-30.78q18.4-11.085,41.48-11.09,22.215,0,40.08,10.62a75.9,75.9,0,0,1,28.26,30Q1562.11,1136.07,1562.11,1163.25Zm-45.56-29.68a37.341,37.341,0,0,0-13.22-15.16,35.455,35.455,0,0,0-19.69-5.47,36.141,36.141,0,0,0-19.83,5.47,36.736,36.736,0,0,0-13.36,15.31,47.33,47.33,0,0,0-4.17,14.22h74.36A44.055,44.055,0,0,0,1516.55,1133.57Zm-59.06-199.795q-18.855,11.25-43.03,11.25-23.91,0-42.61-11.25a80.023,80.023,0,0,1-29.39-30.781q-10.7-19.527-10.69-44.531,0-25.312,10.69-44.844a78.921,78.921,0,0,1,29.39-30.625q18.69-11.09,42.61-11.094,24.18,0,43.03,11.094a78.706,78.706,0,0,1,29.53,30.625q10.68,19.533,10.69,44.844t-10.69,44.687A80.086,80.086,0,0,1,1457.49,933.775Zm-9.42-100.312a39.1,39.1,0,0,0-13.79-15.782,35.594,35.594,0,0,0-19.54-5.468,36.318,36.318,0,0,0-19.69,5.468,38.645,38.645,0,0,0-13.92,15.782q-5.2,10.313-5.2,25,0,14.378,5.2,25t13.92,16.093a37.907,37.907,0,0,0,39.23,0q8.58-5.463,13.79-16.093,5.19-10.62,5.2-25Q1453.27,843.778,1448.07,833.463ZM1345.55,1000.75q12.09,0,19.83,7.35,7.725,7.35,7.73,18.9,0,12.2-7.59,20.16t-19.97,7.97q-12.375,0-19.97-7.81a28.524,28.524,0,0,1,0-38.75Q1333.17,1000.755,1345.55,1000.75Zm-38.53-128.537H1192.58a44.783,44.783,0,0,0,4.47,12.5,38.864,38.864,0,0,0,15.47,15.781q9.84,5.47,23.63,5.469a48.374,48.374,0,0,0,37.68-16.25l23.35,28.125a68.447,68.447,0,0,1-26.16,20.156q-15.75,7.03-36.28,7.031-25.875,0-45.28-11.25a78.589,78.589,0,0,1-30.1-30.781q-10.68-19.527-10.68-44.531t10.26-44.688a76.324,76.324,0,0,1,28.69-30.781q18.42-11.09,41.48-11.094,22.215,0,40.08,10.625a75.787,75.787,0,0,1,28.27,30q10.395,19.38,10.4,46.563,0,2.813-.28,6.406T1307.02,872.213ZM1262.3,829.4a37.27,37.27,0,0,0-13.22-15.156,35.4,35.4,0,0,0-19.68-5.469,36.068,36.068,0,0,0-19.83,5.469,36.642,36.642,0,0,0-13.36,15.312,46.97,46.97,0,0,0-4.17,14.219h74.36A44.12,44.12,0,0,0,1262.3,829.4Zm-73.97,246.67q19.125,0,33.47,9.37a52.3,52.3,0,0,1,11.82,10.68v-81.3h43.87v231.87h-41.91V1227.5a50.269,50.269,0,0,1-13.07,12.47q-14.205,9.225-34.18,9.22a70.893,70.893,0,0,1-38.53-10.78q-17.16-10.785-27-30.16t-9.84-45.62q0-26.25,9.84-45.63t27-30.15A70.893,70.893,0,0,1,1188.33,1076.07Zm-26.01,111.56q5.205,10.62,13.92,16.09a35.739,35.739,0,0,0,19.41,5.47,36.217,36.217,0,0,0,19.68-5.47q8.715-5.46,13.93-16.09,5.19-10.62,5.2-25,0-14.685-5.2-25a38.713,38.713,0,0,0-13.93-15.78,36.3,36.3,0,0,0-19.68-5.47,35.824,35.824,0,0,0-19.41,5.47,38.62,38.62,0,0,0-13.92,15.78q-5.205,10.3-5.2,25Q1157.12,1177,1162.32,1187.63ZM1028.3,1005.65a146.557,146.557,0,0,1-41.2-5.781q-19.829-5.787-33.047-17.344l17.438-35.312a70.082,70.082,0,0,0,24.328,14.218,87.026,87.026,0,0,0,29.392,5.157q23.055,0,33.75-11.563,10.68-11.565,10.69-34.375V913a52.632,52.632,0,0,1-14.21,12.65q-14.49,8.753-34.17,8.75a72.6,72.6,0,0,1-37.687-10.156A73.87,73.87,0,0,1,956.3,895.806q-10.125-18.281-10.125-42.656,0-24.682,10.125-42.969A72.845,72.845,0,0,1,1021.27,771.9q19.68,0,34.17,8.594a52.137,52.137,0,0,1,16.17,15.243V774.4h41.63v140q0,46.56-21.94,68.906T1028.3,1005.65Zm36.56-174.219a35.393,35.393,0,0,0-14.06-14.218,44.361,44.361,0,0,0-40.92,0,36.124,36.124,0,0,0-14.343,14.218q-5.208,9.222-5.2,21.719a43.659,43.659,0,0,0,5.2,21.563A37.968,37.968,0,0,0,1009.88,889.4a42.051,42.051,0,0,0,40.92,0,37.221,37.221,0,0,0,14.06-14.687,44.617,44.617,0,0,0,5.07-21.563Q1069.93,840.655,1064.86,831.431Zm-55.12,244.639q22.215,0,40.08,10.62a75.923,75.923,0,0,1,28.27,30q10.4,19.38,10.4,46.56c0,1.88-.1,4.02-0.28,6.41s-0.38,4.64-.56,6.72H973.212a44.482,44.482,0,0,0,4.467,12.5,38.89,38.89,0,0,0,15.469,15.78q9.841,5.475,23.622,5.47a48.35,48.35,0,0,0,37.69-16.25L1077.8,1222a68.368,68.368,0,0,1-26.15,20.16q-15.765,7.035-36.28,7.03-25.884,0-45.285-11.25a78.555,78.555,0,0,1-30.093-30.78q-10.692-19.53-10.688-44.53t10.266-44.69a76.365,76.365,0,0,1,28.687-30.78Q986.676,1076.075,1009.74,1076.07Zm37.29,71.87a44.062,44.062,0,0,0-4.1-14.37,37.268,37.268,0,0,0-13.22-15.16,35.432,35.432,0,0,0-19.69-5.47,36.117,36.117,0,0,0-19.825,5.47,36.694,36.694,0,0,0-13.36,15.31,47.3,47.3,0,0,0-4.171,14.22h74.366ZM869.681,921.609a42.3,42.3,0,0,1-13.5,14.822q-12.657,8.6-32.625,8.594-17.442,0-30.094-6.719a48.8,48.8,0,0,1-19.547-18.281,49.657,49.657,0,0,1-6.89-25.937,51.085,51.085,0,0,1,6.609-26.094q6.6-11.4,20.953-17.656t37.688-6.25h34.593v-0.313q0-15.622-8.578-24.375t-26.3-8.75a69.4,69.4,0,0,0-23.765,4.219,64.439,64.439,0,0,0-20.11,11.406L772.65,792.213a85.3,85.3,0,0,1,29.812-15.157A124.353,124.353,0,0,1,837.9,771.9q34.593,0,53.718,18.125t19.125,56.563v95.937H869.681V921.609Zm-2.813-49.4H836.775q-15.471,0-21.235,5.625a18.833,18.833,0,0,0-5.765,14.062q0,9.375,6.609,14.844t17.859,5.469a36.726,36.726,0,0,0,20.11-5.625q8.859-5.625,12.515-17.188V872.213ZM793.743,1087.79q16.591-11.73,38.532-11.72,18,0,31.921,7.97t21.8,24.37q7.87,16.41,7.875,42.03v96.25H849.993v-88.75q0-20.31-7.453-30t-20.953-9.69a31.709,31.709,0,0,0-17.437,4.85,30.821,30.821,0,0,0-11.672,14.37q-4.082,9.54-4.078,24.85v84.37H744.525v-88.75q0-20.31-7.454-30t-21.515-9.69a31.211,31.211,0,0,0-17.156,4.85,31.664,31.664,0,0,0-11.813,14.37q-4.218,9.54-4.219,24.85v84.37H638.493V1078.57H680.4v19.2a53.184,53.184,0,0,1,14.343-12.8,62.057,62.057,0,0,1,32.907-8.9q20.81,0,36.562,11.72a48.989,48.989,0,0,1,13.6,15.76A66.571,66.571,0,0,1,793.743,1087.79ZM745.365,815.963q-18.562,0-29.532,11.562T704.865,863.15v79.375H660.99V774.4H702.9v22.07a50.3,50.3,0,0,1,15.75-15.351q14.9-9.215,36.281-9.219v45.313a45.646,45.646,0,0,0-4.922-.938A36.429,36.429,0,0,0,745.365,815.963ZM587.443,900.338q4.918,5.94,13.36,5.937,10.685,0,18-6.25L630.334,934.4a43.055,43.055,0,0,1-15.891,7.969,71.855,71.855,0,0,1-19.547,2.656q-26.722,0-41.625-15.156t-14.906-45.156V815.65H515.021v-37.5h23.344V737.213h44.156V778.15h37.407v37.5H582.521v68.125Q582.521,894.4,587.443,900.338ZM563.4,1087.16a78.721,78.721,0,0,1,29.531,30.63q10.686,19.53,10.688,44.84t-10.688,44.69a80.067,80.067,0,0,1-29.531,30.62q-18.846,11.25-43.031,11.25-23.909,0-42.61-11.25a80.048,80.048,0,0,1-29.39-30.78q-10.692-19.53-10.688-44.53,0-25.32,10.688-44.84a78.955,78.955,0,0,1,29.39-30.63q18.7-11.085,42.61-11.09Q544.554,1076.07,563.4,1087.16Zm-62.438,34.69a38.582,38.582,0,0,0-13.922,15.78q-5.207,10.3-5.2,25,0,14.37,5.2,25t13.922,16.09a37.909,37.909,0,0,0,39.235,0q8.576-5.46,13.781-16.09t5.2-25q0-14.685-5.2-25a39.017,39.017,0,0,0-13.781-15.78,35.635,35.635,0,0,0-19.547-5.47A36.323,36.323,0,0,0,500.962,1121.85ZM444.991,922.6a53.8,53.8,0,0,1-14.906,13.516,60.5,60.5,0,0,1-32.063,8.906q-19.128,0-33.75-8.125t-22.781-25q-8.16-16.875-8.156-42.5v-95H377.21v87.5q0,21.255,8.016,31.094t22.64,9.844a32.847,32.847,0,0,0,18-5q7.87-4.995,12.516-15t4.64-25V774.4h43.594V942.525H444.991V922.6ZM393.666,1087.16a62.5,62.5,0,0,1,25.734,31.41l-33.75,20.62q-6.189-11.865-14.906-17.34a35.353,35.353,0,0,0-19.125-5.47,37.759,37.759,0,0,0-19.969,5.47,38.8,38.8,0,0,0-14.344,15.78q-5.346,10.3-5.344,25t5.344,25.16a38.544,38.544,0,0,0,14.344,15.93,37.669,37.669,0,0,0,19.969,5.47,35.268,35.268,0,0,0,19.125-5.47q8.713-5.46,14.906-17.65l33.75,20.62a63.4,63.4,0,0,1-25.734,31.25q-17.865,11.25-41.766,11.25-24.469,0-43.453-11.09a79.013,79.013,0,0,1-29.813-30.78q-10.83-19.695-10.828-44.69,0-25.32,10.828-44.69a80.8,80.8,0,0,1,29.813-30.62q18.984-11.25,43.453-11.25Q375.8,1076.07,393.666,1087.16ZM259.085,933.775q-18.846,11.25-43.031,11.25-23.908,0-42.609-11.25a80.04,80.04,0,0,1-29.391-30.781q-10.692-19.527-10.687-44.531,0-25.312,10.687-44.844a78.937,78.937,0,0,1,29.391-30.625q18.7-11.09,42.609-11.094,24.186,0,43.031,11.094a78.7,78.7,0,0,1,29.532,30.625Q299.3,833.152,299.3,858.463T288.617,903.15A80.076,80.076,0,0,1,259.085,933.775Zm-9.422-100.312a39.035,39.035,0,0,0-13.781-15.782,35.615,35.615,0,0,0-19.547-5.468,36.3,36.3,0,0,0-19.687,5.468,38.6,38.6,0,0,0-13.922,15.782q-5.208,10.313-5.2,25,0,14.378,5.2,25t13.922,16.093a37.914,37.914,0,0,0,39.234,0q8.575-5.463,13.781-16.093t5.2-25Q254.867,843.778,249.663,833.463ZM1367.49,1246.69h-43.88V1078.57h43.88v168.12Z"/>
</svg>
