<svg xmlns="http://www.w3.org/2000/svg" xmlns:xlink="http://www.w3.org/1999/xlink" width="999.951" height="999.951" viewBox="0 0 1986 1986">
  <defs>
    <style>
      .cls-1 {
        fill: url(#linear-gradient);
      }

      .cls-2 {
        fill-rule: evenodd;
        fill: url(#linear-gradient-2);
      }
    </style>
    <linearGradient id="linear-gradient" x1="0.221" y1="1986.03" x2="1985.938" y2="0.313" gradientUnits="userSpaceOnUse">
      <stop offset="0.165" stop-color="#49237c"/>
      <stop offset="0.368" stop-color="#c085de"/>
      <stop offset="0.647" stop-color="#c84cd1"/>
      <stop offset="0.829" stop-color="#fd23a2"/>
      <stop offset="0.835" stop-color="#ff22a1"/>
    </linearGradient>
    <linearGradient id="linear-gradient-2" x1="1230.58" y1="824" x2="759.292" y2="1154" gradientUnits="userSpaceOnUse">
      <stop offset="0.35" stop-color="#1e0e34"/>
      <stop offset="0.441" stop-color="#c085de"/>
      <stop offset="0.566" stop-color="#c84cd1"/>
      <stop offset="0.647" stop-color="#d20c7f"/>
      <stop offset="0.65" stop-color="#d20a7d"/>
    </linearGradient>
  </defs>
  <rect id="Rounded_Rectangle_1" data-name="Rounded Rectangle 1" class="cls-1" x="0.219" y="0.313" width="1985.721" height="1985.717"/>
  <path id="Scares" class="cls-2" d="M1597.39,952.561a134.97,134.97,0,0,0-31.77-3.895q-23.1,0-34.65,7.562t-11.55,19.479q0,11,7.43,16.5t19.39,8.483q11.955,2.985,26.6,5.5t29.08,6.41a108.868,108.868,0,0,1,26.61,11,53.807,53.807,0,0,1,19.59,19.94q7.425,12.84,7.43,33.46,0,23.37-12.17,40.1t-34.24,26.13q-22.065,9.39-53,9.39a174.111,174.111,0,0,1-53.22-8.02q-25.155-8.01-40.42-19.48l19.8-43.54q14.85,10.545,35.47,17.19a135.143,135.143,0,0,0,41.67,6.65q23.91,0,34.85-7.11,10.935-7.1,10.93-19.48,0-10.08-7.42-15.35t-19.39-8.02q-11.97-2.76-26.6-5.04a284.989,284.989,0,0,1-29.29-6.19,95.113,95.113,0,0,1-26.61-11.46,58,58,0,0,1-19.39-20.4q-7.425-12.825-7.42-34.371,0-22.914,11.96-40.1t33.62-26.813q21.66-9.624,51.36-9.625a184.068,184.068,0,0,1,44.75,5.729q22.9,5.737,38.16,15.813l-20.21,43.542A99.34,99.34,0,0,0,1597.39,952.561Zm-151.8,92.809H1272.73a76.59,76.59,0,0,0,7.65,23.38,63.552,63.552,0,0,0,25.37,26.35q16.5,9.4,38.36,9.4,18.57,0,33.42-6.88a78.6,78.6,0,0,0,26.4-20.16l28.05,35.75a99.423,99.423,0,0,1-37.75,29.33q-22.485,10.1-51.35,10.08-36.72,0-64.15-16.27a112.028,112.028,0,0,1-42.48-44.46q-15.075-28.185-15.06-64.85t14.64-64.854a113.066,113.066,0,0,1,40.43-44.458q25.77-16.263,58.78-16.271,32.175,0,57.34,15.813t39.6,44.229q14.43,28.423,14.43,67.371,0,3.225-.2,8.02Q1446,1041.705,1445.59,1045.37Zm-55.48-63.017q-8.04-16.263-22.07-25.208t-33-8.938a62.447,62.447,0,0,0-33.21,8.938,58.234,58.234,0,0,0-22.48,25.437,80.943,80.943,0,0,0-7.03,24.748h124.91A74.162,74.162,0,0,0,1390.11,982.353Zm-195.73-27.271q-29.7,0-47.03,18.792t-17.32,57.3v118.25h-51.15V904.666h49.08v35.546a71.922,71.922,0,0,1,25.17-25.692q21.435-13.063,52.38-13.063V956c-1.92-.3-3.85-0.53-5.77-0.688S1196.03,955.082,1194.38,955.082Zm-222.34,164.7a61.839,61.839,0,0,1-20.625,20.93q-18.978,11.925-48.675,11.91-24.75,0-43.312-9.39a68.963,68.963,0,0,1-28.669-26.13q-10.113-16.725-10.106-37.81,0-20.625,8.869-37.12t29.081-26.13q20.205-9.63,53.625-9.62h57.337v-3.67q0-25.2-13.818-39.189t-41.869-13.979A104.808,104.808,0,0,0,877.99,956a92.207,92.207,0,0,0-30.525,17.875l-20.212-41.708a125.2,125.2,0,0,1,42.487-22.917,165.44,165.44,0,0,1,50.738-7.792q48.263,0,74.25,25.667t25.992,78.836v143.46H972.04v-29.64Zm-2.475-75.32H915.94q-25.988,0-35.268,9.39-9.282,9.4-9.282,23.61,0,15.12,11.138,24.29t30.937,9.17a61.826,61.826,0,0,0,34.032-9.63q15.053-9.63,22.068-28.42v-28.41ZM671.33,1094.64a63.93,63.93,0,0,0,34.238,9.4,58.933,58.933,0,0,0,30.731-8.48q14.232-8.475,24.131-25.89l39.188,25.66q-12.375,27.51-37.125,42.4t-56.513,14.89q-34.65,0-61.668-16.27a114.435,114.435,0,0,1-42.282-44.46q-15.265-28.185-15.262-64.85,0-37.125,15.262-65.083a115.023,115.023,0,0,1,42.282-44.229q27.012-16.263,61.668-16.271,31.76,0,56.513,14.667t37.125,42.625L760.43,984.416q-9.9-16.952-24.131-25.438a59.026,59.026,0,0,0-30.731-8.479,63.355,63.355,0,0,0-58.163,35.979q-8.662,17.187-8.662,40.562t8.662,40.79Q656.067,1085.26,671.33,1094.64Zm-157.574,46.3q-25.987,13.05-65.587,13.06a193.989,193.989,0,0,1-64.556-10.77q-30.735-10.77-49.294-27.73l18.562-46.29q17.325,15.12,42.9,25.21a141.686,141.686,0,0,0,52.388,10.08q22.682,0,36.712-5.5t20.625-14.9a36.18,36.18,0,0,0,6.6-21.31q0-14.655-9.487-23.6t-24.544-14.21a340.222,340.222,0,0,0-33.412-9.63,368.165,368.165,0,0,1-36.713-10.77,156.749,156.749,0,0,1-33.619-16.269,73.87,73.87,0,0,1-24.543-26.354q-9.282-16.5-9.282-42.166a93.979,93.979,0,0,1,12.582-47.9q12.577-21.764,38.362-34.834T456.831,824a186.435,186.435,0,0,1,51.563,7.333q25.572,7.337,44.55,21.084l-16.913,46.291a151.2,151.2,0,0,0-40.012-19.021,137.733,137.733,0,0,0-39.6-6.187q-21.869,0-35.888,5.958T400.113,895.27a39.149,39.149,0,0,0-6.394,21.771q0,14.673,9.281,23.6t24.338,13.979q15.052,5.049,33.618,9.625t36.713,10.771a151.518,151.518,0,0,1,33.412,16.041,74.558,74.558,0,0,1,24.544,26.129q9.282,16.275,9.281,41.48a93.148,93.148,0,0,1-12.581,47.43Q539.737,1127.88,513.756,1140.94Z"/>
</svg>
