<svg xmlns="http://www.w3.org/2000/svg" xmlns:xlink="http://www.w3.org/1999/xlink" width="999.951" height="999.951" viewBox="0 0 1986 1986">
  <defs>
    <style>
      .cls-1 {
        fill-rule: evenodd;
        fill: url(#linear-gradient);
      }
    </style>
    <linearGradient id="linear-gradient" x1="807.781" y1="1166.47" x2="1166.189" y2="808.062" gradientUnits="userSpaceOnUse">
      <stop offset="0" stop-color="#9b9b9b"/>
      <stop offset="0.496" stop-color="#eee"/>
      <stop offset="1" stop-color="#9b9b9b"/>
    </linearGradient>
  </defs>
  <rect id="Rounded_Rectangle_1" data-name="Rounded Rectangle 1" x="0.219" y="0.313" width="1985.721" height="1985.717"/>
  <path id="Sci-Fi" class="cls-1" d="M1515.4,866.5q-9.075,10.313-23.93,10.313-14.445,0-23.72-10.084t-9.28-24.75a34.061,34.061,0,0,1,9.28-23.833q9.285-10.076,23.72-10.083t23.72,9.4q9.285,9.4,9.28,24.062T1515.4,866.5Zm-245.85,122.6h139.43v49.5H1269.55V1161.9h-53.62V841.066h210.78v50.416H1269.55v97.625Zm-220.68,21.083h113.85v48.58H1048.87v-48.58ZM975.446,876.816q-14.443,0-23.719-10.084t-9.281-24.75a34.031,34.031,0,0,1,9.281-23.833q9.282-10.076,23.719-10.083t23.719,9.4q9.278,9.4,9.285,24.062T999.371,866.5Q990.293,876.816,975.446,876.816ZM786.519,1107.13a64.011,64.011,0,0,0,34.238,9.39,58.933,58.933,0,0,0,30.731-8.48q14.232-8.475,24.131-25.89l39.188,25.67q-12.375,27.5-37.125,42.39t-56.513,14.9q-34.65,0-61.668-16.27a114.572,114.572,0,0,1-42.282-44.46q-15.265-28.185-15.262-64.86,0-37.125,15.262-65.079A115.016,115.016,0,0,1,759.5,930.212q27.012-16.264,61.668-16.271,31.76,0,56.513,14.666t37.125,42.625L875.619,996.9q-9.9-16.952-24.131-25.437a59.018,59.018,0,0,0-30.731-8.48,63.354,63.354,0,0,0-58.163,35.98q-8.663,17.187-8.662,40.558t8.662,40.8Q771.257,1097.735,786.519,1107.13Zm-157.574,46.29q-25.988,13.065-65.587,13.06a193.735,193.735,0,0,1-64.556-10.77q-30.735-10.755-49.294-27.73l18.562-46.29q17.325,15.12,42.9,25.21a141.686,141.686,0,0,0,52.388,10.08q22.682,0,36.712-5.5t20.625-14.89a36.21,36.21,0,0,0,6.6-21.32q0-14.655-9.487-23.6t-24.544-14.21a337.584,337.584,0,0,0-33.412-9.62,368.165,368.165,0,0,1-36.713-10.77,157.012,157.012,0,0,1-33.619-16.28,73.813,73.813,0,0,1-24.543-26.349q-9.282-16.5-9.282-42.167a93.979,93.979,0,0,1,12.582-47.9q12.577-21.764,38.362-34.833t65.381-13.063a186.437,186.437,0,0,1,51.563,7.334q25.572,7.336,44.55,21.083L651.22,911.191a151.2,151.2,0,0,0-40.012-19.021,137.741,137.741,0,0,0-39.6-6.188q-21.868,0-35.888,5.959T515.3,907.753a39.151,39.151,0,0,0-6.394,21.771q0,14.674,9.281,23.6t24.338,13.979q15.053,5.049,33.618,9.625T612.858,987.5a151.731,151.731,0,0,1,33.412,16.037,74.689,74.689,0,0,1,24.544,26.13q9.282,16.275,9.281,41.48a93.184,93.184,0,0,1-12.581,47.44Q654.926,1140.355,628.945,1153.42Zm372.075,8.48H949.871V917.149h51.149V1161.9Zm516.03,0H1465.9V917.149h51.15V1161.9Z"/>
</svg>
