<svg xmlns="http://www.w3.org/2000/svg" xmlns:xlink="http://www.w3.org/1999/xlink" width="999.951" height="999.951" viewBox="0 0 1986 1986">
  <defs>
    <style>
      .cls-1 {
        fill: url(#linear-gradient);
      }

      .cls-2 {
        fill-rule: evenodd;
        fill: url(#linear-gradient-2);
      }
    </style>
    <linearGradient id="linear-gradient" x1="0.221" y1="1986.03" x2="1985.938" y2="0.313" gradientUnits="userSpaceOnUse">
      <stop offset="0.165" stop-color="#0b091a"/>
      <stop offset="0.371" stop-color="#372b87"/>
      <stop offset="0.675" stop-color="#bd95eb"/>
      <stop offset="0.835" stop-color="#e8d0f9"/>
    </linearGradient>
    <linearGradient id="linear-gradient-2" x1="1288.24" y1="1240" x2="696.542" y2="825.688" gradientUnits="userSpaceOnUse">
      <stop offset="0.35" stop-color="#0b091a"/>
      <stop offset="0.442" stop-color="#372b87"/>
      <stop offset="0.579" stop-color="#bd95eb"/>
      <stop offset="0.65" stop-color="#e8d0f9"/>
    </linearGradient>
  </defs>
  <rect id="Rounded_Rectangle_1" data-name="Rounded Rectangle 1" class="cls-1" x="0.219" y="0.313" width="1985.721" height="1985.717"/>
  <path id="Space" class="cls-2" d="M1602.26,1038.57q-0.21,4.815-.62,8.48H1428.78a76.543,76.543,0,0,0,7.66,23.37,63.553,63.553,0,0,0,25.36,26.36q16.5,9.39,38.37,9.39,18.555,0,33.41-6.87a78.538,78.538,0,0,0,26.4-20.17l28.05,35.75a99.368,99.368,0,0,1-37.74,29.33q-22.5,10.1-51.36,10.09-36.72,0-64.14-16.27a112.114,112.114,0,0,1-42.49-44.46q-15.06-28.185-15.06-64.86t14.65-64.85a112.964,112.964,0,0,1,40.42-44.459q25.77-16.263,58.78-16.27,32.175,0,57.34,15.812t39.6,44.229q14.43,28.425,14.44,67.378Q1602.47,1033.76,1602.26,1038.57Zm-56.1-54.544q-8.04-16.263-22.07-25.208t-33-8.937q-18.555,0-33.2,8.937a58.2,58.2,0,0,0-22.49,25.438,81.2,81.2,0,0,0-7,24.754h124.85A74.144,74.144,0,0,0,1546.16,984.026ZM1233.69,1096.32a64.02,64.02,0,0,0,34.24,9.39,58.927,58.927,0,0,0,30.73-8.48q14.235-8.475,24.13-25.89l39.19,25.67q-12.375,27.495-37.13,42.39t-56.51,14.9q-34.65,0-61.67-16.27a114.6,114.6,0,0,1-42.28-44.46q-15.255-28.185-15.26-64.86,0-37.125,15.26-65.079a115.05,115.05,0,0,1,42.28-44.23q27.015-16.263,61.67-16.27,31.77,0,56.51,14.666t37.13,42.625l-39.19,25.667q-9.9-16.952-24.13-25.438a59.02,59.02,0,0,0-30.73-8.479,63.341,63.341,0,0,0-58.16,35.979q-8.67,17.189-8.67,40.559t8.67,40.8Q1218.425,1086.925,1233.69,1096.32Zm-173.24,25.14a61.942,61.942,0,0,1-20.63,20.92q-18.975,11.925-48.672,11.92-24.75,0-43.312-9.4a69.006,69.006,0,0,1-28.669-26.12q-10.113-16.725-10.106-37.82,0-20.625,8.868-37.12t29.082-26.13q20.205-9.615,53.629-9.62h57.33v-3.67q0-25.2-13.82-39.185t-41.86-13.979a104.836,104.836,0,0,0-35.892,6.416,92.224,92.224,0,0,0-30.525,17.875l-20.212-41.708a125.223,125.223,0,0,1,42.487-22.917,165.441,165.441,0,0,1,50.742-7.791q48.255,0,74.25,25.666,25.98,25.674,25.98,78.833v143.46h-48.67v-29.63Zm-2.48-75.33h-53.62q-25.99,0-35.271,9.4t-9.281,23.6q0,15.12,11.138,24.29t30.934,9.17a61.8,61.8,0,0,0,34.03-9.63q15.06-9.615,22.07-28.41v-28.42Zm-225.635,92.58Q807.17,1154.31,775,1154.3q-27.225,0-49.088-13.52a81.758,81.758,0,0,1-21.45-19.44v118.67H653.31V906.339H702.4v31.132a80.067,80.067,0,0,1,22.687-20.82Q747.36,903.138,775,903.131q32.175,0,57.337,15.583t39.806,44q14.639,28.423,14.644,66,0,38.055-14.644,66.23T832.335,1138.71Zm-6.6-150.559q-8.663-17.187-23.306-26.583t-33.619-9.4a60.487,60.487,0,0,0-33,9.4q-14.85,9.4-23.512,26.583t-8.663,40.559q0,22.935,8.663,40.34t23.512,27.04a59.356,59.356,0,0,0,33,9.62q18.969,0,33.619-9.62t23.306-27.04q8.663-17.415,8.663-40.34Q834.4,1005.34,825.735,988.151Zm-264,154.459q-25.988,13.065-65.587,13.06a193.741,193.741,0,0,1-64.557-10.77q-30.733-10.755-49.293-27.73l18.562-46.29q17.325,15.12,42.9,25.21a141.682,141.682,0,0,0,52.388,10.08q22.68,0,36.712-5.5t20.625-14.89a36.21,36.21,0,0,0,6.6-21.32q0-14.655-9.487-23.6t-24.544-14.21a337.528,337.528,0,0,0-33.413-9.62,368.225,368.225,0,0,1-36.712-10.77,157.283,157.283,0,0,1-33.619-16.275,73.881,73.881,0,0,1-24.544-26.354q-9.281-16.5-9.281-42.167a93.988,93.988,0,0,1,12.581-47.9q12.579-21.764,38.363-34.833t65.381-13.063a186.442,186.442,0,0,1,51.563,7.334q25.571,7.337,44.55,21.083l-16.913,46.292A151.212,151.212,0,0,0,544,881.36a137.746,137.746,0,0,0-39.6-6.188q-21.87,0-35.888,5.959t-20.419,15.812a39.158,39.158,0,0,0-6.393,21.771q0,14.674,9.281,23.6T475.317,956.3q15.054,5.049,33.619,9.625t36.713,10.771a151.542,151.542,0,0,1,33.412,16.042,74.631,74.631,0,0,1,24.544,26.125q9.281,16.275,9.281,41.48a93.184,93.184,0,0,1-12.581,47.44Q587.717,1129.545,561.736,1142.61Z"/>
</svg>
