<svg xmlns="http://www.w3.org/2000/svg" xmlns:xlink="http://www.w3.org/1999/xlink" width="999.951" height="999.951" viewBox="0 0 1986 1986">
  <defs>
    <style>
      .cls-1 {
        fill-rule: evenodd;
        fill: url(#linear-gradient);
      }
    </style>
    <linearGradient id="linear-gradient" x1="665.049" y1="1358.03" x2="1319.298" y2="703.781" gradientUnits="userSpaceOnUse">
      <stop offset="0" stop-color="#9b9b9b"/>
      <stop offset="0.496" stop-color="#eee"/>
      <stop offset="1" stop-color="#9b9b9b"/>
    </linearGradient>
  </defs>
  <rect id="Rounded_Rectangle_1" data-name="Rounded Rectangle 1" x="0.219" y="0.313" width="1985.721" height="1985.717"/>
  <path id="superheros_villians" data-name="superheros  &amp; villians" class="cls-1" d="M1874.6,819.666a109.143,109.143,0,0,0-25.7-3.152q-18.7,0-28.04,6.118t-9.34,15.761q0,8.9,6,13.35a44.041,44.041,0,0,0,15.69,6.86q9.675,2.417,21.53,4.45,11.835,2.043,23.53,5.192a88.029,88.029,0,0,1,21.52,8.9,43.608,43.608,0,0,1,15.86,16.131q6,10.386,6,27.071,0,18.912-9.84,32.448t-27.7,21.137q-17.865,7.6-42.89,7.6a141.018,141.018,0,0,1-43.05-6.489q-20.37-6.484-32.71-15.761l16.02-35.229a104.426,104.426,0,0,0,28.7,13.906,109.212,109.212,0,0,0,33.71,5.378q19.35,0,28.2-5.748t8.85-15.761q0-8.153-6.01-12.423t-15.69-6.489q-9.675-2.226-21.52-4.079a229.635,229.635,0,0,1-23.7-5.007,76.91,76.91,0,0,1-21.53-9.271,46.921,46.921,0,0,1-15.68-16.5q-6.015-10.377-6.01-27.812,0-18.538,9.68-32.448t27.2-21.694q17.52-7.787,41.55-7.787a148.978,148.978,0,0,1,36.21,4.635q18.525,4.641,30.87,12.794l-16.35,35.229A80.313,80.313,0,0,0,1874.6,819.666Zm-168.21,148.7q-21.705,13.167-49.06,13.164-27.03,0-48.56-13.164a93.11,93.11,0,0,1-33.88-36.156q-12.345-22.989-12.35-52.288,0-30.038,12.35-52.658a94.3,94.3,0,0,1,33.71-35.786q21.36-13.158,48.73-13.164,27.69,0,49.23,13.164a92.636,92.636,0,0,1,33.7,35.786q12.18,22.623,12.19,52.658,0,29.673-12.19,52.473A91.856,91.856,0,0,1,1706.39,968.37Zm-2.84-121.263A51.812,51.812,0,0,0,1684.7,825.6a51.873,51.873,0,0,0-54.07,0,53.048,53.048,0,0,0-19.03,21.508q-7,13.907-7,32.819,0,18.548,7,32.819,7.02,14.28,19.03,21.879a48.873,48.873,0,0,0,26.7,7.6,50.1,50.1,0,0,0,27.37-7.6q12.015-7.6,18.85-21.879t6.84-32.819Q1710.39,861.014,1703.55,847.107Zm-56.92,430.813q-9.675-2.235-21.52-4.08a229.945,229.945,0,0,1-23.7-5.01,77,77,0,0,1-21.53-9.27,46.965,46.965,0,0,1-15.68-16.5q-6.015-10.38-6.01-27.81,0-18.54,9.68-32.45t27.2-21.69q17.52-7.8,41.55-7.79a148.868,148.868,0,0,1,36.21,4.63q18.525,4.65,30.88,12.8l-16.36,35.23a80.134,80.134,0,0,0-25.36-11.31,109.054,109.054,0,0,0-25.7-3.16q-18.7,0-28.04,6.12t-9.34,15.76q0,8.91,6.01,13.35t15.68,6.86q9.675,2.415,21.53,4.45,11.835,2.04,23.53,5.19a88.3,88.3,0,0,1,21.52,8.9,43.649,43.649,0,0,1,15.86,16.14q6,10.38,6.01,27.07,0,18.915-9.85,32.44-9.855,13.545-27.7,21.14-17.865,7.6-42.89,7.6a140.774,140.774,0,0,1-43.05-6.49q-20.37-6.48-32.71-15.76l16.02-35.22a104.419,104.419,0,0,0,28.7,13.9,109.172,109.172,0,0,0,33.71,5.38q19.35,0,28.2-5.75t8.85-15.76q0-8.145-6.01-12.42T1646.63,1277.92ZM1540.85,821.705q-24.03,0-38.05,15.2t-14.02,46.355v95.675H1447.4V780.914h39.71v28.76a58.248,58.248,0,0,1,20.36-20.788q17.355-10.567,42.39-10.568v44.129c-1.56-.243-3.12-0.429-4.67-0.556S1542.18,821.705,1540.85,821.705Zm-50.24,340.885q16.515,9.27,26.36,28.55t9.85,49.32v113.48H1485.1V1246.4q0-26.325-11.01-39.31t-31.38-12.98a50.351,50.351,0,0,0-26.03,6.67q-11.355,6.675-17.52,19.84-6.18,13.17-6.18,33.19v100.13H1351.6V1155.91h39.72v25.42a65.374,65.374,0,0,1,19.85-17.63q17.85-10.38,41.22-10.38Q1474.08,1153.32,1490.61,1162.59Zm-77.59-267.831H1273.17a61.716,61.716,0,0,0,6.19,18.913A51.407,51.407,0,0,0,1299.88,935q13.35,7.605,31.04,7.6a61.131,61.131,0,0,0,48.39-21.879l22.7,28.925a80.331,80.331,0,0,1-30.54,23.733q-18.2,8.162-41.55,8.158-29.715,0-51.9-13.164a90.651,90.651,0,0,1-34.37-35.971q-12.2-22.806-12.19-52.473t11.85-52.473a91.49,91.49,0,0,1,32.71-35.971q20.85-13.158,47.56-13.164,26.025,0,46.39,12.793t32.04,35.786q11.685,23,11.68,54.512,0,2.6-.17,6.49T1413.02,894.759Zm-44.89-50.989a49.569,49.569,0,0,0-17.85-20.4q-11.355-7.232-26.7-7.231a50.553,50.553,0,0,0-26.87,7.231,47.143,47.143,0,0,0-18.19,20.581,65.478,65.478,0,0,0-5.66,20.025h101.01A59.788,59.788,0,0,0,1368.13,843.77Zm-84.61,330.31q21.015,20.775,21.02,63.79v116.07h-39.38v-23.98a50.02,50.02,0,0,1-16.69,16.93q-15.345,9.645-39.38,9.64-20.025,0-35.04-7.6a55.729,55.729,0,0,1-23.2-21.14,57.97,57.97,0,0,1-8.18-30.59,62.38,62.38,0,0,1,7.18-30.04q7.17-13.35,23.53-21.13,16.35-7.8,43.39-7.79h46.39v-2.97q0-20.385-11.18-31.7t-33.88-11.31a84.751,84.751,0,0,0-29.03,5.19,74.424,74.424,0,0,0-24.7,14.46l-16.36-33.75a101.549,101.549,0,0,1,34.38-18.54,133.894,133.894,0,0,1,41.05-6.3Q1262.485,1153.32,1283.52,1174.08Zm-63.75,94.94q-21.03,0-28.54,7.6t-7.5,19.1q0,12.24,9.01,19.65,9,7.425,25.03,7.42a50.033,50.033,0,0,0,27.53-7.79q12.18-7.785,17.86-22.99v-22.99h-43.39ZM1157.71,871.4q0-26.327-11.02-39.308t-31.37-12.98a50.353,50.353,0,0,0-26.03,6.675q-11.355,6.675-17.52,19.84t-6.18,33.19V978.939h-41.38V703.78h41.38v100.4a65.773,65.773,0,0,1,18.19-15.483q17.85-10.377,41.22-10.383,21.69,0,38.22,9.271t26.36,28.554q9.84,19.285,9.85,49.321V978.939h-41.72V871.4ZM976.142,1078.78h41.388v275.16H976.142V1078.78Zm9.682-257.075q-24.03,0-38.047,15.2t-14.018,46.355v95.675H892.374V780.914H932.09v28.76a58.221,58.221,0,0,1,20.359-20.788q17.351-10.567,42.386-10.568v44.129q-2.339-.365-4.672-0.556T985.824,821.705ZM927.753,1353.94H886.368V1078.78h41.385v275.16ZM858,894.759H718.143a61.9,61.9,0,0,0,6.19,18.913A51.421,51.421,0,0,0,744.859,935Q758.2,942.6,775.9,942.6a61.131,61.131,0,0,0,48.394-21.879l22.695,28.925a80.4,80.4,0,0,1-30.538,23.733q-18.2,8.162-41.552,8.158-29.709,0-51.9-13.164A90.727,90.727,0,0,1,688.622,932.4q-12.187-22.806-12.182-52.473t11.848-52.473A91.46,91.46,0,0,1,721,791.482q20.855-13.158,47.56-13.164,26.033,0,46.391,12.793t32.04,35.786q11.679,23,11.681,54.512,0,2.6-.167,6.49T858,894.759ZM813.11,843.77a49.629,49.629,0,0,0-17.855-20.4q-11.351-7.232-26.7-7.231a50.522,50.522,0,0,0-26.867,7.231A47.1,47.1,0,0,0,723.5,843.955a65.453,65.453,0,0,0-5.664,20.025H818.847A59.945,59.945,0,0,0,813.11,843.77ZM614.032,968.926q-20.361,12.612-46.391,12.608A73.951,73.951,0,0,1,527.925,970.6a66.085,66.085,0,0,1-17.355-15.722v96.007H469.185V780.914H508.9V806.1a64.785,64.785,0,0,1,18.356-16.846,76.328,76.328,0,0,1,40.384-10.939q26.033,0,46.391,12.608t32.207,35.6q11.842,23,11.848,53.4,0,30.784-11.848,53.585T614.032,968.926Zm-5.34-121.819A53.448,53.448,0,0,0,589.835,825.6a51.568,51.568,0,0,0-53.9,0,52.978,52.978,0,0,0-19.024,21.508q-7.009,13.907-7.009,32.819,0,18.548,7.009,32.633a54.034,54.034,0,0,0,19.024,21.88,50.526,50.526,0,0,0,53.9,0,54.531,54.531,0,0,0,18.857-21.88q7.01-14.088,7.009-32.633Q615.7,861.014,608.692,847.107Zm-140.1,449.623,29.31,31.25-23.029,30.04-29.428-31.39a114.053,114.053,0,0,1-21.97,16.55q-25.03,14.475-56.4,14.47-24.368,0-43.555-8.9t-30.371-24.48a59.477,59.477,0,0,1-11.181-35.6q0-18.915,7.343-33.74t23.195-28.37a197.493,197.493,0,0,1,23.469-16.95,164.47,164.47,0,0,1-12.955-16.8A80.058,80.058,0,0,1,313,1172.6a66.889,66.889,0,0,1-3-20.02q0-18.165,8.177-31.9,8.175-13.71,23.7-21.32,15.52-7.59,35.879-7.6,18.687,0,32.707,6.86a52.152,52.152,0,0,1,21.861,19.47q7.837,12.615,7.843,30.41a61.444,61.444,0,0,1-6.842,28.74q-6.844,13.155-21.861,25.03a201.288,201.288,0,0,1-19.122,13.17l50.485,53.82q8.7-18.78,13.026-44l33.375,11.87Q483.161,1271.435,468.589,1296.73Zm-68.312-131.92a29.522,29.522,0,0,0,4.5-15.57q0-11.13-7.008-17.99t-20.025-6.86q-14.018,0-21.861,7.6t-7.843,19.47a39.152,39.152,0,0,0,2,12.61q2,5.94,8.01,13.35,4.395,5.43,11.118,13.05c6.035-3.64,11.195-7,15.415-10.08Q395.768,1172.23,400.277,1164.81Zm-41.112,69.79a167,167,0,0,0-16.46,11.61q-10.686,8.715-15.353,17.62a40.806,40.806,0,0,0-4.672,19.28,32.5,32.5,0,0,0,5.84,19.1,38.047,38.047,0,0,0,16.521,12.98q10.677,4.635,25.031,4.63a74.864,74.864,0,0,0,38.882-10.38,71.205,71.205,0,0,0,11.97-8.96Zm21.91-281a65.618,65.618,0,0,1-19.358,17.553,72.726,72.726,0,0,1-38.047,10.383q-22.7,0-40.05-9.456t-27.2-28.925q-9.847-19.469-9.846-49.135v-113.1h42.053v107.17q0,26.336,11.014,39.494t30.705,13.165q14.682,0,25.7-6.675t17.021-20.025q6.007-13.35,6.007-33V780.914h41.719V978.939H381.075V953.6ZM130.429,858.6q9.675,2.417,21.527,4.45t23.529,5.192a88.08,88.08,0,0,1,21.527,8.9,43.553,43.553,0,0,1,15.853,16.131q6.007,10.386,6.007,27.071,0,18.912-9.845,32.448t-27.7,21.137q-17.859,7.6-42.887,7.6a141.022,141.022,0,0,1-43.054-6.489q-20.361-6.484-32.707-15.761L78.7,924.055a104.464,104.464,0,0,0,28.7,13.906,109.229,109.229,0,0,0,33.709,5.378q19.351,0,28.2-5.748t8.844-15.761q0-8.153-6.008-12.423t-15.686-6.489q-9.684-2.226-21.527-4.079a229.84,229.84,0,0,1-23.7-5.007,76.9,76.9,0,0,1-21.527-9.271,46.93,46.93,0,0,1-15.686-16.5q-6.007-10.377-6.008-27.812,0-18.538,9.679-32.448t27.2-21.694q17.521-7.787,41.552-7.787a148.987,148.987,0,0,1,36.212,4.635q18.522,4.641,30.871,12.794l-16.353,35.229a80.318,80.318,0,0,0-25.365-11.31,109.1,109.1,0,0,0-25.7-3.152q-18.7,0-28.035,6.118t-9.345,15.761q0,8.9,6.007,13.35T130.429,858.6ZM679.611,1302.77l57.246-146.86h40.05l-76.429,198.03H657.424L581,1155.91h43.054Zm137.675-235.11q11.679,0,19.191,7.6t7.509,19.47a29.564,29.564,0,0,1-7.342,20.21q-7.346,8.34-19.358,8.34-11.686,0-19.19-8.16a28.447,28.447,0,0,1-7.51-20.02,27.538,27.538,0,0,1,7.51-19.29Q805.605,1067.665,817.286,1067.66Zm20.693,286.28H796.594V1155.91h41.385v198.03Zm248.631-286.28q11.67,0,19.19,7.6t7.51,19.47a29.567,29.567,0,0,1-7.34,20.21q-7.35,8.34-19.36,8.34-11.685,0-19.19-8.16a28.434,28.434,0,0,1-7.51-20.02,27.525,27.525,0,0,1,7.51-19.29Q1074.92,1067.665,1086.61,1067.66Zm20.69,286.28h-41.38V1155.91h41.38v198.03Z"/>
</svg>
