<svg xmlns="http://www.w3.org/2000/svg" xmlns:xlink="http://www.w3.org/1999/xlink" width="999.951" height="999.951" viewBox="0 0 1986 1986">
  <defs>
    <style>
      .cls-1 {
        fill: url(#linear-gradient);
      }

      .cls-2 {
        fill-rule: evenodd;
        fill: url(#linear-gradient-2);
      }
    </style>
    <linearGradient id="linear-gradient" x1="0.221" y1="1986.03" x2="1985.938" y2="0.313" gradientUnits="userSpaceOnUse">
      <stop offset="0" stop-color="#c16945"/>
      <stop offset="0.307" stop-color="#bb6441"/>
      <stop offset="0.663" stop-color="#862c10"/>
      <stop offset="1" stop-color="#221712"/>
    </linearGradient>
    <linearGradient id="linear-gradient-2" x1="1268.173" y1="848.594" x2="723.698" y2="1229.84" xlink:href="#linear-gradient"/>
  </defs>
  <rect id="Rounded_Rectangle_1" data-name="Rounded Rectangle 1" class="cls-1" x="0.219" y="0.313" width="1985.721" height="1985.717"/>
  <path id="Suspense" class="cls-2" d="M1883.72,1044.48c-0.25,3.23-.5,6.24-0.75,9.05H1728.83a59.738,59.738,0,0,0,6.05,16.83,52.265,52.265,0,0,0,20.83,21.25q13.245,7.365,31.81,7.37,15.915,0,28.22-5.47a69.4,69.4,0,0,0,22.53-16.42l31.44,37.88a92.171,92.171,0,0,1-35.22,27.14q-21.225,9.465-48.86,9.47-34.86,0-60.98-15.15a105.886,105.886,0,0,1-40.53-41.45q-14.4-26.3-14.39-59.97,0-33.66,13.82-60.18a102.838,102.838,0,0,1,38.64-41.452q24.8-14.933,55.86-14.94,29.925,0,53.97,14.309t38.07,40.4q14.01,26.1,14.01,62.7Q1884.1,1039.645,1883.72,1044.48Zm-78.78-69.019q-11.355-7.357-26.51-7.364t-26.7,7.364a49.35,49.35,0,0,0-17.99,20.621,63.406,63.406,0,0,0-5.63,19.148h100.17a59.442,59.442,0,0,0-5.53-19.358A50.254,50.254,0,0,0,1804.94,975.461ZM1619.17,1142.32q-21.4,9.255-52.08,9.26a177.991,177.991,0,0,1-49.99-6.94q-23.865-6.945-38.26-17.47l19.32-46.71a140.48,140.48,0,0,0,33.52,15.36,123.443,123.443,0,0,0,37.69,6.1q20.445,0,28.97-5.47t8.52-15.15a13.1,13.1,0,0,0-6.63-11.99q-6.63-4-17.42-6.1-10.8-2.115-24.05-4.21a216.444,216.444,0,0,1-26.32-5.89,96.7,96.7,0,0,1-24.24-10.74,50.185,50.185,0,0,1-17.8-19.14q-6.63-12.21-6.63-31.567,0-21.462,11.36-38.085t32.19-25.881q20.835-9.252,50.38-9.259a178.077,178.077,0,0,1,42.61,5.261q21.39,5.267,36.17,14.519L1636.4,984.93a99.419,99.419,0,0,0-29.35-13.046,116.515,116.515,0,0,0-28.59-3.787q-20.46,0-29.55,5.891t-9.09,15.15a14.358,14.358,0,0,0,6.82,12.832q6.825,4.425,17.8,6.53t24.24,4.21a207.015,207.015,0,0,1,26.14,5.89,97.446,97.446,0,0,1,24.05,10.73,50.368,50.368,0,0,1,17.8,19.15q6.615,12.21,6.63,31.56a62.527,62.527,0,0,1-11.37,36.82Q1640.575,1133.06,1619.17,1142.32ZM1401.2,1028.7q0-27.36-10.79-40.4t-30.49-13.046a47.879,47.879,0,0,0-25.19,6.733q-11.175,6.736-17.42,19.776t-6.25,34.51v111.94h-59.09V921.805h56.44v26.914a77.821,77.821,0,0,1,20.83-18.076q20.445-12.2,46.59-12.205,24.225,0,43.36,10.732T1449.3,962q10.98,22.094,10.99,56.605v129.61H1401.2V1028.7Zm-174.6,24.83H1072.47a59.415,59.415,0,0,0,6.04,16.83,52.327,52.327,0,0,0,20.83,21.25q13.26,7.365,31.81,7.37,15.915,0,28.22-5.47a69.545,69.545,0,0,0,22.54-16.42l31.43,37.88a92.1,92.1,0,0,1-35.22,27.14q-21.21,9.465-48.86,9.47-34.845,0-60.98-15.15a105.794,105.794,0,0,1-40.52-41.45q-14.4-26.3-14.4-59.97,0-33.66,13.83-60.18a102.746,102.746,0,0,1,38.63-41.452q24.81-14.933,55.87-14.94,29.91,0,53.97,14.309,24.045,14.312,38.06,40.4t14.02,62.7q0,3.8-.38,8.63C1227.1,1047.71,1226.85,1050.72,1226.6,1053.53Zm-60.22-57.658a50.3,50.3,0,0,0-17.8-20.411q-11.37-7.357-26.52-7.364t-26.7,7.364a49.419,49.419,0,0,0-17.99,20.621,63.686,63.686,0,0,0-5.62,19.148h100.16A58.954,58.954,0,0,0,1166.38,995.872ZM954.094,1137.06q-22.92,14.52-52.078,14.52-25.38,0-44.693-12.62a71.122,71.122,0,0,1-16.286-14.84v105.74H781.952V921.805h56.434V948.03a69.766,69.766,0,0,1,17.991-16.967q19.5-12.624,45.639-12.625,29.16,0,52.078,14.519t36.36,40.611q13.44,26.1,13.446,61.442,0,35.775-13.446,61.65T954.094,1137.06ZM937.05,1001.34q-7.012-13.884-18.558-21.249a47.954,47.954,0,0,0-26.324-7.365,48.875,48.875,0,0,0-26.512,7.365q-11.745,7.366-18.748,21.249t-7.007,33.67q0,19.365,7.007,33.46t18.748,21.67a47.829,47.829,0,0,0,26.512,7.57,46.934,46.934,0,0,0,26.324-7.57q11.549-7.575,18.558-21.67t7.007-33.46Q944.057,1015.24,937.05,1001.34ZM716.621,1142.32q-21.4,9.255-52.078,9.26a178.005,178.005,0,0,1-49.995-6.94q-23.86-6.945-38.254-17.47l19.317-46.71a140.472,140.472,0,0,0,33.519,15.36,123.428,123.428,0,0,0,37.686,6.1q20.452,0,28.974-5.47t8.522-15.15a13.111,13.111,0,0,0-6.628-11.99q-6.631-4-17.423-6.1-10.794-2.115-24.05-4.21a216.449,216.449,0,0,1-26.323-5.89,96.728,96.728,0,0,1-24.24-10.74,50.221,50.221,0,0,1-17.8-19.14q-6.63-12.21-6.628-31.567,0-21.462,11.363-38.085T624.774,927.7q20.826-9.252,50.374-9.259a178.083,178.083,0,0,1,42.61,5.261q21.393,5.267,36.17,14.519L733.854,984.93A99.389,99.389,0,0,0,704.5,971.884a116.535,116.535,0,0,0-28.6-3.787q-20.452,0-29.543,5.891t-9.09,15.15a14.346,14.346,0,0,0,6.818,12.832q6.817,4.425,17.8,6.53t24.24,4.21a206.964,206.964,0,0,1,26.134,5.89,97.265,97.265,0,0,1,24.05,10.73,50.342,50.342,0,0,1,17.8,19.15q6.621,12.21,6.628,31.56a62.556,62.556,0,0,1-11.363,36.82Q738.021,1133.06,716.621,1142.32Zm-216.454-20.94a72.455,72.455,0,0,1-20.074,18.21,81.506,81.506,0,0,1-43.177,11.99q-25.761,0-45.45-10.94t-30.679-33.67q-10.989-22.725-10.984-57.23V921.805h59.085V1039.64q0,28.62,10.8,41.87t30.489,13.26a44.167,44.167,0,0,0,24.24-6.74q10.6-6.72,16.854-20.2,6.25-13.455,6.25-33.66V921.805h58.706V1148.21H500.167v-26.83ZM278.6,1140.64q-25,12.63-62.494,12.62a197.76,197.76,0,0,1-61.168-9.47q-29.356-9.465-47.154-24.61l20.831-51.35q16.662,13.485,40.147,22.1a136.428,136.428,0,0,0,47.344,8.63q18.18,0,29.353-4.21t16.476-11.16a25.916,25.916,0,0,0,5.3-16.2q0-11.775-8.332-18.72t-22.157-11.37q-13.83-4.41-30.111-8.41t-32.761-9.68a126.165,126.165,0,0,1-30.3-15.15,68.3,68.3,0,0,1-21.968-24.832q-8.149-15.357-8.143-38.506a89.923,89.923,0,0,1,12.12-46.081Q137.706,873.409,162.517,861t62.3-12.415a185.4,185.4,0,0,1,49.427,6.733q24.431,6.738,42.61,19.359l-19.317,51.341A146.348,146.348,0,0,0,260.8,908.97a126.453,126.453,0,0,0-36.36-5.682q-18.18,0-29.164,4.419t-16.1,11.994a29.435,29.435,0,0,0-5.113,16.833q0,11.787,8.332,18.938t21.968,11.152q13.635,4,30.3,8a309.77,309.77,0,0,1,32.951,9.889,140.365,140.365,0,0,1,29.921,14.94A68.741,68.741,0,0,1,319.7,1023.86q8.523,15.36,8.522,38.08a87.018,87.018,0,0,1-12.309,45.45Q303.6,1128.015,278.6,1140.64Z"/>
</svg>
