<svg xmlns="http://www.w3.org/2000/svg" xmlns:xlink="http://www.w3.org/1999/xlink" width="999.951" height="999.951" viewBox="0 0 1986 1986">
  <defs>
    <style>
      .cls-1 {
        fill: url(#linear-gradient);
      }

      .cls-2 {
        fill-rule: evenodd;
        fill: url(#linear-gradient-2);
      }
    </style>
    <linearGradient id="linear-gradient" x1="1856.158" y1="0.313" x2="130" y2="1986.03" gradientUnits="userSpaceOnUse">
      <stop offset="0.155" stop-color="#2f0f14"/>
      <stop offset="0.365" stop-color="#52281d"/>
      <stop offset="0.546" stop-color="#ddb351"/>
      <stop offset="0.837" stop-color="#d9d05b"/>
      <stop offset="0.845" stop-color="#d9d15b"/>
    </linearGradient>
    <linearGradient id="linear-gradient-2" x1="360.085" y1="1158.72" x2="1591.665" y2="828.719" gradientUnits="userSpaceOnUse">
      <stop offset="0.35" stop-color="#2f0f14"/>
      <stop offset="0.441" stop-color="#52281d"/>
      <stop offset="0.52" stop-color="#ddb351"/>
      <stop offset="0.647" stop-color="#c9ad48"/>
      <stop offset="0.65" stop-color="#c8ad48"/>
    </linearGradient>
  </defs>
  <rect id="Rounded_Rectangle_1" data-name="Rounded Rectangle 1" class="cls-1" x="0.219" y="0.313" width="1985.721" height="1985.717"/>
  <path id="VHS-Era" class="cls-2" d="M1755.09,1154.14v-29.63a61.94,61.94,0,0,1-20.62,20.93q-18.99,11.91-48.68,11.91-24.75,0-43.31-9.39a68.905,68.905,0,0,1-28.67-26.13q-10.11-16.725-10.11-37.81,0-20.625,8.87-37.13t29.08-26.12q20.2-9.63,53.63-9.63h57.34v-3.66q0-25.206-13.82-39.19t-41.87-13.979a104.817,104.817,0,0,0-35.89,6.416,92.16,92.16,0,0,0-30.52,17.875l-20.22-41.708a125.239,125.239,0,0,1,42.49-22.917,165.447,165.447,0,0,1,50.74-7.791q48.255,0,74.25,25.666,25.98,25.674,25.99,78.838v143.45h-48.68Zm-56.1-104.95q-25.98,0-35.27,9.39-9.285,9.4-9.28,23.61,0,15.12,11.14,24.29t30.94,9.16a61.845,61.845,0,0,0,34.03-9.62q15.045-9.63,22.07-28.42v-28.41h-53.63Zm-110.96-89.379q-29.7,0-47.03,18.791t-17.32,57.288v118.25h-51.15V909.394h49.09V944.94a71.9,71.9,0,0,1,25.16-25.692q21.435-13.062,52.39-13.062v54.541q-2.895-.451-5.78-0.687C1591.46,959.889,1589.68,959.811,1588.03,959.811Zm-379.09-126.5h210.79v50.416H1262.57v82.959h139.42v49.044H1262.57v88H1425.5v50.41H1208.94V833.311ZM1041.88,1002.44h113.85v48.58H1041.88v-48.58Zm-85.8,143.22q-25.988,13.065-65.587,13.07a194,194,0,0,1-64.557-10.77q-30.734-10.77-49.293-27.73l18.562-46.29q17.325,15.12,42.9,25.2a141.491,141.491,0,0,0,52.388,10.09q22.68,0,36.712-5.5t20.625-14.9a36.18,36.18,0,0,0,6.6-21.31q0-14.67-9.487-23.61t-24.544-14.2a340.245,340.245,0,0,0-33.413-9.63,368.225,368.225,0,0,1-36.712-10.77,156.8,156.8,0,0,1-33.619-16.27,73.881,73.881,0,0,1-24.544-26.354q-9.281-16.5-9.281-42.167a93.978,93.978,0,0,1,12.581-47.9q12.579-21.764,38.363-34.833t65.381-13.063a186.4,186.4,0,0,1,51.563,7.334q25.571,7.337,44.55,21.083l-16.913,46.292a151.212,151.212,0,0,0-40.012-19.021,137.746,137.746,0,0,0-39.6-6.188q-21.87,0-35.888,5.959T842.438,900a39.158,39.158,0,0,0-6.393,21.771q0,14.673,9.281,23.6t24.337,13.979q15.054,5.049,33.619,9.625T940,979.748a151.542,151.542,0,0,1,33.412,16.042,74.582,74.582,0,0,1,24.544,26.12q9.284,16.275,9.279,41.48a93.116,93.116,0,0,1-12.579,47.44Q982.063,1132.61,956.082,1145.66ZM678.058,1016.64H528.733v137.5H475.108V833.311h53.625V965.769H678.058V833.311h53.213V1154.14H678.058v-137.5Zm-403.833,137.5L148,833.311h58.163l95.853,246.949,97.609-246.949h53.212L327.025,1154.14h-52.8Z"/>
</svg>
