<svg xmlns="http://www.w3.org/2000/svg" width="2000" height="2000" viewBox="0 0 2000 2000">
  <defs>
    <style>
      .cls-1 {
        fill: #fff;
        fill-rule: evenodd;
      }
    </style>
  </defs>
  <path id="Rectangle_1_copy_2" data-name="Rectangle 1 copy 2" class="cls-1" d="M1484.02,1993.55h-969.1c-281.659,0-509.988-228.33-509.988-509.99V514.46C4.927,232.8,233.256,4.472,514.915,4.472H1484.02C1765.67,4.472,1994,232.8,1994,514.46v969.1C1994,1765.22,1765.67,1993.55,1484.02,1993.55Zm-45.11-166.8c208.43,0,377.39-168.97,377.39-377.4V1401H1397v425.75h41.91Zm-221.91,0V1401H772v425.75h445Zm-665.153,0H592V1401H174.456v48.35C174.456,1657.78,343.42,1826.75,551.847,1826.75ZM592,184.9H551.847c-208.427,0-377.391,168.964-377.391,377.391V596H592V184.9ZM174.456,776v445H592V776H174.456ZM1217,184.9H772V596h445V184.9ZM772,776v445h445V776H772ZM1816.3,562.288c0-208.427-168.96-377.391-377.39-377.391H1397V596h419.3V562.288ZM1397,776v445h419.3V776H1397Z"/>
</svg>
