<svg xmlns="http://www.w3.org/2000/svg" width="3825" height="1582" viewBox="0 0 3825 1582">
  <defs>
    <style>
      .cls-1 {
        fill: #fff;
        fill-rule: evenodd;
      }
    </style>
  </defs>
  <path id="Shape_346_1" data-name="Shape 346 1" class="cls-1" d="M1761.1,3c56.85,2.514,106.11,16.726,129.21,66.317,40.88,122.438,5.93,236.823-158.38,223.235-82.28-9.685-127.73-63.1-113.32-162.733,4.45-30.765,6.06-52.217,19.07-72.949,18.02-28.705,50.02-44.6,89.76-51.626ZM318.268,35.547H655.975Q797.328,718.394,938.707,1401.38h-276l-1.122-2.25-59.463-309.75H341.829l-65.073,312H3l1.122-2.25Q161.18,717.41,318.268,35.547ZM2768.61,927.771q0.555,164.954,1.12,329.959,6.735,71.8,13.46,143.65H2590.22c-16.67,0-47.33,4.45-59.46-2.25q-7.305-47.685-14.59-95.39h-5.61c-64.4,91.84-212.5,151.72-353.41,88.66-90.71-40.59-139.86-127.97-157.08-243.54-6.84-45.93,2.98-97.87,13.47-132.43,58.88-194.114,246.06-252.42,468.97-282.816-0.78-154.84-144.56-164.53-276-123.453-32.12,10.038-59.61,26.873-88.63,39.281q-25.8-89.775-51.61-179.568c114.77-68.441,397.82-112.456,536.29-33.668,98.14,55.836,149.4,147.549,162.68,288.429l205.32-6.733q-79.095-203.678-158.19-407.393c-13.43-42.742-43.19-125.256,5.61-153.755,54.84-21.374,136.2,11.337,175.02,58.36,33.12,34.2,63.34,94.38,87.51,149.265q47.115,110.535,94.25,221.092,24.675,64.526,49.36,129.064l222.15,4.489c62.45,2.244,120.82,3.534,187.36,6.734s172.73,9.644,186.25,96.517c4.97,31.936-7.58,57.548-19.08,74.071-52.97,76.147-139.73,62.621-244.58,46.014l-131.27-10.1-121.17-4.489q26.925,79.674,53.85,159.369c32.36,93.11,56.32,188.67,84.15,286.18,24.16,84.65,30.73,169.54-49.37,197.53-81.12,28.34-132.26-33.76-157.07-81.93-45.43-88.21-65.04-195.45-98.73-297.41q-43.755-133.545-87.51-267.106ZM475.341,286.94q-35.9,209.849-71.805,419.739-16.827,88.09-33.658,176.2H576.317L553.878,750.448q-35.9-231.169-71.805-462.385l-1.122-1.123h-5.61ZM1555.78,661.787c-245.36-8.4-243.47,135.427-243.46,373.723v365.87H1029.59V619.14q-3.93-104.364-7.86-208.747l243.46,1.122q7.3,72.381,14.59,144.776h8.98c25.02-75.4,82.02-138.63,164.92-157.121,10.34-2.306,96.66-7.764,102.1,0V661.787Zm68.44-251.394h282.73V1401.38H1624.22V410.393Zm853.8,525.234-60.58,5.611c-57.72,12.179-110.94,37.954-138,80.8-20.68,23.59-27.01,156.95,34.78,188.55,16.1,9.72,43.83,15.36,69.56,11.22,95.96-15.42,106.59-79.74,106.59-191.91q-0.57-47.133-1.13-94.273h-11.22Z"/>
</svg>
