<svg xmlns="http://www.w3.org/2000/svg" width="2000" height="2000" viewBox="0 0 2000 2000">
  <defs>
    <style>
      .cls-1 {
        fill: #fff;
        fill-rule: evenodd;
      }
    </style>
  </defs>
  <path id="Shape_346_1" data-name="Shape 346 1" class="cls-1" d="M920.29,669.805c29.761,1.289,55.548,8.706,67.667,34.654,21.453,64.073,3.214,123.966-82.8,116.931-43.07-5.031-66.884-32.972-59.39-85.132,2.314-16.106,3.147-27.337,9.949-38.2,9.418-15.035,26.162-23.372,46.957-27.067ZM165.084,687.523l176.766-.159q74.31,357.381,148.635,714.836-72.226.06-144.467,0.13c-0.2-.39-0.392-0.79-0.588-1.18Q329.8,1320.1,314.159,1239.04l-136.245.12Q160.958,1320.82,144,1402.51q-71.64.06-143.293,0.13c0.2-.39.391-0.79,0.586-1.18Q83.181,1044.535,165.084,687.523Zm1283.006,465.9q0.375,86.34.74,172.72,3.555,37.59,7.12,75.19l-101.01.09c-8.73.01-24.78,2.35-31.13-1.15q-3.84-24.96-7.68-49.93h-2.93c-33.67,48.11-111.16,79.53-184.95,46.58-47.5-21.2-73.26-66.92-82.33-127.41-3.61-24.04,1.51-51.23,6.98-69.33,30.73-101.64,128.68-132.25,245.34-148.26-0.48-81.056-75.74-86.061-144.52-64.5-16.81,5.269-31.19,14.1-46.38,20.606q-13.545-46.986-27.09-93.976c60.04-35.88,208.17-59.054,280.69-17.877,51.39,29.182,78.27,77.167,85.29,150.9q53.73-1.8,107.47-3.62-41.505-106.578-83-213.18c-7.05-22.368-22.66-65.547,2.86-80.488,28.7-11.214,71.3,5.87,91.65,30.467,17.35,17.886,33.19,49.374,45.87,78.094q24.72,57.839,49.44,115.689,12.945,33.765,25.9,67.538,58.125,1.125,116.28,2.24c32.69,1.15,63.24,1.8,98.07,3.44s90.42,4.97,97.53,50.44c2.62,16.71-3.93,30.12-9.94,38.78-27.7,39.88-73.11,32.85-128.01,24.2l-68.71-5.22q-31.71-1.155-63.43-2.3,14.13,41.7,28.27,83.4c16.98,48.73,29.56,98.74,44.18,149.77,12.68,44.3,16.16,88.73-25.75,103.42-42.45,14.87-69.25-17.61-82.25-42.81-23.83-46.16-34.14-102.28-51.82-155.64q-22.965-69.885-45.94-139.78Q1521.505,1152.465,1448.09,1153.42ZM247.419,819.045Q228.728,928.911,210.033,1038.8q-8.768,46.11-17.535,92.25,54.023-.045,108.056-0.1l-11.807-69.31q-18.9-120.995-37.8-242.011l-0.588-.587ZM813.131,1014.75c-128.433-4.28-127.376,71.01-127.26,195.75q0.087,95.745.173,191.52-73.987.075-147.991,0.13-0.185-204.7-.369-409.471-2.1-54.628-4.209-109.268l127.437,0.472q3.851,37.885,7.7,75.779l4.7,0c13.063-39.478,42.867-72.607,86.253-82.325,5.41-1.212,50.588-4.11,53.441-.048Q813.07,946.012,813.131,1014.75Zm35.705-131.624,147.99-.133q0.234,259.346.468,518.747-73.989.06-147.991,0.13Q849.069,1142.535,848.836,883.126ZM1295.99,1157.67q-15.855,1.47-31.71,2.96c-30.2,6.4-58.05,19.92-72.19,42.37-10.81,12.35-14.07,82.17,18.29,98.68,8.43,5.08,22.95,8.01,36.42,5.84,50.21-8.12,55.75-41.8,55.7-100.51q-0.33-24.675-.64-49.35C1299.91,1157.66,1297.95,1157.66,1295.99,1157.67Z"/>
</svg>
