<svg xmlns="http://www.w3.org/2000/svg" width="1000" height="1000" viewBox="0 0 2000 2000">
  <defs>
    <style>
      .cls-1 {
        fill: #ffdc00;
      }

      .cls-1, .cls-2, .cls-3 {
        fill-rule: evenodd;
      }

      .cls-2 {
        fill: #ff8c00;
      }
    </style>
  </defs>
  <path class="cls-1" d="M325.777,119.1H1702.31l168.56,168.556V1431.42L1758.5,1543.79H1329.08l-284.94,284.94v96.32l-76.247-76.25L682.954,1563.86H361.9L137.155,1339.12V243.507Z"/>
  <path id="Shape_363_1" data-name="Shape 363 1" class="cls-2" d="M483.384,15.226H1380.24l138.44,1.018,41.74,1.018c-3.51-.088,81.39,1.137,123.18,12.222,150.49,39.918,222.87,139.934,251.2,231.454,16.48,53.243,15.63,171.464,15.51,165.748q0.51,114.565,1.02,229.155V1107.02c0.01,87.69,6.02,190.11-15.27,258.69-22.33,71.93-63.32,135.39-117.07,176.2-42.36,32.16-87.27,56.28-147.61,71.29-48.71,12.12-130.14,9.16-118.09,9.16l-156.77,2.04c-25.71,2.63-52.7,3.05-77.3,24.15-31.77,27.26-60.22,67.94-171.22,219.21-26.76,36.91-64.98,94.82-113.13,111.13-75.549,25.6-124.74-31.91-152.872-70.35-244.3-318.71-177.657-282.02-380.29-285.16-17.636-.61-35.292-0.68-52.936-1.02q-15.268-.495-30.54-1.01c10.165,0.3-73.476-1.35-120.123-16.3-69-22.12-134.247-67.97-173.353-120.64-86.827-110.7-75.418-255.58-75.418-259.99,0-42.43,1.4-119.78,1.4-162.21V557.049c0.254-32.49-1.471-206.442,9.547-260.139,10.149-48.115,34.064-97.05,58.659-131.97C239.071-5.616,450.124,16.037,483.384,15.226Zm39.7,138.511c0.928-.475-50.778-0.054-115,2.187-11.344,2.211-112.544-.663-178.181,92.53-46.851,66.52-40.719,187.733-40.72,301.466v539.79q0.508,62.625,1.018,125.27c0.409,13.93,4.071,92.69,10.992,118.53,8.625,32.21,25.552,52.35,42.962,74.98,27.289,35.47,71.755,58.9,123.177,70.27,26.688,5.9,94.63,4.94,100.781,5.09l66.17,1.02c55.109,0,111.957-2.16,153.716,11.21,98.493,31.52,146.069,110.13,200.545,185.36,25.782,35.6,53.43,70.05,79.4,105.92,10.378,14.33,23.109,27.53,32.571,42.77-3.391,4.85,102.15-135.14,143.54-189.43,39.39-54.34,77.53-104.99,142.52-134.44,57.82-26.2,146.15-20.83,137.62-20.83,31.74-.31,184.41.65,221.73-8.71,62.89-15.76,107.81-54.72,137.43-103.88,19.43-32.24,24.05-75.85,27.1-110.7,0.34-17.99,1.07-29.17,1.4-47.16q0.51-152.76,1.02-305.541c0-126.277-1.65-252.6,0-378.87,3.13-237.563-26.8-266.8-54.4-300.217-70.22-85.018-215.85-76.614-368.06-76.615H523.086Z"/>
  <path id="Rounded_Rectangle_1" data-name="Rounded Rectangle 1" class="cls-3" d="M1000.05,332.8h0.9a72.3,72.3,0,0,1,72.29,72.293V1023.02a72.29,72.29,0,0,1-72.29,72.29h-0.9a72.288,72.288,0,0,1-72.29-72.29V405.094A72.293,72.293,0,0,1,1000.05,332.8Z"/>
  <path id="Rounded_Rectangle_1_copy" data-name="Rounded Rectangle 1 copy" class="cls-3" d="M1007.48,1204.3h0.49a72.283,72.283,0,0,1,72.29,72.29v101.6a72.283,72.283,0,0,1-72.29,72.29h-0.49a72.287,72.287,0,0,1-72.289-72.29v-101.6A72.287,72.287,0,0,1,1007.48,1204.3Z"/>
</svg>
