<svg xmlns="http://www.w3.org/2000/svg" width="2000" height="2000" viewBox="0 0 2000 2000">
  <defs>
    <style>
      .cls-1 {
        fill: #fff;
        fill-rule: evenodd;
      }
    </style>
  </defs>
  <path class="cls-1" d="M1000,1997.01C449.37,1997.01,3,1550.63,3,1000S449.37,3,1000,3s997,446.374,997,997S1550.63,1997.01,1000,1997.01Zm0.5-1788.619c-437.191,0-791.607,354.422-791.607,791.619s354.416,791.63,791.607,791.63,791.61-354.42,791.61-791.63S1437.7,208.391,1000.5,208.391ZM1000,1678.13a118.445,118.445,0,1,1,118.45-118.44A118.446,118.446,0,0,1,1000,1678.13Zm0.5-315.19a111.926,111.926,0,0,1-111.923-111.93V478.083a111.927,111.927,0,0,1,223.853,0V1251.01A111.926,111.926,0,0,1,1000.5,1362.94Z"/>
</svg>
