<svg xmlns="http://www.w3.org/2000/svg" width="2000" height="2000" viewBox="0 0 2000 2000">
  <defs>
    <style>
      .cls-1 {
        fill: #fff;
        fill-rule: evenodd;
      }
    </style>
  </defs>
  <path class="cls-1" d="M1442.84,1992.99H558.149c-303.842,0-550.154-246.31-550.154-550.15v-884.7C7.995,254.3,254.307,7.989,558.149,7.989H1442.84C1746.68,7.989,1993,254.3,1993,558.143v884.7C1993,1746.68,1746.68,1992.99,1442.84,1992.99ZM1849.97,571.261c0-232.024-188.09-420.118-420.12-420.118H571.139c-232.025,0-420.118,188.094-420.118,420.118V1429.97c0,232.03,188.093,420.12,420.118,420.12H1429.85c232.03,0,420.12-188.09,420.12-420.12V571.261ZM1000.21,367.778h0.58a111.5,111.5,0,0,1,111.5,111.5V1251.86a111.5,111.5,0,0,1-111.5,111.5h-0.58a111.5,111.5,0,0,1-111.5-111.5V479.278A111.5,111.5,0,0,1,1000.21,367.778ZM1000,1441.57a118.305,118.305,0,1,1-118.306,118.3A118.3,118.3,0,0,1,1000,1441.57Z"/>
</svg>
