<svg xmlns="http://www.w3.org/2000/svg" width="2880" height="877" viewBox="0 0 2880 877">
  <defs>
    <style>
      .cls-1 {
        fill: #16181c;
      }

      .cls-2 {
        fill: #8c8c8c;
      }

      .cls-2, .cls-3, .cls-4 {
        fill-rule: evenodd;
      }

      .cls-3 {
        fill: #09c;
      }

      .cls-4 {
        fill: #7b7b7b;
      }
    </style>
  </defs>
  <rect class="cls-1" width="2880" height="877"/>
  <path id="This_Content_has_violated_rules_and_guidlines_._However_" data-name="This Content has violated      rules and guidlines . However,  " class="cls-2" d="M2701.79,426.116c-0.03.73-.08,1.373-0.14,1.928H2662.8a17.489,17.489,0,0,0,1.72,5.312,14.4,14.4,0,0,0,5.7,5.99,17.006,17.006,0,0,0,8.63,2.135,16.883,16.883,0,0,0,13.44-6.146l6.3,8.125a22.289,22.289,0,0,1-8.48,6.667,30.066,30.066,0,0,1-25.96-1.406,25.412,25.412,0,0,1-9.55-10.105,31.149,31.149,0,0,1-3.38-14.739,31.863,31.863,0,0,1,3.29-14.74,25.526,25.526,0,0,1,9.09-10.1,24.013,24.013,0,0,1,13.21-3.7,23.489,23.489,0,0,1,12.88,3.594,24.77,24.77,0,0,1,8.9,10.052,33.656,33.656,0,0,1,3.25,15.313C2701.84,424.78,2701.82,425.387,2701.79,426.116Zm-12.61-12.395a13.863,13.863,0,0,0-4.96-5.73,13.372,13.372,0,0,0-7.41-2.031,13.962,13.962,0,0,0-7.47,2.031,13.193,13.193,0,0,0-5.05,5.782,18.306,18.306,0,0,0-1.57,5.625h28.06A17.06,17.06,0,0,0,2689.18,413.721Zm-60.3,7.76q0-7.395-3.06-11.042t-8.72-3.645a13.863,13.863,0,0,0-7.23,1.875,12.253,12.253,0,0,0-4.86,5.572,22.073,22.073,0,0,0-1.72,9.323v28.125h-11.5V374.4h11.5V402.61a18.256,18.256,0,0,1,5.05-4.358,22.2,22.2,0,0,1,11.45-2.917,21.159,21.159,0,0,1,10.62,2.6,18.427,18.427,0,0,1,7.32,8.021q2.73,5.418,2.74,13.854v31.875h-11.59V421.481Zm-41.16-102.4a7.086,7.086,0,0,1-5.47-2.448,8.978,8.978,0,0,1-2.23-6.3,8.608,8.608,0,0,1,2.23-6.2,7.233,7.233,0,0,1,5.47-2.343,7.03,7.03,0,0,1,5.28,2.343,8.608,8.608,0,0,1,2.23,6.2,8.978,8.978,0,0,1-2.23,6.3A6.894,6.894,0,0,1,2587.72,319.085ZM2567.32,439.5a6.445,6.445,0,0,0,5.19,2.187,9,9,0,0,0,6.31-2.291l3.33,9.271a13.972,13.972,0,0,1-5.1,2.812,19.81,19.81,0,0,1-6.02.938q-8.16,0-12.61-4.74t-4.45-13.906V406.9h-8.16V396.481h8.16V383.773h11.5v12.708h13.35V406.9h-13.35v26.458A9.2,9.2,0,0,0,2567.32,439.5Zm-43.57-154.948c1.79,0.452,3.79.869,5.98,1.25s4.37,0.869,6.54,1.458a24.468,24.468,0,0,1,5.98,2.5,12.159,12.159,0,0,1,4.4,4.532,17.212,17.212,0,0,1-1.07,16.718,17.933,17.933,0,0,1-7.69,5.938,30.075,30.075,0,0,1-11.91,2.135,38.706,38.706,0,0,1-11.96-1.823,30.482,30.482,0,0,1-9.09-4.427l4.45-9.9a28.945,28.945,0,0,0,7.97,3.907,30.054,30.054,0,0,0,9.37,1.51q5.37,0,7.83-1.615a5.033,5.033,0,0,0,2.46-4.427,4.035,4.035,0,0,0-1.67-3.489,12.174,12.174,0,0,0-4.36-1.823c-1.79-.417-3.79-0.8-5.98-1.146a63.288,63.288,0,0,1-6.58-1.406,21.176,21.176,0,0,1-5.98-2.6,13.141,13.141,0,0,1-4.36-4.636,17.764,17.764,0,0,1,1.02-16.927,17.708,17.708,0,0,1,7.56-6.094A27.956,27.956,0,0,1,2528.2,262a40.9,40.9,0,0,1,10.06,1.3,27.459,27.459,0,0,1,8.57,3.594l-4.54,9.9a22.19,22.19,0,0,0-7.04-3.178,30,30,0,0,0-7.14-.885q-5.19,0-7.79,1.719a5.147,5.147,0,0,0-2.6,4.427,4.393,4.393,0,0,0,1.67,3.75A12.266,12.266,0,0,0,2523.75,284.554Zm-11.68,135.26v31.875h-11.59V421.481q0-7.395-3.06-11.042t-8.72-3.645a13.863,13.863,0,0,0-7.23,1.875,12.253,12.253,0,0,0-4.86,5.572,22.073,22.073,0,0,0-1.72,9.323v28.125H2463.4V396.064h11.03v7.155a18.242,18.242,0,0,1,5.51-4.967,22.2,22.2,0,0,1,11.45-2.917,21.159,21.159,0,0,1,10.62,2.6,18.427,18.427,0,0,1,7.32,8.021Q2512.06,411.378,2512.07,419.814Zm-12.79-125.1h-38.85a17.5,17.5,0,0,0,1.72,5.313,14.27,14.27,0,0,0,5.7,5.989,16.943,16.943,0,0,0,8.62,2.136A16.891,16.891,0,0,0,2489.91,302l6.31,8.125a22.4,22.4,0,0,1-8.49,6.667,30.049,30.049,0,0,1-25.95-1.407,25.266,25.266,0,0,1-9.55-10.1,31.04,31.04,0,0,1-3.39-14.739,31.863,31.863,0,0,1,3.29-14.74,25.675,25.675,0,0,1,9.09-10.1,24.013,24.013,0,0,1,13.21-3.7,23.523,23.523,0,0,1,12.89,3.594,24.836,24.836,0,0,1,8.9,10.052,33.783,33.783,0,0,1,3.24,15.312c0,0.487-.02,1.094-0.05,1.823S2499.34,294.155,2499.28,294.71Zm-12.47-14.323a13.932,13.932,0,0,0-4.96-5.729,13.43,13.43,0,0,0-7.42-2.031,13.9,13.9,0,0,0-7.46,2.031,13.205,13.205,0,0,0-5.06,5.781,18.9,18.9,0,0,0-1.57,5.625h28.06A17.057,17.057,0,0,0,2486.81,280.387Zm-39.08,104.167a6.782,6.782,0,0,1-5.38,2.344,6.889,6.889,0,0,1-5.33-2.292,8.054,8.054,0,0,1-2.09-5.625,7.791,7.791,0,0,1,2.09-5.417,6.9,6.9,0,0,1,5.33-2.291,7.138,7.138,0,0,1,5.33,2.135,7.507,7.507,0,0,1,2.09,5.469A8.349,8.349,0,0,1,2447.73,384.554Zm-21.23-96.406q0-7.395-3.06-11.042t-8.71-3.646a13.863,13.863,0,0,0-7.23,1.875,12.217,12.217,0,0,0-4.87,5.573,22.073,22.073,0,0,0-1.72,9.323v28.125h-11.49V262.731h11.03v7.154a18.263,18.263,0,0,1,5.52-4.966A22.133,22.133,0,0,1,2417.41,262a21.159,21.159,0,0,1,10.62,2.6,18.427,18.427,0,0,1,7.32,8.021q2.745,5.418,2.74,13.854v31.875H2426.5V288.148Zm-26.7,136.146c0,0.486-.02,1.093-0.05,1.822s-0.07,1.373-.14,1.928h-38.84a17.489,17.489,0,0,0,1.72,5.312,14.279,14.279,0,0,0,5.7,5.99,16.943,16.943,0,0,0,8.62,2.135,16.883,16.883,0,0,0,13.44-6.146l6.31,8.125a22.4,22.4,0,0,1-8.49,6.667,30.066,30.066,0,0,1-25.96-1.406,25.319,25.319,0,0,1-9.54-10.105,31.034,31.034,0,0,1-3.39-14.739,31.863,31.863,0,0,1,3.29-14.74,25.6,25.6,0,0,1,9.09-10.1,24.013,24.013,0,0,1,13.21-3.7,23.547,23.547,0,0,1,12.89,3.594,24.915,24.915,0,0,1,8.9,10.052A33.787,33.787,0,0,1,2399.8,424.294Zm-12.65-10.573a13.935,13.935,0,0,0-4.96-5.73,13.43,13.43,0,0,0-7.42-2.031,13.9,13.9,0,0,0-7.46,2.031,13.213,13.213,0,0,0-5.06,5.782,18.88,18.88,0,0,0-1.57,5.625h28.06A17.05,17.05,0,0,0,2387.15,413.721Zm-13.03-95.365h-11.49V262.731h11.49v55.625Zm-5.75-64.792a6.888,6.888,0,0,1-5.33-2.291,8.046,8.046,0,0,1-2.08-5.625,7.778,7.778,0,0,1,2.08-5.417,6.892,6.892,0,0,1,5.33-2.292,7.12,7.12,0,0,1,5.33,2.136,7.507,7.507,0,0,1,2.09,5.469,8.349,8.349,0,0,1-2.04,5.677A6.781,6.781,0,0,1,2368.37,253.564Zm-32.54-12.5h11.5v77.292h-11.5V241.064Zm6.4,182.813a32.574,32.574,0,0,1-3.29,15.052,24.858,24.858,0,0,1-8.95,9.948,23.741,23.741,0,0,1-12.88,3.542,21,21,0,0,1-11.22-3.073,18,18,0,0,1-5.1-4.749v7.092h-11.03V374.4h11.49v28.411a18.711,18.711,0,0,1,4.82-4.4,20.426,20.426,0,0,1,11.04-3.073,23.758,23.758,0,0,1,12.88,3.542,24.8,24.8,0,0,1,8.95,10A32.666,32.666,0,0,1,2342.23,423.877Zm-13.72-9.219a15.016,15.016,0,0,0-5.24-6.042,14.187,14.187,0,0,0-14.97,0,14.828,14.828,0,0,0-5.29,6.042,20.545,20.545,0,0,0-1.94,9.219,20.964,20.964,0,0,0,1.94,9.219,14.674,14.674,0,0,0,5.29,6.145,14.181,14.181,0,0,0,14.97,0,14.857,14.857,0,0,0,5.24-6.145,20.827,20.827,0,0,0,1.95-9.219A20.412,20.412,0,0,0,2328.51,414.658Zm-19-103.6a18.316,18.316,0,0,1-5.15,4.951,20.807,20.807,0,0,1-11.36,3.073,23.83,23.83,0,0,1-12.84-3.541,24.346,24.346,0,0,1-8.94-9.948,36.36,36.36,0,0,1,0-30.052,24.279,24.279,0,0,1,8.94-10A23.84,23.84,0,0,1,2293,262a20.579,20.579,0,0,1,11.13,3.073,18.712,18.712,0,0,1,4.73,4.286v-28.3h11.68v77.292h-11.03v-7.3Zm-2.37-29.736a15.324,15.324,0,0,0-5.28-6.042,14.118,14.118,0,0,0-14.93,0,15.247,15.247,0,0,0-5.28,6.042,20.026,20.026,0,0,0-2,9.219,20.425,20.425,0,0,0,2,9.218,15.088,15.088,0,0,0,5.28,6.146,14.113,14.113,0,0,0,14.93,0,15.162,15.162,0,0,0,5.28-6.146,20.423,20.423,0,0,0,1.99-9.218A20.025,20.025,0,0,0,2307.14,281.325Zm-56.04-27.761a6.888,6.888,0,0,1-5.33-2.291,8.054,8.054,0,0,1-2.09-5.625,7.787,7.787,0,0,1,2.09-5.417,6.892,6.892,0,0,1,5.33-2.292,7.135,7.135,0,0,1,5.33,2.136,7.507,7.507,0,0,1,2.09,5.469,8.349,8.349,0,0,1-2.04,5.677A6.781,6.781,0,0,1,2251.1,253.564Zm-5.75,9.167h11.5v55.625h-11.5V262.731Zm11.5,133.333-23.18,60.209a37.137,37.137,0,0,1-5.14,9.739,16.473,16.473,0,0,1-6.31,5.1,18.785,18.785,0,0,1-7.55,1.511,20.774,20.774,0,0,1-7.33-1.354,15.8,15.8,0,0,1-5.93-3.75l4.54-9.479a15.313,15.313,0,0,0,3.94,2.708,10.516,10.516,0,0,0,4.59,1.042,7.3,7.3,0,0,0,5.1-1.771,16.107,16.107,0,0,0,3.61-6.042l0.86-2.174-21.62-55.743h11.96l15.69,41.268,15.64-41.268h11.13Zm-37.83-84.84a18.3,18.3,0,0,1-5.37,4.945,20.054,20.054,0,0,1-10.57,2.916,22.691,22.691,0,0,1-11.13-2.656,18.287,18.287,0,0,1-7.55-8.125q-2.745-5.469-2.74-13.8V262.731h11.68v30.1q0,7.4,3.06,11.094a10.455,10.455,0,0,0,8.53,3.7,13.391,13.391,0,0,0,7.14-1.875,12.143,12.143,0,0,0,4.73-5.625,22.832,22.832,0,0,0,1.67-9.271V262.731h11.59v55.625h-11.04v-7.132Zm-22.43,107.861v32.6h-10.94V444.93a14.011,14.011,0,0,1-4.64,4.78q-4.26,2.711-10.94,2.709a21.069,21.069,0,0,1-9.73-2.136,15.629,15.629,0,0,1-6.45-5.937,16.471,16.471,0,0,1-2.27-8.594,17.686,17.686,0,0,1,2-8.438,13.844,13.844,0,0,1,6.53-5.937q4.545-2.187,12.05-2.188h12.89v-0.833q0-5.727-3.1-8.906-3.12-3.177-9.41-3.177a23.356,23.356,0,0,0-8.07,1.458,20.6,20.6,0,0,0-6.86,4.063l-4.54-9.48a28.053,28.053,0,0,1,9.55-5.208,36.736,36.736,0,0,1,11.4-1.771q10.845,0,16.69,5.834T2196.59,419.085Zm-11.5,8.75h-12.05c-3.89,0-6.54.713-7.93,2.136a7.367,7.367,0,0,0-2.08,5.364,6.817,6.817,0,0,0,2.5,5.521,10.557,10.557,0,0,0,6.95,2.083,13.806,13.806,0,0,0,7.65-2.187,12.562,12.562,0,0,0,4.96-6.458v-6.459Zm-44.87-88.541a44.254,44.254,0,0,1-13.39-2.032,27.68,27.68,0,0,1-10.71-5.989l5.19-9.688a24.7,24.7,0,0,0,8.16,4.9,28.327,28.327,0,0,0,10.2,1.875q8.055,0,11.86-4.219t3.8-12.76v-2.939a18.759,18.759,0,0,1-5.23,4.5,22.319,22.319,0,0,1-11.36,2.917A24.036,24.036,0,0,1,2117,303.044a28.873,28.873,0,0,1-3.29-14.063,29.406,29.406,0,0,1,3.29-14.219,23.737,23.737,0,0,1,8.95-9.427A24.687,24.687,0,0,1,2138.74,262a22.649,22.649,0,0,1,11.36,2.864,18.677,18.677,0,0,1,5.79,5.171v-7.306h11.03v47.188q0,15.1-6.86,22.239T2140.22,339.294Zm13.4-58.646a13.819,13.819,0,0,0-5.33-5.521,15.316,15.316,0,0,0-7.79-1.979,15.544,15.544,0,0,0-7.83,1.979,13.681,13.681,0,0,0-5.38,5.521,18.881,18.881,0,0,0,0,16.51,13.931,13.931,0,0,0,5.38,5.625,15.219,15.219,0,0,0,7.83,2.031,15,15,0,0,0,7.79-2.031,14.077,14.077,0,0,0,5.33-5.625A18.881,18.881,0,0,0,2153.62,280.648Zm-33.61,114.687a20.937,20.937,0,0,1,10.52,2.6,17.662,17.662,0,0,1,7.19,8.021q2.595,5.418,2.59,13.854v31.875h-11.49V421.481q0-7.395-2.92-11.042a10.035,10.035,0,0,0-8.3-3.645,11.7,11.7,0,0,0-11.26,7.447,22.837,22.837,0,0,0-1.63,9.219v28.229h-11.49V421.481q0-7.395-2.92-11.042a10.035,10.035,0,0,0-8.3-3.645,11.7,11.7,0,0,0-11.26,7.447,22.837,22.837,0,0,0-1.63,9.219v28.229h-11.49V396.064h11.03v6.993a18.3,18.3,0,0,1,5.24-4.805,20.635,20.635,0,0,1,10.98-2.917,19.443,19.443,0,0,1,12.06,3.854,16.27,16.27,0,0,1,4.61,5.579,21.279,21.279,0,0,1,5.58-5.579A22.1,22.1,0,0,1,2120.01,395.335Zm-54.04-84.274a18.316,18.316,0,0,1-5.15,4.951,20.831,20.831,0,0,1-11.36,3.073,23.83,23.83,0,0,1-12.84-3.541,24.346,24.346,0,0,1-8.94-9.948,36.36,36.36,0,0,1,0-30.052,24.279,24.279,0,0,1,8.94-10A23.84,23.84,0,0,1,2049.46,262a20.579,20.579,0,0,1,11.13,3.073,18.712,18.712,0,0,1,4.73,4.286v-28.3H2077v77.292h-11.03v-7.3Zm-2.37-29.736a15.324,15.324,0,0,0-5.28-6.042,14.118,14.118,0,0,0-14.93,0,15.247,15.247,0,0,0-5.28,6.042,20.026,20.026,0,0,0-2,9.219,20.425,20.425,0,0,0,2,9.218,15.088,15.088,0,0,0,5.28,6.146,14.113,14.113,0,0,0,14.93,0,15.162,15.162,0,0,0,5.28-6.146,20.423,20.423,0,0,0,1.99-9.218A20.025,20.025,0,0,0,2063.6,281.325Zm-52.33,171.094q-8.16,0-12.61-4.74t-4.45-13.906V406.9h-8.16V396.481h8.16V383.773h11.49v12.708h13.35V406.9H2005.7v26.458a9.206,9.206,0,0,0,1.86,6.146,6.417,6.417,0,0,0,5.19,2.187,8.975,8.975,0,0,0,6.3-2.291l3.34,9.271a13.972,13.972,0,0,1-5.1,2.812A19.906,19.906,0,0,1,2011.27,452.419Zm-9.18-164.271q0-7.395-3.06-11.042t-8.71-3.646a13.924,13.924,0,0,0-7.24,1.875,12.255,12.255,0,0,0-4.86,5.573,22.073,22.073,0,0,0-1.72,9.323v28.125h-11.49V262.731h11.03v7.154a18.344,18.344,0,0,1,5.51-4.966A22.2,22.2,0,0,1,1993,262a21.159,21.159,0,0,1,10.62,2.6,18.427,18.427,0,0,1,7.32,8.021q2.745,5.418,2.74,13.854v31.875h-11.59V288.148Zm-30.41,83.125a7.138,7.138,0,0,1,5.33,2.135,7.507,7.507,0,0,1,2.09,5.469,8.349,8.349,0,0,1-2.04,5.677,6.782,6.782,0,0,1-5.38,2.344,6.889,6.889,0,0,1-5.33-2.292,8.054,8.054,0,0,1-2.09-5.625,7.791,7.791,0,0,1,2.09-5.417A6.9,6.9,0,0,1,1971.68,371.273Zm-5.75,24.791h11.5v55.625h-11.5V396.064Zm13.54,136.2a24.843,24.843,0,0,1,8.9,10.052,33.787,33.787,0,0,1,3.24,15.313c0,0.487-.01,1.094-0.05,1.823s-0.07,1.372-.13,1.927h-38.85a17.489,17.489,0,0,0,1.72,5.312,14.279,14.279,0,0,0,5.7,5.99,16.943,16.943,0,0,0,8.62,2.135,17.519,17.519,0,0,0,7.51-1.562,17.7,17.7,0,0,0,5.93-4.583l6.31,8.125a22.394,22.394,0,0,1-8.49,6.666,30.066,30.066,0,0,1-25.96-1.406,25.31,25.31,0,0,1-9.54-10.1,31.041,31.041,0,0,1-3.39-14.74,31.856,31.856,0,0,1,3.29-14.739,25.678,25.678,0,0,1,9.09-10.105,24.012,24.012,0,0,1,13.21-3.7A23.522,23.522,0,0,1,1979.47,532.262Zm-20.35,9.063a13.205,13.205,0,0,0-5.06,5.781,18.889,18.889,0,0,0-1.57,5.625h28.06a17.05,17.05,0,0,0-1.59-5.677,13.932,13.932,0,0,0-4.96-5.729,13.43,13.43,0,0,0-7.42-2.031A13.9,13.9,0,0,0,1959.12,541.325ZM1939.14,311.6a13.975,13.975,0,0,1-4.63,4.781q-4.275,2.711-10.94,2.708a21.124,21.124,0,0,1-9.74-2.135,15.544,15.544,0,0,1-6.44-5.938,16.371,16.371,0,0,1-2.27-8.593,17.681,17.681,0,0,1,1.99-8.438,13.916,13.916,0,0,1,6.54-5.937q4.53-2.188,12.05-2.188h12.89v-0.833q0-5.729-3.11-8.907t-9.41-3.177A23.358,23.358,0,0,0,1918,274.4a20.8,20.8,0,0,0-6.86,4.062l-4.54-9.479a28.019,28.019,0,0,1,9.55-5.208,36.828,36.828,0,0,1,11.4-1.771q10.845,0,16.69,5.833t5.84,17.917v32.6h-10.94V311.6Zm-0.55-17.094h-12.06q-5.835,0-7.92,2.135a7.375,7.375,0,0,0-2.09,5.365,6.848,6.848,0,0,0,2.5,5.521,10.568,10.568,0,0,0,6.96,2.083,13.806,13.806,0,0,0,7.65-2.187,12.669,12.669,0,0,0,4.96-6.459V294.5Zm-24.57,89.271v12.708h13.35V406.9h-13.35v26.458a9.2,9.2,0,0,0,1.85,6.146,6.445,6.445,0,0,0,5.19,2.187,8.983,8.983,0,0,0,6.31-2.291l3.33,9.271a14.009,14.009,0,0,1-5.09,2.812,19.922,19.922,0,0,1-6.03.938q-8.16,0-12.61-4.74t-4.45-13.906V406.9h-8.16V396.481h8.16V383.773h11.5Zm-38.85,61.156a13.885,13.885,0,0,1-4.63,4.781,20.094,20.094,0,0,1-10.94,2.709,21.112,21.112,0,0,1-9.74-2.136,15.542,15.542,0,0,1-6.44-5.937,16.471,16.471,0,0,1-2.27-8.594,17.681,17.681,0,0,1,1.99-8.438,13.916,13.916,0,0,1,6.54-5.937q4.545-2.187,12.05-2.188h12.89v-0.833q0-5.727-3.11-8.906t-9.41-3.177a23.26,23.26,0,0,0-8.06,1.458,20.6,20.6,0,0,0-6.86,4.063l-4.55-9.48a28.053,28.053,0,0,1,9.55-5.208,36.828,36.828,0,0,1,11.4-1.771q10.86,0,16.69,5.834,5.85,5.835,5.84,17.916v32.6h-10.94v-6.76Zm-0.55-17.094h-12.06q-5.835,0-7.92,2.136a7.374,7.374,0,0,0-2.09,5.364,6.826,6.826,0,0,0,2.51,5.521,10.521,10.521,0,0,0,6.95,2.083,13.806,13.806,0,0,0,7.65-2.187,12.614,12.614,0,0,0,4.96-6.458v-6.459Zm-26.15-143.281q2.7,0.678,5.98,1.25,3.3,0.573,6.54,1.458a24.305,24.305,0,0,1,5.98,2.5,12.159,12.159,0,0,1,4.4,4.532,17.243,17.243,0,0,1-1.06,16.718,17.965,17.965,0,0,1-7.7,5.938,30.041,30.041,0,0,1-11.91,2.135,38.8,38.8,0,0,1-11.96-1.823,30.482,30.482,0,0,1-9.09-4.427l4.45-9.9a29.011,29.011,0,0,0,7.98,3.907,30.039,30.039,0,0,0,9.36,1.51c3.58,0,6.2-.537,7.83-1.615a5.033,5.033,0,0,0,2.46-4.427,4.011,4.011,0,0,0-1.67-3.489,12.119,12.119,0,0,0-4.35-1.823q-2.7-.626-5.98-1.146a63.467,63.467,0,0,1-6.59-1.406,21.428,21.428,0,0,1-5.98-2.6,13.114,13.114,0,0,1-4.35-4.636,17.764,17.764,0,0,1,1.02-16.927,17.738,17.738,0,0,1,7.55-6.094A27.989,27.989,0,0,1,1852.92,262a40.9,40.9,0,0,1,10.06,1.3,27.625,27.625,0,0,1,8.58,3.594l-4.54,9.9a22.238,22.238,0,0,0-7.05-3.178,30,30,0,0,0-7.14-.885q-5.19,0-7.79,1.719a5.136,5.136,0,0,0-2.59,4.427,4.367,4.367,0,0,0,1.67,3.75A12.132,12.132,0,0,0,1848.47,284.554Zm-18.54,167.135h-11.59V421.481q0-7.395-3.06-11.042t-8.71-3.645a13.863,13.863,0,0,0-7.23,1.875,12.272,12.272,0,0,0-4.87,5.572,22.237,22.237,0,0,0-1.71,9.323v28.125h-11.5V374.4h11.5V402.61a18.256,18.256,0,0,1,5.05-4.358,22.153,22.153,0,0,1,11.45-2.917,21.148,21.148,0,0,1,10.61,2.6,18.505,18.505,0,0,1,7.33,8.021q2.73,5.418,2.73,13.854v31.875ZM1824,294.71h-38.85a17.5,17.5,0,0,0,1.72,5.313,14.393,14.393,0,0,0,5.7,5.989,16.969,16.969,0,0,0,8.62,2.136A16.93,16.93,0,0,0,1814.64,302l6.3,8.125a22.365,22.365,0,0,1-8.48,6.667,30.071,30.071,0,0,1-25.96-1.407,25.4,25.4,0,0,1-9.55-10.1,31.036,31.036,0,0,1-3.38-14.739,31.739,31.739,0,0,1,3.29-14.74,25.577,25.577,0,0,1,9.08-10.1,24.037,24.037,0,0,1,13.21-3.7,23.523,23.523,0,0,1,12.89,3.594,24.764,24.764,0,0,1,8.9,10.052,33.783,33.783,0,0,1,3.24,15.312c0,0.487-.01,1.094-0.04,1.823S1824.06,294.155,1824,294.71Zm-12.47-14.323a13.86,13.86,0,0,0-4.96-5.729,13.383,13.383,0,0,0-7.42-2.031,13.9,13.9,0,0,0-7.46,2.031,13.185,13.185,0,0,0-5.05,5.781,18.613,18.613,0,0,0-1.58,5.625h28.06A16.824,16.824,0,0,0,1811.53,280.387Zm-28.32,304.636h-11.5V507.731h11.5v77.292Zm-22.72-132.6q-8.16,0-12.6-4.74-4.455-4.738-4.46-13.906V406.9h-8.15V396.481h8.15V383.773h11.5v12.708h13.35V406.9h-13.35v26.458a9.258,9.258,0,0,0,1.85,6.146,6.452,6.452,0,0,0,5.2,2.187,8.975,8.975,0,0,0,6.3-2.291l3.34,9.271a13.972,13.972,0,0,1-5.1,2.812A19.922,19.922,0,0,1,1760.49,452.419Zm-9.54-211.355h11.49v77.292h-11.49V241.064Zm-26.33,70.16a18.333,18.333,0,0,1-5.38,4.945,20.029,20.029,0,0,1-10.57,2.916,22.652,22.652,0,0,1-11.12-2.656,18.252,18.252,0,0,1-7.56-8.125q-2.73-5.469-2.73-13.8V262.731h11.68v30.1q0,7.4,3.06,11.094a10.455,10.455,0,0,0,8.53,3.7,13.331,13.331,0,0,0,7.13-1.875,12.143,12.143,0,0,0,4.73-5.625,22.665,22.665,0,0,0,1.67-9.271V262.731h11.59v55.625h-11.03v-7.132ZM1689.39,374.4h11.68v77.291h-11.03V444.4a18.33,18.33,0,0,1-5.15,4.951,20.807,20.807,0,0,1-11.36,3.073,23.847,23.847,0,0,1-12.84-3.542,24.339,24.339,0,0,1-8.94-9.948,36.36,36.36,0,0,1,0-30.052,24.285,24.285,0,0,1,8.94-10,23.864,23.864,0,0,1,12.84-3.542,20.587,20.587,0,0,1,11.13,3.073,18.549,18.549,0,0,1,4.73,4.287V374.4Zm-1.72,40.26a15.331,15.331,0,0,0-5.28-6.042,14.118,14.118,0,0,0-14.93,0,15.331,15.331,0,0,0-5.28,6.042,20.026,20.026,0,0,0-2,9.219,20.432,20.432,0,0,0,2,9.219,15.159,15.159,0,0,0,5.28,6.145,14.113,14.113,0,0,0,14.93,0,15.159,15.159,0,0,0,5.28-6.145,20.432,20.432,0,0,0,2-9.219A20.026,20.026,0,0,0,1687.67,414.658Zm-12.84-140.469q-6.675,0-10.57,4.271t-3.89,13.021v26.875h-11.49V262.731h11.03v8.079a16.242,16.242,0,0,1,5.65-5.839A22.062,22.062,0,0,1,1677.34,262v12.4c-0.44-.069-0.87-0.121-1.3-0.157S1675.2,274.189,1674.83,274.189Zm-33.56,153.855h-38.85a17.489,17.489,0,0,0,1.72,5.312,14.4,14.4,0,0,0,5.7,5.99,17.006,17.006,0,0,0,8.63,2.135,16.883,16.883,0,0,0,13.44-6.146l6.3,8.125a22.289,22.289,0,0,1-8.48,6.667,30.066,30.066,0,0,1-25.96-1.406,25.412,25.412,0,0,1-9.55-10.105,31.149,31.149,0,0,1-3.38-14.739,31.863,31.863,0,0,1,3.29-14.74,25.526,25.526,0,0,1,9.09-10.1,24.013,24.013,0,0,1,13.21-3.7,23.489,23.489,0,0,1,12.88,3.594,24.77,24.77,0,0,1,8.9,10.052,33.656,33.656,0,0,1,3.25,15.313c0,0.486-.02,1.093-0.05,1.822S1641.33,427.489,1641.27,428.044Zm-12.47-14.323a13.863,13.863,0,0,0-4.96-5.73,13.372,13.372,0,0,0-7.41-2.031,13.962,13.962,0,0,0-7.47,2.031,13.193,13.193,0,0,0-5.05,5.782,18.306,18.306,0,0,0-1.57,5.625h28.06A17.06,17.06,0,0,0,1628.8,413.721Zm-28.69,114.948q10.845,0,16.69,5.833t5.84,17.917v32.6H1611.7v-6.76a14.023,14.023,0,0,1-4.64,4.781q-4.26,2.709-10.94,2.708a21.1,21.1,0,0,1-9.73-2.136,15.535,15.535,0,0,1-6.44-5.937,16.375,16.375,0,0,1-2.27-8.594,17.677,17.677,0,0,1,1.99-8.437,13.945,13.945,0,0,1,6.53-5.938q4.545-2.187,12.06-2.187h12.88v-0.834q0-5.727-3.1-8.906t-9.41-3.177a23.38,23.38,0,0,0-8.07,1.458,20.717,20.717,0,0,0-6.86,4.063l-4.54-9.479a28.038,28.038,0,0,1,9.55-5.209A36.735,36.735,0,0,1,1600.11,528.669Zm-1.02,32.5c-3.89,0-6.54.712-7.93,2.135a7.367,7.367,0,0,0-2.08,5.365,6.817,6.817,0,0,0,2.5,5.52,10.558,10.558,0,0,0,6.95,2.084,13.751,13.751,0,0,0,7.65-2.188,12.562,12.562,0,0,0,4.96-6.458v-6.458h-12.05ZM1568.5,421.481q0-7.395-3.06-11.042t-8.72-3.645a13.863,13.863,0,0,0-7.23,1.875,12.253,12.253,0,0,0-4.86,5.572,22.073,22.073,0,0,0-1.72,9.323v28.125h-11.5V396.064h11.04v7.155a18.242,18.242,0,0,1,5.51-4.967,22.2,22.2,0,0,1,11.45-2.917,21.159,21.159,0,0,1,10.62,2.6,18.427,18.427,0,0,1,7.32,8.021q2.73,5.418,2.74,13.854v31.875H1568.5V421.481Zm-27.63,131.667v31.875h-11.59V554.814q0-7.395-3.06-11.041t-8.71-3.646a13.863,13.863,0,0,0-7.23,1.875,12.275,12.275,0,0,0-4.87,5.573,22.237,22.237,0,0,0-1.71,9.323v28.125h-11.5V529.4h11.03v7.154a18.279,18.279,0,0,1,5.52-4.967,22.153,22.153,0,0,1,11.45-2.916,21.148,21.148,0,0,1,10.61,2.6,18.5,18.5,0,0,1,7.33,8.021Q1540.87,544.71,1540.87,553.148Zm-24.75-101.459h-11.5V396.064h11.5v55.625Zm-5.75-64.791a6.889,6.889,0,0,1-5.33-2.292,8.054,8.054,0,0,1-2.09-5.625,7.791,7.791,0,0,1,2.09-5.417,6.9,6.9,0,0,1,5.33-2.291,7.138,7.138,0,0,1,5.33,2.135,7.507,7.507,0,0,1,2.09,5.469,8.349,8.349,0,0,1-2.04,5.677A6.782,6.782,0,0,1,1510.37,386.9Zm-32.17,34.583q0-7.395-2.92-11.042a10.022,10.022,0,0,0-8.3-3.645,11.7,11.7,0,0,0-11.26,7.447,23.019,23.019,0,0,0-1.62,9.219v28.229h-11.5V421.481q0-7.395-2.92-11.042a10.022,10.022,0,0,0-8.3-3.645,11.7,11.7,0,0,0-11.26,7.447,23.019,23.019,0,0,0-1.62,9.219v28.229H1407V396.064h11.03v6.993a18.3,18.3,0,0,1,5.24-4.805,20.67,20.67,0,0,1,10.99-2.917,19.434,19.434,0,0,1,12.05,3.854,16.15,16.15,0,0,1,4.61,5.579,21.472,21.472,0,0,1,5.59-5.579,22.066,22.066,0,0,1,12.88-3.854,20.975,20.975,0,0,1,10.53,2.6,17.643,17.643,0,0,1,7.18,8.021q2.6,5.418,2.6,13.854v31.875h-11.5V421.481Zm-9.17-110.42a18.185,18.185,0,0,1-5.15,4.951,20.8,20.8,0,0,1-11.35,3.073,23.83,23.83,0,0,1-12.84-3.541,24.368,24.368,0,0,1-8.95-9.948,36.463,36.463,0,0,1,0-30.052,24.3,24.3,0,0,1,8.95-10A23.84,23.84,0,0,1,1452.53,262a20.52,20.52,0,0,1,11.12,3.073,18.545,18.545,0,0,1,4.73,4.286v-28.3h11.68v77.292h-11.03v-7.3Zm-2.36-29.736a15.346,15.346,0,0,0-5.29-6.042,14.118,14.118,0,0,0-14.93,0,15.324,15.324,0,0,0-5.28,6.042,20.025,20.025,0,0,0-1.99,9.219,20.423,20.423,0,0,0,1.99,9.218,15.162,15.162,0,0,0,5.28,6.146,14.113,14.113,0,0,0,14.93,0,15.183,15.183,0,0,0,5.29-6.146,20.556,20.556,0,0,0,1.99-9.218A20.153,20.153,0,0,0,1466.67,281.325Zm-46.4,13.385h-38.85a17.5,17.5,0,0,0,1.72,5.313,14.27,14.27,0,0,0,5.7,5.989,16.943,16.943,0,0,0,8.62,2.136A16.891,16.891,0,0,0,1410.9,302l6.31,8.125a22.4,22.4,0,0,1-8.49,6.667,30.071,30.071,0,0,1-25.96-1.407,25.31,25.31,0,0,1-9.54-10.1,31.04,31.04,0,0,1-3.39-14.739,31.863,31.863,0,0,1,3.29-14.74,25.675,25.675,0,0,1,9.09-10.1,24.013,24.013,0,0,1,13.21-3.7,23.523,23.523,0,0,1,12.89,3.594,24.909,24.909,0,0,1,8.9,10.052,33.783,33.783,0,0,1,3.24,15.312c0,0.487-.02,1.094-0.05,1.823S1420.33,294.155,1420.27,294.71Zm-12.47-14.323a13.932,13.932,0,0,0-4.96-5.729,13.43,13.43,0,0,0-7.42-2.031,13.9,13.9,0,0,0-7.46,2.031,13.205,13.205,0,0,0-5.06,5.781,18.9,18.9,0,0,0-1.57,5.625h28.06A17.057,17.057,0,0,0,1407.8,280.387Zm-28.24,123.756a16.325,16.325,0,0,1,5.65-5.839,22.071,22.071,0,0,1,11.78-2.969v12.4c-0.43-.068-0.87-0.12-1.3-0.156s-0.83-.052-1.2-0.052q-6.675,0-10.57,4.271t-3.9,13.02v26.875h-11.49V396.064h11.03v8.079Zm-24.65-85.058q-8.16,0-12.61-4.739t-4.45-13.907V273.564h-8.16V263.148h8.16V250.439h11.49v12.709h13.35v10.416h-13.35v26.459a9.208,9.208,0,0,0,1.86,6.146,6.417,6.417,0,0,0,5.19,2.187,8.972,8.972,0,0,0,6.3-2.292l3.34,9.271a13.973,13.973,0,0,1-5.1,2.813A19.905,19.905,0,0,1,1354.91,319.085Zm-9.75,79.844a24.77,24.77,0,0,1,8.9,10.052,33.656,33.656,0,0,1,3.25,15.313c0,0.486-.02,1.093-0.05,1.822s-0.08,1.373-.14,1.928h-38.85a17.768,17.768,0,0,0,1.72,5.312,14.363,14.363,0,0,0,5.71,5.99,16.943,16.943,0,0,0,8.62,2.135,16.883,16.883,0,0,0,13.44-6.146l6.3,8.125a22.289,22.289,0,0,1-8.48,6.667,30.066,30.066,0,0,1-25.96-1.406,25.412,25.412,0,0,1-9.55-10.105,31.149,31.149,0,0,1-3.38-14.739,31.863,31.863,0,0,1,3.29-14.74,25.6,25.6,0,0,1,9.09-10.1,24.013,24.013,0,0,1,13.21-3.7A23.489,23.489,0,0,1,1345.16,398.929Zm-20.34,9.062a13.213,13.213,0,0,0-5.06,5.782,18.88,18.88,0,0,0-1.57,5.625h28.06a16.828,16.828,0,0,0-1.6-5.677,13.792,13.792,0,0,0-4.96-5.73,13.372,13.372,0,0,0-7.41-2.031A13.9,13.9,0,0,0,1324.82,407.991ZM1310.5,311.6a14.005,14.005,0,0,1-4.64,4.781q-4.26,2.711-10.94,2.708a21.111,21.111,0,0,1-9.73-2.135,15.544,15.544,0,0,1-6.44-5.938,16.378,16.378,0,0,1-2.28-8.593,17.686,17.686,0,0,1,2-8.438,13.891,13.891,0,0,1,6.53-5.937q4.545-2.188,12.06-2.188h12.88v-0.833q0-5.729-3.1-8.907t-9.41-3.177a23.358,23.358,0,0,0-8.07,1.459,20.7,20.7,0,0,0-6.86,4.062l-4.54-9.479a28.019,28.019,0,0,1,9.55-5.208,36.736,36.736,0,0,1,11.4-1.771q10.845,0,16.69,5.833t5.84,17.917v32.6H1310.5V311.6Zm-0.56-17.094h-12.05c-3.89,0-6.54.713-7.93,2.135a7.367,7.367,0,0,0-2.08,5.365,6.819,6.819,0,0,0,2.5,5.521,10.557,10.557,0,0,0,6.95,2.083,13.759,13.759,0,0,0,7.65-2.187,12.564,12.564,0,0,0,4.96-6.459V294.5Zm-23.74,89.271v12.708h13.35V406.9H1286.2v26.458a9.206,9.206,0,0,0,1.86,6.146,6.417,6.417,0,0,0,5.19,2.187,8.975,8.975,0,0,0,6.3-2.291l3.34,9.271a13.972,13.972,0,0,1-5.1,2.812,19.922,19.922,0,0,1-6.03.938q-8.16,0-12.6-4.74-4.455-4.738-4.45-13.906V406.9h-8.16V396.481h8.16V383.773h11.49Zm-32.9-142.709h11.49v77.292H1253.3V241.064Zm8.71,183.23c0,0.486-.02,1.093-0.05,1.822s-0.08,1.373-.14,1.928h-38.85a17.489,17.489,0,0,0,1.72,5.312,14.4,14.4,0,0,0,5.7,5.99,16.969,16.969,0,0,0,8.62,2.135,16.922,16.922,0,0,0,13.45-6.146l6.3,8.125a22.365,22.365,0,0,1-8.48,6.667,30.066,30.066,0,0,1-25.96-1.406,25.412,25.412,0,0,1-9.55-10.105,31.031,31.031,0,0,1-3.38-14.739,31.739,31.739,0,0,1,3.29-14.74,25.577,25.577,0,0,1,9.08-10.1,24.06,24.06,0,0,1,13.21-3.7,23.523,23.523,0,0,1,12.89,3.594,24.77,24.77,0,0,1,8.9,10.052A33.787,33.787,0,0,1,1262.01,424.294Zm-12.66-10.573a13.863,13.863,0,0,0-4.96-5.73,13.383,13.383,0,0,0-7.42-2.031,13.9,13.9,0,0,0-7.46,2.031,13.193,13.193,0,0,0-5.05,5.782,18.306,18.306,0,0,0-1.57,5.625h28.05A16.818,16.818,0,0,0,1249.35,413.721Zm-20.06-98.334a25.531,25.531,0,0,1-13.63,3.7,25.119,25.119,0,0,1-13.49-3.7,26.029,26.029,0,0,1-9.41-10.156,33.384,33.384,0,0,1,0-29.479,26.433,26.433,0,0,1,9.36-10.052,25.089,25.089,0,0,1,13.54-3.7,25.442,25.442,0,0,1,13.67,3.7,25.93,25.93,0,0,1,9.37,10.052,33.941,33.941,0,0,1,0,29.531A25.693,25.693,0,0,1,1229.29,315.387Zm-0.79-34.062a14.5,14.5,0,0,0-5.24-6.042,14.276,14.276,0,0,0-15.02,0,14.873,14.873,0,0,0-5.28,6.042,20.412,20.412,0,0,0-1.95,9.219,20.819,20.819,0,0,0,1.95,9.218,14.726,14.726,0,0,0,5.28,6.146,13.5,13.5,0,0,0,7.42,2.136,13.785,13.785,0,0,0,7.6-2.136,14.37,14.37,0,0,0,5.24-6.146,21.235,21.235,0,0,0,1.9-9.218A20.819,20.819,0,0,0,1228.5,281.325ZM1200.26,374.4v77.291h-11.03V444.4a18.2,18.2,0,0,1-5.15,4.951,20.8,20.8,0,0,1-11.35,3.073,23.822,23.822,0,0,1-12.84-3.542,24.362,24.362,0,0,1-8.95-9.948,36.463,36.463,0,0,1,0-30.052,24.307,24.307,0,0,1,8.95-10,23.84,23.84,0,0,1,12.84-3.542,20.529,20.529,0,0,1,11.12,3.073,18.549,18.549,0,0,1,4.73,4.287V374.4h11.68Zm-13.39,40.26a15.353,15.353,0,0,0-5.29-6.042,14.1,14.1,0,0,0-14.92,0,15.276,15.276,0,0,0-5.29,6.042,20.025,20.025,0,0,0-1.99,9.219,20.43,20.43,0,0,0,1.99,9.219,15.1,15.1,0,0,0,5.29,6.145,14.1,14.1,0,0,0,14.92,0,15.179,15.179,0,0,0,5.29-6.145,20.563,20.563,0,0,0,1.99-9.219A20.153,20.153,0,0,0,1186.87,414.658Zm-8.66-96.3h-11.5V262.731h11.5v55.625Zm-5.75-64.792a6.888,6.888,0,0,1-5.33-2.291,8.054,8.054,0,0,1-2.09-5.625,7.787,7.787,0,0,1,2.09-5.417,6.892,6.892,0,0,1,5.33-2.292,7.135,7.135,0,0,1,5.33,2.136,7.507,7.507,0,0,1,2.09,5.469,8.349,8.349,0,0,1-2.04,5.677A6.8,6.8,0,0,1,1172.46,253.564Zm-46.26,64.792-21.23-55.625h11.96l15.43,41.252,15.9-41.252h11.13l-21.23,55.625H1126.2Zm-11.51,81.875-4.54,9.9a22.137,22.137,0,0,0-7.05-3.177,29.982,29.982,0,0,0-7.13-.886c-3.47,0-6.06.573-7.79,1.719a5.147,5.147,0,0,0-2.6,4.427,4.393,4.393,0,0,0,1.67,3.75,12.168,12.168,0,0,0,4.36,1.927q2.685,0.679,5.98,1.25t6.53,1.459a24.107,24.107,0,0,1,5.98,2.5,12.106,12.106,0,0,1,4.41,4.531,17.214,17.214,0,0,1-1.07,16.719,17.932,17.932,0,0,1-7.69,5.937,30.074,30.074,0,0,1-11.92,2.136,38.8,38.8,0,0,1-11.96-1.823,30.463,30.463,0,0,1-9.08-4.427l4.45-9.9a28.832,28.832,0,0,0,7.97,3.906,30.054,30.054,0,0,0,9.37,1.51q5.37,0,7.83-1.614a5.034,5.034,0,0,0,2.46-4.427,4.036,4.036,0,0,0-1.67-3.49,12.192,12.192,0,0,0-4.36-1.823c-1.79-.416-3.79-0.8-5.98-1.146a63.03,63.03,0,0,1-6.58-1.406,21.148,21.148,0,0,1-5.98-2.6,13.137,13.137,0,0,1-4.36-4.635,17.766,17.766,0,0,1,1.02-16.928,17.7,17.7,0,0,1,7.56-6.093,27.94,27.94,0,0,1,11.54-2.188,41.009,41.009,0,0,1,10.06,1.3A27.459,27.459,0,0,1,1114.69,400.231Zm-61.82-115.677q2.685,0.678,5.98,1.25t6.53,1.458a24.145,24.145,0,0,1,5.98,2.5,12.184,12.184,0,0,1,4.41,4.532,17.212,17.212,0,0,1-1.07,16.718,17.933,17.933,0,0,1-7.69,5.938,30.092,30.092,0,0,1-11.92,2.135,38.8,38.8,0,0,1-11.96-1.823,30.3,30.3,0,0,1-9.08-4.427l4.45-9.9a28.805,28.805,0,0,0,7.97,3.907,30.039,30.039,0,0,0,9.36,1.51q5.385,0,7.84-1.615a5.033,5.033,0,0,0,2.46-4.427,4.035,4.035,0,0,0-1.67-3.489A12.252,12.252,0,0,0,1060.1,297c-1.79-.417-3.79-0.8-5.98-1.146a63.288,63.288,0,0,1-6.58-1.406,21.176,21.176,0,0,1-5.98-2.6,13.052,13.052,0,0,1-4.36-4.636,17.764,17.764,0,0,1,1.02-16.927,17.708,17.708,0,0,1,7.56-6.094A27.956,27.956,0,0,1,1057.32,262a40.96,40.96,0,0,1,10.06,1.3,27.459,27.459,0,0,1,8.57,3.594l-4.54,9.9a22.238,22.238,0,0,0-7.05-3.178,29.98,29.98,0,0,0-7.13-.885c-3.47,0-6.06.573-7.79,1.719a5.147,5.147,0,0,0-2.6,4.427,4.393,4.393,0,0,0,1.67,3.75A12.106,12.106,0,0,0,1052.87,284.554Zm-11.79,110.781q10.845,0,16.69,5.834t5.84,17.916v32.6h-10.94v-6.76a13.975,13.975,0,0,1-4.63,4.781,20.094,20.094,0,0,1-10.94,2.709,21.112,21.112,0,0,1-9.74-2.136,15.542,15.542,0,0,1-6.44-5.937,16.377,16.377,0,0,1-2.27-8.594,17.681,17.681,0,0,1,1.99-8.438,13.916,13.916,0,0,1,6.54-5.937q4.53-2.187,12.05-2.188h12.89v-0.833q0-5.727-3.11-8.906t-9.41-3.177a23.356,23.356,0,0,0-8.07,1.458,20.8,20.8,0,0,0-6.86,4.063l-4.54-9.48a28.053,28.053,0,0,1,9.55-5.208A36.828,36.828,0,0,1,1041.08,395.335Zm-1.02,32.5q-5.835,0-7.92,2.136a7.374,7.374,0,0,0-2.09,5.364,6.847,6.847,0,0,0,2.5,5.521,10.568,10.568,0,0,0,6.96,2.083,13.806,13.806,0,0,0,7.65-2.187,12.666,12.666,0,0,0,4.96-6.458v-6.459h-12.06ZM1013.93,311.6a14.067,14.067,0,0,1-4.63,4.781c-2.85,1.807-6.49,2.708-10.944,2.708a21.107,21.107,0,0,1-9.734-2.135,15.564,15.564,0,0,1-6.443-5.938,16.41,16.41,0,0,1-2.272-8.593,17.683,17.683,0,0,1,1.994-8.438,13.9,13.9,0,0,1,6.536-5.937q4.541-2.188,12.053-2.188h12.89v-0.833q0-5.729-3.11-8.907t-9.41-3.177a23.315,23.315,0,0,0-8.066,1.459,20.673,20.673,0,0,0-6.861,4.062l-4.542-9.479a28.024,28.024,0,0,1,9.549-5.208,36.8,36.8,0,0,1,11.4-1.771q10.845,0,16.69,5.833t5.84,17.917v32.6h-10.94V311.6Zm-0.55-17.094h-12.06q-5.837,0-7.924,2.135A7.372,7.372,0,0,0,991.31,302a6.825,6.825,0,0,0,2.5,5.521,10.553,10.553,0,0,0,6.956,2.083,13.806,13.806,0,0,0,7.65-2.187,12.669,12.669,0,0,0,4.96-6.459V294.5ZM986.757,395.335a21.148,21.148,0,0,1,10.615,2.6,18.513,18.513,0,0,1,7.328,8.021q2.73,5.418,2.73,13.854v31.875H995.842V421.481q0-7.395-3.059-11.042t-8.715-3.645a13.866,13.866,0,0,0-7.231,1.875,12.272,12.272,0,0,0-4.867,5.572,22.155,22.155,0,0,0-1.715,9.323v28.125h-11.5V374.4h11.5V402.61a18.293,18.293,0,0,1,5.052-4.358A22.176,22.176,0,0,1,986.757,395.335ZM957.1,288.148q0-7.395-3.059-11.042t-8.715-3.646a13.869,13.869,0,0,0-7.231,1.875,12.275,12.275,0,0,0-4.867,5.573,22.17,22.17,0,0,0-1.715,9.323v28.125h-11.5V241.064h11.5v28.213a18.293,18.293,0,0,1,5.052-4.358A22.167,22.167,0,0,1,948.016,262a21.146,21.146,0,0,1,10.615,2.6,18.464,18.464,0,0,1,7.324,8.021q2.733,5.418,2.735,13.854v31.875H957.1V288.148ZM930.718,532.366a24.032,24.032,0,0,1,13.211-3.7,23.512,23.512,0,0,1,12.887,3.593,24.806,24.806,0,0,1,8.9,10.052,33.761,33.761,0,0,1,3.245,15.313q0,0.731-.047,1.823t-0.139,1.927H929.926a17.542,17.542,0,0,0,1.719,5.312,14.381,14.381,0,0,0,5.7,5.99,16.961,16.961,0,0,0,8.622,2.135,17.5,17.5,0,0,0,7.509-1.562,17.674,17.674,0,0,0,5.934-4.583l6.3,8.125a22.372,22.372,0,0,1-8.483,6.666,30.061,30.061,0,0,1-25.958-1.406,25.359,25.359,0,0,1-9.549-10.1,31.074,31.074,0,0,1-3.384-14.74,31.794,31.794,0,0,1,3.291-14.739A25.591,25.591,0,0,1,930.718,532.366ZM957.9,552.731a16.983,16.983,0,0,0-1.593-5.677,13.9,13.9,0,0,0-4.96-5.729,13.4,13.4,0,0,0-7.417-2.031,13.918,13.918,0,0,0-7.463,2.031,13.183,13.183,0,0,0-5.052,5.781,18.543,18.543,0,0,0-1.574,5.625H957.9Zm-47.438-11.875q-6.675,0-10.568,4.271T896,558.148v26.875H884.5V529.4h11.032v8.078a16.272,16.272,0,0,1,5.655-5.839,22.044,22.044,0,0,1,11.774-2.968v12.395q-0.65-.1-1.3-0.156T910.461,540.856Zm-36.8-221.771q-8.159,0-12.608-4.739t-4.45-13.907V273.564h-8.158V263.148h8.158V250.439h11.5v12.709h13.35v10.416H868.1v26.459a9.223,9.223,0,0,0,1.854,6.146,6.436,6.436,0,0,0,5.192,2.187,8.975,8.975,0,0,0,6.3-2.292l3.337,9.271a14.005,14.005,0,0,1-5.1,2.813A19.9,19.9,0,0,1,873.665,319.085ZM861.141,532.262a24.806,24.806,0,0,1,8.9,10.052,33.748,33.748,0,0,1,3.245,15.313q0,0.731-.047,1.823t-0.139,1.927H834.251a17.544,17.544,0,0,0,1.72,5.312,14.379,14.379,0,0,0,5.7,5.99,16.966,16.966,0,0,0,8.622,2.135,16.9,16.9,0,0,0,13.443-6.145l6.3,8.125a22.364,22.364,0,0,1-8.483,6.666,30.061,30.061,0,0,1-25.958-1.406,25.359,25.359,0,0,1-9.549-10.1,31.074,31.074,0,0,1-3.384-14.74,31.806,31.806,0,0,1,3.291-14.739,25.586,25.586,0,0,1,9.086-10.105,24.03,24.03,0,0,1,13.211-3.7A23.511,23.511,0,0,1,861.141,532.262Zm-12.886,7.032a13.915,13.915,0,0,0-7.463,2.031,13.178,13.178,0,0,0-5.053,5.781,18.542,18.542,0,0,0-1.573,5.625h28.059a17.007,17.007,0,0,0-1.594-5.677,13.889,13.889,0,0,0-4.96-5.729A13.393,13.393,0,0,0,848.255,539.294ZM828.7,288.148q0-7.395-3.059-11.042t-8.715-3.646a13.866,13.866,0,0,0-7.231,1.875,12.275,12.275,0,0,0-4.867,5.573,22.155,22.155,0,0,0-1.715,9.323v28.125h-11.5V262.731h11.032v7.154a18.26,18.26,0,0,1,5.516-4.966A22.167,22.167,0,0,1,819.617,262a21.146,21.146,0,0,1,10.615,2.6,18.464,18.464,0,0,1,7.324,8.021q2.733,5.418,2.735,13.854v31.875H828.7V288.148ZM802.178,517.106v12.708h13.35v10.417h-13.35v26.458a9.221,9.221,0,0,0,1.854,6.146,6.434,6.434,0,0,0,5.192,2.188,8.979,8.979,0,0,0,6.3-2.292L818.865,582a14,14,0,0,1-5.1,2.812,19.9,19.9,0,0,1-6.027.938q-8.159,0-12.608-4.74t-4.45-13.906V540.231h-8.158V529.814h8.158V517.106h11.5Zm-21.962-222.4H741.367a17.55,17.55,0,0,0,1.72,5.313,14.364,14.364,0,0,0,5.7,5.989,16.961,16.961,0,0,0,8.622,2.136A16.907,16.907,0,0,0,770.853,302l6.3,8.125a22.367,22.367,0,0,1-8.483,6.667,30.067,30.067,0,0,1-25.958-1.407,25.359,25.359,0,0,1-9.549-10.1,31.073,31.073,0,0,1-3.384-14.739,31.813,31.813,0,0,1,3.291-14.74,25.583,25.583,0,0,1,9.086-10.1,24.027,24.027,0,0,1,13.21-3.7,23.513,23.513,0,0,1,12.887,3.594,24.8,24.8,0,0,1,8.9,10.052A33.743,33.743,0,0,1,780.4,290.96q0,0.731-.047,1.823T780.216,294.71Zm-12.469-14.323a13.889,13.889,0,0,0-4.96-5.729,13.394,13.394,0,0,0-7.417-2.031,13.92,13.92,0,0,0-7.463,2.031,13.183,13.183,0,0,0-5.052,5.781,18.521,18.521,0,0,0-1.573,5.625H769.34A16.989,16.989,0,0,0,767.747,280.387Zm-52.891,38.7q-8.159,0-12.608-4.739t-4.45-13.907V273.564H689.64V263.148H697.8V250.439h11.5v12.709h13.35v10.416h-13.35v26.459a9.223,9.223,0,0,0,1.854,6.146,6.436,6.436,0,0,0,5.192,2.187,8.975,8.975,0,0,0,6.3-2.292l3.337,9.271a14,14,0,0,1-5.1,2.813A19.886,19.886,0,0,1,714.856,319.085Zm-44.963-30.937q0-7.395-3.059-11.042t-8.715-3.646a13.866,13.866,0,0,0-7.231,1.875,12.275,12.275,0,0,0-4.867,5.573,22.155,22.155,0,0,0-1.715,9.323v28.125h-11.5V262.731h11.032v7.154a18.26,18.26,0,0,1,5.516-4.966A22.167,22.167,0,0,1,660.808,262a21.148,21.148,0,0,1,10.615,2.6,18.464,18.464,0,0,1,7.324,8.021q2.733,5.418,2.735,13.854v31.875H669.893V288.148Zm-26.8,240.521a40.916,40.916,0,0,1,10.059,1.3,27.6,27.6,0,0,1,8.576,3.593l-4.543,9.9a22.2,22.2,0,0,0-7.046-3.177A30,30,0,0,0,643,539.4q-5.193,0-7.788,1.718a5.142,5.142,0,0,0-2.6,4.428,4.389,4.389,0,0,0,1.669,3.75,12.169,12.169,0,0,0,4.357,1.927q2.688,0.678,5.98,1.25t6.536,1.458a24.321,24.321,0,0,1,5.98,2.5,12.164,12.164,0,0,1,4.4,4.531,17.234,17.234,0,0,1-1.066,16.719,17.928,17.928,0,0,1-7.7,5.937,30.041,30.041,0,0,1-11.913,2.136,38.774,38.774,0,0,1-11.959-1.823,30.376,30.376,0,0,1-9.085-4.427l4.45-9.9a28.894,28.894,0,0,0,7.973,3.906,30.016,30.016,0,0,0,9.363,1.511q5.376,0,7.834-1.615a5.038,5.038,0,0,0,2.457-4.427,4.031,4.031,0,0,0-1.669-3.49,12.173,12.173,0,0,0-4.357-1.822q-2.691-.625-5.98-1.146a63.219,63.219,0,0,1-6.582-1.407,21.235,21.235,0,0,1-5.98-2.6,13.121,13.121,0,0,1-4.357-4.635A17.775,17.775,0,0,1,624,536.95a17.731,17.731,0,0,1,7.556-6.094A27.982,27.982,0,0,1,643.093,528.669ZM608.8,315.387a25.526,25.526,0,0,1-13.628,3.7,25.118,25.118,0,0,1-13.489-3.7,26.029,26.029,0,0,1-9.41-10.156,33.384,33.384,0,0,1,0-29.479,26.366,26.366,0,0,1,9.364-10.052,25.062,25.062,0,0,1,13.535-3.7,25.477,25.477,0,0,1,13.675,3.7,25.92,25.92,0,0,1,9.363,10.052,33.905,33.905,0,0,1,0,29.531A25.693,25.693,0,0,1,608.8,315.387Zm-0.788-34.062a14.512,14.512,0,0,0-5.238-6.042,14.272,14.272,0,0,0-15.018,0,14.833,14.833,0,0,0-5.285,6.042,20.439,20.439,0,0,0-1.947,9.219,20.846,20.846,0,0,0,1.947,9.218,14.687,14.687,0,0,0,5.285,6.146,13.47,13.47,0,0,0,7.416,2.136,13.8,13.8,0,0,0,7.6-2.136,14.38,14.38,0,0,0,5.238-6.146,21.293,21.293,0,0,0,1.9-9.218A20.875,20.875,0,0,0,608.011,281.325ZM576.54,404.143A16.264,16.264,0,0,1,582.2,398.3a22.044,22.044,0,0,1,11.774-2.969v12.4q-0.65-.1-1.3-0.156t-1.205-.052q-6.675,0-10.569,4.271T577,424.814v26.875h-11.5V396.064H576.54v8.079ZM522.534,300.335a21.565,21.565,0,0,0,7.324,5.313,22.684,22.684,0,0,0,9.317,1.875,20.992,20.992,0,0,0,9.364-2.136,24.264,24.264,0,0,0,7.973-6.51l7.787,8.229a29.735,29.735,0,0,1-11.125,9.167,33.731,33.731,0,0,1-14.648,3.125,34.08,34.08,0,0,1-13.813-2.761,32.335,32.335,0,0,1-10.986-7.864,36.891,36.891,0,0,1-7.278-11.875,44.634,44.634,0,0,1,0-30,36.51,36.51,0,0,1,7.324-11.875,32.873,32.873,0,0,1,11.033-7.865,35.976,35.976,0,0,1,28.368.313,29.285,29.285,0,0,1,11.125,9.114l-7.787,8.229a24.835,24.835,0,0,0-7.973-6.406,21.018,21.018,0,0,0-9.364-2.135,22.684,22.684,0,0,0-9.317,1.875,21.575,21.575,0,0,0-7.324,5.312,25.165,25.165,0,0,0-4.867,8.125,31.076,31.076,0,0,0,0,20.625A25.155,25.155,0,0,0,522.534,300.335Zm-6.485,98.7a24.028,24.028,0,0,1,13.211-3.7,23.512,23.512,0,0,1,12.886,3.594,24.806,24.806,0,0,1,8.9,10.052,33.748,33.748,0,0,1,3.245,15.313q0,0.729-.047,1.822t-0.139,1.928H515.256a17.544,17.544,0,0,0,1.72,5.312,14.379,14.379,0,0,0,5.7,5.99,16.961,16.961,0,0,0,8.622,2.135,16.9,16.9,0,0,0,13.443-6.146l6.3,8.125a22.367,22.367,0,0,1-8.483,6.667,30.061,30.061,0,0,1-25.958-1.406,25.368,25.368,0,0,1-9.549-10.105,31.067,31.067,0,0,1-3.384-14.739,31.813,31.813,0,0,1,3.291-14.74A25.583,25.583,0,0,1,516.049,399.033ZM543.23,419.4a17.007,17.007,0,0,0-1.594-5.677,13.892,13.892,0,0,0-4.96-5.73,13.393,13.393,0,0,0-7.416-2.031,13.921,13.921,0,0,0-7.464,2.031,13.191,13.191,0,0,0-5.052,5.782,18.534,18.534,0,0,0-1.573,5.625H543.23Zm-74.508,32.291-21.23-55.625h11.959l15.434,41.252,15.9-41.252h11.125l-21.231,55.625H468.722ZM447.21,284.554q2.688,0.678,5.98,1.25t6.536,1.458a24.314,24.314,0,0,1,5.979,2.5,12.162,12.162,0,0,1,4.4,4.532,17.232,17.232,0,0,1-1.066,16.718,17.937,17.937,0,0,1-7.695,5.938,30.063,30.063,0,0,1-11.913,2.135,38.769,38.769,0,0,1-11.959-1.823,30.4,30.4,0,0,1-9.086-4.427l4.45-9.9a28.881,28.881,0,0,0,7.973,3.907,30.054,30.054,0,0,0,9.364,1.51q5.374,0,7.834-1.615a5.038,5.038,0,0,0,2.456-4.427,4.029,4.029,0,0,0-1.668-3.489A12.17,12.17,0,0,0,454.441,297q-2.689-.626-5.979-1.146a63.231,63.231,0,0,1-6.583-1.406,21.27,21.27,0,0,1-5.979-2.6,13.126,13.126,0,0,1-4.358-4.636,17.779,17.779,0,0,1,1.02-16.927,17.738,17.738,0,0,1,7.556-6.094A27.982,27.982,0,0,1,451.66,262a40.922,40.922,0,0,1,10.059,1.3,27.562,27.562,0,0,1,8.575,3.594l-4.542,9.9a22.2,22.2,0,0,0-7.046-3.178,30.009,30.009,0,0,0-7.139-.885q-5.193,0-7.787,1.719a5.141,5.141,0,0,0-2.6,4.427,4.384,4.384,0,0,0,1.669,3.75A12.161,12.161,0,0,0,447.21,284.554Zm-5.095,124.427a33.761,33.761,0,0,1,3.245,15.313q0,0.729-.047,1.822t-0.139,1.928H406.325a17.542,17.542,0,0,0,1.719,5.312,14.381,14.381,0,0,0,5.7,5.99,16.961,16.961,0,0,0,8.622,2.135,16.9,16.9,0,0,0,13.443-6.146l6.3,8.125a22.375,22.375,0,0,1-8.483,6.667,30.061,30.061,0,0,1-25.958-1.406,25.368,25.368,0,0,1-9.549-10.105,31.067,31.067,0,0,1-3.384-14.739,31.8,31.8,0,0,1,3.291-14.74,25.588,25.588,0,0,1,9.085-10.1,24.033,24.033,0,0,1,13.211-3.7,23.513,23.513,0,0,1,12.887,3.594A24.806,24.806,0,0,1,442.115,408.981Zm-14.37-.99a13.4,13.4,0,0,0-7.417-2.031,13.918,13.918,0,0,0-7.463,2.031,13.191,13.191,0,0,0-5.052,5.782,18.534,18.534,0,0,0-1.574,5.625H434.3a16.983,16.983,0,0,0-1.593-5.677A13.9,13.9,0,0,0,427.745,407.991Zm-8.9-89.635h-11.5V262.731h11.5v55.625ZM413.1,253.564a6.886,6.886,0,0,1-5.331-2.291,8.046,8.046,0,0,1-2.086-5.625,7.779,7.779,0,0,1,2.086-5.417,6.89,6.89,0,0,1,5.331-2.292,7.132,7.132,0,0,1,5.33,2.136,7.5,7.5,0,0,1,2.086,5.469,8.353,8.353,0,0,1-2.039,5.677A6.782,6.782,0,0,1,413.1,253.564Zm-10.481,313.23a22.8,22.8,0,0,0,1.668-9.271V529.4h11.589v55.625H404.839v-7.132a18.311,18.311,0,0,1-5.378,4.944,20.03,20.03,0,0,1-10.568,2.917,22.68,22.68,0,0,1-11.125-2.656,18.287,18.287,0,0,1-7.556-8.125q-2.736-5.469-2.735-13.8V529.4h11.681v30.1q0,7.4,3.06,11.094a10.457,10.457,0,0,0,8.529,3.7,13.384,13.384,0,0,0,7.138-1.875A12.159,12.159,0,0,0,402.614,566.794ZM380.925,288.148q0-7.395-3.059-11.042t-8.715-3.646a13.866,13.866,0,0,0-7.231,1.875,12.275,12.275,0,0,0-4.867,5.573,22.155,22.155,0,0,0-1.715,9.323v28.125h-11.5V241.064h11.5v28.213a18.293,18.293,0,0,1,5.052-4.358A22.167,22.167,0,0,1,371.84,262a21.148,21.148,0,0,1,10.615,2.6,18.464,18.464,0,0,1,7.324,8.021q2.733,5.418,2.735,13.854v31.875H380.925V288.148Zm-66.656,30.208H302.217V256.9H280.708V245.439h55.069V256.9H314.269v61.458Zm-21.737,80.677a25.92,25.92,0,0,1,9.363,10.052,33.905,33.905,0,0,1,0,29.531,25.441,25.441,0,0,1-23.038,13.8,25.127,25.127,0,0,1-13.489-3.7,26.039,26.039,0,0,1-9.41-10.157,33.384,33.384,0,0,1,0-29.479,26.366,26.366,0,0,1,9.364-10.052,25.062,25.062,0,0,1,13.535-3.7A25.477,25.477,0,0,1,292.532,399.033Zm-13.582,7.448a13.652,13.652,0,0,0-7.51,2.135,14.837,14.837,0,0,0-5.284,6.042,20.439,20.439,0,0,0-1.947,9.219,20.854,20.854,0,0,0,1.947,9.219,14.682,14.682,0,0,0,5.284,6.145,13.465,13.465,0,0,0,7.417,2.136,13.79,13.79,0,0,0,7.6-2.136A14.377,14.377,0,0,0,291.7,433.1a21.3,21.3,0,0,0,1.9-9.219,20.875,20.875,0,0,0-1.9-9.219,14.518,14.518,0,0,0-5.238-6.042A13.649,13.649,0,0,0,278.95,406.481Zm-50.711,13.958H194.678v31.25H182.626V378.773h12.052v30.1h33.561v-30.1H240.2v72.916H228.239v-31.25Zm108.838,31.25H325.952l-18.171-55.625h10.94L331.8,437.021l13.621-40.957h9.734l13.358,41.1,13.435-41.1h10.29l-18.263,55.625H362.85l-12.722-38.457Zm-21.608,84.784a18.068,18.068,0,0,1,5.1-4.732,21.024,21.024,0,0,1,11.217-3.072,23.781,23.781,0,0,1,12.887,3.541,24.754,24.754,0,0,1,8.946,10,35.948,35.948,0,0,1,0,30.052,24.813,24.813,0,0,1-8.946,9.948,23.765,23.765,0,0,1-12.887,3.542,20.372,20.372,0,0,1-11.032-3.073,18.44,18.44,0,0,1-4.821-4.416v26.968h-11.5V529.4h11.033v7.075Zm2.225,29.9a15.133,15.133,0,0,0,5.284,6.146,13.9,13.9,0,0,0,14.972,0,15.263,15.263,0,0,0,5.238-6.146,22.676,22.676,0,0,0,0-18.386,14.95,14.95,0,0,0-5.238-6.041,14.185,14.185,0,0,0-14.972,0,14.828,14.828,0,0,0-5.284,6.041A22.676,22.676,0,0,0,317.694,566.377Zm124.969-30.234a18.606,18.606,0,0,1,4.821-4.4,20.392,20.392,0,0,1,11.033-3.072A23.78,23.78,0,0,1,471.4,532.21a24.754,24.754,0,0,1,8.946,10,35.938,35.938,0,0,1,0,30.052,24.813,24.813,0,0,1-8.946,9.948,23.764,23.764,0,0,1-12.886,3.542,21.008,21.008,0,0,1-11.218-3.073,17.958,17.958,0,0,1-5.1-4.749v7.093H431.168V507.731h11.5v28.412Zm1.762,30.286a14.692,14.692,0,0,0,5.284,6.146,14.192,14.192,0,0,0,14.973,0,14.826,14.826,0,0,0,5.238-6.146,20.851,20.851,0,0,0,1.947-9.219,20.445,20.445,0,0,0-1.947-9.219,14.965,14.965,0,0,0-5.238-6.041,14.187,14.187,0,0,0-14.973,0,14.828,14.828,0,0,0-5.284,6.041,20.445,20.445,0,0,0-1.947,9.219A20.851,20.851,0,0,0,444.425,566.429Zm61.835,18.594h-11.5V507.731h11.5v77.292ZM527.3,504.606a7.138,7.138,0,0,1,5.331,2.135,7.507,7.507,0,0,1,2.086,5.469,8.35,8.35,0,0,1-2.04,5.677,6.78,6.78,0,0,1-5.377,2.344,6.883,6.883,0,0,1-5.331-2.292,8.047,8.047,0,0,1-2.086-5.625,7.783,7.783,0,0,1,2.086-5.416A6.89,6.89,0,0,1,527.3,504.606Zm5.748,80.417h-11.5V529.4h11.5v55.625Zm24.056-52.657a26.124,26.124,0,0,1,13.86-3.7,24.227,24.227,0,0,1,12.7,3.333,20.546,20.546,0,0,1,8.344,9.687l-8.807,5.834a15.727,15.727,0,0,0-5.424-5.782,13.153,13.153,0,0,0-6.906-1.927,14.264,14.264,0,0,0-7.695,2.136,14.592,14.592,0,0,0-5.377,6.041,20.445,20.445,0,0,0-1.947,9.219,20.769,20.769,0,0,0,1.947,9.271,14.516,14.516,0,0,0,5.377,6.094,14.255,14.255,0,0,0,7.695,2.135,13.135,13.135,0,0,0,6.906-1.927,15.514,15.514,0,0,0,5.424-5.885l8.807,5.833a20.9,20.9,0,0,1-8.344,9.635,23.929,23.929,0,0,1-12.7,3.386,25.732,25.732,0,0,1-23.362-13.8,33.5,33.5,0,0,1,0-29.531A26.025,26.025,0,0,1,557.108,532.366Zm42.61-88.7a8.737,8.737,0,0,1,2.178-6.2,7,7,0,0,1,5.331-2.344,6.851,6.851,0,0,1,5.423,2.4,9.02,9.02,0,0,1,2.086,6.146,15.351,15.351,0,0,1-.185,2.343,21.615,21.615,0,0,1-.649,2.761q-0.465,1.562-1.3,3.958l-4.821,14.792h-7.416l3.669-16.13a7.236,7.236,0,0,1-2.14-1.527A8.5,8.5,0,0,1,599.718,443.669Zm1.009,71.875a8.737,8.737,0,0,1,2.178-6.2A7,7,0,0,1,608.236,507a6.851,6.851,0,0,1,5.423,2.4,9.02,9.02,0,0,1,2.086,6.146,20.206,20.206,0,0,1-.139,2.343,15.43,15.43,0,0,1-.6,2.709q-0.465,1.51-1.3,3.906l-4.914,14.792h-7.416l3.666-16.045a7.232,7.232,0,0,1-2.137-1.56A8.543,8.543,0,0,1,600.727,515.544ZM704.65,504.606a7.138,7.138,0,0,1,5.331,2.135,7.5,7.5,0,0,1,2.086,5.469,8.35,8.35,0,0,1-2.04,5.677,6.78,6.78,0,0,1-5.377,2.344,6.88,6.88,0,0,1-5.33-2.292,8.042,8.042,0,0,1-2.086-5.625,7.779,7.779,0,0,1,2.086-5.416A6.887,6.887,0,0,1,704.65,504.606Zm5.748,80.417H698.9V529.4h11.5v55.625Zm26.328-48.471a18.276,18.276,0,0,1,5.516-4.967,22.176,22.176,0,0,1,11.45-2.916,21.148,21.148,0,0,1,10.615,2.6,18.459,18.459,0,0,1,7.324,8.021q2.733,5.416,2.735,13.854v31.875H762.777V554.814q0-7.395-3.059-11.041T751,540.127A13.866,13.866,0,0,0,743.772,542a12.275,12.275,0,0,0-4.867,5.573,22.155,22.155,0,0,0-1.715,9.323v28.125h-11.5V529.4h11.032v7.154Zm250.127,36.96a30.016,30.016,0,0,0,9.363,1.511q5.376,0,7.834-1.615a5.034,5.034,0,0,0,2.46-4.427,4.037,4.037,0,0,0-1.67-3.49,12.173,12.173,0,0,0-4.36-1.822q-2.689-.625-5.979-1.146a63.274,63.274,0,0,1-6.582-1.407,21.235,21.235,0,0,1-5.98-2.6,13.121,13.121,0,0,1-4.357-4.635,17.772,17.772,0,0,1,1.02-16.927,17.734,17.734,0,0,1,7.555-6.094,27.987,27.987,0,0,1,11.543-2.187,40.96,40.96,0,0,1,10.06,1.3,27.482,27.482,0,0,1,8.57,3.593l-4.54,9.9a22.209,22.209,0,0,0-7.04-3.177,30.1,30.1,0,0,0-7.143-.885q-5.193,0-7.788,1.718a5.142,5.142,0,0,0-2.6,4.428,4.389,4.389,0,0,0,1.669,3.75,12.167,12.167,0,0,0,4.358,1.927q2.687,0.678,5.979,1.25t6.541,1.458a24.233,24.233,0,0,1,5.97,2.5,12.106,12.106,0,0,1,4.41,4.531,17.214,17.214,0,0,1-1.07,16.719,17.924,17.924,0,0,1-7.69,5.937,30.065,30.065,0,0,1-11.915,2.136,38.775,38.775,0,0,1-11.96-1.823,30.4,30.4,0,0,1-9.085-4.427l4.45-9.9A28.894,28.894,0,0,0,986.853,573.512Zm42.557-56.406h11.49v12.708h13.35v10.417H1040.9v26.458a9.206,9.206,0,0,0,1.86,6.146,6.415,6.415,0,0,0,5.19,2.188,8.976,8.976,0,0,0,6.3-2.292l3.34,9.271a13.972,13.972,0,0,1-5.1,2.812,19.922,19.922,0,0,1-6.03.938q-8.16,0-12.6-4.74t-4.45-13.906V540.231h-8.16V529.814h8.16V517.106Zm64.89,0h11.5v12.708h13.35v10.417H1105.8v26.458a9.2,9.2,0,0,0,1.85,6.146,6.442,6.442,0,0,0,5.19,2.188,8.984,8.984,0,0,0,6.31-2.292l3.33,9.271a13.972,13.972,0,0,1-5.1,2.812,19.81,19.81,0,0,1-6.02.938q-8.16,0-12.61-4.74t-4.45-13.906V540.231h-8.16V529.814h8.16V517.106Zm44.78,15.26a25.054,25.054,0,0,1,13.53-3.7,25.5,25.5,0,0,1,13.68,3.7,25.908,25.908,0,0,1,9.36,10.053,33.851,33.851,0,0,1,0,29.531,25.443,25.443,0,0,1-23.04,13.8,25.144,25.144,0,0,1-13.49-3.7,26.012,26.012,0,0,1-9.4-10.156,33.3,33.3,0,0,1,0-29.479A26.283,26.283,0,0,1,1139.08,532.366Zm0.83,34.063a14.683,14.683,0,0,0,5.29,6.146,13.437,13.437,0,0,0,7.41,2.135,13.818,13.818,0,0,0,7.61-2.135,14.356,14.356,0,0,0,5.23-6.146,21.239,21.239,0,0,0,1.9-9.219,20.825,20.825,0,0,0-1.9-9.219,14.478,14.478,0,0,0-5.23-6.041,14.27,14.27,0,0,0-15.02,0,14.819,14.819,0,0,0-5.29,6.041,20.551,20.551,0,0,0-1.94,9.219A20.961,20.961,0,0,0,1139.91,566.429Zm86.96-28.952a16.272,16.272,0,0,1,5.66-5.84,22.01,22.01,0,0,1,11.77-2.968v12.395c-0.43-.068-0.87-0.12-1.3-0.156s-0.83-.052-1.2-0.052q-6.675,0-10.57,4.271t-3.9,13.021v26.875h-11.49V529.4h11.03v8.079Zm35.18-5.111a24.07,24.07,0,0,1,13.22-3.7,23.488,23.488,0,0,1,12.88,3.593,24.77,24.77,0,0,1,8.9,10.052,33.787,33.787,0,0,1,3.25,15.313c0,0.487-.02,1.094-0.05,1.823s-0.08,1.372-.14,1.927h-38.85a17.489,17.489,0,0,0,1.72,5.312,14.4,14.4,0,0,0,5.7,5.99,16.969,16.969,0,0,0,8.62,2.135,17.455,17.455,0,0,0,7.51-1.562,17.636,17.636,0,0,0,5.94-4.583l6.3,8.125a22.362,22.362,0,0,1-8.48,6.666,30.066,30.066,0,0,1-25.96-1.406,25.4,25.4,0,0,1-9.55-10.1,31.038,31.038,0,0,1-3.38-14.74,31.732,31.732,0,0,1,3.29-14.739A25.58,25.58,0,0,1,1262.05,532.366Zm27.19,20.365a17.06,17.06,0,0,0-1.6-5.677,13.86,13.86,0,0,0-4.96-5.729,13.372,13.372,0,0,0-7.41-2.031,13.937,13.937,0,0,0-7.47,2.031,13.185,13.185,0,0,0-5.05,5.781,18.314,18.314,0,0,0-1.57,5.625h28.06Zm33.31-16.341a18.281,18.281,0,0,1,5.23-4.8,20.7,20.7,0,0,1,10.99-2.916,19.408,19.408,0,0,1,12.05,3.854,16.146,16.146,0,0,1,4.61,5.578,21.454,21.454,0,0,1,5.59-5.578,22.068,22.068,0,0,1,12.89-3.854,20.964,20.964,0,0,1,10.52,2.6,17.638,17.638,0,0,1,7.18,8.021q2.6,5.416,2.6,13.854v31.875h-11.5V554.814q0-7.395-2.92-11.041a10,10,0,0,0-8.29-3.646,11.7,11.7,0,0,0-11.27,7.448,23.019,23.019,0,0,0-1.62,9.219v28.229h-11.5V554.814q0-7.395-2.92-11.041a10,10,0,0,0-8.29-3.646,11.7,11.7,0,0,0-11.27,7.448,23.019,23.019,0,0,0-1.62,9.219v28.229h-11.5V529.4h11.04v6.992Zm91.5,18.32q4.545-2.187,12.05-2.187h12.89v-0.834q0-5.727-3.11-8.906t-9.41-3.177a23.283,23.283,0,0,0-8.06,1.458,20.616,20.616,0,0,0-6.86,4.063l-4.55-9.479a28.038,28.038,0,0,1,9.55-5.209,36.828,36.828,0,0,1,11.4-1.77q10.86,0,16.69,5.833,5.85,5.835,5.84,17.917v32.6h-10.94v-6.76a13.9,13.9,0,0,1-4.63,4.781,20.1,20.1,0,0,1-10.94,2.708,21.141,21.141,0,0,1-9.74-2.136,15.535,15.535,0,0,1-6.44-5.937,16.468,16.468,0,0,1-2.27-8.594,17.677,17.677,0,0,1,1.99-8.437A13.923,13.923,0,0,1,1414.05,554.71Zm5.38,19.479a10.521,10.521,0,0,0,6.95,2.084,13.8,13.8,0,0,0,7.65-2.188,12.614,12.614,0,0,0,4.96-6.458v-6.458h-12.06q-5.835,0-7.92,2.135a7.375,7.375,0,0,0-2.09,5.365A6.825,6.825,0,0,0,1419.43,574.189Zm51.73-69.583a7.138,7.138,0,0,1,5.33,2.135,7.5,7.5,0,0,1,2.08,5.469,8.345,8.345,0,0,1-2.04,5.677,6.772,6.772,0,0,1-5.37,2.344,6.871,6.871,0,0,1-5.33-2.292,8.005,8.005,0,0,1-2.09-5.625,7.742,7.742,0,0,1,2.09-5.416A6.878,6.878,0,0,1,1471.16,504.606Zm5.74,80.417h-11.49V529.4h11.49v55.625Zm178.97-14.374,15.9-41.251h11.13l-21.23,55.625h-11.96L1628.48,529.4h11.96Zm37.69-15.939q4.545-2.187,12.05-2.187h12.89v-0.834q0-5.727-3.11-8.906t-9.41-3.177a23.283,23.283,0,0,0-8.06,1.458,20.616,20.616,0,0,0-6.86,4.063l-4.55-9.479a28.132,28.132,0,0,1,9.55-5.209,36.845,36.845,0,0,1,11.41-1.77q10.845,0,16.68,5.833t5.84,17.917v32.6h-10.94v-6.76a13.9,13.9,0,0,1-4.63,4.781q-4.26,2.709-10.94,2.708a21.069,21.069,0,0,1-9.73-2.136,15.562,15.562,0,0,1-6.45-5.937,16.468,16.468,0,0,1-2.27-8.594,17.677,17.677,0,0,1,1.99-8.437A13.923,13.923,0,0,1,1693.56,554.71Zm5.38,19.479a10.539,10.539,0,0,0,6.95,2.084,13.8,13.8,0,0,0,7.65-2.188,12.614,12.614,0,0,0,4.96-6.458v-6.458h-12.05q-5.85,0-7.93,2.135a7.375,7.375,0,0,0-2.09,5.365A6.825,6.825,0,0,0,1698.94,574.189Zm51.73-69.583a7.138,7.138,0,0,1,5.33,2.135,7.5,7.5,0,0,1,2.08,5.469,8.345,8.345,0,0,1-2.04,5.677,6.772,6.772,0,0,1-5.37,2.344,6.871,6.871,0,0,1-5.33-2.292,8.05,8.05,0,0,1-2.09-5.625,7.787,7.787,0,0,1,2.09-5.416A6.878,6.878,0,0,1,1750.67,504.606Zm5.75,80.417h-11.5V529.4h11.5v55.625Zm47-30.313q4.53-2.187,12.05-2.187h12.88v-0.834q0-5.727-3.1-8.906t-9.41-3.177a23.38,23.38,0,0,0-8.07,1.458,20.819,20.819,0,0,0-6.86,4.063l-4.54-9.479a28.038,28.038,0,0,1,9.55-5.209,36.781,36.781,0,0,1,11.4-1.77q10.845,0,16.69,5.833t5.84,17.917v32.6h-10.94v-6.76a14.085,14.085,0,0,1-4.63,4.781,20.1,20.1,0,0,1-10.94,2.708,21.112,21.112,0,0,1-9.74-2.136,15.535,15.535,0,0,1-6.44-5.937,16.375,16.375,0,0,1-2.27-8.594,17.677,17.677,0,0,1,1.99-8.437A13.923,13.923,0,0,1,1803.42,554.71Zm5.37,19.479a10.568,10.568,0,0,0,6.96,2.084,13.742,13.742,0,0,0,7.64-2.188,12.562,12.562,0,0,0,4.96-6.458v-6.458H1816.3q-5.835,0-7.92,2.135a7.375,7.375,0,0,0-2.09,5.365A6.817,6.817,0,0,0,1808.79,574.189Zm57.48-38.046a18.7,18.7,0,0,1,4.82-4.4,20.416,20.416,0,0,1,11.03-3.072,23.767,23.767,0,0,1,12.89,3.541,24.8,24.8,0,0,1,8.95,10,35.958,35.958,0,0,1,0,30.052,24.858,24.858,0,0,1-8.95,9.948,23.751,23.751,0,0,1-12.89,3.542,20.968,20.968,0,0,1-11.21-3.073,18,18,0,0,1-5.1-4.749v7.093h-11.03V507.731h11.49v28.412Zm1.76,30.286a14.683,14.683,0,0,0,5.29,6.146,14.187,14.187,0,0,0,14.97,0,14.866,14.866,0,0,0,5.24-6.146,20.822,20.822,0,0,0,1.94-9.219,20.418,20.418,0,0,0-1.94-9.219,15.006,15.006,0,0,0-5.24-6.041,14.181,14.181,0,0,0-14.97,0,14.819,14.819,0,0,0-5.29,6.041,20.551,20.551,0,0,0-1.94,9.219A20.961,20.961,0,0,0,1868.03,566.429Zm61.84,18.594h-11.5V507.731h11.5v77.292Zm76.67-16.563a7.027,7.027,0,0,1,5.28,2.344,8.65,8.65,0,0,1,2.23,6.2,9.024,9.024,0,0,1-2.23,6.3,6.9,6.9,0,0,1-5.28,2.448,7.09,7.09,0,0,1-5.47-2.448,8.978,8.978,0,0,1-2.23-6.3,8.607,8.607,0,0,1,2.23-6.2A7.23,7.23,0,0,1,2006.54,568.46Zm57.57,5.1h33.93v11.459h-45.99V512.106h12.06v61.458Zm50.2-41.2a24.012,24.012,0,0,1,13.21-3.7,23.522,23.522,0,0,1,12.89,3.593,24.915,24.915,0,0,1,8.9,10.052,33.787,33.787,0,0,1,3.24,15.313c0,0.487-.02,1.094-0.05,1.823s-0.07,1.372-.13,1.927h-38.85a17.489,17.489,0,0,0,1.72,5.312,14.279,14.279,0,0,0,5.7,5.99,16.943,16.943,0,0,0,8.62,2.135,17.519,17.519,0,0,0,7.51-1.562,17.7,17.7,0,0,0,5.93-4.583l6.31,8.125a22.394,22.394,0,0,1-8.49,6.666,30.066,30.066,0,0,1-25.96-1.406,25.31,25.31,0,0,1-9.54-10.1,31.041,31.041,0,0,1-3.39-14.74,31.856,31.856,0,0,1,3.29-14.739A25.6,25.6,0,0,1,2114.31,532.366Zm27.18,20.365a17.05,17.05,0,0,0-1.59-5.677,13.932,13.932,0,0,0-4.96-5.729,13.43,13.43,0,0,0-7.42-2.031,13.9,13.9,0,0,0-7.46,2.031,13.205,13.205,0,0,0-5.06,5.781,18.889,18.889,0,0,0-1.57,5.625h28.06Zm25.8,1.979q4.545-2.187,12.05-2.187h12.89v-0.834q0-5.727-3.11-8.906t-9.41-3.177a23.283,23.283,0,0,0-8.06,1.458,20.616,20.616,0,0,0-6.86,4.063l-4.55-9.479a28.132,28.132,0,0,1,9.55-5.209,36.845,36.845,0,0,1,11.41-1.77q10.845,0,16.68,5.833,5.85,5.835,5.85,17.917v32.6h-10.94v-6.76a14.023,14.023,0,0,1-4.64,4.781q-4.26,2.709-10.94,2.708a21.069,21.069,0,0,1-9.73-2.136,15.562,15.562,0,0,1-6.45-5.937,16.468,16.468,0,0,1-2.27-8.594,17.677,17.677,0,0,1,1.99-8.437A13.923,13.923,0,0,1,2167.29,554.71Zm5.38,19.479a10.539,10.539,0,0,0,6.95,2.084,13.8,13.8,0,0,0,7.65-2.188,12.614,12.614,0,0,0,4.96-6.458v-6.458h-12.05q-5.85,0-7.93,2.135a7.375,7.375,0,0,0-2.09,5.365A6.825,6.825,0,0,0,2172.67,574.189Zm57.01-36.713a16.278,16.278,0,0,1,5.66-5.839,22.034,22.034,0,0,1,11.77-2.968v12.395c-0.43-.068-0.86-0.12-1.3-0.156s-0.83-.052-1.2-0.052q-6.675,0-10.57,4.271t-3.89,13.021v26.875h-11.5V529.4h11.03v8.078Zm38.48-.924a18.242,18.242,0,0,1,5.51-4.967,22.2,22.2,0,0,1,11.45-2.916,21.159,21.159,0,0,1,10.62,2.6,18.421,18.421,0,0,1,7.32,8.021q2.73,5.416,2.74,13.854v31.875h-11.59V554.814q0-7.395-3.06-11.041t-8.72-3.646A13.863,13.863,0,0,0,2275.2,542a12.255,12.255,0,0,0-4.86,5.573,22.073,22.073,0,0,0-1.72,9.323v28.125h-11.49V529.4h11.03v7.154Zm114.75,23.872,25.33-48.318h9.92l0.18,72.917h-11.58V536.6l-21.24,40.2h-5.47l-21.32-39.44v47.669h-11.49V512.106h9.92Zm53.69-164.36h11.5v55.625h-11.5V396.064Zm6.77,136.3a25.089,25.089,0,0,1,13.54-3.7,25.441,25.441,0,0,1,13.67,3.7,25.932,25.932,0,0,1,9.37,10.053,33.941,33.941,0,0,1,0,29.531,25.443,25.443,0,0,1-23.04,13.8,25.119,25.119,0,0,1-13.49-3.7,26.036,26.036,0,0,1-9.41-10.156,33.384,33.384,0,0,1,0-29.479A26.436,26.436,0,0,1,2443.37,532.366Zm0.84,34.063a14.733,14.733,0,0,0,5.28,6.146,13.494,13.494,0,0,0,7.42,2.135,13.784,13.784,0,0,0,7.6-2.135,14.376,14.376,0,0,0,5.24-6.146,21.239,21.239,0,0,0,1.9-9.219,20.825,20.825,0,0,0-1.9-9.219,14.5,14.5,0,0,0-5.24-6.041,14.27,14.27,0,0,0-15.02,0,14.87,14.87,0,0,0-5.28,6.041,20.418,20.418,0,0,0-1.95,9.219A20.824,20.824,0,0,0,2444.21,566.429Zm61.37-28.953a16.278,16.278,0,0,1,5.66-5.839,22.01,22.01,0,0,1,11.77-2.968v12.395c-0.43-.068-0.87-0.12-1.3-0.156s-0.83-.052-1.2-0.052q-6.675,0-10.57,4.271t-3.9,13.021v26.875h-11.49V529.4h11.03v8.078Zm35.18-5.11a24.036,24.036,0,0,1,13.21-3.7,23.522,23.522,0,0,1,12.89,3.593,24.77,24.77,0,0,1,8.9,10.052,33.787,33.787,0,0,1,3.25,15.313c0,0.487-.02,1.094-0.05,1.823s-0.08,1.372-.14,1.927h-38.85a17.489,17.489,0,0,0,1.72,5.312,14.4,14.4,0,0,0,5.7,5.99,16.969,16.969,0,0,0,8.62,2.135,16.925,16.925,0,0,0,13.45-6.145l6.3,8.125a22.362,22.362,0,0,1-8.48,6.666,30.066,30.066,0,0,1-25.96-1.406,25.4,25.4,0,0,1-9.55-10.1,31.038,31.038,0,0,1-3.38-14.74,31.732,31.732,0,0,1,3.29-14.739A25.58,25.58,0,0,1,2540.76,532.366Zm25.59,14.688a13.86,13.86,0,0,0-4.96-5.729,13.383,13.383,0,0,0-7.42-2.031,13.9,13.9,0,0,0-7.46,2.031,13.185,13.185,0,0,0-5.05,5.781,18.6,18.6,0,0,0-1.58,5.625h28.06A16.818,16.818,0,0,0,2566.35,547.054Z"/>
  <path id="This_Content_has_violated_rules_and_guidlines_._However_copy" data-name="This Content has violated      rules and guidlines . However,   copy" class="cls-3" d="M2578.96,559.45c-0.03.729-.08,1.372-0.14,1.927h-38.85a17.489,17.489,0,0,0,1.72,5.312,14.4,14.4,0,0,0,5.7,5.99,16.969,16.969,0,0,0,8.62,2.135,16.925,16.925,0,0,0,13.45-6.145l6.3,8.125a22.362,22.362,0,0,1-8.48,6.666,30.066,30.066,0,0,1-25.96-1.406,25.4,25.4,0,0,1-9.55-10.1,31.038,31.038,0,0,1-3.38-14.74,31.732,31.732,0,0,1,3.29-14.739,25.58,25.58,0,0,1,9.08-10.105,24.036,24.036,0,0,1,13.21-3.7,23.522,23.522,0,0,1,12.89,3.593,24.77,24.77,0,0,1,8.9,10.052,33.787,33.787,0,0,1,3.25,15.313C2579.01,558.114,2578.99,558.721,2578.96,559.45Zm-12.61-12.4a13.86,13.86,0,0,0-4.96-5.729,13.383,13.383,0,0,0-7.42-2.031,13.9,13.9,0,0,0-7.46,2.031,13.185,13.185,0,0,0-5.05,5.781,18.6,18.6,0,0,0-1.58,5.625h28.06A16.818,16.818,0,0,0,2566.35,547.054Zm-45.84-6.2q-6.675,0-10.57,4.271t-3.9,13.021v26.875h-11.49V529.4h11.03v8.078a16.278,16.278,0,0,1,5.66-5.839,22.01,22.01,0,0,1,11.77-2.968v12.395c-0.43-.068-0.87-0.12-1.3-0.156S2520.88,540.856,2520.51,540.856Zm-49.97,41.2a25.531,25.531,0,0,1-13.63,3.7,25.119,25.119,0,0,1-13.49-3.7,26.036,26.036,0,0,1-9.41-10.156,33.384,33.384,0,0,1,0-29.479,26.436,26.436,0,0,1,9.36-10.053,25.089,25.089,0,0,1,13.54-3.7,25.441,25.441,0,0,1,13.67,3.7,25.932,25.932,0,0,1,9.37,10.053,33.941,33.941,0,0,1,0,29.531A25.765,25.765,0,0,1,2470.54,582.054Zm-0.79-34.063a14.5,14.5,0,0,0-5.24-6.041,14.27,14.27,0,0,0-15.02,0,14.87,14.87,0,0,0-5.28,6.041,20.418,20.418,0,0,0-1.95,9.219,20.824,20.824,0,0,0,1.95,9.219,14.733,14.733,0,0,0,5.28,6.146,13.494,13.494,0,0,0,7.42,2.135,13.784,13.784,0,0,0,7.6-2.135,14.376,14.376,0,0,0,5.24-6.146,21.239,21.239,0,0,0,1.9-9.219A20.825,20.825,0,0,0,2469.75,547.991ZM2406.76,536.6l-21.24,40.2h-5.47l-21.32-39.44v47.669h-11.49V512.106h9.92l25.75,48.318,25.33-48.318h9.92l0.18,72.917h-11.58V536.6Zm-112.55,18.216q0-7.395-3.06-11.041t-8.72-3.646A13.863,13.863,0,0,0,2275.2,542a12.255,12.255,0,0,0-4.86,5.573,22.073,22.073,0,0,0-1.72,9.323v28.125h-11.49V529.4h11.03v7.154a18.242,18.242,0,0,1,5.51-4.967,22.2,22.2,0,0,1,11.45-2.916,21.159,21.159,0,0,1,10.62,2.6,18.421,18.421,0,0,1,7.32,8.021q2.73,5.416,2.74,13.854v31.875h-11.59V554.814Zm-49.6-13.958q-6.675,0-10.57,4.271t-3.89,13.021v26.875h-11.5V529.4h11.03v8.078a16.278,16.278,0,0,1,5.66-5.839,22.034,22.034,0,0,1,11.77-2.968v12.395c-0.43-.068-0.86-0.12-1.3-0.156S2244.98,540.856,2244.61,540.856Zm-51.82,37.407a14.023,14.023,0,0,1-4.64,4.781q-4.26,2.709-10.94,2.708a21.069,21.069,0,0,1-9.73-2.136,15.562,15.562,0,0,1-6.45-5.937,16.468,16.468,0,0,1-2.27-8.594,17.677,17.677,0,0,1,1.99-8.437,13.923,13.923,0,0,1,6.54-5.938q4.545-2.187,12.05-2.187h12.89v-0.834q0-5.727-3.11-8.906t-9.41-3.177a23.283,23.283,0,0,0-8.06,1.458,20.616,20.616,0,0,0-6.86,4.063l-4.55-9.479a28.132,28.132,0,0,1,9.55-5.209,36.845,36.845,0,0,1,11.41-1.77q10.845,0,16.68,5.833,5.85,5.835,5.85,17.917v32.6h-10.94v-6.76Zm-0.56-17.094h-12.05q-5.85,0-7.93,2.135a7.375,7.375,0,0,0-2.09,5.365,6.825,6.825,0,0,0,2.51,5.52,10.539,10.539,0,0,0,6.95,2.084,13.8,13.8,0,0,0,7.65-2.188,12.614,12.614,0,0,0,4.96-6.458v-6.458Zm-39.86.208h-38.85a17.489,17.489,0,0,0,1.72,5.312,14.279,14.279,0,0,0,5.7,5.99,16.943,16.943,0,0,0,8.62,2.135,17.519,17.519,0,0,0,7.51-1.562,17.7,17.7,0,0,0,5.93-4.583l6.31,8.125a22.394,22.394,0,0,1-8.49,6.666,30.066,30.066,0,0,1-25.96-1.406,25.31,25.31,0,0,1-9.54-10.1,31.041,31.041,0,0,1-3.39-14.74,31.856,31.856,0,0,1,3.29-14.739,25.6,25.6,0,0,1,9.09-10.105,24.012,24.012,0,0,1,13.21-3.7,23.522,23.522,0,0,1,12.89,3.593,24.915,24.915,0,0,1,8.9,10.052,33.787,33.787,0,0,1,3.24,15.313c0,0.487-.02,1.094-0.05,1.823S2152.43,560.822,2152.37,561.377Zm-12.47-14.323a13.932,13.932,0,0,0-4.96-5.729,13.43,13.43,0,0,0-7.42-2.031,13.9,13.9,0,0,0-7.46,2.031,13.205,13.205,0,0,0-5.06,5.781,18.889,18.889,0,0,0-1.57,5.625h28.06A17.05,17.05,0,0,0,2139.9,547.054Zm-87.85-34.948h12.06v61.458h33.93v11.459h-45.99V512.106Z"/>
  <path id="Shape_316_1" data-name="Shape 316 1" class="cls-4" d="M769.868,361c4.006,0.177,7.476,1.179,9.1,4.674,2.88,8.629.418,16.69-11.159,15.733-5.8-.683-9-4.448-7.984-11.469,0.313-2.168.427-3.68,1.344-5.141,1.269-2.023,3.524-3.144,6.324-3.639Zm-101.656,2.294h23.794q9.959,48.125,19.92,96.258H692.48l-0.079-.158q-2.094-10.914-4.189-21.83h-18.34q-2.292,10.993-4.584,21.988H646c0.026-.052.053-0.105,0.079-0.158Zm172.641,62.88q0.039,11.627.079,23.254,0.474,5.063.949,10.124h-13.6c-1.174,0-3.334.314-4.189-.158q-0.515-3.361-1.028-6.723h-0.395c-4.538,6.473-14.972,10.693-24.9,6.249-6.391-2.861-9.853-9.019-11.067-17.164a22.816,22.816,0,0,1,.949-9.333c4.148-13.681,17.337-17.79,33.042-19.932-0.056-10.913-10.185-11.6-19.446-8.7a64.571,64.571,0,0,0-6.245,2.769L791.369,393.9c8.086-4.824,28.029-7.926,37.785-2.373,6.914,3.935,10.526,10.4,11.462,20.327l14.466-.474-11.146-28.712c-0.946-3.012-3.042-8.828.395-10.836,3.864-1.506,9.6.8,12.332,4.113,2.333,2.41,4.462,6.652,6.165,10.52l6.64,15.581q1.74,4.548,3.479,9.1l15.651,0.317c4.4,0.158,8.512.249,13.2,0.474s12.169,0.68,13.122,6.8a7.138,7.138,0,0,1-1.344,5.221c-3.733,5.366-9.845,4.413-17.232,3.243l-9.249-.712-8.537-.317q1.9,5.616,3.794,11.232c2.28,6.562,3.968,13.3,5.929,20.169,1.7,5.966,2.165,11.949-3.478,13.921-5.716,2-9.319-2.379-11.067-5.774-3.2-6.217-4.582-13.775-6.956-20.96q-3.082-9.412-6.166-18.825ZM679.279,381.011q-2.529,14.79-5.059,29.582-1.185,6.207-2.371,12.418h14.544q-0.789-4.667-1.581-9.334-2.529-16.292-5.059-32.587c-0.026-.026-0.052-0.053-0.079-0.079h-0.395ZM755.4,407.429c-17.287-.592-17.154,9.544-17.153,26.338v25.785h-19.92V404.423q-0.277-7.355-.554-14.712l17.154,0.08q0.513,5.1,1.028,10.2h0.632c1.763-5.314,5.779-9.77,11.62-11.073,0.728-.163,6.81-0.548,7.193,0v18.508Zm4.822-17.718h19.92v69.841h-19.92V389.711Zm60.156,37.017-4.269.395c-4.066.859-7.816,2.675-9.723,5.695-1.457,1.662-1.9,11.061,2.451,13.288a7.809,7.809,0,0,0,4.9.791c6.76-1.086,7.509-5.62,7.509-13.525q-0.039-3.321-.079-6.644h-0.79Zm719.9-195.348c10.61-.055,14.34,7.135,17.78,14.28,3.27,6.791,6.19,14.045,9.13,21.181,1,2.416,2.99,7.981,3.85,9.68,3.02,0.014,9.18.1,12.59,0.1l15.09,0.479,4.04,0.1c4.36,0.714,8.27.535,11.53,2.2a7.535,7.535,0,0,1,4.13,8.338c-2.13,9.337-11.38,8.993-20.95,6.9l-9.81-.671c-1.43-.234-9.64-0.313-10.47-0.288l4.23,12.46c2.67,7.619,5.12,15.634,7.11,23.864,1.79,7.408,1.91,13.348-5.29,15.143-6.4,1.6-9.82-3.653-11.72-7.38-3.69-7.225-5.22-16.075-7.98-24.343q-3.315-10.062-6.63-20.127l-11.64.1c-8.91,0-18.55.019-26.53,0.863-7.39.781-10.83,0.1-12.01-4.026-1.07-3.752.5-8.171,2.59-9.776,3.18-2.434,8.43-2.132,13.37-2.875h5.86l11.82-.479,10.1-.288,0.09-.191q-1.77-4.457-3.56-8.914c-3.2-7.741-6.19-15.317-9.03-23.289-1.06-2.973-3.37-9.712-.29-12.076A10.774,10.774,0,0,1,1540.28,231.38Z"/>
</svg>
